<?xml version="1.0" encoding="UTF-8" standalone="no"?>
<!DOCTYPE svg PUBLIC "-//W3C//DTD SVG 1.1//EN" "http://www.w3.org/Graphics/SVG/1.1/DTD/svg11.dtd">
<svg width="100%" height="100%" viewBox="0 0 30 30" version="1.1" xmlns="http://www.w3.org/2000/svg" xmlns:xlink="http://www.w3.org/1999/xlink" xml:space="preserve" xmlns:serif="http://www.serif.com/" style="fill-rule:evenodd;clip-rule:evenodd;stroke-linejoin:round;stroke-miterlimit:2;">
    <g transform="matrix(1,0,0,1,-867,-1344)">
        <g id="ic_category_personal_care_beard_care" transform="matrix(1.00012,0,0,1.00037,-0.103692,-2.18513)">
            <rect x="867.75" y="1345.71" width="29.103" height="29.641" style="fill:none;"/>
            <g transform="matrix(1.76937,0,0,2.98038,-5.4321,997.54)">
                <g transform="matrix(0.565107,0,0,0.335403,200.808,41.2976)">
                    <path d="M529.282,235.948C529.282,235.948 530.117,236.699 531.347,237.051C531.826,237.187 532.36,237.269 532.919,237.223C533.973,237.137 535.123,236.667 536.11,235.316C536.196,235.217 536.186,235.066 536.087,234.979C535.988,234.892 535.837,234.902 535.75,235.002C534.758,235.952 533.78,236.191 532.912,236.131C532.488,236.101 532.1,235.981 531.746,235.847C530.818,235.495 530.177,234.932 530.177,234.932C529.897,234.684 529.468,234.711 529.221,234.992C528.974,235.272 529.001,235.7 529.282,235.948Z"/>
                </g>
                <g transform="matrix(0.565107,0,0,0.335403,200.808,41.2976)">
                    <path d="M523.534,235.842C521.31,235.663 519.885,234.601 519.275,233.308C518.706,232.104 518.9,230.698 519.884,229.772C520.422,231.326 521.453,231.947 522.572,231.814C523.526,231.7 524.688,230.927 525.863,229.381C526.676,228.298 527.781,227.533 528.914,227.234C530.014,226.944 531.146,227.139 532.001,228.041C532.378,228.431 532.999,228.445 533.394,228.073C534.351,227.171 535.482,227.135 536.567,227.596C537.685,228.07 538.76,229.016 539.625,230.19C540.448,231.296 541.796,231.972 543.081,231.827C543.861,231.739 544.648,231.376 545.27,230.598C545.505,231.123 545.571,231.678 545.495,232.21C545.355,233.181 544.781,234.078 543.934,234.584C542.533,235.425 540.408,235.591 538.19,234.962C536.399,234.454 534.551,233.438 532.948,231.815C532.882,231.745 532.789,231.708 532.693,231.715C532.597,231.721 532.509,231.771 532.454,231.849C531.433,233.388 530.21,234.336 528.999,234.935C527.211,235.818 525.453,235.952 524.39,236.066C524.37,236.068 524.354,236.085 524.356,236.106C524.358,236.126 524.375,236.141 524.396,236.14C525.484,236.089 527.28,236.06 529.151,235.268C530.375,234.749 531.624,233.904 532.733,232.528C534.292,234.2 536.107,235.303 537.892,235.915C540.429,236.784 542.909,236.631 544.587,235.737C545.827,235.072 546.701,233.83 546.964,232.456C547.215,231.141 546.892,229.706 545.795,228.495C545.603,228.292 545.321,228.201 545.046,228.252C544.772,228.302 544.541,228.489 544.434,228.747C544.059,229.608 543.51,230.026 542.915,230.071C542.235,230.123 541.56,229.697 541.146,229.099C539.836,227.23 538.069,225.831 536.308,225.428C535.085,225.148 533.854,225.312 532.731,226.068C531.735,225.357 530.593,225.093 529.438,225.214C527.606,225.405 525.727,226.579 524.481,228.388C523.714,229.516 523.013,230.199 522.349,230.317C522.022,230.375 521.736,230.242 521.503,229.941C521.254,229.618 521.048,229.163 520.898,228.575C520.854,228.375 520.717,228.207 520.529,228.125C520.342,228.042 520.126,228.054 519.948,228.157C517.903,229.451 517.422,231.831 518.502,233.711C519.309,235.116 520.991,236.25 523.52,236.234C523.628,236.238 523.719,236.154 523.723,236.045C523.727,235.937 523.642,235.846 523.534,235.842Z"/>
                </g>
                <g transform="matrix(0.565107,0,0,0.335403,200.808,41.2976)">
                    <path d="M544.852,242.553L544.878,242.554C544.969,242.554 545.056,242.517 545.12,242.451C545.12,242.451 546.414,241.027 546.46,239.007C546.484,237.994 546.199,236.831 545.254,235.631C545.242,235.614 545.219,235.611 545.203,235.622C545.186,235.634 545.182,235.657 545.194,235.674C545.992,236.894 546.178,238.02 546.075,238.981C545.93,240.33 545.202,241.335 544.84,241.76C544.753,241.686 544.647,241.589 544.529,241.47C544.384,241.323 544.224,241.141 544.065,240.928C543.951,240.786 543.754,240.741 543.589,240.817C543.423,240.894 543.331,241.073 543.365,241.252C543.503,242.194 543.369,242.991 543.139,243.639C542.873,244.387 542.466,244.927 542.181,245.238C542.075,245.16 541.957,245.069 541.841,244.971C541.701,244.855 541.566,244.728 541.462,244.605C541.274,244.399 540.976,244.335 540.72,244.446C540.464,244.556 540.307,244.816 540.327,245.094C540.37,246.099 540.129,246.891 539.795,247.504C539.457,248.123 539.016,248.548 538.672,248.812C538.612,248.738 538.55,248.658 538.486,248.575C538.308,248.34 538.127,248.074 537.999,247.822C537.82,247.489 537.447,247.307 537.074,247.37C536.701,247.433 536.409,247.728 536.35,248.102C536.184,249.017 535.611,250.162 534.829,251.122C534.178,251.922 533.375,252.608 532.465,252.806C531.738,252.603 531.15,252.104 530.661,251.533C529.333,249.984 528.72,247.84 528.72,247.84C528.63,247.501 528.356,247.243 528.013,247.172C527.67,247.101 527.316,247.229 527.099,247.504L526.343,248.529C525.94,248.149 525.648,247.682 525.433,247.214C524.853,245.953 524.787,244.67 524.787,244.67C524.782,244.364 524.589,244.093 524.302,243.989C524.014,243.885 523.692,243.969 523.493,244.201L522.88,244.985C522.481,244.604 522.216,244.126 522.037,243.646C521.594,242.455 521.642,241.255 521.642,241.255C521.659,241.049 521.55,240.854 521.367,240.76C521.184,240.666 520.962,240.691 520.805,240.823L520.133,241.476C519.485,240.561 519.214,239.677 519.158,238.884C519.027,237.021 520.023,235.672 520.023,235.672C520.09,235.587 520.077,235.464 519.992,235.396C519.908,235.328 519.784,235.342 519.717,235.426C519.717,235.426 518.505,236.835 518.495,238.905C518.491,239.954 518.799,241.165 519.714,242.454C519.794,242.559 519.917,242.625 520.049,242.634C520.182,242.644 520.312,242.596 520.406,242.503L520.615,242.325C520.654,242.97 520.776,243.8 521.101,244.586C521.408,245.327 521.902,246.018 522.639,246.519C522.92,246.697 523.285,246.648 523.508,246.409C523.637,247.042 523.853,247.773 524.213,248.466C524.628,249.266 525.24,250.001 526.09,250.519C526.482,250.747 526.984,250.641 527.249,250.273L527.499,249.962C527.859,250.831 528.4,251.9 529.15,252.806C529.949,253.771 530.982,254.537 532.226,254.805C532.343,254.83 532.464,254.834 532.583,254.816C533.768,254.626 534.881,253.942 535.78,252.983C536.558,252.154 537.18,251.132 537.588,250.145C537.782,250.354 537.917,250.485 537.917,250.485L537.929,250.497L537.942,250.51L537.954,250.52L537.966,250.531L537.981,250.543L537.994,250.554L538.005,250.562L538.018,250.573L538.035,250.584L538.049,250.595L538.06,250.601L538.072,250.609L538.092,250.621L538.108,250.63L538.118,250.635L538.129,250.642L538.151,250.652L538.169,250.661L538.179,250.665L538.188,250.669L538.212,250.678L538.233,250.686L538.242,250.689L538.249,250.692L538.275,250.699L538.3,250.707L538.306,250.708L538.311,250.71L538.342,250.716L538.368,250.722L538.377,250.723C538.416,250.729 538.457,250.733 538.498,250.733L538.51,250.734L538.51,250.733C538.637,250.734 538.766,250.705 538.884,250.645C538.884,250.645 540.319,249.903 541.125,248.176C541.367,247.657 541.56,247.049 541.635,246.344C541.719,246.397 541.792,246.44 541.844,246.47C541.866,246.482 541.887,246.494 541.908,246.504C541.992,246.561 542.091,246.597 542.196,246.605L542.243,246.607C542.385,246.607 542.521,246.557 542.629,246.465C542.629,246.465 543.66,245.561 544.1,243.94C544.238,243.434 544.322,242.858 544.297,242.219C544.414,242.303 544.52,242.37 544.609,242.42C544.667,242.497 544.755,242.546 544.852,242.553Z"/>
                </g>
            </g>
        </g>
    </g>
</svg>
