<?xml version="1.0" encoding="UTF-8" standalone="no"?>
<!DOCTYPE svg PUBLIC "-//W3C//DTD SVG 1.1//EN" "http://www.w3.org/Graphics/SVG/1.1/DTD/svg11.dtd">
<svg width="100%" height="100%" viewBox="0 0 30 28" version="1.1" xmlns="http://www.w3.org/2000/svg" xmlns:xlink="http://www.w3.org/1999/xlink" xml:space="preserve" xmlns:serif="http://www.serif.com/" style="fill-rule:evenodd;clip-rule:evenodd;stroke-linejoin:round;stroke-miterlimit:2;">
    <g transform="matrix(1,0,0,1,-740,-535)">
        <g id="ic_categories_bucket_list_business" transform="matrix(1.00334,0,0,1.0003,-2.50551,-0.171159)">
            <rect x="740.472" y="536" width="29.401" height="26.488" style="fill:none;"/>
            <clipPath id="_clip1">
                <rect x="740.472" y="536" width="29.401" height="26.488"/>
            </clipPath>
            <g clip-path="url(#_clip1)">
                <g transform="matrix(1.76369,0,0,1.42056,64.1297,398.282)">
                    <g>
                        <g transform="matrix(0.658873,0,0,0.488675,19.7357,36.1621)">
                            <path d="M576.954,131.717C576.954,131.717 572.602,131.352 567.595,131.036C566.279,130.952 564.921,130.882 563.584,130.821C562.032,130.75 560.511,130.69 559.127,130.65C557.336,130.598 555.774,130.585 554.67,130.564C554.329,130.563 553.995,130.677 553.686,130.891C553.376,131.105 553.092,131.422 552.851,131.826C552.61,132.231 552.42,132.708 552.293,133.227C552.166,133.747 552.1,134.308 552.102,134.88C552.102,134.88 552.144,141.439 552.144,141.439C552.156,142.509 552.394,143.494 552.799,144.232C553.201,144.962 553.751,145.47 554.38,145.575L564.91,147.26C564.951,147.268 564.993,147.268 565.034,147.26L575.469,144.71C575.956,144.59 576.381,144.182 576.679,143.588C576.97,143.005 577.144,142.252 577.13,141.44C577.13,141.44 576.986,133.365 576.986,133.365C576.986,133.335 576.972,133.311 576.954,133.311C576.937,133.311 576.923,133.335 576.923,133.365L576.779,141.44C576.768,142.088 576.611,142.676 576.363,143.118C576.121,143.55 575.787,143.833 575.411,143.89C575.411,143.89 564.985,145.473 564.985,145.473C564.985,145.473 554.559,143.023 554.559,143.023C554.323,142.969 554.122,142.758 553.977,142.474C553.835,142.196 553.76,141.829 553.764,141.439L553.807,134.88C553.808,134.689 553.833,134.502 553.877,134.329C553.92,134.156 553.982,133.996 554.063,133.861C554.143,133.726 554.238,133.62 554.341,133.548C554.444,133.475 554.556,133.436 554.67,133.436C555.774,133.415 557.336,133.402 559.127,133.35C560.511,133.31 562.031,133.25 563.584,133.179C564.921,133.118 566.279,133.048 567.595,132.964C572.602,132.648 576.954,132.283 576.954,132.283C577.047,132.283 577.123,132.156 577.123,132C577.123,131.844 577.047,131.717 576.954,131.717Z"/>
                        </g>
                        <g transform="matrix(0.658873,0,0,0.669915,19.7357,10.3842)">
                            <path d="M552.786,144.645C552.786,144.645 552.685,146.295 552.581,148.347C552.488,150.19 552.399,152.342 552.329,153.899C552.314,154.282 552.374,154.657 552.478,155.011C552.584,155.369 552.757,155.693 552.97,155.98C553.188,156.268 553.454,156.487 553.74,156.647C554.029,156.809 554.346,156.889 554.67,156.903C555.704,156.936 557.136,157.008 558.784,157.033C560.056,157.053 561.457,157.05 562.897,157.028C564.533,157.003 566.22,156.942 567.834,156.884C570.826,156.778 573.559,156.644 575.239,156.574C575.835,156.546 576.372,156.243 576.747,155.746C577.113,155.261 577.34,154.611 577.317,153.899C577.317,153.899 576.986,144.183 576.986,144.183C576.986,144.161 576.972,144.144 576.954,144.144C576.937,144.144 576.923,144.161 576.923,144.183L576.592,153.899C576.577,154.348 576.407,154.741 576.157,155.023C575.917,155.295 575.591,155.443 575.239,155.426C573.559,155.356 570.826,155.222 567.834,155.116C566.22,155.058 564.533,154.997 562.897,154.972C561.457,154.95 560.056,154.947 558.784,154.967C557.136,154.992 555.704,155.064 554.67,155.097C554.538,155.103 554.407,155.088 554.286,155.033C554.162,154.977 554.042,154.901 553.943,154.789C553.841,154.674 553.75,154.546 553.692,154.395C553.632,154.24 553.587,154.074 553.58,153.899C553.509,152.342 553.42,150.19 553.327,148.347C553.224,146.295 553.123,144.645 553.123,144.645C553.123,144.531 553.047,144.439 552.954,144.439C552.861,144.439 552.786,144.531 552.786,144.645Z"/>
                        </g>
                        <g transform="matrix(0.565107,0,0,0.493407,72.7093,32.5239)">
                            <path d="M560.149,136.26L560.43,133.427C560.439,133.33 560.483,133.253 560.516,133.17C560.546,133.095 560.605,133.057 560.654,133.003C560.697,132.955 560.756,132.96 560.809,132.94C560.855,132.922 560.902,132.963 560.95,132.972C561.572,133.059 562.416,133.212 563.36,133.311C563.878,133.365 564.421,133.415 564.966,133.422C565.51,133.429 566.055,133.406 566.572,133.352C567.518,133.253 568.357,133.056 568.982,132.952C569.035,132.941 569.083,132.892 569.134,132.91C569.191,132.93 569.256,132.921 569.305,132.973C569.361,133.031 569.426,133.069 569.462,133.152C569.502,133.245 569.556,133.328 569.568,133.438C569.568,133.438 569.915,136.407 569.915,136.407C569.915,136.436 569.931,136.46 569.951,136.46C569.972,136.461 569.989,136.437 569.989,136.408L570.396,133.455C570.433,133.178 570.4,132.909 570.358,132.638C570.315,132.356 570.203,132.117 570.084,131.878C569.958,131.63 569.782,131.468 569.602,131.311C569.416,131.149 569.202,131.095 568.982,131.048C568.357,130.944 567.518,130.747 566.572,130.648C566.055,130.594 565.51,130.571 564.966,130.578C564.421,130.585 563.878,130.635 563.36,130.689C562.416,130.788 561.572,130.941 560.95,131.028C560.95,131.028 560.95,131.028 560.95,131.028C560.73,131.069 560.515,131.123 560.326,131.278C560.142,131.427 559.964,131.59 559.832,131.833C559.704,132.069 559.59,132.311 559.536,132.593C559.484,132.866 559.445,133.143 559.47,133.429L559.756,136.261C559.756,136.415 559.844,136.54 559.953,136.54C560.061,136.54 560.149,136.415 560.149,136.26Z"/>
                        </g>
                        <g transform="matrix(0.828272,0,0,1.03145,-41.1798,-50.458)">
                            <path d="M525.416,152.341C525.416,152.235 525.395,152.13 525.355,152.034C525.314,151.938 525.256,151.849 525.18,151.774C525.104,151.7 525.016,151.641 524.92,151.601C524.823,151.562 524.719,151.54 524.613,151.541C524.613,151.541 521.295,151.573 521.295,151.573C521.194,151.574 521.094,151.593 521.002,151.633C520.911,151.673 520.826,151.728 520.756,151.801C520.685,151.874 520.629,151.958 520.592,152.05C520.556,152.142 520.535,152.24 520.537,152.341C520.537,152.341 520.582,153.906 520.582,153.906C520.585,154 520.602,154.093 520.64,154.177C520.678,154.261 520.728,154.34 520.796,154.405C520.864,154.469 520.941,154.521 521.027,154.554C521.112,154.586 521.203,154.606 521.295,154.603C521.295,154.603 524.613,154.487 524.613,154.487C524.69,154.484 524.765,154.469 524.834,154.438C524.902,154.407 524.965,154.365 525.017,154.31C525.069,154.254 525.111,154.192 525.137,154.122C525.162,154.054 525.177,153.98 525.175,153.906C525.175,153.906 525.117,152.341 525.117,152.341L525.416,152.341ZM521.327,153.891L521.369,152.428L524.613,152.459L524.529,152.426L524.492,152.341L524.791,152.341L524.734,153.906C524.734,153.906 524.692,153.984 524.692,153.984L524.613,154.007L521.327,153.891ZM521.314,153.891L521.295,153.89L521.312,153.889L521.314,153.891Z" style="fill:none;"/>
                        </g>
                    </g>
                    <g transform="matrix(0.828272,0,0,1.03145,-41.1798,-50.458)">
                        <path d="M524.954,152.341C524.954,152.251 524.918,152.164 524.854,152.1C524.79,152.036 524.704,152 524.613,152C523.858,152 522.051,152 521.295,152C521.205,152 521.118,152.036 521.054,152.1C520.99,152.164 520.954,152.251 520.954,152.341C520.954,152.765 520.954,153.482 520.954,153.906C520.954,153.996 520.99,154.083 521.054,154.147C521.118,154.211 521.205,154.247 521.295,154.247C522.051,154.247 523.858,154.247 524.613,154.247C524.704,154.247 524.79,154.211 524.854,154.147C524.918,154.083 524.954,153.996 524.954,153.906C524.954,153.482 524.954,152.765 524.954,152.341Z"/>
                    </g>
                </g>
            </g>
        </g>
    </g>
</svg>
