<?xml version="1.0" encoding="UTF-8" standalone="no"?>
<!DOCTYPE svg PUBLIC "-//W3C//DTD SVG 1.1//EN" "http://www.w3.org/Graphics/SVG/1.1/DTD/svg11.dtd">
<svg width="100%" height="100%" viewBox="0 0 27 30" version="1.1" xmlns="http://www.w3.org/2000/svg" xmlns:xlink="http://www.w3.org/1999/xlink" xml:space="preserve" xmlns:serif="http://www.serif.com/" style="fill-rule:evenodd;clip-rule:evenodd;stroke-linejoin:round;stroke-miterlimit:2;">
    <g transform="matrix(1,0,0,1,-625,-442)">
        <g id="Occasion-Mode" serif:id="Occasion Mode" transform="matrix(1.00352,0,0,1.00384,-1.402,-2.24677)">
            <rect x="624.954" y="442.775" width="25.422" height="29.225" style="fill:none;"/>
            <g transform="matrix(1.76336,0,0,1.41555,-279.674,162.625)">
                <g transform="matrix(-0.220693,0,0,0.288947,632.772,142.653)">
                    <path d="M492.013,230.466L502.275,237.631C502.596,237.865 502.73,238.264 502.611,238.632L499.354,249.197L508.206,242.708C508.648,242.387 509.261,242.387 509.702,242.708L518.573,249.231L515.274,238.639C515.152,238.262 515.29,237.852 515.619,237.613L525.681,230.536L513.445,230.333C513.204,230.333 512.992,230.182 512.926,229.961L509.038,216.064C509.001,215.941 509.075,215.814 509.204,215.779C509.332,215.744 509.466,215.814 509.503,215.936L513.841,229.3C513.841,229.3 526.152,229.096 526.152,229.096C526.448,229.091 526.726,229.184 526.959,229.336C527.192,229.49 527.369,229.716 527.469,229.982C527.57,230.25 527.567,230.534 527.489,230.794C527.41,231.056 527.24,231.291 527.004,231.468L517.372,238.695C517.372,238.695 521.235,250.105 521.235,250.105C521.351,250.452 521.337,250.816 521.221,251.145C521.104,251.475 520.876,251.768 520.563,251.979C520.249,252.191 519.879,252.289 519.512,252.284C519.145,252.279 518.782,252.161 518.474,251.941C518.474,251.941 508.955,245.108 508.955,245.108C508.955,245.108 499.447,251.955 499.447,251.955C499.135,252.178 498.768,252.298 498.397,252.302C498.026,252.306 497.652,252.208 497.336,251.992C497.021,251.777 496.79,251.483 496.674,251.15C496.559,250.817 496.543,250.451 496.662,250.101C496.662,250.101 500.565,238.683 500.565,238.683L490.947,231.415C490.724,231.246 490.562,231.024 490.488,230.775C490.415,230.527 490.412,230.258 490.508,230.005C490.604,229.752 490.772,229.538 490.993,229.394C491.213,229.25 491.477,229.162 491.757,229.167C491.757,229.167 504.192,229.44 504.192,229.44C504.192,229.44 508.911,217.244 508.911,217.244C508.919,217.221 508.945,217.209 508.969,217.217C508.993,217.224 509.006,217.249 508.998,217.272L504.836,229.94C504.782,230.092 504.633,230.194 504.464,230.194L492.013,230.466Z"/>
                </g>
                <g transform="matrix(0.565107,0,0,0.501569,212.422,130.101)">
                    <path d="M552.448,136L552.448,140C552.448,140.392 552.675,140.71 552.954,140.71C553.234,140.71 553.461,140.392 553.461,140L553.461,136C553.461,135.608 553.234,135.29 552.954,135.29C552.675,135.29 552.448,135.608 552.448,136Z"/>
                </g>
                <g transform="matrix(0.565107,0,0,0.501569,203.38,130.101)">
                    <path d="M552.448,136L552.448,140C552.448,140.392 552.675,140.71 552.954,140.71C553.234,140.71 553.461,140.392 553.461,140L553.461,136C553.461,135.608 553.234,135.29 552.954,135.29C552.675,135.29 552.448,135.608 552.448,136Z"/>
                </g>
                <g transform="matrix(0.849603,0,0,0.762707,118.54,98.9302)">
                    <path d="M480.824,137.972L480.824,137.977C480.824,138.077 480.882,138.158 480.954,138.158C480.954,138.158 481.08,138.138 481.085,137.964C481.086,137.944 481.087,137.903 481.089,137.845C481.096,137.574 481.062,137.307 480.996,137.057C480.928,136.804 480.823,136.571 480.688,136.369C480.551,136.165 480.387,136.006 480.208,135.891C480.026,135.775 479.828,135.713 479.624,135.702C478.12,135.632 475.549,135.494 472.973,135.392C470.398,135.29 467.825,135.224 466.321,135.175C466.065,135.168 465.814,135.237 465.581,135.365C465.346,135.493 465.132,135.691 464.947,135.939C464.762,136.189 464.619,136.487 464.519,136.81C464.418,137.134 464.366,137.486 464.363,137.845C464.354,139.75 464.322,142.875 464.326,146C464.33,149.125 464.369,152.25 464.383,154.155C464.386,154.511 464.438,154.859 464.537,155.18C464.637,155.499 464.778,155.794 464.961,156.041C465.144,156.287 465.356,156.482 465.588,156.61C465.819,156.738 466.068,156.807 466.321,156.802C466.321,156.802 479.624,156.454 479.624,156.454C479.843,156.447 480.057,156.384 480.254,156.264C480.449,156.144 480.629,155.975 480.779,155.757C480.929,155.541 481.046,155.29 481.123,155.016C481.199,154.744 481.239,154.452 481.234,154.155C481.234,154.155 480.979,138.859 480.979,138.859C480.979,138.841 480.968,138.825 480.954,138.825C480.941,138.825 480.93,138.841 480.93,138.859L480.674,154.155C480.671,154.347 480.638,154.533 480.583,154.706C480.529,154.877 480.449,155.03 480.35,155.162C480.252,155.292 480.136,155.389 480.012,155.455C479.89,155.521 479.758,155.55 479.624,155.546L466.321,155.198C466.222,155.196 466.126,155.163 466.036,155.109C465.948,155.056 465.868,154.976 465.8,154.878C465.732,154.781 465.682,154.665 465.647,154.542C465.612,154.42 465.598,154.288 465.599,154.155C465.612,152.25 465.652,149.125 465.656,146C465.66,142.875 465.628,139.75 465.619,137.845C465.618,137.715 465.632,137.587 465.666,137.469C465.7,137.349 465.748,137.236 465.814,137.142C465.881,137.047 465.958,136.968 466.044,136.916C466.131,136.863 466.224,136.828 466.321,136.825C466.321,136.825 466.321,136.825 466.321,136.825C467.825,136.776 470.398,136.71 472.973,136.608C475.549,136.506 478.12,136.368 479.624,136.298C479.773,136.29 479.921,136.319 480.059,136.39C480.199,136.462 480.33,136.568 480.441,136.712C480.555,136.858 480.647,137.03 480.71,137.221C480.775,137.416 480.814,137.627 480.82,137.845L480.823,137.964L480.824,137.972Z"/>
                </g>
                <g transform="matrix(0.565107,0,0,0.55753,110.702,109.325)">
                    <path d="M712.954,166.943L713.231,163.155C713.239,163.036 713.275,162.926 713.318,162.822C713.359,162.723 713.421,162.642 713.49,162.568C713.556,162.498 713.636,162.458 713.716,162.426C713.793,162.395 713.874,162.398 713.956,162.407C713.956,162.407 713.956,162.407 713.956,162.407C714.594,162.474 715.497,162.583 716.595,162.685C717.747,162.792 719.096,162.908 720.555,163.006C721.407,163.063 722.293,163.113 723.194,163.147C723.777,163.168 724.366,163.184 724.954,163.185C725.692,163.186 726.429,163.17 727.154,163.144C727.905,163.116 728.641,163.071 729.355,163.024C730.543,162.947 731.657,162.861 732.655,162.776C734.05,162.657 735.193,162.534 735.956,162.462C736.131,162.444 736.301,162.492 736.425,162.625C736.563,162.772 736.67,162.974 736.686,163.218L736.954,167.006L737.223,163.218C737.253,162.764 737.115,162.351 736.899,162.028C736.673,161.689 736.335,161.491 735.957,161.45C735.195,161.373 734.052,161.244 732.658,161.117C731.661,161.027 730.546,160.933 729.359,160.85C728.645,160.799 727.909,160.749 727.159,160.718C726.433,160.687 725.696,160.667 724.959,160.664C724.37,160.662 723.782,160.674 723.199,160.692C722.297,160.721 721.412,160.765 720.559,160.817C719.1,160.907 717.751,161.015 716.598,161.116C715.5,161.212 714.596,161.316 713.958,161.379C713.772,161.398 713.593,161.446 713.43,161.551C713.272,161.653 713.123,161.781 713.006,161.955C712.891,162.125 712.796,162.312 712.743,162.521C712.692,162.725 712.663,162.938 712.678,163.155L712.954,166.943Z"/>
                </g>
            </g>
        </g>
    </g>
</svg>
