<?xml version="1.0" encoding="UTF-8" standalone="no"?>
<!DOCTYPE svg PUBLIC "-//W3C//DTD SVG 1.1//EN" "http://www.w3.org/Graphics/SVG/1.1/DTD/svg11.dtd">
<svg width="100%" height="100%" viewBox="0 0 27 31" version="1.1" xmlns="http://www.w3.org/2000/svg" xmlns:xlink="http://www.w3.org/1999/xlink" xml:space="preserve" xmlns:serif="http://www.serif.com/" style="fill-rule:evenodd;clip-rule:evenodd;stroke-linejoin:round;stroke-miterlimit:2;">
    <g transform="matrix(1,0,0,1,-588,-400)">
        <g id="Bubket-List" serif:id="Bubket List" transform="matrix(0.628045,0,0,0.697359,223.876,123.761)">
            <rect x="580.437" y="397.044" width="41.052" height="42.731" style="fill:none;"/>
            <g transform="matrix(1.59224,0,0,1.43398,-360.893,-180.985)">
                <g transform="matrix(0.416667,-2.49052e-18,-3.24529e-18,0.416667,307.523,388.978)">
                    <path d="M704.954,43.647C704.954,43.647 701.278,43.142 697.954,42.791C696.855,42.675 695.81,42.6 694.954,42.523C694.954,42.523 694.954,42.523 694.954,42.523C693.979,42.456 693.1,42.867 692.419,43.465C691.719,44.08 691.334,44.996 691.273,46C691.273,46 691.273,46 691.273,46C691.241,47.11 691.164,48.554 691.157,50C691.151,51.446 691.215,52.89 691.238,54C691.238,54 691.238,54 691.238,54C691.288,55.016 691.682,55.941 692.381,56.573C693.065,57.192 693.96,57.61 694.954,57.559L702.954,57.042C703.78,56.982 704.525,56.652 705.025,56.071C705.506,55.512 705.822,54.793 705.76,54L705.021,44.909C705.021,44.872 704.991,44.842 704.954,44.842C704.918,44.842 704.888,44.872 704.888,44.909L704.149,54C704.124,54.315 703.934,54.566 703.712,54.757C703.513,54.929 703.237,54.979 702.954,54.958C702.954,54.958 694.954,54.441 694.954,54.441C694.841,54.435 694.77,54.334 694.699,54.255C694.641,54.192 694.666,54.093 694.671,54C694.693,52.89 694.758,51.446 694.752,50C694.745,48.554 694.668,47.11 694.635,46C694.629,45.894 694.596,45.781 694.661,45.707C694.744,45.613 694.82,45.486 694.954,45.477C695.81,45.4 696.855,45.325 697.954,45.209C701.278,44.858 704.954,44.353 704.954,44.353C705.149,44.353 705.307,44.195 705.307,44C705.307,43.805 705.149,43.647 704.954,43.647Z"/>
                </g>
                <g transform="matrix(0.416667,-2.49052e-18,-3.24529e-18,0.416667,307.927,396.978)">
                    <path d="M704.954,43.647C704.954,43.647 701.278,43.142 697.954,42.791C696.855,42.675 695.81,42.6 694.954,42.523C694.954,42.523 694.954,42.523 694.954,42.523C693.979,42.456 693.1,42.867 692.419,43.465C691.719,44.08 691.334,44.996 691.273,46C691.273,46 691.273,46 691.273,46C691.241,47.11 691.164,48.554 691.157,50C691.151,51.446 691.215,52.89 691.238,54C691.238,54 691.238,54 691.238,54C691.288,55.016 691.682,55.941 692.381,56.573C693.065,57.192 693.96,57.61 694.954,57.559L702.954,57.042C703.78,56.982 704.525,56.652 705.025,56.071C705.506,55.512 705.822,54.793 705.76,54L705.021,44.909C705.021,44.872 704.991,44.842 704.954,44.842C704.918,44.842 704.888,44.872 704.888,44.909L704.149,54C704.124,54.315 703.934,54.566 703.712,54.757C703.513,54.929 703.237,54.979 702.954,54.958C702.954,54.958 694.954,54.441 694.954,54.441C694.841,54.435 694.77,54.334 694.699,54.255C694.641,54.192 694.666,54.093 694.671,54C694.693,52.89 694.758,51.446 694.752,50C694.745,48.554 694.668,47.11 694.635,46C694.629,45.894 694.596,45.781 694.661,45.707C694.744,45.613 694.82,45.486 694.954,45.477C695.81,45.4 696.855,45.325 697.954,45.209C701.278,44.858 704.954,44.353 704.954,44.353C705.149,44.353 705.307,44.195 705.307,44C705.307,43.805 705.149,43.647 704.954,43.647Z"/>
                </g>
                <g transform="matrix(0.416667,-2.49052e-18,-3.24529e-18,0.416667,307.927,404.978)">
                    <path d="M704.954,43.647C704.954,43.647 701.278,43.142 697.954,42.791C696.855,42.675 695.81,42.6 694.954,42.523C694.954,42.523 694.954,42.523 694.954,42.523C693.979,42.456 693.1,42.867 692.419,43.465C691.719,44.08 691.334,44.996 691.273,46C691.273,46 691.273,46 691.273,46C691.241,47.11 691.164,48.554 691.157,50C691.151,51.446 691.215,52.89 691.238,54C691.238,54 691.238,54 691.238,54C691.288,55.016 691.682,55.941 692.381,56.573C693.065,57.192 693.96,57.61 694.954,57.559L702.954,57.042C703.78,56.982 704.525,56.652 705.025,56.071C705.506,55.512 705.822,54.793 705.76,54L705.021,44.909C705.021,44.872 704.991,44.842 704.954,44.842C704.918,44.842 704.888,44.872 704.888,44.909L704.149,54C704.124,54.315 703.934,54.566 703.712,54.757C703.513,54.929 703.237,54.979 702.954,54.958C702.954,54.958 694.954,54.441 694.954,54.441C694.841,54.435 694.77,54.334 694.699,54.255C694.641,54.192 694.666,54.093 694.671,54C694.693,52.89 694.758,51.446 694.752,50C694.745,48.554 694.668,47.11 694.635,46C694.629,45.894 694.596,45.781 694.661,45.707C694.744,45.613 694.82,45.486 694.954,45.477C695.81,45.4 696.855,45.325 697.954,45.209C701.278,44.858 704.954,44.353 704.954,44.353C705.149,44.353 705.307,44.195 705.307,44C705.307,43.805 705.149,43.647 704.954,43.647Z"/>
                </g>
                <g transform="matrix(1,0,0,1.16453,-120.7,324.675)">
                    <path d="M736.79,69.859L736.789,69.865C736.789,69.958 736.877,70.033 736.986,70.033C736.986,70.033 737.18,70.01 737.182,69.845C737.182,69.819 737.183,69.765 737.184,69.69C737.189,69.169 736.945,68.697 736.553,68.35C736.155,67.997 735.599,67.779 734.983,67.767C734.983,67.767 714.954,67.407 714.954,67.407C714.596,67.401 714.246,67.46 713.919,67.57C713.59,67.681 713.29,67.851 713.031,68.066C712.771,68.282 712.57,68.54 712.429,68.819C712.287,69.1 712.214,69.405 712.208,69.717C712.171,71.927 712.083,75.963 712.034,80C711.984,84.036 711.972,88.073 711.955,90.283C711.955,90.624 712.034,90.959 712.183,91.268C712.332,91.578 712.552,91.862 712.833,92.104C713.115,92.345 713.447,92.533 713.808,92.66C714.168,92.787 714.557,92.854 714.954,92.853C717.606,92.825 722.471,92.789 726.954,92.728C730.116,92.684 733.085,92.623 734.954,92.591C735.31,92.584 735.657,92.522 735.976,92.401C736.293,92.281 736.586,92.112 736.83,91.893C737.071,91.675 737.263,91.423 737.387,91.148C737.51,90.874 737.577,90.581 737.569,90.283C737.569,90.283 736.991,72 736.991,72C736.991,71.982 736.975,71.968 736.954,71.968C736.934,71.968 736.917,71.982 736.917,72L736.34,90.283C736.335,90.439 736.289,90.591 736.217,90.732C736.146,90.87 736.038,90.994 735.908,91.101C735.779,91.206 735.626,91.283 735.463,91.337C735.303,91.391 735.13,91.412 734.954,91.409C734.954,91.409 734.954,91.409 734.954,91.409C733.085,91.377 730.116,91.316 726.954,91.272C722.471,91.211 717.605,91.175 714.954,91.147C714.821,91.147 714.691,91.122 714.57,91.078C714.45,91.035 714.341,90.971 714.247,90.89C714.153,90.809 714.08,90.715 714.03,90.611C713.98,90.508 713.954,90.397 713.953,90.283C713.937,88.073 713.925,84.036 713.875,80C713.825,75.963 713.738,71.927 713.7,69.717C713.698,69.574 713.724,69.432 713.784,69.301C713.845,69.169 713.932,69.045 714.049,68.94C714.168,68.835 714.306,68.749 714.459,68.691C714.615,68.633 714.782,68.596 714.954,68.593L734.983,68.233C735.46,68.224 735.899,68.378 736.221,68.639C736.55,68.905 736.764,69.277 736.782,69.695C736.785,69.769 736.788,69.824 736.789,69.85L736.79,69.859Z"/>
                </g>
                <g transform="matrix(-0.00599588,0.999988,-1.22667,-0.00488789,680.798,-80.8146)">
                    <path d="M491.602,59.997C491.602,59.997 491.601,58.496 491.508,56.797C491.386,54.564 491.124,51.999 491.124,51.999C491.124,51.891 491.016,51.805 490.885,51.805C490.753,51.806 490.646,51.894 490.647,52.001C490.647,52.001 490.41,54.568 490.31,56.803C490.233,58.503 490.248,60.003 490.248,60.003C490.249,60.308 490.554,60.554 490.927,60.552C491.301,60.55 491.603,60.301 491.602,59.997Z"/>
                </g>
                <g transform="matrix(-0.00599588,0.999988,-1.22667,-0.00488789,680.798,-72.7881)">
                    <path d="M491.602,59.997C491.602,59.997 491.601,58.496 491.508,56.797C491.386,54.564 491.124,51.999 491.124,51.999C491.124,51.891 491.016,51.805 490.885,51.805C490.753,51.806 490.646,51.894 490.647,52.001C490.647,52.001 490.41,54.568 490.31,56.803C490.233,58.503 490.248,60.003 490.248,60.003C490.249,60.308 490.554,60.554 490.927,60.552C491.301,60.55 491.603,60.301 491.602,59.997Z"/>
                </g>
                <g transform="matrix(-0.00599588,0.999988,-1.22667,-0.00488789,680.814,-64.8146)">
                    <path d="M491.602,59.997C491.602,59.997 491.601,58.496 491.508,56.797C491.386,54.564 491.124,51.999 491.124,51.999C491.124,51.891 491.016,51.805 490.885,51.805C490.753,51.806 490.646,51.894 490.647,52.001C490.647,52.001 490.41,54.568 490.31,56.803C490.233,58.503 490.248,60.003 490.248,60.003C490.249,60.308 490.554,60.554 490.927,60.552C491.301,60.55 491.603,60.301 491.602,59.997Z"/>
                </g>
                <g transform="matrix(1.21175,0,0,1.75776,-272.82,284.359)">
                    <path d="M719.463,71.59C719.335,71.489 719.178,71.367 719.017,71.248C718.618,70.953 718.204,70.682 718.204,70.682C718.173,70.651 718.111,70.644 718.067,70.666C718.023,70.688 718.012,70.73 718.044,70.761C718.044,70.761 718.284,71.118 718.561,71.473C718.834,71.823 719.135,72.158 719.135,72.158C719.209,72.229 719.328,72.271 719.454,72.271C719.454,72.271 719.613,72.271 719.791,72.154C719.877,72.099 720.059,71.985 720.282,71.824C720.437,71.712 720.607,71.577 720.79,71.431C721.157,71.135 721.559,70.795 721.925,70.48C722.542,69.952 723.031,69.51 723.031,69.51C723.04,69.505 723.04,69.495 723.031,69.489C723.023,69.484 723.009,69.484 723,69.49C723,69.49 722.368,69.835 721.614,70.27C721.165,70.528 720.678,70.811 720.256,71.069C720.046,71.198 719.854,71.318 719.695,71.426C719.607,71.486 719.53,71.541 719.463,71.59Z"/>
                </g>
                <g transform="matrix(1.21175,0,0,1.75776,-272.339,300.294)">
                    <path d="M719.463,71.59C719.335,71.489 719.178,71.367 719.017,71.248C718.618,70.953 718.204,70.682 718.204,70.682C718.173,70.651 718.111,70.644 718.067,70.666C718.023,70.688 718.012,70.73 718.044,70.761C718.044,70.761 718.284,71.118 718.561,71.473C718.834,71.823 719.135,72.158 719.135,72.158C719.209,72.229 719.328,72.271 719.454,72.271C719.454,72.271 719.613,72.271 719.791,72.154C719.877,72.099 720.059,71.985 720.282,71.824C720.437,71.712 720.607,71.577 720.79,71.431C721.157,71.135 721.559,70.795 721.925,70.48C722.542,69.952 723.031,69.51 723.031,69.51C723.04,69.505 723.04,69.495 723.031,69.489C723.023,69.484 723.009,69.484 723,69.49C723,69.49 722.368,69.835 721.614,70.27C721.165,70.528 720.678,70.811 720.256,71.069C720.046,71.198 719.854,71.318 719.695,71.426C719.607,71.486 719.53,71.541 719.463,71.59Z"/>
                </g>
            </g>
        </g>
    </g>
</svg>
