<?xml version="1.0" encoding="UTF-8" standalone="no"?>
<!DOCTYPE svg PUBLIC "-//W3C//DTD SVG 1.1//EN" "http://www.w3.org/Graphics/SVG/1.1/DTD/svg11.dtd">
<svg width="100%" height="100%" viewBox="0 0 30 30" version="1.1" xmlns="http://www.w3.org/2000/svg" xmlns:xlink="http://www.w3.org/1999/xlink" xml:space="preserve" xmlns:serif="http://www.serif.com/" style="fill-rule:evenodd;clip-rule:evenodd;stroke-linejoin:round;stroke-miterlimit:2;">
    <g transform="matrix(1,0,0,1,-830,-701)">
        <g id="ic_category_groups_entertainment" transform="matrix(0.956127,0,0,1.00062,36.439,-4.71137)">
            <rect x="830.762" y="705.474" width="29.716" height="29.117" style="fill:none;"/>
            <g transform="matrix(1.85078,0,0,1.42012,202.261,525.029)">
                <g transform="matrix(0.641461,0,0,0.850171,5.84899,-8.63693)">
                    <path d="M529.856,160.491C530.38,160.491 530.806,160.899 530.806,161.402C530.806,161.904 530.38,162.312 529.856,162.312C529.331,162.312 528.906,161.904 528.906,161.402C528.906,160.899 529.331,160.491 529.856,160.491ZM529.856,161.052C529.954,161.05 530.045,161.083 530.111,161.144C530.182,161.211 530.235,161.299 530.237,161.402C530.242,161.511 530.215,161.615 530.145,161.691C530.07,161.772 529.978,161.851 529.856,161.86C529.716,161.871 529.58,161.849 529.481,161.769C529.367,161.676 529.271,161.555 529.257,161.402C529.24,161.231 529.277,161.068 529.382,160.945C529.498,160.81 529.659,160.706 529.856,160.689L529.856,161.052Z" style="fill:none;"/>
                </g>
                <g transform="matrix(-0.503108,-0.280904,-0.233872,0.649584,652.756,174.57)">
                    <path d="M529.856,160.156C530.212,160.16 530.535,160.298 530.766,160.524C530.997,160.75 531.14,161.06 531.134,161.402C531.123,161.738 530.981,162.044 530.741,162.256C530.508,162.461 530.196,162.587 529.856,162.571C529.526,162.553 529.23,162.421 529.025,162.202C528.826,161.989 528.702,161.708 528.722,161.401C528.724,161.19 528.782,161.003 528.876,160.858C529.004,160.662 529.186,160.538 529.36,160.508C529.426,160.493 529.492,160.532 529.508,160.595C529.524,160.659 529.483,160.722 529.417,160.738C529.309,160.769 529.209,160.866 529.144,160.999C529.092,161.107 529.071,161.24 529.089,161.392C529.089,161.396 529.089,161.399 529.089,161.402C529.1,161.6 529.2,161.77 529.344,161.891C529.479,162.006 529.661,162.064 529.856,162.053C530.039,162.045 530.196,161.957 530.312,161.837C530.422,161.723 530.483,161.569 530.477,161.402C530.475,161.239 530.4,161.095 530.287,160.99C530.176,160.886 530.023,160.824 529.856,160.826C529.664,160.826 529.509,160.676 529.509,160.491C529.509,160.306 529.664,160.156 529.856,160.156Z"/>
                </g>
                <g transform="matrix(-0.503108,-0.280904,-0.233872,0.649584,659.33,183.087)">
                    <path d="M529.856,160.156C530.212,160.16 530.535,160.298 530.766,160.524C530.997,160.75 531.14,161.06 531.134,161.402C531.123,161.738 530.981,162.044 530.741,162.256C530.508,162.461 530.196,162.587 529.856,162.571C529.526,162.553 529.23,162.421 529.025,162.202C528.826,161.989 528.702,161.708 528.722,161.401C528.724,161.19 528.782,161.003 528.876,160.858C529.004,160.662 529.186,160.538 529.36,160.508C529.426,160.493 529.492,160.532 529.508,160.595C529.524,160.659 529.483,160.722 529.417,160.738C529.309,160.769 529.209,160.866 529.144,160.999C529.092,161.107 529.071,161.24 529.089,161.392C529.089,161.396 529.089,161.399 529.089,161.402C529.1,161.6 529.2,161.77 529.344,161.891C529.479,162.006 529.661,162.064 529.856,162.053C530.039,162.045 530.196,161.957 530.312,161.837C530.422,161.723 530.483,161.569 530.477,161.402C530.475,161.239 530.4,161.095 530.287,160.99C530.176,160.886 530.023,160.824 529.856,160.826C529.664,160.826 529.509,160.676 529.509,160.491C529.509,160.306 529.664,160.156 529.856,160.156Z"/>
                </g>
                <g transform="matrix(-0.638215,-0.695709,-1.0631,1.5124,888.083,274.939)">
                    <path d="M568.92,168.365C569.212,168.352 569.671,168.414 570.043,168.515C570.363,168.601 570.592,168.728 570.671,168.851C570.757,168.989 570.678,169.126 570.471,169.264C570.253,169.41 569.836,169.552 569.268,169.68C568.696,169.809 567.966,169.921 567.136,170.001C566.459,170.066 565.718,170.101 564.953,170.118C564.347,170.119 563.758,170.112 563.209,170.075C562.19,170.006 561.303,169.873 560.636,169.718C559.604,169.478 559.081,169.158 559.159,168.876C559.175,168.821 559.206,168.76 559.308,168.71C559.417,168.656 559.612,168.596 559.88,168.556C560.661,168.44 562.053,168.396 562.397,168.415C562.41,168.415 562.422,168.421 562.422,168.428C562.422,168.435 562.41,168.441 562.397,168.441C562.176,168.454 561.537,168.545 560.921,168.659C560.436,168.75 559.644,168.866 559.825,168.947C559.857,168.962 559.87,168.914 559.869,168.898C559.872,168.957 559.992,168.988 560.119,169.034C560.423,169.142 560.915,169.212 561.526,169.275C562.025,169.327 562.599,169.357 563.225,169.384C563.769,169.407 564.35,169.431 564.953,169.431C565.685,169.447 566.396,169.435 567.05,169.408C567.551,169.387 568.016,169.359 568.43,169.318C569.066,169.256 569.576,169.181 569.881,169.071C570.016,169.022 570.133,168.985 570.114,168.923C570.087,168.831 569.893,168.74 569.671,168.665C569.416,168.578 569.127,168.512 568.92,168.502C568.848,168.502 568.789,168.472 568.789,168.434C568.789,168.396 568.848,168.365 568.92,168.365Z"/>
                </g>
                <g transform="matrix(-0.576438,-0.573601,-1.00756,1.57025,840.818,198.829)">
                    <path d="M569.513,168.271C569.453,168.48 569.233,168.758 568.817,169.049C568.603,169.199 568.331,169.345 568.01,169.483C567.787,169.58 567.536,169.668 567.261,169.749C567.085,169.8 566.897,169.846 566.7,169.886C566.51,169.925 566.31,169.959 566.101,169.986C565.803,170.024 565.491,170.05 565.165,170.065C564.433,170.087 563.625,170.056 562.865,169.939C562.132,169.826 561.466,169.649 560.969,169.401C560.96,169.397 560.959,169.391 560.967,169.387C560.974,169.383 560.988,169.382 560.997,169.386C561.572,169.56 562.266,169.648 562.988,169.683C563.683,169.716 564.383,169.689 565,169.614C565.219,169.589 565.425,169.556 565.626,169.522C565.835,169.488 566.034,169.448 566.228,169.408C566.472,169.357 566.707,169.304 566.928,169.246C567.084,169.205 567.237,169.165 567.382,169.122C567.703,169.026 567.989,168.927 568.242,168.823C568.75,168.615 569.122,168.414 569.296,168.242C569.314,168.214 569.376,168.199 569.436,168.207C569.496,168.215 569.53,168.243 569.513,168.271Z"/>
                </g>
                <g transform="matrix(-0.0338386,-0.953864,1.12569,-0.0619293,175.105,682.346)">
                    <path d="M568.079,168.966C567.538,169.21 566.987,169.38 566.459,169.503C565.823,169.652 565.218,169.733 564.683,169.763C564.048,169.804 563.425,169.788 562.827,169.716C562.196,169.641 561.596,169.507 561.048,169.315C560.985,169.291 560.905,169.306 560.868,169.349C560.832,169.392 560.854,169.447 560.917,169.471C561.466,169.709 562.077,169.89 562.731,170.01C563.362,170.125 564.029,170.18 564.716,170.174C565.302,170.164 565.974,170.11 566.678,169.966C567.27,169.844 567.881,169.656 568.488,169.392C568.661,169.316 568.71,169.158 568.597,169.04C568.485,168.922 568.253,168.889 568.079,168.966Z"/>
                </g>
                <g transform="matrix(0.636879,0.0244893,0.0213632,-0.861589,-11.653,270.286)">
                    <path d="M568.479,169.553C567.861,169.819 567.237,170.01 566.634,170.127C565.945,170.26 565.289,170.302 564.714,170.305C564.04,170.297 563.385,170.233 562.764,170.109C562.099,169.976 561.478,169.781 560.921,169.528C560.84,169.496 560.802,169.41 560.837,169.336C560.871,169.262 560.964,169.227 561.045,169.259C561.599,169.442 562.207,169.562 562.849,169.625C563.44,169.683 564.057,169.686 564.685,169.632C565.213,169.596 565.81,169.506 566.438,169.357C566.976,169.229 567.537,169.057 568.088,168.805C568.312,168.706 568.582,168.793 568.69,168.999C568.797,169.205 568.703,169.453 568.479,169.553Z"/>
                </g>
                <g transform="matrix(0.191908,-0.924402,1.09092,0.351218,55.4377,595.42)">
                    <path d="M565.625,170.131C565.209,170.105 564.735,170.041 564.241,169.97C563.78,169.903 563.305,169.83 562.85,169.744C562.154,169.613 561.511,169.468 561.048,169.315C560.985,169.291 560.905,169.306 560.868,169.349C560.832,169.392 560.854,169.447 560.917,169.471C561.456,169.717 562.265,169.992 563.131,170.217C563.441,170.298 563.757,170.372 564.07,170.433C564.591,170.534 565.101,170.6 565.545,170.637C565.75,170.652 565.935,170.551 565.957,170.411C565.979,170.272 565.831,170.146 565.625,170.131Z"/>
                </g>
                <g transform="matrix(0.359227,-0.843512,0.995457,0.657435,-20.6783,498.483)">
                    <path d="M566.473,171.166C565.867,170.962 565.106,170.681 564.321,170.411C563.048,169.974 561.731,169.549 561.048,169.315C560.985,169.291 560.905,169.306 560.868,169.349C560.832,169.392 560.854,169.447 560.917,169.471C561.559,169.755 562.776,170.306 564.001,170.806C564.762,171.116 565.529,171.398 566.128,171.618C566.312,171.683 566.538,171.634 566.633,171.51C566.728,171.385 566.656,171.231 566.473,171.166Z"/>
                </g>
                <g transform="matrix(-0.576438,-0.573601,-1.00756,1.57025,839.49,203.011)">
                    <path d="M569.695,167.797C569.636,168.001 569.463,168.3 569.104,168.623C569.028,168.691 568.94,168.758 568.842,168.825C568.703,168.92 568.544,169.015 568.361,169.102C568.242,169.158 568.112,169.211 567.973,169.259C567.766,169.33 567.546,169.393 567.308,169.447C567.076,169.499 566.843,169.545 566.588,169.579C566.225,169.627 565.863,169.654 565.464,169.66C565.453,169.661 565.441,169.658 565.439,169.652C565.436,169.647 565.443,169.642 565.455,169.641C565.837,169.561 566.152,169.461 566.466,169.35C566.779,169.24 567.038,169.117 567.301,168.992C567.46,168.917 567.611,168.841 567.762,168.767C567.922,168.689 568.083,168.616 568.231,168.541C568.428,168.441 568.611,168.347 568.774,168.252C569.096,168.064 569.342,167.9 569.479,167.769C569.496,167.741 569.559,167.726 569.618,167.734C569.678,167.741 569.713,167.77 569.695,167.797Z"/>
                </g>
                <g transform="matrix(-0.0796995,-0.0948846,0.0977239,-0.127052,409.711,212.939)">
                    <path d="M776.952,56.262L780.952,55.881C781.696,55.882 782.3,55.412 782.301,54.832C782.302,54.252 781.7,53.78 780.956,53.779L776.957,53.382C775.939,53.38 775.111,54.024 775.11,54.818C775.108,55.613 775.934,56.26 776.952,56.262Z"/>
                </g>
                <g transform="matrix(-0.110261,0.00033544,-0.000210228,-0.175932,438.088,137.632)">
                    <path d="M776.952,56.262L780.952,55.881C781.696,55.882 782.3,55.412 782.301,54.832C782.302,54.252 781.7,53.78 780.956,53.779L776.957,53.382C775.939,53.38 775.111,54.024 775.11,54.818C775.108,55.613 775.934,56.26 776.952,56.262Z"/>
                </g>
                <g transform="matrix(0.110261,-0.00033544,0.000210228,0.175932,267.467,118.848)">
                    <path d="M776.952,56.262L780.952,55.881C781.696,55.882 782.3,55.412 782.301,54.832C782.302,54.252 781.7,53.78 780.956,53.779L776.957,53.382C775.939,53.38 775.111,54.024 775.11,54.818C775.108,55.613 775.934,56.26 776.952,56.262Z"/>
                </g>
                <g transform="matrix(0.00810464,-0.127481,0.140822,0.0141022,339.767,230.321)">
                    <path d="M776.952,56.262L780.952,55.881C781.75,55.882 782.399,55.412 782.4,54.832C782.401,54.252 781.754,53.78 780.956,53.779L776.957,53.382C775.864,53.38 774.975,54.024 774.974,54.818C774.972,55.613 775.858,56.259 776.952,56.262Z"/>
                </g>
                <g transform="matrix(-0.000269364,-0.12788,0.141276,-0.000243821,345.23,227.132)">
                    <path d="M776.952,56.262L780.952,55.881C781.75,55.882 782.399,55.412 782.4,54.832C782.401,54.252 781.754,53.78 780.956,53.779L776.957,53.382C775.864,53.38 774.975,54.024 774.974,54.818C774.972,55.613 775.858,56.259 776.952,56.262Z"/>
                </g>
                <g transform="matrix(0.000269364,0.12788,-0.141276,0.000243821,360.325,29.347)">
                    <path d="M776.952,56.262L780.952,55.881C781.75,55.882 782.399,55.412 782.4,54.832C782.401,54.252 781.754,53.78 780.956,53.779L776.957,53.382C775.864,53.38 774.975,54.024 774.974,54.818C774.972,55.613 775.858,56.259 776.952,56.262Z"/>
                </g>
                <g transform="matrix(0.0845867,-0.0997625,0.097071,0.127826,283.287,203.071)">
                    <path d="M776.952,56.262L780.952,55.881C781.656,55.882 782.228,55.412 782.229,54.832C782.23,54.252 781.66,53.78 780.956,53.779L776.957,53.382C775.994,53.38 775.21,54.024 775.209,54.819C775.207,55.613 775.988,56.26 776.952,56.262Z"/>
                </g>
                <g transform="matrix(0.106879,0.047595,-0.0476819,0.165609,274.121,87.2622)">
                    <path d="M776.952,56.262L780.952,55.881C781.674,55.882 782.261,55.412 782.262,54.832C782.264,54.252 781.678,53.78 780.956,53.779L776.957,53.382C775.968,53.38 775.164,54.024 775.162,54.818C775.161,55.613 775.963,56.26 776.952,56.262Z"/>
                </g>
                <g transform="matrix(0.0691916,0.0911464,-0.102791,0.120692,306,56.6003)">
                    <path d="M776.952,56.262L780.952,55.881C781.766,55.882 782.427,55.412 782.429,54.832C782.43,54.252 781.77,53.78 780.956,53.779L776.957,53.382C775.843,53.38 774.937,54.023 774.935,54.818C774.933,55.613 775.837,56.259 776.952,56.262Z"/>
                </g>
                <g transform="matrix(0.565107,0,0,0.703731,45.4506,14.9403)">
                    <path d="M541.362,179.571C541.362,179.571 537.901,180.668 533.804,182.08C533.147,182.306 532.479,182.545 531.806,182.794C530.811,183.162 529.806,183.539 528.836,183.929C528.135,184.211 527.454,184.503 526.801,184.788C526.088,185.099 525.413,185.408 524.787,185.697C523.449,186.316 522.344,186.839 521.637,187.177C521.637,187.177 522.834,182.724 522.834,182.724C522.84,182.705 522.83,182.684 522.811,182.677C522.792,182.67 522.771,182.681 522.764,182.7L520.533,187.853C520.475,188.018 520.519,188.202 520.646,188.323C520.773,188.444 520.959,188.48 521.121,188.414C521.121,188.414 522.852,187.855 525.314,187.004C525.965,186.779 526.665,186.534 527.396,186.264C528.064,186.017 528.757,185.756 529.458,185.473C530.428,185.082 531.413,184.658 532.386,184.233C533.043,183.946 533.691,183.655 534.32,183.363C538.253,181.542 541.508,179.935 541.508,179.935C541.609,179.894 541.658,179.78 541.617,179.679C541.577,179.579 541.462,179.53 541.362,179.571Z"/>
                </g>
                <g transform="matrix(0.422792,0,0,0.587849,125.222,30.8848)">
                    <path d="M516.605,169.02L515.263,169.904C515.069,170.043 514.988,170.273 515.058,170.487L515.362,171.483L514.578,170.935C514.346,170.768 514.016,170.768 513.784,170.935L512.773,171.707L513.129,170.44C513.178,170.291 513.121,170.129 512.986,170.032L511.207,168.874L513.277,168.782C513.349,168.782 513.413,168.739 513.433,168.677L514.043,166.39C514.047,166.379 514.039,166.366 514.026,166.363C514.013,166.359 513.999,166.366 513.995,166.378L513.164,168.485C513.164,168.485 510.732,168.377 510.732,168.377C510.642,168.372 510.558,168.402 510.485,168.443C510.411,168.485 510.359,168.552 510.325,168.628C510.29,168.704 510.293,168.787 510.313,168.863C510.333,168.941 510.388,169.008 510.457,169.063C510.457,169.063 512.221,170.451 512.221,170.451L511.416,172.573C511.368,172.698 511.382,172.83 511.425,172.95C511.467,173.07 511.563,173.172 511.683,173.25C511.803,173.329 511.949,173.357 512.091,173.356C512.234,173.356 512.371,173.305 512.492,173.225C512.492,173.225 514.163,172.103 514.163,172.103C514.163,172.103 515.799,173.304 515.799,173.304C515.936,173.402 516.1,173.455 516.266,173.461C516.433,173.467 516.601,173.427 516.746,173.339C516.891,173.252 516.997,173.127 517.053,172.987C517.109,172.847 517.118,172.691 517.067,172.541L516.348,170.509C516.348,170.509 518.028,169.201 518.028,169.201C518.129,169.121 518.209,169.024 518.239,168.912C518.268,168.801 518.274,168.681 518.224,168.569C518.174,168.459 518.099,168.36 517.992,168.299C517.885,168.238 517.762,168.194 517.63,168.199C517.63,168.199 515.318,168.317 515.318,168.317C515.318,168.317 514.307,165.859 514.307,165.859C514.286,165.797 514.213,165.761 514.144,165.78C514.075,165.798 514.035,165.864 514.055,165.926L514.757,168.723C514.8,168.853 514.933,168.943 515.085,168.943L516.605,169.02Z"/>
                </g>
                <g transform="matrix(0.277595,-0.0693494,0.05415,0.33614,202.918,108.279)">
                    <path d="M501.383,168.738C501.38,168.241 501.194,167.792 500.893,167.464C500.574,167.117 500.13,166.901 499.64,166.905C499.64,166.905 497.372,166.93 497.372,166.93C496.893,166.939 496.457,167.148 496.153,167.497C495.87,167.822 495.69,168.257 495.7,168.738C495.7,168.738 495.781,171.038 495.781,171.038C495.799,171.489 495.968,171.897 496.251,172.184C496.545,172.483 496.938,172.673 497.372,172.654C497.372,172.654 499.64,172.556 499.64,172.556C500.036,172.538 500.393,172.361 500.638,172.066C500.865,171.793 501.008,171.433 500.991,171.038C500.991,171.038 500.946,169.98 500.946,169.98C500.946,169.844 500.839,169.734 500.708,169.734C500.576,169.734 500.469,169.844 500.469,169.98L500.424,171.038C500.415,171.268 500.314,171.47 500.169,171.617C500.032,171.755 499.842,171.829 499.64,171.82C499.64,171.82 497.372,171.722 497.372,171.722C497.207,171.715 497.068,171.621 496.966,171.498C496.866,171.378 496.821,171.213 496.828,171.038C496.828,171.038 496.909,168.738 496.909,168.738C496.912,168.593 496.975,168.466 497.064,168.371C497.143,168.288 497.253,168.243 497.372,168.246C497.372,168.246 499.64,168.271 499.64,168.271C499.749,168.271 499.844,168.326 499.914,168.404C499.991,168.49 500.033,168.609 500.032,168.738C500.032,169.121 500.335,169.433 500.708,169.433C501.081,169.433 501.383,169.121 501.383,168.738Z"/>
                </g>
                <g transform="matrix(0.469225,0.39217,-0.314919,0.584329,156.576,-179.076)">
                    <path d="M543.124,184.176C542.899,184.272 542.705,184.396 542.541,184.536C541.762,185.204 541.648,186.283 541.936,186.916C542.323,187.762 543.179,188.027 543.933,187.796C544.584,187.596 545.164,187.009 545.274,186.079C545.337,185.527 545.263,185.07 545.091,184.691C545.991,184.952 546.654,185.372 547.134,185.848C547.994,186.699 548.278,187.715 548.279,188.277C548.277,188.369 548.35,188.446 548.442,188.448C548.534,188.45 548.611,188.377 548.613,188.284C548.641,187.66 548.383,186.513 547.471,185.524C546.895,184.899 546.057,184.34 544.866,184.015C544.854,184.012 544.842,184.01 544.831,184.008C544.743,183.995 544.658,183.985 544.575,183.978C544.439,183.85 544.287,183.735 544.124,183.634C542.723,182.762 540.401,182.971 540.401,182.971C540.141,182.997 539.95,183.229 539.976,183.49C540.002,183.75 540.234,183.94 540.495,183.915C540.495,183.915 541.959,183.752 543.124,184.176ZM543.914,184.621C543.523,184.69 543.222,184.845 543.001,185.051C542.52,185.499 542.435,186.183 542.635,186.58C542.85,187.005 543.291,187.122 543.673,186.992C544.039,186.867 544.342,186.514 544.392,185.984C544.454,185.359 544.251,184.923 543.914,184.621Z"/>
                </g>
            </g>
        </g>
    </g>
</svg>
