<?xml version="1.0" encoding="UTF-8" standalone="no"?>
<!DOCTYPE svg PUBLIC "-//W3C//DTD SVG 1.1//EN" "http://www.w3.org/Graphics/SVG/1.1/DTD/svg11.dtd">
<svg width="100%" height="100%" viewBox="0 0 29 31" version="1.1" xmlns="http://www.w3.org/2000/svg" xmlns:xlink="http://www.w3.org/1999/xlink" xml:space="preserve" xmlns:serif="http://www.serif.com/" style="fill-rule:evenodd;clip-rule:evenodd;stroke-linejoin:round;stroke-miterlimit:2;">
    <g transform="matrix(1,0,0,1,-869,-1279)">
        <g id="ic_category_utilities_electricity" transform="matrix(1.00058,0,0,1.00042,-0.966797,-3.85362)">
            <rect x="870.446" y="1282.71" width="27.774" height="29.882" style="fill:none;"/>
            <g transform="matrix(1.76854,0,0,2.98025,113.331,1023.23)">
                <g transform="matrix(0.422511,0,0,0.326,198.853,13.2783)">
                    <path d="M563.448,231.874C563.448,231.874 560.916,234.245 558.774,236.361C557.147,237.969 555.775,239.411 555.775,239.411C555.494,239.744 555.473,240.168 555.719,240.516C555.965,240.865 556.439,241.082 556.954,241.082C556.954,241.082 558.952,241.182 560.954,241.181C561.531,241.181 562.106,241.172 562.634,241.16C562.172,241.88 561.617,242.753 561.074,243.634C559.765,245.756 558.545,247.882 558.545,247.882C558.46,247.992 558.507,248.135 558.651,248.2C558.794,248.265 558.979,248.228 559.064,248.118C559.064,248.118 560.898,246.271 562.685,244.366C564.462,242.471 566.162,240.549 566.162,240.549C566.418,240.216 566.423,239.802 566.173,239.465C565.923,239.129 565.458,238.921 564.954,238.921C564.954,238.921 562.957,238.819 560.954,238.819C560.426,238.819 559.899,238.826 559.408,238.836C559.75,238.356 560.137,237.81 560.532,237.239C562.171,234.872 563.955,232.126 563.955,232.126C564.045,232.019 564.006,231.875 563.866,231.805C563.726,231.736 563.539,231.766 563.448,231.874Z"/>
                </g>
                <g transform="matrix(-0.172275,-8.40631e-05,-0.000164233,-0.0440899,568.925,99.0751)">
                    <path d="M776.948,58.472L780.95,57.495C781.584,57.496 782.101,56.303 782.103,54.832C782.106,53.361 781.593,52.166 780.959,52.164L776.96,51.171C776.092,51.17 775.384,52.804 775.38,54.819C775.377,56.834 776.079,58.471 776.948,58.472Z"/>
                </g>
                <g transform="matrix(-0.172275,-8.40631e-05,-0.000164233,-0.0440899,568.925,98.0865)">
                    <path d="M776.948,58.472L780.95,57.495C781.584,57.496 782.101,56.303 782.103,54.832C782.106,53.361 781.593,52.166 780.959,52.164L776.96,51.171C776.092,51.17 775.384,52.804 775.38,54.819C775.377,56.834 776.079,58.471 776.948,58.472Z"/>
                </g>
                <g transform="matrix(-0.116739,-9.09227e-18,1.53192e-17,-0.079201,536.292,104.878)">
                    <path d="M864.09,98.542L854.625,98.284C852.668,98.237 850.746,98.548 848.953,99.152C847.146,99.76 845.491,100.697 844.062,101.889C842.631,103.095 841.512,104.532 840.738,106.097C839.96,107.671 839.556,109.382 839.531,111.129C839.531,111.129 839.531,111.138 839.531,111.138C839.52,112.891 839.906,114.611 840.655,116.2C841.405,117.79 842.521,119.247 843.942,120.483C845.38,121.697 847.048,122.662 848.878,123.276C850.693,123.885 852.644,124.184 854.625,124.123C854.625,124.123 864.954,123.71 864.954,123.71C865.865,123.71 866.603,123.064 866.603,122.267L865.244,102.348C865.244,102.208 865.114,102.094 864.954,102.094C864.794,102.094 864.664,102.208 864.664,102.348L863.408,120.763C863.408,120.763 854.625,120.412 854.625,120.412C853.229,120.369 851.886,120.052 850.635,119.564C849.401,119.083 848.272,118.399 847.316,117.532C846.35,116.682 845.603,115.68 845.087,114.594C844.571,113.508 844.283,112.337 844.275,111.138L844.275,111.129C844.258,109.925 844.508,108.742 845.005,107.643C845.506,106.536 846.233,105.505 847.196,104.631C848.164,103.743 849.302,103.031 850.559,102.543C851.831,102.048 853.206,101.75 854.625,101.716L864.09,101.458C865.01,101.458 865.757,100.805 865.757,100C865.757,99.195 865.01,98.542 864.09,98.542Z"/>
                </g>
                <g transform="matrix(0.619427,0,0,0.367643,-92.4822,50.6384)">
                    <path d="M857.502,123.722C859.586,123.13 861.906,121.629 863.559,119.233C864.849,117.365 865.726,114.951 865.775,112.004C865.775,111.996 865.775,111.987 865.775,111.979C865.7,107.78 864.235,104.773 862.208,102.728C859.493,99.987 855.752,98.981 852.914,99.111C850.482,99.177 846.748,100.245 844.001,102.98C841.985,104.986 840.485,107.876 840.441,111.883C840.372,114.959 841.287,117.305 842.548,119.041C844.77,122.102 848.035,123.243 848.59,123.23C848.651,123.23 848.7,123.182 848.7,123.121C848.701,123.061 848.652,123.012 848.591,123.011C848.062,122.993 845.034,121.708 843.085,118.675C842.008,116.999 841.271,114.782 841.493,111.928C841.493,111.925 841.493,111.922 841.493,111.92C841.703,108.322 843.152,105.79 845.033,104.058C847.543,101.747 850.831,100.874 852.962,100.89C852.973,100.89 852.983,100.89 852.994,100.889C855.422,100.781 858.602,101.665 860.942,103.992C862.718,105.759 864.008,108.356 864.133,112.005C864.149,114.605 863.43,116.744 862.341,118.416C860.944,120.559 858.955,121.945 857.141,122.519C856.809,122.619 856.62,122.969 856.72,123.301C856.82,123.634 857.17,123.822 857.502,123.722Z"/>
                </g>
            </g>
        </g>
    </g>
</svg>
