<?xml version="1.0" encoding="UTF-8" standalone="no"?>
<!DOCTYPE svg PUBLIC "-//W3C//DTD SVG 1.1//EN" "http://www.w3.org/Graphics/SVG/1.1/DTD/svg11.dtd">
<svg width="100%" height="100%" viewBox="0 0 27 32" version="1.1" xmlns="http://www.w3.org/2000/svg" xmlns:xlink="http://www.w3.org/1999/xlink" xml:space="preserve" xmlns:serif="http://www.serif.com/" style="fill-rule:evenodd;clip-rule:evenodd;stroke-linejoin:round;stroke-miterlimit:2;">
    <g transform="matrix(1,0,0,1,-731,-2050)">
        <g id="financial-knowledge" serif:id="financial knowledge" transform="matrix(1.00221,0,0,1.00177,-1.653,-3.66925)">
            <rect x="731.92" y="2050.63" width="25.563" height="30.875" style="fill:none;"/>
            <g transform="matrix(1.76568,0,0,2.97622,-238.454,1581.97)">
                <g transform="matrix(0.565107,0,0,0.335403,74.7993,17.8028)">
                    <path d="M848.575,439.85C846.161,440.792 845.402,442.625 845.625,444.185C845.8,445.417 846.63,446.496 847.807,447.017C848.51,447.329 849.351,447.414 850.268,447.226C850.637,447.143 850.99,447.019 851.311,446.844C851.806,446.572 852.238,446.205 852.57,445.761C853.105,445.046 853.415,444.161 853.382,443.218C853.354,442.589 853.323,441.852 853.281,441.128C853.185,439.5 853.064,437.986 853.064,437.986C853.065,437.97 853.053,437.958 853.038,437.957C853.022,437.957 853.01,437.969 853.009,437.984L852.323,443.18C852.323,443.182 852.323,443.184 852.323,443.186C852.259,443.847 851.948,444.423 851.522,444.886C851.115,445.33 850.572,445.648 849.946,445.763C849.943,445.763 849.939,445.764 849.935,445.765C849.184,445.958 848.505,445.853 847.96,445.55C847.339,445.206 846.875,444.64 846.687,443.964C846.339,442.706 846.845,441.19 848.703,440.115C848.776,440.08 848.807,439.992 848.771,439.919C848.736,439.845 848.648,439.815 848.575,439.85Z"/>
                </g>
                <g transform="matrix(-0.565107,0,0,0.335403,1038.91,17.8047)">
                    <path d="M848.703,440.115C846.845,441.19 846.339,442.706 846.687,443.964C846.875,444.64 847.339,445.206 847.96,445.55C848.505,445.853 849.184,445.957 849.935,445.765C849.939,445.764 849.943,445.763 849.946,445.763C850.572,445.648 851.115,445.33 851.522,444.886C851.948,444.423 852.259,443.847 852.323,443.186C852.323,443.184 852.323,443.182 852.323,443.18L853.009,437.984C853.01,437.969 853.022,437.957 853.038,437.957C853.053,437.958 853.065,437.97 853.064,437.986C853.064,437.986 853.185,439.5 853.281,441.128C853.323,441.852 853.354,442.589 853.382,443.225C853.415,444.161 853.105,445.046 852.57,445.761C852.238,446.205 851.806,446.572 851.311,446.844C850.99,447.019 850.637,447.143 850.268,447.226C849.351,447.414 848.51,447.329 847.807,447.017C846.63,446.496 845.8,445.417 845.625,444.185C845.402,442.625 846.161,440.792 848.575,439.85C848.648,439.815 848.736,439.845 848.771,439.919C848.807,439.992 848.776,440.08 848.703,440.115Z"/>
                </g>
                <g transform="matrix(2.73794e-18,0.242055,0.677353,3.75313e-17,457.893,45.2652)">
                    <path d="M480.682,139.685L480.524,137.669C480.494,137.287 480.2,136.954 479.766,136.715C479.351,136.487 478.789,136.36 478.183,136.376C478.183,136.376 467.762,136.613 467.762,136.613C467.287,136.622 466.873,136.758 466.571,136.951C466.28,137.137 466.125,137.393 466.138,137.669C466.177,138.718 466.246,140.184 466.292,141.834C466.329,143.145 466.36,144.572 466.371,146C466.381,147.427 466.372,148.855 466.353,150.166C466.33,151.816 466.277,153.282 466.251,154.331C466.244,154.586 466.394,154.821 466.667,154.991C466.946,155.165 467.329,155.283 467.762,155.287C467.762,155.287 478.183,155.424 478.183,155.424C478.692,155.431 479.162,155.322 479.503,155.126C479.855,154.925 480.092,154.647 480.105,154.331C480.105,154.331 480.351,148.654 480.351,148.654C480.364,148.362 480.501,148.084 480.751,147.847C480.999,147.612 481.344,147.413 481.771,147.284C481.771,147.284 485.837,146.054 485.837,146.054C485.837,146.054 485.887,146.019 485.887,146.019L485.854,145.968L481.174,144.172C481.037,144.119 480.925,144.048 480.851,143.964C480.778,143.881 480.737,143.787 480.742,143.69L480.903,140.434C480.903,140.417 480.926,140.403 480.954,140.403C480.983,140.403 481.006,140.417 481.006,140.434L481.167,143.69C481.169,143.741 481.197,143.789 481.239,143.831C481.281,143.872 481.342,143.906 481.414,143.93C481.414,143.93 486.254,145.567 486.254,145.567C486.392,145.613 486.499,145.683 486.576,145.762C486.654,145.842 486.692,145.935 486.693,146.031C486.693,146.127 486.645,146.219 486.568,146.3C486.49,146.381 486.372,146.448 486.232,146.496L482.285,147.86C482.049,147.942 481.864,148.062 481.735,148.201C481.609,148.336 481.551,148.493 481.558,148.654C481.558,148.654 481.804,154.331 481.804,154.331C481.829,154.938 481.426,155.489 480.782,155.896C480.129,156.31 479.206,156.561 478.183,156.576C478.183,156.576 467.762,156.713 467.762,156.713C466.665,156.724 465.671,156.457 464.939,156.032C464.2,155.602 463.75,154.999 463.731,154.331C463.705,153.282 463.652,151.816 463.628,150.166C463.61,148.855 463.601,147.427 463.611,146C463.621,144.572 463.653,143.145 463.689,141.834C463.736,140.184 463.805,138.718 463.844,137.669C463.874,137.022 464.31,136.437 465.034,136.026C465.747,135.622 466.706,135.367 467.762,135.387C467.762,135.387 478.183,135.624 478.183,135.624C479.109,135.648 479.94,135.881 480.519,136.262C481.082,136.632 481.427,137.127 481.384,137.669L481.226,139.685C481.226,139.775 481.104,139.849 480.954,139.849C480.804,139.849 480.682,139.775 480.682,139.685Z"/>
                </g>
                <g transform="matrix(0.565107,0,0,0.335403,74.7739,17.8028)">
                    <path d="M844.24,430.641C843.029,430.549 842.117,430.99 841.422,431.667C841.087,431.992 840.843,432.391 840.645,432.823C840.375,433.411 840.243,434.075 840.245,434.742C840.246,435.004 840.274,435.266 840.331,435.521C840.417,435.908 840.547,436.28 840.732,436.624C840.954,437.037 841.208,437.415 841.54,437.726C841.778,437.95 842.015,438.15 842.301,438.299C842.913,438.62 843.566,438.78 844.332,438.656C844.351,438.657 844.366,438.643 844.367,438.625C844.368,438.606 844.354,438.591 844.336,438.59C843.246,438.3 842.659,437.488 842.324,436.507C842.224,436.214 842.18,435.911 842.127,435.598C842.076,435.298 842.055,434.993 842.041,434.688C842.025,434.304 842.015,433.924 842.08,433.554C842.147,433.174 842.229,432.809 842.408,432.478C842.774,431.797 843.336,431.239 844.272,430.993C844.369,430.984 844.441,430.898 844.432,430.801C844.423,430.704 844.338,430.633 844.24,430.641Z"/>
                </g>
                <g transform="matrix(-0.565107,0,0,0.335403,1038.79,17.8449)">
                    <path d="M844.272,430.993C843.336,431.239 842.774,431.797 842.408,432.478C842.229,432.809 842.147,433.174 842.08,433.554C842.015,433.924 842.025,434.304 842.041,434.688C842.055,434.993 842.076,435.298 842.127,435.598C842.18,435.911 842.224,436.214 842.324,436.507C842.659,437.488 843.246,438.3 844.336,438.59C844.354,438.591 844.368,438.606 844.367,438.625C844.366,438.643 844.351,438.657 844.332,438.656C843.566,438.78 842.913,438.62 842.301,438.299C842.015,438.15 841.778,437.95 841.54,437.726C841.208,437.415 840.954,437.037 840.732,436.624C840.547,436.28 840.417,435.908 840.331,435.521C840.274,435.266 840.246,435.004 840.245,434.742C840.243,434.075 840.375,433.411 840.645,432.823C840.843,432.391 841.087,431.992 841.422,431.667C842.117,430.99 843.029,430.549 844.24,430.641C844.338,430.633 844.423,430.704 844.432,430.801C844.441,430.898 844.369,430.984 844.272,430.993Z"/>
                </g>
                <g transform="matrix(0.565107,0,0,0.335403,74.7979,17.8586)">
                    <path d="M852.936,436.452C853.188,436.913 853.51,437.312 853.909,437.632C854.132,437.811 854.372,437.967 854.644,438.089C855.18,438.329 855.794,438.455 856.528,438.435C856.539,438.436 856.548,438.428 856.549,438.418C856.55,438.408 856.542,438.399 856.532,438.398C855.556,438.174 854.886,437.725 854.392,437.135C854.088,436.771 853.883,436.348 853.713,435.886C853.606,435.591 853.509,435.282 853.444,434.956C853.394,434.732 853.197,434.57 852.967,434.566C852.737,434.561 852.534,434.715 852.475,434.937C852.392,435.307 852.288,435.64 852.171,435.942C852.083,436.168 851.993,436.376 851.889,436.565C851.692,436.923 851.473,437.218 851.206,437.448C850.716,437.868 850.122,438.091 849.41,438.124C849.356,438.121 849.309,438.162 849.307,438.216C849.304,438.27 849.345,438.317 849.399,438.32C850.413,438.475 851.294,438.242 852.032,437.609C852.374,437.316 852.676,436.93 852.936,436.452Z"/>
                </g>
                <g transform="matrix(3.46028e-17,-0.335403,0.381391,1.38608e-17,393.52,449.67)">
                    <path d="M852.936,436.598C853.15,437.016 853.417,437.386 853.747,437.681C854.063,437.963 854.422,438.194 854.851,438.328C855.336,438.48 855.881,438.522 856.529,438.444C856.539,438.445 856.548,438.433 856.549,438.418C856.549,438.403 856.542,438.39 856.532,438.389C855.659,438.109 855.029,437.659 854.532,437.126C854.184,436.753 853.942,436.317 853.747,435.851C853.613,435.529 853.504,435.193 853.431,434.833C853.365,434.537 853.181,434.334 852.971,434.326C852.76,434.317 852.569,434.505 852.493,434.795C852.402,435.183 852.291,435.528 852.162,435.839C851.95,436.352 851.702,436.775 851.388,437.101C850.857,437.652 850.206,437.983 849.408,438.076C849.354,438.073 849.308,438.136 849.306,438.216C849.305,438.297 849.347,438.364 849.401,438.367C850.291,438.567 851.069,438.455 851.737,438.019C852.198,437.717 852.591,437.244 852.922,436.625L852.936,436.598Z"/>
                </g>
                <g transform="matrix(-3.46028e-17,-0.335403,-0.383144,1.39245e-17,720.957,449.725)">
                    <path d="M852.936,436.596L852.924,436.619C852.593,437.239 852.201,437.711 851.74,438.014C851.072,438.453 850.292,438.566 849.401,438.366C849.347,438.363 849.305,438.296 849.306,438.216C849.308,438.137 849.354,438.074 849.408,438.077C850.207,437.984 850.858,437.654 851.389,437.102C851.703,436.776 851.951,436.353 852.162,435.84C852.291,435.529 852.402,435.184 852.492,434.798C852.569,434.508 852.76,434.321 852.971,434.329C853.181,434.337 853.365,434.54 853.431,434.835C853.504,435.195 853.613,435.531 853.747,435.852C853.942,436.318 854.183,436.754 854.531,437.127C855.028,437.66 855.657,438.11 856.532,438.389C856.542,438.39 856.549,438.403 856.549,438.418C856.548,438.433 856.539,438.444 856.529,438.443C855.88,438.521 855.335,438.478 854.848,438.325C854.419,438.19 854.06,437.959 853.744,437.675C853.415,437.381 853.15,437.012 852.936,436.596Z"/>
                </g>
                <g transform="matrix(-0.0249886,0.109939,0.157719,0.0126284,550.224,101.745)">
                    <path d="M563.961,94.333C565.362,93.352 566.805,92.829 568.315,92.606C569.014,92.503 569.692,92.524 570.383,92.591C571.172,92.666 571.928,92.88 572.671,93.172C573.426,93.47 574.143,93.887 574.798,94.412C575.325,94.834 575.816,95.327 576.233,95.897C576.854,96.744 577.369,97.68 577.728,98.739C578.07,99.746 578.328,100.759 578.4,101.89C578.496,103.386 578.378,104.837 577.966,106.453C577.964,106.497 577.932,106.53 577.895,106.528C577.858,106.526 577.83,106.489 577.832,106.445C577.51,104.347 576.765,102.766 575.845,101.278C575.315,100.423 574.676,99.768 574.023,99.094C573.603,98.662 573.161,98.273 572.712,97.89C572.141,97.403 571.575,96.919 570.941,96.544C570.284,96.155 569.631,95.791 568.912,95.548C567.409,95.04 565.871,94.783 564.207,95.118C564.023,95.197 563.818,95.086 563.75,94.87C563.682,94.653 563.777,94.413 563.961,94.333Z"/>
                </g>
                <g transform="matrix(0.0249886,0.109939,-0.157719,0.0126284,563.482,101.772)">
                    <path d="M564.207,95.118C565.871,94.783 567.409,95.04 568.912,95.548C569.631,95.791 570.284,96.155 570.941,96.544C571.575,96.919 572.141,97.403 572.712,97.89C573.161,98.273 573.603,98.662 574.023,99.094C574.677,99.768 575.315,100.423 575.845,101.278C576.765,102.766 577.51,104.347 577.832,106.445C577.83,106.489 577.858,106.526 577.895,106.528C577.932,106.53 577.964,106.497 577.966,106.453C578.378,104.837 578.496,103.386 578.4,101.89C578.328,100.759 578.07,99.746 577.728,98.739C577.369,97.68 576.853,96.744 576.233,95.897C575.815,95.327 575.325,94.834 574.798,94.412C574.143,93.887 573.426,93.47 572.671,93.172C571.928,92.88 571.172,92.666 570.383,92.591C569.692,92.524 569.014,92.503 568.315,92.606C566.805,92.829 565.362,93.352 563.961,94.333C563.777,94.413 563.682,94.653 563.75,94.87C563.818,95.086 564.023,95.197 564.207,95.118Z"/>
                </g>
                <g transform="matrix(0.936527,0.000229979,-0.0045777,0.0470502,91.62,159.255)">
                    <path d="M491.062,58.779C491.027,58.206 491.007,57.655 490.998,57.115C490.991,56.687 490.982,56.288 490.985,55.887C490.996,54.504 491.042,53.269 491.108,52.484C491.134,52.281 491.139,51.859 491.121,51.543C491.102,51.227 491.066,51.135 491.04,51.339C490.918,51.929 490.796,53.188 490.729,54.933C490.696,55.814 490.687,56.825 490.698,57.906C490.707,58.824 490.741,59.772 490.791,60.762C490.842,61.676 490.944,61.974 491.019,61.427C491.093,60.88 491.113,59.693 491.062,58.779Z"/>
                </g>
                <g transform="matrix(-0.936527,0.000229979,0.0045777,0.0470502,1022.25,159.359)">
                    <path d="M490.791,60.762C490.741,59.772 490.707,58.824 490.698,57.906C490.687,56.825 490.696,55.814 490.729,54.933C490.796,53.188 490.918,51.929 491.04,51.339C491.066,51.135 491.102,51.227 491.121,51.543C491.139,51.859 491.134,52.281 491.108,52.484C491.042,53.269 490.996,54.504 490.985,55.887C490.982,56.288 490.991,56.687 490.998,57.115C491.007,57.655 491.027,58.206 491.062,58.779C491.113,59.693 491.093,60.88 491.019,61.427C490.944,61.974 490.842,61.676 490.791,60.762Z"/>
                </g>
                <g transform="matrix(0.866065,0,0,0.66826,150.237,61.2264)">
                    <path d="M463.337,148.204C463.337,148.204 463.817,148.206 464.36,148.18C465.077,148.147 465.895,148.072 465.895,148.072C465.946,148.072 465.988,148.04 465.988,148C465.988,147.96 465.946,147.928 465.895,147.928C465.895,147.928 465.077,147.853 464.36,147.82C463.817,147.794 463.337,147.796 463.337,147.796C463.191,147.796 463.072,147.887 463.072,148C463.072,148.113 463.191,148.204 463.337,148.204Z"/>
                </g>
                <g transform="matrix(1.12592,0,0,0.66826,25.5501,59.8375)">
                    <path d="M467.331,151.156C467.331,151.156 467.74,150.166 468.084,149.304C468.212,148.985 468.33,148.684 468.419,148.458C468.419,148.458 469.547,151.325 469.547,151.325C469.561,151.362 469.602,151.381 469.639,151.368C469.676,151.354 469.696,151.313 469.682,151.275L468.574,147.943C468.551,147.879 468.49,147.835 468.421,147.833C468.353,147.832 468.29,147.873 468.264,147.936C468.264,147.936 468.01,148.507 467.73,149.158C467.364,150.01 466.954,150.999 466.954,150.999C466.911,151.103 466.96,151.223 467.064,151.266C467.168,151.309 467.287,151.259 467.331,151.156Z"/>
                </g>
                <g transform="matrix(-3.28589e-16,-0.891128,1.47449,-7.1471e-17,341.546,577.156)">
                    <path d="M467.313,149.514L467.307,148.755C467.306,148.692 467.318,148.63 467.34,148.572C467.363,148.514 467.397,148.46 467.44,148.415C467.484,148.369 467.536,148.332 467.593,148.308C467.65,148.283 467.711,148.268 467.775,148.268C467.775,148.268 468.872,148.242 468.872,148.242C468.939,148.24 469.006,148.251 469.067,148.275C469.13,148.299 469.189,148.334 469.239,148.381C469.29,148.43 469.332,148.486 469.36,148.55C469.389,148.614 469.406,148.683 469.409,148.755L469.437,149.514C469.437,149.552 469.467,149.583 469.504,149.583C469.542,149.583 469.572,149.552 469.572,149.514L469.6,148.755C469.603,148.656 469.586,148.559 469.553,148.468C469.519,148.376 469.466,148.292 469.399,148.219C469.331,148.145 469.249,148.087 469.16,148.046C469.071,148.005 468.972,147.983 468.872,147.98L467.775,147.955C467.67,147.954 467.568,147.974 467.473,148.013C467.377,148.052 467.29,148.11 467.214,148.185C467.139,148.26 467.081,148.349 467.04,148.446C467,148.543 466.978,148.648 466.978,148.755C466.978,148.755 466.971,149.514 466.971,149.514C466.971,149.61 467.048,149.688 467.142,149.688C467.237,149.688 467.313,149.61 467.313,149.514Z"/>
                </g>
                <g transform="matrix(-3.20902e-16,-0.870283,1.44,-6.97991e-17,343.167,567.29)">
                    <path d="M468.27,149.15C468.292,149.183 468.318,149.214 468.347,149.242C468.453,149.345 468.597,149.408 468.755,149.409L468.994,149.41C469.155,149.411 469.302,149.344 469.408,149.237C469.515,149.129 469.581,148.979 469.582,148.814L469.585,148.153C469.585,148.054 469.506,147.974 469.41,147.974C469.313,147.974 469.235,148.054 469.235,148.153L469.238,148.814C469.238,148.883 469.211,148.946 469.167,148.991C469.123,149.037 469.062,149.066 468.994,149.066L468.755,149.067C468.686,149.067 468.622,149.041 468.575,148.996C468.528,148.951 468.497,148.889 468.492,148.818C468.492,148.818 468.452,148.197 468.452,148.197C468.448,148.112 468.38,148.045 468.297,148.043C468.213,148.041 468.142,148.104 468.133,148.189L468.07,148.834C468.063,148.905 468.031,148.968 467.983,149.013C467.934,149.058 467.87,149.087 467.799,149.088L467.361,149.092C467.285,149.093 467.216,149.064 467.165,149.014C467.114,148.964 467.08,148.894 467.079,148.815L467.066,148.038L467.081,147.996L467.123,147.976L469.41,147.928C469.448,147.928 469.479,147.897 469.479,147.858C469.479,147.819 469.448,147.788 469.41,147.788L467.123,147.741C467.084,147.74 467.046,147.748 467.01,147.762C466.975,147.776 466.942,147.798 466.914,147.826C466.886,147.854 466.864,147.887 466.849,147.923C466.833,147.959 466.826,147.998 466.825,148.038C466.825,148.038 466.812,148.815 466.812,148.815C466.81,148.97 466.871,149.111 466.969,149.214C467.068,149.318 467.207,149.382 467.361,149.385C467.361,149.385 467.798,149.391 467.798,149.391C467.946,149.392 468.082,149.336 468.186,149.243C468.217,149.216 468.245,149.184 468.27,149.15Z"/>
                </g>
            </g>
        </g>
    </g>
</svg>
