<?xml version="1.0" encoding="UTF-8" standalone="no"?>
<!DOCTYPE svg PUBLIC "-//W3C//DTD SVG 1.1//EN" "http://www.w3.org/Graphics/SVG/1.1/DTD/svg11.dtd">
<svg width="100%" height="100%" viewBox="0 0 29 26" version="1.1" xmlns="http://www.w3.org/2000/svg" xmlns:xlink="http://www.w3.org/1999/xlink" xml:space="preserve" xmlns:serif="http://www.serif.com/" style="fill-rule:evenodd;clip-rule:evenodd;stroke-linejoin:round;stroke-miterlimit:2;">
    <g transform="matrix(1,0,0,1,-748,-1484)">
        <g id="ic_category_groups_health" transform="matrix(1.00069,0,0,1.00057,-0.529506,-4.78405)">
            <rect x="748.289" y="1488" width="27.711" height="24.937" style="fill:none;"/>
            <g transform="matrix(1.76835,0,0,2.97978,108.45,1151.39)">
                <g transform="matrix(4.14411e-17,-0.402377,0.736649,2.68141e-17,262.096,308.098)">
                    <path d="M481.368,153.838L481.369,153.768C481.369,153.745 481.369,153.722 481.369,153.699L480.985,138.859C480.985,138.844 480.971,138.831 480.954,138.831C480.937,138.831 480.924,138.844 480.924,138.859L480.54,153.699C480.528,154.224 480.281,154.692 479.899,155.029C479.525,155.359 479.013,155.553 478.454,155.542C478.454,155.542 467.492,155.348 467.492,155.348C467.255,155.345 467.025,155.295 466.811,155.21C466.6,155.126 466.408,155.001 466.245,154.846C466.083,154.692 465.96,154.51 465.876,154.314C465.792,154.121 465.754,153.911 465.758,153.699C465.758,153.699 465.758,153.699 465.758,153.699C465.774,151.774 465.828,148.887 465.823,146C465.818,143.113 465.755,140.226 465.732,138.301C465.727,138.085 465.764,137.872 465.848,137.675C465.932,137.475 466.055,137.288 466.219,137.131C466.386,136.971 466.58,136.842 466.795,136.755C467.014,136.666 467.249,136.611 467.492,136.605C467.492,136.605 478.807,136.274 478.807,136.274C479.055,136.265 479.3,136.297 479.528,136.375C479.76,136.454 479.977,136.571 480.162,136.729C480.351,136.889 480.503,137.079 480.609,137.289C480.716,137.503 480.78,137.736 480.791,137.976C480.791,137.976 480.791,137.977 480.791,137.977L481.118,137.976C481.13,137.692 481.078,137.412 480.973,137.15C480.867,136.885 480.701,136.641 480.488,136.429C480.273,136.214 480.013,136.046 479.73,135.926C479.443,135.804 479.129,135.738 478.807,135.726C478.807,135.726 467.492,135.395 467.492,135.395C467.071,135.385 466.658,135.458 466.274,135.596C465.887,135.734 465.533,135.948 465.227,136.218C464.92,136.489 464.683,136.814 464.515,137.167C464.346,137.521 464.258,137.907 464.25,138.301C464.227,140.226 464.163,143.113 464.159,146C464.154,148.887 464.208,151.774 464.224,153.699C464.231,154.096 464.318,154.486 464.486,154.844C464.654,155.201 464.893,155.53 465.202,155.806C465.509,156.081 465.867,156.297 466.258,156.439C466.647,156.582 467.065,156.658 467.492,156.652L478.454,156.458C479.276,156.442 480.017,156.13 480.545,155.623C481.032,155.155 481.345,154.529 481.368,153.838Z"/>
                </g>
                <g transform="matrix(0.84766,0,0,0.227205,-27.8667,76.3717)">
                    <path d="M465.406,166.883L465.401,164.973C465.399,164.429 465.496,163.935 465.656,163.575C465.816,163.212 466.038,162.977 466.286,162.97C466.286,162.97 466.286,162.97 466.286,162.97C466.75,162.95 467.301,162.935 467.886,162.899C469.167,162.821 470.602,162.688 471.619,162.609C471.761,162.597 471.901,162.64 472.032,162.747C472.165,162.856 472.289,163.016 472.395,163.233C472.503,163.455 472.592,163.714 472.652,164.005C472.713,164.3 472.751,164.62 472.756,164.951C472.756,164.951 472.795,167.237 472.795,167.237C472.795,167.431 472.866,167.589 472.954,167.589C473.042,167.589 473.113,167.431 473.113,167.237L473.152,164.951C473.16,164.498 473.123,164.053 473.053,163.636C472.983,163.213 472.872,162.827 472.73,162.49C472.587,162.15 472.415,161.886 472.227,161.697C472.038,161.505 471.831,161.405 471.618,161.389C471.618,161.389 471.618,161.389 471.618,161.389C470.601,161.318 469.165,161.196 467.885,161.128C467.3,161.097 466.748,161.087 466.285,161.07C465.797,161.061 465.354,161.496 465.033,162.198C464.709,162.904 464.511,163.888 464.508,164.973C464.508,164.973 464.503,166.883 464.503,166.883C464.503,167.435 464.705,167.883 464.954,167.883C465.203,167.883 465.406,167.435 465.406,166.883Z"/>
                </g>
                <g transform="matrix(0.565107,0,0,0.335403,-95.4099,25.742)">
                    <path d="M820.014,276.901L819.966,279.5C819.964,279.697 820.005,279.891 820.078,280.07C820.15,280.25 820.261,280.414 820.399,280.555C820.538,280.696 820.704,280.804 820.883,280.88C821.062,280.956 821.256,280.994 821.454,280.996C821.454,280.996 824.454,280.987 824.454,280.987C824.651,280.985 824.845,280.949 825.023,280.872C825.2,280.795 825.365,280.689 825.502,280.547C825.637,280.406 825.749,280.244 825.819,280.065C825.889,279.886 825.931,279.696 825.927,279.5L825.853,276.848L828.454,276.746C828.619,276.739 828.781,276.711 828.928,276.643C829.074,276.576 829.213,276.49 829.324,276.369C829.434,276.25 829.528,276.117 829.582,275.967C829.637,275.818 829.674,275.661 829.667,275.5C829.667,275.5 829.526,272.5 829.526,272.5C829.519,272.358 829.495,272.219 829.436,272.093C829.377,271.969 829.303,271.85 829.199,271.756C829.096,271.662 828.982,271.582 828.854,271.536C828.726,271.49 828.592,271.46 828.454,271.466L825.454,271.628L825.349,271.606L825.283,271.5L825.116,268.5C825.111,268.413 825.092,268.328 825.055,268.251C825.018,268.176 824.97,268.105 824.906,268.049C824.843,267.993 824.772,267.948 824.694,267.921C824.618,267.895 824.537,267.88 824.454,267.885L823.17,267.963C823.15,267.963 823.133,267.98 823.133,268C823.133,268.02 823.15,268.037 823.17,268.037L824.454,268.115C824.505,268.118 824.553,268.133 824.597,268.155C824.641,268.176 824.678,268.208 824.71,268.244C824.742,268.28 824.762,268.322 824.778,268.366C824.792,268.409 824.795,268.454 824.792,268.5L824.625,271.5C824.619,271.611 824.643,271.719 824.679,271.821C824.715,271.925 824.778,272.018 824.853,272.101C824.929,272.186 825.024,272.247 825.125,272.296C825.227,272.345 825.339,272.366 825.454,272.372L828.381,272.53L828.253,275.246L825.454,275.137C825.273,275.131 825.097,275.172 824.93,275.235C824.763,275.298 824.614,275.402 824.481,275.527C824.348,275.652 824.251,275.807 824.177,275.971C824.103,276.135 824.072,276.316 824.066,276.5L823.995,279.012L821.933,279.006L821.888,276.5C821.884,276.31 821.85,276.124 821.775,275.953C821.7,275.783 821.599,275.623 821.462,275.492C821.325,275.362 821.171,275.254 820.998,275.188C820.825,275.122 820.642,275.08 820.454,275.086L817.732,275.17L817.628,272.624L820.454,272.491C820.585,272.485 820.714,272.462 820.83,272.407C820.945,272.353 821.055,272.284 821.142,272.188C821.229,272.093 821.302,271.987 821.345,271.869C821.387,271.751 821.415,271.627 821.409,271.5L821.249,268.5L821.295,268.34L821.454,268.253C821.454,268.253 822.51,268.196 822.51,268.196C822.618,268.196 822.706,268.108 822.706,268C822.706,267.892 822.618,267.804 822.51,267.804L821.454,267.747C821.354,267.742 821.255,267.762 821.162,267.795C821.068,267.828 820.983,267.884 820.907,267.953C820.83,268.022 820.773,268.108 820.729,268.2C820.685,268.293 820.665,268.395 820.659,268.5L820.5,271.5L820.474,271.519L820.454,271.509L817.454,271.368C817.304,271.361 817.157,271.396 817.018,271.446C816.877,271.496 816.753,271.584 816.641,271.687C816.528,271.79 816.447,271.92 816.383,272.056C816.319,272.194 816.293,272.346 816.286,272.5C816.286,272.5 816.163,275.5 816.163,275.5C816.156,275.672 816.196,275.839 816.254,275.997C816.313,276.156 816.413,276.297 816.53,276.424C816.649,276.552 816.796,276.643 816.951,276.714C817.107,276.786 817.28,276.815 817.454,276.822L820.014,276.901ZM825.494,276.862L825.454,276.863C825.468,276.863 825.481,276.863 825.494,276.862ZM828.412,272.531L828.417,272.537L828.454,272.534L828.412,272.531Z"/>
                </g>
            </g>
        </g>
    </g>
</svg>
