<?xml version="1.0" encoding="UTF-8" standalone="no"?>
<!DOCTYPE svg PUBLIC "-//W3C//DTD SVG 1.1//EN" "http://www.w3.org/Graphics/SVG/1.1/DTD/svg11.dtd">
<svg width="100%" height="100%" viewBox="0 0 16 30" version="1.1" xmlns="http://www.w3.org/2000/svg" xmlns:xlink="http://www.w3.org/1999/xlink" xml:space="preserve" xmlns:serif="http://www.serif.com/" style="fill-rule:evenodd;clip-rule:evenodd;stroke-linejoin:round;stroke-miterlimit:2;">
    <g transform="matrix(1,0,0,1,-908,-1279)">
        <g id="ic_category_utilities_heat_gas" transform="matrix(1.00329,0,0,1.00048,-3.00779,-4.13993)">
            <rect x="908.325" y="1282.92" width="15.411" height="29.44" style="fill:none;"/>
            <g transform="matrix(1.76378,0,0,2.98007,7.03174,962.748)">
                <g transform="matrix(0.495811,0,0,0.346715,281.028,62.3342)">
                    <path d="M481.178,142.945L481.29,140.353C481.316,139.734 481.191,139.124 480.942,138.555C480.688,137.977 480.297,137.446 479.793,136.986C479.281,136.521 478.668,136.158 477.998,135.9C477.321,135.64 476.583,135.499 475.825,135.479C475.825,135.479 470.12,135.323 470.12,135.323C469.33,135.304 468.554,135.427 467.83,135.662C467.1,135.899 466.43,136.265 465.852,136.73C465.269,137.201 464.815,137.764 464.496,138.376C464.175,138.993 464.007,139.666 463.99,140.353C463.953,142.344 463.887,144.778 463.865,147.129C463.849,148.73 463.863,150.291 463.862,151.647C463.872,152.35 464.038,153.038 464.361,153.671C464.682,154.301 465.145,154.88 465.739,155.365C466.332,155.844 467.018,156.221 467.768,156.466C468.511,156.71 469.308,156.838 470.12,156.821C470.12,156.821 475.825,156.666 475.825,156.666C477.438,156.614 478.884,156.037 479.899,155.104C480.886,154.197 481.483,152.978 481.417,151.647C481.417,151.647 480.996,143.827 480.996,143.827C480.996,143.808 480.978,143.792 480.954,143.792C480.931,143.792 480.912,143.808 480.912,143.827L480.492,151.647C480.439,152.722 479.869,153.67 479.005,154.346C478.173,154.998 477.047,155.373 475.825,155.334C475.825,155.334 470.12,155.179 470.12,155.179C469.571,155.167 469.039,155.056 468.546,154.871C468.06,154.688 467.621,154.418 467.247,154.085C466.875,153.757 466.596,153.369 466.402,152.954C466.21,152.542 466.114,152.098 466.12,151.647C466.12,151.647 466.12,151.647 466.12,151.647C466.119,150.291 466.132,148.73 466.117,147.129C466.095,144.778 466.029,142.344 465.992,140.353C465.98,139.886 466.071,139.426 466.266,138.998C466.464,138.566 466.751,138.162 467.135,137.82C467.523,137.472 467.979,137.192 468.484,137.001C468.995,136.807 469.549,136.691 470.12,136.677C470.12,136.677 475.825,136.521 475.825,136.521C476.429,136.505 477.024,136.585 477.578,136.762C478.14,136.942 478.664,137.209 479.111,137.564C479.567,137.924 479.932,138.349 480.186,138.82C480.444,139.298 480.596,139.817 480.619,140.353C480.619,140.353 480.731,142.945 480.731,142.945C480.731,143.05 480.831,143.135 480.954,143.135C481.078,143.135 481.178,143.05 481.178,142.945Z"/>
                </g>
                <g transform="matrix(0.641116,0,0,0.267802,70.2044,47.1686)">
                    <path d="M691.111,232.704L691.428,227.258C691.431,227.182 691.458,227.114 691.481,227.046C691.503,226.983 691.544,226.939 691.582,226.891C691.618,226.847 691.665,226.831 691.71,226.81C691.751,226.79 691.795,226.797 691.84,226.801C691.84,226.801 691.84,226.801 691.84,226.801C692.511,226.836 693.477,226.923 694.446,226.936C694.89,226.942 695.334,226.924 695.749,226.904C696.241,226.88 696.689,226.835 697.052,226.808C697.052,226.808 697.052,226.808 697.052,226.808C697.145,226.799 697.238,226.809 697.304,226.89C697.378,226.981 697.45,227.095 697.458,227.246C697.458,227.246 697.823,232.706 697.823,232.706C697.823,232.808 697.881,232.89 697.953,232.889C698.025,232.889 698.082,232.806 698.082,232.704L698.41,227.239C698.435,226.698 698.277,226.21 698.044,225.831C697.803,225.44 697.445,225.221 697.051,225.184C696.688,225.158 696.24,225.114 695.748,225.091C695.333,225.072 694.889,225.055 694.445,225.063C693.476,225.078 692.51,225.168 691.839,225.204C691.648,225.22 691.461,225.27 691.293,225.388C691.127,225.504 690.97,225.651 690.847,225.853C690.726,226.053 690.624,226.27 690.567,226.515C690.511,226.756 690.475,227.008 690.489,227.266C690.489,227.266 690.851,232.706 690.851,232.706C690.852,232.808 690.91,232.89 690.982,232.889C691.053,232.889 691.111,232.806 691.111,232.704Z"/>
                </g>
                <g transform="matrix(-0.0862959,0,0,0.0436562,580.75,97.621)">
                    <path d="M744.328,252.158C746.698,251.909 751.803,251.301 756.966,250.852C759.155,250.662 761.336,250.512 763.315,250.403C765.002,250.31 766.533,250.255 767.775,250.215L767.87,247.209C765.222,246.932 761.236,246.528 757.304,246.01C750.963,245.174 744.954,244.142 744.954,244.142C744.888,244.142 744.833,244.078 744.833,244C744.833,243.922 744.888,243.858 744.954,243.858C744.954,243.858 750.963,242.826 757.304,241.99C762.268,241.336 767.319,240.864 769.654,240.601C770.824,240.505 771.855,241.148 772.676,241.983C773.512,242.832 773.919,244.129 774.006,245.525C774.006,245.525 774.252,252.436 774.252,252.436C774.252,253.149 774.134,253.849 773.906,254.495C773.677,255.141 773.344,255.737 772.914,256.241C772.484,256.745 771.979,257.142 771.428,257.409C770.878,257.676 770.283,257.821 769.676,257.82C768.317,257.771 766.02,257.73 763.325,257.591C761.346,257.489 759.164,257.347 756.975,257.165C751.772,256.733 746.629,256.138 744.273,255.904C744.273,255.904 744.273,255.904 744.273,255.904C743.485,255.82 742.758,255.497 742.289,254.836C741.835,254.198 741.488,253.408 741.558,252.515C741.558,252.515 742.272,244.005 742.272,244.005C742.269,243.589 742.556,243.249 742.91,243.246C743.265,243.244 743.554,243.579 743.556,243.995L744.328,252.158ZM744.333,252.212C744.351,252.242 744.367,252.28 744.392,252.297C744.443,252.332 744.353,252.421 744.359,252.495L744.333,252.212ZM767.709,252.29L767.704,252.454C767.704,252.399 767.705,252.344 767.709,252.29ZM769.44,247.376L769.653,247.398L769.487,247.382L769.44,247.376Z"/>
                </g>
                <g transform="matrix(0.956638,0,0,0.241018,-148.781,55.6851)">
                    <path d="M690.911,251.347L690.843,253.621C690.837,253.847 690.853,254.069 690.884,254.28C690.915,254.494 690.967,254.689 691.032,254.862C691.098,255.039 691.18,255.172 691.268,255.274C691.358,255.377 691.457,255.428 691.559,255.443C691.984,255.492 692.598,255.585 693.283,255.643C693.653,255.674 694.042,255.698 694.433,255.703C694.722,255.707 695.012,255.696 695.295,255.679C695.573,255.663 695.843,255.635 696.099,255.608C696.568,255.558 696.985,255.497 697.306,255.457C697.416,255.442 697.523,255.384 697.619,255.266C697.712,255.151 697.798,254.998 697.865,254.797C697.93,254.601 697.98,254.383 698.005,254.147C698.03,253.916 698.038,253.674 698.02,253.434C698.02,253.434 697.844,251.096 697.844,251.096C697.84,251.021 697.812,250.967 697.78,250.975C697.748,250.983 697.725,251.05 697.728,251.125L697.766,253.498C697.768,253.651 697.754,253.799 697.73,253.938C697.708,254.071 697.67,254.188 697.626,254.291C697.583,254.39 697.53,254.455 697.474,254.504C697.421,254.551 697.364,254.563 697.306,254.555C696.985,254.516 696.568,254.457 696.099,254.408C695.843,254.381 695.573,254.354 695.294,254.338C695.012,254.323 694.722,254.312 694.432,254.317C694.042,254.323 693.652,254.349 693.283,254.381C692.597,254.441 691.983,254.535 691.558,254.585C691.503,254.594 691.448,254.585 691.396,254.543C691.343,254.5 691.292,254.44 691.249,254.351C691.205,254.258 691.167,254.152 691.141,254.029C691.115,253.902 691.096,253.765 691.092,253.621C691.092,253.621 691.026,251.348 691.026,251.348C691.026,251.272 691.001,251.211 690.969,251.211C690.937,251.211 690.911,251.272 690.911,251.347Z"/>
                </g>
                <g transform="matrix(0.69517,0,0,0.412598,32.2668,13.3735)">
                    <path d="M693.251,242.288C693.364,242.424 693.504,242.527 693.655,242.596C694.167,242.828 694.816,242.687 695.067,242.086C695.071,242.079 695.074,242.071 695.077,242.063C695.184,241.718 695.148,241.446 695.034,241.208C694.913,240.959 694.701,240.749 694.495,240.53C694.338,240.363 694.183,240.19 694.125,239.958C693.974,239.356 694.091,238.868 694.33,238.472C694.629,237.975 695.105,237.616 695.493,237.354C695.531,237.331 695.542,237.282 695.519,237.245C695.495,237.207 695.446,237.196 695.409,237.219C694.895,237.514 694.243,237.952 693.911,238.625C693.719,239.015 693.635,239.481 693.735,240.042C693.791,240.35 693.966,240.596 694.157,240.828C694.316,241.02 694.489,241.198 694.576,241.411C694.628,241.542 694.633,241.687 694.569,241.864C694.44,242.123 694.146,242.159 693.925,242.043C693.72,241.935 693.594,241.686 693.659,241.343C693.681,241.206 693.617,241.068 693.497,240.997C693.377,240.926 693.226,240.935 693.116,241.02C692.95,241.143 692.757,241.438 692.626,241.843C692.453,242.376 692.377,243.109 692.561,243.797C692.784,244.628 693.377,245.398 694.605,245.71C695.655,245.951 696.719,245.747 697.472,245.165C698.208,244.597 698.666,243.681 698.523,242.49C698.347,241.138 697.506,240.508 696.677,240.03C696.028,239.655 695.397,239.386 695.229,238.832C695.14,238.536 695.181,238.166 695.413,237.661C695.417,237.654 695.414,237.645 695.407,237.641C695.399,237.637 695.39,237.64 695.386,237.647C695.089,238.157 695.017,238.547 695.083,238.869C695.207,239.478 695.841,239.846 696.503,240.305C697.184,240.779 697.901,241.359 697.96,242.541C698.016,243.473 697.635,244.165 697.042,244.581C696.436,245.006 695.609,245.134 694.799,244.921C693.917,244.711 693.481,244.177 693.307,243.587C693.176,243.145 693.179,242.676 693.251,242.288Z"/>
                </g>
            </g>
        </g>
    </g>
</svg>
