<?xml version="1.0" encoding="UTF-8" standalone="no"?>
<!DOCTYPE svg PUBLIC "-//W3C//DTD SVG 1.1//EN" "http://www.w3.org/Graphics/SVG/1.1/DTD/svg11.dtd">
<svg width="100%" height="100%" viewBox="0 0 29 27" version="1.1" xmlns="http://www.w3.org/2000/svg" xmlns:xlink="http://www.w3.org/1999/xlink" xml:space="preserve" xmlns:serif="http://www.serif.com/" style="fill-rule:evenodd;clip-rule:evenodd;stroke-linejoin:round;stroke-miterlimit:2;">
    <g transform="matrix(1,0,0,1,-808,-400)">
        <g id="Settings" transform="matrix(0.76574,0,0,0.718647,169.837,113.825)">
            <rect x="834.43" y="399.109" width="35.867" height="36.421" style="fill:none;"/>
            <g transform="matrix(1.16058,0.689084,-0.653832,1.25026,189.949,-59.4481)">
                <path d="M589.543,50.691L587.186,53.798C586.986,54.064 586.861,54.372 586.817,54.69C586.772,55.009 586.808,55.339 586.927,55.649C586.928,55.652 586.929,55.655 586.93,55.658C587.185,56.296 587.487,56.913 587.835,57.505C588.183,58.096 588.577,58.661 589.012,59.194C589.014,59.196 589.015,59.198 589.017,59.2C589.229,59.454 589.496,59.648 589.796,59.766C590.095,59.884 590.423,59.932 590.753,59.892L594.683,59.404L596.297,62.959C596.425,63.241 596.617,63.485 596.859,63.666C597.1,63.846 597.384,63.972 597.693,64.017C597.695,64.018 597.698,64.018 597.701,64.018C598.38,64.108 599.065,64.15 599.748,64.139C600.431,64.128 601.113,64.067 601.788,63.954C601.789,63.954 601.791,63.954 601.793,63.953C602.088,63.902 602.362,63.784 602.588,63.604C602.813,63.425 602.999,63.195 603.113,62.922C603.112,62.923 604.687,59.164 604.687,59.164C604.687,59.164 604.713,59.149 604.713,59.149C604.713,59.149 608.785,59.536 608.785,59.536C609.052,59.562 609.318,59.524 609.558,59.423C609.797,59.321 610.013,59.166 610.178,58.958C610.179,58.956 610.18,58.955 610.181,58.953C610.59,58.425 610.96,57.87 611.284,57.288C611.607,56.709 611.887,56.106 612.119,55.483C612.119,55.482 612.12,55.481 612.12,55.48C612.206,55.244 612.233,54.996 612.194,54.757C612.156,54.519 612.063,54.288 611.909,54.092C611.91,54.093 609.335,50.802 609.335,50.802C609.335,50.802 609.331,50.58 609.331,50.58C609.331,50.58 611.758,47.199 611.758,47.199C611.884,47.024 611.963,46.824 611.988,46.618C612.012,46.412 611.988,46.201 611.907,46.003C611.906,46.003 611.906,46.002 611.906,46.001C611.653,45.403 611.358,44.824 611.019,44.272C610.681,43.72 610.302,43.194 609.884,42.698C609.883,42.698 609.883,42.697 609.883,42.697C609.751,42.544 609.586,42.428 609.402,42.36C609.219,42.293 609.02,42.269 608.821,42.3C608.821,42.3 604.727,42.928 604.727,42.928C604.686,42.934 604.657,42.972 604.662,43.012C604.668,43.053 604.706,43.082 604.747,43.077L608.865,42.63C609.005,42.615 609.143,42.638 609.269,42.69C609.392,42.742 609.501,42.826 609.586,42.935C609.969,43.431 610.313,43.955 610.616,44.502C610.919,45.046 611.18,45.613 611.398,46.198C611.438,46.308 611.446,46.427 611.427,46.541C611.409,46.654 611.36,46.761 611.288,46.853L608.638,50.237C608.586,50.305 608.56,50.388 608.562,50.473L608.552,50.929C608.55,51.016 608.577,51.101 608.629,51.171L611.133,54.662C611.182,54.73 611.207,54.809 611.216,54.889C611.226,54.968 611.21,55.048 611.179,55.124C610.944,55.686 610.664,56.23 610.345,56.753C610.028,57.274 609.67,57.771 609.277,58.241C609.236,58.288 609.177,58.323 609.115,58.346C609.055,58.369 608.988,58.372 608.922,58.363L604.633,57.794C604.482,57.777 604.33,57.81 604.201,57.888L603.81,58.101C603.675,58.173 603.569,58.289 603.508,58.428L601.72,62.325C601.704,62.359 601.676,62.383 601.647,62.405C601.619,62.425 601.584,62.434 601.549,62.439C600.955,62.518 600.351,62.551 599.748,62.541C599.146,62.532 598.545,62.477 597.95,62.379C597.958,62.38 597.859,62.29 597.859,62.29L596.191,58.341C596.111,58.157 595.97,58.005 595.791,57.909L595.419,57.689C595.245,57.583 595.039,57.538 594.836,57.562L590.533,58.004L590.523,57.992C590.154,57.532 589.823,57.044 589.528,56.536C589.234,56.029 588.977,55.5 588.761,54.954L591.32,51.503C591.447,51.333 591.514,51.126 591.508,50.914L591.503,50.487C591.509,50.277 591.443,50.071 591.316,49.902L588.697,46.496L588.67,46.412C588.876,45.86 589.124,45.318 589.413,44.799C589.703,44.28 590.03,43.781 590.395,43.309L590.553,43.227L594.863,43.613C595.015,43.63 595.168,43.597 595.298,43.518L595.678,43.287C595.81,43.216 595.914,43.104 595.974,42.968L597.574,38.99C597.603,38.919 597.642,38.854 597.7,38.807C597.759,38.758 597.827,38.717 597.906,38.702C598.513,38.592 599.129,38.525 599.748,38.506C600.371,38.486 600.994,38.51 601.614,38.582C601.713,38.594 601.811,38.626 601.893,38.684C601.976,38.744 602.05,38.82 602.096,38.916L603.961,42.78C604.004,42.876 604.117,42.921 604.215,42.879C604.312,42.837 604.357,42.725 604.315,42.628L602.74,38.64C602.657,38.428 602.516,38.249 602.346,38.108C602.173,37.964 601.961,37.87 601.732,37.825C601.731,37.825 601.73,37.825 601.729,37.825C601.074,37.706 600.412,37.638 599.748,37.618C599.081,37.598 598.413,37.63 597.749,37.709C597.748,37.709 597.747,37.71 597.745,37.71C597.492,37.742 597.258,37.845 597.058,37.989C596.855,38.135 596.696,38.335 596.586,38.567C596.586,38.566 594.845,42.225 594.845,42.225C594.845,42.225 594.813,42.243 594.813,42.243C594.813,42.243 590.734,41.677 590.734,41.677C590.433,41.637 590.133,41.681 589.858,41.786C589.582,41.891 589.337,42.07 589.14,42.301C589.139,42.303 589.137,42.305 589.135,42.307C588.698,42.83 588.303,43.384 587.95,43.964C587.596,44.546 587.288,45.154 587.026,45.783C587.025,45.785 587.024,45.787 587.024,45.789C586.904,46.082 586.872,46.395 586.909,46.699C586.946,47.004 587.067,47.297 587.253,47.555L589.543,50.691ZM599.525,47.4C600.417,47.518 601.187,47.993 601.762,48.632C602.269,49.195 602.546,49.92 602.469,50.701C602.437,51.428 602.071,52.044 601.584,52.517C601.103,52.986 600.476,53.326 599.748,53.346C598.987,53.39 598.306,53.144 597.792,52.677C597.234,52.17 596.83,51.47 596.705,50.659C596.594,49.982 596.818,49.124 597.296,48.387C597.763,47.666 598.444,47.06 599.3,46.826C599.341,46.818 599.368,46.779 599.36,46.739C599.353,46.698 599.313,46.671 599.272,46.679C598.298,46.773 597.444,47.313 596.801,48.011C596.048,48.829 595.638,49.875 595.635,50.743C595.642,51.866 596.057,52.897 596.724,53.686C597.451,54.545 598.512,55.061 599.748,55.134C600.996,55.168 602.159,54.705 602.971,53.889C603.779,53.076 604.237,51.929 604.183,50.701C604.155,50.334 604.099,49.98 603.973,49.65C603.685,48.898 603.199,48.239 602.53,47.779C601.671,47.187 600.605,46.875 599.525,47.019C599.418,47.019 599.332,47.104 599.332,47.209C599.332,47.315 599.418,47.4 599.525,47.4Z"/>
            </g>
        </g>
    </g>
</svg>
