<?xml version="1.0" encoding="UTF-8" standalone="no"?>
<!DOCTYPE svg PUBLIC "-//W3C//DTD SVG 1.1//EN" "http://www.w3.org/Graphics/SVG/1.1/DTD/svg11.dtd">
<svg width="100%" height="100%" viewBox="0 0 27 31" version="1.1" xmlns="http://www.w3.org/2000/svg" xmlns:xlink="http://www.w3.org/1999/xlink" xml:space="preserve" xmlns:serif="http://www.serif.com/" style="fill-rule:evenodd;clip-rule:evenodd;stroke-linejoin:round;stroke-miterlimit:2;">
    <g transform="matrix(1,0,0,1,-628,-441)">
        <g id="Home" transform="matrix(1.00552,0,0,1.00384,-3.72015,-5.01706)">
            <rect x="628.869" y="445.145" width="25.57" height="29.158" style="fill:none;"/>
            <g transform="matrix(0.994514,0,0,0.996174,175.106,411.868)">
                <path d="M469.05,33.469L468.954,33.467C468.698,33.471 468.447,33.52 468.216,33.62C467.986,33.719 467.773,33.859 467.596,34.043C467.596,34.043 456.795,45.309 456.795,45.309C456.647,45.465 456.528,45.644 456.452,45.841C456.376,46.037 456.333,46.247 456.338,46.461C456.338,46.461 456.663,60.057 456.663,60.057C456.679,60.684 456.94,61.247 457.361,61.647C457.775,62.041 458.335,62.283 458.951,62.268C458.951,62.268 459.512,62.254 459.512,62.254L459.52,62.238C459.555,62.163 459.681,61.867 459.456,61.86L458.951,61.846C458.463,61.833 458.028,61.621 457.717,61.293C457.412,60.972 457.233,60.534 457.246,60.057L457.571,46.461C457.572,46.411 457.588,46.363 457.608,46.318C457.627,46.274 457.66,46.237 457.695,46.203C457.695,46.203 468.897,35.337 468.897,35.337C468.897,35.337 468.956,35.323 468.956,35.323L469.001,35.349C470.092,36.46 472.279,38.714 474.457,40.903C476.824,43.283 479.177,45.589 479.981,46.387L480.001,46.414L480.276,60.031C480.286,60.401 480.155,60.745 479.919,60.994C479.675,61.252 479.338,61.426 478.956,61.436C478.956,61.436 460.954,62.009 460.954,62.009C460.934,62.009 460.917,62.026 460.917,62.046C460.917,62.067 460.934,62.083 460.954,62.083L478.957,62.625C479.679,62.644 480.334,62.355 480.819,61.894C481.313,61.426 481.613,60.764 481.633,60.031L481.907,46.414C481.91,46.155 481.858,45.902 481.763,45.666C481.668,45.43 481.524,45.214 481.343,45.028C480.546,44.222 478.244,41.865 475.869,39.493C473.684,37.311 471.434,35.121 470.326,34.028C470.326,34.028 470.326,34.028 470.326,34.028C470.142,33.848 469.929,33.705 469.695,33.611C469.491,33.528 469.273,33.478 469.05,33.469Z"/>
            </g>
        </g>
    </g>
</svg>
