<?xml version="1.0" encoding="UTF-8" standalone="no"?>
<!DOCTYPE svg PUBLIC "-//W3C//DTD SVG 1.1//EN" "http://www.w3.org/Graphics/SVG/1.1/DTD/svg11.dtd">
<svg width="100%" height="100%" viewBox="0 0 31 29" version="1.1" xmlns="http://www.w3.org/2000/svg" xmlns:xlink="http://www.w3.org/1999/xlink" xml:space="preserve" xmlns:serif="http://www.serif.com/" style="fill-rule:evenodd;clip-rule:evenodd;stroke-linejoin:round;stroke-miterlimit:2;">
    <g transform="matrix(1,0,0,1,-775,-643)">
        <g id="ic_categories_travel_hotels_rooms" transform="matrix(1.00196,0,0,1.0008,-1.54977,-0.5324)">
            <rect x="775.999" y="643.989" width="29.186" height="27.154" style="fill:none;"/>
            <g transform="matrix(1.76612,0,0,1.41986,-34.7141,475.595)">
                <g transform="matrix(-0.0633485,-9.97466e-18,5.95227e-16,0.108356,508.127,111.639)">
                    <path d="M662.815,159.626C667.417,159.421 671.448,160.883 674.769,163.404C676.937,165.05 678.648,167.191 679.942,169.686C681.049,171.82 681.665,174.216 681.977,176.782C682.26,180.093 681.614,183.235 680.232,185.982C679.153,188.124 677.597,190.021 675.735,191.565C671.924,194.725 666.871,196.481 661.581,196.37C656.397,196.181 651.617,194.342 648.198,191.071C644.492,187.526 642.22,182.438 642.699,176.823C643.216,171.555 645.455,167.142 648.951,164.188C651.843,161.744 655.483,160.291 659.59,160.245C659.68,160.239 659.761,160.288 659.769,160.354C659.777,160.42 659.71,160.478 659.62,160.484C655.892,160.94 652.831,162.595 650.649,165.104C648.097,168.039 646.879,172.13 647.34,176.823C647.66,180.527 649.363,183.815 651.809,186.33C654.319,188.912 657.776,190.542 661.581,190.399C663.355,190.351 664.966,189.802 666.45,189.044C667.981,188.262 669.297,187.17 670.443,185.894C672.627,183.461 674.187,180.357 674.306,176.864C674.521,174.305 674.253,171.918 673.508,169.781C672.94,168.156 672.237,166.682 671.179,165.422C669.163,163.022 666.381,161.352 662.721,160.898C662.239,160.879 661.868,160.579 661.894,160.227C661.92,159.876 662.333,159.607 662.815,159.626Z"/>
                </g>
                <g transform="matrix(0.997464,0,0,1.14,5.45988,-39.4648)">
                    <path d="M463.337,148.272C463.337,148.272 463.817,148.274 464.36,148.241C465.076,148.196 465.895,148.096 465.895,148.096C465.943,148.096 465.983,148.053 465.983,148C465.983,147.947 465.943,147.904 465.895,147.904C465.895,147.904 465.076,147.804 464.36,147.759C463.817,147.726 463.337,147.728 463.337,147.728C463.2,147.728 463.088,147.85 463.088,148C463.088,148.15 463.2,148.272 463.337,148.272Z"/>
                </g>
                <g transform="matrix(-1.68163e-16,-1.14,0.915436,-2.09414e-16,333.29,660.837)">
                    <path d="M463.337,148.272C463.337,148.272 463.817,148.274 464.36,148.241C465.077,148.196 465.895,148.096 465.895,148.096C465.948,148.096 465.991,148.053 465.991,148C465.991,147.947 465.948,147.904 465.895,147.904C465.895,147.904 465.077,147.804 464.36,147.759C463.817,147.726 463.337,147.728 463.337,147.728C463.187,147.728 463.066,147.85 463.066,148C463.066,148.15 463.187,148.272 463.337,148.272Z"/>
                </g>
                <g transform="matrix(-0.490734,1.31092e-16,-6.51751e-17,-1.19159,691.577,307.476)">
                    <path d="M463.421,147.8L463.337,147.8L463.317,147.8C463.111,147.806 462.947,147.893 462.947,148C462.947,148.11 463.122,148.2 463.337,148.2L463.337,148.193C463.366,148.198 463.4,148.199 463.44,148.199C463.609,148.196 463.969,148.195 464.36,148.177C465.082,148.143 465.895,148.07 465.895,148.07C465.971,148.07 466.032,148.039 466.032,148C466.032,147.961 465.971,147.93 465.895,147.93C465.895,147.93 465.082,147.856 464.36,147.823C463.953,147.804 463.581,147.801 463.421,147.8Z"/>
                </g>
                <g transform="matrix(-0.785117,-0.550783,0.546979,-0.790577,751.951,509.29)">
                    <path d="M471.247,148.171C471.247,148.171 471.647,148.751 472.133,149.383C472.774,150.217 473.551,151.138 473.551,151.138C473.592,151.197 473.664,151.218 473.712,151.185C473.76,151.151 473.766,151.076 473.724,151.017C473.724,151.017 473.129,149.969 472.569,149.079C472.144,148.404 471.74,147.829 471.74,147.829C471.623,147.661 471.417,147.601 471.282,147.696C471.146,147.79 471.13,148.003 471.247,148.171Z"/>
                </g>
                <g transform="matrix(0.785117,-0.550783,-0.546979,-0.790577,174.977,509.29)">
                    <path d="M471.74,147.829C471.74,147.829 472.144,148.404 472.569,149.079C473.129,149.969 473.724,151.017 473.724,151.017C473.766,151.076 473.76,151.151 473.712,151.185C473.664,151.218 473.592,151.197 473.551,151.138C473.551,151.138 472.774,150.217 472.133,149.383C471.647,148.751 471.247,148.171 471.247,148.171C471.13,148.003 471.146,147.79 471.282,147.696C471.417,147.601 471.623,147.661 471.74,147.829Z"/>
                </g>
                <g transform="matrix(0.785117,-0.550783,-0.546979,-0.790577,183.864,509.199)">
                    <path d="M472.839,147.533L471.925,148.16C471.925,148.16 473.724,151.017 473.724,151.017C473.766,151.076 473.76,151.151 473.712,151.185C473.664,151.218 473.592,151.197 473.551,151.138L471.282,148.185C471.174,148.029 471.187,147.833 471.312,147.744L472.41,146.927C472.545,146.831 472.75,146.889 472.868,147.056C472.987,147.223 472.974,147.436 472.839,147.533Z"/>
                </g>
                <g transform="matrix(0.520505,1.39045e-16,6.9129e-17,-1.26388,229.672,317.825)">
                    <path d="M463.216,147.992C463.072,148.152 462.97,148.082 462.97,148C462.97,147.896 463.134,147.811 463.337,147.811C463.337,147.811 463.818,147.81 464.36,147.833C465.081,147.864 465.895,147.934 465.895,147.934C465.966,147.934 466.024,147.963 466.024,148C466.024,148.037 465.966,148.066 465.895,148.066C465.895,148.066 465.081,148.135 464.36,148.167C463.968,148.184 463.609,148.185 463.44,148.187C463.195,148.191 463.177,148.09 463.216,147.992Z"/>
                </g>
                <g transform="matrix(-5.66616e-17,-1.42991,1.16057,-1.04374e-16,298.9,800.46)">
                    <path d="M467.366,149.299L467.356,148.452C467.356,148.435 467.358,148.418 467.364,148.402C467.371,148.386 467.379,148.371 467.392,148.358C467.404,148.345 467.418,148.334 467.434,148.327C467.451,148.32 467.468,148.315 467.487,148.315L469.16,148.266C469.185,148.265 469.211,148.266 469.234,148.274C469.259,148.283 469.282,148.294 469.302,148.312C469.322,148.33 469.34,148.35 469.351,148.374C469.363,148.398 469.372,148.424 469.373,148.452L469.416,149.299C469.416,149.347 469.456,149.386 469.504,149.386C469.553,149.386 469.593,149.347 469.593,149.299L469.636,148.452C469.639,148.389 469.626,148.328 469.605,148.27C469.584,148.211 469.549,148.158 469.505,148.111C469.461,148.063 469.407,148.027 469.349,148C469.29,147.973 469.226,147.96 469.16,147.957C469.16,147.957 467.487,147.908 467.487,147.908C467.414,147.906 467.342,147.921 467.275,147.947C467.208,147.973 467.147,148.013 467.094,148.064C467.042,148.115 467.001,148.176 466.972,148.241C466.944,148.307 466.929,148.379 466.928,148.452C466.928,148.452 466.919,149.299 466.919,149.299C466.919,149.421 467.019,149.521 467.142,149.521C467.266,149.521 467.366,149.421 467.366,149.299Z"/>
                </g>
                <g transform="matrix(0.589028,0,0,0.288052,41.3369,107.798)">
                    <path d="M736.845,72.427L736.845,72.455C736.845,72.654 736.908,72.815 736.986,72.815C736.986,72.815 737.126,72.737 737.127,72.363C737.127,72.23 737.128,71.95 737.129,71.592C737.132,70.479 736.956,69.47 736.674,68.728C736.386,67.972 735.986,67.505 735.541,67.477C733.058,67.33 727.719,66.979 722.852,66.73C719.392,66.553 716.173,66.439 714.393,66.361C714.117,66.351 713.846,66.49 713.593,66.746C713.34,67.002 713.108,67.392 712.909,67.885C712.709,68.381 712.555,68.972 712.447,69.612C712.34,70.255 712.284,70.952 712.282,71.665C712.282,71.665 712.236,88.335 712.236,88.335C712.235,89.064 712.292,89.778 712.4,90.438C712.507,91.099 712.665,91.706 712.867,92.222C713.07,92.736 713.308,93.139 713.568,93.41C713.827,93.68 714.108,93.824 714.393,93.82C714.393,93.82 714.393,93.82 714.393,93.82C716.171,93.758 719.387,93.699 722.843,93.525C727.699,93.281 733.025,92.858 735.519,92.694C735.986,92.658 736.406,92.163 736.704,91.36C736.995,90.573 737.175,89.512 737.162,88.345C737.162,88.345 736.998,74.129 736.998,74.129C736.998,74.092 736.986,74.061 736.971,74.061C736.956,74.061 736.944,74.091 736.944,74.129L736.753,88.343C736.742,89.198 736.593,89.957 736.366,90.499C736.146,91.027 735.845,91.331 735.519,91.306C733.025,91.142 727.699,90.719 722.843,90.475C719.387,90.301 716.171,90.242 714.393,90.18C714.298,90.178 714.204,90.125 714.117,90.032C714.031,89.94 713.952,89.804 713.885,89.631C713.817,89.459 713.764,89.257 713.728,89.037C713.692,88.817 713.673,88.579 713.673,88.335L713.627,71.665C713.626,71.405 713.643,71.149 713.68,70.912C713.718,70.674 713.771,70.449 713.843,70.262C713.915,70.072 713.999,69.915 714.092,69.812C714.187,69.708 714.288,69.643 714.393,69.639C716.173,69.561 719.392,69.447 722.852,69.27C727.719,69.021 733.058,68.67 735.541,68.523C735.881,68.502 736.194,68.824 736.425,69.373C736.661,69.935 736.815,70.72 736.83,71.606C736.836,71.963 736.841,72.243 736.843,72.376L736.845,72.427Z"/>
                </g>
                <g transform="matrix(0.00610598,-4.58467,0.479092,-0.00760382,428.526,3699.61)">
                    <path d="M776.952,55.824C776.952,55.824 777.953,55.685 778.953,55.502C779.954,55.319 780.954,55.092 780.954,55.092C780.973,55.093 780.988,54.975 780.989,54.83C780.989,54.684 780.974,54.567 780.955,54.567C780.955,54.567 779.956,54.336 778.956,54.149C777.956,53.962 776.956,53.82 776.956,53.82C776.884,53.819 776.825,54.268 776.824,54.822C776.823,55.375 776.88,55.824 776.952,55.824Z"/>
                </g>
                <g transform="matrix(0.00133176,-1.46643,0.479083,-0.00165845,436.299,1266.83)">
                    <path d="M776.952,55.824C776.952,55.824 777.951,55.685 778.953,55.502C779.958,55.319 780.954,55.092 780.954,55.092L780.955,54.567C780.955,54.567 779.96,54.337 778.956,54.149C777.954,53.962 776.956,53.82 776.956,53.82L776.952,55.824Z"/>
                </g>
                <g transform="matrix(0.00133176,-1.46643,0.479083,-0.00165845,444.939,1266.83)">
                    <path d="M776.952,55.824C776.952,55.824 777.951,55.685 778.953,55.502C779.958,55.319 780.954,55.092 780.954,55.092L780.955,54.567C780.955,54.567 779.96,54.337 778.956,54.149C777.954,53.962 776.956,53.82 776.956,53.82L776.952,55.824Z"/>
                </g>
                <g transform="matrix(0.529389,0,0,0.435259,100.111,48.8417)">
                    <path d="M679.471,164.238C679.471,164.238 688.086,164.653 695.847,164.931C698.198,165.015 700.469,165.078 702.398,165.123C704.246,165.166 705.779,165.18 706.765,165.197C706.8,165.197 706.835,165.212 706.866,165.234C706.897,165.256 706.924,165.29 706.947,165.331C706.969,165.371 706.984,165.418 706.993,165.468C707.002,165.517 707.004,165.569 706.998,165.62L706.983,165.764C706.134,165.762 704.568,165.736 702.597,165.749C700.687,165.763 698.4,165.809 696.017,165.864C693.828,165.915 691.563,165.982 689.436,166.056C684.044,166.242 679.564,166.452 679.564,166.452C679.548,166.452 679.534,166.472 679.534,166.497C679.534,166.522 679.547,166.542 679.563,166.542C679.563,166.542 684.039,166.909 689.427,167.284C691.552,167.432 693.816,167.578 696.003,167.705C698.385,167.844 700.671,167.97 702.58,168.05C704.549,168.133 706.116,168.162 706.965,168.189C707.365,168.195 707.737,167.978 708.023,167.608C708.308,167.238 708.508,166.717 708.566,166.117L708.58,165.973C708.618,165.573 708.599,165.171 708.525,164.792C708.452,164.414 708.326,164.059 708.151,163.756C707.976,163.452 707.763,163.212 707.526,163.05C707.289,162.889 707.031,162.801 706.765,162.803C705.779,162.82 704.246,162.834 702.398,162.877C700.469,162.922 698.198,162.985 695.847,163.069C688.086,163.347 679.471,163.762 679.471,163.762C679.384,163.762 679.314,163.869 679.314,164C679.314,164.131 679.384,164.238 679.471,164.238Z"/>
                </g>
            </g>
        </g>
    </g>
</svg>
