<?xml version="1.0" encoding="UTF-8" standalone="no"?>
<!DOCTYPE svg PUBLIC "-//W3C//DTD SVG 1.1//EN" "http://www.w3.org/Graphics/SVG/1.1/DTD/svg11.dtd">
<svg width="100%" height="100%" viewBox="0 0 25 32" version="1.1" xmlns="http://www.w3.org/2000/svg" xmlns:xlink="http://www.w3.org/1999/xlink" xml:space="preserve" xmlns:serif="http://www.serif.com/" style="fill-rule:evenodd;clip-rule:evenodd;stroke-linejoin:round;stroke-miterlimit:2;">
    <g transform="matrix(1,0,0,1,-834,-1596)">
        <g id="ic_account_groups_receivables" transform="matrix(1.00054,0,0,1.00031,10.1469,1.40902)">
            <rect x="823.945" y="1594.19" width="24.188" height="31.797" style="fill:none;"/>
            <g transform="matrix(1.76863,0,0,2.98055,142.348,1164.06)">
                <g transform="matrix(0.206221,-2.16652e-18,4.20242e-18,-0.161277,222.854,158.928)">
                    <path d="M820.953,69.861C820.349,70.437 819.561,71.191 818.663,72.019C818.057,72.577 817.404,73.165 816.726,73.761C813.199,76.857 809.246,80.168 809.246,80.168C809.124,80.291 808.894,80.315 808.733,80.222C808.571,80.129 808.54,79.954 808.662,79.832C808.662,79.832 811.801,76.052 814.781,72.641C815.354,71.985 815.925,71.349 816.47,70.756C817.543,69.59 818.502,68.603 819.09,67.979C819.09,67.979 819.09,67.979 819.09,67.979C819.31,67.757 819.594,67.582 819.913,67.46C820.231,67.338 820.588,67.275 820.954,67.273C821.321,67.275 821.678,67.338 821.996,67.461C822.314,67.583 822.599,67.757 822.817,67.98C822.817,67.98 822.817,67.98 822.817,67.98C823.154,68.334 823.615,68.803 824.135,69.364C824.993,70.29 826.04,71.444 827.104,72.654C830.095,76.057 833.246,79.832 833.246,79.832C833.369,79.954 833.337,80.129 833.176,80.222C833.015,80.315 832.785,80.291 832.662,80.168C832.662,80.168 828.72,76.849 825.206,73.747C823.956,72.644 822.774,71.568 821.83,70.692C821.504,70.389 821.211,70.109 820.953,69.861Z"/>
                </g>
                <g transform="matrix(0.236028,9.74901e-33,2.57409e-32,0.128159,198.383,135.294)">
                    <path d="M819.495,72C819.495,72 819.481,75.751 819.663,80C819.902,85.59 820.44,92 820.44,92C820.44,92.31 820.67,92.562 820.954,92.562C821.238,92.562 821.469,92.31 821.469,92C821.469,92 822.006,85.59 822.246,80C822.428,75.751 822.414,72 822.414,72C822.414,71.12 821.76,70.405 820.954,70.405C820.149,70.405 819.495,71.12 819.495,72Z"/>
                </g>
                <g transform="matrix(0.531347,0,0,0.283704,23.9264,128.208)">
                    <path d="M680.746,72.699L680.269,89.749C680.249,90.589 680.541,91.358 681.013,91.938C681.492,92.526 682.174,92.9 682.939,92.963C685.178,93.135 688.976,93.451 692.792,93.723C696.563,93.992 700.349,94.219 702.649,94.37C702.649,94.37 702.649,94.37 702.649,94.37C703.083,94.394 703.512,94.32 703.911,94.156C704.311,93.992 704.68,93.739 704.995,93.407C705.311,93.075 705.559,92.68 705.728,92.246C705.898,91.812 705.99,91.341 705.993,90.859L705.975,74.657C705.971,73.751 705.654,72.924 705.126,72.319C704.602,71.718 703.881,71.325 703.072,71.293C703.072,71.293 686.845,70.717 686.845,70.717C686.845,70.717 689.337,70.32 689.337,70.32C689.531,70.293 689.67,70.096 689.646,69.879C689.621,69.663 689.444,69.509 689.249,69.536L680.891,70.513C680.626,70.55 680.431,70.805 680.441,71.101C680.451,71.398 680.663,71.636 680.929,71.65L702.987,73.242C703.319,73.265 703.609,73.439 703.819,73.692C704.024,73.941 704.139,74.278 704.132,74.641L703.873,90.839C703.872,91.001 703.841,91.158 703.783,91.303C703.726,91.448 703.643,91.58 703.537,91.69C703.432,91.801 703.308,91.884 703.175,91.939C703.041,91.994 702.899,92.02 702.754,92.013C700.452,91.911 696.664,91.723 692.887,91.579C689.066,91.433 685.258,91.332 683.014,91.259C682.647,91.249 682.311,91.09 682.068,90.821C681.819,90.544 681.65,90.17 681.64,89.749C681.64,89.749 681.163,72.699 681.163,72.699C681.163,72.571 681.069,72.467 680.954,72.467C680.839,72.467 680.746,72.571 680.746,72.699Z"/>
                </g>
                <g transform="matrix(0.531347,0,0,0.283704,23.9264,128.208)">
                    <path d="M697.013,69.096C697.013,69.096 698.189,68.948 699.518,68.745C701.005,68.518 702.683,68.226 703.144,68.145C703.144,68.145 703.189,70.763 703.189,70.763C703.188,70.787 703.206,70.806 703.228,70.807C703.249,70.807 703.267,70.787 703.267,70.763L703.364,68.001C703.364,67.965 703.351,67.931 703.327,67.908C703.303,67.884 703.271,67.873 703.239,67.877C703.239,67.877 701.216,68.078 699.468,68.293C698.134,68.458 696.961,68.635 696.961,68.635C696.847,68.651 696.766,68.767 696.78,68.894C696.794,69.021 696.899,69.111 697.013,69.096Z"/>
                </g>
                <g transform="matrix(0.493393,0,0,0.29284,50.4157,127.635)">
                    <path d="M704.954,78.855L696.103,79.287C695.856,79.297 695.616,79.345 695.396,79.446C695.179,79.546 694.975,79.68 694.808,79.858C694.643,80.035 694.51,80.237 694.427,80.459C694.344,80.68 694.297,80.915 694.306,81.155L694.408,83.886C694.423,84.353 694.614,84.774 694.93,85.071C695.241,85.363 695.658,85.549 696.118,85.536C696.118,85.536 704.954,85.292 704.954,85.292C705.105,85.292 705.228,85.169 705.228,85.018C705.228,84.867 705.105,84.745 704.954,84.745L696.118,84.508C695.947,84.503 695.799,84.421 695.69,84.307C695.586,84.197 695.533,84.043 695.537,83.88C695.537,83.88 695.609,81.148 695.609,81.148C695.61,81.083 695.633,81.022 695.659,80.964C695.684,80.907 695.727,80.86 695.773,80.817C695.817,80.775 695.873,80.75 695.93,80.729C695.984,80.709 696.044,80.711 696.103,80.713C696.103,80.713 704.954,81.145 704.954,81.145C705.586,81.145 706.1,80.632 706.1,80C706.1,79.368 705.586,78.855 704.954,78.855Z"/>
                </g>
            </g>
        </g>
    </g>
</svg>
