<?xml version="1.0" encoding="UTF-8" standalone="no"?>
<!DOCTYPE svg PUBLIC "-//W3C//DTD SVG 1.1//EN" "http://www.w3.org/Graphics/SVG/1.1/DTD/svg11.dtd">
<svg width="100%" height="100%" viewBox="0 0 33 31" version="1.1" xmlns="http://www.w3.org/2000/svg" xmlns:xlink="http://www.w3.org/1999/xlink" xml:space="preserve" xmlns:serif="http://www.serif.com/" style="fill-rule:evenodd;clip-rule:evenodd;stroke-linejoin:round;stroke-miterlimit:2;">
    <g transform="matrix(1,0,0,1,-794,-1596)">
        <g id="ic_account_groups_properties" transform="matrix(1.00054,0,0,1.00068,6.34008,-0.606329)">
            <rect x="788.117" y="1595.63" width="31.674" height="30.367" style="fill:none;"/>
            <g transform="matrix(1.76862,0,0,2.97946,142.335,1164.22)">
                <g transform="matrix(0.0847435,0,0,0.0503104,331.648,143.207)">
                    <path d="M467.741,153.587C467.883,151.285 468.183,147.755 468.277,144.436C468.333,142.429 468.288,140.506 468.272,139.005C469.303,138.932 470.535,138.843 471.813,138.71C474.339,138.449 476.957,138.07 478.772,137.844C478.922,137.823 479.07,137.687 479.182,137.772C479.34,137.89 479.566,137.972 479.596,138.182L480.229,141.941C480.248,142.054 480.276,142.156 480.311,142.248C480.304,142.283 480.3,142.32 480.3,142.358C480.3,142.719 480.593,143.012 480.954,143.012C480.954,143.012 481.542,142.753 481.68,141.941C481.809,141.176 482.079,139.567 482.313,138.182C482.457,137.168 482.019,136.266 481.448,135.507C480.84,134.698 479.853,134.309 478.772,134.156C478.772,134.156 478.772,134.156 478.772,134.156C476.957,133.93 474.339,133.551 471.813,133.29C470.077,133.11 468.425,133.01 467.174,132.907C467.173,132.907 467.173,132.907 467.173,132.907C465.702,132.82 464.386,133.466 463.371,134.38C462.34,135.309 461.786,136.686 461.718,138.182C461.718,138.182 461.718,138.182 461.718,138.182C461.715,139.764 461.637,142.04 461.705,144.436C461.802,147.879 462.121,151.55 462.254,153.818C462.254,153.818 462.254,153.818 462.254,153.818C462.361,155.158 462.843,156.391 463.791,157.199C464.713,157.985 465.871,158.567 467.173,158.464L478.772,157.423C479.746,157.327 480.627,156.949 481.202,156.247C481.749,155.58 482.131,154.745 482.039,153.818L481.078,144.446C481.078,144.378 481.022,144.323 480.954,144.323C480.886,144.323 480.831,144.378 480.831,144.446L479.87,153.818C479.842,154.103 479.634,154.306 479.428,154.474C479.256,154.616 479.011,154.6 478.772,154.577L467.741,153.587ZM467.516,153.567C467.499,153.553 467.483,153.538 467.469,153.523C467.405,153.447 467.28,153.545 467.174,153.536L467.516,153.567Z"/>
                </g>
                <g transform="matrix(0.0847435,0,0,0.0503104,331.648,145.603)">
                    <path d="M467.741,153.587C467.883,151.285 468.183,147.755 468.277,144.436C468.333,142.429 468.288,140.506 468.272,139.005C469.303,138.932 470.535,138.843 471.813,138.71C474.339,138.449 476.957,138.07 478.772,137.844C478.922,137.823 479.07,137.687 479.182,137.772C479.34,137.89 479.566,137.972 479.596,138.182L480.229,141.941C480.248,142.054 480.276,142.156 480.311,142.248C480.304,142.283 480.3,142.32 480.3,142.358C480.3,142.719 480.593,143.012 480.954,143.012C480.954,143.012 481.542,142.753 481.68,141.941C481.809,141.176 482.079,139.567 482.313,138.182C482.457,137.168 482.019,136.266 481.448,135.507C480.84,134.698 479.853,134.309 478.772,134.156C478.772,134.156 478.772,134.156 478.772,134.156C476.957,133.93 474.339,133.551 471.813,133.29C470.077,133.11 468.425,133.01 467.174,132.907C467.173,132.907 467.173,132.907 467.173,132.907C465.702,132.82 464.386,133.466 463.371,134.38C462.34,135.309 461.786,136.686 461.718,138.182C461.718,138.182 461.718,138.182 461.718,138.182C461.715,139.764 461.637,142.04 461.705,144.436C461.802,147.879 462.121,151.55 462.254,153.818C462.254,153.818 462.254,153.818 462.254,153.818C462.361,155.158 462.843,156.391 463.791,157.199C464.713,157.985 465.871,158.567 467.173,158.464L478.772,157.423C479.746,157.327 480.627,156.949 481.202,156.247C481.749,155.58 482.131,154.745 482.039,153.818L481.078,144.446C481.078,144.378 481.022,144.323 480.954,144.323C480.886,144.323 480.831,144.378 480.831,144.446L479.87,153.818C479.842,154.103 479.634,154.306 479.428,154.474C479.256,154.616 479.011,154.6 478.772,154.577L467.741,153.587ZM467.516,153.567C467.499,153.553 467.483,153.538 467.469,153.523C467.405,153.447 467.28,153.545 467.174,153.536L467.516,153.567Z"/>
                </g>
                <g transform="matrix(0.0847435,0,0,0.0503104,334.585,143.207)">
                    <path d="M467.741,153.587C467.883,151.285 468.183,147.755 468.277,144.436C468.333,142.429 468.288,140.506 468.272,139.005C469.303,138.932 470.535,138.843 471.813,138.71C474.339,138.449 476.957,138.07 478.772,137.844C478.922,137.823 479.07,137.687 479.182,137.772C479.34,137.89 479.566,137.972 479.596,138.182L480.229,141.941C480.248,142.054 480.276,142.156 480.311,142.248C480.304,142.283 480.3,142.32 480.3,142.358C480.3,142.719 480.593,143.012 480.954,143.012C480.954,143.012 481.542,142.753 481.68,141.941C481.809,141.176 482.079,139.567 482.313,138.182C482.457,137.168 482.019,136.266 481.448,135.507C480.84,134.698 479.853,134.309 478.772,134.156C478.772,134.156 478.772,134.156 478.772,134.156C476.957,133.93 474.339,133.551 471.813,133.29C470.077,133.11 468.425,133.01 467.174,132.907C467.173,132.907 467.173,132.907 467.173,132.907C465.702,132.82 464.386,133.466 463.371,134.38C462.34,135.309 461.786,136.686 461.718,138.182C461.718,138.182 461.718,138.182 461.718,138.182C461.715,139.764 461.637,142.04 461.705,144.436C461.802,147.879 462.121,151.55 462.254,153.818C462.254,153.818 462.254,153.818 462.254,153.818C462.361,155.158 462.843,156.391 463.791,157.199C464.713,157.985 465.871,158.567 467.173,158.464L478.772,157.423C479.746,157.327 480.627,156.949 481.202,156.247C481.749,155.58 482.131,154.745 482.039,153.818L481.078,144.446C481.078,144.378 481.022,144.323 480.954,144.323C480.886,144.323 480.831,144.378 480.831,144.446L479.87,153.818C479.842,154.103 479.634,154.306 479.428,154.474C479.256,154.616 479.011,154.6 478.772,154.577L467.741,153.587ZM467.516,153.567C467.499,153.553 467.483,153.538 467.469,153.523C467.405,153.447 467.28,153.545 467.174,153.536L467.516,153.567Z"/>
                </g>
                <g transform="matrix(0.0847435,0,0,0.0503104,334.585,145.603)">
                    <path d="M467.741,153.587C467.883,151.285 468.183,147.755 468.277,144.436C468.333,142.429 468.288,140.506 468.272,139.005C469.303,138.932 470.535,138.843 471.813,138.71C474.339,138.449 476.957,138.07 478.772,137.844C478.922,137.823 479.07,137.687 479.182,137.772C479.34,137.89 479.566,137.972 479.596,138.182L480.229,141.941C480.248,142.054 480.276,142.156 480.311,142.248C480.304,142.283 480.3,142.32 480.3,142.358C480.3,142.719 480.593,143.012 480.954,143.012C480.954,143.012 481.542,142.753 481.68,141.941C481.809,141.176 482.079,139.567 482.313,138.182C482.457,137.168 482.019,136.266 481.448,135.507C480.84,134.698 479.853,134.309 478.772,134.156C478.772,134.156 478.772,134.156 478.772,134.156C476.957,133.93 474.339,133.551 471.813,133.29C470.077,133.11 468.425,133.01 467.174,132.907C467.173,132.907 467.173,132.907 467.173,132.907C465.702,132.82 464.386,133.466 463.371,134.38C462.34,135.309 461.786,136.686 461.718,138.182C461.718,138.182 461.718,138.182 461.718,138.182C461.715,139.764 461.637,142.04 461.705,144.436C461.802,147.879 462.121,151.55 462.254,153.818C462.254,153.818 462.254,153.818 462.254,153.818C462.361,155.158 462.843,156.391 463.791,157.199C464.713,157.985 465.871,158.567 467.173,158.464L478.772,157.423C479.746,157.327 480.627,156.949 481.202,156.247C481.749,155.58 482.131,154.745 482.039,153.818L481.078,144.446C481.078,144.378 481.022,144.323 480.954,144.323C480.886,144.323 480.831,144.378 480.831,144.446L479.87,153.818C479.842,154.103 479.634,154.306 479.428,154.474C479.256,154.616 479.011,154.6 478.772,154.577L467.741,153.587ZM467.516,153.567C467.499,153.553 467.483,153.538 467.469,153.523C467.405,153.447 467.28,153.545 467.174,153.536L467.516,153.567Z"/>
                </g>
                <g transform="matrix(-0.565107,0,0,0.359184,760.041,110.108)">
                    <path d="M696.051,104.787L689.41,104.46C689.41,104.46 689.404,104.425 689.404,104.425C689.404,104.425 689.151,108 689.151,108C689.151,108.101 689.063,108.183 688.954,108.183C688.846,108.183 688.758,108.101 688.758,108L688.504,104.425C688.489,104.189 688.599,103.978 688.755,103.814C688.914,103.646 689.151,103.555 689.41,103.54L696.445,103.194C696.827,103.18 697.167,103.335 697.427,103.559C697.689,103.786 697.834,104.115 697.848,104.475C697.848,104.475 697.848,104.475 697.848,104.475C697.867,105.178 697.933,106.603 697.952,108.38C697.958,108.994 697.955,109.65 697.941,110.333C697.928,110.965 697.903,111.62 697.87,112.285C697.773,114.257 697.64,116.308 697.502,118.143C697.254,121.449 696.991,124 696.991,124C696.991,124.019 696.975,124.035 696.954,124.035C696.934,124.035 696.917,124.019 696.917,124C696.917,124 696.655,121.449 696.407,118.143C696.269,116.308 696.136,114.257 696.038,112.285C696.005,111.62 695.981,110.965 695.968,110.333C695.953,109.65 695.95,108.994 695.957,108.38C695.973,106.835 696.025,105.556 696.051,104.787Z"/>
                </g>
                <g transform="matrix(-0.565107,0,0,0.359184,760.041,110.108)">
                    <path d="M695.374,101.76C695.076,101.799 694.696,101.86 694.259,101.898C694.006,101.92 693.739,101.937 693.464,101.937C692.967,101.937 692.452,101.903 691.976,101.864C691.413,101.817 690.917,101.742 690.552,101.697L690.19,103.626C690.191,103.727 690.103,103.81 689.995,103.81C689.887,103.811 689.798,103.729 689.797,103.628L689.364,101.475C689.338,101.333 689.384,101.197 689.417,101.059C689.451,100.916 689.552,100.804 689.644,100.683C689.74,100.559 689.883,100.489 690.021,100.412C690.161,100.333 690.327,100.32 690.493,100.299C690.863,100.258 691.385,100.179 691.982,100.133C692.459,100.097 692.974,100.067 693.471,100.07C693.746,100.072 694.013,100.09 694.265,100.114C694.741,100.158 695.149,100.229 695.456,100.27C695.627,100.298 695.799,100.309 695.943,100.394C696.083,100.478 696.233,100.548 696.33,100.678C696.424,100.804 696.531,100.92 696.563,101.068C696.594,101.212 696.643,101.352 696.609,101.499C696.609,101.499 695.96,104 695.96,104C695.96,104.02 695.943,104.035 695.923,104.035C695.903,104.034 695.886,104.019 695.886,104L695.374,101.76ZM695.353,101.671L695.298,101.626L695.31,101.483L695.353,101.671ZM690.566,101.623L690.595,101.468L690.612,101.584L690.566,101.623Z"/>
                </g>
                <g transform="matrix(-0.565107,0,0,0.359184,760.041,110.04)">
                    <path d="M692.171,100.992C692.171,100.992 692.305,100.482 692.436,99.791C692.484,99.537 692.528,99.269 692.562,98.991C692.683,97.99 692.733,96.99 692.733,96.99C692.733,96.867 692.84,96.767 692.972,96.767C693.103,96.767 693.21,96.867 693.21,96.99C693.21,96.99 693.26,97.99 693.381,98.991C693.415,99.269 693.46,99.537 693.508,99.791C693.638,100.482 693.772,100.992 693.772,100.992C693.772,101.405 693.414,101.74 692.972,101.74C692.53,101.74 692.171,101.405 692.171,100.992Z"/>
                </g>
                <g transform="matrix(0.565107,0,0,0.359184,-17.5934,110.108)">
                    <path d="M700.797,105.763C701.182,106.341 701.963,107.519 702.873,108.829C703.372,109.548 703.906,110.303 704.435,111.017C704.913,111.662 705.385,112.271 705.803,112.795C705.946,112.974 706.083,113.143 706.211,113.3C705.989,113.397 705.78,113.522 705.611,113.694C705.443,113.865 705.303,114.056 705.22,114.27C705.138,114.481 705.085,114.705 705.096,114.935C705.137,115.611 705.188,116.587 705.261,117.654C705.458,120.519 705.749,124 705.749,124L706.142,124C706.142,124 706.428,120.519 706.621,117.654C706.694,116.586 706.743,115.61 706.783,114.934C706.783,114.934 706.853,114.853 706.853,114.853L706.94,114.852C706.94,114.852 708,114.885 708,114.885C708.357,114.885 708.685,114.697 708.846,114.398C709.007,114.1 708.974,113.742 708.762,113.474C708.762,113.474 708.225,112.725 707.409,111.686C706.995,111.159 706.51,110.559 705.989,109.943C705.414,109.262 704.796,108.564 704.207,107.908C702.914,106.469 701.76,105.252 701.447,104.913C701.391,104.852 701.333,104.791 701.256,104.756C701.181,104.722 701.103,104.687 701.017,104.682C700.931,104.678 700.846,104.674 700.767,104.7C700.688,104.727 700.608,104.753 700.546,104.808L696.932,107.973L696.977,108.027L700.797,105.763ZM701.079,105.596C701.104,105.584 701.128,105.567 701.152,105.552L701.079,105.596ZM700.614,105.488L700.614,105.488L700.614,105.488Z"/>
                </g>
                <g transform="matrix(-0.565107,0,0,0.359184,763.332,110.108)">
                    <path d="M696.521,124C696.521,124 696.212,118.239 696.016,113.624C695.939,111.83 695.891,110.213 695.853,109.177C695.85,109.078 695.789,108.997 695.718,108.934C695.651,108.875 695.555,108.857 695.457,108.859C694.278,108.877 692.427,108.929 690.567,108.932C688.728,108.936 686.883,108.892 685.677,108.878C685.554,108.875 685.434,108.899 685.35,108.972C685.26,109.051 685.184,109.153 685.179,109.278C685.1,110.9 684.981,113.82 684.821,116.639C684.607,120.423 684.346,124 684.346,124L684.272,124C684.272,124 684.011,120.423 683.797,116.639C683.638,113.82 683.518,110.9 683.439,109.278C683.419,108.696 683.675,108.17 684.07,107.776C684.471,107.376 685.044,107.141 685.677,107.122C685.677,107.122 685.677,107.122 685.677,107.122C686.883,107.108 688.728,107.064 690.567,107.068C692.427,107.071 694.278,107.123 695.457,107.141C695.457,107.141 695.457,107.141 695.457,107.141C696.055,107.157 696.598,107.379 696.979,107.756C697.355,108.127 697.598,108.626 697.582,109.177C697.582,109.177 697.582,109.177 697.582,109.177C697.544,110.213 697.496,111.83 697.42,113.624C697.223,118.239 696.914,124 696.914,124L696.521,124Z"/>
                </g>
                <g transform="matrix(0.592268,0,0,0.376448,-36.2142,107.968)">
                    <path d="M677.84,124.175C677.84,124.175 678.721,124.274 680.202,124.405C681.166,124.49 682.366,124.595 683.744,124.685C684.664,124.745 685.654,124.801 686.696,124.837C687.647,124.871 688.637,124.891 689.648,124.891C690.349,124.891 691.06,124.873 691.773,124.852C693.443,124.802 695.121,124.726 696.732,124.646C702.517,124.359 707.358,124.033 707.358,124.033C707.378,124.033 707.393,124.018 707.393,124C707.393,123.982 707.378,123.967 707.358,123.967C707.358,123.967 702.517,123.641 696.732,123.354C695.121,123.274 693.443,123.198 691.773,123.148C691.06,123.127 690.349,123.109 689.648,123.109C688.637,123.109 687.647,123.129 686.696,123.163C685.654,123.199 684.664,123.255 683.744,123.315C682.366,123.405 681.166,123.51 680.202,123.595C678.721,123.726 677.84,123.825 677.84,123.825C677.737,123.825 677.653,123.904 677.653,124C677.653,124.096 677.737,124.175 677.84,124.175Z"/>
                </g>
            </g>
        </g>
    </g>
</svg>
