<?xml version="1.0" encoding="UTF-8" standalone="no"?>
<!DOCTYPE svg PUBLIC "-//W3C//DTD SVG 1.1//EN" "http://www.w3.org/Graphics/SVG/1.1/DTD/svg11.dtd">
<svg width="100%" height="100%" viewBox="0 0 31 32" version="1.1" xmlns="http://www.w3.org/2000/svg" xmlns:xlink="http://www.w3.org/1999/xlink" xml:space="preserve" xmlns:serif="http://www.serif.com/" style="fill-rule:evenodd;clip-rule:evenodd;stroke-linejoin:round;stroke-miterlimit:2;">
    <g transform="matrix(1,0,0,1,-1141,-1596)">
        <g id="ic_account_groups_mortgages" transform="matrix(1.00126,0,0,1.00058,100.911,-0.332321)">
            <rect x="1039.01" y="1595.52" width="29.975" height="31.336" style="fill:none;"/>
            <g transform="matrix(1.76735,0,0,2.97977,143.118,1164.17)">
                <g transform="matrix(0.585178,0,0,0.347316,109.772,88.8287)">
                    <path d="M679.043,176.134C679.043,176.134 683.803,171.89 687.878,168.146C688.924,167.185 689.919,166.254 690.778,165.438C691.685,164.578 692.441,163.85 692.947,163.359C693.447,163.854 694.2,164.59 695.109,165.453C695.968,166.268 696.973,167.186 698.023,168.142C699.188,169.202 700.407,170.296 701.565,171.322C704.477,173.902 706.947,176.025 706.947,176.025C706.961,176.039 706.983,176.039 706.997,176.025C707.011,176.011 707.011,175.989 706.997,175.975C706.997,175.975 704.87,173.509 702.286,170.601C701.258,169.444 700.162,168.227 699.1,167.063C698.142,166.015 697.222,165.012 696.406,164.154C694.801,162.467 693.636,161.322 693.636,161.322C693.259,160.946 692.65,160.946 692.274,161.321C692.274,161.321 691.122,162.482 689.512,164.168C688.694,165.025 687.76,166.016 686.795,167.059C683.037,171.121 678.776,175.866 678.776,175.866C678.702,175.94 678.701,176.06 678.775,176.134C678.849,176.208 678.969,176.208 679.043,176.134Z"/>
                </g>
                <g transform="matrix(6.70401e-17,-0.347316,1.09485,2.12669e-17,315.459,399.885)">
                    <path d="M705.608,189.997C705.608,189.997 705.615,187.186 705.533,183.997C705.426,179.82 705.185,174.998 705.185,174.998C705.185,174.93 705.082,174.875 704.954,174.875C704.827,174.875 704.724,174.93 704.724,174.998C704.724,174.998 704.482,179.82 704.376,183.997C704.294,187.186 704.3,189.997 704.3,189.997C704.3,190.19 704.593,190.346 704.954,190.346C705.315,190.346 705.608,190.19 705.608,189.997Z"/>
                </g>
                <g transform="matrix(0.437242,0,0,0.278736,213.468,100.676)">
                    <path d="M701.852,164.892L703.071,164.876C703.156,165.777 703.284,167.243 703.439,168.675C703.667,170.771 703.931,172.748 703.931,172.748C703.931,172.766 703.947,172.781 703.967,172.781C703.987,172.781 704.003,172.766 704.003,172.747C704.003,172.747 704.245,170.769 704.451,168.671C704.606,167.081 704.727,165.451 704.8,164.595C704.827,164.2 704.637,163.848 704.375,163.574C704.108,163.295 703.709,163.148 703.277,163.127L701.601,163.103C701.158,163.116 700.752,163.272 700.474,163.552C700.199,163.83 700.01,164.195 700.032,164.602C700.032,164.602 700.032,164.602 700.032,164.602C700.068,165.001 700.106,165.556 700.173,166.16C700.211,166.502 700.257,166.85 700.31,167.198C700.519,168.562 700.764,169.795 700.764,169.795C700.764,169.893 700.849,169.972 700.954,169.972C701.059,169.972 701.145,169.893 701.145,169.795C701.145,169.795 701.389,168.562 701.598,167.198C701.652,166.85 701.697,166.502 701.735,166.16C701.788,165.691 701.822,165.252 701.852,164.892ZM703.057,164.724L703.046,164.603C703.049,164.644 703.046,164.688 703.057,164.724Z"/>
                </g>
                <g transform="matrix(-0.0921533,0.00537497,-0.00945158,-0.0570837,565.801,153.432)">
                    <path d="M560.301,96.614C564.645,97.154 568.165,99.398 570.7,102.441C572.969,105.166 574.086,108.664 573.715,112.405C573.556,115.878 571.761,118.826 569.36,121.085C566.985,123.319 563.887,124.931 560.301,125.019C556.55,125.226 552.976,124.069 550.31,121.875C547.488,119.552 545.496,116.314 545.383,112.503C545.216,108.327 546.253,104.814 548.549,102.08C550.919,99.258 554.409,97.243 558.963,96.13C559.154,96.099 559.284,95.925 559.252,95.742C559.22,95.558 559.038,95.434 558.846,95.465C553.701,95.874 549.567,97.537 546.472,100.191C543.099,103.083 541.113,107.181 540.461,112.307C539.824,117.746 541.947,122.769 545.523,126.572C549.163,130.442 554.497,132.775 560.301,133.095C566.309,133.243 571.908,131.082 575.814,127.27C579.702,123.476 581.907,118.131 581.644,112.405C581.1,106.918 578.645,102.015 574.474,98.825C570.584,95.85 565.621,94.232 560.301,94.893C559.805,94.893 559.403,95.279 559.403,95.754C559.403,96.229 559.805,96.614 560.301,96.614Z"/>
                </g>
                <g transform="matrix(0.0891324,-0.0148931,0.0261888,0.0552125,464.541,154.645)">
                    <path d="M560.301,96.614C564.645,97.154 568.165,99.398 570.7,102.441C572.969,105.166 574.086,108.664 573.715,112.405C573.556,115.878 571.761,118.826 569.36,121.085C566.985,123.319 563.887,124.931 560.301,125.019C556.55,125.226 552.976,124.069 550.31,121.875C547.488,119.552 545.496,116.314 545.383,112.503C545.216,108.327 546.253,104.814 548.549,102.08C550.919,99.258 554.409,97.243 558.963,96.13C559.154,96.099 559.284,95.925 559.252,95.742C559.22,95.558 559.038,95.434 558.846,95.465C553.701,95.874 549.567,97.537 546.472,100.191C543.099,103.083 541.113,107.181 540.461,112.307C539.824,117.746 541.947,122.769 545.523,126.572C549.163,130.442 554.497,132.775 560.301,133.095C566.309,133.243 571.908,131.082 575.814,127.27C579.702,123.476 581.907,118.131 581.644,112.405C581.1,106.918 578.645,102.015 574.474,98.825C570.584,95.85 565.621,94.232 560.301,94.893C559.805,94.893 559.403,95.279 559.403,95.754C559.403,96.229 559.805,96.614 560.301,96.614Z"/>
                </g>
                <g transform="matrix(0.663576,0.399174,-0.92148,0.543042,241.213,-75.1557)">
                    <path d="M491.37,59.998C491.37,59.998 491.367,58.498 491.303,56.798C491.22,54.569 491.043,51.999 491.043,51.999C491.042,51.936 490.972,51.885 490.885,51.886C490.798,51.886 490.728,51.938 490.728,52.001C490.728,52.001 490.577,54.572 490.515,56.802C490.467,58.503 490.479,60.002 490.479,60.002C490.48,60.181 490.68,60.325 490.926,60.324C491.172,60.323 491.371,60.177 491.37,59.998Z"/>
                </g>
                <g transform="matrix(0.96979,0.00324017,-0.00474029,0.66289,46.4861,113.547)">
                    <path d="M491.26,59.998C491.26,59.998 491.256,58.499 491.206,56.799C491.14,54.57 491.004,51.999 491.004,51.999C491.004,51.943 490.95,51.897 490.885,51.897C490.82,51.898 490.767,51.944 490.767,52.001C490.767,52.001 490.656,54.572 490.612,56.801C490.579,58.502 490.589,60.002 490.589,60.002C490.59,60.162 490.741,60.292 490.926,60.291C491.111,60.29 491.261,60.159 491.26,59.998Z"/>
                </g>
                <g transform="matrix(0.96979,0.00324017,-0.00474029,0.66289,32.4419,113.547)">
                    <path d="M491.26,59.998C491.26,59.998 491.256,58.499 491.206,56.799C491.14,54.57 491.004,51.999 491.004,51.999C491.004,51.943 490.95,51.897 490.885,51.897C490.82,51.898 490.767,51.944 490.767,52.001C490.767,52.001 490.656,54.572 490.612,56.801C490.579,58.502 490.589,60.002 490.589,60.002C490.59,60.162 490.741,60.292 490.926,60.291C491.111,60.29 491.261,60.159 491.26,59.998Z"/>
                </g>
            </g>
        </g>
    </g>
</svg>
