<?xml version="1.0" encoding="UTF-8" standalone="no"?>
<!DOCTYPE svg PUBLIC "-//W3C//DTD SVG 1.1//EN" "http://www.w3.org/Graphics/SVG/1.1/DTD/svg11.dtd">
<svg width="100%" height="100%" viewBox="0 0 32 33" version="1.1" xmlns="http://www.w3.org/2000/svg" xmlns:xlink="http://www.w3.org/1999/xlink" xml:space="preserve" xmlns:serif="http://www.serif.com/" style="fill-rule:evenodd;clip-rule:evenodd;stroke-linejoin:round;stroke-miterlimit:2;">
    <g transform="matrix(1,0,0,1,-683,-1543)">
        <g id="ic_accounts_total_assets" transform="matrix(1.00091,0,0,1.0005,-0.637184,-1.00334)">
            <rect x="684" y="1544.07" width="30.426" height="31.478" style="fill:none;"/>
            <g transform="matrix(1.76798,0,0,2.97999,-137.672,1237.12)">
                <g transform="matrix(0.471494,5.55112e-17,1.11022e-16,0.292063,209.096,75.5611)">
                    <path d="M561.022,95.932C565.711,96.087 569.698,98.064 572.491,101.119C575.194,104.075 576.759,108.056 576.644,112.405C576.592,116.706 574.693,120.554 571.742,123.368C568.797,126.176 564.78,127.972 560.301,128.002C555.802,128.068 551.593,126.384 548.522,123.618C545.383,120.79 543.419,116.841 543.557,112.435C543.678,108.183 545.008,104.47 547.505,101.602C549.945,98.8 553.483,96.805 558.074,95.883C558.124,95.874 558.157,95.828 558.148,95.78C558.139,95.732 558.09,95.7 558.04,95.709C553.29,96.454 549.579,98.368 546.947,101.137C544.181,104.047 542.613,107.904 542.287,112.376C541.947,117.208 543.942,121.625 547.279,124.843C550.602,128.047 555.268,130.039 560.301,130.112C565.414,130.146 570.087,128.209 573.432,124.987C576.772,121.772 578.775,117.296 578.715,112.405C578.589,107.617 576.684,103.289 573.511,100.209C570.357,97.15 565.987,95.318 561.022,95.482C560.893,95.482 560.787,95.583 560.787,95.707C560.787,95.831 560.893,95.932 561.022,95.932Z"/>
                </g>
                <g transform="matrix(0.185879,1.98327e-17,-1.38829e-16,0.115141,363.016,98.5579)">
                    <path d="M564.009,96.427C565.439,96.976 566.678,97.719 567.895,98.559C568.682,99.102 569.389,99.703 570.098,100.327C570.618,100.785 571.101,101.273 571.602,101.748C572.105,102.226 572.617,102.686 573.107,103.179C573.869,103.946 574.598,104.693 575.258,105.555C575.948,106.457 576.573,107.323 577.1,108.345C577.108,108.374 577.139,108.391 577.169,108.384C577.199,108.377 577.217,108.348 577.209,108.319C577.167,107.124 577.015,106.024 576.705,104.89C576.494,104.113 576.202,103.396 575.854,102.671C575.562,102.062 575.226,101.488 574.827,100.939C574.43,100.392 573.972,99.885 573.47,99.425C572.967,98.965 572.414,98.559 571.832,98.193C571.251,97.828 570.656,97.499 570.02,97.226C568.17,96.434 566.222,95.992 564.138,95.869C563.977,95.835 563.818,95.932 563.782,96.086C563.747,96.24 563.848,96.393 564.009,96.427Z"/>
                </g>
                <g transform="matrix(-0.185879,1.98327e-17,1.38829e-16,0.115141,583.525,98.5579)">
                    <path d="M564.138,95.869C566.222,95.992 568.17,96.434 570.02,97.226C570.656,97.499 571.251,97.828 571.832,98.193C572.414,98.559 572.967,98.965 573.47,99.425C573.972,99.885 574.43,100.392 574.827,100.939C575.226,101.488 575.562,102.062 575.854,102.671C576.202,103.396 576.494,104.113 576.705,104.89C577.015,106.024 577.167,107.124 577.209,108.319C577.217,108.348 577.199,108.377 577.169,108.384C577.139,108.391 577.108,108.374 577.1,108.345C576.573,107.323 575.948,106.457 575.258,105.555C574.598,104.693 573.869,103.946 573.107,103.179C572.617,102.686 572.105,102.226 571.602,101.748C571.101,101.273 570.618,100.785 570.098,100.327C569.389,99.703 568.682,99.102 567.895,98.559C566.678,97.719 565.439,96.976 564.009,96.427C563.848,96.393 563.747,96.24 563.782,96.086C563.818,95.932 563.977,95.835 564.138,95.869Z"/>
                </g>
                <g transform="matrix(0.218139,0,0,0.119831,315.855,88.3617)">
                    <ellipse cx="721.63" cy="166" rx="1.851" ry="2"/>
                </g>
                <g transform="matrix(0.403796,0,0,0.285803,171.934,62.8422)">
                    <rect x="745.906" y="159.062" width="0.704" height="2.034"/>
                </g>
                <g transform="matrix(0.403576,0,0,0.213848,284.017,69.1731)">
                    <path d="M479.207,179.975L455.817,179.428C455.633,179.424 455.452,179.465 455.284,179.539C455.115,179.614 454.961,179.729 454.827,179.872C454.693,180.017 454.59,180.191 454.517,180.379C454.444,180.567 454.407,180.772 454.403,180.982L454.403,180.982C454.396,181.422 454.556,181.819 454.808,182.113C455.063,182.409 455.421,182.587 455.817,182.595C455.817,182.595 465.862,182.71 465.862,182.71C466.229,182.71 466.527,182.375 466.527,181.964C466.527,181.553 466.229,181.218 465.862,181.218L455.817,181.333C455.729,181.335 455.646,181.304 455.587,181.24C455.526,181.174 455.48,181.085 455.478,180.982L455.478,180.982C455.477,180.931 455.482,180.88 455.498,180.834C455.515,180.786 455.536,180.74 455.568,180.703C455.601,180.665 455.638,180.631 455.68,180.61C455.723,180.589 455.769,180.573 455.817,180.572C455.817,180.572 479.207,180.028 479.207,180.028C479.22,180.028 479.231,180.016 479.231,180.002C479.231,179.987 479.22,179.975 479.207,179.975Z"/>
                </g>
                <g transform="matrix(0.403576,0,0,0.213848,284.017,69.1731)">
                    <path d="M472.07,182.716C472.07,182.716 475.182,182.707 478.075,182.61C479.657,182.558 481.169,182.458 482.079,182.414C482.079,182.414 482.079,182.414 482.079,182.414C482.246,182.405 482.41,182.367 482.558,182.288C482.705,182.211 482.841,182.108 482.952,181.971C483.062,181.836 483.151,181.684 483.205,181.515C483.258,181.349 483.289,181.173 483.281,180.993C483.281,180.993 483.28,180.972 483.28,180.972C483.273,180.795 483.24,180.621 483.173,180.464C483.107,180.309 483.02,180.164 482.904,180.047C482.789,179.932 482.661,179.838 482.518,179.782C482.378,179.726 482.229,179.695 482.078,179.704C482.078,179.704 479.673,179.845 479.673,179.845C479.595,179.845 479.531,179.916 479.531,180.004C479.532,180.091 479.595,180.162 479.673,180.162L482.078,180.298C482.157,180.302 482.232,180.33 482.302,180.367C482.37,180.403 482.428,180.459 482.479,180.523C482.529,180.585 482.562,180.659 482.586,180.736C482.61,180.811 482.615,180.891 482.611,180.972L482.61,180.993C482.607,181.071 482.584,181.144 482.555,181.214C482.526,181.281 482.481,181.337 482.431,181.388C482.383,181.437 482.324,181.468 482.263,181.492C482.205,181.515 482.142,181.518 482.079,181.514C481.169,181.47 479.657,181.37 478.075,181.318C475.182,181.221 472.07,181.212 472.07,181.212C471.699,181.212 471.399,181.549 471.399,181.964C471.399,182.379 471.699,182.716 472.07,182.716Z"/>
                </g>
                <g transform="matrix(0.450432,0,0,0.239662,117.9,42.4778)">
                    <path d="M776.708,273.752L776.129,284.608C776.097,285.257 776.337,285.843 776.698,286.291C777.068,286.749 777.61,287.009 778.206,287.042C779.394,287.099 781.324,287.217 783.578,287.297C785.252,287.356 787.1,287.418 788.951,287.423C790.413,287.427 791.874,287.395 793.249,287.345C795.959,287.247 798.321,287.069 799.697,286.994C799.975,286.974 800.247,286.917 800.492,286.783C800.733,286.65 800.962,286.485 801.143,286.255C801.321,286.029 801.471,285.781 801.556,285.502C801.64,285.227 801.694,284.938 801.677,284.643C801.677,284.643 801.001,274.803 801.001,274.803C801.001,274.774 800.98,274.751 800.954,274.751C800.929,274.751 800.908,274.774 800.908,274.803L800.232,284.643C800.227,284.72 800.191,284.788 800.161,284.856C800.133,284.92 800.079,284.963 800.03,285.011C799.984,285.056 799.922,285.069 799.865,285.09C799.813,285.11 799.756,285.095 799.699,285.09C799.699,285.09 799.699,285.09 799.699,285.09C798.324,285.011 795.962,284.825 793.252,284.718C791.878,284.664 790.416,284.628 788.954,284.627C787.104,284.626 785.255,284.682 783.581,284.736C781.327,284.808 779.397,284.92 778.208,284.973C778.11,284.978 778.011,284.971 777.944,284.903C777.866,284.825 777.786,284.733 777.779,284.608L777.2,273.752C777.2,273.601 777.09,273.478 776.954,273.478C776.818,273.478 776.708,273.601 776.708,273.752Z"/>
                </g>
                <g transform="matrix(-0.450432,1.02482e-17,1.9261e-17,-0.155979,828.641,150.365)">
                    <path d="M776.708,274.482L776.564,277.412C776.442,280.051 776.992,282.484 777.925,284.343C778.907,286.298 780.348,287.493 781.967,287.69C783.038,287.788 784.218,287.924 785.458,288.01C786.591,288.088 787.769,288.16 788.948,288.172C789.887,288.182 790.826,288.159 791.741,288.1C793.236,288.005 794.658,287.802 795.93,287.672C796.714,287.566 797.472,287.252 798.157,286.646C798.824,286.055 799.43,285.278 799.921,284.271C800.39,283.287 800.751,282.198 800.96,281.004C801.161,279.852 801.246,278.654 801.173,277.435C801.173,277.435 801.001,274.803 801.001,274.803C801.001,274.759 800.98,274.723 800.954,274.723C800.929,274.723 800.908,274.759 800.908,274.803L800.736,277.435C800.672,278.51 800.477,279.52 800.184,280.453C799.903,281.347 799.513,282.115 799.045,282.769C798.602,283.402 798.089,283.828 797.549,284.122C797.031,284.404 796.484,284.477 795.932,284.4C795.932,284.4 795.932,284.4 795.932,284.4C794.66,284.266 793.238,284.059 791.743,283.959C790.828,283.897 789.889,283.871 788.951,283.878C787.771,283.886 786.593,283.954 785.46,284.029C784.22,284.111 783.04,284.243 781.969,284.338C780.812,284.474 779.734,283.843 778.92,282.64C778.048,281.352 777.443,279.535 777.345,277.412C777.345,277.412 777.2,274.482 777.2,274.482C777.2,274.25 777.09,274.06 776.954,274.06C776.818,274.06 776.708,274.25 776.708,274.482Z"/>
                </g>
                <g transform="matrix(0.276885,0,0,0.196733,254.821,54.1544)">
                    <path d="M784.754,272L784.243,276.61C784.155,277.71 784.633,278.728 785.448,279.492C786.286,280.277 787.518,280.746 788.874,280.8C788.874,280.8 788.877,280.8 788.877,280.8C789.548,280.797 790.21,280.699 790.81,280.474C791.403,280.251 791.942,279.93 792.386,279.518C792.81,279.107 793.153,278.65 793.346,278.143C793.534,277.649 793.623,277.133 793.562,276.607L792.992,272.62C792.992,272.602 792.975,272.588 792.954,272.588C792.934,272.588 792.917,272.602 792.917,272.62L792.347,276.607C792.304,276.98 792.147,277.327 791.942,277.652C791.746,277.963 791.465,278.228 791.136,278.458C790.826,278.684 790.456,278.831 790.075,278.943C789.704,279.053 789.31,279.109 788.908,279.097C788.908,279.097 788.905,279.096 788.905,279.096C788.077,279.108 787.324,278.848 786.759,278.413C786.162,277.955 785.724,277.338 785.666,276.61C785.666,276.61 785.155,272 785.155,272C785.155,271.908 785.065,271.833 784.954,271.833C784.844,271.833 784.754,271.908 784.754,272Z"/>
                </g>
                <g transform="matrix(0.403796,0,0,0.243104,154.732,41.5666)">
                    <path d="M778.514,270.51L778.513,270.51L778.902,270.523C779.551,270.544 780.909,270.599 782.634,270.652C783.581,270.681 784.637,270.71 785.747,270.732C786.755,270.753 787.807,270.771 788.859,270.777C789.555,270.781 790.251,270.779 790.934,270.769C791.644,270.76 792.34,270.742 793.009,270.721C796.5,270.611 799.234,270.475 799.234,270.475L798.961,270.363C798.963,270.364 799.589,270.566 799.618,270.108C799.621,270.058 799.628,269.955 799.63,269.808C799.635,269.251 799.588,268.065 799.145,266.949C798.767,265.998 798.115,265.097 796.964,264.696C796.951,264.69 796.936,264.697 796.93,264.709C796.925,264.722 796.931,264.737 796.944,264.743C797.551,265.038 797.977,265.474 798.28,265.972C799.044,267.228 798.982,268.882 798.907,269.646L798.901,269.702C798.07,269.661 795.778,269.553 793.01,269.462C792.341,269.439 791.645,269.421 790.935,269.41C790.252,269.4 789.556,269.397 788.86,269.399C787.808,269.404 786.756,269.422 785.747,269.441C784.637,269.463 783.581,269.492 782.634,269.521C780.941,269.575 779.589,269.638 778.88,269.676C778.812,268.174 779.003,267.179 779.314,266.494C779.807,265.41 780.584,265.118 781.024,264.836C781.089,264.798 781.111,264.715 781.073,264.651C781.035,264.587 780.95,264.565 780.885,264.603C780.374,264.867 779.503,265.126 778.856,266.267C778.417,267.04 778.092,268.224 778.065,270.109C778.068,270.242 778.137,270.366 778.25,270.44C778.328,270.493 778.422,270.516 778.514,270.51Z"/>
                </g>
                <g transform="matrix(0.679946,0,0,0.403563,-85.6235,-0.543157)">
                    <path d="M823.191,259.283C823.191,259.28 823.19,259.276 823.187,259.273C823.179,259.264 823.162,259.246 823.138,259.219C823.048,259.123 822.864,258.921 822.645,258.693C822.525,258.568 822.398,258.438 822.271,258.313C822.16,258.202 822.052,258.097 821.952,258.006C821.885,257.945 821.822,257.89 821.767,257.844L821.87,257.767C821.985,257.679 822.12,257.572 822.259,257.459C822.715,257.087 823.21,256.659 823.21,256.659C823.229,256.646 823.234,256.62 823.221,256.602C823.208,256.583 823.183,256.579 823.164,256.591C823.164,256.591 822.588,256.902 822.077,257.196C821.922,257.286 821.775,257.374 821.651,257.45C821.528,257.526 821.43,257.59 821.372,257.627C821.339,257.649 821.313,257.68 821.293,257.714C821.273,257.748 821.263,257.787 821.261,257.827C821.258,257.867 821.267,257.906 821.282,257.943C821.297,257.979 821.323,258.011 821.353,258.037C821.353,258.037 821.353,258.037 821.353,258.037C821.42,258.09 821.542,258.194 821.699,258.312C821.807,258.393 821.931,258.479 822.061,258.568C822.207,258.669 822.359,258.769 822.504,258.863C822.877,259.105 823.187,259.292 823.187,259.292C823.186,259.293 823.19,259.293 823.193,259.289C823.196,259.286 823.195,259.281 823.192,259.279L823.191,259.283Z"/>
                </g>
            </g>
        </g>
    </g>
</svg>
