<?xml version="1.0" encoding="UTF-8" standalone="no"?>
<!DOCTYPE svg PUBLIC "-//W3C//DTD SVG 1.1//EN" "http://www.w3.org/Graphics/SVG/1.1/DTD/svg11.dtd">
<svg width="100%" height="100%" viewBox="0 0 32 32" version="1.1" xmlns="http://www.w3.org/2000/svg" xmlns:xlink="http://www.w3.org/1999/xlink" xml:space="preserve" xmlns:serif="http://www.serif.com/" style="fill-rule:evenodd;clip-rule:evenodd;stroke-linejoin:round;stroke-miterlimit:2;">
    <g transform="matrix(1,0,0,1,-718,-1596)">
        <g id="ic_account_groups_foreign_assets" transform="matrix(0.875551,0,0,0.874222,96.4155,203.672)">
            <rect x="710.199" y="1592.77" width="35.817" height="36.182" style="fill:none;"/>
            <g transform="matrix(2.0211,0,0,3.41045,56.1125,1097)">
                <g transform="matrix(-0.229941,-0.147887,0.260051,-0.142436,429.457,248.076)">
                    <path d="M560.301,96.067C564.922,96.276 568.992,98.267 571.9,101.292C574.708,104.212 576.39,108.127 576.236,112.405C576.166,116.591 574.287,120.315 571.412,123.052C568.546,125.78 564.656,127.548 560.301,127.587C555.904,127.675 551.797,126.055 548.788,123.368C545.703,120.613 543.746,116.761 543.818,112.441C543.876,107.975 545.28,104.276 547.889,101.479C550.472,98.71 554.2,96.821 558.926,95.919C558.996,95.907 559.043,95.844 559.031,95.777C559.019,95.71 558.953,95.665 558.883,95.676C553.942,96.323 549.979,98.083 547.132,100.792C544.132,103.646 542.381,107.556 542.026,112.37C541.681,117.284 543.685,121.784 547.045,125.078C550.41,128.376 555.156,130.424 560.301,130.527C565.538,130.574 570.338,128.606 573.762,125.304C577.178,122.008 579.207,117.412 579.123,112.405C578.946,107.489 576.777,103.067 573.274,99.975C569.873,96.972 565.28,95.215 560.301,95.44C560.12,95.44 559.974,95.581 559.974,95.754C559.974,95.927 560.12,96.067 560.301,96.067Z"/>
                </g>
                <g transform="matrix(0.21319,2.27468e-17,-1.59227e-16,0.132059,208.272,141.338)">
                    <path d="M564.017,96.391C565.456,96.911 566.727,97.627 567.958,98.445C568.759,98.978 569.489,99.57 570.209,100.19C570.74,100.648 571.235,101.136 571.74,101.617C572.248,102.101 572.759,102.574 573.245,103.079C573.997,103.858 574.711,104.634 575.351,105.512C576.013,106.422 576.612,107.316 577.107,108.343C577.114,108.368 577.141,108.384 577.167,108.377C577.193,108.371 577.209,108.346 577.202,108.32C577.128,107.143 576.946,106.044 576.613,104.933C576.385,104.171 576.083,103.461 575.726,102.752C575.425,102.155 575.084,101.59 574.684,101.052C574.286,100.514 573.831,100.015 573.334,99.559C572.838,99.103 572.293,98.698 571.721,98.33C571.151,97.963 570.563,97.632 569.939,97.353C568.123,96.54 566.188,96.066 564.13,95.905C563.99,95.875 563.851,95.96 563.82,96.094C563.789,96.228 563.877,96.361 564.017,96.391Z"/>
                </g>
                <g transform="matrix(-0.21319,2.27468e-17,1.59227e-16,0.132059,461.181,141.338)">
                    <path d="M564.13,95.905C566.188,96.066 568.123,96.54 569.939,97.353C570.563,97.632 571.151,97.963 571.721,98.33C572.293,98.698 572.838,99.103 573.334,99.559C573.831,100.015 574.286,100.514 574.684,101.052C575.084,101.59 575.425,102.155 575.726,102.752C576.083,103.461 576.385,104.171 576.613,104.933C576.946,106.044 577.128,107.143 577.202,108.32C577.209,108.346 577.193,108.371 577.167,108.377C577.141,108.384 577.114,108.368 577.107,108.343C576.612,107.316 576.013,106.422 575.351,105.512C574.711,104.634 573.997,103.858 573.245,103.079C572.759,102.574 572.248,102.101 571.74,101.617C571.235,101.136 570.74,100.648 570.209,100.19C569.489,99.57 568.759,98.978 567.958,98.445C566.727,97.627 565.456,96.911 564.017,96.391C563.877,96.361 563.789,96.228 563.82,96.094C563.851,95.96 563.99,95.875 564.13,95.905Z"/>
                </g>
                <g transform="matrix(0.25019,0,0,0.137438,154.182,129.644)">
                    <ellipse cx="721.63" cy="166" rx="1.851" ry="2"/>
                </g>
                <g transform="matrix(0.463126,0,0,0.327797,-10.8854,100.375)">
                    <rect x="745.906" y="159.062" width="0.704" height="2.034"/>
                </g>
                <g transform="matrix(0.462873,0,0,0.245269,117.665,107.636)">
                    <path d="M479.207,179.979L467.412,179.734C467.28,179.733 467.173,179.853 467.173,180.001C467.173,180.149 467.28,180.268 467.412,180.268L479.207,180.025C479.218,180.025 479.228,180.015 479.228,180.002C479.228,179.989 479.218,179.979 479.207,179.979Z"/>
                </g>
                <g transform="matrix(0.390933,-9.30079e-13,-1.39973e-12,0.245269,150.959,107.636)">
                    <path d="M464.907,182.613L466.281,182.613C466.66,182.613 466.967,182.322 466.967,181.964C466.967,181.606 466.66,181.315 466.281,181.315L464.907,181.315C464.528,181.315 464.221,181.606 464.221,181.964C464.221,182.322 464.528,182.613 464.907,182.613Z"/>
                </g>
                <g transform="matrix(0.462873,0,0,0.245269,117.665,107.636)">
                    <path d="M472.328,182.619C472.328,182.619 475.384,182.612 478.216,182.529C479.775,182.483 481.263,182.397 482.141,182.359C482.457,182.344 482.742,182.2 482.94,181.958C483.134,181.722 483.258,181.409 483.244,181.063L483.238,180.902C483.232,180.74 483.202,180.581 483.142,180.437C483.082,180.295 483.002,180.163 482.897,180.055C482.793,179.949 482.674,179.863 482.544,179.81C482.416,179.759 482.28,179.73 482.141,179.737L479.673,179.865C479.605,179.865 479.55,179.927 479.55,180.004C479.55,180.08 479.605,180.142 479.673,180.142L482.141,180.265C482.216,180.268 482.287,180.293 482.353,180.328C482.418,180.362 482.474,180.414 482.523,180.474C482.571,180.532 482.603,180.603 482.627,180.676C482.65,180.748 482.656,180.824 482.653,180.902C482.653,180.902 482.647,181.063 482.647,181.063C482.641,181.216 482.573,181.347 482.48,181.442C482.392,181.533 482.27,181.575 482.141,181.569C481.263,181.531 479.775,181.445 478.216,181.399C475.384,181.316 472.328,181.309 472.328,181.309C472.005,181.309 471.743,181.602 471.743,181.964C471.743,182.326 472.005,182.619 472.328,182.619Z"/>
                </g>
                <g transform="matrix(0.516614,0,0,0.274875,-72.8586,77.0183)">
                    <path d="M776.74,275.604L776.293,284.787C776.269,285.334 776.471,285.828 776.776,286.204C777.088,286.59 777.543,286.812 778.046,286.841C779.379,286.901 781.799,287.039 784.589,287.135C785.982,287.183 787.466,287.228 788.951,287.239C790.436,287.25 791.92,287.239 793.314,287.199C796.104,287.121 798.522,286.953 799.858,286.889C800.102,286.875 800.342,286.825 800.559,286.708C800.772,286.593 800.974,286.447 801.135,286.246C801.293,286.047 801.426,285.828 801.502,285.582C801.578,285.339 801.626,285.084 801.612,284.822L800.995,274.803C800.995,274.778 800.977,274.758 800.954,274.758C800.932,274.758 800.914,274.778 800.914,274.803L800.297,284.822C800.293,284.886 800.264,284.942 800.239,284.998C800.216,285.05 800.172,285.086 800.132,285.126C800.095,285.163 800.044,285.174 799.997,285.192C799.954,285.209 799.907,285.199 799.86,285.196C799.86,285.196 799.86,285.196 799.86,285.196C798.525,285.128 796.107,284.953 793.317,284.865C791.924,284.821 790.439,284.805 788.954,284.811C787.469,284.817 785.985,284.857 784.592,284.901C781.801,284.988 779.382,285.118 778.048,285.174C777.945,285.179 777.843,285.166 777.772,285.094C777.694,285.015 777.621,284.915 777.615,284.787L777.169,275.604C777.169,275.472 777.073,275.365 776.954,275.365C776.836,275.365 776.74,275.472 776.74,275.604Z"/>
                </g>
                <g transform="matrix(-0.516614,1.1754e-17,2.2091e-17,-0.178897,742.312,200.758)">
                    <path d="M776.74,274.932L776.574,278.514C776.47,280.83 776.955,282.968 777.779,284.594C778.641,286.297 779.908,287.333 781.325,287.489C781.325,287.489 786.412,287.857 786.412,287.857C787.003,287.858 787.483,287.036 787.483,286.023C787.484,285.01 787.005,284.187 786.414,284.186L781.326,284.537C780.324,284.644 779.392,284.081 778.69,283.033C777.94,281.915 777.417,280.347 777.335,278.514C777.335,278.514 777.169,274.932 777.169,274.932C777.169,274.729 777.073,274.564 776.954,274.564C776.836,274.564 776.74,274.729 776.74,274.932Z"/>
                </g>
                <g transform="matrix(0.317567,0,0,0.22564,84.1804,90.4105)">
                    <path d="M784.78,273.5L784.425,276.875C784.338,277.86 784.761,278.772 785.483,279.462C786.232,280.178 787.336,280.608 788.559,280.67C788.559,280.67 789.211,280.691 789.211,280.691C789.821,280.697 790.425,280.612 790.975,280.414C791.521,280.219 792.017,279.926 792.429,279.555C792.825,279.182 793.145,278.764 793.329,278.3C793.509,277.846 793.596,277.369 793.547,276.884L792.987,272.62C792.987,272.605 792.972,272.592 792.954,272.592C792.936,272.592 792.921,272.605 792.921,272.62L792.362,276.884C792.328,277.223 792.191,277.541 792.009,277.838C791.835,278.124 791.585,278.373 791.287,278.586C791.005,278.798 790.669,278.942 790.32,279.05C789.976,279.157 789.612,279.22 789.238,279.214L788.585,279.218C787.8,279.238 787.079,279.003 786.538,278.595C785.962,278.161 785.545,277.571 785.484,276.875C785.484,276.875 785.129,273.5 785.129,273.5C785.129,273.419 785.051,273.354 784.954,273.354C784.858,273.354 784.78,273.419 784.78,273.5Z"/>
                </g>
                <g transform="matrix(0.463126,0,0,0.278823,-30.6152,75.9732)">
                    <path d="M798.945,269.75C798.254,269.711 796.394,269.613 794.056,269.55C792.476,269.507 790.677,269.509 788.878,269.487C788.541,269.487 788.268,269.756 788.267,270.088C788.267,270.42 788.54,270.69 788.877,270.69C790.676,270.67 792.475,270.674 794.056,270.634C797.033,270.558 799.234,270.427 799.234,270.427L798.996,270.329C798.998,270.33 799.543,270.503 799.569,270.103C799.573,270.053 799.579,269.951 799.581,269.806C799.588,269.251 799.547,268.071 799.115,266.958C798.747,266.009 798.105,265.107 796.963,264.699C796.952,264.694 796.938,264.699 796.934,264.711C796.929,264.722 796.934,264.735 796.946,264.74C797.77,265.131 798.272,265.78 798.575,266.498C799.079,267.693 799.015,269.069 798.949,269.708L798.945,269.75Z"/>
                </g>
                <g transform="matrix(0.60435,0,0,0.358694,-165.934,39.7897)">
                    <path d="M827.754,304.61C827.994,304.94 828.198,305.563 828.24,306.485C828.281,307.392 828.178,308.554 827.768,310.005C827.765,310.014 827.77,310.024 827.779,310.027C827.788,310.03 827.798,310.025 827.801,310.016C828.432,308.598 828.718,307.427 828.794,306.495C828.869,305.582 828.734,304.898 828.549,304.443C828.459,304.221 828.347,304.052 828.239,303.925C828.06,303.717 827.835,303.681 827.569,303.759C827.342,303.827 827.033,304.087 826.694,304.282C826.498,304.395 826.275,304.469 826.045,304.247C825.707,303.691 825.466,303.175 825.289,302.7C825.049,302.056 824.931,301.491 824.9,300.999C824.813,299.581 825.399,298.807 825.399,298.807C825.447,298.752 825.468,298.679 825.454,298.607C825.441,298.535 825.396,298.474 825.332,298.44C825.025,298.3 824.561,297.94 824.231,297.55C823.992,297.268 823.814,296.978 823.846,296.743C823.855,296.694 823.823,296.645 823.773,296.636C823.723,296.626 823.675,296.659 823.666,296.708C823.595,296.984 823.743,297.362 823.988,297.732C824.236,298.106 824.583,298.465 824.878,298.698C824.636,299.039 824.206,299.809 824.175,301.012C824.16,301.574 824.237,302.231 824.47,302.98C824.64,303.529 824.905,304.124 825.27,304.771C825.288,304.801 825.309,304.829 825.333,304.854C825.682,305.222 826.03,305.337 826.355,305.329C826.565,305.324 826.77,305.266 826.962,305.168C827.182,305.056 827.389,304.896 827.57,304.75C827.625,304.706 827.699,304.651 827.754,304.61Z"/>
                </g>
                <g transform="matrix(0.60435,0,0,0.358694,-165.934,39.7897)">
                    <path d="M811.024,304.007C811.024,304.007 811.472,304.899 812.371,305.801C812.864,306.296 813.494,306.776 814.243,307.135C814.244,307.136 814.246,307.136 814.247,307.137C814.263,307.144 814.266,307.164 814.273,307.178C814.28,307.189 814.269,307.203 814.267,307.216C814.14,307.977 814.258,308.582 814.518,309.07C814.688,309.388 814.918,309.657 815.18,309.886C815.55,310.21 815.978,310.454 816.363,310.684C816.628,310.841 816.873,310.98 817.045,311.151C817.156,311.26 817.248,311.37 817.269,311.514C817.316,311.817 817.357,312.121 817.394,312.409C817.489,313.16 817.545,313.763 817.545,313.763C817.544,313.773 817.552,313.781 817.562,313.781C817.571,313.781 817.579,313.773 817.579,313.764C817.579,313.764 817.639,313.278 817.691,312.628C817.72,312.274 817.743,311.878 817.758,311.485C817.769,310.956 817.341,310.529 816.78,310.08C816.462,309.826 816.106,309.558 815.794,309.238C815.62,309.059 815.465,308.86 815.343,308.631C815.162,308.289 815.058,307.875 815.123,307.337C815.123,307.336 815.124,307.335 815.124,307.334C815.142,307.125 815.102,306.921 814.993,306.755C814.886,306.591 814.735,306.453 814.539,306.387C813.833,306.153 813.221,305.784 812.717,305.404C811.746,304.672 811.181,303.911 811.181,303.911C811.154,303.868 811.098,303.854 811.055,303.88C811.012,303.907 810.998,303.963 811.024,304.007Z"/>
                </g>
                <g transform="matrix(0.60435,0,0,0.358694,-165.934,39.7897)">
                    <path d="M814.917,301.17C814.374,300.55 813.559,300.489 813.108,300.817C812.675,301.131 812.433,301.881 813.168,303.007C813.167,303.005 813.187,303.096 813.187,303.096L813.165,303.541C813.121,303.71 813.121,303.889 813.159,304.059C813.201,304.241 813.291,304.41 813.42,304.552C813.649,304.818 814.109,305.239 814.737,305.561C815.195,305.796 815.743,305.974 816.351,306.01C816.354,306.01 816.356,306.01 816.358,306.01C816.46,306.014 816.562,306.007 816.662,305.988C816.762,305.969 816.859,305.938 816.953,305.897C816.953,305.897 816.953,305.897 816.953,305.897C817.536,305.635 818.035,305.742 818.509,305.993C819.338,306.433 820.104,307.25 820.978,307.763C820.98,307.764 820.982,307.765 820.984,307.766C821.091,307.826 821.203,307.876 821.319,307.912C821.435,307.947 821.555,307.973 821.676,307.983C822.37,308.045 822.941,308.191 823.386,308.379C823.843,308.571 824.165,308.796 824.33,309.018C824.404,309.117 824.465,309.198 824.434,309.27C823.779,310.834 822.348,311.312 821.468,312.501C821.123,312.966 820.859,313.533 820.751,314.304C820.749,314.313 820.755,314.322 820.765,314.324C820.774,314.325 820.783,314.319 820.785,314.31C820.952,313.573 821.251,313.046 821.619,312.623C822.12,312.047 822.749,311.667 823.348,311.226C823.95,310.783 824.515,310.277 824.914,309.492C825.066,309.191 824.92,308.683 824.349,308.22C823.839,307.808 822.975,307.41 821.764,307.232C821.763,307.232 821.763,307.232 821.763,307.231C821.695,307.222 821.629,307.203 821.565,307.179C821.502,307.156 821.442,307.125 821.385,307.088C820.811,306.719 820.292,306.2 819.759,305.766C819.324,305.413 818.879,305.113 818.405,304.951C817.846,304.759 817.247,304.749 816.576,305.042C816.576,305.042 816.394,305.077 816.394,305.077C815.925,305.054 815.503,304.917 815.146,304.743C814.642,304.496 814.265,304.176 814.078,303.97C814.074,303.965 814.069,303.96 814.065,303.955C814.037,303.927 814.015,303.893 814.005,303.856C813.996,303.817 813.993,303.776 814.004,303.737C814.014,303.705 814.02,303.671 814.022,303.637L814.028,303.113C814.028,303.012 814.016,302.912 813.986,302.817C813.957,302.722 813.915,302.63 813.858,302.548C813.857,302.546 813.856,302.545 813.855,302.543C813.628,302.223 813.507,301.958 813.483,301.738C813.467,301.596 813.487,301.483 813.566,301.42C813.662,301.344 813.802,301.329 813.946,301.363C814.171,301.416 814.404,301.575 814.569,301.845C814.616,301.927 814.678,301.991 814.755,302.03C814.834,302.07 814.924,302.092 815.015,302.08C815.107,302.067 815.192,302.032 815.257,301.972C815.322,301.913 815.374,301.837 815.394,301.748C815.52,301.27 815.773,300.851 816.081,300.472C816.924,299.434 818.138,298.66 818.587,297.666C818.59,297.661 818.592,297.655 818.594,297.649C818.615,297.585 818.653,297.528 818.705,297.489C818.758,297.448 818.822,297.42 818.892,297.416C819.371,297.4 819.714,297.239 819.957,297.031C820.424,296.63 820.516,296.061 820.516,296.061C820.525,296.011 820.492,295.963 820.442,295.954C820.393,295.944 820.345,295.977 820.335,296.027C820.335,296.027 820.226,296.515 819.8,296.835C819.586,296.996 819.291,297.11 818.887,297.099C818.886,297.099 818.885,297.099 818.884,297.099C818.747,297.098 818.617,297.142 818.508,297.215C818.401,297.287 818.318,297.391 818.265,297.514C817.771,298.457 816.529,299.132 815.648,300.1C815.356,300.421 815.103,300.773 814.917,301.17Z"/>
                </g>
            </g>
        </g>
    </g>
</svg>
