<?xml version="1.0" encoding="UTF-8" standalone="no"?>
<!DOCTYPE svg PUBLIC "-//W3C//DTD SVG 1.1//EN" "http://www.w3.org/Graphics/SVG/1.1/DTD/svg11.dtd">
<svg width="100%" height="100%" viewBox="0 0 30 29" version="1.1" xmlns="http://www.w3.org/2000/svg" xmlns:xlink="http://www.w3.org/1999/xlink" xml:space="preserve" xmlns:serif="http://www.serif.com/" style="fill-rule:evenodd;clip-rule:evenodd;stroke-linejoin:round;stroke-miterlimit:2;">
    <g transform="matrix(1,0,0,1,-636,-583)">
        <g id="ic_budget_categories_wants" transform="matrix(1.00205,0,0,1.00168,-1.33122,-1.01102)">
            <rect x="636.954" y="584" width="28.673" height="27.397" style="fill:none;"/>
            <g transform="matrix(0.997958,0,0,0.998319,1.3285,1.00932)">
                <g transform="matrix(0.542692,0,0,0.514842,333.026,466.599)">
                    <path d="M599.003,256.297C597.097,254.855 595.085,252.856 593.311,250.701C591.498,248.497 589.952,246.132 589.095,244.021C589.091,244.012 589.087,244.003 589.083,243.994C588.062,241.668 587.539,239.366 587.467,237.297C587.386,234.939 587.937,232.911 589.237,231.654C589.571,231.327 589.995,231.378 590.438,231.527C591.372,231.841 592.341,232.685 593.316,233.739C594.781,235.324 596.172,237.447 597.175,239.592C597.488,240.238 598.118,240.644 598.805,240.644C599.493,240.644 600.123,240.238 600.436,239.592C601.455,237.475 602.866,235.442 604.327,233.937C605.129,233.11 605.924,232.429 606.707,232.06C607.297,231.782 607.856,231.598 608.292,232.022C608.292,232.022 608.292,232.022 608.292,232.022C609.584,233.261 610.138,235.266 610.068,237.601C610.006,239.667 609.498,241.968 608.49,244.295C608.485,244.304 608.481,244.313 608.477,244.323C607.639,246.452 605.773,249.344 603.643,252.081C601.54,254.783 599.204,257.32 597.288,258.806C597.256,258.828 597.247,258.873 597.268,258.906C597.288,258.939 597.331,258.948 597.362,258.927C599.456,257.659 602.098,255.392 604.501,252.908C607.04,250.285 609.272,247.423 610.376,245.277C612.067,242.139 612.884,238.926 612.872,236.149C612.861,233.472 612.023,231.196 610.561,229.578C609.016,227.886 606.853,227.817 604.541,229.092C602.849,230.025 601.043,231.776 599.494,233.914C599.245,234.257 599.004,234.611 598.771,234.973C597.072,232.402 595.004,230.162 593.073,229.018C590.772,227.655 588.617,227.66 587.08,229.33C585.625,230.93 584.796,233.188 584.773,235.844C584.75,238.614 585.551,241.823 587.234,244.99C588.314,247.143 590.14,249.554 592.272,251.736C594.275,253.787 596.524,255.639 598.608,256.936C598.775,257.051 598.999,257.001 599.108,256.825C599.217,256.649 599.17,256.412 599.003,256.297Z"/>
                </g>
                <g transform="matrix(-0.0104679,0.999988,-2.14157,-0.00488789,779.61,114.8)">
                    <path d="M491.602,59.997C491.602,59.997 491.601,58.497 491.508,56.797C491.387,54.568 491.124,51.999 491.124,51.999C491.124,51.937 491.017,51.888 490.885,51.889C490.753,51.889 490.647,51.94 490.647,52.001C490.647,52.001 490.41,54.573 490.31,56.803C490.233,58.504 490.248,60.003 490.248,60.003C490.248,60.178 490.552,60.318 490.926,60.316C491.3,60.314 491.603,60.171 491.602,59.997Z"/>
                </g>
                <g transform="matrix(-0.00324315,0.999988,-0.6635,-0.00488789,686.224,100.272)">
                    <path d="M491.263,59.998C491.263,59.998 491.218,58.184 491.154,56.369C491.091,54.55 491.009,52.739 491.009,52.739C491.008,52.64 490.954,52.559 490.888,52.56C490.822,52.56 490.769,52.641 490.77,52.74C490.77,52.74 490.706,54.552 490.66,56.371C490.614,58.187 490.586,60.002 490.586,60.002C490.587,60.283 490.74,60.511 490.927,60.51C491.114,60.509 491.265,60.28 491.263,59.998Z"/>
                </g>
                <g transform="matrix(1,0,0,1,118.156,454.897)">
                    <path d="M518.995,131.185L523.37,131.413C523.729,131.43 524.052,131.58 524.309,131.803C524.554,132.018 524.718,132.318 524.781,132.656C525.095,134.291 525.585,136.992 526.131,139.688C526.675,142.381 527.274,145.061 527.62,146.686C527.779,147.364 528.158,147.945 528.677,148.35C529.194,148.755 529.845,148.991 530.539,148.983C530.539,148.983 530.539,148.983 530.539,148.983C531.66,148.948 533.255,148.914 534.932,148.846C537.364,148.748 539.954,148.595 541.522,148.516C542.058,148.483 542.558,148.3 542.952,147.975C543.335,147.66 543.633,147.239 543.764,146.735L544.989,141.962C544.996,141.943 544.985,141.922 544.966,141.916C544.946,141.909 544.926,141.92 544.919,141.939L543.08,146.511C542.951,146.834 542.717,147.087 542.438,147.265C542.172,147.433 541.852,147.504 541.522,147.484C539.954,147.405 537.364,147.252 534.932,147.154C533.255,147.086 531.66,147.052 530.539,147.017C530.304,147.014 530.09,146.924 529.917,146.785C529.745,146.647 529.617,146.455 529.564,146.229C529.149,144.62 528.49,141.954 527.778,139.3C527.065,136.644 526.3,134.007 525.852,132.405C525.692,131.841 525.365,131.361 524.915,131.038C524.477,130.722 523.941,130.536 523.37,130.564C523.37,130.564 518.995,130.792 518.995,130.792C518.887,130.792 518.799,130.88 518.799,130.988C518.799,131.097 518.887,131.185 518.995,131.185Z"/>
                </g>
                <g transform="matrix(0.433815,0,0,0.433815,431.338,536.281)">
                    <path d="M504.344,163.017C505.514,163.12 506.513,163.694 507.218,164.525C507.871,165.296 508.211,166.31 508.126,167.396C508.066,168.411 507.564,169.278 506.866,169.914C506.202,170.521 505.314,170.878 504.344,170.849C503.874,170.854 503.427,170.764 503.013,170.607C502.575,170.441 502.166,170.221 501.82,169.916C501.105,169.285 500.582,168.42 500.506,167.396C500.396,166.287 500.627,165.285 501.181,164.5C501.793,163.635 502.712,163.031 503.897,162.834C503.92,162.832 503.938,162.812 503.937,162.789C503.936,162.765 503.915,162.747 503.892,162.749C502.552,162.671 501.406,163.132 500.537,163.934C499.634,164.767 499.103,165.978 498.962,167.396C498.849,168.92 499.411,170.325 500.351,171.388C500.843,171.944 501.461,172.384 502.148,172.694C502.817,172.996 503.565,173.142 504.344,173.151C505.919,173.104 507.352,172.466 508.338,171.389C509.3,170.34 509.873,168.927 509.782,167.396C509.668,165.932 509.028,164.633 507.987,163.754C507.005,162.924 505.726,162.443 504.344,162.565C504.219,162.565 504.118,162.666 504.118,162.791C504.118,162.916 504.219,163.017 504.344,163.017Z"/>
                </g>
                <g transform="matrix(0.433815,0,0,0.433815,440.318,536.281)">
                    <path d="M504.344,163.017C505.514,163.12 506.513,163.694 507.218,164.525C507.871,165.296 508.211,166.31 508.126,167.396C508.066,168.411 507.564,169.278 506.866,169.914C506.202,170.521 505.314,170.878 504.344,170.849C503.874,170.854 503.427,170.764 503.013,170.607C502.575,170.441 502.166,170.221 501.82,169.916C501.105,169.285 500.582,168.42 500.506,167.396C500.396,166.287 500.627,165.285 501.181,164.5C501.793,163.635 502.712,163.031 503.897,162.834C503.92,162.832 503.938,162.812 503.937,162.789C503.936,162.765 503.915,162.747 503.892,162.749C502.552,162.671 501.406,163.132 500.537,163.934C499.634,164.767 499.103,165.978 498.962,167.396C498.849,168.92 499.411,170.325 500.351,171.388C500.843,171.944 501.461,172.384 502.148,172.694C502.817,172.996 503.565,173.142 504.344,173.151C505.919,173.104 507.352,172.466 508.338,171.389C509.3,170.34 509.873,168.927 509.782,167.396C509.668,165.932 509.028,164.633 507.987,163.754C507.005,162.924 505.726,162.443 504.344,162.565C504.219,162.565 504.118,162.666 504.118,162.791C504.118,162.916 504.219,163.017 504.344,163.017Z"/>
                </g>
            </g>
        </g>
    </g>
</svg>
