<?xml version="1.0" encoding="UTF-8" standalone="no"?>
<!DOCTYPE svg PUBLIC "-//W3C//DTD SVG 1.1//EN" "http://www.w3.org/Graphics/SVG/1.1/DTD/svg11.dtd">
<svg width="100%" height="100%" viewBox="0 0 26 32" version="1.1" xmlns="http://www.w3.org/2000/svg" xmlns:xlink="http://www.w3.org/1999/xlink" xml:space="preserve" xmlns:serif="http://www.serif.com/" style="fill-rule:evenodd;clip-rule:evenodd;stroke-linejoin:round;stroke-miterlimit:2;">
    <g transform="matrix(1,0,0,1,-649,-1736)">
        <g id="ic_budget_needs" transform="matrix(1.00048,0,0,0.988292,-0.318946,20.1244)">
            <rect x="649.254" y="1736.37" width="25.326" height="32.024" style="fill:none;"/>
            <g transform="matrix(1.76872,0,0,3.01681,-17.4457,1358.47)">
                <g transform="matrix(0.0864052,-0.0378681,-0.157042,-0.126228,335.368,158.151)">
                    <path d="M695.121,44.033C695.344,44.947 695.415,45.82 695.325,46.652C695.155,48.223 694.414,49.591 693.357,50.626C692.453,51.512 691.193,52.139 689.895,52.517C688.933,52.797 687.876,52.918 686.801,52.94C683.937,52.985 681.686,52.179 680.42,50.549C679.886,49.861 679.511,49.002 679.317,48.012C679.107,46.937 679.138,45.702 679.213,44.363C679.491,41.82 680.004,39.447 681.221,37.864C682.417,36.308 684.353,35.453 686.801,35.507C689.464,35.571 691.965,36.477 693.373,38.181C694.461,39.497 694.993,41.273 694.675,43.374C694.675,43.395 694.632,43.413 694.578,43.413C694.524,43.413 694.481,43.395 694.481,43.374C694.173,41.342 693.167,39.66 691.746,38.448C690.381,37.283 688.713,36.579 686.801,36.624C686.127,36.639 685.744,36.872 685.371,37.172C684.802,37.631 684.495,38.28 684.266,39.055C683.834,40.512 683.863,42.385 684.074,44.363C684.134,45.248 684.256,46.083 684.374,46.855C684.512,47.754 684.684,48.56 684.969,49.246C685.193,49.785 685.443,50.243 685.845,50.595C686.112,50.828 686.274,51.05 686.801,51.06C687.524,51.076 688.172,50.87 688.82,50.559C689.894,50.045 690.885,49.308 691.712,48.395C692.827,47.164 693.712,45.679 694.089,44.033C694.089,43.917 694.32,43.823 694.605,43.823C694.889,43.823 695.121,43.917 695.121,44.033Z"/>
                </g>
                <g transform="matrix(0.268046,-0.152902,0.257618,0.159091,138.248,226.234)">
                    <path d="M766.146,136.067C766.275,135.803 766.173,135.81 766.109,135.876C766.04,135.947 766.043,136.061 766.114,136.129L766.38,136.757C766.629,137.288 766.755,137.829 766.846,138.388C766.935,138.928 766.928,139.461 766.882,140C766.838,140.518 766.712,141.021 766.549,141.52C766.44,141.853 766.317,142.185 766.158,142.504C765.67,141.743 765.385,140.893 765.307,140.015C765.205,138.853 765.417,137.677 766.011,136.61C766.037,136.563 766.054,136.531 766.063,136.515C766.095,136.457 765.963,136.515 765.963,136.515C766.032,136.387 765.987,136.388 765.961,136.415C765.955,136.421 765.951,136.428 765.948,136.435C765.949,136.438 765.947,136.442 765.944,136.447C765.942,136.453 765.941,136.459 765.941,136.466L765.937,136.454L765.938,136.453L765.944,136.447L765.946,136.439L765.948,136.435C765.947,136.434 765.947,136.433 765.946,136.433C765.927,136.416 765.929,136.432 765.937,136.454C765.922,136.469 765.896,136.489 765.874,136.514C764.993,137.52 764.493,138.737 764.36,140.007C764.22,141.344 764.541,142.697 765.227,143.924C765.227,143.924 765.399,144.217 765.399,144.217C765.485,144.362 765.621,144.463 765.76,144.549C765.901,144.635 766.068,144.663 766.238,144.674C766.408,144.685 766.57,144.628 766.721,144.56C766.874,144.492 766.992,144.367 767.097,144.231L767.353,143.904C767.762,143.328 768.095,142.71 768.284,142.054C768.477,141.385 768.545,140.687 768.488,140C768.442,139.456 768.338,138.922 768.14,138.41C767.856,137.676 767.447,137.009 766.889,136.411C766.672,136.191 766.515,136.031 766.436,135.951C766.312,135.825 766.199,135.975 766.146,136.067Z"/>
                </g>
                <g transform="matrix(0.278454,-0.146203,0.246331,0.165268,133.015,218.567)">
                    <path d="M766.131,136.108C766.277,135.801 766.168,135.809 766.104,135.881C766.038,135.955 766.045,136.069 766.119,136.134L766.381,136.757C766.63,137.287 766.757,137.829 766.849,138.388C766.938,138.927 766.931,139.461 766.885,140C766.84,140.518 766.714,141.022 766.55,141.521C766.44,141.854 766.316,142.187 766.155,142.506C765.668,141.744 765.382,140.894 765.305,140.015C765.203,138.853 765.416,137.677 766.011,136.61C766.037,136.563 766.054,136.531 766.063,136.515C766.094,136.458 765.965,136.517 765.965,136.517C766.029,136.386 765.984,136.389 765.959,136.418C765.954,136.423 765.95,136.429 765.948,136.435C765.949,136.438 765.947,136.442 765.944,136.447L765.942,136.455L765.941,136.465L765.937,136.454L765.938,136.453L765.944,136.447L765.945,136.442L765.948,136.435C765.947,136.434 765.947,136.433 765.946,136.433C765.926,136.415 765.929,136.432 765.937,136.454C765.922,136.469 765.896,136.489 765.874,136.514C764.994,137.52 764.495,138.737 764.362,140.007C764.223,141.343 764.544,142.696 765.23,143.923C765.23,143.923 765.483,144.354 765.483,144.354C765.56,144.484 765.684,144.572 765.81,144.65C765.935,144.727 766.086,144.749 766.238,144.759C766.39,144.769 766.533,144.715 766.669,144.655C766.804,144.594 766.908,144.481 767.002,144.36L767.355,143.905C767.764,143.328 768.095,142.71 768.283,142.053C768.474,141.384 768.542,140.687 768.485,140C768.44,139.456 768.336,138.923 768.138,138.411C767.854,137.677 767.446,137.01 766.888,136.412C766.672,136.191 766.515,136.031 766.436,135.951C766.295,135.807 766.169,136.03 766.131,136.108Z"/>
                </g>
                <g transform="matrix(0.205124,0.18403,-0.310064,0.121746,271.021,-26.4338)">
                    <path d="M766.098,136.109L766.099,136.11L766.1,136.112L766.101,136.114C766.105,136.119 766.108,136.123 766.112,136.127L766.123,136.138L766.109,136.139L766.104,136.124L766.1,136.112L766.098,136.109C766.096,136.107 766.095,136.106 766.093,136.107C766.023,136.137 766.05,136.143 766.109,136.139C766.112,136.148 766.115,136.157 766.119,136.166C766.164,136.269 766.255,136.474 766.38,136.757C766.629,137.288 766.754,137.829 766.846,138.388C766.935,138.928 766.928,139.461 766.882,140C766.837,140.518 766.712,141.021 766.549,141.52C766.44,141.853 766.317,142.185 766.158,142.504C765.671,141.743 765.385,140.893 765.308,140.015C765.205,138.853 765.417,137.677 766.011,136.61C766.011,136.61 766.07,136.503 766.07,136.503L766.059,136.482C766.039,136.446 765.993,136.38 765.946,136.433C765.934,136.446 765.91,136.473 765.874,136.514C764.993,137.52 764.493,138.736 764.36,140.007C764.219,141.344 764.541,142.697 765.227,143.925C765.227,143.925 765.388,144.199 765.388,144.199C765.475,144.347 765.613,144.449 765.754,144.536C765.896,144.624 766.066,144.652 766.238,144.663C766.411,144.674 766.574,144.617 766.728,144.548C766.882,144.479 767.002,144.352 767.11,144.215L767.352,143.903C767.762,143.328 768.095,142.71 768.284,142.054C768.477,141.385 768.545,140.687 768.488,140C768.443,139.456 768.339,138.922 768.14,138.41C767.856,137.676 767.447,137.009 766.889,136.411C766.672,136.191 766.515,136.031 766.436,135.951L766.428,135.943C766.436,135.895 766.431,135.865 766.391,135.905C766.384,135.911 766.407,135.924 766.428,135.943C766.418,136.006 766.387,136.099 766.387,136.099C766.11,136.008 766.064,136.057 766.098,136.109Z"/>
                </g>
                <g transform="matrix(-0.292038,-0.136548,-0.230064,0.173331,639.431,210.008)">
                    <path d="M765.7,136.483C765.689,136.461 765.684,136.444 765.705,136.46C765.711,136.465 765.708,136.473 765.7,136.483C765.712,136.509 765.731,136.541 765.731,136.541C765.848,136.454 765.853,136.499 765.829,136.529L765.821,136.537L765.818,136.538L765.812,136.545L765.808,136.547L765.801,136.55L765.809,136.55L765.811,136.545L765.812,136.545L765.82,136.539L765.821,136.537C765.823,136.537 765.825,136.537 765.826,136.538C765.852,136.551 765.835,136.552 765.809,136.55C765.796,136.574 765.784,136.625 765.761,136.67C765.235,137.72 765.066,138.858 765.189,139.978C765.29,140.884 765.613,141.753 766.148,142.522C766.312,142.198 766.438,141.86 766.549,141.52C766.713,141.021 766.838,140.518 766.883,140C766.929,139.461 766.936,138.927 766.847,138.388C766.755,137.829 766.629,137.287 766.38,136.757C766.38,136.757 766.127,136.141 766.127,136.141L766.133,136.125C766.163,136.059 766.289,135.801 766.436,135.951C766.515,136.031 766.672,136.191 766.889,136.411C767.446,137.009 767.855,137.676 768.139,138.41C768.337,138.923 768.442,139.456 768.487,140C768.544,140.687 768.476,141.384 768.284,142.053C768.095,142.71 767.763,143.328 767.354,143.904C767.354,143.904 767.04,144.306 767.04,144.306C766.941,144.433 766.832,144.551 766.69,144.615C766.548,144.678 766.397,144.733 766.238,144.723C766.079,144.712 765.921,144.688 765.79,144.607C765.659,144.527 765.53,144.434 765.45,144.297C765.45,144.297 765.132,143.756 765.132,143.756C764.475,142.577 764.154,141.28 764.262,139.99C764.365,138.762 764.809,137.578 765.613,136.574C765.643,136.536 765.683,136.505 765.7,136.483Z"/>
                </g>
                <g transform="matrix(0.495698,0,0,0.330842,-56.4867,84.8497)">
                    <path d="M885.528,149.308C885.528,149.308 885.432,148.589 885.566,147.536C885.612,147.17 885.671,146.766 885.78,146.333C886.004,145.445 886.382,144.455 887.131,143.465C887.166,143.427 887.16,143.372 887.117,143.341C887.075,143.31 887.012,143.315 886.977,143.353C885.971,144.246 885.326,145.2 884.919,146.094C884.712,146.55 884.573,146.987 884.485,147.388C884.218,148.601 884.381,149.453 884.381,149.453C884.426,149.734 884.72,149.93 885.036,149.89C885.352,149.85 885.573,149.589 885.528,149.308Z"/>
                </g>
                <g transform="matrix(-0.495698,0,0,0.377956,820.741,77.746)">
                    <path d="M884.29,149.093C884.29,149.093 884.239,148.478 884.546,147.523C884.61,147.324 884.689,147.111 884.799,146.889C885.207,146.066 885.911,145.112 886.992,144.117C887.023,144.082 887.085,144.073 887.13,144.097C887.175,144.121 887.187,144.169 887.156,144.205C886.681,144.89 886.364,145.538 886.118,146.133C885.939,146.566 885.828,146.965 885.717,147.322C885.384,148.391 885.335,149.079 885.335,149.079C885.34,149.304 885.11,149.489 884.821,149.493C884.533,149.497 884.295,149.318 884.29,149.093Z"/>
                </g>
                <g transform="matrix(-0.495698,0,0,0.377956,820.726,76.4803)">
                    <path d="M884.359,149.732C884.359,149.732 884.687,148.854 884.786,147.034C884.844,145.96 884.821,144.573 884.617,142.853C884.613,142.829 884.635,142.806 884.666,142.803C884.698,142.799 884.727,142.816 884.732,142.841C885.158,144.553 885.352,145.946 885.438,147.029C885.592,148.957 885.378,149.912 885.378,149.912C885.314,150.131 885.034,150.268 884.753,150.219C884.472,150.169 884.296,149.951 884.359,149.732Z"/>
                </g>
                <g transform="matrix(0.027899,0.00603337,-0.0228183,0.0371694,372.752,115.902)">
                    <path d="M662.074,227.881C662.074,227.881 657.155,233.435 653.634,238.9C651.733,241.85 650.37,244.76 650.084,246.78C649.808,249.899 651.417,252.681 653.882,254.425C656.276,256.119 659.645,256.919 662.968,256.938C666.292,256.921 669.688,256.127 672.06,254.426C674.497,252.678 676.027,249.892 675.66,246.78C675.303,244.815 674.068,242.197 672.32,239.579C668.938,234.514 664.205,229.539 664.205,229.539C664.177,229.497 664.079,229.474 663.986,229.486C663.893,229.498 663.84,229.542 663.868,229.584C663.868,229.584 665.974,234.836 667.22,240.034C667.819,242.529 668.228,244.975 667.9,246.78C667.738,247.998 667.178,249.122 666.467,250.109C665.892,250.907 665.123,251.584 664.275,252.115C663.98,252.299 663.664,252.456 663.335,252.583C663.206,252.633 663.117,252.703 662.968,252.703C662.586,252.705 662.378,252.515 662.066,252.349C661.335,251.961 660.67,251.456 660.129,250.854C659.108,249.718 658.374,248.317 658.229,246.78C657.966,244.933 658.603,242.23 659.467,239.45C661.195,233.888 663.863,228.119 663.863,228.119C664.01,227.899 663.729,227.667 663.235,227.602C662.742,227.536 662.221,227.661 662.074,227.881Z"/>
                </g>
                <g transform="matrix(0.0250075,0.00950225,-0.0359377,0.033317,373.973,113.791)">
                    <path d="M662.074,227.881C662.074,227.881 657.155,233.435 653.634,238.9C651.733,241.85 650.37,244.76 650.084,246.78C649.808,249.899 651.417,252.681 653.882,254.425C656.276,256.119 659.645,256.919 662.968,256.938C666.292,256.921 669.688,256.127 672.06,254.426C674.497,252.678 676.027,249.892 675.66,246.78C675.303,244.815 674.068,242.197 672.32,239.579C668.938,234.514 664.205,229.539 664.205,229.539C664.177,229.497 664.079,229.474 663.986,229.486C663.893,229.498 663.84,229.542 663.868,229.584C663.868,229.584 665.974,234.836 667.22,240.034C667.819,242.529 668.228,244.975 667.9,246.78C667.738,247.998 667.178,249.122 666.467,250.109C665.892,250.907 665.123,251.584 664.275,252.115C663.98,252.299 663.664,252.456 663.335,252.583C663.206,252.633 663.117,252.703 662.968,252.703C662.586,252.705 662.378,252.515 662.066,252.349C661.335,251.961 660.67,251.456 660.129,250.854C659.108,249.718 658.374,248.317 658.229,246.78C657.966,244.933 658.603,242.23 659.467,239.45C661.195,233.888 663.863,228.119 663.863,228.119C664.01,227.899 663.729,227.667 663.235,227.602C662.742,227.536 662.221,227.661 662.074,227.881Z"/>
                </g>
                <g transform="matrix(0.0296933,-1.44024e-05,5.44703e-05,0.0395599,367.716,121.572)">
                    <path d="M662.074,227.881C662.074,227.881 657.155,233.435 653.634,238.9C651.733,241.85 650.37,244.76 650.084,246.78C649.808,249.899 651.417,252.681 653.882,254.425C656.276,256.119 659.645,256.919 662.968,256.938C666.292,256.921 669.688,256.127 672.06,254.426C674.497,252.678 676.027,249.892 675.66,246.78C675.303,244.815 674.068,242.197 672.32,239.579C668.938,234.514 664.205,229.539 664.205,229.539C664.177,229.497 664.079,229.474 663.986,229.486C663.893,229.498 663.84,229.542 663.868,229.584C663.868,229.584 665.974,234.836 667.22,240.034C667.819,242.529 668.228,244.975 667.9,246.78C667.738,247.998 667.178,249.122 666.467,250.109C665.892,250.907 665.123,251.584 664.275,252.115C663.98,252.299 663.664,252.456 663.335,252.583C663.206,252.633 663.117,252.703 662.968,252.703C662.586,252.705 662.378,252.515 662.066,252.349C661.335,251.961 660.67,251.456 660.129,250.854C659.108,249.718 658.374,248.317 658.229,246.78C657.966,244.933 658.603,242.23 659.467,239.45C661.195,233.888 663.863,228.119 663.863,228.119C664.01,227.899 663.729,227.667 663.235,227.602C662.742,227.536 662.221,227.661 662.074,227.881Z"/>
                </g>
                <g transform="matrix(0.0291036,0.00349475,-0.0132172,0.0387743,361.818,120.617)">
                    <path d="M662.074,227.881C662.074,227.881 657.155,233.435 653.634,238.9C651.733,241.85 650.37,244.76 650.084,246.78C649.808,249.899 651.417,252.681 653.882,254.425C656.276,256.119 659.645,256.919 662.968,256.938C666.292,256.921 669.688,256.127 672.06,254.426C674.497,252.678 676.027,249.892 675.66,246.78C675.303,244.815 674.068,242.197 672.32,239.579C668.938,234.514 664.205,229.539 664.205,229.539C664.177,229.497 664.079,229.474 663.986,229.486C663.893,229.498 663.84,229.542 663.868,229.584C663.868,229.584 665.974,234.836 667.22,240.034C667.819,242.529 668.228,244.975 667.9,246.78C667.738,247.998 667.178,249.122 666.467,250.109C665.892,250.907 665.123,251.584 664.275,252.115C663.98,252.299 663.664,252.456 663.335,252.583C663.206,252.633 663.117,252.703 662.968,252.703C662.586,252.705 662.378,252.515 662.066,252.349C661.335,251.961 660.67,251.456 660.129,250.854C659.108,249.718 658.374,248.317 658.229,246.78C657.966,244.933 658.603,242.23 659.467,239.45C661.195,233.888 663.863,228.119 663.863,228.119C664.01,227.899 663.729,227.667 663.235,227.602C662.742,227.536 662.221,227.661 662.074,227.881Z"/>
                </g>
                <g transform="matrix(0.0206457,0.00283719,-0.00822666,0.0210881,376.246,121.621)">
                    <path d="M663.83,229.659C663.828,229.637 663.825,229.622 663.81,229.624C663.723,229.632 663.758,229.647 663.83,229.659L663.838,229.72C663.886,229.884 663.974,230.207 664.115,230.687C664.658,232.544 665.632,236.379 666.283,240.277C666.691,242.716 666.863,245.053 666.436,246.78C666.283,247.589 665.805,248.31 665.359,248.994C664.966,249.597 664.321,250.073 663.743,250.513C663.576,250.64 663.317,250.836 663.09,250.95C663.182,250.948 663.273,250.955 663.251,250.991C663.158,251.143 662.986,251.14 662.777,251.042L662.751,251.039C662.737,251.032 662.722,251.026 662.708,251.019L662.685,250.995C662.197,250.725 661.555,250.039 661.212,249.6C660.565,248.772 659.947,247.837 659.8,246.78C659.457,245.024 659.874,242.445 660.55,239.753C661.59,235.613 663.009,231.417 663.758,229.422L664.183,228.286C664.183,228.286 663.263,228.74 663.263,228.74C664.449,227.885 664.115,227.444 663.443,227.292C662.77,227.14 662.011,227.333 661.749,227.724L663.263,228.74C663.263,228.74 661.739,227.735 661.739,227.735L660.749,228.77C659.021,230.615 655.46,234.504 652.609,238.475C650.396,241.556 648.933,244.626 648.513,246.78C648.115,249.952 649.571,252.825 651.783,254.878C654.492,257.393 658.702,258.611 662.968,258.691C667.234,258.61 671.502,257.414 674.151,254.877C676.309,252.811 677.669,249.938 677.124,246.78C676.606,244.684 675.276,241.942 673.206,239.222C670.41,235.548 666.963,232.101 665.257,230.442C664.825,230.021 664.522,229.743 664.368,229.602C664.252,229.496 664.092,229.701 664.092,229.701C664.217,229.436 664.074,229.399 663.947,229.428C663.821,229.456 663.758,229.539 663.807,229.613L664.092,229.701C664.092,229.701 663.926,229.681 663.83,229.659ZM662.685,250.995L662.745,251.029L662.777,251.042C662.858,251.053 662.97,251.014 663.09,250.95L662.968,250.95C662.867,250.95 662.64,250.93 662.676,250.985L662.685,250.995Z"/>
                </g>
                <g transform="matrix(0.0227694,0,3.78722e-17,0.0266352,373.89,123.166)">
                    <path d="M661.674,227.951L661.714,227.909C661.76,227.86 661.836,227.82 661.805,227.812C661.349,227.7 661.417,227.794 661.674,227.951C661.512,228.123 661.22,228.434 660.825,228.868C659.125,230.737 655.592,234.699 652.808,238.689C650.702,241.705 649.255,244.692 648.872,246.78C648.471,250.296 650.417,253.418 653.228,255.336C655.832,257.113 659.394,257.931 662.968,257.966C667.252,257.908 671.674,256.682 674.265,254.092C676.152,252.206 677.258,249.617 676.8,246.78C676.325,244.749 675.003,242.072 673.038,239.402C670.321,235.709 666.905,232.17 665.234,230.482C664.809,230.053 664.505,229.764 664.355,229.619C664.249,229.518 664.037,229.677 664.037,229.677C664.213,229.463 664.083,229.43 663.963,229.451C663.843,229.472 663.779,229.538 663.82,229.599L664.037,229.677C664.037,229.677 663.92,229.661 663.844,229.643C663.842,229.622 663.84,229.608 663.823,229.609C663.747,229.615 663.782,229.629 663.844,229.643L663.852,229.705C663.903,229.865 663.999,230.188 664.147,230.66C664.72,232.49 665.779,236.311 666.48,240.162C666.93,242.628 667.172,245.016 666.76,246.78C666.561,247.925 665.91,248.954 665.19,249.863C664.766,250.398 664.183,250.844 663.619,251.236C663.441,251.359 663.194,251.56 662.974,251.675L662.946,251.675C662.729,251.558 662.489,251.359 662.316,251.236C661.764,250.844 661.234,250.384 660.835,249.849C660.161,248.944 659.588,247.913 659.44,246.78C659.11,244.98 659.596,242.343 660.318,239.608C661.404,235.5 662.897,231.316 663.673,229.338L664.036,228.414C664.351,228.334 664.516,228.251 664.116,228.21C664.084,228.206 664.097,228.26 664.076,228.311L664.036,228.414C663.628,228.518 662.968,228.618 662.968,228.618C664.337,227.876 663.996,227.525 663.36,227.415C662.724,227.306 662.032,227.478 661.816,227.801L662.968,228.618C662.968,228.618 662.082,228.203 661.674,227.951ZM662.974,251.675L662.96,251.682C663.122,251.771 663.269,251.809 663.358,251.727C663.426,251.665 663.113,251.674 662.974,251.675ZM662.946,251.675C662.799,251.673 662.505,251.661 662.571,251.721C662.658,251.801 662.802,251.767 662.96,251.682L662.946,251.675Z"/>
                </g>
                <g transform="matrix(0.0178142,0.0107708,-0.0411972,0.0240027,382.847,113.943)">
                    <path d="M662.904,229.84C662.83,229.828 662.749,229.832 662.685,229.875C662.529,229.98 662.215,230.196 661.8,230.516C660.161,231.779 657.15,234.514 656.349,237.758C655.874,239.683 656.374,241.721 658.096,243.758C659.802,245.671 660.864,247.283 661.627,248.64C662.594,250.361 662.829,251.541 662.403,252.334C661.973,252.197 661.433,251.972 661.016,251.821C659.458,251.256 657.839,250.435 656.454,249.355C654.562,247.88 652.938,246.009 652.448,243.7C651.699,240.876 652.055,238.354 653.966,235.975C655.872,233.603 659.059,231.395 664.019,229.229C664.483,229.06 664.548,228.757 664.165,228.553C663.782,228.348 663.095,228.32 662.631,228.488C656.284,230.399 651.836,232.522 648.773,234.941C645.469,237.55 644.035,240.484 643.732,243.848C643.616,247.647 645.924,250.695 648.909,252.877C651.218,254.564 654.077,255.726 656.615,256.411C658.91,257.03 661.147,257.266 662.968,257.268C665.771,257.243 668.395,256.82 670.299,255.844C671.865,255.042 673.27,253.816 673.068,251.957C672.947,250.838 672.368,249.404 670.789,247.639C669.455,246.149 667.483,244.402 664.651,242.332C661.947,240.446 660.99,238.384 660.888,236.472C660.697,232.862 663.121,229.909 663.121,229.909C663.209,229.843 663.169,229.788 663.069,229.765C662.968,229.742 662.844,229.76 662.792,229.804L662.904,229.84ZM662.635,252.402C662.901,252.471 663.09,252.481 663.122,252.378C663.13,252.354 663.018,252.373 662.968,252.373C662.878,252.372 662.758,252.383 662.635,252.402ZM662.326,252.464C662.08,252.524 661.924,252.604 662.128,252.655C662.177,252.667 662.213,252.617 662.235,252.589L662.326,252.464Z"/>
                </g>
                <g transform="matrix(0.0188063,0.00537144,-0.0205452,0.0253394,379.185,117.613)">
                    <path d="M662.454,230.753C662.408,230.75 662.359,230.757 662.311,230.783C662.17,230.859 661.895,231.015 661.52,231.257C660.148,232.142 657.723,234.043 656.616,236.812C655.834,238.767 655.973,241.054 657.409,243.712C657.457,243.766 657.51,243.82 657.569,243.873C659.165,245.794 660.097,247.402 660.791,248.76C661.28,249.718 661.827,250.778 661.978,251.519C661.711,251.401 661.444,251.278 661.212,251.183C659.497,250.477 657.736,249.47 656.363,248.142C655.067,246.888 653.891,245.425 653.456,243.683C652.607,240.915 652.793,238.447 654.565,236.094C656.351,233.722 659.351,231.506 664.17,229.31C664.736,229.104 664.816,228.735 664.349,228.486C663.882,228.237 663.044,228.202 662.479,228.407C655.947,230.285 651.392,232.395 648.175,234.822C644.683,237.456 643.174,240.434 642.724,243.865C642.51,247.774 644.855,250.916 647.899,253.169C650.298,254.944 653.326,256.157 655.995,256.871C658.514,257.545 660.973,257.795 662.968,257.789C666.101,257.749 669.056,257.289 671.148,256.186C672.822,255.303 674.413,253.977 674.112,251.959C673.94,250.805 673.366,249.327 671.652,247.52C670.231,246.023 668.163,244.283 665.177,242.217L665.337,242.379C662.875,240.372 661.699,238.538 661.318,236.888C660.491,233.307 662.73,230.889 662.73,230.889C662.907,230.796 662.871,230.728 662.754,230.696C662.637,230.664 662.482,230.68 662.409,230.731L662.454,230.753ZM662.02,251.951C661.24,252.091 660.497,252.339 661.17,252.447C661.755,252.542 661.995,252.336 662.02,251.951ZM662.815,251.854C663.114,251.95 663.345,251.977 663.425,251.86C663.474,251.789 663.108,251.853 662.968,251.852L662.815,251.854Z"/>
                </g>
                <g transform="matrix(0.601804,0,0,0.25692,-131.445,53.7989)">
                    <path d="M845.04,319.146L849.253,316.792C849.253,316.792 849.275,316.778 849.275,316.778C849.897,316.393 850.504,316.141 851.098,315.931C851.739,315.705 852.363,315.56 852.984,315.474C852.984,315.474 853.033,315.483 853.033,315.483C853.478,315.513 853.91,315.585 854.334,315.655C854.627,315.704 854.915,315.751 855.2,315.808C855.694,315.905 856.175,316.004 856.647,316.151L856.745,316.18C857.706,316.574 858.615,317.142 859.456,317.692C860.136,318.136 860.751,318.547 861.298,318.878C861.774,319.166 862.177,319.376 862.514,319.467C862.532,319.475 862.552,319.462 862.558,319.437C862.565,319.412 862.555,319.384 862.537,319.376C861.706,318.804 860.536,317.117 859.032,315.595C858.505,315.061 857.937,314.585 857.347,314.146L857.105,314.008C856.475,313.687 855.829,313.391 855.142,313.202C854.489,313.023 853.805,312.957 853.097,312.925C853.097,312.925 853.096,312.925 853.096,312.925L852.709,312.969C852.01,313.169 851.305,313.414 850.602,313.802C849.953,314.161 849.31,314.617 848.66,315.203L848.655,315.208L844.869,318.693C844.779,318.759 844.744,318.914 844.791,319.039C844.838,319.164 844.95,319.212 845.04,319.146Z"/>
                </g>
                <g transform="matrix(0.282973,0.221596,-0.175005,0.0787235,225.494,-18.0731)">
                    <ellipse cx="621.368" cy="81.007" rx="0.649" ry="0.642"/>
                </g>
                <g transform="matrix(0.282973,0.221596,-0.175005,0.0787235,225.494,-18.0731)">
                    <path d="M621.659,80.436C621.872,80.539 622.017,80.756 622.017,81.007C622.017,81.295 621.826,81.539 621.561,81.617C621.643,81.406 621.736,81.244 621.681,81.007C621.643,80.834 621.654,80.629 621.659,80.436ZM621.327,81.645C621.341,81.626 621.355,81.608 621.368,81.594L621.368,81.65L621.327,81.645Z"/>
                </g>
                <g transform="matrix(0.284129,0.221075,-0.174593,0.079045,225.482,-17.5723)">
                    <ellipse cx="621.368" cy="81.007" rx="0.649" ry="0.642"/>
                </g>
                <g transform="matrix(0.284129,0.221075,-0.174593,0.079045,225.482,-17.5723)">
                    <path d="M621.659,80.436C621.872,80.539 622.017,80.756 622.017,81.007C622.017,81.295 621.826,81.539 621.561,81.617C621.643,81.406 621.736,81.244 621.681,81.007C621.643,80.834 621.654,80.629 621.659,80.436ZM621.327,81.645C621.341,81.626 621.355,81.608 621.368,81.594L621.368,81.65L621.327,81.645Z"/>
                </g>
                <g transform="matrix(0.284129,0.221075,-0.174593,0.079045,225.512,-17.1413)">
                    <ellipse cx="621.368" cy="81.007" rx="0.649" ry="0.642"/>
                </g>
                <g transform="matrix(0.284129,0.221075,-0.174593,0.079045,225.512,-17.1413)">
                    <path d="M621.659,80.436C621.872,80.539 622.017,80.756 622.017,81.007C622.017,81.295 621.826,81.539 621.561,81.617C621.643,81.406 621.736,81.244 621.681,81.007C621.643,80.834 621.654,80.629 621.659,80.436ZM621.327,81.645C621.341,81.626 621.355,81.608 621.368,81.594L621.368,81.65L621.327,81.645Z"/>
                </g>
                <g transform="matrix(0.284129,0.221075,-0.174593,0.079045,226.23,-16.98)">
                    <ellipse cx="621.368" cy="81.007" rx="0.649" ry="0.642"/>
                </g>
                <g transform="matrix(0.284129,0.221075,-0.174593,0.079045,226.23,-16.98)">
                    <path d="M621.659,80.436C621.872,80.539 622.017,80.756 622.017,81.007C622.017,81.295 621.826,81.539 621.561,81.617C621.643,81.406 621.736,81.244 621.681,81.007C621.643,80.834 621.654,80.629 621.659,80.436ZM621.327,81.645C621.341,81.626 621.355,81.608 621.368,81.594L621.368,81.65L621.327,81.645Z"/>
                </g>
                <g transform="matrix(0.284129,0.221075,-0.174593,0.079045,226.339,-16.5316)">
                    <ellipse cx="621.368" cy="81.007" rx="0.649" ry="0.642"/>
                </g>
                <g transform="matrix(0.284129,0.221075,-0.174593,0.079045,226.339,-16.5316)">
                    <path d="M621.659,80.436C621.872,80.539 622.017,80.756 622.017,81.007C622.017,81.295 621.826,81.539 621.561,81.617C621.643,81.406 621.736,81.244 621.681,81.007C621.643,80.834 621.654,80.629 621.659,80.436ZM621.327,81.645C621.341,81.626 621.355,81.608 621.368,81.594L621.368,81.65L621.327,81.645Z"/>
                </g>
                <g transform="matrix(0.601804,0,0,0.357184,-130.727,21.7015)">
                    <path d="M863.147,291.279C863.051,291.251 862.918,291.21 862.761,291.169C862.627,291.133 862.479,291.097 862.323,291.064C861.991,290.994 861.649,290.934 861.386,290.891C861.212,290.863 861.084,290.849 861.019,290.84C860.956,290.831 860.947,290.889 860.949,290.933C860.932,290.825 860.897,290.845 860.885,290.879C860.871,290.918 860.892,290.96 860.93,290.973L860.954,290.977C860.954,290.977 861.079,291.067 861.284,291.182C861.516,291.313 861.821,291.479 862.125,291.631C862.267,291.702 862.406,291.766 862.533,291.822C862.706,291.898 862.855,291.956 862.948,291.994C863.028,292.025 863.113,292.036 863.197,292.032C863.281,292.029 863.365,292.006 863.442,291.969C863.442,291.969 863.442,291.969 863.442,291.969C863.552,291.911 863.747,291.814 863.984,291.681C864.22,291.549 864.494,291.385 864.779,291.211C865.715,290.638 866.736,289.972 866.736,289.972C866.743,289.968 866.746,289.96 866.742,289.953C866.739,289.946 866.731,289.943 866.724,289.947C866.724,289.947 865.568,290.335 864.539,290.714C864.225,290.83 863.927,290.944 863.677,291.047C863.448,291.141 863.264,291.227 863.147,291.279Z"/>
                </g>
                <g transform="matrix(0.601804,0,0,0.357184,-130.972,21.6305)">
                    <path d="M865.011,293.41C865.093,293.352 865.209,293.275 865.343,293.176C865.566,293.012 865.839,292.8 866.124,292.573C866.915,291.94 867.759,291.22 867.759,291.22C867.766,291.216 867.768,291.207 867.764,291.201C867.76,291.194 867.751,291.192 867.745,291.196C867.745,291.196 866.738,291.662 865.832,292.117C865.506,292.28 865.199,292.44 864.957,292.574C864.804,292.658 864.68,292.735 864.593,292.786C864.503,292.844 864.427,292.92 864.374,293.009C864.321,293.098 864.285,293.199 864.277,293.305L864.259,293.723C864.256,293.917 864.258,294.136 864.268,294.354C864.294,294.906 864.353,295.413 864.353,295.413C864.349,295.454 864.378,295.49 864.419,295.494C864.459,295.499 864.495,295.469 864.5,295.429C864.5,295.429 864.663,294.946 864.804,294.411C864.86,294.199 864.907,293.986 864.945,293.796C864.975,293.644 864.994,293.51 865.011,293.41Z"/>
                </g>
            </g>
        </g>
    </g>
</svg>
