<?xml version="1.0" encoding="UTF-8" standalone="no"?>
<!DOCTYPE svg PUBLIC "-//W3C//DTD SVG 1.1//EN" "http://www.w3.org/Graphics/SVG/1.1/DTD/svg11.dtd">
<svg width="100%" height="100%" viewBox="0 0 31 31" version="1.1" xmlns="http://www.w3.org/2000/svg" xmlns:xlink="http://www.w3.org/1999/xlink" xml:space="preserve" xmlns:serif="http://www.serif.com/" style="fill-rule:evenodd;clip-rule:evenodd;stroke-linejoin:round;stroke-miterlimit:2;">
    <g transform="matrix(1,0,0,1,-787,-1484)">
        <g id="ic_category_groups_income" transform="matrix(1.00067,0,0,1.00042,-0.532838,-1.42961)">
            <rect x="788" y="1484.88" width="29.082" height="30.236" style="fill:none;"/>
            <g transform="matrix(1.7684,0,0,2.98025,-77.9602,1148.91)">
                <g transform="matrix(0.45543,0,0,0.204649,284.539,87.8384)">
                    <path d="M466.912,136.297C466.912,136.297 465.005,140.727 463.844,145.295C463.248,147.638 462.861,149.997 462.96,151.797C462.982,152.179 463.023,152.552 463.086,152.919C463.148,153.287 463.229,153.644 463.331,153.994C463.338,154.029 463.367,154.05 463.393,154.039C463.42,154.029 463.435,153.991 463.427,153.956C463.369,153.6 463.332,153.241 463.313,152.876C463.294,152.518 463.297,152.16 463.318,151.797C463.412,150.081 464.061,147.95 464.833,145.826C466.36,141.623 468.458,137.566 468.458,137.566C468.723,137.002 468.592,136.261 468.165,135.911C467.739,135.56 467.177,135.733 466.912,136.297Z"/>
                </g>
                <g transform="matrix(0.45543,0,0,0.204649,284.759,87.9305)">
                    <path d="M482.233,155.762C482.547,155.178 482.799,154.563 482.989,153.906C483.185,153.232 483.301,152.531 483.353,151.797C483.426,150.596 483.275,149.106 482.96,147.503C482.787,146.622 482.563,145.713 482.302,144.809C480.928,140.067 478.744,135.425 478.744,135.425C478.5,134.903 477.98,134.742 477.585,135.065C477.19,135.389 477.068,136.075 477.313,136.596C477.313,136.596 479.407,141.082 480.975,145.548C481.345,146.602 481.701,147.64 481.983,148.633C482.315,149.798 482.572,150.867 482.63,151.797C482.678,152.462 482.661,153.112 482.577,153.755C482.49,154.419 482.345,155.061 482.134,155.687C482.118,155.723 482.128,155.769 482.155,155.79C482.182,155.81 482.217,155.798 482.233,155.762Z"/>
                </g>
                <g transform="matrix(0.565107,0,0,0.286927,234.978,75.7452)">
                    <path d="M472.951,137.79L472.954,137.791L472.973,137.768C472.98,137.627 472.963,137.487 472.924,137.356C472.884,137.221 472.821,137.097 472.739,136.989C472.655,136.877 472.553,136.79 472.441,136.727C472.326,136.662 472.201,136.626 472.072,136.617C471.104,136.556 469.504,136.446 468.061,136.365C466.95,136.302 465.938,136.259 465.387,136.232C465.142,136.222 464.923,136.343 464.757,136.523C464.589,136.706 464.493,136.971 464.483,137.26L464.483,137.262C464.476,137.548 464.577,137.808 464.731,138.005C464.886,138.203 465.11,138.322 465.357,138.339C465.772,138.355 466.457,138.399 467.253,138.41C467.848,138.418 468.502,138.406 469.15,138.39C469.539,138.381 469.922,138.366 470.29,138.347C471.764,138.27 472.951,138.172 472.951,138.172C473.005,138.174 473.051,138.125 473.052,138.062C473.054,137.998 473.012,137.945 472.958,137.943C472.958,137.943 471.778,137.755 470.312,137.566C469.946,137.518 469.564,137.474 469.177,137.435C468.531,137.37 467.879,137.308 467.284,137.271C466.942,137.249 466.619,137.235 466.329,137.225C466.83,137.2 467.43,137.168 468.062,137.13C469.505,137.042 471.104,136.925 472.072,136.859C472.177,136.852 472.28,136.867 472.378,136.906C472.478,136.946 472.571,137.007 472.652,137.09C472.735,137.176 472.802,137.278 472.85,137.392C472.899,137.509 472.929,137.636 472.936,137.768L472.936,137.768L472.936,137.769C472.936,137.779 472.942,137.788 472.951,137.79Z"/>
                </g>
                <g transform="matrix(0.565107,0,0,0.286927,234.978,75.7452)">
                    <path d="M465.414,132.349L466.9,133.545C467.21,133.761 467.598,133.756 467.903,133.531C468.209,133.305 468.381,132.899 468.347,132.478L468.264,131.178L469.831,131.075L469.829,132.582C469.808,132.917 469.965,133.232 470.223,133.377C470.482,133.522 470.79,133.467 471.001,133.239L472.194,131.726L472.147,131.681C472.147,131.681 472.863,132.175 472.863,132.175C473.002,132.271 473.114,132.405 473.154,132.575C473.2,132.763 473.204,132.971 473.119,133.156C473.119,133.156 471.746,136.195 471.746,136.195C471.735,136.215 471.74,136.242 471.757,136.255C471.774,136.268 471.797,136.262 471.808,136.242L473.626,133.542C473.848,133.211 473.913,132.804 473.879,132.415C473.844,132.006 473.656,131.634 473.369,131.347L472.738,130.715C472.551,130.532 472.315,130.47 472.086,130.466C471.862,130.462 471.649,130.57 471.461,130.736L471.461,130.734C471.487,130.519 471.451,130.307 471.402,130.102C471.352,129.896 471.246,129.715 471.126,129.547C471.004,129.378 470.843,129.261 470.677,129.165C470.51,129.069 470.321,129.036 470.131,129.026C470.131,129.026 467.182,128.919 467.182,128.919C466.904,128.923 466.64,129.062 466.454,129.304C466.268,129.545 466.177,129.866 466.203,130.19L466.244,130.638L466.171,130.594C465.949,130.465 465.716,130.373 465.478,130.398C465.244,130.423 465.006,130.48 464.812,130.652L464.516,130.914C464.331,131.079 464.159,131.257 464.045,131.489C463.934,131.714 463.835,131.951 463.807,132.215C463.784,132.473 463.773,132.728 463.835,132.972C463.895,133.208 463.967,133.442 464.103,133.637L465.884,136.122C465.942,136.229 466.063,136.262 466.155,136.194C466.246,136.127 466.274,135.985 466.216,135.878L465.074,132.924C465.05,132.864 465.065,132.796 465.063,132.731C465.061,132.674 465.098,132.626 465.115,132.571L465.305,132.411L465.414,132.349ZM465.499,132.301C465.547,132.3 465.587,132.253 465.633,132.225L465.499,132.301ZM469.831,130.74L469.832,130.598C469.832,130.646 469.82,130.696 469.831,130.74Z"/>
                </g>
                <g transform="matrix(0.521893,0,0,0.309755,203.163,63.7047)">
                    <path d="M554.151,186.467L554.416,178.08C554.429,177.642 554.25,177.245 553.971,176.949C553.688,176.648 553.285,176.468 552.84,176.454C552.84,176.454 551.032,176.398 551.032,176.398C550.808,176.391 550.588,176.436 550.382,176.514C550.175,176.592 549.987,176.717 549.822,176.872C549.656,177.028 549.531,177.218 549.439,177.422C549.347,177.628 549.302,177.852 549.295,178.082L549.016,188.917C549.005,189.472 549.233,189.975 549.588,190.348C549.947,190.724 550.454,190.95 551.014,190.966L553.358,191.029C553.718,191.037 554.066,190.945 554.375,190.783C554.686,190.62 554.951,190.375 555.15,190.073C555.15,190.073 555.884,188.959 555.884,188.959C555.884,188.959 559.327,190.428 559.327,190.428C559.46,190.484 559.598,190.526 559.738,190.554C559.879,190.583 560.023,190.597 560.167,190.597L568.682,190.46C568.839,190.456 568.995,190.439 569.146,190.399C569.297,190.36 569.445,190.309 569.583,190.236L579.108,185.121C579.553,184.879 579.92,184.53 580.159,184.105C580.395,183.687 580.527,183.207 580.503,182.708C580.503,182.708 580.503,182.706 580.503,182.706C580.488,182.398 580.408,182.1 580.255,181.842C580.105,181.587 579.902,181.361 579.643,181.201C579.388,181.043 579.106,180.943 578.815,180.922C578.529,180.902 578.236,180.94 577.965,181.058C577.965,181.058 569.852,184.611 569.852,184.611C569.831,184.619 569.821,184.642 569.829,184.663C569.837,184.683 569.86,184.694 569.881,184.686L578.268,181.838C578.413,181.788 578.567,181.783 578.715,181.806C578.858,181.829 578.993,181.893 579.113,181.982C579.23,182.068 579.314,182.186 579.375,182.313C579.435,182.436 579.456,182.574 579.451,182.715L579.451,182.717C579.442,183.006 579.341,183.277 579.187,183.509C579.037,183.734 578.819,183.91 578.563,184.026C578.563,184.026 568.739,188.54 568.739,188.54C568.739,188.54 568.679,188.542 568.679,188.542L560.163,188.432L555.895,186.675C555.424,186.478 554.878,186.648 554.602,187.078L553.426,188.969C553.426,188.969 553.375,189.011 553.375,189.011L551.031,189.033C550.996,189.033 550.96,189.033 550.937,189.01C550.911,188.985 550.883,188.956 550.882,188.917C550.882,188.917 550.6,178.082 550.6,178.082C550.598,178.024 550.6,177.965 550.621,177.912C550.642,177.857 550.667,177.803 550.708,177.759C550.75,177.714 550.796,177.673 550.851,177.648C550.908,177.623 550.968,177.602 551.031,177.6L552.838,177.548C552.99,177.544 553.132,177.59 553.234,177.687C553.341,177.787 553.419,177.924 553.424,178.083C553.424,178.083 553.727,186.468 553.727,186.468C553.727,186.585 553.822,186.68 553.939,186.68C554.057,186.68 554.152,186.585 554.151,186.467Z"/>
                </g>
                <g transform="matrix(0.521893,0,0,0.309755,203.163,63.7047)">
                    <path d="M568.566,184.529L563.508,184.87C563.449,184.871 563.402,184.92 563.403,184.978C563.404,185.037 563.453,185.084 563.511,185.083L568.624,185.252C568.818,185.258 568.992,185.172 569.124,185.05C569.259,184.925 569.333,184.744 569.342,184.546L569.342,184.54C569.378,183.565 569.02,182.663 568.415,181.983C567.799,181.29 566.916,180.845 565.925,180.764C565.42,180.733 564.895,180.695 564.382,180.67C563.839,180.643 563.31,180.63 562.838,180.612C562.306,180.601 561.782,180.522 561.276,180.377C560.762,180.231 560.266,180.028 559.802,179.754C559.802,179.753 559.802,179.753 559.802,179.753C558.968,179.275 557.888,178.716 556.842,178.393C556.057,178.151 555.302,178.04 554.695,178.184C554.684,178.186 554.677,178.197 554.678,178.207C554.68,178.218 554.691,178.226 554.701,178.224C555.3,178.166 556.005,178.374 556.724,178.702C557.688,179.141 558.663,179.798 559.407,180.354C559.898,180.713 560.432,181.003 560.996,181.218C561.566,181.435 562.166,181.566 562.779,181.625C562.779,181.625 562.779,181.625 562.779,181.625C563.25,181.662 563.777,181.71 564.32,181.746C564.832,181.78 565.358,181.803 565.863,181.83C566.589,181.856 567.242,182.159 567.721,182.638C568.212,183.127 568.536,183.787 568.566,184.529Z"/>
                </g>
                <g transform="matrix(-0.00271377,0.386923,-0.555195,-0.00189126,532.549,-73.2165)">
                    <path d="M491.365,59.998C491.365,59.998 491.362,58.498 491.299,56.798C491.216,54.565 491.041,51.999 491.041,51.999C491.04,51.899 490.97,51.817 490.885,51.818C490.799,51.818 490.73,51.9 490.73,52.001C490.73,52.001 490.581,54.568 490.519,56.802C490.473,58.502 490.484,60.002 490.484,60.002C490.486,60.287 490.684,60.518 490.927,60.517C491.17,60.516 491.366,60.283 491.365,59.998Z"/>
                </g>
                <g transform="matrix(-0.00161234,0.229885,-0.32986,-0.00112366,519.702,4.74578)">
                    <path d="M491.666,59.996C491.666,59.996 491.666,58.495 491.565,56.797C491.432,54.554 491.147,51.999 491.147,51.999C491.146,51.829 491.028,51.693 490.884,51.693C490.74,51.694 490.623,51.832 490.624,52.001C490.624,52.001 490.364,54.559 490.253,56.803C490.169,58.502 490.184,60.004 490.184,60.004C490.186,60.484 490.52,60.872 490.929,60.87C491.338,60.868 491.668,60.477 491.666,59.996Z"/>
                </g>
                <g transform="matrix(0.632024,0,0,0.37512,60.6792,67.4209)">
                    <path d="M694.824,131.253C694.821,131.233 694.82,131.217 694.813,131.219C694.776,131.229 694.793,131.242 694.824,131.253C694.825,131.26 694.826,131.268 694.828,131.275C694.856,131.375 694.9,131.572 694.97,131.846C695.07,132.239 695.181,132.753 695.271,133.289C695.325,133.615 695.358,133.938 695.359,134.234C695.359,134.452 695.347,134.646 695.233,134.776C695.136,134.885 694.969,134.905 694.72,134.897C694.34,134.884 693.847,134.797 693.211,134.581C692.995,134.494 692.748,134.555 692.597,134.733C692.446,134.91 692.427,135.165 692.549,135.364C693.048,136.055 693.612,136.749 694.182,137.383C695.568,138.927 696.9,140.107 696.9,140.107C696.909,140.117 696.925,140.117 696.935,140.108C696.945,140.099 696.945,140.083 696.936,140.073C696.936,140.073 696.07,138.96 695.086,137.487C694.791,137.045 694.487,136.574 694.195,136.091C694.502,136.164 694.767,136.195 694.994,136.191C695.581,136.184 695.979,135.959 696.241,135.658C696.47,135.395 696.612,135.05 696.634,134.65C696.655,134.277 696.594,133.849 696.448,133.422C696.328,133.071 696.174,132.722 695.992,132.404C695.809,132.084 695.622,131.811 695.454,131.587C695.284,131.363 695.152,131.211 695.085,131.134C695.065,131.111 695.053,131.097 695.046,131.09C695.004,131.044 694.977,131.066 694.959,131.108C694.96,131.013 694.907,131.009 694.862,131.034C694.799,131.069 694.776,131.149 694.811,131.213L694.926,131.28C694.926,131.28 694.863,131.268 694.824,131.253Z"/>
                </g>
            </g>
        </g>
    </g>
</svg>
