<?xml version="1.0" encoding="UTF-8" standalone="no"?>
<!DOCTYPE svg PUBLIC "-//W3C//DTD SVG 1.1//EN" "http://www.w3.org/Graphics/SVG/1.1/DTD/svg11.dtd">
<svg width="100%" height="100%" viewBox="0 0 32 31" version="1.1" xmlns="http://www.w3.org/2000/svg" xmlns:xlink="http://www.w3.org/1999/xlink" xml:space="preserve" xmlns:serif="http://www.serif.com/" style="fill-rule:evenodd;clip-rule:evenodd;stroke-linejoin:round;stroke-miterlimit:2;">
    <g transform="matrix(1,0,0,1,-664,-1484)">
        <g id="ic_category_groups_subscription_services" transform="matrix(0.800257,0,0,0.794578,135.837,307.76)">
            <rect x="660.533" y="1480.42" width="39.298" height="38.558" style="fill:none;"/>
            <g transform="matrix(2.21126,0,0,3.75229,-57.2857,1060.79)">
                <g transform="matrix(-0.22714,-0.113654,0.199854,-0.1407,434.945,198.45)">
                    <path d="M560.301,96.111C564.899,96.349 568.927,98.359 571.803,101.385C574.565,104.291 576.206,108.171 576.032,112.405C575.953,116.533 574.083,120.195 571.246,122.893C568.419,125.58 564.593,127.335 560.301,127.379C555.957,127.478 551.893,125.893 548.911,123.247C545.847,120.528 543.889,116.724 543.944,112.446C543.983,108.004 545.36,104.32 547.942,101.528C550.508,98.755 554.218,96.855 558.929,95.936C559.008,95.923 559.062,95.851 559.049,95.774C559.036,95.698 558.96,95.646 558.88,95.659C553.923,96.287 549.945,98.039 547.079,100.743C544.049,103.601 542.277,107.526 541.899,112.365C541.533,117.321 543.543,121.865 546.922,125.199C550.31,128.542 555.102,130.616 560.301,130.735C565.6,130.789 570.465,128.806 573.928,125.463C577.383,122.128 579.424,117.47 579.327,112.405C579.123,107.443 576.926,102.984 573.371,99.882C569.933,96.881 565.307,95.138 560.301,95.396C560.095,95.396 559.928,95.556 559.928,95.754C559.928,95.951 560.095,96.111 560.301,96.111Z"/>
                </g>
                <g transform="matrix(-0.22714,-0.113654,0.199854,-0.1407,441.584,194.724)">
                    <path d="M572.031,100.613C573.555,102.215 574.716,104.103 575.481,106.176C576.199,108.12 576.522,110.218 576.383,112.405C576.301,114.056 575.921,115.62 575.353,117.091C574.483,119.343 573.068,121.319 571.298,122.942C569.837,124.282 568.119,125.355 566.223,126.11C564.394,126.839 562.404,127.291 560.301,127.316C555.964,127.436 551.904,125.873 548.909,123.25C545.812,120.538 543.811,116.74 543.83,112.442C543.831,109.402 544.451,106.713 545.662,104.409C546.979,101.902 548.966,99.854 551.574,98.31C551.644,98.273 551.669,98.187 551.63,98.12C551.59,98.052 551.501,98.028 551.431,98.066C548.574,99.444 546.325,101.413 544.724,103.908C543.206,106.273 542.296,109.108 542.014,112.369C541.607,117.308 543.579,121.851 546.925,125.197C550.296,128.567 555.094,130.654 560.301,130.799C562.909,130.829 565.411,130.376 567.681,129.474C570.032,128.54 572.139,127.144 573.877,125.413C574.917,124.376 575.832,123.221 576.576,121.963C578.24,119.148 579.133,115.872 578.976,112.405C578.819,109.929 578.181,107.601 577.075,105.521C575.957,103.417 574.417,101.579 572.546,100.095C572.397,99.959 572.161,99.964 572.019,100.107C571.876,100.25 571.882,100.477 572.031,100.613Z"/>
                </g>
                <g transform="matrix(-0.00292452,0.416972,-0.598312,-0.00203814,371.741,-90.9077)">
                    <path d="M491.415,59.998C491.415,59.998 491.412,58.497 491.343,56.798C491.252,54.564 491.058,51.999 491.058,51.999C491.058,51.887 490.98,51.797 490.885,51.797C490.789,51.798 490.712,51.889 490.713,52.001C490.713,52.001 490.545,54.567 490.475,56.802C490.422,58.502 490.434,60.002 490.434,60.002C490.436,60.32 490.657,60.577 490.927,60.576C491.198,60.574 491.416,60.315 491.415,59.998Z"/>
                </g>
                <g transform="matrix(-0.00173756,0.247738,-0.355478,-0.00121093,357.896,-6.89069)">
                    <path d="M491.75,59.996C491.75,59.996 491.75,58.494 491.639,56.796C491.492,54.55 491.176,51.999 491.176,51.999C491.176,51.81 491.044,51.658 490.884,51.658C490.723,51.659 490.594,51.813 490.595,52.001C490.595,52.001 490.304,54.555 490.179,56.804C490.084,58.502 490.1,60.004 490.1,60.004C490.102,60.539 490.474,60.971 490.929,60.969C491.385,60.967 491.752,60.531 491.75,59.996Z"/>
                </g>
                <g transform="matrix(0.681108,0,0,0.404252,-136.775,60.6519)">
                    <path d="M694.81,131.263C694.807,131.242 694.807,131.224 694.8,131.226C694.758,131.236 694.776,131.25 694.81,131.263L694.813,131.283C694.839,131.384 694.877,131.582 694.941,131.859C695.034,132.255 695.131,132.768 695.213,133.307C695.263,133.629 695.289,133.947 695.287,134.239C695.286,134.435 695.279,134.61 695.176,134.726C695.091,134.821 694.944,134.831 694.726,134.824C694.35,134.813 693.863,134.733 693.234,134.524C692.994,134.427 692.718,134.495 692.55,134.693C692.383,134.891 692.361,135.175 692.497,135.396C693.004,136.085 693.573,136.776 694.15,137.407C695.553,138.942 696.898,140.109 696.898,140.109C696.908,140.12 696.926,140.12 696.937,140.11C696.948,140.099 696.948,140.082 696.938,140.071C696.938,140.071 696.084,138.95 695.112,137.466C694.847,137.06 694.574,136.63 694.309,136.188C694.57,136.244 694.798,136.267 694.998,136.265C695.61,136.26 696.024,136.022 696.298,135.708C696.537,135.434 696.688,135.074 696.708,134.658C696.727,134.277 696.665,133.841 696.512,133.408C696.386,133.053 696.228,132.704 696.039,132.386C695.849,132.066 695.657,131.797 695.481,131.574C695.305,131.35 695.17,131.203 695.099,131.126C695.021,131.041 694.966,131.164 694.942,131.241C695.003,131.004 694.921,130.984 694.855,131.021C694.784,131.06 694.759,131.149 694.798,131.22L694.926,131.295C694.926,131.295 694.854,131.28 694.81,131.263Z"/>
                </g>
                <g transform="matrix(0.287257,0.460416,-0.369964,0.0793311,210.408,-111.893)">
                    <path d="M491.387,59.98C491.387,59.98 491.371,58.419 491.289,56.655C491.182,54.323 490.976,51.675 490.976,51.675C490.974,51.486 490.899,51.335 490.809,51.339C490.719,51.343 490.648,51.5 490.65,51.689C490.65,51.689 490.516,54.351 490.471,56.69C490.437,58.459 490.462,60.02 490.462,60.02C490.469,60.556 490.682,60.983 490.938,60.973C491.193,60.962 491.394,60.517 491.387,59.98Z"/>
                </g>
                <g transform="matrix(0.499145,0,0,0.296253,-76.9195,37.1136)">
                    <path d="M814.007,273.461C814.627,273.27 815.587,272.978 816.56,272.66C817.331,272.408 818.109,272.138 818.743,271.918C818.769,272.646 818.801,273.565 818.846,274.515C818.948,276.665 819.094,278.96 819.127,279.565L819.119,279.704L819.144,279.666C818.888,280.078 818.327,280.358 817.771,280.411C817.209,280.465 816.634,280.33 816.401,279.798C816.271,279.144 816.567,278.718 816.997,278.47C817.584,278.13 818.37,278.078 818.788,278.25C818.808,278.26 818.833,278.252 818.844,278.231C818.854,278.21 818.846,278.185 818.825,278.175C818.314,277.864 817.173,277.829 816.442,278.322C815.973,278.638 815.682,279.162 815.746,279.944C815.749,279.963 815.754,279.982 815.76,280C816.003,280.93 816.869,281.345 817.796,281.386C818.712,281.425 819.659,281.018 820.168,280.405C820.177,280.392 820.185,280.38 820.193,280.367C820.275,280.25 820.33,280.119 820.377,279.986C820.425,279.851 820.442,279.709 820.451,279.565C820.485,278.961 820.634,276.666 820.739,274.517C820.803,273.189 820.843,271.922 820.875,271.15C820.875,271.15 820.875,271.15 820.875,271.15C820.881,270.889 820.812,270.637 820.703,270.407C820.592,270.177 820.418,269.981 820.209,269.822C819.999,269.662 819.752,269.57 819.5,269.524C819.247,269.479 818.984,269.506 818.73,269.583C818.73,269.583 818.73,269.583 818.73,269.583C818.035,269.808 816.925,270.151 815.847,270.514C814.682,270.907 813.553,271.319 812.988,271.517C812.988,271.517 812.988,271.517 812.988,271.517C812.659,271.635 812.378,271.839 812.189,272.113C812.001,272.385 811.883,272.711 811.891,273.058C811.891,273.058 812.206,281.567 812.206,281.567C812.206,281.571 812.206,281.574 812.206,281.578L812.151,281.757L812.181,281.741C811.7,282.017 811.01,282.137 810.418,282.046C809.861,281.96 809.349,281.728 809.39,281.157C809.425,280.629 809.755,280.312 810.18,280.156C810.688,279.969 811.302,279.967 811.789,280.097C811.905,280.136 812.031,280.073 812.069,279.957C812.108,279.84 812.045,279.715 811.929,279.676C811.241,279.401 810.3,279.352 809.592,279.663C809.051,279.9 808.656,280.35 808.525,281.048C808.355,281.971 808.885,282.603 809.678,282.967C810.586,283.382 811.896,283.345 812.793,282.948C812.803,282.942 812.813,282.937 812.823,282.931C813.075,282.804 813.269,282.601 813.418,282.373C813.57,282.141 813.641,281.864 813.656,281.578C813.705,280.802 813.802,279.062 813.875,277.32C813.937,275.828 813.98,274.34 814.007,273.461Z"/>
                </g>
            </g>
        </g>
    </g>
</svg>
