<?xml version="1.0" encoding="UTF-8" standalone="no"?>
<!DOCTYPE svg PUBLIC "-//W3C//DTD SVG 1.1//EN" "http://www.w3.org/Graphics/SVG/1.1/DTD/svg11.dtd">
<svg width="100%" height="100%" viewBox="0 0 30 26" version="1.1" xmlns="http://www.w3.org/2000/svg" xmlns:xlink="http://www.w3.org/1999/xlink" xml:space="preserve" xmlns:serif="http://www.serif.com/" style="fill-rule:evenodd;clip-rule:evenodd;stroke-linejoin:round;stroke-miterlimit:2;">
    <g transform="matrix(1,0,0,1,-659,-800)">
        <g id="ic_category_entertainment_standup_comedy" transform="matrix(0.972817,0,0,0.912034,18.7458,64.5989)">
            <rect x="658.402" y="807.298" width="30.553" height="27.12" style="fill:none;"/>
            <g transform="matrix(1.81902,0,0,1.55805,-174.458,564.855)">
                <g transform="matrix(-0.539933,0.207701,0.166787,0.672382,840.329,-111.286)">
                    <path d="M744.905,171.81C747.383,171.063 749.864,170.62 752.356,170.483C754.889,170.344 757.424,170.529 759.968,171.006C759.969,171.007 759.971,171.007 759.972,171.007C760.48,171.109 760.911,171.391 761.227,171.766C761.547,172.144 761.727,172.634 761.742,173.158C761.742,173.157 761.898,179.997 761.898,179.997C761.916,181.409 761.602,182.787 760.994,184.02C760.384,185.256 759.475,186.343 758.341,187.191C758.341,187.191 755.611,189.164 755.611,189.164C754.813,189.728 753.883,190.013 752.954,189.988C752.039,189.963 751.127,189.664 750.371,189.065C750.371,189.065 747.743,186.956 747.743,186.956C746.687,186.099 745.851,185.03 745.309,183.822C744.776,182.636 744.511,181.331 744.571,179.997C744.571,179.997 744.917,172.898 744.917,172.898C744.917,172.878 744.934,172.861 744.954,172.861C744.975,172.861 744.991,172.878 744.991,172.898L745.337,179.997C745.391,181.184 745.731,182.318 746.293,183.329C746.843,184.319 747.621,185.177 748.58,185.835L751.349,187.757C751.829,188.095 752.396,188.241 752.954,188.226C753.5,188.211 754.036,188.014 754.487,187.658C754.487,187.658 757.153,185.601 757.153,185.601C758.037,184.941 758.734,184.088 759.221,183.131C759.711,182.171 759.996,181.104 760.011,179.997L760.16,173.158C760.165,172.996 760.126,172.839 760.034,172.716C759.938,172.589 759.808,172.482 759.644,172.44C757.237,171.818 754.815,171.489 752.374,171.448C749.931,171.407 747.478,171.646 745.004,172.19C744.899,172.217 744.792,172.154 744.764,172.049C744.737,171.945 744.8,171.837 744.905,171.81Z"/>
                </g>
                <g transform="matrix(-0.565107,0,0,0.703731,895.404,35.6822)">
                    <path d="M744.905,171.81C747.383,171.061 749.863,170.614 752.355,170.478C754.889,170.339 757.423,170.53 759.967,171.011C759.968,171.011 759.97,171.011 759.971,171.012C760.479,171.111 760.909,171.394 761.226,171.767C761.547,172.145 761.727,172.634 761.743,173.158C761.743,173.155 761.799,174.946 761.799,174.946C761.799,175.413 761.421,175.791 760.954,175.791C760.488,175.791 760.109,175.413 760.109,174.946L760.159,173.158C760.164,172.996 760.127,172.838 760.035,172.715C759.939,172.587 759.809,172.479 759.645,172.436C757.237,171.817 754.815,171.494 752.374,171.454C749.932,171.413 747.479,171.648 745.004,172.19C744.899,172.217 744.792,172.154 744.764,172.049C744.737,171.945 744.8,171.837 744.905,171.81Z"/>
                </g>
                <g transform="matrix(-0.565107,0,0,0.703731,895.404,35.6822)">
                    <path d="M756.323,188.674L756.323,188.674L755.621,189.177C754.823,189.75 753.888,190.04 752.954,190.02C752.031,190 751.11,189.7 750.345,189.1C750.345,189.1 747.725,186.98 747.725,186.98C746.671,186.115 745.839,185.04 745.3,183.827C744.772,182.637 744.507,181.332 744.571,179.997C744.571,179.997 744.917,172.898 744.917,172.898C744.917,172.878 744.934,172.861 744.954,172.861C744.975,172.861 744.991,172.878 744.991,172.898L745.338,179.997C745.394,181.184 745.736,182.316 746.302,183.325C746.854,184.31 747.638,185.16 748.598,185.811L751.374,187.722C751.846,188.058 752.404,188.206 752.954,188.194C753.494,188.183 754.028,187.994 754.476,187.645C754.758,187.426 754.987,187.248 755.096,187.163C756.023,186.443 755.748,188.862 755.748,188.862C756.285,186.916 756.721,187.352 756.721,187.889C756.721,188.211 756.564,188.497 756.323,188.674Z"/>
                </g>
                <g transform="matrix(0.539834,-0.208099,0.167107,0.672259,17.6824,195.009)">
                    <path d="M761.013,192.078C761.358,191.928 761.668,191.858 761.987,191.795C762.198,191.754 762.395,191.749 762.596,191.74C762.741,191.733 762.882,191.745 763.026,191.747C763.17,191.749 763.312,191.74 763.46,191.749C763.696,191.762 763.921,191.767 764.174,191.819C764.431,191.871 764.666,191.916 764.943,192.015C764.951,192.021 764.963,192.019 764.969,192.011C764.975,192.003 764.974,191.991 764.965,191.985C764.784,191.731 764.618,191.536 764.411,191.347C764.257,191.206 764.102,191.105 763.931,191.008C763.748,190.903 763.561,190.835 763.364,190.787C763.23,190.755 763.091,190.744 762.954,190.747C762.783,190.75 762.613,190.776 762.446,190.823C762.285,190.87 762.13,190.925 761.977,191.007C761.847,191.075 761.724,191.145 761.602,191.238C761.349,191.43 761.125,191.643 760.895,191.922C760.852,191.954 760.843,192.016 760.876,192.059C760.909,192.102 760.97,192.111 761.013,192.078Z"/>
                </g>
                <g transform="matrix(0.565107,-1.66533e-16,5.27356e-16,0.703731,36.714,25.5628)">
                    <path d="M761.984,191.806C762.206,191.751 762.414,191.74 762.62,191.726C762.755,191.718 762.885,191.725 763.016,191.728C763.123,191.731 763.229,191.738 763.336,191.744C763.449,191.751 763.558,191.74 763.674,191.75C763.878,191.768 764.069,191.776 764.289,191.828C764.509,191.879 764.706,191.925 764.943,192.014C764.951,192.021 764.962,192.02 764.969,192.012C764.975,192.004 764.974,191.992 764.966,191.986C764.736,191.638 764.52,191.391 764.248,191.164C764.101,191.041 763.95,190.96 763.787,190.879C763.714,190.842 763.641,190.818 763.564,190.794C763.462,190.763 763.357,190.745 763.251,190.736C763.094,190.721 762.934,190.725 762.775,190.751C762.417,190.811 762.07,190.948 761.715,191.154C761.535,191.229 761.449,191.435 761.524,191.615C761.598,191.795 761.804,191.881 761.984,191.806Z"/>
                </g>
                <g transform="matrix(-1.15331,0.444585,-0.333078,-1.33995,1408.3,85.6974)">
                    <path d="M760.981,192.04C761.315,191.845 761.639,191.715 761.959,191.623C762.162,191.566 762.36,191.531 762.558,191.511C762.691,191.498 762.823,191.496 762.955,191.496C763.087,191.497 763.218,191.503 763.351,191.516C763.483,191.529 763.616,191.544 763.751,191.571C763.911,191.604 764.07,191.644 764.234,191.7C764.47,191.78 764.705,191.875 764.949,192.008C764.953,192.011 764.959,192.01 764.961,192.005C764.964,192.001 764.963,191.995 764.959,191.992C764.755,191.783 764.554,191.608 764.339,191.46C764.181,191.351 764.021,191.265 763.857,191.192C763.712,191.127 763.566,191.078 763.417,191.045C763.264,191.01 763.109,190.994 762.954,190.995C762.8,190.997 762.646,191.016 762.493,191.051C762.344,191.084 762.198,191.13 762.052,191.191C761.81,191.294 761.574,191.43 761.341,191.605C761.2,191.711 761.065,191.828 760.928,191.96C760.907,191.975 760.902,192.006 760.917,192.028C760.931,192.051 760.96,192.056 760.981,192.04Z"/>
                </g>
                <g transform="matrix(1.2073,1.11022e-16,8.88178e-16,1.40268,-451.212,-104.029)">
                    <path d="M761.684,191.716C761.849,191.652 762.011,191.609 762.173,191.572C762.338,191.535 762.5,191.514 762.662,191.502C762.793,191.492 762.922,191.491 763.052,191.496C763.139,191.499 763.225,191.504 763.312,191.511C763.53,191.527 763.747,191.556 763.971,191.616C764.291,191.701 764.614,191.821 764.949,192.008C764.953,192.011 764.959,192.01 764.961,192.005C764.964,192.001 764.963,191.995 764.959,191.992C764.671,191.705 764.385,191.476 764.079,191.307C763.848,191.179 763.613,191.089 763.372,191.037C763.272,191.016 763.17,191.005 763.069,191C762.917,190.994 762.764,191.003 762.613,191.029C762.429,191.059 762.246,191.11 762.066,191.183C761.896,191.252 761.731,191.34 761.565,191.444C761.495,191.479 761.465,191.568 761.498,191.643C761.53,191.719 761.614,191.751 761.684,191.716Z"/>
                </g>
                <g transform="matrix(0.539834,-0.208099,0.167107,0.672259,21.5797,193.511)">
                    <path d="M761.013,192.078C761.358,191.928 761.668,191.858 761.987,191.795C762.198,191.754 762.395,191.749 762.596,191.74C762.741,191.733 762.882,191.745 763.026,191.747C763.17,191.749 763.312,191.74 763.46,191.749C763.696,191.762 763.921,191.767 764.174,191.819C764.431,191.871 764.666,191.916 764.943,192.015C764.951,192.021 764.963,192.019 764.969,192.011C764.975,192.003 764.974,191.991 764.965,191.985C764.784,191.731 764.618,191.536 764.411,191.347C764.257,191.206 764.102,191.105 763.931,191.008C763.748,190.903 763.561,190.835 763.364,190.787C763.23,190.755 763.091,190.744 762.954,190.747C762.783,190.75 762.613,190.776 762.446,190.823C762.285,190.87 762.13,190.925 761.977,191.007C761.847,191.075 761.724,191.145 761.602,191.238C761.349,191.43 761.125,191.643 760.895,191.922C760.852,191.954 760.843,192.016 760.876,192.059C760.909,192.102 760.97,192.111 761.013,192.078Z"/>
                </g>
                <g transform="matrix(0.565107,-5.55112e-17,6.66134e-16,0.703731,40.7926,25.5628)">
                    <path d="M761.013,192.078C761.358,191.928 761.668,191.858 761.987,191.795C762.198,191.754 762.395,191.749 762.596,191.74C762.741,191.733 762.882,191.745 763.026,191.747C763.17,191.749 763.312,191.74 763.46,191.749C763.696,191.762 763.921,191.767 764.174,191.819C764.431,191.871 764.666,191.916 764.943,192.015C764.951,192.021 764.963,192.019 764.969,192.011C764.975,192.003 764.974,191.991 764.965,191.985C764.784,191.731 764.618,191.536 764.411,191.347C764.257,191.206 764.102,191.105 763.931,191.008C763.748,190.903 763.561,190.835 763.364,190.787C763.23,190.755 763.091,190.744 762.954,190.747C762.783,190.75 762.613,190.776 762.446,190.823C762.285,190.87 762.13,190.925 761.977,191.007C761.847,191.075 761.724,191.145 761.602,191.238C761.349,191.43 761.125,191.643 760.895,191.922C760.852,191.954 760.843,192.016 760.876,192.059C760.909,192.102 760.97,192.111 761.013,192.078Z"/>
                </g>
            </g>
        </g>
    </g>
</svg>
