<?xml version="1.0" encoding="UTF-8" standalone="no"?>
<!DOCTYPE svg PUBLIC "-//W3C//DTD SVG 1.1//EN" "http://www.w3.org/Graphics/SVG/1.1/DTD/svg11.dtd">
<svg width="100%" height="100%" viewBox="0 0 29 27" version="1.1" xmlns="http://www.w3.org/2000/svg" xmlns:xlink="http://www.w3.org/1999/xlink" xml:space="preserve" xmlns:serif="http://www.serif.com/" style="fill-rule:evenodd;clip-rule:evenodd;stroke-linejoin:round;stroke-miterlimit:2;">
    <g transform="matrix(1,0,0,1,-598,-1233)">
        <g id="ic_category_household_pets" transform="matrix(0.903164,0,0,0.99537,59.2511,1.11014)">
            <rect x="597.164" y="1237.98" width="30.866" height="26.025" style="fill:none;"/>
            <g transform="matrix(1.95931,0,0,2.99536,-217.261,837.743)">
                <g transform="matrix(-0.0119189,-0.188304,0.230358,-0.00513632,419.659,264.831)">
                    <path d="M694.255,44.033C694.093,45.773 693.3,47.176 692.169,48.24C691.577,48.796 690.88,49.173 690.119,49.486C689.11,49.901 687.987,50.041 686.801,49.902C685.191,49.8 683.77,49.035 682.654,48.006C681.973,47.378 681.409,46.645 681.063,45.771C680.847,45.227 680.679,44.656 680.661,44.033C680.592,42.31 681.298,40.737 682.434,39.589C683.586,38.426 685.092,37.599 686.801,37.437C689.021,37.197 691.308,38.042 692.97,39.554C694.357,40.816 695.31,42.489 695.424,44.378C695.424,44.428 695.454,44.469 695.49,44.469C695.527,44.469 695.556,44.428 695.556,44.378C695.682,42.312 694.864,40.272 693.529,38.574C691.85,36.438 689.347,34.969 686.801,34.694C684.079,34.44 681.614,35.575 679.895,37.409C678.31,39.099 677.433,41.469 677.333,44.033C677.282,46.658 678.132,49.142 679.667,51.014C680.415,51.925 681.333,52.689 682.372,53.217C683.695,53.89 685.207,54.218 686.801,54.098C689.02,53.813 691.011,52.852 692.457,51.244C694.195,49.31 695.201,46.747 694.954,44.033C694.954,43.767 694.797,43.552 694.605,43.552C694.412,43.552 694.255,43.767 694.255,44.033Z"/>
                </g>
                <g transform="matrix(0.135674,-0.154179,0.188613,0.0584675,325.102,239.222)">
                    <path d="M694.226,44.033C694.052,45.757 693.249,47.122 692.119,48.162C691.529,48.705 690.836,49.058 690.081,49.359C689.082,49.758 687.973,49.876 686.801,49.727C685.219,49.618 683.829,48.849 682.734,47.834C682.076,47.226 681.528,46.523 681.192,45.679C680.987,45.163 680.818,44.625 680.8,44.033C680.727,42.367 681.401,40.839 682.496,39.721C683.63,38.563 685.112,37.724 686.801,37.551C689.008,37.293 691.286,38.105 692.947,39.595C694.336,40.841 695.295,42.495 695.419,44.378C695.419,44.432 695.451,44.476 695.49,44.476C695.53,44.476 695.562,44.432 695.562,44.378C695.698,42.303 694.885,40.252 693.552,38.533C691.873,36.368 689.362,34.88 686.801,34.58C684.051,34.301 681.56,35.444 679.816,37.286C678.194,38.998 677.305,41.419 677.194,44.033C677.138,46.714 678.002,49.255 679.57,51.167C680.329,52.093 681.261,52.87 682.317,53.401C683.658,54.077 685.188,54.404 686.801,54.273C689.043,53.961 691.052,52.987 692.503,51.343C694.248,49.366 695.254,46.774 694.983,44.033C694.983,43.745 694.813,43.512 694.605,43.512C694.396,43.512 694.226,43.745 694.226,44.033Z"/>
                </g>
                <g transform="matrix(0.183862,-0.0954068,0.116714,0.0792333,298.021,200.286)">
                    <path d="M694.151,44.033C693.947,45.716 693.117,46.98 691.991,47.96C691.406,48.469 690.723,48.758 689.983,49.03C689.007,49.388 687.936,49.445 686.801,49.272C685.292,49.148 683.984,48.364 682.941,47.39C682.344,46.833 681.837,46.206 681.529,45.44C681.35,44.995 681.18,44.544 681.161,44.033C681.081,42.514 681.666,41.102 682.655,40.064C683.746,38.919 685.163,38.05 686.801,37.848C688.977,37.543 691.228,38.27 692.887,39.702C694.282,40.906 695.257,42.51 695.405,44.378C695.405,44.443 695.443,44.496 695.49,44.496C695.537,44.496 695.576,44.443 695.576,44.378C695.776,41.82 694.547,39.277 692.661,37.33C691.046,35.661 688.949,34.583 686.801,34.283C683.978,33.939 681.422,35.104 679.611,36.964C677.889,38.733 676.973,41.287 676.834,44.033C676.763,46.859 677.665,49.548 679.316,51.566C680.104,52.529 681.074,53.339 682.174,53.88C683.561,54.562 685.139,54.89 686.801,54.728C689.103,54.343 691.159,53.339 692.623,51.599C694.385,49.506 695.392,46.845 695.059,44.033C695.059,43.688 694.855,43.408 694.605,43.408C694.354,43.408 694.151,43.688 694.151,44.033Z"/>
                </g>
                <g transform="matrix(-0.121118,-0.12587,0.153981,-0.0521945,493.844,225.76)">
                    <path d="M694.151,44.033C693.947,45.716 693.117,46.98 691.991,47.96C691.406,48.469 690.723,48.758 689.983,49.03C689.007,49.388 687.936,49.445 686.801,49.272C685.292,49.148 683.984,48.364 682.941,47.39C682.344,46.833 681.837,46.206 681.529,45.44C681.35,44.995 681.18,44.544 681.161,44.033C681.081,42.514 681.666,41.102 682.655,40.064C683.746,38.919 685.163,38.05 686.801,37.848C688.977,37.543 691.228,38.27 692.887,39.702C694.282,40.906 695.257,42.51 695.405,44.378C695.405,44.443 695.443,44.496 695.49,44.496C695.537,44.496 695.576,44.443 695.576,44.378C695.776,41.82 694.547,39.277 692.661,37.33C691.046,35.661 688.949,34.583 686.801,34.283C683.978,33.939 681.422,35.104 679.611,36.964C677.889,38.733 676.973,41.287 676.834,44.033C676.763,46.859 677.665,49.548 679.316,51.566C680.104,52.529 681.074,53.339 682.174,53.88C683.561,54.562 685.139,54.89 686.801,54.728C689.103,54.343 691.159,53.339 692.623,51.599C694.385,49.506 695.392,46.845 695.059,44.033C695.059,43.688 694.855,43.408 694.605,43.408C694.354,43.408 694.151,43.688 694.151,44.033Z"/>
                </g>
                <g transform="matrix(0.565107,0,0,0.335403,85.8447,46.8401)">
                    <path d="M604.618,277.776L601.564,272.444C601.347,272.069 601.091,271.722 600.806,271.399C600.519,271.075 600.197,270.782 599.849,270.52C599.849,270.519 599.848,270.519 599.848,270.518C598.916,269.82 597.552,269.158 595.914,269.278C594.767,269.361 593.488,269.846 592.12,270.993C591.994,271.098 591.872,271.218 591.757,271.344C591.641,271.47 591.537,271.606 591.44,271.747C590.843,272.596 590.28,273.394 589.777,274.125C588.645,275.767 587.793,277.05 587.332,277.735C587.332,277.735 587.332,277.735 587.332,277.735C587.13,278.041 586.972,278.373 586.862,278.719C586.752,279.066 586.691,279.429 586.68,279.796C586.68,279.799 586.68,279.802 586.68,279.804C586.666,280.855 586.888,282.338 587.931,283.334C588.648,284.019 589.753,284.525 591.479,284.421C591.477,284.422 592.278,284.293 592.278,284.293C593.728,283.881 594.833,283.478 596.232,283.496C597.287,283.509 598.503,283.746 600.156,284.385C600.156,284.385 600.157,284.385 600.157,284.385C600.348,284.458 600.544,284.519 600.745,284.558C600.944,284.596 601.146,284.62 601.35,284.623C601.351,284.623 601.352,284.623 601.353,284.623C602.741,284.629 603.786,284.188 604.468,283.491C605.262,282.68 605.577,281.544 605.327,280.418C605.269,280.162 605.187,279.883 605.1,279.617C604.898,279.001 604.671,278.459 604.671,278.459C604.664,278.44 604.643,278.43 604.624,278.436C604.604,278.443 604.594,278.464 604.601,278.483C604.601,278.483 604.761,279.043 604.889,279.673C604.943,279.939 604.99,280.217 605.017,280.469C605.127,281.451 604.78,282.398 604.031,283.015C603.419,283.52 602.532,283.776 601.409,283.652C601.268,283.635 601.127,283.601 600.987,283.56C600.849,283.519 600.717,283.463 600.588,283.4C598.814,282.526 597.481,282.152 596.31,282.042C594.761,281.897 593.498,282.239 591.857,282.579L591.416,282.621C590.382,282.631 589.718,282.366 589.303,281.943C588.714,281.344 588.661,280.466 588.677,279.852C588.682,279.668 588.712,279.487 588.765,279.313C588.818,279.138 588.893,278.969 588.992,278.814L592.856,272.675L593.216,272.227C593.218,272.226 593.219,272.224 593.221,272.223C594.225,271.263 595.181,270.803 596.066,270.675C597.343,270.49 598.443,270.945 599.215,271.434C599.52,271.63 599.807,271.853 600.068,272.105C600.331,272.359 600.571,272.637 600.779,272.94C600.779,272.94 604.286,277.986 604.286,277.986C604.344,278.077 604.465,278.104 604.557,278.047C604.648,277.989 604.676,277.867 604.618,277.776Z"/>
                </g>
            </g>
        </g>
    </g>
</svg>
