<?xml version="1.0" encoding="UTF-8" standalone="no"?>
<!DOCTYPE svg PUBLIC "-//W3C//DTD SVG 1.1//EN" "http://www.w3.org/Graphics/SVG/1.1/DTD/svg11.dtd">
<svg width="100%" height="100%" viewBox="0 0 30 31" version="1.1" xmlns="http://www.w3.org/2000/svg" xmlns:xlink="http://www.w3.org/1999/xlink" xml:space="preserve" xmlns:serif="http://www.serif.com/" style="fill-rule:evenodd;clip-rule:evenodd;stroke-linejoin:round;stroke-miterlimit:2;">
    <g transform="matrix(1,0,0,1,-740,-800)">
        <g id="ic_category_entertainment_going_out" transform="matrix(1.00035,0,0,1.00039,-0.268906,-4.47842)">
            <rect x="740.954" y="805.045" width="28.643" height="29.911" style="fill:none;"/>
            <g transform="matrix(1.76895,0,0,1.42044,-165.596,586.57)">
                <g transform="matrix(0.210389,-0.000637967,-0.000512297,0.5966,352.823,135.79)">
                    <path d="M776.583,54.776C776.267,54.518 776.045,54.658 776.045,54.82C776.044,55.041 776.452,55.22 776.954,55.221L776.955,55.221C776.955,55.221 777.705,55.216 778.554,55.179C779.685,55.13 780.955,55.033 780.955,55.033C781.209,55.033 781.417,54.943 781.417,54.83C781.418,54.718 781.21,54.627 780.955,54.626L780.955,54.627L780.931,54.626C780.894,54.624 780.821,54.618 780.715,54.611C780.287,54.582 779.388,54.51 778.555,54.47C777.942,54.441 777.381,54.433 777.115,54.426C776.57,54.412 776.502,54.587 776.583,54.776Z"/>
                </g>
                <g transform="matrix(0.211915,-6.97185e-05,-5.5985e-05,0.300465,350.036,153.51)">
                    <path d="M776.587,54.733C776.273,54.22 776.052,54.497 776.051,54.82C776.051,55.258 776.455,55.614 776.953,55.615L776.955,55.615C776.955,55.615 777.705,55.604 778.553,55.529C779.684,55.429 780.954,55.233 780.954,55.233C781.207,55.234 781.414,55.053 781.414,54.83C781.414,54.608 781.209,54.426 780.955,54.426L780.955,54.428L780.931,54.425C780.894,54.422 780.822,54.41 780.715,54.396C780.287,54.339 779.389,54.199 778.556,54.121C777.943,54.064 777.381,54.049 777.116,54.035C776.574,54.008 776.507,54.357 776.587,54.733Z"/>
                </g>
                <g transform="matrix(0.211915,-6.97185e-05,-5.5985e-05,0.300465,351.612,155.502)">
                    <path d="M776.587,54.733C776.273,54.22 776.052,54.497 776.051,54.82C776.051,55.258 776.455,55.614 776.953,55.615L776.955,55.615C776.955,55.615 777.705,55.604 778.553,55.529C779.684,55.429 780.954,55.233 780.954,55.233C781.207,55.234 781.414,55.053 781.414,54.83C781.414,54.608 781.209,54.426 780.955,54.426L780.955,54.428L780.931,54.425C780.894,54.422 780.822,54.41 780.715,54.396C780.287,54.339 779.389,54.199 778.556,54.121C777.943,54.064 777.381,54.049 777.116,54.035C776.574,54.008 776.507,54.357 776.587,54.733Z"/>
                </g>
                <g transform="matrix(0.211915,-6.97185e-05,-5.5985e-05,0.300465,353.288,153.512)">
                    <path d="M776.587,54.733C776.273,54.22 776.052,54.497 776.051,54.82C776.051,55.258 776.455,55.614 776.953,55.615L776.955,55.615C776.955,55.615 777.705,55.604 778.553,55.529C779.684,55.429 780.954,55.233 780.954,55.233C781.207,55.234 781.414,55.053 781.414,54.83C781.414,54.608 781.209,54.426 780.955,54.426L780.955,54.428L780.931,54.425C780.894,54.422 780.822,54.41 780.715,54.396C780.287,54.339 779.389,54.199 778.556,54.121C777.943,54.064 777.381,54.049 777.116,54.035C776.574,54.008 776.507,54.357 776.587,54.733Z"/>
                </g>
                <g transform="matrix(0.211915,-6.97185e-05,-5.5985e-05,0.300465,355.122,155.5)">
                    <path d="M776.587,54.733C776.273,54.22 776.052,54.497 776.051,54.82C776.051,55.258 776.455,55.614 776.953,55.615L776.955,55.615C776.955,55.615 777.705,55.604 778.553,55.529C779.684,55.429 780.954,55.233 780.954,55.233C781.207,55.234 781.414,55.053 781.414,54.83C781.414,54.608 781.209,54.426 780.955,54.426L780.955,54.428L780.931,54.425C780.894,54.422 780.822,54.41 780.715,54.396C780.287,54.339 779.389,54.199 778.556,54.121C777.943,54.064 777.381,54.049 777.116,54.035C776.574,54.008 776.507,54.357 776.587,54.733Z"/>
                </g>
                <g transform="matrix(0.211915,-6.97185e-05,-5.5985e-05,0.300465,357.385,153.514)">
                    <path d="M776.587,54.733C776.273,54.22 776.052,54.497 776.051,54.82C776.051,55.258 776.455,55.614 776.953,55.615L776.955,55.615C776.955,55.615 777.705,55.604 778.553,55.529C779.684,55.429 780.954,55.233 780.954,55.233C781.207,55.234 781.414,55.053 781.414,54.83C781.414,54.608 781.209,54.426 780.955,54.426L780.955,54.428L780.931,54.425C780.894,54.422 780.822,54.41 780.715,54.396C780.287,54.339 779.389,54.199 778.556,54.121C777.943,54.064 777.381,54.049 777.116,54.035C776.574,54.008 776.507,54.357 776.587,54.733Z"/>
                </g>
                <g transform="matrix(0.211915,-6.97185e-05,-5.5985e-05,0.300465,359.066,151.585)">
                    <path d="M776.587,54.733C776.273,54.22 776.052,54.497 776.051,54.82C776.051,55.258 776.455,55.614 776.953,55.615L776.955,55.615C776.955,55.615 777.705,55.604 778.553,55.529C779.684,55.429 780.954,55.233 780.954,55.233C781.207,55.234 781.414,55.053 781.414,54.83C781.414,54.608 781.209,54.426 780.955,54.426L780.955,54.428L780.931,54.425C780.894,54.422 780.822,54.41 780.715,54.396C780.287,54.339 779.389,54.199 778.556,54.121C777.943,54.064 777.381,54.049 777.116,54.035C776.574,54.008 776.507,54.357 776.587,54.733Z"/>
                </g>
                <g transform="matrix(0.211915,-6.97185e-05,-5.5985e-05,0.300465,360.75,153.508)">
                    <path d="M776.587,54.733C776.273,54.22 776.052,54.497 776.051,54.82C776.051,55.258 776.455,55.614 776.953,55.615L776.955,55.615C776.955,55.615 777.705,55.604 778.553,55.529C779.684,55.429 780.954,55.233 780.954,55.233C781.207,55.234 781.414,55.053 781.414,54.83C781.414,54.608 781.209,54.426 780.955,54.426L780.955,54.428L780.931,54.425C780.894,54.422 780.822,54.41 780.715,54.396C780.287,54.339 779.389,54.199 778.556,54.121C777.943,54.064 777.381,54.049 777.116,54.035C776.574,54.008 776.507,54.357 776.587,54.733Z"/>
                </g>
                <g transform="matrix(0.211915,-6.97185e-05,-5.5985e-05,0.300465,359.066,155.504)">
                    <path d="M776.587,54.733C776.273,54.22 776.052,54.497 776.051,54.82C776.051,55.258 776.455,55.614 776.953,55.615L776.955,55.615C776.955,55.615 777.705,55.604 778.553,55.529C779.684,55.429 780.954,55.233 780.954,55.233C781.207,55.234 781.414,55.053 781.414,54.83C781.414,54.608 781.209,54.426 780.955,54.426L780.955,54.428L780.931,54.425C780.894,54.422 780.822,54.41 780.715,54.396C780.287,54.339 779.389,54.199 778.556,54.121C777.943,54.064 777.381,54.049 777.116,54.035C776.574,54.008 776.507,54.357 776.587,54.733Z"/>
                </g>
                <g transform="matrix(0.565538,0,0,0.627934,255.412,51.2703)">
                    <path d="M479.207,179.977C479.207,179.977 471.803,179.82 465.173,179.713C461.171,179.648 457.452,179.609 455.816,179.588C455.651,179.586 455.489,179.622 455.339,179.69C455.189,179.758 455.051,179.861 454.932,179.99C454.814,180.121 454.722,180.276 454.658,180.444C454.594,180.612 454.561,180.795 454.559,180.982C454.559,180.982 454.559,180.982 454.559,180.982C454.558,181.169 454.591,181.353 454.652,181.523C454.713,181.694 454.805,181.85 454.923,181.984C455.04,182.119 455.18,182.223 455.331,182.295C455.483,182.368 455.648,182.405 455.816,182.407C455.816,182.407 461.947,182.47 461.947,182.47C462.196,182.47 462.398,182.243 462.398,181.964C462.398,181.685 462.196,181.458 461.947,181.458L455.816,181.521C455.752,181.522 455.689,181.51 455.631,181.483C455.573,181.457 455.518,181.419 455.472,181.369C455.425,181.318 455.388,181.258 455.363,181.193C455.338,181.127 455.323,181.055 455.322,180.982L455.322,180.982C455.322,180.908 455.333,180.835 455.357,180.768C455.381,180.701 455.416,180.638 455.462,180.585C455.509,180.531 455.563,180.488 455.623,180.459C455.684,180.43 455.749,180.413 455.816,180.413C455.816,180.413 455.816,180.413 455.816,180.413C457.452,180.391 461.171,180.353 465.173,180.289C471.803,180.183 479.207,180.027 479.207,180.027C479.219,180.027 479.229,180.015 479.229,180.002C479.229,179.988 479.219,179.977 479.207,179.977Z"/>
                </g>
                <g transform="matrix(0.565538,0,0,0.627934,255.412,51.2703)">
                    <path d="M475.878,182.472L482.106,182.277C482.253,182.271 482.398,182.237 482.53,182.17C482.66,182.103 482.781,182.012 482.881,181.892C482.98,181.773 483.059,181.637 483.109,181.488C483.158,181.34 483.185,181.182 483.18,181.022C483.18,181.022 483.178,180.943 483.178,180.943C483.173,180.784 483.143,180.629 483.086,180.488C483.029,180.347 482.95,180.217 482.848,180.11C482.746,180.004 482.63,179.92 482.502,179.867C482.376,179.814 482.242,179.785 482.105,179.791C482.105,179.791 479.673,179.89 479.673,179.89C479.617,179.89 479.572,179.941 479.572,180.004C479.572,180.066 479.618,180.117 479.673,180.117L482.105,180.211C482.191,180.214 482.274,180.239 482.351,180.278C482.426,180.317 482.493,180.374 482.551,180.443C482.608,180.511 482.649,180.592 482.678,180.677C482.706,180.761 482.717,180.852 482.714,180.943C482.714,180.943 482.711,181.022 482.711,181.022C482.709,181.111 482.687,181.197 482.655,181.277C482.623,181.355 482.575,181.424 482.518,181.484C482.462,181.543 482.395,181.585 482.325,181.615C482.256,181.644 482.181,181.654 482.106,181.651L475.878,181.456C475.628,181.456 475.425,181.683 475.425,181.964C475.425,182.245 475.628,182.472 475.878,182.472Z"/>
                </g>
                <g transform="matrix(1.69532,0,0,2.00399,-274.41,-170.468)">
                    <path d="M465.18,166.883L465.179,166.21C465.175,165.116 465.594,164.127 466.268,163.404C466.946,162.677 467.883,162.217 468.927,162.202C468.927,162.202 468.953,162.201 468.953,162.201C469.46,162.192 469.959,162.289 470.422,162.481C470.887,162.675 471.317,162.963 471.684,163.337C472.053,163.713 472.344,164.158 472.544,164.644C472.746,165.134 472.857,165.665 472.865,166.209C472.865,166.209 472.875,166.883 472.875,166.883C472.875,166.929 472.91,166.967 472.954,166.967C472.998,166.967 473.034,166.929 473.034,166.883L473.044,166.209C473.052,165.637 472.951,165.075 472.754,164.553C472.556,164.027 472.26,163.544 471.878,163.131C471.495,162.716 471.04,162.392 470.544,162.168C470.045,161.944 469.505,161.823 468.952,161.818C468.952,161.818 468.925,161.817 468.925,161.817C467.773,161.81 466.724,162.294 465.965,163.086C465.202,163.883 464.734,164.989 464.73,166.21C464.73,166.21 464.729,166.883 464.729,166.883C464.729,167.014 464.83,167.121 464.954,167.121C465.079,167.121 465.18,167.014 465.18,166.883Z"/>
                </g>
                <g transform="matrix(0.487047,0,0,0.575724,288.006,68.2107)">
                    <path d="M472.94,167.028L472.954,167.029L472.96,167.027C472.986,167.016 473.091,166.964 473.095,166.817C473.097,166.715 473.103,166.503 473.11,166.222C473.125,165.637 473.027,165.062 472.831,164.526C472.634,163.985 472.334,163.487 471.947,163.059C471.556,162.627 471.09,162.289 470.582,162.053C470.069,161.815 469.511,161.688 468.94,161.675C468.94,161.675 468.936,161.675 468.936,161.675C467.74,161.658 466.648,162.154 465.857,162.972C465.058,163.797 464.571,164.951 464.564,166.222C464.563,166.503 464.562,166.715 464.562,166.817L464.563,166.853C464.562,166.863 464.561,166.873 464.561,166.883C464.561,167.111 464.738,167.297 464.954,167.297C464.954,167.297 465.348,167.229 465.347,166.817C465.347,166.715 465.346,166.503 465.345,166.222C465.339,165.172 465.739,164.223 466.384,163.525C467.034,162.821 467.932,162.366 468.939,162.344C468.939,162.344 468.942,162.344 468.942,162.344C469.434,162.329 469.918,162.416 470.369,162.598C470.825,162.782 471.248,163.056 471.609,163.416C471.974,163.78 472.265,164.212 472.466,164.686C472.669,165.166 472.785,165.686 472.799,166.222C472.806,166.503 472.811,166.715 472.814,166.817C472.814,166.831 472.816,166.844 472.818,166.857C472.817,166.865 472.816,166.874 472.816,166.883C472.816,166.958 472.87,167.021 472.94,167.028Z"/>
                </g>
                <g transform="matrix(0.487047,0,0,0.575724,290.071,66.7928)">
                    <path d="M464.937,164.4C464.935,164.415 464.935,164.431 464.935,164.446C464.935,164.675 465.111,164.86 465.327,164.86C465.327,164.86 465.568,164.884 465.687,164.614C465.692,164.603 465.702,164.579 465.717,164.545C466,163.893 466.451,163.359 466.998,162.982C467.55,162.601 468.199,162.374 468.885,162.36C468.885,162.36 468.887,162.36 468.887,162.36C469.612,162.34 470.311,162.534 470.915,162.902C471.529,163.277 472.048,163.825 472.397,164.509C472.414,164.542 472.425,164.566 472.431,164.577L472.433,164.581C472.449,164.616 472.473,164.645 472.503,164.666C472.56,164.708 472.617,164.703 472.617,164.703L472.628,164.698C472.681,164.676 472.885,164.576 472.795,164.385C472.79,164.373 472.779,164.35 472.764,164.316C472.415,163.525 471.866,162.875 471.201,162.415C470.525,161.947 469.727,161.682 468.887,161.659C468.887,161.659 468.885,161.659 468.885,161.659C468.062,161.643 467.271,161.88 466.597,162.317C465.919,162.758 465.364,163.406 465.006,164.194C464.991,164.228 464.986,164.268 464.975,164.263C464.811,164.18 464.843,164.269 464.937,164.4Z"/>
                </g>
                <g transform="matrix(0.487047,0,0,0.575724,292.031,65.3657)">
                    <path d="M464.937,164.4C464.935,164.415 464.935,164.431 464.935,164.446C464.935,164.675 465.111,164.86 465.327,164.86C465.327,164.86 465.568,164.884 465.687,164.614C465.692,164.603 465.702,164.579 465.717,164.545C466,163.893 466.451,163.359 466.998,162.982C467.55,162.601 468.199,162.374 468.885,162.36C468.885,162.36 468.887,162.36 468.887,162.36C469.612,162.34 470.311,162.534 470.915,162.902C471.529,163.277 472.048,163.825 472.397,164.509C472.414,164.542 472.425,164.566 472.431,164.577L472.433,164.581C472.449,164.616 472.473,164.645 472.503,164.666C472.56,164.708 472.617,164.703 472.617,164.703L472.628,164.698C472.681,164.676 472.885,164.576 472.795,164.385C472.79,164.373 472.779,164.35 472.764,164.316C472.415,163.525 471.866,162.875 471.201,162.415C470.525,161.947 469.727,161.682 468.887,161.659C468.887,161.659 468.885,161.659 468.885,161.659C468.062,161.643 467.271,161.88 466.597,162.317C465.919,162.758 465.364,163.406 465.006,164.194C464.991,164.228 464.986,164.268 464.975,164.263C464.811,164.18 464.843,164.269 464.937,164.4Z"/>
                </g>
                <g transform="matrix(0.487047,0,0,0.575724,294.257,66.7928)">
                    <path d="M464.937,164.4C464.935,164.415 464.935,164.431 464.935,164.446C464.935,164.675 465.111,164.86 465.327,164.86C465.327,164.86 465.568,164.884 465.687,164.614C465.692,164.603 465.702,164.579 465.717,164.545C466,163.893 466.451,163.359 466.998,162.982C467.55,162.601 468.199,162.374 468.885,162.36C468.885,162.36 468.887,162.36 468.887,162.36C469.612,162.34 470.311,162.534 470.915,162.902C471.529,163.277 472.048,163.825 472.397,164.509C472.414,164.542 472.425,164.566 472.431,164.577L472.433,164.581C472.449,164.616 472.473,164.645 472.503,164.666C472.56,164.708 472.617,164.703 472.617,164.703L472.628,164.698C472.681,164.676 472.885,164.576 472.795,164.385C472.79,164.373 472.779,164.35 472.764,164.316C472.415,163.525 471.866,162.875 471.201,162.415C470.525,161.947 469.727,161.682 468.887,161.659C468.887,161.659 468.885,161.659 468.885,161.659C468.062,161.643 467.271,161.88 466.597,162.317C465.919,162.758 465.364,163.406 465.006,164.194C464.991,164.228 464.986,164.268 464.975,164.263C464.811,164.18 464.843,164.269 464.937,164.4Z"/>
                </g>
                <g transform="matrix(0.487047,0,0,0.575724,292.212,68.2107)">
                    <path d="M472.94,167.028L472.954,167.029L472.96,167.027C472.986,167.016 473.091,166.964 473.095,166.817C473.097,166.715 473.103,166.503 473.11,166.222C473.125,165.637 473.027,165.062 472.831,164.526C472.634,163.985 472.334,163.487 471.947,163.059C471.556,162.627 471.09,162.289 470.582,162.053C470.069,161.815 469.511,161.688 468.94,161.675C468.94,161.675 468.936,161.675 468.936,161.675C467.74,161.658 466.648,162.154 465.857,162.972C465.058,163.797 464.571,164.951 464.564,166.222C464.563,166.503 464.562,166.715 464.562,166.817L464.563,166.853C464.562,166.863 464.561,166.873 464.561,166.883C464.561,167.111 464.738,167.297 464.954,167.297C464.954,167.297 465.348,167.229 465.347,166.817C465.347,166.715 465.346,166.503 465.345,166.222C465.339,165.172 465.739,164.223 466.384,163.525C467.034,162.821 467.932,162.366 468.939,162.344C468.939,162.344 468.942,162.344 468.942,162.344C469.434,162.329 469.918,162.416 470.369,162.598C470.825,162.782 471.248,163.056 471.609,163.416C471.974,163.78 472.265,164.212 472.466,164.686C472.669,165.166 472.785,165.686 472.799,166.222C472.806,166.503 472.811,166.715 472.814,166.817C472.814,166.831 472.816,166.844 472.818,166.857C472.817,166.865 472.816,166.874 472.816,166.883C472.816,166.958 472.87,167.021 472.94,167.028Z"/>
                </g>
                <g transform="matrix(0.487047,0,0,0.575724,296.423,68.2199)">
                    <path d="M472.94,167.028L472.954,167.029L472.96,167.027C472.986,167.016 473.091,166.964 473.095,166.817C473.097,166.715 473.103,166.503 473.11,166.222C473.125,165.637 473.027,165.062 472.831,164.526C472.634,163.985 472.334,163.487 471.947,163.059C471.556,162.627 471.09,162.289 470.582,162.053C470.069,161.815 469.511,161.688 468.94,161.675C468.94,161.675 468.936,161.675 468.936,161.675C467.74,161.658 466.648,162.154 465.857,162.972C465.058,163.797 464.571,164.951 464.564,166.222C464.563,166.503 464.562,166.715 464.562,166.817L464.563,166.853C464.562,166.863 464.561,166.873 464.561,166.883C464.561,167.111 464.738,167.297 464.954,167.297C464.954,167.297 465.348,167.229 465.347,166.817C465.347,166.715 465.346,166.503 465.345,166.222C465.339,165.172 465.739,164.223 466.384,163.525C467.034,162.821 467.932,162.366 468.939,162.344C468.939,162.344 468.942,162.344 468.942,162.344C469.434,162.329 469.918,162.416 470.369,162.598C470.825,162.782 471.248,163.056 471.609,163.416C471.974,163.78 472.265,164.212 472.466,164.686C472.669,165.166 472.785,165.686 472.799,166.222C472.806,166.503 472.811,166.715 472.814,166.817C472.814,166.831 472.816,166.844 472.818,166.857C472.817,166.865 472.816,166.874 472.816,166.883C472.816,166.958 472.87,167.021 472.94,167.028Z"/>
                </g>
                <g transform="matrix(0.627465,0,0,0.703731,206.284,17.2279)">
                    <path d="M488.8,211.068L489.575,212.806C489.616,212.898 489.643,212.995 489.661,213.095C489.68,213.193 489.684,213.294 489.679,213.394L489.361,220.998C489.346,221.351 489.405,221.697 489.512,222.022C489.62,222.352 489.795,222.651 490.012,222.914C490.234,223.178 490.503,223.379 490.793,223.526C491.086,223.675 491.407,223.749 491.735,223.762C491.735,223.762 491.735,223.762 491.735,223.762C492.89,223.8 494.512,223.869 496.345,223.916C497.795,223.952 499.375,223.989 500.956,223.996C502.207,224.001 503.458,223.989 504.644,223.962C506.853,223.911 508.833,223.806 510.176,223.756C510.848,223.725 511.456,223.422 511.877,222.912C512.288,222.415 512.548,221.754 512.52,221.027L512.179,213.371C512.174,213.266 512.178,213.161 512.196,213.059C512.213,212.954 512.24,212.852 512.279,212.755C512.279,212.755 512.984,211.014 512.984,211.014C512.992,210.996 512.986,210.974 512.97,210.964C512.954,210.955 512.933,210.962 512.925,210.98L512.031,212.609C511.968,212.724 511.92,212.846 511.884,212.972C511.848,213.101 511.829,213.234 511.821,213.369C511.821,213.369 511.413,221.021 511.413,221.021C511.395,221.389 511.228,221.704 511.001,221.933C510.785,222.151 510.491,222.26 510.177,222.245C508.834,222.194 506.854,222.088 504.645,222.035C503.459,222.007 502.207,221.995 500.956,221.999C499.376,222.004 497.796,222.039 496.346,222.075C494.513,222.12 492.89,222.188 491.735,222.225C491.588,222.231 491.441,222.213 491.306,222.157C491.167,222.099 491.035,222.019 490.925,221.904C490.811,221.788 490.714,221.655 490.65,221.503C490.586,221.346 490.539,221.178 490.533,221.003C490.533,221.003 490.26,213.396 490.26,213.396C490.254,213.242 490.234,213.09 490.193,212.943C490.153,212.798 490.099,212.657 490.027,212.527C490.027,212.527 489.109,210.878 489.109,210.878C489.061,210.783 488.954,210.749 488.869,210.802C488.783,210.854 488.753,210.974 488.8,211.068Z"/>
                </g>
                <g transform="matrix(0.282553,0,0,-0.343435,404.499,245.349)">
                    <path d="M396.213,234.802C398.392,234.727 401.474,234.59 404.892,234.519C406.841,234.479 408.898,234.46 410.954,234.465C413.553,234.472 416.151,234.521 418.533,234.571C421.275,234.628 423.727,234.711 425.564,234.765L410.777,222.254C410.647,222.153 410.622,221.964 410.72,221.832C410.818,221.699 411.003,221.673 411.132,221.774L427.361,233.332C427.725,233.596 427.968,233.978 428.106,234.391C428.246,234.807 428.238,235.266 428.108,235.708C427.977,236.155 427.696,236.519 427.352,236.79C427.006,237.063 426.57,237.204 426.111,237.219C426.111,237.219 426.111,237.219 426.111,237.219C424.228,237.271 421.557,237.366 418.533,237.429C416.151,237.479 413.553,237.528 410.954,237.535C408.898,237.54 406.841,237.521 404.892,237.481C401.25,237.405 397.99,237.255 395.798,237.183C395.798,237.183 395.798,237.183 395.798,237.183C395.347,237.165 394.918,237.028 394.58,236.757C394.245,236.489 393.967,236.133 393.842,235.694C393.719,235.26 393.709,234.811 393.849,234.405C393.987,234.004 394.223,233.63 394.58,233.375C394.58,233.375 394.58,233.375 394.58,233.375C396.223,232.22 398.523,230.589 400.879,228.948C405.555,225.69 410.386,222.384 410.386,222.384C410.41,222.366 410.445,222.37 410.463,222.395C410.482,222.42 410.477,222.456 410.453,222.475C410.453,222.475 406.043,226.349 401.72,230.084C399.705,231.825 397.71,233.521 396.213,234.802Z"/>
                </g>
            </g>
        </g>
    </g>
</svg>
