<?xml version="1.0" encoding="UTF-8" standalone="no"?>
<!DOCTYPE svg PUBLIC "-//W3C//DTD SVG 1.1//EN" "http://www.w3.org/Graphics/SVG/1.1/DTD/svg11.dtd">
<svg width="100%" height="100%" viewBox="0 0 27 31" version="1.1" xmlns="http://www.w3.org/2000/svg" xmlns:xlink="http://www.w3.org/1999/xlink" xml:space="preserve" xmlns:serif="http://www.serif.com/" style="fill-rule:evenodd;clip-rule:evenodd;stroke-linejoin:round;stroke-miterlimit:2;">
    <g transform="matrix(1,0,0,1,-629,-535)">
        <g id="ic_categories_bucket_list_property" transform="matrix(1.00221,0,0,1.00147,-1.41604,-0.808367)">
            <rect x="629.952" y="536" width="25.565" height="29.597" style="fill:none;"/>
            <g transform="matrix(0.997794,0,0,0.998532,-173.203,46.3369)">
                <g transform="matrix(1,0,0,-1.16138,316.999,672.3)">
                    <path d="M512.346,139.095L507.118,132.677C507.097,132.651 507.065,132.636 507.034,132.622C507.004,132.61 506.969,132.609 506.935,132.61C505.674,132.633 502.376,132.702 498.942,132.753C495.964,132.797 492.886,132.823 490.949,132.845C490.673,132.848 490.424,132.948 490.244,133.105C490.064,133.261 489.953,133.476 489.953,133.713C489.942,135.545 489.937,138.634 489.902,141.939C489.853,146.601 489.759,151.689 489.721,154.278C489.719,154.419 489.745,154.559 489.804,154.688C489.864,154.818 489.95,154.94 490.066,155.043C490.183,155.146 490.318,155.23 490.469,155.286C490.621,155.343 490.785,155.377 490.954,155.379L510.954,155.669C511.17,155.672 511.382,155.641 511.578,155.574C511.776,155.507 511.961,155.409 512.117,155.279C512.275,155.148 512.401,154.994 512.487,154.824C512.573,154.653 512.623,154.468 512.627,154.278C512.627,154.278 512.917,141.018 512.917,141.018C512.917,141 512.934,140.986 512.954,140.986C512.975,140.986 512.991,141 512.991,141.018L513.282,154.278C513.287,154.544 513.229,154.806 513.118,155.049C513.006,155.294 512.836,155.519 512.62,155.712C512.403,155.907 512.143,156.058 511.861,156.163C511.578,156.27 511.27,156.326 510.954,156.331C510.954,156.331 490.954,156.621 490.954,156.621C490.593,156.625 490.238,156.564 489.909,156.451C489.578,156.338 489.275,156.166 489.014,155.948C488.753,155.73 488.551,155.469 488.409,155.186C488.267,154.902 488.193,154.593 488.188,154.278C488.188,154.278 488.188,154.278 488.188,154.278C488.15,151.689 488.055,146.601 488.007,141.939C487.972,138.634 487.967,135.545 487.955,133.713C487.956,133.003 488.288,132.359 488.829,131.893C489.369,131.427 490.115,131.138 490.939,131.137C492.876,131.142 495.954,131.141 498.933,131.159C502.366,131.179 505.665,131.219 506.926,131.23C506.926,131.23 506.926,131.23 506.926,131.23C507.228,131.234 507.521,131.297 507.776,131.419C508.031,131.542 508.256,131.712 508.417,131.93C508.417,131.93 513.349,138.625 513.349,138.625C513.459,138.775 513.521,138.944 513.521,139.115C513.52,139.284 513.472,139.455 513.362,139.604C513.252,139.752 513.103,139.87 512.926,139.941C512.75,140.011 512.552,140.046 512.352,140.024L507.665,139.49C507.31,139.448 506.997,139.302 506.78,139.082C506.566,138.866 506.434,138.586 506.443,138.283C506.443,138.283 506.597,133.445 506.597,133.445C506.596,133.352 506.684,133.276 506.792,133.276C506.901,133.275 506.989,133.351 506.989,133.444L507.184,138.28C507.19,138.416 507.261,138.537 507.363,138.629C507.462,138.717 507.6,138.77 507.752,138.78L512.346,139.095Z"/>
                </g>
                <g transform="matrix(-0.00723895,0.999988,-1.48098,-0.00488789,902.605,22.2867)">
                    <path d="M491.263,59.998C491.263,59.998 491.259,58.499 491.209,56.799C491.142,54.57 491.005,51.999 491.005,51.999C491.005,51.955 490.951,51.919 490.885,51.919C490.819,51.92 490.766,51.956 490.766,52.001C490.766,52.001 490.654,54.573 490.609,56.801C490.575,58.502 490.586,60.002 490.586,60.002C490.587,60.128 490.739,60.23 490.926,60.229C491.113,60.228 491.264,60.125 491.263,59.998Z"/>
                </g>
                <g transform="matrix(-0.00723895,0.999988,-1.48098,-0.00488789,902.542,24.8619)">
                    <path d="M491.263,59.998C491.263,59.998 491.259,58.499 491.209,56.799C491.142,54.57 491.005,51.999 491.005,51.999C491.005,51.955 490.951,51.919 490.885,51.919C490.819,51.92 490.766,51.956 490.766,52.001C490.766,52.001 490.654,54.573 490.609,56.801C490.575,58.502 490.586,60.002 490.586,60.002C490.587,60.128 490.739,60.23 490.926,60.229C491.113,60.228 491.264,60.125 491.263,59.998Z"/>
                </g>
                <g transform="matrix(1.30774,0,0,1.30774,-130.202,354.466)">
                    <path d="M720.535,112.021L719.316,112C719.316,112 725.088,106.419 725.088,106.419C725.088,106.418 726.782,108.165 726.782,108.165C726.875,108.258 727.015,108.287 727.137,108.237C727.259,108.187 727.339,108.069 727.34,107.937L727.361,107.117C727.361,107.117 727.785,107.133 727.785,107.133C727.785,107.133 727.754,109.075 727.754,109.075C727.754,109.181 727.796,109.282 727.871,109.357L730.111,111.66C730.111,111.66 729.671,111.654 729.671,111.654C729.544,111.654 729.422,111.704 729.332,111.794C729.242,111.884 729.191,112.006 729.191,112.134L729.133,117.704C729.133,117.704 726.424,117.685 726.424,117.685C726.424,117.685 726.41,115.189 726.41,115.189C726.408,114.876 726.154,114.623 725.841,114.623L724.305,114.64C724.158,114.64 724.017,114.699 723.914,114.803C723.81,114.907 723.752,115.048 723.753,115.195L723.824,117.79C723.824,117.79 720.835,117.909 720.835,117.909C720.835,117.909 720.503,112.898 720.503,112.898C720.503,112.886 720.493,112.877 720.482,112.877C720.47,112.877 720.461,112.887 720.461,112.898L720.197,118.254C720.198,118.435 720.346,118.581 720.527,118.581L724.318,118.732C724.446,118.732 724.568,118.681 724.658,118.59C724.749,118.5 724.799,118.377 724.798,118.249L724.846,115.75C724.846,115.75 725.275,115.755 725.275,115.755C725.275,115.755 725.288,118.254 725.288,118.254C725.29,118.568 725.544,118.821 725.858,118.821L729.671,118.795C729.816,118.795 729.954,118.738 730.056,118.636C730.158,118.534 730.215,118.395 730.215,118.251L730.156,112.607C730.156,112.607 731.212,112.593 731.212,112.593C731.398,112.593 731.566,112.481 731.637,112.309C731.708,112.138 731.669,111.94 731.537,111.809L728.55,108.904C728.55,108.904 728.517,106.782 728.517,106.782C728.517,106.585 728.359,106.423 728.161,106.419L727.032,106.414C726.939,106.412 726.85,106.447 726.784,106.511C726.718,106.576 726.68,106.664 726.679,106.756L726.681,107.157C726.681,107.157 725.296,105.815 725.296,105.815C725.185,105.704 725.005,105.704 724.894,105.815L718.879,112.035C718.839,112.075 718.827,112.135 718.849,112.187C718.87,112.239 718.921,112.273 718.978,112.273L720.535,112.246C720.597,112.246 720.647,112.196 720.647,112.134C720.647,112.072 720.597,112.021 720.535,112.021Z"/>
                </g>
            </g>
        </g>
    </g>
</svg>
