<?xml version="1.0" encoding="UTF-8" standalone="no"?>
<!DOCTYPE svg PUBLIC "-//W3C//DTD SVG 1.1//EN" "http://www.w3.org/Graphics/SVG/1.1/DTD/svg11.dtd">
<svg width="100%" height="100%" viewBox="0 0 31 31" version="1.1" xmlns="http://www.w3.org/2000/svg" xmlns:xlink="http://www.w3.org/1999/xlink" xml:space="preserve" xmlns:serif="http://www.serif.com/" style="fill-rule:evenodd;clip-rule:evenodd;stroke-linejoin:round;stroke-miterlimit:2;">
    <g transform="matrix(1,0,0,1,-790,-1344)">
        <g id="ic_category_health_health_care" transform="matrix(1.00019,0,0,0.977687,-0.152474,28.3422)">
            <rect x="790.607" y="1345.71" width="30.192" height="31.598" style="fill:none;"/>
            <clipPath id="_clip1">
                <rect x="790.607" y="1345.71" width="30.192" height="31.598"/>
            </clipPath>
            <g clip-path="url(#_clip1)">
                <g transform="matrix(1.76924,0,0,3.04953,-5.38294,989.461)">
                    <g transform="matrix(0.627466,0,0,0.353303,82.7641,35.9527)">
                        <path d="M598.902,256.461C596.952,255.055 594.876,253.093 593.046,250.966C591.154,248.766 589.531,246.39 588.616,244.262C588.614,244.258 588.612,244.253 588.61,244.249C587.257,241.324 586.654,238.416 586.798,235.938C586.914,233.93 587.53,232.215 588.686,231.06C589.236,230.506 589.927,230.45 590.67,230.69C591.391,230.922 592.147,231.425 592.913,232.091C594.815,233.744 596.715,236.425 598.008,239.143C598.161,239.459 598.469,239.657 598.805,239.657C599.141,239.657 599.449,239.459 599.602,239.143C600.906,236.436 602.812,233.849 604.709,232.283C605.471,231.655 606.22,231.186 606.935,230.984C607.658,230.78 608.332,230.857 608.872,231.397C608.872,231.397 608.872,231.397 608.872,231.397C610.024,232.545 610.638,234.25 610.758,236.247C610.906,238.722 610.313,241.628 608.969,244.553C608.967,244.558 608.964,244.562 608.962,244.567C608.06,246.699 606.092,249.584 603.863,252.292C601.686,254.936 599.265,257.408 597.307,258.837C597.291,258.848 597.287,258.869 597.297,258.886C597.307,258.902 597.328,258.906 597.343,258.896C599.389,257.573 601.959,255.234 604.282,252.697C606.711,250.044 608.858,247.174 609.891,245.033C611.46,241.962 612.208,238.855 612.146,236.183C612.089,233.739 611.341,231.654 609.981,230.203C608.678,228.819 606.882,228.838 604.974,229.919C603.62,230.685 602.197,232.011 600.906,233.639C600.144,234.6 599.43,235.669 598.798,236.782C597.083,233.806 594.779,231.085 592.642,229.787C590.732,228.627 588.933,228.548 587.631,229.924C586.275,231.367 585.53,233.443 585.469,235.877C585.401,238.545 586.141,241.65 587.707,244.736C588.73,246.885 590.491,249.283 592.538,251.472C594.48,253.548 596.672,255.438 598.709,256.773C598.79,256.829 598.9,256.804 598.953,256.718C599.007,256.632 598.984,256.517 598.902,256.461Z"/>
                    </g>
                    <g transform="matrix(0.278286,0,0,0.165169,221.682,109.752)">
                        <path d="M820.407,76.053L840.378,76.781C840.6,76.787 840.798,76.884 840.962,77.015C841.12,77.142 841.223,77.328 841.275,77.534C841.275,77.534 842.997,84.344 842.997,84.344C843.155,84.906 843.674,85.289 844.257,85.275C844.841,85.26 845.34,84.851 845.469,84.282L847.286,76.804C847.578,78.217 847.898,79.742 848.223,81.266C849.398,86.778 850.645,92.274 850.645,92.274C850.776,92.908 851.338,93.361 851.985,93.355C852.633,93.348 853.185,92.884 853.304,92.247L857.11,69.28C857.11,69.28 858.33,74.292 858.33,74.292C858.477,74.893 858.814,75.408 859.278,75.764C859.737,76.115 860.308,76.324 860.919,76.31C860.919,76.31 881.363,75.811 881.363,75.811C881.394,75.811 881.419,75.786 881.419,75.755C881.419,75.724 881.394,75.698 881.363,75.698L860.919,75.2C860.577,75.192 860.263,75.058 860.015,74.848C859.773,74.644 859.606,74.355 859.542,74.026C859.542,74.026 857.768,64.947 857.768,64.947C857.683,64.56 857.337,64.287 856.941,64.293C856.545,64.3 856.208,64.584 856.136,64.974L852.02,85.025C851.751,83.638 851.459,82.148 851.162,80.66C850.058,75.134 848.882,69.623 848.882,69.623C848.739,68.931 848.133,68.433 847.427,68.426C846.721,68.419 846.106,68.906 845.95,69.595L843.994,78.902C843.994,78.901 843.393,76.942 843.393,76.942C843.187,76.275 842.788,75.705 842.249,75.32C841.716,74.938 841.068,74.708 840.378,74.728C840.378,74.728 820.407,75.456 820.407,75.456C820.243,75.456 820.109,75.59 820.109,75.755C820.109,75.92 820.243,76.053 820.407,76.053Z"/>
                    </g>
                </g>
            </g>
        </g>
    </g>
</svg>
