<?xml version="1.0" encoding="UTF-8" standalone="no"?>
<!DOCTYPE svg PUBLIC "-//W3C//DTD SVG 1.1//EN" "http://www.w3.org/Graphics/SVG/1.1/DTD/svg11.dtd">
<svg width="100%" height="100%" viewBox="0 0 32 32" version="1.1" xmlns="http://www.w3.org/2000/svg" xmlns:xlink="http://www.w3.org/1999/xlink" xml:space="preserve" xmlns:serif="http://www.serif.com/" style="fill-rule:evenodd;clip-rule:evenodd;stroke-linejoin:round;stroke-miterlimit:2;">
    <g transform="matrix(1,0,0,1,-831,-1344)">
        <g id="ic_category_personal_care_hair_care" transform="matrix(1.00077,0,0,1.0007,-0.648766,-2.08238)">
            <rect x="831.18" y="1345.18" width="31.273" height="31.836" style="fill:none;"/>
            <g transform="matrix(1.76822,0,0,2.97942,-4.88393,997.652)">
                <g transform="matrix(-0.71874,0.415612,-0.351152,-0.2127,1054.65,-192.804)">
                    <path d="M776.953,55.585C776.953,55.585 777.703,55.574 778.553,55.502C779.67,55.407 780.954,55.218 780.954,55.218C781.061,55.218 781.148,55.044 781.148,54.83C781.149,54.616 781.062,54.441 780.955,54.441C780.955,54.441 779.672,54.247 778.556,54.148C777.706,54.072 776.956,54.059 776.956,54.059C776.745,54.059 776.574,54.4 776.573,54.821C776.572,55.242 776.742,55.584 776.953,55.585Z"/>
                </g>
                <g transform="matrix(-0.71874,0.415612,-0.351152,-0.2127,1055.72,-192.142)">
                    <path d="M776.953,55.585C776.953,55.585 777.703,55.574 778.553,55.502C779.67,55.407 780.954,55.218 780.954,55.218C781.061,55.218 781.148,55.044 781.148,54.83C781.149,54.616 781.062,54.441 780.955,54.441C780.955,54.441 779.672,54.247 778.556,54.148C777.706,54.072 776.956,54.059 776.956,54.059C776.745,54.059 776.574,54.4 776.573,54.821C776.572,55.242 776.742,55.584 776.953,55.585Z"/>
                </g>
                <g transform="matrix(-0.71874,0.415612,-0.351152,-0.2127,1056.94,-191.514)">
                    <path d="M776.953,55.585C776.953,55.585 777.703,55.574 778.553,55.502C779.67,55.407 780.954,55.218 780.954,55.218C781.061,55.218 781.148,55.044 781.148,54.83C781.149,54.616 781.062,54.441 780.955,54.441C780.955,54.441 779.672,54.247 778.556,54.148C777.706,54.072 776.956,54.059 776.956,54.059C776.745,54.059 776.574,54.4 776.573,54.821C776.572,55.242 776.742,55.584 776.953,55.585Z"/>
                </g>
                <g transform="matrix(-0.71874,0.415612,-0.351152,-0.2127,1058.22,-190.766)">
                    <path d="M776.953,55.585C776.953,55.585 777.703,55.574 778.553,55.502C779.67,55.407 780.954,55.218 780.954,55.218C781.061,55.218 781.148,55.044 781.148,54.83C781.149,54.616 781.062,54.441 780.955,54.441C780.955,54.441 779.672,54.247 778.556,54.148C777.706,54.072 776.956,54.059 776.956,54.059C776.745,54.059 776.574,54.4 776.573,54.821C776.572,55.242 776.742,55.584 776.953,55.585Z"/>
                </g>
                <g transform="matrix(-0.69756,0.407493,-0.35293,-0.211661,1048.9,-180.318)">
                    <path d="M776.953,55.585C776.953,55.585 777.703,55.574 778.553,55.502C779.67,55.407 780.954,55.218 780.954,55.218C781.063,55.218 781.153,55.044 781.153,54.83C781.154,54.616 781.065,54.441 780.955,54.441C780.955,54.441 779.672,54.247 778.556,54.148C777.706,54.072 776.956,54.059 776.956,54.059C776.74,54.059 776.564,54.4 776.563,54.821C776.563,55.242 776.737,55.584 776.953,55.585Z"/>
                </g>
                <g transform="matrix(-0.715183,0.417767,-0.352963,-0.211641,1061.47,-189.039)">
                    <path d="M776.953,55.585C776.953,55.585 777.703,55.574 778.553,55.502C779.67,55.407 780.954,55.218 780.954,55.218C781.061,55.218 781.148,55.044 781.148,54.83C781.149,54.616 781.062,54.441 780.955,54.441C780.955,54.441 779.672,54.247 778.556,54.148C777.706,54.072 776.956,54.059 776.956,54.059C776.745,54.059 776.574,54.4 776.573,54.821C776.572,55.242 776.742,55.584 776.953,55.585Z"/>
                </g>
                <g transform="matrix(-0.715183,0.417767,-0.352963,-0.211641,1060.16,-189.691)">
                    <path d="M776.953,55.585C776.953,55.585 777.703,55.574 778.553,55.502C779.67,55.407 780.954,55.218 780.954,55.218C781.061,55.218 781.148,55.044 781.148,54.83C781.149,54.616 781.062,54.441 780.955,54.441C780.955,54.441 779.672,54.247 778.556,54.148C777.706,54.072 776.956,54.059 776.956,54.059C776.745,54.059 776.574,54.4 776.573,54.821C776.572,55.242 776.742,55.584 776.953,55.585Z"/>
                </g>
                <g transform="matrix(-0.715183,0.417767,-0.352963,-0.211641,1059.01,-190.353)">
                    <path d="M776.953,55.585C776.953,55.585 777.703,55.574 778.553,55.502C779.67,55.407 780.954,55.218 780.954,55.218C781.061,55.218 781.148,55.044 781.148,54.83C781.149,54.616 781.062,54.441 780.955,54.441C780.955,54.441 779.672,54.247 778.556,54.148C777.706,54.072 776.956,54.059 776.956,54.059C776.745,54.059 776.574,54.4 776.573,54.821C776.572,55.242 776.742,55.584 776.953,55.585Z"/>
                </g>
                <g transform="matrix(1.80127,-1.26713,0.402278,0.206029,-942.774,1097.14)">
                    <path d="M777.003,54.913C777.003,54.913 777.931,54.901 778.984,54.86C780.363,54.806 781.955,54.705 781.955,54.705C781.974,54.705 781.989,54.623 781.989,54.522C781.989,54.42 781.973,54.338 781.954,54.338C781.954,54.338 780.361,54.258 778.982,54.221C777.93,54.192 777.002,54.192 777.002,54.192C776.964,54.193 776.933,54.354 776.934,54.553C776.934,54.752 776.965,54.913 777.003,54.913Z"/>
                </g>
                <g transform="matrix(-0.040993,-0.0209468,0.0360685,-0.0259316,493.949,139.337)">
                    <path d="M560.286,96.439C564.716,96.877 568.418,99.049 571.064,102.1C573.496,104.902 574.811,108.544 574.501,112.468C574.368,116.149 572.573,119.337 570.039,121.737C567.523,124.12 564.185,125.767 560.37,125.842C556.394,126.016 552.633,124.69 549.841,122.333C546.922,119.869 544.938,116.424 544.878,112.444C544.779,108.194 545.932,104.635 548.316,101.888C550.753,99.082 554.329,97.108 558.946,96.062C559.099,96.038 559.206,95.899 559.183,95.753C559.16,95.607 559.017,95.508 558.863,95.533C553.777,96.022 549.69,97.727 546.674,100.414C543.435,103.301 541.52,107.339 540.966,112.367C540.429,117.621 542.485,122.467 545.972,126.094C549.515,129.779 554.65,132.027 560.231,132.272C566.021,132.386 571.387,130.266 575.157,126.597C578.9,122.955 581.057,117.845 580.858,112.343C580.441,107.065 578.073,102.338 574.131,99.187C570.399,96.204 565.536,94.554 560.316,95.069C559.92,95.069 559.592,95.376 559.583,95.754C559.575,96.132 559.89,96.439 560.286,96.439Z"/>
                </g>
                <g transform="matrix(-0.0424091,-0.0216704,0.0381319,-0.0274151,497.882,141.356)">
                    <path d="M560.286,96.402C564.756,96.815 568.499,98.988 571.158,102.062C573.59,104.874 574.911,108.525 574.608,112.465C574.477,116.176 572.692,119.409 570.15,121.843C567.614,124.272 564.233,125.945 560.368,126.016C556.345,126.181 552.546,124.806 549.74,122.399C546.83,119.904 544.869,116.431 544.813,112.441C544.721,108.196 545.873,104.642 548.241,101.897C550.685,99.065 554.289,97.083 558.945,96.048C559.094,96.024 559.196,95.892 559.173,95.754C559.151,95.616 559.012,95.523 558.864,95.547C553.747,96.061 549.641,97.797 546.628,100.528C543.452,103.407 541.57,107.406 541.03,112.37C540.508,117.549 542.52,122.323 545.94,125.902C549.479,129.606 554.633,131.869 560.233,132.098C566.041,132.205 571.419,130.059 575.181,126.361C578.837,122.766 580.943,117.751 580.751,112.346C580.35,107.149 578.025,102.493 574.168,99.35C570.443,96.316 565.559,94.622 560.315,95.106C559.932,95.106 559.615,95.396 559.607,95.754C559.599,96.111 559.904,96.402 560.286,96.402Z"/>
                </g>
                <g transform="matrix(0.621201,0,0,0.376519,91.3274,31.9168)">
                    <path d="M621.374,243.928C622.373,242.947 625.038,240.295 627.966,237.357C631.876,233.433 636.257,229.001 637.821,227.422L638.033,227.62C637.289,228.59 635.706,230.637 633.871,233.051C632.962,234.248 631.988,235.533 631.029,236.824C629.531,238.841 628.057,240.865 626.845,242.542C625.483,244.426 624.462,245.877 624.099,246.385C624.099,246.386 624.098,246.387 624.098,246.387C624.026,246.488 623.972,246.598 623.951,246.716C623.929,246.834 623.926,246.956 623.957,247.075C623.988,247.193 624.038,247.304 624.115,247.397C624.191,247.489 624.283,247.571 624.394,247.624C625.319,248.085 625.825,248.967 625.904,249.869C625.99,250.847 625.611,251.851 624.719,252.388C623.767,252.965 622.641,252.916 621.743,252.455C620.79,251.967 620.091,251.034 620.073,249.861C620.074,249.843 620.059,249.828 620.04,249.827C620.022,249.826 620.006,249.841 620.006,249.859C619.89,251.12 620.557,252.19 621.527,252.814C622.541,253.465 623.882,253.605 625.079,253.02C626.319,252.408 626.946,251.124 626.936,249.822C626.927,248.695 626.415,247.566 625.419,246.803C625.937,246.161 626.909,244.959 628.102,243.454C629.388,241.83 630.936,239.861 632.471,237.871C633.454,236.597 634.426,235.311 635.331,234.111C637.289,231.514 638.92,229.311 639.574,228.436C639.789,228.146 639.882,227.802 639.848,227.468C639.815,227.135 639.666,226.811 639.398,226.569L638.797,226.025C638.508,225.764 638.141,225.637 637.776,225.65C637.413,225.663 637.053,225.807 636.785,226.088L620.471,243.361C620.363,243.472 620.292,243.611 620.272,243.758C620.253,243.905 620.274,244.058 620.351,244.195C620.351,244.195 620.351,244.196 620.351,244.196C620.811,245.013 620.899,245.746 620.796,246.367C620.627,247.387 619.978,248.1 619.707,248.36C619.434,248.622 618.748,249.127 617.853,249.206C617.266,249.258 616.591,249.128 615.883,248.635C615.238,248.186 614.846,247.458 614.774,246.676C614.705,245.929 614.922,245.133 615.484,244.473C616.05,243.808 616.777,243.457 617.504,243.414C618.277,243.369 619.046,243.667 619.612,244.292C619.677,244.365 619.789,244.373 619.864,244.31C619.939,244.248 619.947,244.137 619.883,244.064C619.255,243.322 618.378,242.956 617.485,242.978C616.635,242.999 615.769,243.377 615.08,244.131C614.384,244.892 614.099,245.83 614.15,246.72C614.205,247.697 614.673,248.614 615.457,249.2C616.325,249.85 617.172,250.029 617.911,249.987C619.056,249.923 619.95,249.305 620.309,248.981C620.658,248.668 621.487,247.797 621.739,246.532C621.887,245.79 621.836,244.912 621.374,243.928Z"/>
                </g>
                <g transform="matrix(0.599941,0.0956311,-0.164544,0.363634,145.975,-25.3563)">
                    <path d="M623.749,248.548L623.766,248.544L623.781,248.54C623.932,248.494 624.025,248.335 623.985,248.179C623.943,248.018 623.776,247.919 623.611,247.96L623.612,247.963C623.599,247.964 623.586,247.966 623.572,247.969C623.487,247.985 623.307,248.009 623.108,247.982C623.006,247.968 622.897,247.952 622.793,247.901C622.576,247.794 622.372,247.598 622.261,247.206C622.252,247.148 622.197,247.108 622.138,247.116C622.078,247.124 622.037,247.178 622.045,247.236C622.052,247.783 622.269,248.104 622.521,248.308C622.666,248.426 622.832,248.493 622.993,248.536C623.346,248.628 623.673,248.565 623.749,248.548Z"/>
                </g>
                <g transform="matrix(0.591825,0,0,0.351261,108.397,36.7993)">
                    <path d="M616.222,235.267L623.136,228.882C623.266,228.761 623.42,228.675 623.583,228.614C623.743,228.554 623.915,228.533 624.089,228.539C624.26,228.545 624.423,228.592 624.576,228.661C624.726,228.728 624.859,228.83 624.974,228.951L632.418,236.764C632.777,237.123 633.36,237.123 633.718,236.764C634.077,236.405 634.077,235.822 633.718,235.464L625.906,228.019C625.659,227.786 625.376,227.6 625.064,227.482C624.756,227.365 624.426,227.302 624.089,227.313C623.756,227.324 623.431,227.393 623.134,227.529C622.839,227.663 622.567,227.847 622.342,228.088C622.342,228.088 615.957,235.002 615.957,235.002C615.884,235.076 615.884,235.194 615.957,235.267C616.03,235.341 616.149,235.341 616.222,235.267Z"/>
                </g>
                <g transform="matrix(0.591825,0,0,0.351261,108.397,36.7993)">
                    <path d="M635.334,239.73C635.334,239.73 637.951,242.272 640.539,244.722C641.832,245.947 643.123,247.139 644.052,248.008C644.178,248.123 644.286,248.254 644.357,248.406C644.43,248.561 644.481,248.728 644.489,248.903C644.497,249.082 644.477,249.26 644.418,249.425C644.356,249.595 644.271,249.757 644.147,249.893C644.147,249.893 637.832,256.878 637.832,256.878C637.819,256.892 637.819,256.914 637.832,256.928C637.846,256.942 637.869,256.942 637.882,256.928L644.867,250.614C645.107,250.396 645.29,250.13 645.425,249.842C645.561,249.551 645.63,249.231 645.644,248.903C645.659,248.571 645.597,248.245 645.485,247.939C645.372,247.628 645.189,247.346 644.962,247.098C644.093,246.169 642.901,244.878 641.677,243.584C639.226,240.997 636.684,238.379 636.684,238.379C636.311,238.007 635.706,238.007 635.334,238.379C634.961,238.752 634.961,239.357 635.334,239.73Z"/>
                </g>
                <g transform="matrix(0.591825,0,0,0.351261,106.679,37.873)">
                    <path d="M623.957,227.267C623.957,227.267 625.983,229.659 628.081,232.006C630.173,234.346 632.324,236.626 632.324,236.626C632.671,236.973 633.234,236.973 633.581,236.626C633.928,236.28 633.928,235.716 633.581,235.369C633.581,235.369 631.301,233.219 628.961,231.127C626.613,229.028 624.222,227.002 624.222,227.002C624.149,226.929 624.03,226.929 623.957,227.002C623.884,227.076 623.884,227.194 623.957,227.267Z"/>
                </g>
                <g transform="matrix(0.591825,0,0,0.351261,106.679,37.873)">
                    <path d="M635.414,239.81C635.414,239.81 637.278,241.608 639.472,243.567C640.086,244.114 640.731,244.657 641.362,245.193C643.706,247.18 645.832,248.928 645.832,248.928C645.846,248.942 645.869,248.942 645.882,248.928C645.896,248.914 645.896,248.892 645.882,248.878C645.882,248.878 644.135,246.752 642.147,244.408C641.612,243.776 641.069,243.132 640.521,242.518C638.563,240.324 636.764,238.46 636.764,238.46C636.392,238.087 635.787,238.087 635.414,238.46C635.041,238.832 635.041,239.437 635.414,239.81Z"/>
                </g>
            </g>
        </g>
    </g>
</svg>
