<?xml version="1.0" encoding="UTF-8" standalone="no"?>
<!DOCTYPE svg PUBLIC "-//W3C//DTD SVG 1.1//EN" "http://www.w3.org/Graphics/SVG/1.1/DTD/svg11.dtd">
<svg width="100%" height="100%" viewBox="0 0 29 30" version="1.1" xmlns="http://www.w3.org/2000/svg" xmlns:xlink="http://www.w3.org/1999/xlink" xml:space="preserve" xmlns:serif="http://www.serif.com/" style="fill-rule:evenodd;clip-rule:evenodd;stroke-linejoin:round;stroke-miterlimit:2;">
    <g transform="matrix(1,0,0,1,-667,-535)">
        <g id="ic_categories_bucket_list_life_event" transform="matrix(1.00134,0,0,1.00107,-0.925513,-0.590535)">
            <rect x="667.195" y="536" width="28.229" height="28.519" style="fill:none;"/>
            <g transform="matrix(0.998661,0,0,0.99893,0.924274,0.589904)">
                <g transform="matrix(-0.0282014,-0.149536,-0.154176,0.0290764,705.481,654.758)">
                    <path d="M694.605,44.033C694.605,48.43 691.108,52 686.801,52C682.494,52 678.997,48.43 678.997,44.033C678.997,39.636 682.494,36.066 686.801,36.066C691.108,36.066 695.49,39.981 695.49,44.378"/>
                </g>
                <g transform="matrix(-0.0282014,-0.149536,-0.154176,0.0290764,705.481,654.758)">
                    <path d="M700.44,48.566C698.529,54.303 693.083,58.374 686.801,58.374C678.962,58.374 672.426,52.036 672.426,44.033C672.426,36.03 678.962,29.692 686.801,29.692C694.387,29.692 702.062,36.633 702.062,44.378C702.062,45.981 701.45,47.447 700.44,48.566ZM688.134,42.925C688.067,43.285 688.033,43.655 688.033,44.033C688.033,44.83 687.582,45.626 686.801,45.626C686.02,45.626 685.569,44.83 685.569,44.033C685.569,43.236 686.02,42.439 686.801,42.439C687.269,42.439 687.75,42.624 688.134,42.925Z" style="fill:none;"/>
                </g>
                <g transform="matrix(1,0,0,1,-43.6078,408.029)">
                    <path d="M710.999,156.196L716.954,156.49C717.225,156.49 717.444,156.271 717.444,156L717.741,148.849C719.04,148.891 721.732,148.97 724.154,148.991C726.705,149.012 728.954,148.96 728.954,148.96C729.485,148.96 729.915,148.53 729.915,148C729.915,148 729.861,146.001 729.781,144C729.728,142.67 729.663,141.342 729.626,140.6C729.626,140.6 738.995,140.037 738.995,140.037C739.015,140.037 739.032,140.02 739.032,140C739.032,139.98 739.015,139.963 738.995,139.963L728.954,139.36C728.601,139.36 728.314,139.646 728.314,140C728.314,140 728.207,141.997 728.127,144C728.082,145.127 728.046,146.254 728.022,147.023C727.131,147.01 725.698,146.996 724.154,147.009C720.811,147.038 716.954,147.178 716.954,147.178C716.5,147.178 716.132,147.546 716.132,148L716.445,155.535C716.445,155.535 710.999,155.804 710.999,155.804C710.89,155.804 710.803,155.892 710.803,156C710.803,156.108 710.89,156.196 710.999,156.196Z"/>
                </g>
                <g transform="matrix(1,0,0,1,-43.6078,408.029)">
                    <path d="M723.817,132.306C724.508,132.606 725.279,132.791 726.09,132.856C727.328,132.955 728.652,132.783 729.883,132.414C729.875,132.463 729.867,132.512 729.859,132.562C729.704,133.536 729.638,134.759 729.942,135.899C728.84,135.647 727.649,135.575 726.595,135.686C725.366,135.814 724.341,136.172 723.89,136.733C723.876,136.748 723.877,136.772 723.891,136.786C723.906,136.799 723.93,136.799 723.944,136.784C724.441,136.32 725.447,136.131 726.613,136.169C727.921,136.211 729.417,136.556 730.598,137.179C730.797,137.268 731.031,137.224 731.185,137.069C731.339,136.914 731.38,136.68 731.289,136.481C730.629,134.807 731.301,132.771 731.659,131.854C731.718,131.703 731.789,131.547 731.821,131.478C731.904,131.335 731.945,131.168 731.932,130.996C731.905,130.641 731.655,130.342 731.311,130.252C731.301,130.25 731.04,130.221 730.772,130.339L730.768,130.294C729.621,130.745 728.288,130.953 727.02,130.931C725.911,130.912 724.843,130.714 724.029,130.193L723.924,128.866C723.895,128.354 723.464,127.958 722.952,127.971C722.439,127.985 722.03,128.404 722.029,128.917C722.029,128.917 722.095,132.109 722.238,135.731C722.427,140.483 722.735,145.953 722.735,145.953C722.734,146.061 722.822,146.149 722.93,146.15C723.039,146.15 723.127,146.062 723.127,145.954C723.127,145.954 723.465,140.485 723.679,135.735C723.734,134.507 723.78,133.328 723.817,132.306ZM724.032,130.242L724.051,130.482C724.057,130.553 724.038,130.633 724.063,130.631C724.327,130.608 724.203,130.415 724.032,130.242Z"/>
                </g>
            </g>
        </g>
    </g>
</svg>
