<?xml version="1.0" encoding="UTF-8" standalone="no"?>
<!DOCTYPE svg PUBLIC "-//W3C//DTD SVG 1.1//EN" "http://www.w3.org/Graphics/SVG/1.1/DTD/svg11.dtd">
<svg width="100%" height="100%" viewBox="0 0 31 21" version="1.1" xmlns="http://www.w3.org/2000/svg" xmlns:xlink="http://www.w3.org/1999/xlink" xml:space="preserve" xmlns:serif="http://www.serif.com/" style="fill-rule:evenodd;clip-rule:evenodd;stroke-linejoin:round;stroke-miterlimit:2;">
    <g transform="matrix(1,0,0,1,-644,-1344)">
        <g id="ic_category_subscription_services_entertainment" transform="matrix(1.00071,0,0,1.00086,-0.46837,-7.43375)">
            <rect x="644.92" y="1350.3" width="29.632" height="20.178" style="fill:none;"/>
            <g transform="matrix(1.76832,0,0,2.97893,-30.5682,1035.16)">
                <g transform="matrix(0.43991,0,0,0.261096,112.201,90.2197)">
                    <ellipse cx="621.368" cy="81.007" rx="0.649" ry="0.642"/>
                </g>
                <g transform="matrix(0.43991,0,0,0.261096,112.201,90.2197)">
                    <path d="M621.601,80.408C621.844,80.5 622.017,80.734 622.017,81.007C622.017,81.362 621.727,81.65 621.368,81.65L621.368,80.978C621.402,80.965 621.364,81.097 621.389,81.073C621.433,81.032 621.521,81.197 621.536,81.14C621.558,81.055 621.779,81.095 621.744,81.007C621.686,80.858 621.902,80.654 621.766,80.594C621.694,80.562 621.646,80.483 621.601,80.408Z"/>
                </g>
                <g transform="matrix(0.43991,0,0,0.261096,123.126,90.2197)">
                    <path d="M621.601,80.408C621.844,80.5 622.017,80.734 622.017,81.007C622.017,81.362 621.727,81.65 621.368,81.65L621.368,80.978C621.402,80.965 621.364,81.097 621.389,81.073C621.433,81.032 621.521,81.197 621.536,81.14C621.558,81.055 621.779,81.095 621.744,81.007C621.686,80.858 621.902,80.654 621.766,80.594C621.694,80.562 621.646,80.483 621.601,80.408Z"/>
                </g>
                <g transform="matrix(0.43991,0,0,0.261096,110.888,90.2197)">
                    <path d="M621.601,80.408C621.844,80.5 622.017,80.734 622.017,81.007C622.017,81.362 621.727,81.65 621.368,81.65L621.368,80.978C621.402,80.965 621.364,81.097 621.389,81.073C621.433,81.032 621.521,81.197 621.536,81.14C621.558,81.055 621.779,81.095 621.744,81.007C621.686,80.858 621.902,80.654 621.766,80.594C621.694,80.562 621.646,80.483 621.601,80.408Z"/>
                </g>
                <g transform="matrix(0.43991,0,0,0.261096,121.814,90.2197)">
                    <path d="M621.601,80.408C621.844,80.5 622.017,80.734 622.017,81.007C622.017,81.362 621.727,81.65 621.368,81.65L621.368,80.978C621.402,80.965 621.364,81.097 621.389,81.073C621.433,81.032 621.521,81.197 621.536,81.14C621.558,81.055 621.779,81.095 621.744,81.007C621.686,80.858 621.902,80.654 621.766,80.594C621.694,80.562 621.646,80.483 621.601,80.408Z"/>
                </g>
                <g transform="matrix(4.04183e-17,-0.391772,0.790634,2.87338e-17,274.921,294.397)">
                    <path d="M481.409,154.661L481.41,154.616C481.41,154.601 481.41,154.586 481.409,154.57C481.409,154.57 480.986,138.859 480.986,138.859C480.986,138.845 480.972,138.833 480.954,138.833C480.937,138.833 480.923,138.845 480.923,138.859L480.499,154.57C480.496,154.709 480.457,154.843 480.391,154.968C480.327,155.091 480.23,155.202 480.112,155.297C479.995,155.391 479.856,155.461 479.708,155.509C479.561,155.557 479.403,155.578 479.242,155.575L466.703,155.386C466.574,155.384 466.449,155.358 466.333,155.316C466.218,155.275 466.115,155.212 466.026,155.136C465.938,155.06 465.873,154.97 465.827,154.873C465.782,154.778 465.763,154.675 465.765,154.571C465.781,153.366 465.818,151.51 465.836,149.428C465.845,148.328 465.849,147.164 465.845,146C465.841,144.529 465.828,143.058 465.808,141.715C465.784,139.984 465.744,138.466 465.723,137.429C465.721,137.32 465.739,137.212 465.786,137.112C465.833,137.011 465.9,136.915 465.992,136.836C466.085,136.755 466.193,136.688 466.313,136.643C466.436,136.598 466.567,136.567 466.703,136.565L479.242,136.246C479.432,136.24 479.62,136.262 479.794,136.316C479.972,136.371 480.139,136.453 480.281,136.562C480.425,136.674 480.542,136.806 480.622,136.952C480.704,137.101 480.754,137.263 480.761,137.43L480.786,137.977L480.801,137.982C480.864,138.005 481.117,138.084 481.125,137.922C481.129,137.835 481.137,137.651 481.147,137.43C481.157,137.217 481.112,137.008 481.026,136.813C480.938,136.615 480.8,136.433 480.625,136.275C480.447,136.115 480.233,135.991 480,135.901C479.764,135.811 479.507,135.763 479.242,135.754C479.242,135.754 466.703,135.435 466.703,135.435C466.385,135.429 466.073,135.48 465.783,135.574C465.49,135.669 465.224,135.817 464.993,136.002C464.761,136.188 464.583,136.411 464.457,136.653C464.33,136.895 464.265,137.16 464.259,137.429C464.259,137.429 464.259,137.429 464.259,137.429C464.238,138.466 464.198,139.984 464.173,141.715C464.154,143.058 464.141,144.529 464.136,146C464.133,147.164 464.137,148.328 464.146,149.428C464.164,151.51 464.201,153.366 464.217,154.571C464.222,154.845 464.287,155.114 464.415,155.362C464.542,155.608 464.724,155.836 464.959,156.027C465.193,156.217 465.465,156.367 465.763,156.466C466.059,156.564 466.378,156.618 466.703,156.614C466.703,156.614 479.242,156.425 479.242,156.425C479.536,156.42 479.823,156.37 480.087,156.273C480.349,156.177 480.591,156.042 480.794,155.866C480.995,155.691 481.153,155.489 481.257,155.267C481.347,155.075 481.4,154.87 481.409,154.661Z"/>
                </g>
                <g transform="matrix(3.2661e-17,0.316581,-0.533395,1.9385e-17,524.048,-80.7572)">
                    <path d="M596.847,246.524C596.847,246.524 598.221,249.263 599.263,251.25C599.36,251.436 599.455,251.615 599.545,251.785C599.518,251.784 599.49,251.782 599.463,251.781C598.754,251.75 597.889,251.711 597.022,251.71C596.315,251.709 595.609,251.733 594.988,251.764C594.77,251.775 594.562,251.787 594.368,251.8C594.531,251.457 594.712,251.073 594.897,250.672C595.726,248.874 596.621,246.805 596.621,246.805C596.632,246.787 596.626,246.763 596.608,246.752C596.589,246.74 596.565,246.746 596.554,246.765C596.554,246.765 595.131,248.512 593.918,250.078C592.998,251.267 592.224,252.325 592.224,252.325C592.064,252.589 592.059,252.919 592.21,253.188C592.361,253.456 592.646,253.623 592.954,253.623C592.954,253.623 593.816,253.714 594.988,253.773C595.609,253.804 596.315,253.828 597.022,253.827C597.889,253.826 598.754,253.787 599.463,253.756C600.422,253.715 601.09,253.663 601.09,253.663C601.417,253.663 601.717,253.484 601.874,253.198C602.031,252.911 602.019,252.562 601.843,252.287C601.843,252.287 601.255,251.484 600.477,250.473C599.109,248.695 597.197,246.3 597.197,246.3C597.135,246.203 597.007,246.175 596.91,246.237C596.814,246.299 596.785,246.427 596.847,246.524Z"/>
                </g>
                <g transform="matrix(3.78654,0.00374283,0.00630614,0.284351,-2559.87,92.166)">
                    <path d="M776.953,55.421C776.953,55.421 777.703,55.413 778.553,55.357C779.667,55.283 780.954,55.134 780.954,55.134C780.975,55.135 780.993,54.998 780.993,54.83C780.993,54.661 780.976,54.525 780.955,54.525C780.955,54.525 779.669,54.371 778.555,54.293C777.705,54.234 776.955,54.223 776.955,54.223C776.914,54.223 776.879,54.491 776.879,54.822C776.878,55.152 776.911,55.421 776.953,55.421Z"/>
                </g>
                <g transform="matrix(1.89562,0.001603,0.00270083,0.284347,-1086.39,94.5264)">
                    <path d="M776.954,55.221C776.954,55.221 777.703,55.217 778.554,55.179C779.668,55.131 780.954,55.033 780.954,55.033C780.982,55.033 781.006,54.942 781.006,54.83C781.006,54.717 780.983,54.626 780.955,54.626C780.955,54.626 779.669,54.523 778.555,54.47C777.705,54.43 776.955,54.423 776.955,54.423C776.899,54.422 776.854,54.601 776.853,54.822C776.853,55.042 776.898,55.221 776.954,55.221Z"/>
                </g>
                <g transform="matrix(-0.000492884,-0.130914,0.479079,0.000292537,364.47,213.329)">
                    <path d="M776.347,54.821L776.347,54.821L776.347,54.821L776.347,54.821L776.347,54.821L776.347,54.821L776.347,54.821C776.348,54.975 776.619,55.101 776.954,55.101L776.937,55.093C776.991,55.098 777.05,55.101 777.114,55.1C777.379,55.096 777.94,55.092 778.554,55.073C779.675,55.039 780.954,54.972 780.954,54.972C781.125,54.972 781.263,54.909 781.263,54.83C781.264,54.752 781.125,54.688 780.955,54.687C780.955,54.687 779.676,54.615 778.555,54.577C777.941,54.556 777.38,54.55 777.115,54.545C777.044,54.543 776.97,54.553 776.971,54.543C776.987,54.28 776.352,54.817 776.347,54.821ZM776.347,54.821L776.347,54.821C776.347,54.666 776.62,54.542 776.347,54.821Z"/>
                </g>
                <g transform="matrix(0.43991,0,0,0.261096,123.126,90.2197)">
                    <ellipse cx="621.368" cy="81.007" rx="0.649" ry="0.642"/>
                </g>
                <g transform="matrix(0.43991,0,0,0.261096,110.888,90.2197)">
                    <ellipse cx="621.368" cy="81.007" rx="0.649" ry="0.642"/>
                </g>
                <g transform="matrix(0.43991,0,0,0.261096,121.814,90.2197)">
                    <ellipse cx="621.368" cy="81.007" rx="0.649" ry="0.642"/>
                </g>
            </g>
        </g>
    </g>
</svg>
