<?xml version="1.0" encoding="UTF-8" standalone="no"?>
<!DOCTYPE svg PUBLIC "-//W3C//DTD SVG 1.1//EN" "http://www.w3.org/Graphics/SVG/1.1/DTD/svg11.dtd">
<svg width="100%" height="100%" viewBox="0 0 31 31" version="1.1" xmlns="http://www.w3.org/2000/svg" xmlns:xlink="http://www.w3.org/1999/xlink" xml:space="preserve" xmlns:serif="http://www.serif.com/" style="fill-rule:evenodd;clip-rule:evenodd;stroke-linejoin:round;stroke-miterlimit:2;">
    <g transform="matrix(1,0,0,1,-598,-1279)">
        <g id="ic_category_groups_household" transform="matrix(1.00111,0,0,1.00058,-0.694042,-1.01915)">
            <rect x="598.173" y="1279.67" width="30.293" height="30.319" style="fill:none;"/>
            <g transform="matrix(1.76761,0,0,2.97976,-113.656,972.424)">
                <g transform="matrix(-0.0112072,-0.0361148,-0.0612691,0.0070223,420.333,135.236)">
                    <path d="M694.605,44.033C694.605,48.43 691.108,52 686.801,52C682.494,52 678.997,48.43 678.997,44.033C678.997,39.636 682.494,36.066 686.801,36.066C691.108,36.066 695.49,39.981 695.49,44.378"/>
                </g>
                <g transform="matrix(-0.0112072,-0.0361148,-0.0612691,0.0070223,420.333,135.236)">
                    <path d="M702.689,50.007C700.297,56.486 694.075,61.056 686.88,61.056C677.563,61.056 669.863,53.466 669.863,43.955C669.863,34.531 677.491,27.009 686.722,27.009C695.676,27.009 704.624,35.315 704.624,44.456C704.624,46.555 703.902,48.483 702.689,50.007Z" style="fill:none;"/>
                </g>
                <g transform="matrix(0.565107,0,0,0.335403,19.9445,49.1136)">
                    <path d="M679.048,176.139C679.048,176.139 683.816,171.904 687.897,168.165C688.945,167.205 689.94,166.275 690.801,165.461C691.694,164.615 692.44,163.897 692.946,163.406C693.447,163.901 694.19,164.627 695.086,165.476C695.946,166.29 696.952,167.206 698.004,168.161C699.171,169.219 700.392,170.311 701.553,171.335C704.471,173.909 706.946,176.026 706.946,176.026C706.96,176.041 706.984,176.041 706.998,176.026C707.012,176.012 707.012,175.988 706.998,175.974C706.998,175.974 704.877,173.502 702.298,170.588C701.273,169.429 700.179,168.21 699.119,167.044C698.163,165.994 697.245,164.989 696.429,164.131C694.825,162.442 693.66,161.298 693.66,161.298C693.27,160.909 692.639,160.908 692.25,161.297C692.25,161.297 691.099,162.458 689.49,164.146C688.672,165.003 687.739,165.995 686.776,167.04C683.023,171.108 678.771,175.861 678.771,175.861C678.694,175.937 678.694,176.062 678.77,176.138C678.847,176.215 678.971,176.215 679.048,176.139Z"/>
                </g>
                <g transform="matrix(0.565107,3.03562e-15,-5.11459e-15,-0.270301,19.9445,160.131)">
                    <path d="M681.632,174.959L681.632,177.436C681.632,177.9 681.328,178.276 680.954,178.276C680.581,178.276 680.277,177.9 680.277,177.436L680.277,174.959C680.277,174.495 680.581,174.118 680.954,174.118C681.328,174.118 681.632,174.495 681.632,174.959Z"/>
                </g>
                <g transform="matrix(0.565107,0,0,-0.181288,19.9445,142.247)">
                    <path d="M681.278,186.961L681.175,189.966C681.175,190.191 681.076,190.375 680.954,190.375C680.832,190.375 680.733,190.191 680.733,189.966L680.631,186.961C680.631,186.63 680.776,186.362 680.954,186.362C681.133,186.362 681.278,186.63 681.278,186.961Z"/>
                </g>
                <g transform="matrix(0.565107,0,0,0.246192,19.9445,64.7254)">
                    <path d="M705.414,181.986L705.193,174.998C705.193,174.818 705.086,174.673 704.954,174.673C704.823,174.673 704.716,174.818 704.716,174.998L704.495,181.986C704.495,182.332 704.701,182.613 704.954,182.613C705.208,182.613 705.414,182.332 705.414,181.986Z"/>
                </g>
                <g transform="matrix(1.63368e-17,-0.335403,0.195835,1.50749e-17,379.888,347.76)">
                    <path d="M705.299,181.986L705.133,174.998C705.133,174.713 705.053,174.481 704.954,174.481C704.856,174.481 704.775,174.713 704.775,174.998L704.609,181.986C704.609,182.536 704.764,182.981 704.954,182.981C705.145,182.981 705.299,182.536 705.299,181.986Z"/>
                </g>
                <g transform="matrix(1.63368e-17,-0.335403,0.195835,1.50749e-17,382.19,347.76)">
                    <path d="M705.299,181.986L705.133,174.998C705.133,174.713 705.053,174.481 704.954,174.481C704.856,174.481 704.775,174.713 704.775,174.998L704.609,181.986C704.609,182.536 704.764,182.981 704.954,182.981C705.145,182.981 705.299,182.536 705.299,181.986Z"/>
                </g>
                <g transform="matrix(-1.48111e-17,-0.335403,-0.177547,1.50749e-17,446.598,348.261)">
                    <path d="M704.609,181.986L704.775,174.998C704.775,174.683 704.856,174.428 704.954,174.428C705.053,174.428 705.133,174.683 705.133,174.998L705.299,181.986C705.299,182.592 705.145,183.084 704.954,183.084C704.764,183.084 704.609,182.592 704.609,181.986Z"/>
                </g>
                <g transform="matrix(-1.48111e-17,-0.335403,-0.177547,1.50749e-17,448.9,348.261)">
                    <path d="M704.609,181.986L704.775,174.998C704.775,174.683 704.856,174.428 704.954,174.428C705.053,174.428 705.133,174.683 705.133,174.998L705.299,181.986C705.299,182.592 705.145,183.084 704.954,183.084C704.764,183.084 704.609,182.592 704.609,181.986Z"/>
                </g>
                <g transform="matrix(6.47407e-17,-0.335403,1.0573,2.05375e-17,218.576,349.501)">
                    <path d="M705.632,189.997C705.632,189.997 705.638,187.186 705.554,183.997C705.443,179.82 705.193,174.998 705.193,174.998C705.193,174.928 705.086,174.87 704.954,174.87C704.823,174.87 704.716,174.928 704.716,174.998C704.716,174.998 704.466,179.82 704.355,183.997C704.27,187.186 704.277,189.997 704.277,189.997C704.277,190.197 704.581,190.359 704.954,190.359C705.328,190.359 705.632,190.197 705.632,189.997Z"/>
                </g>
                <g transform="matrix(0.662329,0,0,0.40252,-46.3761,36.3623)">
                    <path d="M685.704,180.785C686.275,180.803 687.107,180.833 687.939,180.838C688.768,180.843 689.597,180.822 690.17,180.811C690.23,181.777 690.329,183.508 690.464,185.212C690.657,187.649 690.903,189.996 690.903,189.996C690.903,190.013 690.917,190.026 690.935,190.026C690.952,190.026 690.966,190.013 690.966,189.996C690.966,189.996 691.208,187.648 691.396,185.211C691.547,183.259 691.651,181.27 691.706,180.427C691.706,180.427 691.706,180.427 691.706,180.427C691.722,180.1 691.573,179.808 691.364,179.584C691.153,179.356 690.841,179.234 690.502,179.218C689.952,179.208 688.948,179.173 687.943,179.174C686.938,179.176 685.934,179.215 685.383,179.226C685.383,179.226 685.383,179.226 685.383,179.226C685.222,179.23 685.062,179.256 684.918,179.32C684.774,179.384 684.636,179.466 684.527,179.582C684.419,179.697 684.325,179.824 684.271,179.968C684.217,180.111 684.18,180.262 684.187,180.417C684.187,180.417 684.187,180.417 684.187,180.417C684.223,181.124 684.287,182.631 684.386,184.249C684.552,186.978 684.787,189.996 684.787,189.996C684.787,190.086 684.862,190.159 684.954,190.159C685.047,190.159 685.122,190.086 685.122,189.996C685.122,189.996 685.357,186.978 685.523,184.249C685.607,182.873 685.666,181.576 685.704,180.785ZM690.498,180.805L690.498,180.805L690.498,180.805ZM685.719,180.486C685.721,180.464 685.721,180.442 685.722,180.42L685.719,180.486Z"/>
                </g>
                <g transform="matrix(0.422245,0,0,0.269176,120.084,60.5542)">
                    <path d="M701.881,164.925L703.043,164.908C703.131,165.815 703.262,167.267 703.422,168.686C703.658,170.779 703.93,172.748 703.93,172.748C703.93,172.767 703.947,172.782 703.967,172.782C703.988,172.782 704.004,172.766 704.004,172.747C704.004,172.747 704.255,170.776 704.468,168.681C704.629,167.101 704.753,165.48 704.83,164.616C704.859,164.207 704.663,163.842 704.392,163.558C704.116,163.269 703.702,163.117 703.254,163.095L701.624,163.071C701.403,163.077 701.186,163.113 700.988,163.196C700.792,163.278 700.606,163.387 700.456,163.537C700.31,163.687 700.183,163.852 700.111,164.04C700.04,164.226 699.989,164.422 700,164.623C700.038,165.024 700.078,165.575 700.147,166.175C700.186,166.516 700.233,166.862 700.289,167.209C700.505,168.57 700.757,169.795 700.757,169.795C700.757,169.897 700.846,169.979 700.954,169.979C701.063,169.979 701.151,169.897 701.151,169.795C701.151,169.795 701.403,168.57 701.62,167.209C701.675,166.862 701.722,166.516 701.762,166.175C701.815,165.715 701.851,165.283 701.881,164.925ZM703.016,164.624C703.019,164.669 703.015,164.717 703.028,164.755L703.016,164.624Z"/>
                </g>
                <g transform="matrix(0.51569,0,0,0.297447,168.476,45.9881)">
                    <path d="M457.288,210.467C457.288,210.467 455.997,212.904 455.106,215.293C454.598,216.655 454.231,218.006 454.24,218.92C454.258,219.956 454.68,220.894 455.37,221.556C456.038,222.198 456.944,222.593 457.939,222.569C458.918,222.544 459.8,222.135 460.429,221.473C461.059,220.81 461.447,219.909 461.422,218.92C461.399,218.066 461.119,216.922 460.743,215.783C460.029,213.618 458.999,211.466 458.999,211.466C458.939,211.331 458.783,211.272 458.652,211.334C458.521,211.396 458.463,211.556 458.523,211.691C458.523,211.691 459.418,213.857 460.005,216.018C460.293,217.079 460.507,218.138 460.487,218.92C460.469,219.622 460.162,220.246 459.692,220.693C459.236,221.126 458.614,221.378 457.939,221.36C457.279,221.345 456.69,221.054 456.264,220.61C455.845,220.173 455.595,219.575 455.606,218.92C455.614,218.135 455.989,216.994 456.442,215.832C457.334,213.543 458.589,211.202 458.589,211.202C458.786,210.832 458.655,210.367 458.295,210.165C457.936,209.962 457.485,210.098 457.288,210.467Z"/>
                </g>
                <g transform="matrix(0.933927,0,0,0.335403,-27.5457,38.381)">
                    <path d="M472.243,214.207L472.466,213.872L472.659,214.194C472.664,214.527 472.675,215.231 472.697,216.098C472.707,216.527 472.722,216.994 472.738,217.477C472.76,218.162 472.785,218.873 472.811,219.544C472.878,221.236 472.943,222.646 472.943,222.646C472.943,222.657 472.948,222.665 472.954,222.665C472.961,222.665 472.966,222.657 472.966,222.646C472.966,222.646 473.031,221.236 473.097,219.544C473.124,218.873 473.149,218.162 473.171,217.477C473.187,216.994 473.201,216.527 473.212,216.098C473.238,215.04 473.249,214.225 473.253,214.03C473.253,214.03 473.253,214.03 473.253,214.03C473.253,213.951 473.243,213.874 473.226,213.802C473.209,213.73 473.182,213.665 473.149,213.608C473.149,213.608 472.694,212.832 472.694,212.832C472.579,212.638 472.392,212.631 472.272,212.816L471.776,213.603C471.741,213.661 471.711,213.727 471.693,213.802C471.674,213.876 471.663,213.956 471.664,214.038C471.664,214.038 471.664,214.038 471.664,214.038C471.67,214.321 471.694,215.815 471.741,217.482C471.808,219.89 471.916,222.647 471.916,222.647C471.916,222.701 471.943,222.745 471.976,222.744C472.008,222.744 472.035,222.7 472.035,222.646C472.035,222.646 472.129,219.888 472.185,217.479C472.219,216.031 472.236,214.714 472.243,214.207Z"/>
                </g>
                <g transform="matrix(0.933927,0,0,0.335403,-25.2437,38.381)">
                    <path d="M472.243,214.207L472.466,213.872L472.659,214.194C472.664,214.527 472.675,215.231 472.697,216.098C472.707,216.527 472.722,216.994 472.738,217.477C472.76,218.162 472.785,218.873 472.811,219.544C472.878,221.236 472.943,222.646 472.943,222.646C472.943,222.657 472.948,222.665 472.954,222.665C472.961,222.665 472.966,222.657 472.966,222.646C472.966,222.646 473.031,221.236 473.097,219.544C473.124,218.873 473.149,218.162 473.171,217.477C473.187,216.994 473.201,216.527 473.212,216.098C473.238,215.04 473.249,214.225 473.253,214.03C473.253,214.03 473.253,214.03 473.253,214.03C473.253,213.951 473.243,213.874 473.226,213.802C473.209,213.73 473.182,213.665 473.149,213.608C473.149,213.608 472.694,212.832 472.694,212.832C472.579,212.638 472.392,212.631 472.272,212.816L471.776,213.603C471.741,213.661 471.711,213.727 471.693,213.802C471.674,213.876 471.663,213.956 471.664,214.038C471.664,214.038 471.664,214.038 471.664,214.038C471.67,214.321 471.694,215.815 471.741,217.482C471.808,219.89 471.916,222.647 471.916,222.647C471.916,222.701 471.943,222.745 471.976,222.744C472.008,222.744 472.035,222.7 472.035,222.646C472.035,222.646 472.129,219.888 472.185,217.479C472.219,216.031 472.236,214.714 472.243,214.207Z"/>
                </g>
                <g transform="matrix(0.933927,0,0,0.335403,-22.9269,38.381)">
                    <path d="M472.243,214.207L472.466,213.872L472.659,214.194C472.664,214.527 472.675,215.231 472.697,216.098C472.707,216.527 472.722,216.994 472.738,217.477C472.76,218.162 472.785,218.873 472.811,219.544C472.878,221.236 472.943,222.646 472.943,222.646C472.943,222.657 472.948,222.665 472.954,222.665C472.961,222.665 472.966,222.657 472.966,222.646C472.966,222.646 473.031,221.236 473.097,219.544C473.124,218.873 473.149,218.162 473.171,217.477C473.187,216.994 473.201,216.527 473.212,216.098C473.238,215.04 473.249,214.225 473.253,214.03C473.253,214.03 473.253,214.03 473.253,214.03C473.253,213.951 473.243,213.874 473.226,213.802C473.209,213.73 473.182,213.665 473.149,213.608C473.149,213.608 472.694,212.832 472.694,212.832C472.579,212.638 472.392,212.631 472.272,212.816L471.776,213.603C471.741,213.661 471.711,213.727 471.693,213.802C471.674,213.876 471.663,213.956 471.664,214.038C471.664,214.038 471.664,214.038 471.664,214.038C471.67,214.321 471.694,215.815 471.741,217.482C471.808,219.89 471.916,222.647 471.916,222.647C471.916,222.701 471.943,222.745 471.976,222.744C472.008,222.744 472.035,222.7 472.035,222.646C472.035,222.646 472.129,219.888 472.185,217.479C472.219,216.031 472.236,214.714 472.243,214.207Z"/>
                </g>
            </g>
        </g>
    </g>
</svg>
