<?xml version="1.0" encoding="UTF-8" standalone="no"?>
<!DOCTYPE svg PUBLIC "-//W3C//DTD SVG 1.1//EN" "http://www.w3.org/Graphics/SVG/1.1/DTD/svg11.dtd">
<svg width="100%" height="100%" viewBox="0 0 22 32" version="1.1" xmlns="http://www.w3.org/2000/svg" xmlns:xlink="http://www.w3.org/1999/xlink" xml:space="preserve" xmlns:serif="http://www.serif.com/" style="fill-rule:evenodd;clip-rule:evenodd;stroke-linejoin:round;stroke-miterlimit:2;">
    <g transform="matrix(1,0,0,1,-637,-1484)">
        <g id="ic_category_groups_utilities" transform="matrix(1.0007,0,0,1.00033,-0.451865,-1.00656)">
            <rect x="637.766" y="1484.58" width="20.64" height="31.114" style="fill:none;"/>
            <g transform="matrix(1.76834,0,0,2.9805,90.3826,1151.04)">
                <g transform="matrix(0.610845,0,0,0.374145,-89.5741,26.6715)">
                    <path d="M662.816,227.904C662.816,227.904 658.952,233.301 656.189,238.66C654.627,241.689 653.449,244.715 653.397,246.78C653.354,249.27 654.449,251.541 656.245,253.172C657.969,254.737 660.348,255.696 662.968,255.716C665.587,255.692 667.967,254.736 669.685,253.165C671.469,251.533 672.547,249.262 672.488,246.78C672.426,244.769 671.425,242.042 670.08,239.35C667.603,234.394 664.065,229.543 664.065,229.543C664.055,229.528 664.034,229.523 664.018,229.533C664.002,229.543 663.998,229.564 664.008,229.579C664.008,229.579 667.103,234.651 669.215,239.722C670.295,242.315 671.131,244.899 671.072,246.78C671.024,248.824 670.036,250.636 668.523,251.933C667.071,253.178 665.118,253.944 662.968,253.925C660.82,253.941 658.866,253.176 657.42,251.926C655.919,250.629 654.95,248.815 654.915,246.78C654.867,244.855 655.889,242.006 657.188,239.113C659.635,233.663 663.12,228.096 663.12,228.096C663.175,228.014 663.151,227.905 663.067,227.853C662.983,227.8 662.87,227.823 662.816,227.904Z"/>
                </g>
                <g transform="matrix(0.452578,0,0,0.349199,61.5216,34.2378)">
                    <path d="M563.465,231.882C563.465,231.882 560.956,234.268 558.833,236.391C557.218,238.004 555.853,239.45 555.853,239.45C555.591,239.761 555.571,240.157 555.801,240.482C556.031,240.807 556.473,241.01 556.954,241.01C556.954,241.01 558.953,241.103 560.954,241.103C561.583,241.103 562.212,241.093 562.778,241.08C562.297,241.818 561.706,242.734 561.128,243.658C559.803,245.771 558.562,247.89 558.562,247.89C558.483,247.993 558.527,248.126 558.661,248.187C558.795,248.247 558.968,248.213 559.047,248.11C559.047,248.11 560.862,246.253 562.631,244.342C564.393,242.44 566.082,240.513 566.082,240.513C566.321,240.201 566.325,239.815 566.092,239.501C565.859,239.187 565.425,238.993 564.954,238.993C564.954,238.993 562.956,238.898 560.954,238.897C560.371,238.897 559.789,238.905 559.256,238.916C559.621,238.411 560.042,237.825 560.474,237.209C562.128,234.853 563.938,232.118 563.938,232.118C564.023,232.018 563.985,231.883 563.855,231.818C563.725,231.753 563.55,231.782 563.465,231.882Z"/>
                </g>
            </g>
        </g>
    </g>
</svg>
