<?xml version="1.0" encoding="UTF-8" standalone="no"?>
<!DOCTYPE svg PUBLIC "-//W3C//DTD SVG 1.1//EN" "http://www.w3.org/Graphics/SVG/1.1/DTD/svg11.dtd">
<svg width="100%" height="100%" viewBox="0 0 30 32" version="1.1" xmlns="http://www.w3.org/2000/svg" xmlns:xlink="http://www.w3.org/1999/xlink" xml:space="preserve" xmlns:serif="http://www.serif.com/" style="fill-rule:evenodd;clip-rule:evenodd;stroke-linejoin:round;stroke-miterlimit:2;">
    <g transform="matrix(1,0,0,1,-829,-1484)">
        <g id="ic_category_groups_personal_care" transform="matrix(0.793635,0,0,0.980918,174.136,28.3144)">
            <rect x="825.235" y="1484.08" width="37.184" height="31.653" style="fill:none;"/>
            <g transform="matrix(2.22971,0,0,3.03949,-20.6997,1144.16)">
                <g transform="matrix(0.406102,0,0,0.228661,144.56,59.5974)">
                    <path d="M598.954,256.376C597.028,254.951 594.985,252.97 593.184,250.828C591.334,248.626 589.75,246.256 588.866,244.136C588.863,244.13 588.86,244.123 588.857,244.116C587.797,241.762 587.236,239.424 587.146,237.321C587.04,234.841 587.615,232.704 588.973,231.37C589.411,230.935 589.963,230.932 590.549,231.126C591.221,231.348 591.917,231.835 592.629,232.461C594.479,234.087 596.321,236.716 597.574,239.377C597.81,239.865 598.286,240.171 598.805,240.171C599.325,240.171 599.8,239.865 600.037,239.377C601.303,236.737 603.156,234.213 604.999,232.679C605.702,232.094 606.386,231.642 607.047,231.45C607.611,231.286 608.145,231.304 608.57,231.723C608.57,231.723 608.57,231.723 608.57,231.723C609.922,233.043 610.498,235.163 610.401,237.626C610.319,239.727 609.769,242.063 608.719,244.419C608.716,244.426 608.713,244.433 608.709,244.439C607.841,246.57 605.925,249.459 603.748,252.182C601.61,254.856 599.233,257.362 597.297,258.821C597.273,258.837 597.266,258.871 597.282,258.896C597.297,258.921 597.329,258.928 597.353,258.912C599.423,257.618 602.032,255.316 604.396,252.807C606.882,250.169 609.074,247.304 610.144,245.161C611.775,242.054 612.561,238.892 612.524,236.165C612.49,233.6 611.697,231.415 610.283,229.877C608.853,228.334 606.867,228.306 604.748,229.488C603.346,230.271 601.867,231.631 600.53,233.31C599.912,234.087 599.326,234.935 598.788,235.821C597.072,233.059 594.894,230.602 592.866,229.386C590.754,228.12 588.769,228.086 587.344,229.615C585.936,231.139 585.148,233.31 585.106,235.86C585.061,238.581 585.834,241.74 587.46,244.868C588.513,247.02 590.308,249.424 592.399,251.61C594.373,253.673 596.595,255.543 598.656,256.858C598.782,256.944 598.952,256.907 599.034,256.774C599.116,256.641 599.081,256.462 598.954,256.376Z"/>
                </g>
                <g transform="matrix(-0.179584,-0.192831,-0.324893,0.106587,543.556,207.946)">
                    <path d="M553.715,186.468L553.411,178.521C553.401,178.247 553.272,178.008 553.087,177.834C552.909,177.667 552.663,177.579 552.4,177.587L551.471,177.616C551.352,177.619 551.238,177.654 551.131,177.702C551.027,177.749 550.936,177.823 550.856,177.908C550.778,177.991 550.725,178.092 550.686,178.197C550.647,178.299 550.637,178.41 550.64,178.522L550.919,188.481C550.922,188.629 550.998,188.756 551.097,188.852C551.191,188.943 551.325,188.985 551.467,188.983L553.133,188.963C553.212,188.962 553.287,188.934 553.354,188.897C553.42,188.86 553.471,188.802 553.512,188.736C553.512,188.736 554.559,187.051 554.559,187.051C554.848,186.599 555.42,186.42 555.915,186.628L560.104,188.344L560.252,188.373C560.829,188.375 562.145,188.37 563.582,188.387C565.545,188.409 567.734,188.464 568.576,188.48L568.806,188.443C568.806,188.443 578.227,184.131 578.227,184.131C578.572,183.975 578.864,183.737 579.067,183.435C579.275,183.123 579.409,182.759 579.421,182.37L579.421,182.368C579.425,182.271 579.415,182.175 579.374,182.091C579.332,182.003 579.277,181.919 579.196,181.859C579.113,181.797 579.021,181.748 578.92,181.732C578.817,181.716 578.709,181.715 578.606,181.75C578.606,181.75 569.882,184.688 569.882,184.688C569.86,184.696 569.835,184.685 569.827,184.664C569.819,184.642 569.829,184.617 569.851,184.609L578.275,180.895C578.515,180.79 578.775,180.757 579.029,180.775C579.287,180.793 579.537,180.882 579.764,181.022C579.994,181.164 580.174,181.365 580.307,181.591C580.443,181.821 580.513,182.085 580.527,182.359L580.527,182.361C580.557,182.972 580.398,183.561 580.11,184.075C579.816,184.598 579.368,185.027 578.821,185.326L569.701,190.24C569.528,190.332 569.344,190.397 569.157,190.446C568.969,190.495 568.775,190.517 568.579,190.522C567.737,190.54 565.548,190.603 563.585,190.631C562.148,190.652 560.832,190.651 560.256,190.655C560.256,190.655 560.256,190.655 560.256,190.655C560.078,190.655 559.902,190.638 559.729,190.603C559.556,190.568 559.386,190.516 559.222,190.448C559.222,190.448 555.902,189.024 555.902,189.024L555.325,189.897C555.08,190.269 554.752,190.571 554.369,190.772C553.988,190.971 553.559,191.083 553.114,191.073L551.449,191.023C550.755,191.003 550.127,190.72 549.683,190.253C549.244,189.791 548.964,189.169 548.979,188.481C548.979,188.481 549.255,178.522 549.255,178.522C549.264,178.229 549.323,177.943 549.441,177.681C549.559,177.421 549.72,177.18 549.931,176.982C550.141,176.785 550.382,176.627 550.646,176.528C550.908,176.429 551.187,176.374 551.472,176.383C551.472,176.383 552.402,176.414 552.402,176.414C552.977,176.433 553.497,176.668 553.863,177.058C554.222,177.44 554.449,177.953 554.432,178.518C554.432,178.518 554.163,186.467 554.163,186.467C554.163,186.591 554.063,186.691 553.939,186.692C553.816,186.692 553.715,186.592 553.715,186.468Z"/>
                </g>
                <g transform="matrix(0.179584,-0.192831,0.324893,0.106587,231.905,207.946)">
                    <path d="M554.163,186.467L554.432,178.518C554.449,177.953 554.222,177.44 553.863,177.058C553.497,176.668 552.977,176.433 552.402,176.414C552.402,176.414 551.472,176.383 551.472,176.383C551.187,176.374 550.908,176.429 550.646,176.528C550.382,176.627 550.141,176.785 549.931,176.982C549.72,177.18 549.559,177.421 549.441,177.681C549.323,177.943 549.264,178.229 549.255,178.522L548.979,188.481C548.964,189.169 549.244,189.791 549.683,190.253C550.127,190.72 550.755,191.003 551.449,191.023L553.114,191.073C553.559,191.083 553.988,190.971 554.369,190.772C554.752,190.571 555.08,190.269 555.325,189.897L555.902,189.024C555.902,189.024 559.222,190.448 559.222,190.448C559.386,190.516 559.556,190.568 559.729,190.603C559.902,190.638 560.078,190.655 560.256,190.655C560.256,190.655 560.256,190.655 560.256,190.655C560.832,190.651 562.148,190.652 563.585,190.631C565.548,190.603 567.737,190.54 568.579,190.522C568.775,190.517 568.969,190.495 569.157,190.446C569.344,190.397 569.528,190.332 569.701,190.24L578.821,185.326C579.368,185.027 579.816,184.598 580.11,184.075C580.398,183.561 580.557,182.972 580.527,182.361L580.527,182.359C580.513,182.085 580.443,181.821 580.307,181.591C580.174,181.365 579.994,181.164 579.764,181.022C579.537,180.882 579.287,180.793 579.029,180.775C578.775,180.757 578.515,180.79 578.275,180.895L569.851,184.609C569.829,184.617 569.819,184.642 569.827,184.664C569.835,184.685 569.86,184.696 569.882,184.688L578.606,181.75C578.709,181.715 578.817,181.716 578.92,181.732C579.021,181.748 579.113,181.797 579.196,181.859C579.277,181.919 579.332,182.003 579.374,182.091C579.415,182.175 579.425,182.271 579.421,182.368L579.421,182.37C579.409,182.759 579.275,183.123 579.067,183.435C578.864,183.737 578.572,183.975 578.227,184.131L568.806,188.443L568.576,188.48C567.734,188.464 565.545,188.409 563.582,188.387C562.145,188.37 560.829,188.375 560.252,188.373C560.252,188.373 560.104,188.344 560.104,188.344L555.915,186.628C555.42,186.42 554.848,186.599 554.559,187.051L553.512,188.736C553.471,188.802 553.42,188.86 553.354,188.897C553.287,188.934 553.212,188.962 553.133,188.963L551.467,188.983C551.325,188.985 551.191,188.943 551.097,188.852C550.998,188.756 550.922,188.629 550.919,188.481L550.64,178.522C550.637,178.41 550.647,178.299 550.686,178.197C550.725,178.092 550.778,177.991 550.856,177.908C550.936,177.823 551.027,177.749 551.131,177.702C551.238,177.654 551.352,177.619 551.471,177.616L552.4,177.587C552.663,177.579 552.909,177.667 553.087,177.834C553.272,178.008 553.401,178.247 553.411,178.521C553.411,178.521 553.715,186.468 553.715,186.468C553.715,186.592 553.816,186.692 553.939,186.692C554.063,186.691 554.163,186.591 554.163,186.467Z"/>
                </g>
                <g transform="matrix(-0.179584,-0.192831,-0.324893,0.106587,543.556,207.946)">
                    <path d="M568.386,184.398C568.29,183.773 567.976,183.226 567.545,182.805C567.073,182.345 566.436,182.06 565.73,182.042L563.439,181.895C562.617,181.807 561.81,181.634 561.045,181.339C560.289,181.047 559.577,180.656 558.918,180.174C558.917,180.174 558.917,180.174 558.917,180.174C558.207,179.636 557.357,179.064 556.517,178.679C555.872,178.383 555.249,178.194 554.703,178.232C554.688,178.234 554.673,178.224 554.67,178.209C554.668,178.193 554.678,178.179 554.694,178.176C555.251,178.028 555.934,178.092 556.659,178.275C557.6,178.513 558.581,178.959 559.412,179.387C560.051,179.727 560.729,179.966 561.427,180.143C562.111,180.317 562.813,180.414 563.524,180.42L565.817,180.539C566.896,180.635 567.86,181.12 568.522,181.882C569.168,182.626 569.55,183.605 569.496,184.661C569.496,184.661 569.496,184.663 569.496,184.663C569.482,184.87 569.412,185.063 569.268,185.191C569.126,185.318 568.948,185.415 568.743,185.405C568.743,185.405 563.512,185.126 563.512,185.126C563.43,185.127 563.362,185.061 563.36,184.979C563.359,184.897 563.424,184.829 563.507,184.827L568.386,184.398Z"/>
                </g>
                <g transform="matrix(0.179584,-0.192831,0.324893,0.106587,231.905,207.946)">
                    <path d="M568.385,184.399L563.507,184.827C563.424,184.829 563.359,184.897 563.36,184.979C563.362,185.061 563.43,185.127 563.512,185.126L568.814,185.408C568.999,185.417 569.161,185.327 569.289,185.212C569.419,185.096 569.481,184.921 569.493,184.733L569.498,184.661C569.551,183.605 569.169,182.626 568.523,181.882C567.86,181.119 566.897,180.635 565.817,180.538C565.817,180.538 563.524,180.421 563.524,180.421C562.813,180.414 562.111,180.318 561.427,180.144C560.729,179.966 560.051,179.727 559.41,179.387C558.58,178.96 557.599,178.514 556.659,178.276C555.934,178.092 555.251,178.028 554.694,178.176C554.678,178.179 554.668,178.193 554.67,178.209C554.673,178.224 554.688,178.234 554.703,178.232C555.249,178.194 555.872,178.383 556.517,178.678C557.357,179.064 558.207,179.636 558.917,180.173C558.917,180.173 558.917,180.174 558.918,180.174C559.578,180.655 560.289,181.046 561.046,181.338C561.81,181.633 562.617,181.806 563.439,181.894L565.73,182.042C566.436,182.061 567.073,182.346 567.544,182.805C567.975,183.226 568.29,183.773 568.385,184.399Z"/>
                </g>
            </g>
        </g>
    </g>
</svg>
