<?xml version="1.0" encoding="UTF-8" standalone="no"?>
<!DOCTYPE svg PUBLIC "-//W3C//DTD SVG 1.1//EN" "http://www.w3.org/Graphics/SVG/1.1/DTD/svg11.dtd">
<svg width="100%" height="100%" viewBox="0 0 32 31" version="1.1" xmlns="http://www.w3.org/2000/svg" xmlns:xlink="http://www.w3.org/1999/xlink" xml:space="preserve" xmlns:serif="http://www.serif.com/" style="fill-rule:evenodd;clip-rule:evenodd;stroke-linejoin:round;stroke-miterlimit:2;">
    <g transform="matrix(1,0,0,1,-868,-1484)">
        <g id="ic_category_groups_investments" transform="matrix(0.926669,0,0,0.924054,63.6586,112.398)">
            <rect x="868.116" y="1484.41" width="34.143" height="33.147" style="fill:none;"/>
            <g transform="matrix(1.90961,0,0,3.22653,110.212,1123.21)">
                <g>
                    <g transform="matrix(-0.141721,-0.0709127,0.124696,-0.087788,476.602,169.839)">
                        <path d="M560.301,96.184C564.86,96.467 568.82,98.508 571.644,101.536C574.333,104.418 575.905,108.243 575.699,112.405C575.607,116.438 573.749,119.999 570.975,122.633C568.213,125.255 564.492,126.988 560.301,127.04C556.042,127.157 552.05,125.629 549.112,123.05C546.082,120.39 544.123,116.665 544.151,112.454C544.159,108.051 545.49,104.391 548.03,101.607C550.566,98.827 554.246,96.912 558.934,95.964C559.029,95.948 559.094,95.861 559.078,95.77C559.062,95.678 558.971,95.616 558.875,95.631C553.892,96.229 549.89,97.967 546.992,100.664C543.914,103.528 542.108,107.477 541.693,112.356C541.29,117.382 543.313,121.997 546.721,125.396C550.147,128.813 555.016,130.929 560.301,131.074C565.702,131.14 570.672,129.133 574.199,125.722C577.716,122.322 579.778,117.565 579.66,112.405C579.411,107.368 577.17,102.848 573.53,99.73C570.029,96.732 565.351,95.01 560.301,95.324C560.053,95.324 559.852,95.517 559.852,95.754C559.852,95.991 560.053,96.184 560.301,96.184Z"/>
                    </g>
                    <g transform="matrix(1.0739e-17,-0.104092,0.522628,1.89937e-17,304.678,169.337)">
                        <path d="M479.349,179.992L479.347,180.003L479.353,180.008C479.379,180.027 479.506,180.107 479.84,180.119C480.125,180.131 480.725,180.153 481.331,180.176C481.474,180.181 481.602,180.201 481.726,180.223C481.842,180.244 481.931,180.278 482.017,180.313C482.097,180.345 482.134,180.386 482.17,180.426C482.204,180.463 482.189,180.503 482.178,180.542C482.178,180.542 481.932,181.423 481.932,181.423C481.92,181.475 481.797,181.511 481.688,181.542C481.597,181.568 481.464,181.562 481.335,181.559C481.335,181.559 481.335,181.559 481.335,181.559C480.156,181.537 478.421,181.493 476.378,181.466C474.854,181.445 473.165,181.429 471.422,181.425C469.452,181.42 467.415,181.432 465.474,181.444C461.784,181.467 458.442,181.51 456.552,181.528C456.46,181.529 456.366,181.526 456.304,181.507C456.233,181.485 456.162,181.458 456.158,181.423C456.158,181.423 456.061,180.541 456.061,180.541C456.061,180.541 456.172,180.413 456.172,180.413C456.222,180.395 456.272,180.377 456.337,180.367C456.405,180.356 456.476,180.346 456.552,180.345C456.552,180.345 479.207,180.02 479.207,180.02C479.237,180.02 479.261,180.012 479.261,180.002C479.261,179.992 479.237,179.984 479.207,179.984L456.552,179.656C456.201,179.651 455.857,179.675 455.534,179.716C455.208,179.756 454.914,179.823 454.654,179.904C454.392,179.985 454.196,180.086 454.05,180.193C453.903,180.301 453.834,180.42 453.821,180.541L453.723,181.423C453.697,181.688 454.023,181.926 454.522,182.105C455.028,182.286 455.753,182.392 456.552,182.4C458.442,182.418 461.784,182.461 465.474,182.484C467.415,182.496 469.452,182.508 471.422,182.503C473.165,182.499 474.854,182.483 476.378,182.462C478.421,182.435 480.156,182.391 481.335,182.369C482.101,182.35 482.796,182.251 483.26,182.069C483.707,181.894 484.017,181.671 483.96,181.423L483.714,180.542C483.683,180.437 483.62,180.335 483.475,180.244C483.334,180.155 483.164,180.071 482.928,180.006C482.697,179.943 482.45,179.889 482.17,179.861C481.898,179.834 481.616,179.817 481.328,179.827L479.838,179.887C479.796,179.889 479.757,179.892 479.721,179.895C479.706,179.894 479.69,179.894 479.673,179.894C479.504,179.894 479.365,179.937 479.349,179.992Z"/>
                    </g>
                    <g transform="matrix(1.44213e-17,-0.139785,0.522628,1.89937e-17,307.529,185.575)">
                        <path d="M479.432,179.992L479.43,180.003L479.436,180.008C479.464,180.028 479.594,180.11 479.881,180.121C480.253,180.136 481.051,180.166 481.744,180.192C481.846,180.196 481.939,180.213 482.028,180.233C482.113,180.253 482.181,180.284 482.244,180.317C482.304,180.348 482.336,180.387 482.365,180.426C482.392,180.463 482.387,180.503 482.381,180.542C482.381,180.542 482.234,181.423 482.234,181.423C482.226,181.481 482.138,181.524 482.049,181.56C481.971,181.591 481.858,181.594 481.746,181.591C480.626,181.567 478.81,181.515 476.625,181.479C475.061,181.454 473.313,181.433 471.504,181.426C469.47,181.418 467.362,181.43 465.359,181.443C461.43,181.468 457.909,181.516 456.141,181.533C456.07,181.534 456,181.529 455.952,181.508C455.9,181.486 455.852,181.458 455.85,181.423C455.85,181.423 455.794,180.541 455.794,180.541C455.794,180.541 455.876,180.422 455.876,180.422L456.141,180.36C456.141,180.36 479.207,180.02 479.207,180.02C479.229,180.02 479.248,180.012 479.248,180.002C479.248,179.992 479.229,179.984 479.207,179.984L456.141,179.64C455.875,179.637 455.615,179.661 455.371,179.703C455.125,179.745 454.903,179.812 454.708,179.895C454.512,179.979 454.365,180.08 454.257,180.189C454.148,180.299 454.096,180.418 454.088,180.541L454.032,181.423C454.017,181.687 454.258,181.926 454.632,182.103C455.011,182.282 455.548,182.388 456.14,182.395C456.14,182.395 456.141,182.395 456.141,182.395C457.909,182.412 461.43,182.46 465.359,182.485C467.362,182.498 469.47,182.51 471.504,182.502C473.313,182.495 475.061,182.474 476.625,182.449C478.81,182.413 480.626,182.361 481.746,182.337C481.746,182.337 481.746,182.337 481.746,182.337C482.299,182.322 482.801,182.225 483.14,182.052C483.47,181.883 483.692,181.665 483.657,181.423L483.511,180.542C483.494,180.437 483.447,180.335 483.344,180.243C483.243,180.153 483.116,180.068 482.943,180.001C482.773,179.936 482.587,179.881 482.378,179.851C482.174,179.821 481.961,179.803 481.742,179.81L479.88,179.885C479.827,179.887 479.779,179.892 479.737,179.898C479.718,179.895 479.696,179.894 479.673,179.894C479.548,179.894 479.444,179.937 479.432,179.992Z"/>
                    </g>
                    <g transform="matrix(1.95439e-17,-0.189438,0.522628,1.89937e-17,310.384,208.164)">
                        <path d="M479.207,179.984L455.826,179.627C455.627,179.625 455.433,179.649 455.251,179.692C455.068,179.736 454.902,179.804 454.758,179.888C454.613,179.973 454.503,180.076 454.423,180.186C454.344,180.297 454.305,180.417 454.3,180.541L454.269,181.423C454.265,181.55 454.307,181.673 454.381,181.789C454.455,181.905 454.571,182.01 454.715,182.102C454.86,182.194 455.035,182.263 455.222,182.313C455.411,182.364 455.617,182.388 455.826,182.391C457.453,182.407 461.13,182.46 465.271,182.486C467.321,182.498 469.484,182.51 471.567,182.5C473.426,182.49 475.22,182.465 476.814,182.436C479.13,182.394 481.016,182.335 482.061,182.31C482.252,182.305 482.44,182.283 482.61,182.234C482.779,182.186 482.937,182.122 483.065,182.037C483.189,181.951 483.294,181.857 483.354,181.751C483.414,181.646 483.451,181.536 483.441,181.423L483.359,180.542C483.349,180.437 483.315,180.335 483.242,180.242C483.17,180.151 483.076,180.066 482.95,179.997C482.826,179.93 482.687,179.875 482.533,179.842C482.382,179.81 482.222,179.791 482.058,179.797C482.058,179.797 479.673,179.894 479.673,179.894C479.574,179.894 479.494,179.943 479.494,180.004C479.494,180.064 479.575,180.113 479.674,180.113L482.06,180.205C482.132,180.207 482.199,180.223 482.263,180.242C482.325,180.26 482.376,180.289 482.422,180.32C482.467,180.351 482.493,180.389 482.515,180.427C482.536,180.463 482.536,180.502 482.533,180.542C482.533,180.542 482.451,181.423 482.451,181.423C482.448,181.454 482.424,181.482 482.403,181.51C482.382,181.536 482.345,181.555 482.308,181.575C482.275,181.594 482.23,181.602 482.188,181.612C482.148,181.62 482.104,181.619 482.061,181.618C482.061,181.618 482.061,181.618 482.061,181.618C481.016,181.593 479.13,181.534 476.814,181.492C475.22,181.463 473.426,181.438 471.567,181.428C469.484,181.418 467.321,181.43 465.271,181.442C461.13,181.468 457.453,181.521 455.826,181.537L455.685,181.51L455.613,181.423C455.613,181.423 455.581,180.541 455.581,180.541C455.582,180.541 455.642,180.429 455.642,180.429L455.826,180.373L479.207,180.02C479.224,180.02 479.237,180.012 479.237,180.002C479.237,179.992 479.224,179.984 479.207,179.984Z"/>
                    </g>
                    <g transform="matrix(1.78073e-17,-0.172605,0.522628,1.89937e-17,313.236,200.506)">
                        <path d="M479.207,179.984L455.913,179.618C455.692,179.615 455.476,179.64 455.275,179.684C455.072,179.728 454.888,179.796 454.728,179.882C454.567,179.967 454.445,180.071 454.357,180.182C454.269,180.294 454.226,180.416 454.221,180.541L454.192,181.423C454.188,181.551 454.235,181.675 454.317,181.791C454.399,181.908 454.527,182.014 454.686,182.106C454.846,182.198 455.039,182.268 455.246,182.318C455.454,182.369 455.681,182.394 455.912,182.396C455.912,182.396 459.498,182.429 459.498,182.429C459.959,182.429 460.334,182.221 460.334,181.964C460.334,181.707 459.959,181.499 459.498,181.499L455.912,181.532L455.765,181.506L455.689,181.423L455.66,180.541L455.723,180.435L455.912,180.383C455.912,180.383 479.207,180.02 479.207,180.02C479.225,180.02 479.24,180.012 479.24,180.002C479.24,179.992 479.225,179.984 479.207,179.984Z"/>
                    </g>
                    <g transform="matrix(1.78073e-17,-0.172605,0.522628,1.89937e-17,313.236,200.506)">
                        <path d="M471.699,182.504C471.699,182.504 474.196,182.493 476.837,182.443C478.789,182.406 480.813,182.339 481.974,182.309C482.408,182.295 482.8,182.199 483.068,182.032C483.327,181.869 483.5,181.658 483.475,181.423L483.381,180.542C483.369,180.439 483.332,180.338 483.252,180.247C483.173,180.157 483.071,180.074 482.934,180.006C482.8,179.94 482.65,179.886 482.484,179.855C482.32,179.824 482.148,179.806 481.972,179.812C481.972,179.812 479.673,179.894 479.673,179.894C479.564,179.894 479.476,179.943 479.477,180.004C479.477,180.064 479.565,180.113 479.674,180.113L481.973,180.19C482.056,180.193 482.133,180.209 482.206,180.229C482.276,180.248 482.334,180.278 482.387,180.312C482.437,180.344 482.467,180.383 482.492,180.422C482.515,180.46 482.515,180.501 482.511,180.542C482.511,180.542 482.416,181.423 482.416,181.423C482.409,181.488 482.336,181.539 482.255,181.58C482.182,181.615 482.079,181.622 481.974,181.619C480.813,181.589 478.789,181.522 476.837,181.485C474.196,181.435 471.699,181.424 471.699,181.424C471.163,181.424 470.728,181.666 470.728,181.964C470.728,182.262 471.163,182.504 471.699,182.504Z"/>
                    </g>
                    <g transform="matrix(2.72056e-17,-0.263702,0.522628,1.89937e-17,316.092,241.95)">
                        <path d="M479.207,179.984L468.943,179.813C468.821,179.813 468.722,179.897 468.722,180.001C468.722,180.105 468.821,180.189 468.943,180.189L479.207,180.02C479.219,180.02 479.229,180.012 479.229,180.002C479.229,179.992 479.219,179.984 479.207,179.984Z"/>
                    </g>
                    <g transform="matrix(2.72056e-17,-0.263702,0.522628,1.89937e-17,316.092,241.95)">
                        <path d="M468.943,182.505C468.943,182.505 473.159,182.503 476.963,182.431C479.203,182.389 481.296,182.308 482.31,182.28C482.585,182.27 482.835,182.176 483.008,182.017C483.177,181.86 483.288,181.653 483.277,181.423L483.234,180.541C483.229,180.438 483.204,180.336 483.154,180.244C483.104,180.153 483.037,180.068 482.948,179.999C482.86,179.93 482.76,179.875 482.65,179.841C482.542,179.807 482.426,179.788 482.309,179.793C482.309,179.793 479.673,179.894 479.673,179.894C479.602,179.894 479.544,179.943 479.544,180.004C479.545,180.064 479.602,180.113 479.673,180.113L482.309,180.209C482.361,180.21 482.409,180.224 482.455,180.242C482.5,180.26 482.537,180.288 482.571,180.319C482.604,180.349 482.625,180.387 482.641,180.425C482.657,180.461 482.66,180.501 482.657,180.541C482.657,180.541 482.615,181.423 482.615,181.423C482.612,181.493 482.567,181.551 482.511,181.595C482.459,181.635 482.386,181.651 482.31,181.648C481.296,181.62 479.203,181.539 476.963,181.497C473.159,181.425 468.943,181.423 468.943,181.423C468.592,181.423 468.307,181.666 468.307,181.964C468.307,182.262 468.592,182.505 468.943,182.505Z"/>
                    </g>
                    <g transform="matrix(-0.00179395,0.255777,-0.367014,-0.00125023,432.625,-6.0333)">
                        <path d="M491.369,59.998C491.369,59.998 491.366,58.498 491.302,56.798C491.218,54.565 491.042,51.999 491.042,51.999C491.042,51.898 490.971,51.816 490.885,51.816C490.798,51.817 490.729,51.899 490.729,52.001C490.729,52.001 490.578,54.568 490.516,56.802C490.469,58.502 490.481,60.002 490.481,60.002C490.482,60.29 490.682,60.523 490.927,60.521C491.172,60.52 491.37,60.286 491.369,59.998Z"/>
                    </g>
                    <g transform="matrix(-0.00106585,0.151966,-0.218056,-0.000742803,424.132,45.504)">
                        <path d="M491.672,59.996C491.672,59.996 491.672,58.495 491.57,56.797C491.436,54.553 491.149,51.999 491.149,51.999C491.148,51.828 491.029,51.69 490.884,51.691C490.739,51.691 490.621,51.831 490.622,52.001C490.622,52.001 490.36,54.559 490.248,56.803C490.163,58.502 490.177,60.004 490.177,60.004C490.18,60.488 490.517,60.879 490.929,60.877C491.341,60.875 491.674,60.481 491.672,59.996Z"/>
                    </g>
                    <g transform="matrix(0.417803,0,0,0.247975,120.693,86.9357)">
                        <path d="M694.823,131.254C694.82,131.233 694.819,131.217 694.812,131.219C694.775,131.229 694.792,131.242 694.823,131.254C694.824,131.261 694.825,131.268 694.827,131.276C694.854,131.375 694.898,131.573 694.968,131.847C695.068,132.24 695.177,132.754 695.266,133.29C695.321,133.616 695.353,133.939 695.353,134.235C695.353,134.451 695.342,134.644 695.229,134.772C695.133,134.881 694.967,134.9 694.721,134.891C694.341,134.879 693.848,134.792 693.213,134.577C692.995,134.489 692.745,134.55 692.593,134.73C692.442,134.909 692.422,135.166 692.545,135.366C693.045,136.057 693.609,136.751 694.179,137.385C695.567,138.928 696.9,140.107 696.9,140.107C696.909,140.117 696.925,140.117 696.935,140.108C696.945,140.099 696.946,140.083 696.936,140.073C696.936,140.073 696.071,138.959 695.088,137.485C694.795,137.046 694.493,136.578 694.204,136.098C694.508,136.17 694.769,136.2 694.994,136.197C695.583,136.189 695.982,135.963 696.245,135.661C696.475,135.398 696.618,135.052 696.64,134.65C696.66,134.277 696.599,133.848 696.453,133.421C696.332,133.069 696.178,132.721 695.995,132.402C695.812,132.083 695.625,131.81 695.456,131.586C695.286,131.362 695.154,131.211 695.086,131.134C695.066,131.111 695.054,131.096 695.047,131.089C695.005,131.044 694.977,131.065 694.96,131.108C694.96,131.012 694.907,131.008 694.862,131.033C694.798,131.068 694.775,131.149 694.81,131.213L694.926,131.281C694.926,131.281 694.863,131.269 694.823,131.254Z"/>
                    </g>
                    <g transform="matrix(0.585714,0,0,0.347634,111.188,100.248)">
                        <path d="M503.809,44.213L501.49,41.597C501.308,41.394 501.052,41.303 500.8,41.287C500.546,41.271 500.295,41.371 500.088,41.551C499.812,41.797 498.797,42.657 497.497,43.859C496.734,44.566 495.872,45.389 494.994,46.262C493.758,47.492 492.489,48.811 491.366,50.004C489.353,52.144 487.845,53.861 487.845,53.861C487.768,53.932 487.764,54.052 487.835,54.129C487.906,54.205 488.026,54.21 488.102,54.139C488.102,54.139 489.929,52.766 492.215,50.921C493.491,49.892 494.902,48.727 496.222,47.588C497.16,46.778 498.046,45.981 498.808,45.274C499.64,44.501 500.323,43.835 500.777,43.389L503.138,45.684C503.3,45.84 503.5,45.939 503.709,45.937C503.917,45.935 504.132,45.876 504.291,45.718C504.291,45.718 513.438,36.414 513.438,36.414C513.468,36.387 513.47,36.34 513.442,36.309C513.415,36.279 513.368,36.277 513.338,36.305L503.809,44.213ZM501.307,42.866L501.307,42.866L501.307,42.866Z"/>
                    </g>
                    <g transform="matrix(0.585714,0,0,0.347634,114.126,100.131)">
                        <path d="M506.126,35.574C506.126,35.574 507.608,35.439 508.887,35.284C509.328,35.231 509.743,35.175 510.067,35.129C510.067,35.129 509.568,38.839 509.568,38.839C509.542,38.963 509.623,39.085 509.748,39.11C509.872,39.135 509.994,39.054 510.019,38.93L511.188,34.615C511.221,34.454 511.176,34.286 511.066,34.164C510.956,34.041 510.794,33.977 510.63,33.992C510.63,33.992 509.763,34.012 508.779,34.069C507.492,34.143 506.01,34.273 506.01,34.273C505.651,34.305 505.385,34.622 505.417,34.981C505.449,35.341 505.767,35.606 506.126,35.574Z"/>
                    </g>
                </g>
            </g>
        </g>
    </g>
</svg>
