<?xml version="1.0" encoding="UTF-8" standalone="no"?>
<!DOCTYPE svg PUBLIC "-//W3C//DTD SVG 1.1//EN" "http://www.w3.org/Graphics/SVG/1.1/DTD/svg11.dtd">
<svg width="100%" height="100%" viewBox="0 0 21 32" version="1.1" xmlns="http://www.w3.org/2000/svg" xmlns:xlink="http://www.w3.org/1999/xlink" xml:space="preserve" xmlns:serif="http://www.serif.com/" style="fill-rule:evenodd;clip-rule:evenodd;stroke-linejoin:round;stroke-miterlimit:2;">
    <g transform="matrix(1,0,0,1,-763,-1344)">
        <g id="ic_category_health_sports" transform="matrix(0.937505,0,0,0.986342,48.3478,17.0832)">
            <rect x="762.382" y="1345.32" width="21.713" height="31.816" style="fill:none;"/>
            <clipPath id="_clip1">
                <rect x="762.382" y="1345.32" width="21.713" height="31.816"/>
            </clipPath>
            <g clip-path="url(#_clip1)">
                <g transform="matrix(1.88754,0,0,3.02277,-57.4762,992.137)">
                    <g transform="matrix(0.023125,0.053062,-0.0628959,0.00965591,429.957,87.121)">
                        <path d="M560.301,97.034C564.221,97.893 567.482,100.144 570.081,102.911C572.532,105.519 573.983,108.845 573.7,112.405C573.64,113.551 573.173,114.501 572.711,115.47C571.918,117.134 570.627,118.382 569.155,119.546C566.726,121.466 563.695,122.909 560.301,123.058C556.785,123.401 553.447,122.699 550.778,120.989C547.788,119.072 545.431,116.406 545.373,112.62C545.272,108.292 546.625,104.668 549.337,101.876C551.723,99.418 554.919,97.526 558.944,96.296C559.138,96.265 559.277,96.016 559.255,95.741C559.233,95.466 559.059,95.268 558.865,95.299C553.278,95.411 548.91,97.142 545.807,100.058C542.726,102.953 541.033,107.117 540.471,112.19C539.896,117.708 541.818,122.955 545.244,127.2C548.806,131.613 554.27,134.458 560.301,135.056C563.785,135.264 567.097,134.624 569.994,133.226C572.319,132.104 574.388,130.495 576.064,128.551C579.83,124.183 581.911,118.42 581.659,112.405C581.233,106.676 579.167,101.282 575.14,97.982C571.261,94.803 566.027,93.236 560.301,94.474C559.804,94.474 559.4,95.047 559.4,95.754C559.4,96.46 559.804,97.034 560.301,97.034Z"/>
                    </g>
                    <g transform="matrix(0.0575586,-0.0236736,0.0416288,0.0356543,403.202,129.754)">
                        <path d="M560.301,96.512C564.694,96.994 568.323,99.188 570.924,102.227C573.288,104.991 574.52,108.566 574.185,112.405C574.039,116.011 572.232,119.104 569.742,121.452C567.276,123.777 564.03,125.417 560.301,125.497C556.43,125.685 552.758,124.436 550.027,122.153C547.154,119.752 545.174,116.396 545.091,112.492C544.964,108.263 546.074,104.714 548.426,101.968C550.835,99.156 554.372,97.165 558.956,96.091C559.125,96.064 559.239,95.91 559.211,95.748C559.182,95.586 559.022,95.477 558.853,95.504C553.747,95.959 549.642,97.639 546.595,100.303C543.294,103.189 541.347,107.251 540.753,112.319C540.174,117.66 542.269,122.589 545.807,126.294C549.398,130.054 554.62,132.341 560.301,132.617C566.165,132.744 571.615,130.62 575.432,126.904C579.232,123.203 581.4,117.997 581.174,112.405C580.704,107.025 578.293,102.215 574.251,99.039C570.456,96.059 565.556,94.419 560.301,94.995C559.864,94.995 559.509,95.335 559.509,95.754C559.509,96.172 559.864,96.512 560.301,96.512Z"/>
                    </g>
                    <g transform="matrix(0.540895,0,0,0.321033,151.491,14.4609)">
                        <path d="M532.509,337.609C532.718,338.387 532.826,339.131 532.863,339.798C532.919,340.818 532.812,341.641 532.579,342.07C532.365,342.464 531.827,342.569 531.289,342.64C530.595,342.731 529.856,342.676 529.388,342.606C528.133,342.423 527.457,343.151 527.285,343.942C527.103,344.78 527.53,345.775 528.597,346.093C529.753,346.431 530.978,346.397 532.063,346.201C532.484,346.125 532.883,346.026 533.248,345.917C533.033,346.199 532.799,346.444 532.557,346.657C531.595,347.503 530.515,347.852 529.841,348.074C528.369,348.561 527.912,349.49 527.956,350.178C528.016,351.107 528.995,352.016 530.511,351.574C534.633,350.363 536.655,347.955 537.548,345.361C538.877,341.504 537.656,337.224 537.246,336.006L537.245,336.003C537.666,335.747 538.465,335.242 539.34,334.59C539.99,334.106 540.681,333.542 541.29,332.939C541.981,332.252 541.882,331.504 541.478,331.058C541.056,330.592 540.27,330.422 539.619,331.03C539.028,331.546 538.358,332.034 537.706,332.451C536.939,332.942 536.199,333.337 535.642,333.562C535.117,333.267 534.635,333.181 534.222,333.2C533.359,333.239 532.802,333.734 532.802,333.734C532.737,333.79 532.73,333.887 532.785,333.951C532.84,334.016 532.937,334.023 533.002,333.968C533.002,333.968 533.494,333.566 534.232,333.558C534.597,333.555 535.021,333.651 535.477,333.939C535.477,333.939 535.477,333.939 535.477,333.939C535.517,333.964 535.562,333.978 535.607,333.983C535.653,333.988 535.7,333.982 535.744,333.966C535.745,333.966 535.745,333.966 535.745,333.966C536.335,333.756 537.136,333.369 537.968,332.877C538.66,332.468 539.372,331.986 540.004,331.473C540.007,331.471 540.009,331.469 540.012,331.467C540.367,331.158 540.779,331.227 540.993,331.481C541.192,331.717 541.172,332.094 540.806,332.433C540.203,332.993 539.522,333.513 538.884,333.957C538.006,334.569 537.208,335.037 536.796,335.27C536.621,335.367 536.493,335.526 536.423,335.705C536.353,335.886 536.349,336.09 536.413,336.285C536.756,337.416 537.788,341.42 536.456,344.967C535.61,347.219 533.774,349.266 530.136,350.238C529.9,350.301 529.695,350.301 529.535,350.241C529.458,350.212 529.39,350.17 529.387,350.1C529.383,350.027 529.442,349.962 529.513,349.889C529.674,349.722 529.933,349.584 530.29,349.472C531.1,349.219 532.389,348.8 533.552,347.803C534.376,347.096 535.137,346.102 535.625,344.675C535.732,344.357 535.623,344.007 535.355,343.805C535.087,343.604 534.72,343.597 534.444,343.789C534.37,343.84 533.226,344.398 531.785,344.66C530.922,344.816 529.948,344.869 529.028,344.605C528.845,344.553 528.75,344.398 528.779,344.254C528.807,344.115 528.964,344.06 529.185,344.088C529.867,344.172 531.014,344.21 531.973,343.967C532.793,343.76 533.476,343.35 533.8,342.71C534.049,342.216 534.226,341.356 534.191,340.277C534.159,339.308 533.969,338.149 533.556,336.94C533.507,336.797 533.424,336.668 533.31,336.575C533.197,336.482 533.06,336.414 532.909,336.395C532.861,336.388 532.812,336.386 532.764,336.391C532.31,336.445 530.838,336.814 529.636,336.704C529.04,336.649 528.49,336.512 528.347,335.98C528.149,335.246 528.065,334.223 528.078,333.243C528.092,332.125 528.216,331.064 528.479,330.576C528.667,330.225 529.057,330.075 529.36,330.201C529.64,330.319 529.812,330.65 529.744,331.196C529.681,331.697 529.558,332.476 529.51,333.312C529.483,333.786 529.479,334.277 529.523,334.745C529.523,334.746 529.524,334.748 529.524,334.749C529.542,334.903 529.61,335.042 529.714,335.144C529.818,335.246 529.953,335.315 530.105,335.33C530.106,335.33 530.108,335.331 530.109,335.331C530.476,335.355 530.832,335.327 531.145,335.277C531.606,335.202 531.972,335.082 532.141,335.02C532.141,335.02 532.142,335.019 532.143,335.019C532.183,335.003 532.219,334.977 532.246,334.944C532.272,334.91 532.29,334.871 532.297,334.828C532.313,334.734 532.35,334.584 532.427,334.429C532.485,334.312 532.566,334.192 532.678,334.09C532.69,334.079 532.692,334.061 532.681,334.049C532.671,334.037 532.653,334.035 532.64,334.046C532.514,334.146 532.421,334.268 532.352,334.388C532.259,334.548 532.21,334.706 532.186,334.807C532.186,334.807 532.186,334.808 532.186,334.808L532.1,334.902C531.932,334.952 531.571,335.047 531.121,335.091C530.821,335.121 530.481,335.127 530.133,335.082C530.047,335.067 529.969,335.02 529.911,334.956C529.854,334.894 529.821,334.812 529.816,334.723C529.798,334.272 529.828,333.799 529.88,333.343C529.973,332.522 530.137,331.76 530.226,331.27C530.383,330.402 530.032,329.894 529.595,329.682C529.047,329.417 528.298,329.622 527.913,330.252C527.589,330.783 527.349,331.959 527.27,333.212C527.202,334.278 527.252,335.396 527.429,336.205C527.595,336.959 528.158,337.397 528.909,337.618C530.046,337.953 531.682,337.717 532.509,337.609Z"/>
                    </g>
                    <g transform="matrix(0.562374,0.0390582,0.0658075,0.440701,-19.0591,-14.415)">
                        <path d="M782.151,232.941C782.151,232.941 782.368,233.618 782.66,234.371C783.044,235.36 783.546,236.476 783.546,236.476C783.561,236.523 783.626,236.543 783.691,236.522C783.757,236.5 783.798,236.445 783.783,236.399C783.783,236.399 783.529,235.202 783.255,234.177C783.047,233.397 782.823,232.722 782.823,232.722C782.78,232.59 782.595,232.533 782.409,232.593C782.224,232.654 782.108,232.81 782.151,232.941Z"/>
                    </g>
                    <g transform="matrix(-0.122881,-0.197238,0.302981,-0.066494,462.092,278.34)">
                        <path d="M736.358,240.663C736.358,240.663 736.683,242.154 736.849,242.912C736.872,243.016 736.85,243.126 736.789,243.21C736.729,243.294 736.636,243.343 736.539,243.343C735.578,243.343 733.17,243.343 732.21,243.343C732.112,243.343 732.02,243.294 731.96,243.21C731.899,243.126 731.877,243.016 731.9,242.912C732.15,241.765 732.828,238.663 733.031,237.731C733.066,237.573 733.194,237.462 733.342,237.462C733.833,237.462 734.916,237.462 735.407,237.462C735.555,237.462 735.683,237.573 735.718,237.73C735.846,238.315 736.141,239.654 736.141,239.654"/>
                    </g>
                    <g transform="matrix(-0.122881,-0.197238,0.302981,-0.066494,462.092,278.34)">
                        <path d="M736.471,242.872C735.893,242.818 734.883,242.712 733.941,242.638C733.522,242.605 733.118,242.58 732.777,242.559C732.88,242.13 733.007,241.599 733.119,241.041C733.182,240.73 733.236,240.411 733.286,240.099C733.419,239.27 733.52,238.496 733.583,238.036L735.407,237.81L735.461,237.798L736.112,239.662C736.116,239.679 736.132,239.69 736.148,239.686C736.163,239.681 736.173,239.664 736.169,239.647L735.974,237.662C735.959,237.511 735.877,237.39 735.785,237.287C735.688,237.18 735.552,237.134 735.407,237.115L733.342,236.858C733.138,236.838 732.953,236.931 732.791,237.046C732.625,237.164 732.525,237.363 732.458,237.58C732.458,237.58 732.458,237.58 732.458,237.58C732.337,237.989 732.077,238.811 731.826,239.715C731.741,240.018 731.658,240.33 731.585,240.638C731.392,241.463 731.249,242.251 731.152,242.715C731.12,242.894 731.112,243.076 731.153,243.248C731.194,243.419 731.257,243.587 731.365,243.725C731.472,243.862 731.596,243.98 731.743,244.05C731.889,244.12 732.046,244.169 732.21,244.162C732.608,244.136 733.252,244.103 733.941,244.049C734.92,243.971 735.974,243.86 736.539,243.808C736.651,243.796 736.762,243.776 736.857,243.713C736.95,243.652 737.04,243.582 737.101,243.48C737.161,243.38 737.212,243.275 737.225,243.159C737.238,243.045 737.244,242.929 737.21,242.817L736.51,240.623C736.49,240.531 736.405,240.474 736.321,240.496C736.237,240.518 736.185,240.611 736.206,240.703L736.471,242.872ZM733.463,238.051L733.341,238.066C733.383,238.062 733.427,238.065 733.463,238.051ZM732.26,242.528L732.211,242.525L732.26,242.528ZM736.479,242.938L736.477,242.94C736.477,242.94 736.488,243.007 736.488,243.007L736.479,242.938Z" style="fill:none;"/>
                    </g>
                    <g transform="matrix(-0.0903683,-0.148642,0.225349,-0.0482618,440.244,229.08)">
                        <path d="M659.753,279.254C659.931,279.254 660.09,279.132 660.152,278.947C660.224,278.706 660.264,278.452 660.264,278.196C660.264,277.028 659.452,276.079 658.453,276.079C657.453,276.079 656.641,277.028 656.641,278.196C656.641,278.452 656.681,278.706 656.758,278.945C656.819,279.127 656.976,279.249 657.152,279.249C657.744,279.254 659.161,279.254 659.753,279.254Z"/>
                    </g>
                    <g transform="matrix(-0.0903683,-0.148642,0.225349,-0.0482618,440.244,229.08)">
                        <path d="M659.753,279.254C659.931,279.254 660.09,279.132 660.152,278.947C660.224,278.706 660.264,278.452 660.264,278.196C660.264,277.028 659.452,276.079 658.453,276.079C657.453,276.079 656.641,277.028 656.641,278.196C656.641,278.452 656.681,278.706 656.758,278.945C656.819,279.127 656.976,279.249 657.152,279.249C657.744,279.254 659.161,279.254 659.753,279.254ZM658.276,278.315L657.181,277.685C657.397,277.757 657.659,277.574 657.78,277.777C657.917,278.007 658.279,278.027 658.276,278.315ZM658.277,278.316C658.285,278.327 658.406,278.255 658.467,278.217C658.497,278.234 658.506,278.329 658.539,278.312C658.597,278.282 658.687,278.345 658.725,278.287C658.739,278.265 658.706,278.234 658.684,278.22C658.631,278.183 658.518,278.124 658.501,278.196L658.467,278.217L658.453,278.214C658.386,278.234 658.446,278.073 658.455,278.001C658.46,277.962 658.486,277.904 658.52,277.915C658.612,277.945 658.703,277.771 658.783,277.834C658.961,277.978 659.239,277.945 659.325,278.196L659.544,278.722C659.549,278.637 659.668,278.736 659.695,278.687C659.717,278.649 659.716,278.809 659.755,278.791L659.753,279.166L658.277,278.316Z" style="fill:none;"/>
                    </g>
                </g>
            </g>
        </g>
    </g>
</svg>
