<?xml version="1.0" encoding="UTF-8" standalone="no"?>
<!DOCTYPE svg PUBLIC "-//W3C//DTD SVG 1.1//EN" "http://www.w3.org/Graphics/SVG/1.1/DTD/svg11.dtd">
<svg width="100%" height="100%" viewBox="0 0 33 31" version="1.1" xmlns="http://www.w3.org/2000/svg" xmlns:xlink="http://www.w3.org/1999/xlink" xml:space="preserve" xmlns:serif="http://www.serif.com/" style="fill-rule:evenodd;clip-rule:evenodd;stroke-linejoin:round;stroke-miterlimit:2;">
    <g transform="matrix(1,0,0,1,-995,-1484)">
        <g id="ic_category_groups_bucket_list" transform="matrix(0.939179,0,0,0.940175,60.5613,87.462)">
            <rect x="996" y="1485.48" width="33.646" height="31.906" style="fill:none;"/>
            <g transform="matrix(1.88417,0,0,3.17121,180.133,1130.67)">
                <g>
                    <g transform="matrix(0.143117,0,0,0.0805838,361.472,100.084)">
                        <path d="M598.706,255.665C596.854,254.18 595.018,252.253 593.406,250.18C591.775,248.084 590.427,245.841 589.637,243.749C589.63,243.735 589.624,243.721 589.617,243.707C588.688,241.448 588.263,239.227 588.237,237.238C588.211,235.177 588.723,233.42 589.88,232.347C589.941,232.29 589.987,232.443 590.064,232.464C590.337,232.539 590.597,232.73 590.884,232.925C591.744,233.508 592.587,234.446 593.416,235.514C594.475,236.877 595.445,238.496 596.189,240.124C596.691,241.16 597.702,241.812 598.805,241.812C599.909,241.812 600.92,241.16 601.422,240.124C602.191,238.537 603.202,237.009 604.263,235.72C605.086,234.72 605.913,233.846 606.752,233.316C606.963,233.183 607.154,233.044 607.357,232.971C607.438,232.942 607.585,232.878 607.585,232.878C607.585,232.878 607.625,232.798 607.596,232.772C607.596,232.772 607.596,232.772 607.596,232.772C608.732,233.814 609.245,235.524 609.231,237.537C609.218,239.517 608.821,241.729 607.913,243.985C607.906,243.999 607.899,244.014 607.893,244.029C607.13,246.155 605.393,249.055 603.379,251.826C601.361,254.602 599.132,257.213 597.265,258.77C597.214,258.805 597.2,258.876 597.233,258.929C597.266,258.983 597.334,258.998 597.385,258.963C599.54,257.761 602.261,255.585 604.766,253.163C607.441,250.576 609.768,247.723 610.96,245.571C612.806,242.354 613.691,239.014 613.745,236.109C613.8,233.15 612.836,230.653 611.257,228.828C609.43,226.757 606.828,226.608 604.023,228.103C602.462,228.935 600.809,230.414 599.326,232.257C599.122,232.51 598.923,232.77 598.728,233.037C597.114,230.9 595.292,229.103 593.576,228.119C590.81,226.533 588.241,226.614 586.437,228.637C584.873,230.428 583.933,232.891 583.97,235.807C584.007,238.694 584.871,242.021 586.7,245.278C587.854,247.439 589.638,249.752 591.759,251.817C593.727,253.733 595.928,255.439 598.071,256.69C598.34,256.875 598.7,256.795 598.875,256.512C599.051,256.229 598.975,255.849 598.706,255.665Z"/>
                    </g>
                    <g transform="matrix(0.235461,-8.35328e-19,-1.83394e-18,0.139751,272.694,107.139)">
                        <path d="M704.954,43.647C704.954,43.647 701.278,43.142 697.954,42.791C696.855,42.675 695.81,42.6 694.954,42.523C694.954,42.523 694.954,42.523 694.954,42.523C693.979,42.456 693.1,42.867 692.419,43.465C691.719,44.08 691.334,44.996 691.273,46C691.273,46 691.273,46 691.273,46C691.241,47.11 691.164,48.554 691.157,50C691.151,51.446 691.215,52.89 691.238,54C691.238,54 691.238,54 691.238,54C691.288,55.016 691.682,55.941 692.381,56.573C693.065,57.192 693.96,57.61 694.954,57.559L702.954,57.042C703.78,56.982 704.525,56.652 705.025,56.071C705.506,55.512 705.822,54.793 705.76,54L705.021,44.909C705.021,44.872 704.991,44.842 704.954,44.842C704.918,44.842 704.888,44.872 704.888,44.909L704.149,54C704.124,54.315 703.934,54.566 703.712,54.757C703.513,54.929 703.237,54.979 702.954,54.958C702.954,54.958 694.954,54.441 694.954,54.441C694.841,54.435 694.77,54.334 694.699,54.255C694.641,54.192 694.666,54.093 694.671,54C694.693,52.89 694.758,51.446 694.752,50C694.745,48.554 694.668,47.11 694.635,46C694.629,45.894 694.596,45.781 694.661,45.707C694.744,45.613 694.82,45.486 694.954,45.477C695.81,45.4 696.855,45.325 697.954,45.209C701.278,44.858 704.954,44.353 704.954,44.353C705.149,44.353 705.307,44.195 705.307,44C705.307,43.805 705.149,43.647 704.954,43.647Z"/>
                    </g>
                    <g transform="matrix(0.235461,-8.35328e-19,-1.83394e-18,0.139751,272.922,109.823)">
                        <path d="M704.954,43.647C704.954,43.647 701.278,43.142 697.954,42.791C696.855,42.675 695.81,42.6 694.954,42.523C694.954,42.523 694.954,42.523 694.954,42.523C693.979,42.456 693.1,42.867 692.419,43.465C691.719,44.08 691.334,44.996 691.273,46C691.273,46 691.273,46 691.273,46C691.241,47.11 691.164,48.554 691.157,50C691.151,51.446 691.215,52.89 691.238,54C691.238,54 691.238,54 691.238,54C691.288,55.016 691.682,55.941 692.381,56.573C693.065,57.192 693.96,57.61 694.954,57.559L702.954,57.042C703.78,56.982 704.525,56.652 705.025,56.071C705.506,55.512 705.822,54.793 705.76,54L705.021,44.909C705.021,44.872 704.991,44.842 704.954,44.842C704.918,44.842 704.888,44.872 704.888,44.909L704.149,54C704.124,54.315 703.934,54.566 703.712,54.757C703.513,54.929 703.237,54.979 702.954,54.958C702.954,54.958 694.954,54.441 694.954,54.441C694.841,54.435 694.77,54.334 694.699,54.255C694.641,54.192 694.666,54.093 694.671,54C694.693,52.89 694.758,51.446 694.752,50C694.745,48.554 694.668,47.11 694.635,46C694.629,45.894 694.596,45.781 694.661,45.707C694.744,45.613 694.82,45.486 694.954,45.477C695.81,45.4 696.855,45.325 697.954,45.209C701.278,44.858 704.954,44.353 704.954,44.353C705.149,44.353 705.307,44.195 705.307,44C705.307,43.805 705.149,43.647 704.954,43.647Z"/>
                    </g>
                    <g transform="matrix(0.235461,-8.35328e-19,-1.83394e-18,0.139751,272.922,112.506)">
                        <path d="M704.954,43.647C704.954,43.647 701.278,43.142 697.954,42.791C696.855,42.675 695.81,42.6 694.954,42.523C694.954,42.523 694.954,42.523 694.954,42.523C693.979,42.456 693.1,42.867 692.419,43.465C691.719,44.08 691.334,44.996 691.273,46C691.273,46 691.273,46 691.273,46C691.241,47.11 691.164,48.554 691.157,50C691.151,51.446 691.215,52.89 691.238,54C691.238,54 691.238,54 691.238,54C691.288,55.016 691.682,55.941 692.381,56.573C693.065,57.192 693.96,57.61 694.954,57.559L702.954,57.042C703.78,56.982 704.525,56.652 705.025,56.071C705.506,55.512 705.822,54.793 705.76,54L705.021,44.909C705.021,44.872 704.991,44.842 704.954,44.842C704.918,44.842 704.888,44.872 704.888,44.909L704.149,54C704.124,54.315 703.934,54.566 703.712,54.757C703.513,54.929 703.237,54.979 702.954,54.958C702.954,54.958 694.954,54.441 694.954,54.441C694.841,54.435 694.77,54.334 694.699,54.255C694.641,54.192 694.666,54.093 694.671,54C694.693,52.89 694.758,51.446 694.752,50C694.745,48.554 694.668,47.11 694.635,46C694.629,45.894 694.596,45.781 694.661,45.707C694.744,45.613 694.82,45.486 694.954,45.477C695.81,45.4 696.855,45.325 697.954,45.209C701.278,44.858 704.954,44.353 704.954,44.353C705.149,44.353 705.307,44.195 705.307,44C705.307,43.805 705.149,43.647 704.954,43.647Z"/>
                    </g>
                    <g transform="matrix(0.565107,0,0,0.390588,30.6936,85.5721)">
                        <path d="M736.79,69.859L736.789,69.865C736.789,69.958 736.877,70.033 736.986,70.033C736.986,70.033 737.18,70.01 737.182,69.845C737.182,69.819 737.183,69.765 737.184,69.69C737.19,69.169 736.947,68.696 736.555,68.348C736.157,67.994 735.6,67.774 734.983,67.761C734.983,67.761 714.954,67.367 714.954,67.367C714.59,67.361 714.234,67.422 713.901,67.533C713.566,67.646 713.261,67.818 712.996,68.036C712.731,68.255 712.527,68.518 712.382,68.803C712.237,69.088 712.163,69.4 712.156,69.717C712.114,72.304 711.984,77.393 711.953,82.057C711.931,85.36 711.973,88.45 711.979,90.283C711.987,90.986 712.319,91.623 712.862,92.08C713.401,92.534 714.139,92.817 714.954,92.81L731.235,92.582C731.609,92.582 731.913,92.321 731.913,92C731.913,91.679 731.609,91.418 731.235,91.418L714.954,91.19C714.665,91.187 714.406,91.079 714.219,90.914C714.034,90.752 713.927,90.527 713.93,90.283C713.936,88.45 713.978,85.36 713.956,82.057C713.924,77.393 713.795,72.304 713.752,69.717C713.75,69.58 713.773,69.444 713.831,69.318C713.889,69.19 713.971,69.07 714.084,68.97C714.198,68.868 714.329,68.784 714.477,68.728C714.627,68.672 714.788,68.636 714.954,68.633L734.983,68.239C735.459,68.229 735.896,68.381 736.219,68.641C736.548,68.906 736.763,69.277 736.782,69.695C736.785,69.769 736.788,69.824 736.789,69.85L736.79,69.859Z"/>
                    </g>
                    <g transform="matrix(0.565107,0,0,0.334824,30.6936,89.5871)">
                        <path d="M737.299,81.635C737.299,81.635 737.274,79.829 737.212,77.781C737.131,75.095 736.991,72 736.991,72C736.991,71.98 736.975,71.963 736.954,71.963C736.934,71.963 736.917,71.98 736.917,72C736.917,72 736.778,75.095 736.696,77.781C736.634,79.829 736.61,81.635 736.61,81.635C736.61,81.825 736.764,81.98 736.954,81.98C737.144,81.98 737.299,81.825 737.299,81.635Z"/>
                    </g>
                    <g transform="matrix(-0.00338831,0.335399,-0.693197,-0.00163941,483.634,-50.4302)">
                        <path d="M491.602,59.997C491.602,59.997 491.601,58.496 491.508,56.797C491.386,54.564 491.124,51.999 491.124,51.999C491.124,51.891 491.016,51.805 490.885,51.805C490.753,51.806 490.646,51.894 490.647,52.001C490.647,52.001 490.41,54.568 490.31,56.803C490.233,58.503 490.248,60.003 490.248,60.003C490.249,60.308 490.554,60.554 490.927,60.552C491.301,60.55 491.603,60.301 491.602,59.997Z"/>
                    </g>
                    <g transform="matrix(-0.00338831,0.335399,-0.693197,-0.00163941,483.634,-47.7381)">
                        <path d="M491.602,59.997C491.602,59.997 491.601,58.496 491.508,56.797C491.386,54.564 491.124,51.999 491.124,51.999C491.124,51.891 491.016,51.805 490.885,51.805C490.753,51.806 490.646,51.894 490.647,52.001C490.647,52.001 490.41,54.568 490.31,56.803C490.233,58.503 490.248,60.003 490.248,60.003C490.249,60.308 490.554,60.554 490.927,60.552C491.301,60.55 491.603,60.301 491.602,59.997Z"/>
                    </g>
                    <g transform="matrix(-0.00189527,0.335399,-0.387743,-0.00163941,464.583,-45.0638)">
                        <path d="M491.602,59.997L491.418,53.047C491.416,52.623 491.178,52.28 490.887,52.282C490.596,52.283 490.362,52.629 490.364,53.053L490.248,60.003C490.25,60.548 490.556,60.989 490.929,60.987C491.303,60.985 491.604,60.541 491.602,59.997Z"/>
                    </g>
                    <g transform="matrix(-0.0700662,0.118353,-0.208117,-0.043402,509.782,58.0734)">
                        <path d="M560.301,96.256C564.822,96.585 568.711,98.659 571.485,101.689C574.099,104.546 575.601,108.315 575.364,112.405C575.258,116.343 573.413,119.801 570.702,122.371C568.005,124.928 564.39,126.64 560.301,126.698C556.128,126.833 552.208,125.364 549.315,122.851C546.319,120.25 544.357,116.605 544.359,112.463C544.336,108.098 545.62,104.463 548.117,101.687C550.625,98.9 554.274,96.968 558.939,95.992C559.051,95.974 559.126,95.872 559.107,95.765C559.089,95.658 558.983,95.585 558.871,95.603C553.86,96.169 549.835,97.894 546.904,100.584C543.777,103.453 541.938,107.427 541.484,112.348C541.044,117.443 543.081,122.129 546.519,125.595C549.982,129.087 554.928,131.243 560.301,131.416C565.805,131.495 570.881,129.462 574.472,125.984C578.052,122.517 580.136,117.66 579.995,112.405C579.699,107.292 577.417,102.709 573.689,99.577C570.126,96.583 565.396,94.881 560.301,95.251C560.011,95.251 559.776,95.476 559.776,95.754C559.776,96.031 560.011,96.256 560.301,96.256Z"/>
                    </g>
                </g>
            </g>
        </g>
    </g>
</svg>
