<?xml version="1.0" encoding="UTF-8" standalone="no"?>
<!DOCTYPE svg PUBLIC "-//W3C//DTD SVG 1.1//EN" "http://www.w3.org/Graphics/SVG/1.1/DTD/svg11.dtd">
<svg width="100%" height="100%" viewBox="0 0 30 30" version="1.1" xmlns="http://www.w3.org/2000/svg" xmlns:xlink="http://www.w3.org/1999/xlink" xml:space="preserve" xmlns:serif="http://www.serif.com/" style="fill-rule:evenodd;clip-rule:evenodd;stroke-linejoin:round;stroke-miterlimit:2;">
    <g transform="matrix(1,0,0,1,-686,-1344)">
        <g id="ic_category_subscription_services_bank_charges" transform="matrix(1.00016,0,0,1.00004,0.113961,-0.115436)">
            <rect x="686.668" y="1344.09" width="28.737" height="29.756" style="fill:none;"/>
            <g transform="matrix(1.76929,0,0,2.98137,-5.42005,997.415)">
                <g transform="matrix(1.94485,-2.49407e-32,-1.06916e-31,0.538541,-761.825,-16.2745)">
                    <path d="M600.414,252.257C600.04,252.237 599.536,252.21 598.965,252.19C598.365,252.169 597.692,252.148 597.019,252.147C596.487,252.146 595.956,252.157 595.461,252.176C594.695,252.206 594.016,252.254 593.559,252.287C593.843,251.781 594.227,251.098 594.629,250.377C595.629,248.582 596.738,246.565 596.738,246.565C596.743,246.558 596.744,246.543 596.74,246.533C596.737,246.523 596.73,246.521 596.725,246.529C596.725,246.529 595.53,248.306 594.464,249.915C593.82,250.887 593.226,251.797 592.964,252.195C592.964,252.195 592.964,252.195 592.964,252.195C592.918,252.266 592.888,252.369 592.871,252.479C592.854,252.59 592.856,252.711 592.873,252.828C592.889,252.946 592.926,253.04 592.969,253.111C593.013,253.183 593.068,253.217 593.125,253.221C593.488,253.243 594.389,253.319 595.461,253.361C595.956,253.381 596.487,253.392 597.019,253.391C597.692,253.39 598.365,253.368 598.965,253.347C599.859,253.316 600.589,253.269 600.912,253.254C600.912,253.254 600.912,253.254 600.912,253.254C600.973,253.25 601.032,253.212 601.078,253.136C601.125,253.06 601.163,252.958 601.18,252.832C601.198,252.706 601.199,252.576 601.18,252.458C601.16,252.341 601.127,252.232 601.077,252.158C601.077,252.158 596.96,246.163 596.96,246.163C596.934,246.124 596.899,246.136 596.88,246.19C596.862,246.245 596.867,246.321 596.893,246.361L600.414,252.257Z"/>
                </g>
                <g transform="matrix(0.00284864,-1.24348,0.479085,-0.00179522,364.143,1091.43)">
                    <path d="M776.953,55.621C776.953,55.621 777.703,55.61 778.553,55.534C779.668,55.435 780.954,55.236 780.954,55.236C781.005,55.236 781.047,55.054 781.047,54.83C781.048,54.605 781.006,54.423 780.955,54.423C780.955,54.423 779.67,54.22 778.556,54.116C777.706,54.037 776.956,54.023 776.956,54.023C776.855,54.023 776.772,54.381 776.772,54.822C776.771,55.262 776.852,55.62 776.953,55.621Z"/>
                </g>
                <g transform="matrix(0.00284864,-1.25803,0.479085,-0.00181622,376.164,1102.8)">
                    <path d="M776.953,55.621C776.953,55.621 777.703,55.61 778.553,55.534C779.668,55.435 780.954,55.236 780.954,55.236C781.004,55.236 781.046,55.054 781.046,54.83C781.047,54.605 781.006,54.423 780.955,54.423C780.955,54.423 779.67,54.22 778.556,54.116C777.706,54.037 776.956,54.023 776.956,54.023C776.856,54.023 776.775,54.381 776.774,54.822C776.773,55.262 776.853,55.62 776.953,55.621Z"/>
                </g>
                <g transform="matrix(0.00281994,1.23399,0.479085,0.00177713,365.432,-838.488)">
                    <path d="M776.956,54.023C776.956,54.023 777.706,54.037 778.556,54.116C779.67,54.22 780.955,54.423 780.955,54.423C781.007,54.423 781.048,54.605 781.048,54.83C781.048,55.054 781.005,55.236 780.954,55.236C780.954,55.236 779.668,55.435 778.553,55.534C777.703,55.61 776.953,55.621 776.953,55.621C776.851,55.62 776.769,55.262 776.77,54.822C776.771,54.381 776.854,54.023 776.956,54.023Z"/>
                </g>
                <g transform="matrix(0.00281994,1.24843,0.479085,0.00179793,377.452,-849.705)">
                    <path d="M776.956,54.023C776.956,54.023 777.706,54.037 778.556,54.116C779.67,54.22 780.955,54.423 780.955,54.423C781.006,54.423 781.047,54.605 781.047,54.83C781.047,55.054 781.005,55.236 780.954,55.236C780.954,55.236 779.668,55.435 778.553,55.534C777.703,55.61 776.953,55.621 776.953,55.621C776.852,55.62 776.772,55.262 776.772,54.822C776.773,54.381 776.855,54.023 776.956,54.023Z"/>
                </g>
                <g transform="matrix(-0.167994,-0.0840588,0.147813,-0.104063,476.744,181.71)">
                    <path d="M560.301,95.995C564.961,96.158 569.096,98.119 572.057,101.141C574.941,104.084 576.687,108.055 576.566,112.405C576.511,116.684 574.617,120.509 571.68,123.309C568.75,126.102 564.756,127.892 560.301,127.923C555.819,127.992 551.641,126.318 548.589,123.564C545.471,120.749 543.513,116.82 543.613,112.433C543.703,107.928 545.151,104.205 547.802,101.401C550.415,98.639 554.172,96.765 558.921,95.891C558.975,95.882 559.011,95.833 559.002,95.782C558.993,95.73 558.942,95.695 558.888,95.704C553.972,96.381 550.034,98.155 547.219,100.87C544.265,103.719 542.55,107.605 542.23,112.378C541.92,117.224 543.914,121.653 547.244,124.883C550.57,128.109 555.241,130.113 560.301,130.192C565.437,130.227 570.133,128.283 573.494,125.046C576.848,121.816 578.857,117.318 578.793,112.405C578.659,107.562 576.537,103.201 573.117,100.125C569.776,97.12 565.238,95.34 560.301,95.512C560.161,95.512 560.048,95.62 560.048,95.754C560.048,95.887 560.161,95.995 560.301,95.995Z"/>
                </g>
                <g transform="matrix(0.565006,0,0,0.299277,134.34,71.6376)">
                    <path d="M479.207,179.983L455.441,179.596C455.327,179.594 455.215,179.62 455.111,179.667C455.006,179.713 454.911,179.785 454.829,179.874C454.746,179.964 454.683,180.072 454.639,180.188C454.594,180.305 454.571,180.431 454.57,180.56C454.57,180.56 454.56,181.404 454.56,181.404C454.559,181.535 454.583,181.663 454.625,181.782C454.668,181.902 454.733,182.011 454.815,182.105C454.897,182.199 454.995,182.271 455.101,182.322C455.208,182.373 455.323,182.399 455.441,182.4C456.79,182.415 460.702,182.478 465.168,182.506C467.277,182.519 469.509,182.528 471.653,182.515C473.163,182.506 474.628,182.484 475.976,182.457C479.021,182.395 481.464,182.307 482.461,182.28C482.562,182.276 482.662,182.254 482.752,182.208C482.842,182.162 482.926,182.101 482.994,182.018C483.062,181.937 483.117,181.844 483.152,181.742C483.186,181.64 483.206,181.532 483.202,181.421C483.202,181.421 483.176,180.544 483.176,180.544C483.173,180.438 483.154,180.334 483.116,180.239C483.078,180.146 483.026,180.058 482.958,179.987C482.89,179.916 482.812,179.859 482.727,179.823C482.643,179.787 482.553,179.767 482.461,179.771C482.461,179.771 479.673,179.89 479.673,179.89C479.617,179.89 479.572,179.941 479.572,180.004C479.572,180.066 479.617,180.117 479.673,180.117L482.461,180.23C482.498,180.232 482.533,180.244 482.566,180.261C482.598,180.277 482.625,180.303 482.65,180.332C482.674,180.361 482.69,180.396 482.702,180.432C482.714,180.467 482.716,180.505 482.715,180.544L482.689,181.421C482.688,181.454 482.678,181.486 482.666,181.516C482.654,181.545 482.635,181.569 482.613,181.592C482.593,181.613 482.567,181.626 482.541,181.637C482.516,181.648 482.489,181.649 482.461,181.648C482.461,181.648 482.461,181.648 482.461,181.648C481.464,181.621 479.021,181.533 475.976,181.471C474.628,181.444 473.163,181.422 471.653,181.413C469.509,181.4 467.277,181.409 465.168,181.422C460.702,181.45 456.79,181.513 455.441,181.528L455.36,181.495L455.321,181.404L455.312,180.56L455.346,180.454L455.441,180.404L479.207,180.021C479.216,180.021 479.224,180.012 479.224,180.002C479.224,179.991 479.216,179.983 479.207,179.983Z"/>
                </g>
                <g transform="matrix(-0.00243708,0.347474,-0.498589,-0.00169844,428.363,-48.71)">
                    <path d="M491.415,59.998C491.415,59.998 491.412,58.497 491.343,56.798C491.252,54.564 491.058,51.999 491.058,51.999C491.058,51.887 490.98,51.797 490.885,51.797C490.789,51.798 490.712,51.889 490.713,52.001C490.713,52.001 490.545,54.567 490.475,56.802C490.422,58.502 490.434,60.002 490.434,60.002C490.436,60.32 490.657,60.577 490.927,60.576C491.198,60.574 491.416,60.315 491.415,59.998Z"/>
                </g>
                <g transform="matrix(-0.00144795,0.206446,-0.296229,-0.0010091,416.826,21.3036)">
                    <path d="M491.75,59.996C491.75,59.996 491.75,58.494 491.639,56.796C491.492,54.55 491.176,51.999 491.176,51.999C491.176,51.81 491.044,51.658 490.884,51.658C490.723,51.659 490.594,51.813 490.595,52.001C490.595,52.001 490.304,54.555 490.179,56.804C490.084,58.502 490.1,60.004 490.1,60.004C490.102,60.539 490.474,60.971 490.929,60.969C491.385,60.967 491.752,60.531 491.75,59.996Z"/>
                </g>
                <g transform="matrix(0.567586,0,0,0.336874,4.60359,77.5886)">
                    <path d="M694.81,131.263C694.807,131.242 694.807,131.224 694.8,131.226C694.758,131.236 694.776,131.25 694.81,131.263L694.813,131.283C694.839,131.384 694.877,131.582 694.941,131.859C695.034,132.255 695.131,132.768 695.213,133.307C695.263,133.629 695.289,133.947 695.287,134.239C695.286,134.435 695.279,134.61 695.176,134.726C695.091,134.821 694.944,134.831 694.726,134.824C694.35,134.813 693.863,134.733 693.234,134.524C692.994,134.427 692.718,134.495 692.55,134.693C692.383,134.891 692.361,135.175 692.497,135.396C693.004,136.085 693.573,136.776 694.15,137.407C695.553,138.942 696.898,140.109 696.898,140.109C696.908,140.12 696.926,140.12 696.937,140.11C696.948,140.099 696.948,140.082 696.938,140.071C696.938,140.071 696.084,138.95 695.112,137.466C694.847,137.06 694.574,136.63 694.309,136.188C694.57,136.244 694.798,136.267 694.998,136.265C695.61,136.26 696.024,136.022 696.298,135.708C696.537,135.434 696.688,135.074 696.708,134.658C696.727,134.277 696.665,133.841 696.512,133.408C696.386,133.053 696.228,132.704 696.039,132.386C695.849,132.066 695.657,131.797 695.481,131.574C695.305,131.35 695.17,131.203 695.099,131.126C695.021,131.041 694.966,131.164 694.942,131.241C695.003,131.004 694.921,130.984 694.855,131.021C694.784,131.06 694.759,131.149 694.798,131.22L694.926,131.295C694.926,131.295 694.854,131.28 694.81,131.263Z"/>
                </g>
            </g>
        </g>
    </g>
</svg>
