<?xml version="1.0" encoding="UTF-8" standalone="no"?>
<!DOCTYPE svg PUBLIC "-//W3C//DTD SVG 1.1//EN" "http://www.w3.org/Graphics/SVG/1.1/DTD/svg11.dtd">
<svg width="100%" height="100%" viewBox="0 0 27 32" version="1.1" xmlns="http://www.w3.org/2000/svg" xmlns:xlink="http://www.w3.org/1999/xlink" xml:space="preserve" xmlns:serif="http://www.serif.com/" style="fill-rule:evenodd;clip-rule:evenodd;stroke-linejoin:round;stroke-miterlimit:2;">
    <g transform="matrix(1,0,0,1,-903,-1344)">
        <g id="ic_category_personal_care_skin_care" transform="matrix(0.9959,0,0,1.00022,3.701,-0.30284)">
            <rect x="903.431" y="1344.03" width="25.751" height="31.302" style="fill:none;"/>
            <g transform="matrix(1.77686,0,0,2.98083,-9.27546,997.482)">
                <g transform="matrix(0.672365,0,0,0.399063,-9.85959,13.3287)">
                    <path d="M786.179,279.901C786.179,279.901 786.773,280.025 787.584,280.088C787.876,280.111 788.196,280.124 788.526,280.122C789.338,280.118 790.204,280.03 790.865,279.779C790.918,279.762 790.947,279.706 790.93,279.653C790.914,279.6 790.857,279.571 790.804,279.588C790.277,279.722 789.635,279.733 789.001,279.698C788.523,279.672 788.053,279.613 787.639,279.558C786.863,279.454 786.291,279.343 786.291,279.343C786.137,279.312 785.987,279.412 785.956,279.566C785.925,279.72 786.025,279.87 786.179,279.901Z"/>
                </g>
                <g transform="matrix(0.672365,0,0,0.399063,-9.898,13.2571)">
                    <path d="M799.228,278.38L799.238,278.38L799.249,278.378C799.3,278.369 799.504,278.316 799.536,278.077C799.548,277.989 799.574,277.804 799.599,277.568C799.617,277.398 799.636,277.203 799.651,276.999C799.711,276.2 799.75,275.284 799.75,275.284C799.755,275.253 799.734,275.223 799.702,275.218C799.671,275.213 799.641,275.234 799.636,275.266C799.636,275.266 799.384,276.147 799.189,276.924C799.139,277.123 799.095,277.313 799.059,277.48C799.04,277.566 799.024,277.644 799.01,277.714C798.942,277.695 798.865,277.675 798.78,277.654C798.615,277.613 798.426,277.574 798.226,277.533C798.004,277.488 797.776,277.445 797.556,277.407C797.001,277.311 796.542,277.246 796.542,277.246C796.537,277.244 796.531,277.247 796.529,277.253C796.527,277.259 796.53,277.265 796.536,277.266C796.536,277.266 796.952,277.471 797.465,277.703C797.668,277.795 797.881,277.888 798.09,277.975C798.278,278.054 798.457,278.128 798.616,278.187C798.836,278.269 799.013,278.324 799.098,278.351C799.164,278.372 799.21,278.378 799.228,278.38Z"/>
                </g>
                <g transform="matrix(-0.0117009,-0.00919934,0.0159359,-0.0075163,531.453,131.196)">
                    <path d="M560.265,97.116C564.386,97.941 567.284,100.478 569.508,103.577C571.33,106.116 571.818,109.26 571.3,112.557C571.185,113.673 570.678,114.657 570.265,115.644C569.66,117.087 568.628,118.267 567.512,119.343C565.652,121.136 563.31,122.606 560.465,122.733C557.23,123.024 554.066,122.347 551.682,120.547C549.043,118.554 546.906,115.885 546.641,112.464C546.646,112.349 546.645,112.234 546.639,112.119C546.047,109.104 546.572,106.004 548.52,103.192C550.416,100.456 553.201,98.011 557.08,96.138C557.374,96.04 557.535,95.735 557.439,95.457C557.344,95.179 557.028,95.033 556.734,95.131C551.931,96.078 548.161,98.038 545.254,100.521C541.376,103.834 539.55,108.16 539.205,112.691L539.202,112.347C538.238,118.202 540.459,123.611 544.127,127.877C547.929,132.298 553.785,134.808 560.136,135.381C566.903,135.683 573.213,133.224 577.688,128.987C579.534,127.24 581.064,125.165 582.111,122.868C583.592,119.618 584.404,116.023 584.06,112.254C583.836,110.445 583.607,108.693 582.934,107.07C581.366,103.29 579.103,99.939 575.691,97.714C571.254,94.82 566.021,93.265 560.336,94.392C559.548,94.392 558.893,95.002 558.874,95.754C558.854,96.505 559.478,97.116 560.265,97.116Z"/>
                </g>
                <g transform="matrix(0.557098,0.0709113,-0.122526,0.339092,113.993,-27.7991)">
                    <path d="M804.113,282.812C804.027,282.726 804.019,282.783 804.048,282.828C804.075,282.871 804.126,282.89 804.173,282.88L804.173,282.88L804.173,282.88L804.174,282.88L804.173,282.88L804.174,282.88L804.174,282.88C804.187,282.874 804.51,282.719 804.803,282.476C804.933,282.368 805.052,282.24 805.141,282.105C805.467,281.607 805.323,281.303 805.136,281.143C804.897,280.937 804.408,280.965 804.126,281.092C804.027,281.139 803.88,281.235 803.719,281.365C803.56,281.494 803.386,281.661 803.231,281.843C803.114,281.983 803.136,282.19 803.28,282.303C803.425,282.417 803.636,282.395 803.753,282.255C803.855,282.128 803.968,282.011 804.076,281.911C804.214,281.783 804.34,281.681 804.422,281.636C804.503,281.588 804.628,281.548 804.736,281.559C804.758,281.561 804.781,281.556 804.8,281.566C804.804,281.568 804.813,281.559 804.815,281.564C804.852,281.634 804.834,281.742 804.76,281.908C804.697,282.053 804.592,282.193 804.481,282.311C804.339,282.464 804.197,282.583 804.128,282.638C804.057,282.693 804.079,282.762 804.113,282.812ZM804.174,282.88L804.211,282.866C804.199,282.873 804.187,282.878 804.174,282.88Z"/>
                </g>
                <g transform="matrix(0.0949751,0.340977,-0.562451,0.0612096,609.746,-165.954)">
                    <path d="M804.114,282.747C804.029,282.74 804.026,282.788 804.048,282.828C804.08,282.884 804.151,282.902 804.206,282.869L804.263,282.787C804.263,282.787 804.257,282.819 804.248,282.845C804.228,282.853 804.21,282.858 804.213,282.865C804.226,282.893 804.239,282.872 804.248,282.845C804.255,282.843 804.263,282.839 804.27,282.836C804.374,282.779 804.59,282.652 804.794,282.483C804.926,282.374 805.045,282.244 805.135,282.108C805.472,281.591 805.315,281.282 805.113,281.121C804.874,280.931 804.409,280.962 804.137,281.083C804.04,281.131 803.894,281.226 803.733,281.355C803.573,281.485 803.399,281.652 803.242,281.835C803.124,281.978 803.14,282.189 803.278,282.307C803.415,282.424 803.623,282.404 803.741,282.262C803.844,282.135 803.957,282.018 804.065,281.918C804.203,281.79 804.328,281.689 804.41,281.644C804.493,281.596 804.619,281.555 804.729,281.565C804.755,281.567 804.781,281.563 804.802,281.573C804.808,281.576 804.818,281.567 804.822,281.573C804.86,281.639 804.84,281.742 804.767,281.905C804.703,282.05 804.597,282.19 804.486,282.309C804.344,282.461 804.202,282.58 804.132,282.635C804.114,282.649 804.101,282.659 804.094,282.664C804.046,282.7 804.07,282.727 804.114,282.747Z"/>
                </g>
                <g transform="matrix(-0.496191,0.173986,-0.281364,-0.299567,1004.82,70.3101)">
                    <path d="M804.24,282.849C804.226,282.855 804.215,282.859 804.218,282.864C804.242,282.91 804.245,282.89 804.24,282.849C804.251,282.845 804.263,282.841 804.275,282.835C804.38,282.778 804.596,282.651 804.801,282.482C804.931,282.374 805.05,282.246 805.139,282.112C805.472,281.604 805.315,281.294 805.119,281.133C804.88,280.936 804.402,280.963 804.124,281.087C804.027,281.134 803.881,281.228 803.721,281.357C803.562,281.486 803.389,281.652 803.234,281.834C803.118,281.973 803.14,282.182 803.283,282.301C803.425,282.419 803.634,282.403 803.75,282.264C803.852,282.136 803.967,282.019 804.075,281.918C804.214,281.789 804.34,281.687 804.423,281.641C804.506,281.592 804.631,281.552 804.741,281.561C804.761,281.563 804.782,281.56 804.799,281.567C804.806,281.57 804.816,281.555 804.819,281.562C804.856,281.631 804.836,281.736 804.762,281.901C804.698,282.047 804.592,282.189 804.481,282.308C804.339,282.461 804.197,282.581 804.127,282.635L804.121,282.641C804.091,282.634 804.068,282.636 804.09,282.664C804.094,282.67 804.106,282.654 804.121,282.641C804.158,282.648 804.206,282.667 804.206,282.667C804.032,282.7 804.015,282.772 804.05,282.827C804.084,282.883 804.156,282.901 804.211,282.868L804.206,282.667C804.206,282.667 804.233,282.784 804.24,282.849Z"/>
                </g>
                <g transform="matrix(-0.458785,-0.202962,0.33895,-0.280746,799.09,367.634)">
                    <path d="M804.209,282.866L804.216,282.862C804.226,282.858 804.245,282.847 804.273,282.832C804.378,282.775 804.595,282.647 804.8,282.477C804.931,282.368 805.05,282.239 805.139,282.104C805.467,281.602 805.323,281.298 805.134,281.137C804.895,280.935 804.411,280.965 804.131,281.09C804.033,281.138 803.886,281.234 803.724,281.364C803.564,281.494 803.39,281.661 803.234,281.844C803.117,281.986 803.136,282.193 803.278,282.306C803.42,282.419 803.631,282.396 803.749,282.254C803.851,282.128 803.964,282.011 804.072,281.911C804.21,281.783 804.335,281.682 804.417,281.637C804.498,281.589 804.623,281.55 804.731,281.56C804.754,281.562 804.779,281.558 804.798,281.568C804.803,281.571 804.813,281.563 804.816,281.568C804.854,281.638 804.836,281.744 804.762,281.909C804.698,282.054 804.594,282.194 804.483,282.312C804.283,282.526 804.08,282.675 804.08,282.675C804.032,282.703 804.014,282.774 804.047,282.829C804.081,282.883 804.153,282.9 804.209,282.866L804.209,282.866Z"/>
                </g>
                <g transform="matrix(0.281369,-0.303099,0.496188,0.167758,160.135,321.085)">
                    <path d="M804.047,282.819L804.048,282.825L804.048,282.824L804.048,282.825L804.048,282.825L804.048,282.825L804.05,282.827C804.083,282.883 804.154,282.902 804.209,282.87L804.185,282.863C804.211,282.861 804.241,282.853 804.272,282.836C804.376,282.78 804.592,282.654 804.796,282.485C804.927,282.377 805.046,282.249 805.136,282.113C805.474,281.595 805.31,281.282 805.107,281.121C804.867,280.932 804.402,280.962 804.131,281.082C804.034,281.129 803.888,281.223 803.729,281.352C803.569,281.481 803.396,281.648 803.24,281.83C803.124,281.97 803.142,282.182 803.281,282.303C803.42,282.423 803.627,282.408 803.743,282.268C803.846,282.14 803.96,282.022 804.069,281.922C804.208,281.793 804.334,281.691 804.417,281.645C804.5,281.596 804.626,281.556 804.737,281.565C804.762,281.567 804.787,281.563 804.808,281.572C804.813,281.575 804.82,281.562 804.823,281.567C804.861,281.634 804.839,281.737 804.766,281.899C804.702,282.046 804.595,282.188 804.484,282.307C804.341,282.46 804.199,282.579 804.13,282.634C804.041,282.704 804.045,282.795 804.047,282.819Z"/>
                </g>
                <g transform="matrix(-0.0283769,-0.076067,-0.13376,0.0175779,555.971,164.978)">
                    <path d="M560.301,95.147C565.519,94.561 570.404,96.151 574.165,99.121C576.976,101.341 578.984,104.408 580.077,107.858C580.535,109.302 580.743,110.832 580.815,112.405C580.852,114.53 580.563,116.593 579.901,118.508C578.873,121.484 577.06,124.134 574.708,126.21C570.932,129.544 565.828,131.509 560.301,131.222C555.042,130.869 550.275,128.653 547.009,125.114C543.865,121.707 542.076,117.224 542.674,112.396C542.679,112.264 542.795,112.162 542.932,112.168C543.069,112.173 543.176,112.284 543.17,112.415C543.331,116.842 545.519,120.663 548.825,123.333C551.909,125.824 555.998,127.181 560.301,126.892C564.378,126.68 567.904,124.819 570.466,122.145C571.725,120.831 572.684,119.278 573.391,117.598C574.07,115.987 574.522,114.249 574.544,112.405C574.703,109.738 574.11,107.216 572.912,105.005C572.364,103.992 571.757,103.026 571.009,102.145C568.394,99.07 564.733,96.858 560.301,96.361C559.951,96.361 559.667,96.089 559.667,95.754C559.667,95.419 559.951,95.147 560.301,95.147Z"/>
                </g>
                <g transform="matrix(-0.309508,6.86577e-17,1.98142e-16,0.265734,693.977,92.3409)">
                    <path d="M551.361,97.46C558.98,94.19 567.233,95.111 572.986,98.823C575.684,100.564 577.819,102.941 579.068,105.806C580.104,108.185 580.477,110.908 580.103,113.886C579.854,115.431 579.423,116.862 578.792,118.169C577.693,120.444 576.094,122.361 574.242,123.926C570.113,127.414 564.818,129.175 561.075,129.507C561.07,129.508 561.065,129.509 561.059,129.509C560.805,129.527 560.551,129.534 560.297,129.521C560.045,129.508 559.794,129.485 559.548,129.442C559.541,129.441 559.534,129.44 559.527,129.439C557.985,129.135 556.245,128.555 554.647,127.849C553.004,127.123 551.52,126.282 550.553,125.528C550.527,125.51 550.527,125.481 550.553,125.462C550.579,125.444 550.622,125.444 550.648,125.462C551.719,126.114 553.309,126.804 555.027,127.379C556.632,127.917 558.339,128.344 559.828,128.515C559.807,128.512 560.82,128.476 560.82,128.476C564.126,127.954 568.556,126.024 571.885,122.697C573.127,121.457 574.191,120.016 575.012,118.372C575.722,116.949 576.253,115.376 576.473,113.633C576.911,110.989 576.635,108.567 575.849,106.423C574.922,103.893 573.287,101.752 571.103,100.117C566.27,96.5 558.954,95.356 551.712,97.891C551.54,97.958 551.321,97.916 551.224,97.797C551.127,97.678 551.189,97.527 551.361,97.46Z"/>
                </g>
                <g transform="matrix(0.672365,0,0,0.399063,-9.90178,13.3018)">
                    <path d="M784.287,262.343C784.434,261.127 785.205,260.183 786.206,259.599C786.893,259.197 787.686,258.955 788.493,258.925C790.355,258.858 792.243,259.888 792.956,262.475C792.981,262.583 793.089,262.65 793.197,262.624C793.305,262.599 793.372,262.491 793.347,262.383C792.762,259.363 790.625,258.072 788.49,258.007C787.515,257.977 786.533,258.214 785.685,258.669C784.361,259.378 783.377,260.625 783.159,262.197C783.118,262.509 783.338,262.794 783.65,262.835C783.961,262.875 784.247,262.655 784.287,262.343Z"/>
                </g>
                <g transform="matrix(0.672365,0,0,0.399063,-9.90178,13.0842)">
                    <path d="M793.004,264.695C792.973,264.871 792.928,265.015 792.889,265.181C792.805,265.536 792.677,265.828 792.506,266.144C792.402,266.335 792.254,266.491 792.101,266.678C791.967,266.84 791.813,267 791.629,267.164C791.112,267.73 790.449,268.191 789.717,268.615C788.284,269.445 786.583,270.105 784.967,270.777C783.077,271.564 781.318,272.388 780.217,273.535C779.262,274.536 778.426,276.002 778.771,277.915C778.979,279.07 779.62,280.394 780.965,281.873C780.976,281.886 780.996,281.887 781.009,281.876C781.022,281.865 781.024,281.846 781.013,281.833C779.842,280.3 779.321,278.982 779.215,277.854C779.055,276.157 779.881,274.933 780.788,274.128C781.891,273.143 783.595,272.537 785.4,271.933C787.13,271.354 788.956,270.805 790.483,270.003C791.391,269.528 792.186,268.952 792.825,268.277C793.044,267.994 793.239,267.734 793.362,267.455C793.51,267.123 793.605,266.812 793.64,266.486C793.661,266.285 793.687,266.096 793.667,265.897C793.624,265.465 793.514,265.086 793.331,264.655C793.32,264.565 793.238,264.5 793.148,264.511C793.057,264.523 792.993,264.605 793.004,264.695Z"/>
                </g>
                <g transform="matrix(0.672365,0,0,0.399063,-9.32044,13.7191)">
                    <path d="M792.225,263.196C792.696,263.889 792.768,264.698 792.682,265.464C792.648,265.77 792.572,266.059 792.482,266.334C792.346,266.75 792.137,267.102 791.887,267.326C791.634,267.569 791.32,267.781 790.981,268.002C790.508,268.31 789.973,268.612 789.395,268.907C787.279,269.989 784.622,270.992 782.572,272.164C781.666,272.682 780.879,273.236 780.297,273.846C779.396,274.795 778.319,276.214 778.192,278.067C778.106,279.326 778.452,280.788 779.63,282.432C779.639,282.446 779.659,282.451 779.673,282.441C779.687,282.432 779.691,282.413 779.682,282.398C778.704,280.729 778.481,279.313 778.67,278.121C778.935,276.46 780.022,275.267 780.911,274.482C781.986,273.524 783.712,272.823 785.532,272.134C787.277,271.474 789.114,270.854 790.604,270.108C791.054,269.882 791.473,269.645 791.846,269.387C792.293,269.077 792.674,268.74 792.987,268.39C793.19,268.154 793.385,267.869 793.517,267.525C793.747,266.928 793.881,266.195 793.78,265.448C793.655,264.523 793.257,263.611 792.468,262.972C792.406,262.905 792.302,262.901 792.235,262.963C792.168,263.024 792.163,263.129 792.225,263.196Z"/>
                </g>
                <g transform="matrix(0.672365,0,0,0.399063,-9.86641,13.2744)">
                    <path d="M790.689,273.695C790.689,273.695 791.071,274.139 791.714,274.326C791.951,274.395 792.22,274.436 792.512,274.401C793,274.342 793.553,274.116 794.105,273.505C794.167,273.45 794.173,273.355 794.118,273.292C794.063,273.23 793.968,273.224 793.906,273.279C793.36,273.657 792.892,273.743 792.497,273.712C792.301,273.697 792.132,273.635 791.979,273.572C791.573,273.404 791.326,273.126 791.326,273.126C791.169,272.951 790.899,272.935 790.723,273.092C790.547,273.249 790.532,273.519 790.689,273.695Z"/>
                </g>
                <g transform="matrix(0.50439,0,0,0.232747,120.607,61.6656)">
                    <path d="M791.309,273.098C791.135,272.924 790.835,272.927 790.725,273.084C790.585,273.285 790.598,273.593 790.754,273.773L791.007,273.899C791.007,273.899 790.757,273.777 790.757,273.777L790.854,273.876C791.001,274.013 791.319,274.298 791.755,274.411C791.978,274.47 792.229,274.492 792.495,274.427C792.954,274.314 793.453,274.001 793.92,273.245C793.946,273.213 793.947,273.161 793.923,273.128C793.899,273.095 793.858,273.094 793.833,273.125C793.31,273.594 792.852,273.697 792.456,273.669C792.263,273.655 792.094,273.587 791.939,273.521C791.638,273.391 791.411,273.201 791.309,273.098Z"/>
                </g>
                <g transform="matrix(0.672365,0,0,0.399063,-9.90178,13.3018)">
                    <path d="M787.295,279.262C787.295,279.262 787.504,279.012 787.794,278.993C787.951,278.984 788.13,279.037 788.315,279.227C788.357,279.276 788.418,279.302 788.482,279.3C788.546,279.297 788.605,279.265 788.642,279.213C788.77,278.997 789.023,278.878 789.285,278.885C789.552,278.892 789.824,279.012 790.007,279.28C790.02,279.302 790.048,279.31 790.07,279.297C790.093,279.285 790.101,279.257 790.088,279.234C789.929,278.881 789.627,278.69 789.315,278.627C789.022,278.567 788.724,278.635 788.493,278.798C788.258,278.565 788.009,278.489 787.787,278.482C787.28,278.465 786.881,278.872 786.881,278.872C786.773,278.987 786.779,279.167 786.893,279.274C787.008,279.382 787.188,279.376 787.295,279.262Z"/>
                </g>
            </g>
        </g>
    </g>
</svg>
