<?xml version="1.0" encoding="UTF-8" standalone="no"?>
<!DOCTYPE svg PUBLIC "-//W3C//DTD SVG 1.1//EN" "http://www.w3.org/Graphics/SVG/1.1/DTD/svg11.dtd">
<svg width="100%" height="100%" viewBox="0 0 30 32" version="1.1" xmlns="http://www.w3.org/2000/svg" xmlns:xlink="http://www.w3.org/1999/xlink" xml:space="preserve" xmlns:serif="http://www.serif.com/" style="fill-rule:evenodd;clip-rule:evenodd;stroke-linejoin:round;stroke-miterlimit:2;">
    <g transform="matrix(1,0,0,1,-627,-752)">
        <g id="ic_category_bucket_list_career" transform="matrix(1.00051,0,0,1.0018,-7.30677,-1.59605)">
            <rect x="634.477" y="752.445" width="28.954" height="31.555" style="fill:none;"/>
            <g transform="matrix(1.76868,0,0,1.41845,-44.8433,547.901)">
                <g transform="matrix(-0.0533648,0.0388274,0.0312543,0.066616,422.264,117.174)">
                    <path d="M662.814,159.1C668.182,158.35 672.744,160.045 676.425,163.051C680.279,166.199 682.378,171.102 683.244,176.721C683.757,182.863 681.492,188.607 677.517,192.746C675.496,194.851 672.959,196.487 670.173,197.52C667.495,198.512 664.588,199.01 661.581,198.831C655.635,198.341 650.296,195.866 646.76,191.611C643.419,187.591 641.381,182.431 641.947,176.823C642.531,171.719 644.453,167.439 647.663,164.478C650.805,161.581 654.881,159.898 659.59,160.146C659.711,160.138 659.816,160.23 659.824,160.35C659.832,160.471 659.74,160.576 659.619,160.584C655.528,161.349 652.321,163.531 650.214,166.657C648.351,169.421 647.646,172.926 648.092,176.823C648.452,180.392 650.414,183.307 652.971,185.438C655.283,187.364 658.348,188.204 661.581,187.938C663.069,187.849 664.422,187.319 665.708,186.735C667.005,186.145 668.145,185.307 669.165,184.348C671.221,182.413 672.908,179.954 673.04,176.925C673.438,173.42 672.989,170.199 671.312,167.609C669.382,164.631 666.677,162.297 662.722,161.424C662.079,161.399 661.578,160.858 661.603,160.216C661.628,159.575 662.171,159.074 662.814,159.1Z"/>
                </g>
                <g transform="matrix(0.000886155,-1.17539,0.479082,-0.00110354,365.528,1078.95)">
                    <path d="M776.953,55.341C776.953,55.341 777.703,55.334 778.553,55.286C779.669,55.222 780.954,55.094 780.954,55.094C781.028,55.094 781.088,54.976 781.088,54.83C781.089,54.684 781.029,54.565 780.955,54.565C780.955,54.565 779.67,54.432 778.555,54.364C777.705,54.312 776.955,54.303 776.955,54.303C776.81,54.302 776.691,54.535 776.691,54.821C776.69,55.108 776.808,55.341 776.953,55.341Z"/>
                </g>
                <g transform="matrix(0.513025,0,0,0.638874,86.2277,23.0337)">
                    <path d="M594.111,216.517L594.222,213.592C594.242,213.046 594.183,212.504 594.05,211.98C593.915,211.451 593.701,210.944 593.42,210.47C593.42,210.47 590.189,205.036 590.189,205.036C590.158,204.985 590.149,204.926 590.149,204.868C590.148,204.813 590.169,204.759 590.198,204.71C590.226,204.662 590.27,204.628 590.317,204.602C590.362,204.577 590.415,204.57 590.468,204.572L590.486,204.572C590.533,204.573 590.577,204.592 590.617,204.614C590.655,204.636 590.685,204.67 590.71,204.709C590.71,204.709 593.889,209.622 593.889,209.622C594.102,209.947 594.392,210.207 594.723,210.39C595.055,210.573 595.431,210.674 595.822,210.681L598.043,210.716C598.448,210.721 598.841,210.621 599.188,210.437C599.535,210.253 599.836,209.982 600.059,209.644L603.257,204.706C603.272,204.682 603.289,204.66 603.313,204.647C603.338,204.633 603.365,204.621 603.394,204.621L603.396,204.621C603.429,204.62 603.462,204.624 603.49,204.64C603.519,204.657 603.547,204.677 603.564,204.707C603.582,204.738 603.595,204.771 603.595,204.805C603.594,204.841 603.589,204.877 603.57,204.908C603.57,204.908 600.31,210.4 600.31,210.4C600.028,210.877 599.812,211.388 599.672,211.919C599.532,212.448 599.463,212.995 599.473,213.547C599.473,213.547 599.667,222.941 599.667,222.941C599.668,223.016 599.643,223.086 599.595,223.136C599.546,223.189 599.478,223.226 599.4,223.228L594.557,223.352C594.505,223.354 594.453,223.346 594.405,223.327C594.357,223.309 594.311,223.282 594.273,223.245C594.234,223.208 594.203,223.165 594.182,223.117C594.16,223.068 594.147,223.016 594.146,222.961C594.146,222.961 594.031,217.051 594.031,217.051C594.031,217.036 594.019,217.024 594.005,217.024C593.99,217.024 593.978,217.036 593.978,217.051L593.828,222.96C593.825,223.058 593.844,223.153 593.878,223.242C593.913,223.332 593.967,223.414 594.034,223.484C594.103,223.555 594.185,223.61 594.273,223.649C594.362,223.688 594.459,223.707 594.559,223.709C594.559,223.709 599.403,223.79 599.403,223.79C599.638,223.794 599.851,223.698 600.008,223.547C600.167,223.394 600.262,223.178 600.267,222.94C600.267,222.94 600.447,213.546 600.447,213.546C600.454,213.087 600.528,212.634 600.659,212.198C600.79,211.764 600.982,211.35 601.228,210.965L604.657,205.577C604.801,205.35 604.873,205.091 604.882,204.832C604.891,204.572 604.827,204.31 604.699,204.073C604.57,203.834 604.378,203.644 604.154,203.508C603.93,203.372 603.668,203.3 603.396,203.296L603.394,203.296C603.141,203.293 602.897,203.358 602.68,203.471C602.461,203.585 602.274,203.756 602.131,203.966L598.863,208.857C598.774,208.993 598.654,209.101 598.515,209.175C598.376,209.249 598.219,209.29 598.057,209.288L595.835,209.28C595.675,209.28 595.519,209.243 595.381,209.171C595.242,209.097 595.118,208.993 595.027,208.859L591.689,204.052C591.551,203.855 591.373,203.694 591.164,203.588C590.957,203.483 590.726,203.422 590.486,203.428C590.486,203.428 590.468,203.428 590.468,203.428C590.209,203.435 589.959,203.504 589.746,203.637C589.535,203.769 589.353,203.951 589.234,204.18C589.117,204.407 589.058,204.655 589.072,204.902C589.085,205.147 589.156,205.39 589.298,205.601L592.835,210.842C593.109,211.247 593.323,211.686 593.473,212.146C593.624,212.612 593.714,213.097 593.731,213.591C593.731,213.591 593.83,216.517 593.83,216.517C593.83,216.594 593.893,216.657 593.97,216.657C594.048,216.658 594.111,216.595 594.111,216.517Z"/>
                </g>
                <g transform="matrix(0.565107,0,0,0.703731,55.1221,9.04938)">
                    <path d="M602.172,210.086C603.026,213.452 604.056,216.498 605.498,218.891C606.257,220.152 607.133,221.224 608.133,222.081C606.645,222.056 604.542,222.026 602.178,222.007C596.587,221.964 589.541,221.966 585.724,221.973C586.647,221.217 587.472,220.341 588.21,219.365C589.998,217 591.271,214.043 592.161,210.832C592.278,210.412 592.033,209.976 591.613,209.858C591.193,209.741 590.757,209.986 590.639,210.406C589.938,212.888 589.001,215.209 587.747,217.188C586.421,219.281 584.738,220.988 582.59,222.067C582.249,222.238 582.072,222.621 582.16,222.992C582.248,223.363 582.579,223.624 582.96,223.624C582.96,223.624 594.092,223.659 602.178,223.595C606.793,223.559 610.415,223.478 610.415,223.478C610.732,223.478 611.007,223.257 611.076,222.947C611.144,222.637 610.988,222.321 610.7,222.188C608.972,221.447 607.557,220.1 606.318,218.354C604.732,216.121 603.432,213.258 602.3,210.047C602.289,210.012 602.252,209.992 602.217,210.003C602.182,210.013 602.162,210.051 602.172,210.086Z"/>
                </g>
                <g transform="matrix(0.565107,0,0,0.703731,55.1221,9.04938)">
                    <path d="M589.154,201.196C590.378,200.145 592.098,198.665 593.66,197.293C595.011,196.107 596.243,195.001 596.964,194.353C597.867,195.139 599.544,196.6 601.254,198.056C602.732,199.315 604.232,200.566 605.247,201.413L600.956,201.572C600.845,201.571 600.739,201.618 600.664,201.7C600.589,201.782 600.552,201.891 600.563,202.002L601.058,205.068C601.077,205.207 601.206,205.304 601.344,205.284C601.483,205.265 601.579,205.136 601.56,204.998L601.377,202.379L606.46,202.619C606.626,202.626 606.782,202.568 606.916,202.484C607.052,202.399 607.15,202.265 607.217,202.111C607.283,201.957 607.284,201.789 607.253,201.632C607.222,201.474 607.131,201.332 607.01,201.215C606.258,200.487 604.34,198.606 602.415,196.769C600.353,194.802 598.289,192.888 597.759,192.389C597.759,192.389 597.759,192.389 597.759,192.389C597.532,192.182 597.244,192.081 596.956,192.079C596.668,192.077 596.381,192.182 596.15,192.386C596.15,192.386 596.15,192.386 596.15,192.386C595.69,192.8 594.095,194.213 592.339,195.818C590.096,197.869 587.588,200.227 586.699,201.052C586.544,201.198 586.431,201.378 586.388,201.576C586.344,201.775 586.348,201.987 586.428,202.183C586.508,202.379 586.635,202.548 586.804,202.659C586.973,202.77 587.171,202.842 587.382,202.838C587.382,202.838 592.18,202.73 592.18,202.73C592.18,202.73 592.03,204.358 592.03,204.358C591.981,204.705 592.223,205.027 592.57,205.076C592.917,205.125 593.239,204.883 593.288,204.536L593.655,202.08C593.675,201.882 593.611,201.685 593.478,201.537C593.345,201.389 593.155,201.305 592.956,201.304L589.154,201.196Z"/>
                </g>
            </g>
        </g>
    </g>
</svg>
