<?xml version="1.0" encoding="UTF-8" standalone="no"?>
<!DOCTYPE svg PUBLIC "-//W3C//DTD SVG 1.1//EN" "http://www.w3.org/Graphics/SVG/1.1/DTD/svg11.dtd">
<svg width="100%" height="100%" viewBox="0 0 32 22" version="1.1" xmlns="http://www.w3.org/2000/svg" xmlns:xlink="http://www.w3.org/1999/xlink" xml:space="preserve" xmlns:serif="http://www.serif.com/" style="fill-rule:evenodd;clip-rule:evenodd;stroke-linejoin:round;stroke-miterlimit:2;">
    <g transform="matrix(1,0,0,1,-724,-1344)">
        <g id="ic_category_subscription_services_saas" transform="matrix(1.00024,0,0,0.904094,-0.177702,125.132)">
            <rect x="724.387" y="1348.2" width="30.698" height="23.548" style="fill:none;"/>
            <g transform="matrix(1.76915,0,0,3.29776,-14.3281,957.27)">
                <g transform="matrix(0.67462,0,0,0.422925,110.255,67.6259)">
                    <path d="M476.064,136.531L459.167,136.108C457.447,136.065 456.716,134.706 457.02,133.558C457.29,132.539 458.408,131.794 460.311,132.204C460.611,132.264 460.92,132.16 461.113,131.935C461.306,131.71 461.349,131.402 461.225,131.137C460.743,130.102 461.32,128.973 462.257,128.37C463.129,127.81 464.343,127.722 465.441,128.583C465.659,128.754 465.954,128.806 466.222,128.72C466.489,128.634 466.69,128.422 466.752,128.161C466.895,127.553 467.128,127.04 467.433,126.619C467.775,126.146 468.204,125.789 468.685,125.541C469.07,125.345 469.215,124.89 469.008,124.526C468.801,124.161 468.32,124.025 467.935,124.22C467.238,124.571 466.612,125.077 466.112,125.753C465.883,126.063 465.681,126.41 465.513,126.795C464.023,126.089 462.49,126.34 461.334,127.081C460.116,127.863 459.336,129.203 459.425,130.572C457.15,130.556 455.906,131.84 455.595,133.248C455.183,135.111 456.394,137.315 459.162,137.265L476.065,136.842C476.156,136.842 476.229,136.772 476.229,136.686C476.229,136.6 476.155,136.531 476.064,136.531Z"/>
                </g>
                <g transform="matrix(0.67462,0,0,0.422925,110.255,67.6259)">
                    <path d="M475.903,129.587C475.968,129.376 476.016,129.17 476.05,128.968C476.088,128.689 475.881,128.433 475.586,128.396C475.292,128.359 475.021,128.556 474.982,128.835C474.959,129.043 474.917,129.258 474.852,129.48C474.792,129.688 474.715,129.902 474.618,130.121C474.535,130.297 474.574,130.504 474.716,130.642C474.859,130.781 475.076,130.823 475.264,130.75C478.066,129.558 479.981,130.853 480.553,132.518C481.197,134.395 480.178,136.665 476.96,136.657C476.943,136.657 476.929,136.669 476.928,136.686C476.927,136.702 476.941,136.715 476.958,136.716C480.464,136.962 481.658,134.459 481.099,132.369C480.608,130.534 478.775,128.987 475.903,129.587Z"/>
                </g>
                <g transform="matrix(0.212175,0.0701716,-0.119532,0.127318,308.362,71.9007)">
                    <path d="M588.629,50.664L587.03,52.746C586.585,53.336 586.322,54.024 586.247,54.73C586.171,55.437 586.287,56.164 586.598,56.834C586.606,56.85 586.614,56.866 586.622,56.882L587.83,58.88C588.262,59.472 588.832,59.933 589.486,60.213C590.138,60.491 590.862,60.61 591.591,60.515L594.269,60.167L595.375,62.535C595.669,63.165 596.11,63.705 596.669,64.084C597.224,64.461 597.872,64.711 598.568,64.756C598.583,64.757 598.598,64.758 598.614,64.759L600.921,64.678C601.592,64.598 602.223,64.36 602.74,63.966C603.253,63.576 603.678,63.066 603.925,62.451L605.048,59.693L607.974,59.927C608.591,59.977 609.202,59.877 609.74,59.617C610.271,59.36 610.746,58.98 611.082,58.473C611.088,58.464 611.093,58.456 611.099,58.447L612.14,56.488C612.367,55.95 612.455,55.376 612.376,54.82C612.298,54.271 612.09,53.737 611.727,53.289C611.732,53.296 609.633,50.687 609.633,50.687C609.633,50.687 609.632,50.66 609.632,50.66C609.632,50.66 611.508,47.952 611.508,47.952C611.803,47.526 611.979,47.043 612.012,46.545C612.045,46.056 611.957,45.558 611.724,45.105C611.722,45.101 611.72,45.097 611.718,45.092L610.578,43.321C610.277,42.93 609.884,42.632 609.438,42.46C609,42.29 608.519,42.23 608.038,42.313C608.041,42.312 604.72,42.871 604.72,42.871C604.646,42.881 604.595,42.947 604.604,43.02C604.614,43.093 604.682,43.144 604.755,43.134L608.11,42.844C608.485,42.809 608.853,42.885 609.179,43.043C609.497,43.196 609.768,43.439 609.967,43.745C609.965,43.742 610.907,45.485 610.907,45.485C611.036,45.793 611.067,46.125 611.021,46.444C610.976,46.757 610.839,47.053 610.632,47.309L608.399,50.062C608.309,50.183 608.262,50.33 608.266,50.48L608.248,50.921C608.244,51.075 608.292,51.227 608.385,51.35L610.39,54.27C610.541,54.488 610.611,54.743 610.628,54.998C610.644,55.244 610.578,55.491 610.46,55.719C610.464,55.712 609.444,57.346 609.444,57.346C609.3,57.53 609.102,57.655 608.891,57.74C608.684,57.824 608.452,57.835 608.222,57.801L604.693,57.278C604.426,57.247 604.156,57.306 603.927,57.445L603.556,57.638C603.317,57.767 603.127,57.971 603.019,58.219L601.49,61.407C601.415,61.566 601.283,61.684 601.141,61.779C601.005,61.871 600.838,61.907 600.668,61.917C600.679,61.916 598.813,61.867 598.813,61.867C598.667,61.845 598.539,61.771 598.425,61.686C598.31,61.599 598.233,61.472 598.177,61.335L596.837,58.064C596.694,57.737 596.444,57.467 596.127,57.297L595.789,57.091C595.48,56.903 595.116,56.824 594.755,56.865L591.203,57.185C591.092,57.196 590.986,57.162 590.888,57.118C590.797,57.076 590.722,57.005 590.662,56.922C590.662,56.922 589.752,55.355 589.752,55.355C589.716,55.265 589.703,55.174 589.713,55.085C589.723,54.983 589.759,54.883 589.823,54.798L591.916,51.941C592.142,51.639 592.26,51.271 592.25,50.895L592.241,50.507C592.251,50.133 592.134,49.767 591.909,49.467L589.732,46.672C589.651,46.57 589.581,46.458 589.564,46.334C589.547,46.205 589.536,46.07 589.586,45.946L590.448,44.3C590.532,44.178 590.632,44.07 590.761,44.007C590.909,43.934 591.07,43.872 591.241,43.884L594.802,44.133C595.071,44.164 595.343,44.104 595.574,43.964L595.926,43.739C596.16,43.613 596.345,43.414 596.451,43.172L597.7,39.864C597.786,39.633 597.91,39.42 598.097,39.27C598.292,39.114 598.517,38.987 598.773,38.948C598.778,38.947 600.752,38.818 600.752,38.818C601.028,38.825 601.317,38.894 601.562,39.047C601.818,39.207 602.046,39.418 602.189,39.695L603.824,42.838C603.899,43.01 604.101,43.089 604.274,43.014C604.448,42.94 604.527,42.741 604.452,42.569L603.251,39.24C603.07,38.736 602.74,38.317 602.337,37.987C601.924,37.65 601.412,37.445 600.862,37.362L598.632,37.262C598.63,37.262 598.627,37.262 598.625,37.262C598.038,37.282 597.491,37.486 597.014,37.788C596.526,38.098 596.146,38.552 595.877,39.083L594.556,41.668L591.556,41.192C590.883,41.087 590.212,41.197 589.601,41.44C588.983,41.687 588.45,42.119 588.033,42.663L586.808,44.65C586.806,44.653 586.804,44.657 586.802,44.661C586.483,45.287 586.376,45.978 586.425,46.653C586.474,47.334 586.733,47.993 587.143,48.572L588.629,50.664ZM599.525,47.548C600.364,47.745 600.969,48.305 601.464,48.962C601.838,49.457 601.916,50.067 601.805,50.701C601.763,51.237 601.409,51.638 601.047,51.986C600.695,52.323 600.276,52.627 599.748,52.652C599.165,52.713 598.62,52.625 598.206,52.286C597.699,51.87 597.268,51.325 597.12,50.627C596.98,50.016 597.096,49.231 597.487,48.533C597.897,47.801 598.493,47.166 599.31,46.883C599.383,46.87 599.431,46.8 599.418,46.728C599.404,46.656 599.334,46.609 599.261,46.622C598.233,46.654 597.332,47.176 596.609,47.866C595.73,48.705 595.284,49.829 595.221,50.775C595.158,52.026 595.613,53.162 596.31,54.077C597.098,55.111 598.325,55.679 599.748,55.827C601.198,55.896 602.55,55.355 603.508,54.42C603.804,54.131 604.062,53.801 604.257,53.436C604.692,52.619 604.943,51.687 604.847,50.701C604.789,50.274 604.738,49.863 604.564,49.488C604.174,48.65 603.64,47.906 602.828,47.449C601.826,46.884 600.693,46.596 599.525,46.871C599.336,46.871 599.182,47.022 599.182,47.209C599.182,47.396 599.336,47.548 599.525,47.548Z"/>
                </g>
                <g transform="matrix(1.29877,0,0,0.669063,-257.337,-26.7413)">
                    <path d="M523.615,224.972L523.615,224.972L523.619,224.982C523.71,225.171 523.871,225.252 524.067,225.276C524.263,225.301 524.494,225.266 524.667,225.335C524.765,225.374 524.837,225.454 524.858,225.622C524.894,225.914 524.673,226.098 524.401,226.152C524.154,226.202 523.86,226.146 523.631,225.954C523.608,225.933 523.575,225.938 523.558,225.965C523.54,225.991 523.545,226.028 523.567,226.048C523.871,226.334 524.294,226.393 524.606,226.282C524.891,226.179 525.081,225.934 525.056,225.595C525.056,225.595 525.056,225.595 525.056,225.595C525.033,225.308 524.908,225.17 524.745,225.094C524.589,225.022 524.384,225.021 524.196,225.001C524.054,224.987 523.917,224.974 523.858,224.84C523.775,224.588 523.912,224.369 524.148,224.297C524.344,224.236 524.603,224.27 524.887,224.439C524.96,224.482 525.049,224.449 525.086,224.365C525.123,224.282 525.094,224.179 525.021,224.137C524.554,223.865 524.138,223.897 523.878,224.072C523.601,224.257 523.479,224.597 523.61,224.961C523.612,224.964 523.613,224.968 523.615,224.972Z"/>
                </g>
                <g transform="matrix(1.29877,0,0,0.669063,-251.609,-26.7413)">
                    <path d="M523.858,224.84C523.775,224.588 523.912,224.369 524.148,224.297C524.344,224.236 524.603,224.27 524.887,224.439C524.96,224.482 525.049,224.449 525.086,224.365C525.123,224.282 525.094,224.179 525.021,224.137C524.554,223.865 524.138,223.897 523.878,224.072C523.601,224.257 523.479,224.597 523.61,224.961L523.735,225.058L523.615,224.972C523.704,225.169 523.868,225.251 524.067,225.276C524.263,225.301 524.494,225.266 524.667,225.335C524.765,225.374 524.837,225.454 524.858,225.622C524.894,225.914 524.673,226.098 524.401,226.152C524.154,226.202 523.86,226.146 523.631,225.954C523.608,225.933 523.575,225.938 523.558,225.965C523.54,225.991 523.545,226.028 523.567,226.048C523.871,226.334 524.294,226.393 524.606,226.282C524.891,226.179 525.081,225.934 525.056,225.595C525.056,225.595 525.056,225.595 525.056,225.595C525.033,225.308 524.908,225.17 524.745,225.094C524.589,225.022 524.384,225.021 524.196,225.001C524.054,224.987 523.917,224.974 523.858,224.84Z"/>
                </g>
                <g transform="matrix(0.418044,0,0,0.248118,202.527,70.8657)">
                    <path d="M533.953,214.409C533.707,214.365 533.414,214.343 533.131,214.4C532.805,214.466 532.488,214.621 532.257,214.946C532.032,215.264 531.957,215.601 532.008,215.905C532.064,216.24 532.261,216.538 532.573,216.711C532.635,216.746 532.879,216.848 533.189,216.857C533.377,216.862 533.588,216.837 533.796,216.745C533.878,216.712 533.918,216.618 533.885,216.535C533.852,216.452 533.758,216.412 533.675,216.445C533.514,216.504 533.353,216.509 533.212,216.495C532.993,216.473 532.823,216.395 532.781,216.368C532.596,216.246 532.485,216.055 532.466,215.845C532.448,215.654 532.517,215.45 532.671,215.262C532.868,215.022 533.142,214.962 533.397,214.964C533.613,214.965 533.82,215.016 533.98,215.068L534.035,216.446L534.035,216.446L534.035,216.449C534.035,216.66 534.205,216.831 534.416,216.832C534.627,216.833 534.798,216.663 534.8,216.453C534.8,216.453 534.828,215.768 534.829,214.944C534.83,214.449 534.819,213.905 534.796,213.427C534.795,213.345 534.778,213.251 534.75,213.161C534.722,213.07 534.68,212.985 534.628,212.905C534.624,212.9 534.62,212.894 534.617,212.889C534.272,212.416 533.749,212.249 533.244,212.289C532.692,212.332 532.177,212.64 531.946,213.011C531.814,213.227 531.881,213.509 532.097,213.641C532.312,213.773 532.594,213.705 532.726,213.49C532.828,213.323 533.072,213.211 533.319,213.188C533.525,213.17 533.743,213.219 533.89,213.402C533.891,213.404 533.915,213.468 533.915,213.468L533.953,214.409Z"/>
                </g>
                <g transform="matrix(0.418044,0,0,0.248118,204.234,70.8737)">
                    <path d="M533.953,214.409C533.707,214.365 533.414,214.343 533.131,214.4C532.805,214.466 532.488,214.621 532.257,214.946C532.032,215.264 531.957,215.601 532.008,215.905C532.064,216.24 532.261,216.538 532.573,216.711C532.635,216.746 532.879,216.848 533.189,216.857C533.377,216.862 533.588,216.837 533.796,216.745C533.878,216.712 533.918,216.618 533.885,216.535C533.852,216.452 533.758,216.412 533.675,216.445C533.514,216.504 533.353,216.509 533.212,216.495C532.993,216.473 532.823,216.395 532.781,216.368C532.596,216.246 532.485,216.055 532.466,215.845C532.448,215.654 532.517,215.45 532.671,215.262C532.868,215.022 533.142,214.962 533.397,214.964C533.613,214.965 533.82,215.016 533.98,215.068L534.035,216.446L534.035,216.446L534.035,216.449C534.035,216.66 534.205,216.831 534.416,216.832C534.627,216.833 534.798,216.663 534.8,216.453C534.8,216.453 534.828,215.768 534.829,214.944C534.83,214.449 534.819,213.905 534.796,213.427C534.795,213.345 534.778,213.251 534.75,213.161C534.722,213.07 534.68,212.985 534.628,212.905C534.624,212.9 534.62,212.894 534.617,212.889C534.272,212.416 533.749,212.249 533.244,212.289C532.692,212.332 532.177,212.64 531.946,213.011C531.814,213.227 531.881,213.509 532.097,213.641C532.312,213.773 532.594,213.705 532.726,213.49C532.828,213.323 533.072,213.211 533.319,213.188C533.525,213.17 533.743,213.219 533.89,213.402C533.891,213.404 533.915,213.468 533.915,213.468L533.953,214.409Z"/>
                </g>
            </g>
        </g>
    </g>
</svg>
