<?xml version="1.0" encoding="UTF-8" standalone="no"?>
<!DOCTYPE svg PUBLIC "-//W3C//DTD SVG 1.1//EN" "http://www.w3.org/Graphics/SVG/1.1/DTD/svg11.dtd">
<svg width="100%" height="100%" viewBox="0 0 31 33" version="1.1" xmlns="http://www.w3.org/2000/svg" xmlns:xlink="http://www.w3.org/1999/xlink" xml:space="preserve" xmlns:serif="http://www.serif.com/" style="fill-rule:evenodd;clip-rule:evenodd;stroke-linejoin:round;stroke-miterlimit:2;">
    <g transform="matrix(1,0,0,1,-596,-1793)">
        <g id="ic_category_space_and_vehicle_house_rent" transform="matrix(1.00125,0,0,1.00098,-0.759032,-3.61772)">
            <rect x="596.954" y="1795.55" width="29.258" height="31.71" style="fill:none;"/>
            <g transform="matrix(1.76736,0,0,2.97856,-31.8724,1390.8)">
                <g transform="matrix(0.993826,0.0505191,-0.0781178,0.541349,-82.1697,39.0886)">
                    <path d="M463.337,148.272C463.337,148.272 463.817,148.274 464.36,148.241C465.076,148.196 465.895,148.096 465.895,148.096C465.943,148.096 465.983,148.053 465.983,148C465.983,147.947 465.943,147.904 465.895,147.904C465.895,147.904 465.076,147.804 464.36,147.759C463.817,147.726 463.337,147.728 463.337,147.728C463.2,147.728 463.088,147.85 463.088,148C463.088,148.15 463.2,148.272 463.337,148.272Z"/>
                </g>
                <g transform="matrix(0.0781178,-0.541349,0.912097,0.0463646,196.477,388.243)">
                    <path d="M463.337,148.272C463.337,148.272 463.817,148.274 464.36,148.241C465.077,148.196 465.895,148.096 465.895,148.096C465.948,148.096 465.991,148.053 465.991,148C465.991,147.947 465.948,147.904 465.895,147.904C465.895,147.904 465.077,147.804 464.36,147.759C463.817,147.726 463.337,147.728 463.337,147.728C463.187,147.728 463.066,147.85 463.066,148C463.066,148.15 463.187,148.272 463.337,148.272Z"/>
                </g>
                <g transform="matrix(-0.745634,-0.293533,0.597546,-0.336548,622.484,332.065)">
                    <path d="M471.247,148.171C471.247,148.171 471.647,148.751 472.133,149.383C472.775,150.217 473.551,151.138 473.551,151.138C473.593,151.199 473.667,151.221 473.715,151.188C473.763,151.155 473.767,151.078 473.724,151.017C473.724,151.017 473.129,149.97 472.569,149.079C472.144,148.404 471.74,147.829 471.74,147.829C471.619,147.655 471.411,147.592 471.275,147.686C471.139,147.781 471.127,147.998 471.247,148.171Z"/>
                </g>
                <g transform="matrix(0.563045,0.0286213,-0.0467882,0.324238,-98.7921,13.4554)">
                    <path d="M842.411,325.831C842.646,325.761 842.904,325.65 843.124,325.476C843.506,325.174 843.801,324.706 843.71,323.97C843.614,323.342 843.296,322.957 842.871,322.75C842.067,322.36 840.942,322.622 840.942,322.622C840.894,322.629 840.861,322.675 840.868,322.724C840.875,322.773 840.919,322.807 840.967,322.8C840.967,322.8 841.976,322.749 842.618,323.204C842.858,323.374 843.024,323.635 843.029,324.03C843.041,324.339 842.939,324.55 842.795,324.702C842.498,325.016 842.016,325.074 841.794,325.101C841.719,325.11 841.665,325.116 841.64,325.121C841.257,325.187 841.28,325.558 841.291,325.623C841.293,325.632 841.366,325.805 841.534,326.045C841.975,326.671 843.122,328.255 843.122,328.255C843.259,328.445 843.519,328.484 843.703,328.343C843.886,328.202 843.924,327.934 843.788,327.745C843.788,327.745 842.928,326.553 842.411,325.831Z"/>
                </g>
                <g transform="matrix(0.518606,0.0263623,0.0891557,-0.617841,108.452,222.367)">
                    <path d="M463.235,147.988C463.074,148.149 462.97,148.081 462.97,148C462.97,147.899 463.134,147.817 463.337,147.817L463.369,147.818C463.369,147.818 463.834,147.816 464.36,147.838C465.081,147.868 465.895,147.935 465.895,147.935C465.966,147.935 466.024,147.964 466.024,148C466.024,148.036 465.966,148.065 465.895,148.065C465.895,148.065 465.081,148.131 464.36,148.162C463.968,148.179 463.609,148.179 463.44,148.182C463.193,148.186 463.186,148.085 463.235,147.988Z"/>
                </g>
                <g transform="matrix(0.100868,-0.699003,1.15634,0.05878,143.382,461.806)">
                    <path d="M467.359,149.299L467.35,148.452C467.35,148.435 467.352,148.418 467.358,148.402C467.364,148.386 467.373,148.371 467.385,148.358C467.397,148.346 467.411,148.335 467.426,148.328C467.442,148.321 467.459,148.316 467.477,148.315C467.477,148.315 469.17,148.265 469.17,148.265C469.195,148.264 469.219,148.265 469.242,148.273C469.266,148.282 469.289,148.293 469.308,148.311C469.328,148.329 469.345,148.35 469.356,148.373C469.368,148.398 469.376,148.424 469.378,148.452L469.419,149.299C469.419,149.347 469.457,149.386 469.504,149.386C469.552,149.386 469.59,149.347 469.59,149.299L469.631,148.452C469.634,148.389 469.622,148.328 469.602,148.27C469.581,148.211 469.547,148.158 469.505,148.111C469.462,148.064 469.409,148.028 469.353,148.001C469.296,147.974 469.234,147.961 469.17,147.958C469.17,147.958 467.477,147.907 467.477,147.907C467.406,147.906 467.336,147.921 467.271,147.947C467.206,147.973 467.147,148.013 467.095,148.064C467.044,148.115 467.005,148.176 466.977,148.241C466.949,148.307 466.935,148.379 466.934,148.452C466.934,148.452 466.925,149.299 466.925,149.299C466.925,149.421 467.022,149.521 467.142,149.521C467.262,149.521 467.359,149.421 467.359,149.299Z"/>
                </g>
                <g transform="matrix(0.631628,0.0321075,-0.0482228,0.33418,-156.407,7.24189)">
                    <path d="M850.992,323.141L850.989,326.392C850.989,326.392 849.197,322.992 849.197,322.992C849.135,322.868 849.007,322.807 848.884,322.843C848.762,322.878 848.676,323.002 848.676,323.144L848.805,328.214C848.805,328.306 848.872,328.381 848.954,328.381C849.037,328.381 849.103,328.306 849.103,328.214L849.202,324.334C849.202,324.334 851.037,328.216 851.037,328.216C851.124,328.39 851.305,328.477 851.478,328.427C851.65,328.377 851.771,328.203 851.773,328.004L851.837,323.148C851.839,322.887 851.651,322.672 851.418,322.67C851.185,322.668 850.994,322.879 850.992,323.141Z"/>
                </g>
                <g transform="matrix(0.025399,-0.176013,0.561757,0.0285558,270.088,222.37)">
                    <path d="M480.711,137.002L480.769,137.985C480.769,137.985 481.133,138.097 481.141,137.967L481.198,137.002C481.216,136.687 480.983,136.399 480.603,136.186C480.215,135.968 479.666,135.833 479.056,135.823C479.056,135.823 466.89,135.653 466.89,135.653C466.18,135.646 465.536,135.796 465.061,136.037C464.58,136.28 464.288,136.623 464.273,137.002C464.273,137.002 464.273,137.002 464.273,137.002C464.241,137.984 464.173,139.606 464.126,141.501C464.092,142.902 464.062,144.451 464.05,146C464.039,147.549 464.045,149.098 464.06,150.499C464.08,152.394 464.127,154.016 464.145,154.998C464.145,154.998 464.145,154.998 464.145,154.998C464.154,155.397 464.461,155.757 464.961,156.016C465.459,156.272 466.139,156.433 466.89,156.428L479.056,156.336C479.391,156.333 479.719,156.297 480.021,156.228C480.322,156.159 480.599,156.062 480.831,155.935C481.062,155.809 481.244,155.662 481.364,155.502C481.483,155.343 481.547,155.172 481.542,154.998C481.542,154.998 480.989,138.859 480.989,138.859C480.989,138.849 480.974,138.841 480.954,138.841C480.935,138.841 480.919,138.849 480.919,138.859L480.367,154.998C480.364,155.089 480.323,155.178 480.256,155.26C480.189,155.342 480.089,155.415 479.965,155.478C479.843,155.54 479.698,155.587 479.543,155.619C479.39,155.651 479.224,155.665 479.056,155.664C479.056,155.664 466.89,155.572 466.89,155.572C466.592,155.57 466.326,155.502 466.133,155.397C465.943,155.295 465.833,155.153 465.836,154.998C465.855,154.016 465.902,152.393 465.922,150.499C465.937,149.098 465.943,147.549 465.932,146C465.92,144.451 465.89,142.902 465.855,141.501C465.809,139.606 465.741,137.984 465.709,137.002C465.702,136.828 465.821,136.667 466.033,136.55C466.251,136.431 466.551,136.35 466.89,136.347C466.89,136.347 479.056,136.177 479.056,136.177C479.494,136.17 479.898,136.255 480.194,136.402C480.498,136.553 480.697,136.764 480.711,137.002Z"/>
                </g>
                <g transform="matrix(0.584491,0,0,0.346908,-40.8997,80.0084)">
                    <path d="M692.948,163.357C693.459,163.862 694.23,164.62 695.165,165.506C696.023,166.32 697.022,167.232 698.065,168.181C699.226,169.238 700.439,170.326 701.591,171.346C704.492,173.915 706.947,176.025 706.947,176.025C706.961,176.039 706.983,176.039 706.997,176.025C707.011,176.011 707.011,175.989 706.997,175.975C706.997,175.975 704.883,173.523 702.31,170.626C701.288,169.476 700.198,168.265 699.14,167.105C698.189,166.064 697.275,165.066 696.46,164.209C695.057,162.734 693.975,161.666 693.705,161.389C693.497,161.182 693.226,161.078 692.955,161.079C692.683,161.08 692.411,161.181 692.205,161.389C691.935,161.667 690.865,162.748 689.458,164.223C688.641,165.078 687.712,166.065 686.754,167.1C683.006,171.153 678.776,175.866 678.776,175.866C678.701,175.94 678.701,176.06 678.775,176.134C678.849,176.208 678.969,176.208 679.043,176.134C679.043,176.134 683.77,171.92 687.836,168.186C688.876,167.232 689.865,166.306 690.724,165.493C691.657,164.609 692.432,163.858 692.948,163.357Z"/>
                </g>
                <g transform="matrix(0.436729,0,0,0.278409,62.6746,91.7668)">
                    <path d="M701.853,164.894L703.071,164.877C703.155,165.775 703.283,167.242 703.439,168.676C703.667,170.772 703.931,172.748 703.931,172.748C703.931,172.766 703.947,172.781 703.967,172.781C703.987,172.781 704.003,172.766 704.003,172.747C704.003,172.747 704.246,170.769 704.451,168.671C704.607,167.082 704.728,165.452 704.801,164.595C704.801,164.595 704.801,164.595 704.801,164.595C704.828,164.2 704.638,163.847 704.376,163.573C704.108,163.294 703.709,163.147 703.276,163.126L701.601,163.102C701.158,163.115 700.751,163.271 700.473,163.552C700.198,163.83 700.009,164.195 700.031,164.602C700.031,164.602 700.031,164.602 700.031,164.602C700.067,165.001 700.105,165.556 700.172,166.16C700.211,166.502 700.256,166.85 700.31,167.199C700.519,168.562 700.764,169.795 700.764,169.795C700.764,169.893 700.849,169.973 700.954,169.973C701.059,169.973 701.145,169.893 701.145,169.795C701.145,169.795 701.39,168.562 701.599,167.199C701.653,166.85 701.698,166.502 701.736,166.16C701.788,165.692 701.823,165.253 701.853,164.894Z"/>
                </g>
                <g transform="matrix(0.584491,0,0,0.346908,-134.426,35.5296)">
                    <path d="M840.765,303.264L840.236,318.003C840.223,318.47 840.416,318.893 840.714,319.208C841.015,319.528 841.445,319.717 841.919,319.731C843.043,319.76 845.053,319.825 847.435,319.872C849.146,319.906 851.048,319.942 852.951,319.95C854.854,319.958 856.757,319.944 858.468,319.916C860.85,319.878 862.859,319.801 863.985,319.771C864.214,319.763 864.44,319.72 864.645,319.627C864.848,319.535 865.039,319.411 865.195,319.245C865.349,319.08 865.476,318.893 865.553,318.685C865.631,318.479 865.677,318.26 865.669,318.036C865.619,316.776 865.538,314.449 865.429,311.988C865.238,307.648 864.99,302.916 864.99,302.916C864.99,302.896 864.974,302.88 864.954,302.88C864.935,302.88 864.919,302.896 864.919,302.916C864.919,302.916 864.671,307.648 864.48,311.988C864.371,314.449 864.289,316.776 864.239,318.036L864.147,318.195L863.987,318.234C862.861,318.201 860.853,318.118 858.471,318.072C856.76,318.039 854.857,318.02 852.954,318.022C851.051,318.024 849.149,318.054 847.438,318.083C845.055,318.124 843.046,318.183 841.921,318.208C841.861,318.21 841.801,318.201 841.76,318.163C841.716,318.121 841.674,318.069 841.672,318.003C841.672,318.003 841.144,303.264 841.144,303.264C841.144,303.16 841.059,303.075 840.954,303.075C840.85,303.075 840.765,303.16 840.765,303.264Z"/>
                </g>
                <g transform="matrix(0.556097,0,0,0.343848,-110.407,36.5593)">
                    <ellipse cx="853.314" cy="300.829" rx="0.864" ry="0.829"/>
                </g>
                <g transform="matrix(0.556097,0,0,0.343848,-110.407,36.5593)">
                    <path d="M853.314,300C853.791,300 854.178,300.372 854.178,300.829C854.178,301.287 853.791,301.658 853.314,301.658C852.837,301.658 852.45,301.287 852.45,300.829C852.45,300.372 852.837,300 853.314,300ZM853.314,300.661C853.364,300.66 853.413,300.67 853.447,300.701C853.484,300.735 853.52,300.776 853.522,300.829C853.525,300.89 853.525,300.952 853.486,300.995C853.438,301.048 853.393,301.118 853.314,301.125C853.216,301.136 853.116,301.143 853.044,301.088C852.958,301.021 852.869,300.943 852.855,300.829C852.839,300.694 852.852,300.562 852.933,300.463C853.026,300.348 853.152,300.252 853.314,300.233L853.314,300.661Z" style="fill:none;"/>
                </g>
                <g transform="matrix(0.565107,0,0,0.335403,-117.893,39.2487)">
                    <path d="M852.94,300.497C853.193,300.681 853.658,301.017 854.255,301.43C854.895,301.873 855.687,302.403 856.52,302.957C857.275,303.458 858.063,303.972 858.807,304.454C860.682,305.669 862.261,306.668 862.261,306.668C862.269,306.674 862.281,306.672 862.287,306.664C862.293,306.655 862.291,306.644 862.282,306.638C862.282,306.638 860.825,305.469 859.067,304.09C858.37,303.543 857.627,302.964 856.909,302.413C856.115,301.804 855.356,301.227 854.729,300.765C853.98,300.214 853.421,299.827 853.25,299.704C853.25,299.704 853.25,299.704 853.25,299.704C853.163,299.644 853.063,299.611 852.962,299.609C852.861,299.608 852.76,299.635 852.672,299.693C852.384,299.891 851.029,300.802 849.541,301.845C847.364,303.369 844.901,305.157 844.901,305.157C844.855,305.187 844.843,305.248 844.872,305.293C844.902,305.339 844.963,305.351 845.008,305.322C845.008,305.322 847.632,303.778 849.899,302.392C851.235,301.575 852.441,300.811 852.94,300.497Z"/>
                </g>
            </g>
        </g>
    </g>
</svg>
