<?xml version="1.0" encoding="UTF-8" standalone="no"?>
<!DOCTYPE svg PUBLIC "-//W3C//DTD SVG 1.1//EN" "http://www.w3.org/Graphics/SVG/1.1/DTD/svg11.dtd">
<svg width="100%" height="100%" viewBox="0 0 33 25" version="1.1" xmlns="http://www.w3.org/2000/svg" xmlns:xlink="http://www.w3.org/1999/xlink" xml:space="preserve" xmlns:serif="http://www.serif.com/" style="fill-rule:evenodd;clip-rule:evenodd;stroke-linejoin:round;stroke-miterlimit:2;">
    <g transform="matrix(1,0,0,1,-703,-1484)">
        <g id="ic_category_groups_space" transform="matrix(1.00038,0,0,1.00045,-0.277209,-3.85527)">
            <rect x="704" y="1487.25" width="31.493" height="24.213" style="fill:none;"/>
            <g transform="matrix(1.7689,0,0,2.98014,97.8318,1151.08)">
                <g transform="matrix(0.329048,0,0,0.195297,123.523,81.4799)">
                    <path d="M692.938,164.386C693.429,164.861 694.05,165.454 694.768,166.106C695.644,166.9 696.662,167.768 697.729,168.67C698.926,169.682 700.168,170.707 701.361,171.667C704.385,174.104 706.927,176.045 706.927,176.045C706.952,176.07 706.992,176.07 707.017,176.045C707.042,176.02 707.041,175.98 707.017,175.955C707.017,175.955 705.072,173.416 702.63,170.396C701.668,169.205 700.642,167.964 699.627,166.768C698.724,165.703 697.855,164.686 697.059,163.812C695.799,162.429 694.762,161.406 694.361,160.985C693.972,160.598 693.464,160.399 692.955,160.403C692.447,160.408 691.934,160.593 691.552,160.986C691.152,161.41 690.134,162.452 688.868,163.833C688.07,164.705 687.177,165.704 686.263,166.759C682.645,170.933 678.672,175.761 678.672,175.761C678.54,175.893 678.54,176.106 678.671,176.238C678.802,176.37 679.016,176.37 679.147,176.239C679.147,176.239 683.99,172.282 688.176,168.679C689.234,167.768 690.237,166.879 691.111,166.084C691.822,165.436 692.444,164.854 692.938,164.386Z"/>
                </g>
                <g transform="matrix(0.385658,0,0,0.18897,86.2222,82.6824)">
                    <path d="M685.876,181.244C686.437,181.274 687.187,181.329 687.94,181.335C688.692,181.341 689.444,181.297 690.005,181.276C690.094,182.339 690.215,183.914 690.371,185.447C690.61,187.814 690.894,189.996 690.894,189.996C690.894,190.023 690.912,190.045 690.935,190.045C690.957,190.045 690.975,190.023 690.975,189.996C690.975,189.996 691.255,187.813 691.49,185.446C691.662,183.718 691.79,181.937 691.879,180.896C691.914,180.326 691.701,179.82 691.416,179.418C691.124,179.006 690.679,178.797 690.196,178.752C689.623,178.733 688.784,178.674 687.943,178.677C687.103,178.68 686.265,178.746 685.69,178.769C685.459,178.786 685.23,178.828 685.026,178.949C684.824,179.069 684.628,179.211 684.476,179.42C684.326,179.626 684.193,179.847 684.121,180.103C684.05,180.355 683.996,180.618 684.011,180.889C684.055,181.561 684.107,182.541 684.189,183.621C684.407,186.501 684.739,189.996 684.739,189.996C684.739,190.14 684.835,190.257 684.954,190.257C685.073,190.257 685.17,190.14 685.17,189.996C685.17,189.996 685.501,186.501 685.719,183.621C685.788,182.719 685.836,181.886 685.876,181.244ZM690.193,181.269L690.193,181.269L690.193,181.269ZM689.973,180.898C689.978,180.968 689.965,181.045 689.99,181.097L689.973,180.898Z"/>
                </g>
                <g transform="matrix(0.245863,0,0,0.156735,181.832,88.1415)">
                    <path d="M701.18,169.795C701.18,169.795 701.521,168.423 701.769,166.96C701.884,166.284 701.946,165.611 702.018,165.07L702.087,165.054L702.104,165.069L702.776,165.058C702.801,165.057 702.822,165.013 702.837,165.03C702.855,165.05 702.907,165.042 702.909,165.069C703.024,166.036 703.178,167.501 703.364,168.909C703.63,170.924 703.924,172.748 703.924,172.748C703.925,172.769 703.944,172.787 703.967,172.787C703.991,172.787 704.009,172.769 704.009,172.747C704.009,172.747 704.284,170.92 704.529,168.903C704.699,167.494 704.838,166.028 704.942,165.06C704.942,165.06 704.942,165.06 704.942,165.06C704.988,164.495 704.728,163.987 704.355,163.592C703.974,163.188 703.399,162.972 702.776,162.942C702.776,162.942 702.104,162.931 702.104,162.931C701.799,162.935 701.5,162.987 701.227,163.099C700.955,163.212 700.701,163.366 700.495,163.572C700.296,163.782 700.121,164.009 700.027,164.269C699.934,164.526 699.868,164.794 699.891,165.07C699.962,165.611 700.025,166.284 700.14,166.96C700.388,168.423 700.729,169.795 700.729,169.795C700.729,169.911 700.83,170.005 700.954,170.005C701.079,170.005 701.18,169.911 701.18,169.795Z"/>
                </g>
                <g transform="matrix(0.329048,0,0,0.195297,95.2443,68.2633)">
                    <path d="M789.994,256.666C788.878,256.628 786.869,256.542 784.48,256.482C782.746,256.438 780.814,256.393 778.881,256.386C777.356,256.38 775.83,256.394 774.403,256.427C771.511,256.495 769.026,256.629 767.745,256.678C767.68,255.489 767.574,253.385 767.437,251.157C767.19,247.099 766.874,242.672 766.874,242.672C766.874,242.646 766.852,242.625 766.826,242.625C766.8,242.625 766.778,242.646 766.778,242.672C766.778,242.672 766.462,247.099 766.214,251.157C766.073,253.472 765.964,255.653 765.899,256.813C765.875,257.311 766.089,257.757 766.399,258.098C766.715,258.446 767.178,258.639 767.685,258.663C768.946,258.711 771.464,258.847 774.403,258.916C775.83,258.95 777.356,258.964 778.881,258.958C780.814,258.95 782.746,258.906 784.48,258.862C786.931,258.8 788.981,258.711 790.078,258.674C790.324,258.665 790.566,258.622 790.785,258.521C791.003,258.42 791.21,258.29 791.376,258.111C791.541,257.933 791.679,257.734 791.761,257.51C791.843,257.289 791.896,257.054 791.887,256.813C791.887,256.813 791.19,242.672 791.19,242.672C791.19,242.533 791.076,242.42 790.937,242.42C790.797,242.42 790.684,242.533 790.684,242.672L789.994,256.666ZM767.748,256.727L767.753,256.813C767.751,256.782 767.773,256.743 767.748,256.727Z"/>
                </g>
                <g transform="matrix(0.550999,0,0,0.32703,-100.624,38.7906)">
                    <path d="M835.745,245.512L829.868,239.844C829.785,239.765 829.688,239.706 829.584,239.662C829.48,239.619 829.368,239.598 829.253,239.596L827.814,239.562C827.572,239.562 827.376,239.758 827.376,240C827.376,240.242 827.572,240.438 827.814,240.438L829.253,240.404C829.253,240.404 829.332,240.426 829.332,240.426C829.332,240.426 835.472,245.808 835.472,245.808C835.554,245.883 835.682,245.878 835.757,245.796C835.832,245.715 835.827,245.587 835.745,245.512Z"/>
                </g>
                <g transform="matrix(0.550999,0,0,0.32703,-100.624,38.7906)">
                    <path d="M835.12,247.693L835.089,249.22C834.02,249.2 832.026,249.158 829.559,249.132C827.783,249.113 825.762,249.102 823.663,249.099C820.714,249.095 817.611,249.109 814.82,249.127C811.056,249.151 807.859,249.192 806.365,249.208L806.341,247.218L812.556,240.736L812.954,240.73L812.99,240.668C813.143,240.391 813.705,239.282 812.904,239.27L812.45,239.263C812.282,239.26 812.119,239.296 811.966,239.357C811.813,239.418 811.675,239.513 811.555,239.631C811.555,239.631 804.99,246.108 804.99,246.108C804.86,246.236 804.762,246.39 804.692,246.554C804.622,246.719 804.588,246.898 804.586,247.08L804.556,249.616C804.551,250.009 804.714,250.364 804.968,250.624C805.223,250.885 805.582,251.042 805.976,251.046C805.976,251.046 805.976,251.046 805.976,251.046C807.236,251.058 810.686,251.105 814.82,251.132C817.611,251.149 820.714,251.163 823.663,251.159C825.762,251.157 827.783,251.146 829.559,251.127C832.333,251.097 834.51,251.048 835.455,251.033C835.455,251.033 835.455,251.033 835.455,251.033C835.845,251.025 836.201,250.873 836.451,250.612C836.7,250.353 836.863,250.004 836.855,249.616L836.809,247.387C836.806,247.207 836.773,247.03 836.702,246.868C836.63,246.707 836.533,246.555 836.403,246.432C836.273,246.308 836.125,246.207 835.961,246.144C835.798,246.082 835.623,246.044 835.445,246.049C833.638,246.109 827.383,246.304 821.187,246.523C814.012,246.778 806.929,247.061 806.929,247.061C806.908,247.062 806.892,247.079 806.892,247.1C806.892,247.121 806.909,247.137 806.93,247.137C806.93,247.137 814.016,247.309 821.194,247.45C827.052,247.565 832.963,247.657 835.12,247.693Z"/>
                </g>
            </g>
        </g>
    </g>
</svg>
