<?xml version="1.0" encoding="UTF-8" standalone="no"?>
<!DOCTYPE svg PUBLIC "-//W3C//DTD SVG 1.1//EN" "http://www.w3.org/Graphics/SVG/1.1/DTD/svg11.dtd">
<svg width="100%" height="100%" viewBox="0 0 31 28" version="1.1" xmlns="http://www.w3.org/2000/svg" xmlns:xlink="http://www.w3.org/1999/xlink" xml:space="preserve" xmlns:serif="http://www.serif.com/" style="fill-rule:evenodd;clip-rule:evenodd;stroke-linejoin:round;stroke-miterlimit:2;">
    <g transform="matrix(1,0,0,1,-714,-752)">
        <g id="ic_category_bucket_list_diy" transform="matrix(0.979412,0,0,0.981222,8.7098,12.3586)">
            <rect x="720.949" y="754.002" width="29.962" height="27.47" style="fill:none;"/>
            <g transform="matrix(1.80678,0,0,1.44819,-39.9896,527.025)">
                <g transform="matrix(2.42573,0.00462204,0.00371157,0.59661,-1463.32,138.897)">
                    <path d="M776.953,55.621C776.953,55.621 777.703,55.61 778.553,55.534C779.667,55.435 780.954,55.236 780.954,55.236C780.998,55.236 781.034,55.054 781.035,54.83C781.035,54.605 780.999,54.423 780.955,54.423C780.955,54.423 779.67,54.22 778.556,54.116C777.706,54.037 776.956,54.023 776.956,54.023C776.869,54.023 776.797,54.381 776.797,54.822C776.796,55.262 776.866,55.62 776.953,55.621Z"/>
                </g>
                <g transform="matrix(0.000287263,-0.784225,0.479081,-0.00035773,398.453,784.324)">
                    <path d="M776.953,55.621C776.953,55.621 777.703,55.61 778.553,55.534C779.674,55.434 780.954,55.236 780.954,55.236C781.124,55.236 781.263,55.055 781.264,54.83C781.264,54.606 781.126,54.423 780.955,54.423C780.955,54.423 779.677,54.22 778.556,54.116C777.706,54.037 776.956,54.023 776.956,54.023C776.62,54.022 776.348,54.38 776.347,54.821C776.346,55.262 776.617,55.62 776.953,55.621Z"/>
                </g>
                <g transform="matrix(0.101024,-0.161364,0.437337,0.429802,320.837,263.812)">
                    <path d="M780.923,54.726L780.931,54.707C780.934,54.696 780.821,54.702 780.715,54.698C780.287,54.68 779.386,54.636 778.555,54.612C777.941,54.593 777.38,54.588 777.115,54.584C777.044,54.582 776.97,54.589 776.971,54.582C777.007,54.298 776.325,54.959 776.315,54.97L776.315,54.97L776.314,54.97L776.32,54.972C776.47,55.027 776.698,55.062 776.954,55.062L776.931,55.059C776.988,55.061 777.049,55.062 777.114,55.061C777.379,55.057 777.941,55.054 778.554,55.038C779.385,55.017 780.287,54.976 780.714,54.96C780.82,54.956 780.933,54.963 780.93,54.952C780.926,54.938 780.911,54.928 780.888,54.921C781.243,54.933 781.369,54.886 781.369,54.83C781.369,54.763 781.184,54.708 780.955,54.707L780.923,54.726ZM776.314,54.97L776.314,54.97L776.315,54.97L776.314,54.97C776.505,54.581 776.139,54.688 776.139,54.82C776.139,54.877 776.205,54.928 776.314,54.97Z"/>
                </g>
                <g transform="matrix(0.109908,-0.175366,0.437354,0.429775,316.197,276.887)">
                    <path d="M780.924,54.727L780.931,54.707C780.933,54.695 780.821,54.702 780.715,54.698C780.288,54.68 779.384,54.636 778.555,54.612C777.941,54.593 777.38,54.588 777.115,54.584C777.044,54.583 776.97,54.589 776.971,54.582C777.002,54.298 776.375,54.959 776.366,54.97L776.366,54.97L776.366,54.97L776.37,54.971C776.507,55.026 776.718,55.062 776.954,55.062L776.929,55.058C776.986,55.061 777.048,55.062 777.114,55.061C777.379,55.057 777.941,55.054 778.554,55.038C779.383,55.017 780.287,54.976 780.714,54.96C780.82,54.956 780.933,54.964 780.93,54.952C780.927,54.938 780.912,54.928 780.891,54.921C781.219,54.933 781.336,54.886 781.336,54.83C781.336,54.763 781.165,54.708 780.955,54.707L780.924,54.727ZM776.366,54.97L776.366,54.97L776.366,54.97L776.366,54.97C776.541,54.581 776.205,54.688 776.205,54.82C776.204,54.877 776.265,54.929 776.366,54.97Z"/>
                </g>
                <g transform="matrix(0.105395,0,0,0.534567,375.513,74.5893)">
                    <path d="M479.141,179.978L458.937,179.622C458.195,179.609 457.468,179.643 456.776,179.701C456.073,179.759 455.443,179.861 454.875,179.984C454.298,180.109 453.872,180.266 453.541,180.432C453.204,180.602 453.048,180.789 453,180.981L453,180.983C452.904,181.392 453.579,181.762 454.61,182.045C455.67,182.336 457.222,182.504 458.935,182.526C458.935,182.526 458.935,182.526 458.935,182.526C460.873,182.546 463.337,182.58 465.956,182.6C467.492,182.612 469.078,182.623 470.637,182.622C471.975,182.621 473.292,182.613 474.537,182.598C475.958,182.582 477.275,182.552 478.438,182.532C478.438,182.532 478.438,182.532 478.438,182.532C479.333,182.511 480.206,182.468 480.982,182.365C481.738,182.265 482.454,182.146 483.002,181.978C483.524,181.813 483.983,181.641 484.194,181.443C484.399,181.251 484.527,181.057 484.407,180.857C484.407,180.857 484.371,180.803 484.371,180.803C484.273,180.652 484.142,180.508 483.823,180.381C483.518,180.26 483.184,180.145 482.703,180.06C482.24,179.98 481.771,179.912 481.228,179.883C480.712,179.857 480.203,179.844 479.675,179.87L479.673,180.137C479.409,179.902 479.189,179.92 479.141,179.978ZM479.138,180.025L458.936,180.379C458.616,180.384 458.321,180.415 458.039,180.449C457.769,180.482 457.55,180.535 457.347,180.591C457.153,180.645 457.043,180.712 456.949,180.779C456.859,180.843 456.864,180.912 456.881,180.981C456.881,180.981 456.882,180.983 456.882,180.983C456.913,181.117 457.234,181.225 457.611,181.308C457.955,181.384 458.438,181.408 458.935,181.402C460.873,181.382 463.337,181.348 465.956,181.328C467.492,181.316 469.078,181.305 470.637,181.306C471.975,181.307 473.292,181.315 474.537,181.33C475.958,181.346 477.275,181.376 478.438,181.396C478.746,181.403 479.053,181.415 479.344,181.394C479.659,181.371 479.987,181.353 480.248,181.302C480.537,181.247 480.83,181.195 481.011,181.119C481.21,181.036 481.426,180.954 481.485,180.857L481.521,180.803C481.563,180.737 481.632,180.674 481.571,180.611C481.503,180.541 481.446,180.471 481.272,180.413C481.084,180.347 480.895,180.286 480.626,180.243C480.329,180.196 480.034,180.153 479.68,180.137L479.673,180.137C479.404,180.137 479.18,180.088 479.138,180.025Z"/>
                </g>
                <g transform="matrix(0.364734,-0.0776518,0.0623556,0.454205,196.017,114.282)">
                    <path d="M601.681,198.457C600.692,198.846 599.947,199.436 599.452,200.167C598.709,201.264 598.501,202.732 598.96,204.471C598.96,204.47 594.908,208.866 594.908,208.866C594.908,208.866 594.94,208.916 594.94,208.916C594.94,208.916 589.687,204.362 589.687,204.362C589.635,204.317 589.587,204.267 589.557,204.206C589.525,204.143 589.5,204.076 589.495,204.004C589.49,203.928 589.493,203.853 589.517,203.783C589.541,203.71 589.575,203.639 589.626,203.58C589.626,203.58 590.631,202.428 590.631,202.428C590.648,202.412 590.648,202.385 590.632,202.368C590.616,202.351 590.589,202.351 590.572,202.367L589.393,203.34C589.295,203.421 589.221,203.522 589.163,203.632C589.103,203.745 589.073,203.871 589.062,204.001C589.051,204.134 589.074,204.264 589.115,204.388C589.156,204.515 589.229,204.629 589.318,204.732L593.878,209.98C594.158,210.297 594.555,210.436 594.947,210.46C595.347,210.485 595.743,210.32 596.066,210.033L601.002,205.549C601.306,205.248 601.411,204.799 601.273,204.394C600.861,203.176 600.855,202.166 601.339,201.415C601.827,200.66 602.755,200.199 604.066,200.016L603.777,200.008C603.777,200.008 605.613,199.142 604.664,198.258C604.647,198.241 604.609,198.207 604.555,198.156C603.79,197.447 602.911,196.888 601.949,196.536C601.001,196.189 599.989,196.019 598.961,196.066C597.951,196.121 596.972,196.357 596.077,196.787C595.199,197.208 594.399,197.786 593.737,198.525C593.737,198.525 590.822,201.826 590.822,201.826C590.734,201.913 590.734,202.056 590.822,202.144C590.91,202.231 591.052,202.231 591.14,202.144L594.439,199.227C595.065,198.666 595.792,198.251 596.57,197.978C597.33,197.71 598.141,197.605 598.961,197.65C599.762,197.687 600.533,197.899 601.246,198.231C601.395,198.3 601.54,198.375 601.681,198.457Z"/>
                </g>
                <g transform="matrix(0.319922,-0.494559,0.589275,0.591147,115.726,332.598)">
                    <path d="M586.801,206.686L585.502,206.663C585.483,206.233 585.461,205.488 585.411,204.743C585.359,203.952 585.276,203.166 585.24,202.75L585.271,202.664C585.287,202.652 585.303,202.639 585.325,202.632C585.348,202.624 585.371,202.615 585.398,202.614C585.398,202.614 587.279,202.524 587.279,202.524C587.339,202.524 587.388,202.492 587.388,202.451C587.388,202.411 587.339,202.378 587.279,202.378L585.398,202.288C585.306,202.284 585.216,202.297 585.131,202.316C585.044,202.336 584.967,202.371 584.897,202.413C584.826,202.455 584.775,202.508 584.734,202.565C584.693,202.622 584.675,202.685 584.669,202.75C584.633,203.166 584.55,203.952 584.497,204.743C584.445,205.532 584.423,206.321 584.404,206.736C584.402,206.825 584.428,206.912 584.477,206.993C584.526,207.074 584.6,207.148 584.693,207.211C584.786,207.274 584.896,207.323 585.016,207.357C585.136,207.39 585.265,207.408 585.398,207.408L586.836,207.383C587.099,207.374 587.339,207.307 587.503,207.185C587.664,207.066 587.775,206.91 587.763,206.736C587.763,206.736 587.763,206.736 587.763,206.736C587.721,206.31 587.654,205.495 587.564,204.704C587.445,203.661 587.3,202.673 587.3,202.673C587.3,202.665 587.291,202.659 587.279,202.659C587.268,202.659 587.259,202.665 587.259,202.673C587.259,202.673 587.114,203.661 586.995,204.704C586.908,205.466 586.843,206.248 586.801,206.686ZM586.799,206.707L586.796,206.709C586.786,206.715 586.797,206.726 586.796,206.736L586.799,206.707Z"/>
                </g>
                <g transform="matrix(0.246369,-0.421756,0.571619,0.517825,163.341,308.232)">
                    <path d="M595.268,204.727C595.268,204.727 594.566,209.568 594.018,213.972C593.701,216.52 593.457,218.918 593.318,220.139C593.299,220.327 593.352,220.513 593.458,220.687C593.564,220.862 593.734,221.022 593.952,221.161C594.171,221.3 594.436,221.406 594.724,221.481C595.013,221.555 595.329,221.592 595.65,221.593L598.796,221.59C599.12,221.588 599.436,221.548 599.725,221.472C600.014,221.397 600.279,221.287 600.498,221.147C600.717,221.007 600.886,220.844 600.991,220.668C601.097,220.492 601.146,220.304 601.126,220.114C601.02,219.305 600.86,217.977 600.643,216.433C600.535,215.656 600.408,214.827 600.277,213.98C600.087,212.749 599.884,211.486 599.687,210.302C599.182,207.273 598.734,204.787 598.734,204.787C598.733,204.775 598.715,204.766 598.694,204.767C598.674,204.767 598.658,204.778 598.659,204.79C598.659,204.79 598.676,207.289 598.739,210.333C598.763,211.522 598.797,212.791 598.837,214.027C598.864,214.878 598.893,215.71 598.93,216.489C599.002,218.038 599.09,219.368 599.135,220.179C599.138,220.208 599.127,220.235 599.111,220.262C599.094,220.287 599.067,220.31 599.034,220.33C599.002,220.351 598.961,220.365 598.919,220.375C598.877,220.386 598.832,220.391 598.785,220.391L595.639,220.408C595.591,220.409 595.543,220.405 595.5,220.394C595.455,220.383 595.411,220.37 595.377,220.35C595.341,220.328 595.31,220.305 595.292,220.278C595.273,220.251 595.259,220.221 595.26,220.191C595.308,218.968 595.43,216.566 595.502,214.012C595.627,209.597 595.665,204.737 595.665,204.737C595.67,204.672 595.585,204.617 595.475,204.614C595.366,204.612 595.273,204.662 595.268,204.727Z"/>
                </g>
            </g>
        </g>
    </g>
</svg>
