<?xml version="1.0" encoding="UTF-8" standalone="no"?>
<!DOCTYPE svg PUBLIC "-//W3C//DTD SVG 1.1//EN" "http://www.w3.org/Graphics/SVG/1.1/DTD/svg11.dtd">
<svg width="100%" height="100%" viewBox="0 0 31 32" version="1.1" xmlns="http://www.w3.org/2000/svg" xmlns:xlink="http://www.w3.org/1999/xlink" xml:space="preserve" xmlns:serif="http://www.serif.com/" style="fill-rule:evenodd;clip-rule:evenodd;stroke-linejoin:round;stroke-miterlimit:2;">
    <g transform="matrix(1,0,0,1,-754,-1279)">
        <g id="ic_category_utilities_cleaning" transform="matrix(1.00043,0,0,1.00073,-0.331878,-0.949866)">
            <rect x="754.047" y="1279.4" width="30.905" height="31.288" style="fill:none;"/>
            <g transform="matrix(1.76881,0,0,2.9793,4.37707,962.834)">
                <g transform="matrix(0.302938,1.25487e-18,2.58191e-18,0.157481,257.275,83.5343)">
                    <path d="M580.218,178.008C580.03,181.879 578.119,184.914 575.235,186.873C572.749,188.561 569.538,189.414 566.05,189.238C564.635,189.202 563.28,188.97 562.001,188.631C561.103,188.393 560.249,188.081 559.433,187.734C557.973,187.112 556.655,186.345 555.541,185.342C554.532,184.434 553.67,183.427 553.021,182.212C552.348,180.952 551.86,179.591 551.661,178.008C551.661,177.976 551.637,177.949 551.609,177.949C551.58,177.949 551.557,177.976 551.557,178.008C551.332,179.797 551.475,181.46 551.927,183.045C552.133,183.766 552.418,184.439 552.755,185.098C553.486,186.522 554.497,187.772 555.724,188.836C556.85,189.813 558.171,190.605 559.624,191.169C561.57,191.923 563.763,192.219 566.05,192.174C569.984,191.975 573.537,190.678 576.162,188.465C579.161,185.935 580.975,182.31 580.766,178.008C580.766,177.835 580.643,177.695 580.492,177.695C580.341,177.695 580.218,177.835 580.218,178.008Z"/>
                </g>
                <g transform="matrix(0.203184,0,0,0.0839306,315.72,101.568)">
                    <path d="M592.763,133.971L592.763,133.973C592.763,134.124 592.849,134.247 592.954,134.247L593.146,133.971C593.205,133.489 593.343,133.067 593.519,132.659C593.681,132.283 593.899,131.981 594.151,131.714C594.384,131.461 594.654,131.333 594.93,131.223C595.187,131.122 595.453,131.126 595.722,131.168L597.184,131.333L598.646,131.393C598.823,131.388 598.998,131.428 599.161,131.516C599.328,131.607 599.494,131.714 599.63,131.89C599.748,132.04 599.858,132.202 599.939,132.391C599.392,132.506 598.662,132.664 597.885,132.841C595.777,133.32 593.373,133.921 593.373,133.921C593.353,133.923 593.338,133.947 593.339,133.976C593.341,134.004 593.358,134.026 593.377,134.024C593.377,134.024 595.814,134.204 597.947,134.315C599.392,134.39 600.676,134.428 600.94,134.436L600.943,134.439L600.942,134.436L600.944,134.436C600.945,134.436 601.725,133.319 601.725,133.319C601.758,132.724 601.685,132.139 601.557,131.583C601.427,131.016 601.197,130.507 600.919,130.048C600.631,129.588 600.278,129.234 599.894,128.982C599.507,128.727 599.08,128.61 598.646,128.598C598.185,128.617 597.687,128.619 597.184,128.657C596.69,128.695 596.196,128.768 595.723,128.821C595.254,128.895 594.799,129.042 594.396,129.371C594.007,129.688 593.654,130.08 593.379,130.604C593.12,131.109 592.91,131.639 592.812,132.239C592.718,132.81 592.691,133.382 592.763,133.971L592.763,133.971Z"/>
                </g>
                <g transform="matrix(0.160095,-0.575812,0.485311,0.0466866,283.966,561.121)">
                    <path d="M776.954,55.211C776.954,55.211 777.703,55.206 778.554,55.17C779.668,55.123 780.954,55.028 780.954,55.028C781.009,55.028 781.053,54.939 781.053,54.83C781.054,54.72 781.009,54.632 780.955,54.631C780.955,54.631 779.669,54.531 778.555,54.48C777.705,54.44 776.955,54.433 776.955,54.433C776.848,54.433 776.76,54.607 776.76,54.822C776.759,55.036 776.846,55.211 776.954,55.211Z"/>
                </g>
                <g transform="matrix(-0.000937384,-0.583599,0.491641,-0.00111271,410.835,569.756)">
                    <path d="M776.954,55.211C776.954,55.211 777.703,55.206 778.554,55.17C779.668,55.123 780.954,55.028 780.954,55.028C781.009,55.028 781.053,54.939 781.053,54.83C781.054,54.72 781.009,54.632 780.955,54.631C780.955,54.631 779.669,54.531 778.555,54.48C777.705,54.44 776.955,54.433 776.955,54.433C776.848,54.433 776.76,54.607 776.76,54.822C776.759,55.036 776.846,55.211 776.954,55.211Z"/>
                </g>
                <g transform="matrix(-0.160095,-0.575812,-0.485311,0.0466866,589.922,561.059)">
                    <path d="M776.955,54.433C776.955,54.433 777.705,54.44 778.555,54.48C779.669,54.531 780.955,54.631 780.955,54.631C781.009,54.632 781.054,54.72 781.053,54.83C781.053,54.939 781.009,55.028 780.954,55.028C780.954,55.028 779.668,55.123 778.554,55.17C777.703,55.206 776.954,55.211 776.954,55.211C776.846,55.211 776.759,55.036 776.76,54.822C776.76,54.607 776.848,54.433 776.955,54.433Z"/>
                </g>
                <g transform="matrix(0.340756,0,0,0.272654,269.015,61.7769)">
                    <path d="M478.426,179.981L456.264,179.579C456.013,179.575 455.766,179.612 455.536,179.678C455.305,179.745 455.094,179.848 454.911,179.978C454.728,180.109 454.587,180.266 454.486,180.435C454.385,180.606 454.334,180.792 454.329,180.982L454.329,180.982C454.317,181.381 454.535,181.743 454.88,182.009C455.229,182.278 455.721,182.441 456.264,182.449C456.264,182.449 456.264,182.449 456.264,182.449C458.075,182.47 461.542,182.53 465.394,182.558C467.378,182.572 469.465,182.585 471.48,182.573C473.269,182.561 474.999,182.531 476.552,182.497C478.689,182.45 480.483,182.384 481.623,182.351C481.866,182.342 482.104,182.306 482.32,182.23C482.532,182.155 482.729,182.055 482.889,181.922C483.047,181.792 483.174,181.645 483.251,181.483C483.326,181.324 483.369,181.155 483.356,180.983L483.356,180.982C483.343,180.813 483.294,180.648 483.197,180.498C483.102,180.351 482.974,180.214 482.807,180.103C482.642,179.994 482.456,179.907 482.252,179.854C482.051,179.802 481.838,179.774 481.621,179.783L479.673,179.879C479.58,179.879 479.505,179.935 479.505,180.004C479.505,180.072 479.581,180.128 479.674,180.128L481.622,180.22C481.757,180.225 481.885,180.255 482.005,180.297C482.121,180.339 482.221,180.401 482.309,180.473C482.394,180.544 482.451,180.627 482.493,180.715C482.533,180.8 482.542,180.891 482.536,180.982L482.536,180.983C482.529,181.072 482.49,181.155 482.439,181.234C482.39,181.31 482.314,181.374 482.228,181.431C482.144,181.487 482.043,181.522 481.939,181.549C481.839,181.575 481.732,181.581 481.623,181.577C481.623,181.577 481.623,181.577 481.623,181.577C480.483,181.544 478.689,181.478 476.552,181.431C474.999,181.397 473.269,181.367 471.48,181.355C469.465,181.343 467.378,181.356 465.394,181.37C461.542,181.398 458.075,181.458 456.264,181.479C456.076,181.482 455.902,181.433 455.777,181.344C455.647,181.252 455.557,181.126 455.553,180.982C455.553,180.982 455.553,180.982 455.553,180.982C455.551,180.911 455.563,180.841 455.597,180.777C455.631,180.711 455.679,180.649 455.746,180.597C455.814,180.545 455.891,180.5 455.979,180.472C456.069,180.442 456.165,180.423 456.264,180.421C456.264,180.421 478.426,180.023 478.426,180.023C478.442,180.023 478.454,180.013 478.454,180.002C478.454,179.99 478.442,179.981 478.426,179.981Z"/>
                </g>
                <g transform="matrix(0.514835,0,0,0.305565,156.868,38.7412)">
                    <path d="M519.738,237.772C519.738,237.772 519.819,240.373 519.947,243.508C520.069,246.502 520.239,249.967 520.335,252.105C520.382,252.916 520.756,253.63 521.301,254.159C521.854,254.696 522.611,255.009 523.436,255.031C524.751,255.049 526.55,255.102 528.352,255.098C530.151,255.094 531.95,255.033 533.268,255.009C534.104,254.975 534.867,254.65 535.417,254.094C535.956,253.55 536.32,252.821 536.345,252.001C536.345,252.001 536.345,252.001 536.345,252.001C536.372,250.199 536.43,247.475 536.452,244.881C536.483,241.167 536.464,237.755 536.464,237.755C536.466,237.733 536.449,237.713 536.427,237.712C536.404,237.71 536.385,237.727 536.383,237.75C536.383,237.75 535.896,241.126 535.417,244.81C535.082,247.382 534.765,250.088 534.545,251.876C534.509,252.206 534.328,252.481 534.095,252.684C533.873,252.877 533.574,252.966 533.259,252.956C533.259,252.956 533.259,252.956 533.259,252.956C531.941,252.943 530.142,252.896 528.344,252.906C526.542,252.917 524.742,252.984 523.428,253.013C523.113,253.024 522.814,252.933 522.591,252.742C522.357,252.543 522.179,252.269 522.139,251.943C521.852,249.822 521.4,246.382 520.985,243.414C520.551,240.307 520.167,237.733 520.167,237.733C520.156,237.615 520.051,237.527 519.933,237.538C519.814,237.549 519.727,237.653 519.738,237.772Z"/>
                </g>
                <g transform="matrix(0.443615,0,0,0.263295,197.925,49.6216)">
                    <path d="M532.536,243.806L532.954,244.461L543.979,244.187C544.083,244.187 544.167,244.103 544.167,244C544.167,243.897 544.083,243.813 543.979,243.813L533.669,243.557L533.771,243.339C534.168,242.486 534.802,241.794 535.569,241.318C536.324,240.848 537.214,240.6 538.141,240.621C538.141,240.621 539.982,240.663 539.982,240.663C541,240.683 541.946,241.046 542.706,241.644C543.455,242.232 544.012,243.061 544.269,244.031L546.718,253.082C545.802,253.08 544.446,253.067 542.895,253.077C541.662,253.084 540.305,253.102 538.949,253.131C537.591,253.159 536.235,253.2 535.002,253.243C533.377,253.299 531.97,253.366 531.055,253.403C531.019,253.405 530.983,253.411 530.951,253.397C530.916,253.382 530.878,253.37 530.853,253.34C530.827,253.308 530.798,253.277 530.788,253.238C530.778,253.196 530.766,253.152 530.776,253.109C530.776,253.109 532.579,244.849 532.579,244.849C532.584,244.83 532.573,244.811 532.555,244.806C532.536,244.8 532.516,244.811 532.511,244.83L529.727,252.812C529.658,253.019 529.651,253.236 529.68,253.447C529.71,253.66 529.8,253.861 529.925,254.043C530.051,254.228 530.225,254.367 530.415,254.474C530.608,254.582 530.828,254.632 531.055,254.643C531.055,254.643 531.055,254.643 531.055,254.643C531.97,254.68 533.377,254.747 535.002,254.803C536.235,254.846 537.591,254.886 538.949,254.915C540.305,254.943 541.662,254.962 542.895,254.969C544.518,254.979 545.927,254.964 546.842,254.963C546.842,254.963 546.842,254.963 546.842,254.963C547.12,254.961 547.391,254.897 547.633,254.775C547.874,254.653 548.09,254.477 548.256,254.254C548.421,254.031 548.533,253.777 548.579,253.511C548.626,253.246 548.616,252.969 548.537,252.704L545.8,243.594C545.407,242.308 544.621,241.225 543.587,240.476C542.565,239.736 541.311,239.31 539.982,239.337C539.982,239.337 538.141,239.379 538.141,239.379C536.982,239.405 535.883,239.764 534.965,240.394C534.059,241.017 533.323,241.891 532.887,242.951L532.536,243.806Z"/>
                </g>
                <g transform="matrix(0.289962,0,0,0.209049,294.935,58.2844)">
                    <path d="M491.172,232L491.21,230.515C491.217,230.239 491.083,229.989 490.869,229.805C490.652,229.619 490.346,229.504 490.007,229.498L489.947,229.497C489.783,229.494 489.621,229.52 489.471,229.569C489.32,229.617 489.181,229.691 489.062,229.786C488.942,229.881 488.849,229.994 488.783,230.118C488.717,230.242 488.683,230.377 488.679,230.515C488.622,232.981 488.424,240.582 488.295,247.223C488.179,253.181 488.118,258.363 488.118,258.363C488.118,258.743 488.492,259.051 488.954,259.051L491,259.067C491.473,259.067 491.855,258.751 491.855,258.363C491.855,258.363 491.902,255.719 491.858,252.158C491.834,250.263 491.776,248.109 491.7,245.954C491.624,243.797 491.522,241.646 491.42,239.75C491.228,236.183 491.033,233.546 491.033,233.546C491.033,233.531 491.018,233.519 491,233.519C490.982,233.519 490.968,233.531 490.968,233.546C490.968,233.546 490.772,236.183 490.58,239.75C490.478,241.646 490.376,243.797 490.3,245.954C490.224,248.109 490.166,250.263 490.143,252.158C490.112,254.626 490.125,256.653 490.136,257.665C490.136,257.665 489.782,257.668 489.782,257.668C489.761,256.063 489.704,251.881 489.614,247.223C489.484,240.582 489.286,232.981 489.23,230.515C489.228,230.436 489.243,230.358 489.277,230.286C489.311,230.213 489.361,230.145 489.428,230.087C489.496,230.029 489.575,229.982 489.663,229.95C489.752,229.918 489.848,229.899 489.947,229.897C489.947,229.897 490.007,229.896 490.007,229.896C490.217,229.893 490.41,229.957 490.55,230.068C490.693,230.181 490.786,230.338 490.791,230.515C490.791,230.515 490.828,232 490.828,232C490.828,232.078 490.905,232.142 491,232.142C491.095,232.142 491.172,232.078 491.172,232Z"/>
                </g>
            </g>
        </g>
    </g>
</svg>
