<?xml version="1.0" encoding="UTF-8" standalone="no"?>
<!DOCTYPE svg PUBLIC "-//W3C//DTD SVG 1.1//EN" "http://www.w3.org/Graphics/SVG/1.1/DTD/svg11.dtd">
<svg width="100%" height="100%" viewBox="0 0 24 30" version="1.1" xmlns="http://www.w3.org/2000/svg" xmlns:xlink="http://www.w3.org/1999/xlink" xml:space="preserve" xmlns:serif="http://www.serif.com/" style="fill-rule:evenodd;clip-rule:evenodd;stroke-linejoin:round;stroke-miterlimit:2;">
    <g transform="matrix(1,0,0,1,-776,-400)">
        <g id="Transactions" transform="matrix(1.00697,0,0,1.00809,-9.15791,-5.83074)">
            <rect x="780.319" y="403.304" width="22.526" height="28.144" style="fill:none;"/>
            <g transform="matrix(0.99308,0,0,0.991977,5.48404,3.3346)">
                <g transform="matrix(1,0,0,1,163.492,369.569)">
                    <path d="M624.067,36.428C624.054,37.013 624.042,37.677 624.043,38.404C624.044,39.811 624.082,41.45 624.128,43.197C624.209,46.205 624.339,49.521 624.462,52.519C624.672,57.665 624.891,61.841 624.891,61.841C624.891,61.862 624.907,61.878 624.928,61.879C624.948,61.879 624.965,61.862 624.965,61.842C624.965,61.842 625.224,57.668 625.485,52.524C625.637,49.527 625.8,46.213 625.91,43.206C625.974,41.46 626.027,39.821 626.042,38.414C626.056,37.118 626.027,36.02 626.022,35.218C626.017,34.907 625.926,34.61 625.75,34.372C625.574,34.135 625.334,33.939 625.04,33.844C624.746,33.751 624.44,33.738 624.161,33.828C623.884,33.917 623.623,34.075 623.44,34.32C622.766,35.253 621.753,36.614 620.752,38.042C618.81,40.81 616.87,43.744 616.87,43.744C616.802,43.829 616.816,43.952 616.901,44.02C616.985,44.087 617.109,44.073 617.176,43.989C617.176,43.989 619.603,41.441 621.867,38.93C622.66,38.051 623.422,37.173 624.067,36.428Z"/>
                </g>
                <g transform="matrix(-1,0,0,-1,1419.67,464.875)">
                    <path d="M623.853,36.221C623.846,36.795 623.84,37.442 623.848,38.147C623.862,39.554 623.915,41.19 623.978,42.931C624.086,45.935 624.246,49.243 624.395,52.233C624.652,57.369 624.908,61.534 624.908,61.534C624.908,61.555 624.925,61.571 624.945,61.571C624.966,61.571 624.982,61.554 624.982,61.534C624.982,61.534 625.203,57.367 625.417,52.229C625.541,49.237 625.673,45.928 625.757,42.924C625.805,41.182 625.844,39.546 625.847,38.139C625.849,36.85 625.811,35.756 625.799,34.949C625.791,34.635 625.696,34.337 625.514,34.099C625.334,33.862 625.089,33.669 624.79,33.578C624.492,33.49 624.183,33.483 623.903,33.581C623.625,33.678 623.367,33.844 623.189,34.097C622.535,35.059 621.559,36.453 620.598,37.911C618.727,40.75 616.866,43.749 616.866,43.749C616.801,43.835 616.819,43.958 616.905,44.023C616.992,44.088 617.115,44.071 617.18,43.984C617.18,43.984 619.539,41.359 621.741,38.769C622.501,37.875 623.231,36.983 623.853,36.221Z"/>
                </g>
            </g>
        </g>
    </g>
</svg>
