<?xml version="1.0" encoding="UTF-8" standalone="no"?>
<!DOCTYPE svg PUBLIC "-//W3C//DTD SVG 1.1//EN" "http://www.w3.org/Graphics/SVG/1.1/DTD/svg11.dtd">
<svg width="100%" height="100%" viewBox="0 0 30 31" version="1.1" xmlns="http://www.w3.org/2000/svg" xmlns:xlink="http://www.w3.org/1999/xlink" xml:space="preserve" xmlns:serif="http://www.serif.com/" style="fill-rule:evenodd;clip-rule:evenodd;stroke-linejoin:round;stroke-miterlimit:2;">
    <g transform="matrix(1,0,0,1,-586,-442)">
        <g id="Accounts" transform="matrix(1.00395,0,0,1.0047,-2.38209,-2.14179)">
            <rect x="586.212" y="442.293" width="29.484" height="29.707" style="fill:none;"/>
            <g transform="matrix(1.76262,0,0,1.41435,-348.617,162.006)">
                <g transform="matrix(-0.117564,0.0855381,0.0688543,0.146757,604.453,126.026)">
                    <path d="M662.8,159.45C667.921,159.01 672.299,160.729 675.653,163.739C679.118,166.847 681.104,171.469 681.705,176.752C682.07,182.421 679.951,187.692 676.258,191.479C674.38,193.405 672.056,194.914 669.5,195.893C667.04,196.835 664.357,197.303 661.581,197.188C656.051,196.87 651.088,194.539 647.697,190.68C644.45,186.984 642.501,182.114 642.874,176.823C643.266,171.915 645.072,167.75 648.048,164.807C651.013,161.875 654.993,160.134 659.594,160.212C659.679,160.207 659.752,160.27 659.758,160.355C659.763,160.439 659.699,160.512 659.615,160.518C655.446,161.145 652.073,163.239 649.829,166.329C647.794,169.132 646.84,172.76 647.165,176.823C647.437,180.686 649.337,183.994 652.034,186.369C654.567,188.6 657.949,189.79 661.581,189.581C663.295,189.51 664.894,189.018 666.382,188.362C667.898,187.692 669.247,186.74 670.425,185.614C672.778,183.367 674.494,180.387 674.579,176.894C674.857,173.094 674.023,169.632 672.083,166.922C669.948,163.94 666.864,161.757 662.736,161.073C662.287,161.056 661.937,160.678 661.954,160.23C661.972,159.782 662.351,159.432 662.8,159.45Z"/>
                </g>
                <g transform="matrix(0.211915,0,0,0.703731,430.316,68.2883)">
                    <path d="M524.954,200.677C524.954,200.677 527.957,200.684 531.354,200.599C535.844,200.488 540.954,200.239 540.954,200.239C541.306,200.239 541.591,200.132 541.591,200C541.591,199.868 541.306,199.761 540.954,199.761C540.954,199.761 535.844,199.512 531.354,199.401C527.957,199.316 524.954,199.323 524.954,199.323C523.958,199.323 523.149,199.626 523.149,200C523.149,200.374 523.958,200.677 524.954,200.677Z"/>
                </g>
                <g transform="matrix(-0.211915,0,0,0.703731,647.305,68.2883)">
                    <path d="M524.954,199.323C524.954,199.323 527.957,199.316 531.354,199.401C535.844,199.512 540.954,199.761 540.954,199.761C541.306,199.761 541.591,199.868 541.591,200C541.591,200.132 541.306,200.239 540.954,200.239C540.954,200.239 535.844,200.488 531.354,200.599C527.957,200.684 524.954,200.677 524.954,200.677C523.958,200.677 523.149,200.374 523.149,200C523.149,199.626 523.958,199.323 524.954,199.323Z"/>
                </g>
                <g transform="matrix(-1.29761e-17,-0.263899,-0.565107,4.30911e-17,651.859,343.867)">
                    <path d="M524.954,199.323C524.954,199.323 527.957,199.316 531.354,199.401C535.844,199.512 540.954,199.761 540.954,199.761C541.306,199.761 541.591,199.868 541.591,200C541.591,200.132 541.306,200.239 540.954,200.239C540.954,200.239 535.844,200.488 531.354,200.599C527.957,200.684 524.954,200.677 524.954,200.677C523.958,200.677 523.149,200.374 523.149,200C523.149,199.626 523.958,199.323 524.954,199.323Z"/>
                </g>
                <g transform="matrix(0.149847,-0.186605,-0.399591,-0.497613,542.173,403.996)">
                    <path d="M524.954,199.323C524.954,199.323 527.957,199.316 531.354,199.401C535.844,199.512 540.954,199.761 540.954,199.761C541.306,199.761 541.591,199.868 541.591,200C541.591,200.132 541.306,200.239 540.954,200.239C540.954,200.239 535.844,200.488 531.354,200.599C527.957,200.684 524.954,200.677 524.954,200.677C523.958,200.677 523.149,200.374 523.149,200C523.149,199.626 523.958,199.323 524.954,199.323Z"/>
                </g>
                <g transform="matrix(0.149847,0.186605,-0.399591,0.497613,542.014,13.7798)">
                    <path d="M524.954,200.677C524.954,200.677 527.957,200.684 531.354,200.599C535.844,200.488 540.954,200.239 540.954,200.239C541.306,200.239 541.591,200.132 541.591,200C541.591,199.868 541.306,199.761 540.954,199.761C540.954,199.761 535.844,199.512 531.354,199.401C527.957,199.316 524.954,199.323 524.954,199.323C523.958,199.323 523.149,199.626 523.149,200C523.149,200.374 523.958,200.677 524.954,200.677Z"/>
                </g>
                <g transform="matrix(-0.149847,0.186605,0.399591,0.497613,535.485,13.6271)">
                    <path d="M524.954,199.323C524.954,199.323 527.957,199.316 531.354,199.401C535.844,199.512 540.954,199.761 540.954,199.761C541.306,199.761 541.591,199.868 541.591,200C541.591,200.132 541.306,200.239 540.954,200.239C540.954,200.239 535.844,200.488 531.354,200.599C527.957,200.684 524.954,200.677 524.954,200.677C523.958,200.677 523.149,200.374 523.149,200C523.149,199.626 523.958,199.323 524.954,199.323Z"/>
                </g>
                <g transform="matrix(-0.149847,-0.186605,0.399591,-0.497613,535.396,404.154)">
                    <path d="M524.954,200.677C524.954,200.677 527.957,200.684 531.354,200.599C535.844,200.488 540.954,200.239 540.954,200.239C541.306,200.239 541.591,200.132 541.591,200C541.591,199.868 541.306,199.761 540.954,199.761C540.954,199.761 535.844,199.512 531.354,199.401C527.957,199.316 524.954,199.323 524.954,199.323C523.958,199.323 523.149,199.626 523.149,200C523.149,200.374 523.958,200.677 524.954,200.677Z"/>
                </g>
                <g transform="matrix(-1.29761e-17,0.263899,-0.565107,-4.30911e-17,651.867,73.7105)">
                    <path d="M524.954,200.677C524.954,200.677 527.957,200.684 531.354,200.599C535.844,200.488 540.954,200.239 540.954,200.239C541.306,200.239 541.591,200.132 541.591,200C541.591,199.868 541.306,199.761 540.954,199.761C540.954,199.761 535.844,199.512 531.354,199.401C527.957,199.316 524.954,199.323 524.954,199.323C523.958,199.323 523.149,199.626 523.149,200C523.149,200.374 523.958,200.677 524.954,200.677Z"/>
                </g>
                <g transform="matrix(0.657025,0,0,0.821102,62.5379,142.883)">
                    <path d="M736.817,69.867C736.818,69.959 736.893,70.033 736.986,70.033L737.154,69.861C737.157,69.294 736.927,68.779 736.558,68.402C736.183,68.019 735.661,67.782 735.083,67.77C735.083,67.77 715.535,67.391 715.535,67.391C714.649,67.378 713.845,67.731 713.256,68.301C712.661,68.876 712.295,69.68 712.281,70.571C712.281,70.571 712.281,70.571 712.281,70.571C712.251,72.878 712.193,76.438 712.158,80C712.123,83.561 712.111,87.122 712.096,89.429C712.095,90.375 712.479,91.233 713.102,91.853C713.725,92.472 714.585,92.854 715.535,92.851C718.251,92.821 722.699,92.786 726.84,92.724C729.735,92.681 732.478,92.62 734.376,92.584C735.244,92.565 736.027,92.209 736.583,91.63C737.132,91.059 737.472,90.284 737.454,89.432C737.454,89.432 737.005,71.221 737.005,71.221C737.005,71.204 736.991,71.19 736.974,71.19C736.956,71.19 736.942,71.204 736.942,71.221L736.46,89.431C736.447,89.998 736.198,90.503 735.817,90.866C735.444,91.221 734.933,91.428 734.376,91.416C732.478,91.38 729.735,91.319 726.84,91.276C722.699,91.214 718.251,91.179 715.535,91.149C715.059,91.147 714.63,90.952 714.318,90.641C714.007,90.33 713.813,89.902 713.813,89.429C713.798,87.122 713.786,83.561 713.751,80C713.716,76.438 713.658,72.878 713.627,70.571C713.619,70.042 713.821,69.558 714.164,69.206C714.512,68.848 714.995,68.617 715.535,68.609C715.535,68.609 735.083,68.23 735.083,68.23C735.544,68.221 735.966,68.394 736.277,68.686C736.594,68.984 736.799,69.4 736.817,69.867L736.817,69.867Z"/>
                </g>
                <g transform="matrix(-0.198887,-0.208803,0.174995,-0.258492,630.517,355.156)">
                    <path d="M560.301,96.162C564.872,96.432 568.852,98.464 571.691,101.491C574.402,104.381 575.995,108.222 575.798,112.405C575.71,116.466 573.848,120.057 571.055,122.71C568.274,125.352 564.522,127.091 560.301,127.141C556.017,127.253 552.004,125.707 549.053,123.109C546.012,120.431 544.053,116.683 544.09,112.452C544.107,108.037 545.451,104.37 548.004,101.584C550.549,98.806 554.238,96.895 558.932,95.955C559.023,95.941 559.085,95.858 559.069,95.771C559.054,95.684 558.968,95.625 558.877,95.64C553.901,96.246 549.906,97.988 547.017,100.687C543.954,103.55 542.158,107.492 541.754,112.359C541.362,117.364 543.381,121.958 546.781,125.338C550.195,128.733 555.041,130.836 560.301,130.974C565.672,131.036 570.611,129.036 574.119,125.645C577.617,122.264 579.673,117.537 579.561,112.405C579.325,107.39 577.098,102.888 573.483,99.775C570.001,96.777 565.338,95.048 560.301,95.345C560.065,95.345 559.875,95.528 559.875,95.754C559.875,95.979 560.065,96.162 560.301,96.162Z"/>
                </g>
            </g>
        </g>
    </g>
</svg>
