<?xml version="1.0" encoding="UTF-8" standalone="no"?>
<!DOCTYPE svg PUBLIC "-//W3C//DTD SVG 1.1//EN" "http://www.w3.org/Graphics/SVG/1.1/DTD/svg11.dtd">
<svg width="100%" height="100%" viewBox="0 0 32 33" version="1.1" xmlns="http://www.w3.org/2000/svg" xmlns:xlink="http://www.w3.org/1999/xlink" xml:space="preserve" xmlns:serif="http://www.serif.com/" style="fill-rule:evenodd;clip-rule:evenodd;stroke-linejoin:round;stroke-miterlimit:2;">
    <g transform="matrix(1,0,0,1,-596,-1843)">
        <g id="ic_user_annual_income" transform="matrix(1.00083,0,0,1.0006,-0.508111,-1.11768)">
            <rect x="596.954" y="1844" width="30.66" height="31.61" style="fill:none;"/>
            <g id="ic_user_annual_income1" serif:id="ic_user_annual_income" transform="matrix(1.76811,0,0,2.97969,-197.154,1410.09)">
                <g transform="matrix(0.565107,0,0,0.239051,148.505,113.284)">
                    <path d="M552.448,136L552.448,140C552.448,140.392 552.675,140.71 552.954,140.71C553.234,140.71 553.461,140.392 553.461,140L553.461,136C553.461,135.608 553.234,135.29 552.954,135.29C552.675,135.29 552.448,135.608 552.448,136Z"/>
                </g>
                <g transform="matrix(0.565107,0,0,0.239051,139.463,113.284)">
                    <path d="M552.448,136L552.448,140C552.448,140.392 552.675,140.71 552.954,140.71C553.234,140.71 553.461,140.392 553.461,140L553.461,136C553.461,135.608 553.234,135.29 552.954,135.29C552.675,135.29 552.448,135.608 552.448,136Z"/>
                </g>
                <g transform="matrix(0.565107,0,0,0.265722,46.7857,103.382)">
                    <path d="M712.954,166.943L713.231,163.155C713.239,163.036 713.275,162.926 713.318,162.822C713.359,162.723 713.421,162.642 713.49,162.568C713.556,162.498 713.636,162.458 713.716,162.426C713.793,162.395 713.874,162.398 713.956,162.407C713.956,162.407 713.956,162.407 713.956,162.407C714.594,162.474 715.497,162.583 716.595,162.685C717.747,162.792 719.096,162.908 720.555,163.006C721.407,163.063 722.293,163.113 723.194,163.147C723.777,163.168 724.366,163.184 724.954,163.185C725.692,163.186 726.429,163.17 727.154,163.144C727.905,163.116 728.641,163.071 729.355,163.024C730.543,162.947 731.657,162.861 732.655,162.776C734.05,162.657 735.193,162.534 735.956,162.462C736.131,162.444 736.301,162.492 736.425,162.625C736.563,162.772 736.67,162.974 736.686,163.218L736.954,167.006L737.223,163.218C737.253,162.764 737.115,162.351 736.899,162.028C736.673,161.689 736.335,161.491 735.957,161.45C735.195,161.373 734.052,161.244 732.658,161.117C731.661,161.027 730.546,160.933 729.359,160.85C728.645,160.799 727.909,160.749 727.159,160.718C726.433,160.687 725.696,160.667 724.959,160.664C724.37,160.662 723.782,160.674 723.199,160.692C722.297,160.721 721.412,160.765 720.559,160.817C719.1,160.907 717.751,161.015 716.598,161.116C715.5,161.212 714.596,161.316 713.958,161.379C713.772,161.398 713.593,161.446 713.43,161.551C713.272,161.653 713.123,161.781 713.006,161.955C712.891,162.125 712.796,162.312 712.743,162.521C712.692,162.725 712.663,162.938 712.678,163.155L712.954,166.943Z"/>
                </g>
                <g transform="matrix(0.42383,0,0,0.251552,197.669,56.6985)">
                    <path d="M604,369C604,368.448 603.552,368 603,368L601,368C600.448,368 600,368.448 600,369L600,371C600,371.552 600.448,372 601,372L603,372C603.552,372 604,371.552 604,371L604,369Z"/>
                </g>
                <g transform="matrix(0.42383,0,0,0.251552,197.669,56.6985)">
                    <path d="M600.457,371.839C600.182,371.661 600,371.352 600,371L600,369C600,368.448 600.448,368 601,368L603,368C603.552,368 604,368.448 604,369L604,371C604,371.552 603.552,372 603,372L601,372C600.817,372 600.646,371.951 600.499,371.865C600.798,371.693 600.999,371.37 600.999,371L601,371.093C601,371.093 603,371.349 603,371.349C603.121,371.369 603.243,371.402 603.336,371.336C603.458,371.25 603.588,371.158 603.617,371L604,369C603.948,368.74 603.8,368.541 603.595,368.405C603.424,368.291 603.217,368.271 603,368.314C603,368.314 601,368.661 601,368.661C600.929,368.671 600.904,368.754 600.856,368.8C600.806,368.848 600.86,368.927 600.869,369L600.861,369.008C600.871,369.037 600.879,369.074 600.883,369.12C600.905,369.332 600.948,369.787 600.973,370.2C600.99,370.507 600.994,370.787 600.997,370.92C601.01,371.419 600.725,371.693 600.457,371.839Z" style="fill:none;"/>
                </g>
                <g transform="matrix(0.42383,0,0,0.251552,201.625,56.6985)">
                    <path d="M604,369C604,368.448 603.552,368 603,368L601,368C600.448,368 600,368.448 600,369L600,371C600,371.552 600.448,372 601,372L603,372C603.552,372 604,371.552 604,371L604,369Z"/>
                </g>
                <g transform="matrix(0.42383,0,0,0.251552,201.625,56.6985)">
                    <path d="M604,369C604,368.448 603.552,368 603,368L601,368C600.448,368 600,368.448 600,369L600,371C600,371.552 600.448,372 601,372L603,372C603.552,372 604,371.552 604,371L604,369ZM600.997,371.002C600.998,370.975 600.998,370.948 600.997,370.92C600.994,370.787 600.99,370.507 600.973,370.2C600.948,369.787 600.905,369.332 600.883,369.12C600.88,369.086 600.875,369.056 600.868,369.031L600.869,369C600.86,368.927 600.806,368.848 600.856,368.8C600.904,368.754 600.929,368.671 601,368.661C601,368.661 603,368.314 603,368.314C603.217,368.271 603.424,368.291 603.595,368.405C603.8,368.541 603.948,368.74 604,369L603.617,371C603.588,371.158 603.458,371.25 603.336,371.336C603.243,371.402 603.121,371.369 603,371.349C603,371.349 601,371.093 601,371.093L600.999,371L600.997,371.002Z" style="fill:none;"/>
                </g>
                <g transform="matrix(0.42383,0,0,0.251552,201.625,58.5212)">
                    <path d="M604,369C604,368.448 603.552,368 603,368L601,368C600.448,368 600,368.448 600,369L600,371C600,371.552 600.448,372 601,372L603,372C603.552,372 604,371.552 604,371L604,369Z"/>
                </g>
                <g transform="matrix(0.42383,0,0,0.251552,201.625,58.5212)">
                    <path d="M604,369C604,368.448 603.552,368 603,368L601,368C600.448,368 600,368.448 600,369L600,371C600,371.552 600.448,372 601,372L603,372C603.552,372 604,371.552 604,371L604,369ZM600.997,371.002C600.998,370.975 600.998,370.948 600.997,370.92C600.994,370.787 600.99,370.507 600.973,370.2C600.948,369.787 600.905,369.332 600.883,369.12C600.88,369.086 600.875,369.056 600.868,369.031L600.869,369C600.86,368.927 600.806,368.848 600.856,368.8C600.904,368.754 600.929,368.671 601,368.661C601,368.661 603,368.314 603,368.314C603.217,368.271 603.424,368.291 603.595,368.405C603.8,368.541 603.948,368.74 604,369L603.617,371C603.588,371.158 603.458,371.25 603.336,371.336C603.243,371.402 603.121,371.369 603,371.349C603,371.349 601,371.093 601,371.093L600.999,371L600.997,371.002Z" style="fill:none;"/>
                </g>
                <g transform="matrix(0.42383,0,0,0.251552,197.669,58.5212)">
                    <path d="M604,369C604,368.448 603.552,368 603,368L601,368C600.448,368 600,368.448 600,369L600,371C600,371.552 600.448,372 601,372L603,372C603.552,372 604,371.552 604,371L604,369Z"/>
                </g>
                <g transform="matrix(0.42383,0,0,0.251552,197.669,58.5212)">
                    <path d="M600.457,371.839C600.182,371.661 600,371.352 600,371L600,369C600,368.448 600.448,368 601,368L603,368C603.552,368 604,368.448 604,369L604,371C604,371.552 603.552,372 603,372L601,372C600.817,372 600.646,371.951 600.499,371.865C600.798,371.693 600.999,371.37 600.999,371L601,371.093C601,371.093 603,371.349 603,371.349C603.121,371.369 603.243,371.402 603.336,371.336C603.458,371.25 603.588,371.158 603.617,371L604,369C603.948,368.74 603.8,368.541 603.595,368.405C603.424,368.291 603.217,368.271 603,368.314C603,368.314 601,368.661 601,368.661C600.929,368.671 600.904,368.754 600.856,368.8C600.806,368.848 600.86,368.927 600.869,369L600.861,369.008C600.871,369.037 600.879,369.074 600.883,369.12C600.905,369.332 600.948,369.787 600.973,370.2C600.99,370.507 600.994,370.787 600.997,370.92C601.01,371.419 600.725,371.693 600.457,371.839Z" style="fill:none;"/>
                </g>
                <g transform="matrix(0.42383,0,0,0.251552,197.669,60.3486)">
                    <path d="M604,369C604,368.448 603.552,368 603,368L601,368C600.448,368 600,368.448 600,369L600,371C600,371.552 600.448,372 601,372L603,372C603.552,372 604,371.552 604,371L604,369Z"/>
                </g>
                <g transform="matrix(0.42383,0,0,0.251552,197.669,60.3486)">
                    <path d="M600.457,371.839C600.182,371.661 600,371.352 600,371L600,369C600,368.448 600.448,368 601,368L603,368C603.552,368 604,368.448 604,369L604,371C604,371.552 603.552,372 603,372L601,372C600.817,372 600.646,371.951 600.499,371.865C600.798,371.693 600.999,371.37 600.999,371L601,371.093C601,371.093 603,371.349 603,371.349C603.121,371.369 603.243,371.402 603.336,371.336C603.458,371.25 603.588,371.158 603.617,371L604,369C603.948,368.74 603.8,368.541 603.595,368.405C603.424,368.291 603.217,368.271 603,368.314C603,368.314 601,368.661 601,368.661C600.929,368.671 600.904,368.754 600.856,368.8C600.806,368.848 600.86,368.927 600.869,369L600.861,369.008C600.871,369.037 600.879,369.074 600.883,369.12C600.905,369.332 600.948,369.787 600.973,370.2C600.99,370.507 600.994,370.787 600.997,370.92C601.01,371.419 600.725,371.693 600.457,371.839Z" style="fill:none;"/>
                </g>
                <g transform="matrix(0.848664,0,0,0.363172,55.0863,98.4769)">
                    <path d="M480.824,137.972L480.824,137.977C480.824,138.077 480.882,138.158 480.954,138.158C480.954,138.158 481.08,138.138 481.085,137.964C481.086,137.945 481.087,137.904 481.089,137.847C481.106,137.277 480.948,136.756 480.69,136.366C480.424,135.966 480.046,135.717 479.623,135.693C477.858,135.603 474.626,135.414 471.643,135.289C469.541,135.2 467.566,135.152 466.323,135.11C465.775,135.098 465.279,135.405 464.916,135.896C464.55,136.39 464.327,137.083 464.321,137.847C464.321,137.847 464.321,137.847 464.321,137.847C464.321,139.419 464.312,141.822 464.32,144.369C464.332,147.996 464.368,151.916 464.383,154.153C464.389,154.893 464.606,155.563 464.96,156.042C465.312,156.518 465.792,156.816 466.323,156.807C466.323,156.807 470.771,156.721 470.771,156.721C471.058,156.721 471.292,156.398 471.292,156C471.292,155.602 471.058,155.279 470.771,155.279L466.323,155.193C466.117,155.19 465.935,155.065 465.802,154.876C465.671,154.69 465.597,154.433 465.599,154.153C465.613,151.916 465.65,147.996 465.661,144.369C465.669,141.822 465.661,139.419 465.661,137.847C465.659,137.591 465.727,137.356 465.846,137.186C465.968,137.012 466.134,136.894 466.323,136.89C467.566,136.848 469.541,136.8 471.643,136.711C474.626,136.586 477.858,136.397 479.623,136.307C479.936,136.289 480.225,136.443 480.438,136.716C480.66,136.999 480.806,137.396 480.82,137.847C480.821,137.904 480.823,137.945 480.823,137.964L480.824,137.972Z"/>
                </g>
                <g transform="matrix(0.848664,0,0,0.363172,55.0863,98.4769)">
                    <path d="M481.055,140.204L480.988,138.859C480.988,138.834 480.973,138.813 480.954,138.813C480.936,138.813 480.921,138.834 480.921,138.859L480.854,140.204C480.854,140.28 480.899,140.343 480.954,140.343C481.01,140.343 481.055,140.28 481.055,140.204Z"/>
                </g>
                <g transform="matrix(0.329478,0,0,0.148052,306.137,130.872)">
                    <path d="M466.83,136.23C466.83,136.23 464.933,140.678 463.791,145.267C463.205,147.623 462.831,149.991 462.941,151.797C462.966,152.181 463.009,152.553 463.074,152.922C463.139,153.29 463.222,153.646 463.325,153.996C463.334,154.035 463.365,154.057 463.395,154.046C463.424,154.034 463.441,153.993 463.432,153.954C463.377,153.597 463.341,153.239 463.325,152.873C463.308,152.516 463.313,152.16 463.337,151.797C463.441,150.084 464.104,147.968 464.885,145.854C466.432,141.669 468.539,137.633 468.539,137.633C468.833,137.01 468.688,136.19 468.216,135.803C467.745,135.415 467.124,135.607 466.83,136.23Z"/>
                </g>
                <g transform="matrix(0.329478,0,0,0.148052,306.318,130.939)">
                    <path d="M482.238,155.766C482.559,155.184 482.814,154.571 483.011,153.913C483.213,153.239 483.333,152.536 483.392,151.797C483.473,150.59 483.33,149.092 483.022,147.476C482.853,146.59 482.632,145.678 482.372,144.77C481.009,140.013 478.82,135.363 478.82,135.363C478.549,134.786 477.975,134.608 477.538,134.965C477.101,135.323 476.967,136.081 477.237,136.658C477.237,136.658 479.327,141.136 480.904,145.587C481.276,146.637 481.637,147.668 481.925,148.656C482.262,149.813 482.528,150.872 482.592,151.797C482.645,152.459 482.634,153.105 482.555,153.747C482.473,154.413 482.334,155.054 482.129,155.684C482.112,155.723 482.122,155.774 482.152,155.797C482.182,155.819 482.221,155.806 482.238,155.766Z"/>
                </g>
                <g transform="matrix(0.408823,0,0,0.207576,270.283,122.169)">
                    <path d="M472.951,137.789L472.954,137.79L472.972,137.768C472.98,137.626 472.962,137.487 472.923,137.356C472.883,137.222 472.82,137.098 472.738,136.99C472.654,136.879 472.552,136.793 472.44,136.73C472.326,136.665 472.201,136.63 472.072,136.621C471.102,136.562 469.498,136.455 468.052,136.377C466.934,136.316 465.918,136.274 465.372,136.248C465.135,136.239 464.923,136.356 464.763,136.53C464.6,136.707 464.508,136.963 464.499,137.243L464.499,137.243C464.492,137.53 464.592,137.79 464.746,137.987C464.902,138.185 465.126,138.305 465.373,138.322C465.791,138.337 466.475,138.38 467.265,138.391C467.859,138.4 468.512,138.389 469.159,138.375C469.546,138.366 469.929,138.352 470.296,138.334C471.766,138.262 472.951,138.169 472.951,138.169C473.004,138.171 473.047,138.123 473.049,138.061C473.051,138 473.01,137.949 472.957,137.947C472.957,137.947 471.78,137.764 470.317,137.579C469.951,137.533 469.571,137.49 469.185,137.451C468.54,137.387 467.889,137.327 467.296,137.29C466.771,137.257 466.292,137.242 465.908,137.231C466.473,137.203 467.236,137.166 468.053,137.118C469.499,137.033 471.103,136.919 472.072,136.856C472.178,136.848 472.281,136.864 472.379,136.903C472.479,136.943 472.573,137.005 472.654,137.089C472.737,137.174 472.804,137.277 472.851,137.391C472.9,137.508 472.93,137.635 472.936,137.768L472.937,137.768L472.936,137.769C472.936,137.779 472.943,137.788 472.951,137.789Z"/>
                </g>
                <g transform="matrix(0.408823,0,0,0.207576,270.283,122.124)">
                    <path d="M465.436,132.161L466.983,133.382C467.241,133.561 467.563,133.557 467.817,133.37C468.07,133.182 468.213,132.845 468.185,132.496L468.084,130.996L469.943,130.889L469.938,130.855L469.97,130.853L469.951,132.592C469.935,132.868 470.063,133.128 470.277,133.247C470.49,133.367 470.744,133.321 470.917,133.134L472.017,131.772C472.056,131.723 472.098,131.675 472.151,131.667C472.212,131.657 472.278,131.65 472.333,131.69C472.333,131.69 472.596,131.876 472.596,131.876C472.835,132.047 473.006,132.299 473.073,132.593C473.145,132.909 473.128,133.255 472.983,133.562C472.983,133.562 471.752,136.199 471.752,136.199C471.743,136.216 471.747,136.238 471.761,136.249C471.775,136.259 471.794,136.255 471.803,136.238L473.364,133.852C473.633,133.44 473.719,132.939 473.673,132.46C473.624,131.959 473.398,131.495 473.041,131.148L472.805,130.919C472.601,130.721 472.346,130.645 472.095,130.643C471.838,130.642 471.589,130.766 471.377,130.966L471.283,131.056C471.283,131.056 471.293,130.964 471.293,130.964C471.318,130.743 471.286,130.523 471.234,130.313C471.181,130.101 471.076,129.911 470.952,129.738C470.825,129.565 470.662,129.44 470.489,129.343C470.315,129.245 470.122,129.205 469.925,129.197C469.925,129.197 467.184,129.119 467.184,129.119C466.954,129.122 466.735,129.238 466.581,129.438C466.427,129.638 466.352,129.904 466.373,130.171L466.443,130.951C466.443,130.951 465.902,130.62 465.902,130.62C465.767,130.539 465.625,130.478 465.479,130.491C465.333,130.504 465.184,130.534 465.062,130.638L464.846,130.824C464.637,131.004 464.448,131.211 464.317,131.467C464.189,131.717 464.086,131.986 464.05,132.281C464.019,132.569 464.016,132.856 464.081,133.13C464.144,133.396 464.232,133.655 464.381,133.876C464.381,133.876 465.913,136.101 465.913,136.101C465.96,136.19 466.061,136.217 466.137,136.161C466.213,136.105 466.236,135.988 466.188,135.899L465.138,133.321C465.087,133.2 465.077,133.068 465.07,132.936C465.064,132.813 465.098,132.695 465.134,132.576C465.165,132.465 465.23,132.376 465.294,132.289C465.333,132.235 465.383,132.196 465.436,132.161Z"/>
                </g>
                <g transform="matrix(0.37756,0,0,0.22409,247.266,113.413)">
                    <path d="M554.159,186.467L554.425,178.493C554.441,177.937 554.217,177.432 553.864,177.056C553.504,176.674 552.993,176.442 552.427,176.424L551.447,176.392C551.166,176.383 550.891,176.437 550.634,176.534C550.374,176.632 550.137,176.788 549.931,176.981C549.723,177.177 549.564,177.414 549.449,177.669C549.333,177.927 549.275,178.208 549.266,178.496L548.993,188.507C548.979,189.183 549.255,189.795 549.687,190.25C550.124,190.709 550.741,190.987 551.424,191.007L553.129,191.057C553.566,191.066 553.988,190.956 554.363,190.76C554.739,190.563 555.062,190.266 555.303,189.9C555.303,189.9 555.895,189.002 555.895,189.002L559.234,190.432C559.395,190.5 559.562,190.551 559.732,190.585C559.903,190.619 560.076,190.636 560.251,190.636C560.251,190.636 560.251,190.636 560.251,190.636C560.824,190.632 562.143,190.632 563.584,190.611C565.553,190.582 567.747,190.521 568.585,190.503C568.777,190.498 568.968,190.476 569.153,190.428C569.337,190.38 569.517,190.316 569.687,190.226L579.711,184.824C579.978,184.678 580.2,184.473 580.344,184.218C580.485,183.967 580.57,183.68 580.556,183.381L580.53,182.862C580.513,182.532 580.427,182.214 580.263,181.937C580.102,181.665 579.884,181.424 579.607,181.253C579.335,181.085 579.033,180.979 578.723,180.957C578.417,180.936 578.105,180.977 577.816,181.104C577.816,181.104 569.851,184.61 569.851,184.61C569.83,184.618 569.819,184.642 569.828,184.663C569.836,184.685 569.86,184.695 569.881,184.687L578.127,181.905C578.287,181.85 578.456,181.845 578.619,181.871C578.777,181.896 578.925,181.967 579.057,182.065C579.185,182.16 579.278,182.289 579.345,182.429C579.41,182.564 579.432,182.717 579.427,182.871L579.41,183.39C579.407,183.467 579.372,183.536 579.332,183.597C579.293,183.656 579.23,183.694 579.164,183.724L568.809,188.462L568.582,188.5C567.744,188.484 565.549,188.429 563.581,188.407C562.14,188.39 560.821,188.395 560.247,188.392C560.247,188.392 560.101,188.364 560.101,188.364C560.101,188.364 555.909,186.644 555.909,186.644C555.422,186.44 554.858,186.615 554.574,187.06L553.519,188.757C553.479,188.822 553.428,188.879 553.364,188.915C553.298,188.952 553.225,188.979 553.147,188.979L551.441,188.999C551.302,189.001 551.171,188.96 551.078,188.87C550.981,188.777 550.907,188.652 550.904,188.506C550.904,188.506 550.629,178.496 550.629,178.496C550.625,178.387 550.636,178.277 550.674,178.177C550.713,178.074 550.765,177.975 550.842,177.893C550.92,177.81 551.009,177.738 551.112,177.691C551.216,177.644 551.328,177.61 551.445,177.607C551.445,177.607 552.426,177.577 552.426,177.577C552.684,177.57 552.926,177.656 553.101,177.82C553.283,177.991 553.409,178.226 553.418,178.495C553.418,178.495 553.719,186.468 553.719,186.468C553.719,186.59 553.818,186.688 553.939,186.688C554.061,186.688 554.159,186.589 554.159,186.467Z"/>
                </g>
                <g transform="matrix(0.37756,0,0,0.22409,247.266,113.413)">
                    <path d="M568.513,184.495L563.507,184.859C563.443,184.86 563.391,184.914 563.392,184.978C563.393,185.043 563.447,185.095 563.511,185.094L568.807,185.297C568.963,185.302 569.1,185.229 569.207,185.131C569.315,185.032 569.37,184.886 569.378,184.728L569.379,184.709C569.421,183.674 569.044,182.716 568.404,181.993C567.752,181.256 566.813,180.783 565.759,180.696C565.759,180.696 563.477,180.577 563.477,180.577C562.765,180.563 562.062,180.458 561.379,180.274C560.687,180.088 560.015,179.833 559.382,179.484C558.565,179.042 557.589,178.578 556.654,178.321C555.936,178.124 555.253,178.045 554.695,178.182C554.683,178.184 554.674,178.196 554.676,178.208C554.678,178.22 554.69,178.228 554.702,178.226C555.251,178.177 555.886,178.353 556.542,178.64C557.396,179.013 558.269,179.577 558.991,180.105C558.991,180.105 558.991,180.105 558.992,180.105C559.64,180.565 560.34,180.938 561.079,181.213C561.826,181.492 562.611,181.657 563.41,181.734L565.691,181.879C566.45,181.905 567.132,182.221 567.635,182.72C568.104,183.186 568.432,183.8 568.513,184.495Z"/>
                </g>
                <g transform="matrix(-0.00196325,0.279917,-0.401652,-0.00136822,485.558,14.3582)">
                    <path d="M491.33,59.998C491.33,59.998 491.327,58.498 491.268,56.798C491.191,54.566 491.029,51.999 491.029,51.999C491.028,51.907 490.964,51.832 490.885,51.832C490.806,51.832 490.742,51.908 490.743,52.001C490.743,52.001 490.605,54.569 490.55,56.802C490.508,58.502 490.519,60.002 490.519,60.002C490.52,60.265 490.703,60.477 490.927,60.476C491.151,60.475 491.332,60.261 491.33,59.998Z"/>
                </g>
                <g transform="matrix(-0.00116644,0.166308,-0.238635,-0.000812907,476.264,70.7595)">
                    <path d="M491.607,59.997C491.607,59.997 491.607,58.496 491.513,56.797C491.39,54.556 491.126,51.999 491.126,51.999C491.126,51.843 491.017,51.717 490.884,51.717C490.751,51.718 490.644,51.845 490.645,52.001C490.645,52.001 490.406,54.561 490.305,56.803C490.228,58.502 490.242,60.003 490.242,60.003C490.244,60.446 490.552,60.804 490.929,60.802C491.305,60.8 491.61,60.439 491.607,59.997Z"/>
                </g>
                <g transform="matrix(0.457234,0,0,0.271378,144.188,116.101)">
                    <path d="M694.833,131.246C694.83,131.227 694.829,131.212 694.822,131.214C694.788,131.224 694.804,131.236 694.833,131.246C694.834,131.253 694.836,131.262 694.838,131.27C694.867,131.368 694.916,131.566 694.989,131.836C695.096,132.228 695.215,132.743 695.31,133.277C695.369,133.606 695.406,133.932 695.408,134.231C695.409,134.464 695.395,134.672 695.273,134.81C695.168,134.93 694.987,134.957 694.717,134.947C694.333,134.933 693.835,134.841 693.195,134.62C692.996,134.54 692.768,134.596 692.629,134.76C692.49,134.924 692.473,135.158 692.585,135.341C693.079,136.034 693.639,136.73 694.203,137.366C695.578,138.916 696.901,140.105 696.901,140.105C696.91,140.115 696.924,140.115 696.934,140.106C696.943,140.098 696.943,140.083 696.935,140.074C696.935,140.074 696.06,138.967 695.067,137.501C694.751,137.034 694.424,136.534 694.113,136.021C694.455,136.109 694.746,136.144 694.991,136.14C695.561,136.131 695.947,135.915 696.202,135.623C696.424,135.368 696.561,135.033 696.583,134.645C696.605,134.277 696.545,133.854 696.404,133.432C696.288,133.082 696.136,132.734 695.959,132.416C695.782,132.097 695.598,131.821 695.434,131.597C695.27,131.371 695.14,131.217 695.075,131.14C695.056,131.117 695.043,131.102 695.037,131.095C694.999,131.051 694.973,131.073 694.957,131.114C694.959,131.023 694.909,131.019 694.867,131.043C694.809,131.075 694.788,131.149 694.82,131.208L694.926,131.27C694.926,131.27 694.869,131.259 694.833,131.246Z"/>
                </g>
            </g>
        </g>
    </g>
</svg>
