<?xml version="1.0" encoding="UTF-8" standalone="no"?>
<!DOCTYPE svg PUBLIC "-//W3C//DTD SVG 1.1//EN" "http://www.w3.org/Graphics/SVG/1.1/DTD/svg11.dtd">
<svg width="100%" height="100%" viewBox="0 0 25 31" version="1.1" xmlns="http://www.w3.org/2000/svg" xmlns:xlink="http://www.w3.org/1999/xlink" xml:space="preserve" xmlns:serif="http://www.serif.com/" style="fill-rule:evenodd;clip-rule:evenodd;stroke-linejoin:round;stroke-miterlimit:2;">
    <g transform="matrix(1,0,0,1,-755,-1843)">
        <g id="ic_user_name" transform="matrix(1.00253,0,0,1.00125,-1.93341,-2.30437)">
            <rect x="756" y="1844" width="23.588" height="29.748" style="fill:none;"/>
            <g id="ic_user_name1" serif:id="ic_user_name" transform="matrix(1.76511,0,0,2.97778,-135.939,1409.77)">
                <g transform="matrix(0.781956,0,0,0.470465,142.29,82.1215)">
                    <path d="M480.814,137.956C480.813,137.963 480.813,137.97 480.813,137.977C480.813,138.054 480.876,138.117 480.954,138.117C480.954,138.117 481.093,138.077 481.098,137.922C481.101,137.834 481.108,137.648 481.116,137.426C481.123,137.214 481.086,137.006 481.012,136.812C480.937,136.615 480.821,136.434 480.673,136.277C480.523,136.119 480.343,135.995 480.147,135.907C479.948,135.818 479.731,135.77 479.509,135.763C477.726,135.709 474.579,135.603 471.665,135.527C469.618,135.473 467.689,135.437 466.436,135.408C466.164,135.404 465.898,135.456 465.65,135.553C465.4,135.649 465.172,135.798 464.976,135.985C464.778,136.173 464.626,136.399 464.519,136.642C464.411,136.887 464.355,137.154 464.351,137.426C464.333,139.266 464.272,142.633 464.269,146C464.266,149.367 464.322,152.734 464.337,154.574C464.34,154.848 464.396,155.117 464.504,155.364C464.611,155.61 464.764,155.838 464.962,156.028C465.16,156.218 465.39,156.368 465.641,156.467C465.892,156.566 466.161,156.619 466.436,156.616C466.436,156.616 479.509,156.398 479.509,156.398C479.753,156.394 479.993,156.344 480.212,156.25C480.431,156.156 480.633,156.022 480.801,155.849C480.969,155.677 481.101,155.478 481.188,155.26C481.274,155.044 481.32,154.811 481.315,154.574L480.981,138.859C480.981,138.845 480.969,138.833 480.954,138.833C480.94,138.833 480.928,138.845 480.928,138.859L480.594,154.574C480.591,154.715 480.557,154.852 480.501,154.979C480.445,155.105 480.363,155.219 480.261,155.316C480.159,155.412 480.04,155.484 479.912,155.533C479.785,155.582 479.648,155.604 479.509,155.602L466.436,155.384C466.328,155.383 466.223,155.357 466.125,155.316C466.028,155.275 465.941,155.212 465.866,155.137C465.792,155.061 465.737,154.971 465.698,154.876C465.66,154.781 465.644,154.678 465.645,154.574C465.645,154.574 465.645,154.574 465.645,154.574C465.66,152.734 465.715,149.367 465.713,146C465.71,142.633 465.649,139.266 465.631,137.426C465.629,137.32 465.645,137.215 465.683,137.118C465.722,137.02 465.777,136.927 465.853,136.85C465.929,136.772 466.017,136.707 466.117,136.664C466.217,136.621 466.325,136.594 466.436,136.592C466.436,136.592 466.436,136.592 466.436,136.592C467.689,136.563 469.618,136.527 471.665,136.473C474.579,136.397 477.726,136.291 479.509,136.237C479.67,136.232 479.829,136.255 479.978,136.31C480.128,136.365 480.269,136.448 480.389,136.558C480.511,136.67 480.609,136.802 480.677,136.949C480.746,137.098 480.787,137.259 480.793,137.426C480.801,137.648 480.807,137.834 480.811,137.922C480.811,137.934 480.812,137.945 480.814,137.956Z"/>
                </g>
                <g transform="matrix(-0.120924,0.041933,0.0708218,0.0719443,579.476,108.964)">
                    <path d="M662.799,159.473C667.836,159.057 672.158,160.883 675.479,163.899C678.996,167.093 681.008,171.755 681.596,176.731C681.597,176.761 681.597,176.792 681.597,176.822C681.847,182.447 679.687,187.552 676.012,191.255C674.169,193.112 671.905,194.582 669.419,195.58C667.041,196.535 664.45,197.064 661.77,197.096C661.707,197.099 661.644,197.101 661.581,197.101C656.072,196.794 651.126,194.474 647.74,190.636C644.495,186.958 642.547,182.1 642.907,176.823C643.234,172.073 645.19,167.808 648.482,164.768C651.518,161.963 655.558,160.181 660.208,160.114C660.29,160.106 660.363,160.166 660.371,160.248C660.379,160.329 660.319,160.402 660.237,160.41C656.001,161.164 652.544,163.325 650.179,166.329C647.906,169.217 646.794,172.896 647.132,176.804C647.132,176.81 647.132,176.817 647.132,176.823C647.396,180.699 649.291,184.025 651.99,186.412C654.532,188.66 657.929,189.871 661.581,189.668L661.391,189.673C663.13,189.516 664.76,188.982 666.279,188.288C667.816,187.588 669.192,186.63 670.397,185.502C672.779,183.272 674.533,180.342 674.687,176.824C674.921,173.292 674.011,169.77 672.01,166.972C669.871,163.983 666.825,161.714 662.737,161.051C662.3,161.034 661.96,160.666 661.977,160.231C661.994,159.795 662.362,159.456 662.799,159.473Z"/>
                </g>
                <g transform="matrix(-0.376875,0.00127471,0.00214771,0.223684,735.229,124.542)">
                    <path d="M601.122,125.488C599.796,123.911 598.514,122.769 597.306,121.934C595.615,120.764 594.066,120.331 592.636,120.351C591.807,120.362 591.022,120.518 590.278,120.792C589.465,121.092 588.698,121.502 587.984,121.984C586.325,123.104 584.919,124.519 583.956,125.706L585.142,125.814L587.861,126.106C588.024,126.104 588.156,126.235 588.158,126.397C588.159,126.56 588.028,126.693 587.866,126.694L585.15,127.025L583.736,127.172C583.719,127.172 583.702,127.171 583.685,127.17C583.414,127.179 583.164,127.079 582.933,126.955C582.696,126.828 582.523,126.613 582.377,126.377C582.227,126.134 582.189,125.854 582.181,125.578C582.173,125.297 582.28,125.028 582.419,124.771C582.421,124.769 582.422,124.766 582.424,124.764C582.96,123.825 583.661,122.733 584.547,121.677C585.358,120.71 586.322,119.797 587.412,119.059C588.93,118.029 590.704,117.359 592.623,117.352C593.913,117.348 595.28,117.651 596.675,118.368C598.707,119.414 600.844,121.357 602.98,124.59C603.136,124.829 603.259,125.097 603.283,125.384C603.306,125.666 603.289,125.957 603.171,126.225C603.054,126.488 602.898,126.73 602.676,126.9C602.456,127.068 602.209,127.206 601.927,127.25C601.869,127.263 601.809,127.27 601.748,127.271L588.996,126.449C588.965,126.449 588.941,126.424 588.941,126.393C588.941,126.363 588.966,126.338 588.996,126.338L601.122,125.488ZM583.867,125.698L583.728,125.685L583.778,125.686L583.845,125.653L583.867,125.698Z"/>
                </g>
            </g>
        </g>
    </g>
</svg>
