<?xml version="1.0" encoding="UTF-8" standalone="no"?>
<!DOCTYPE svg PUBLIC "-//W3C//DTD SVG 1.1//EN" "http://www.w3.org/Graphics/SVG/1.1/DTD/svg11.dtd">
<svg width="100%" height="100%" viewBox="0 0 33 32" version="1.1" xmlns="http://www.w3.org/2000/svg" xmlns:xlink="http://www.w3.org/1999/xlink" xml:space="preserve" xmlns:serif="http://www.serif.com/" style="fill-rule:evenodd;clip-rule:evenodd;stroke-linejoin:round;stroke-miterlimit:2;">
    <g transform="matrix(1,0,0,1,-935,-1957)">
        <g id="import" transform="matrix(1.00081,0,0,1.00049,-0.770728,-0.711884)">
            <rect x="935.807" y="1957.25" width="31.467" height="30.798" style="fill:none;"/>
            <g id="import1" serif:id="import" transform="matrix(1.76814,0,0,2.98003,94.9439,1487.97)">
                <g transform="matrix(0.42269,-2.08276e-32,4.6098e-32,-0.273797,137.539,184.045)">
                    <path d="M808.714,79.799C808.714,79.799 811.797,76.117 814.776,72.731C815.488,71.921 816.197,71.139 816.856,70.425C817.688,69.523 818.442,68.743 818.989,68.163C819.24,67.909 819.545,67.712 819.879,67.574C820.214,67.437 820.58,67.366 820.954,67.364C821.329,67.367 821.695,67.437 822.029,67.575C822.363,67.713 822.668,67.91 822.918,68.165C823.881,69.216 825.492,70.921 827.114,72.746C830.111,76.118 833.194,79.799 833.194,79.799C833.316,79.92 833.307,80.109 833.174,80.22C833.042,80.331 832.836,80.323 832.714,80.201C832.714,80.201 828.981,77.066 825.577,74.037C823.734,72.397 822.021,70.777 820.962,69.807C820.962,69.807 820.954,69.813 820.954,69.813L820.948,69.808C820.366,70.358 819.584,71.114 818.675,71.952C817.957,72.616 817.168,73.332 816.35,74.052C812.928,77.067 809.194,80.201 809.194,80.201C809.073,80.323 808.867,80.331 808.735,80.22C808.602,80.109 808.593,79.92 808.714,79.799Z"/>
                </g>
                <g transform="matrix(0.478978,2.36011e-32,5.22367e-32,0.310257,91.329,135.477)">
                    <path d="M819.756,72C819.756,72 819.744,75.75 819.894,80C820.09,85.579 820.532,92 820.532,92C820.532,92.214 820.721,92.387 820.954,92.387C821.188,92.387 821.377,92.214 821.377,92C821.377,92 821.819,85.579 822.015,80C822.165,75.75 822.153,72 822.153,72C822.153,71.394 821.616,70.902 820.954,70.902C820.293,70.902 819.756,71.394 819.756,72Z"/>
                </g>
                <g transform="matrix(5.53805e-17,-0.5368,0.844131,3.0678e-17,361.305,417.08)">
                    <path d="M480.183,139.991L480.268,137.67C480.277,137.417 480.236,137.169 480.155,136.936C480.074,136.7 479.947,136.484 479.784,136.296C479.619,136.107 479.42,135.96 479.204,135.855C478.985,135.749 478.747,135.693 478.502,135.684C476.8,135.63 473.967,135.524 471.331,135.456C469.486,135.409 467.741,135.386 466.549,135.363C465.953,135.356 465.412,135.614 465.018,136.029C464.621,136.446 464.378,137.027 464.374,137.67C464.378,139.228 464.369,141.702 464.393,144.334C464.426,148.069 464.51,152.12 464.543,154.33C464.553,154.921 464.779,155.454 465.147,155.833C465.51,156.208 466.005,156.44 466.549,156.428C466.549,156.428 478.502,156.145 478.502,156.145C478.726,156.139 478.944,156.088 479.145,155.993C479.344,155.898 479.526,155.764 479.68,155.592C479.831,155.421 479.949,155.222 480.027,155.007C480.104,154.793 480.142,154.564 480.137,154.33C480.137,154.33 480.084,152.009 480.084,152.009C480.084,151.995 480.073,151.984 480.061,151.984C480.048,151.984 480.038,151.995 480.038,152.009L479.984,154.33C479.98,154.54 479.935,154.744 479.858,154.932C479.781,155.118 479.669,155.287 479.529,155.43C479.39,155.572 479.228,155.68 479.052,155.753C478.879,155.825 478.692,155.86 478.502,155.855C478.502,155.855 466.549,155.572 466.549,155.572C466.233,155.565 465.951,155.415 465.748,155.189C465.549,154.967 465.433,154.662 465.439,154.33C465.472,152.12 465.555,148.069 465.589,144.334C465.612,141.702 465.604,139.228 465.608,137.67C465.606,137.39 465.707,137.135 465.877,136.949C466.049,136.762 466.285,136.64 466.549,136.637C467.741,136.614 469.486,136.591 471.331,136.544C473.967,136.476 476.8,136.37 478.502,136.316C478.671,136.31 478.838,136.337 478.994,136.399C479.151,136.463 479.299,136.556 479.424,136.682C479.552,136.809 479.657,136.959 479.729,137.125C479.802,137.295 479.847,137.479 479.854,137.67L479.938,139.991C479.938,140.064 479.993,140.122 480.061,140.122C480.128,140.122 480.183,140.064 480.183,139.991Z"/>
                </g>
            </g>
        </g>
    </g>
</svg>
