<?xml version="1.0" encoding="UTF-8" standalone="no"?>
<!DOCTYPE svg PUBLIC "-//W3C//DTD SVG 1.1//EN" "http://www.w3.org/Graphics/SVG/1.1/DTD/svg11.dtd">
<svg width="100%" height="100%" viewBox="0 0 33 27" version="1.1" xmlns="http://www.w3.org/2000/svg" xmlns:xlink="http://www.w3.org/1999/xlink" xml:space="preserve" xmlns:serif="http://www.serif.com/" style="fill-rule:evenodd;clip-rule:evenodd;stroke-linejoin:round;stroke-miterlimit:2;">
    <g transform="matrix(1,0,0,1,-600,-1543)">
        <g id="ic_accounts_assets" transform="matrix(1.00069,0,0,1.00149,-0.422021,-5.47878)">
            <rect x="600.954" y="1547.01" width="31.108" height="25.969" style="fill:none;"/>
            <g transform="matrix(1.76836,0,0,2.97704,-156.38,1237.45)">
                <g transform="matrix(0.283278,3.0225e-17,-2.11575e-16,0.175475,269.076,93.3628)">
                    <path d="M564.031,96.331C565.548,96.821 566.92,97.524 568.218,98.351C568.987,98.841 569.704,99.382 570.396,99.96C570.853,100.342 571.286,100.745 571.718,101.152C572.149,101.558 572.571,101.971 572.981,102.398C573.396,102.83 573.807,103.256 574.192,103.714C574.66,104.271 575.099,104.836 575.507,105.441C576.129,106.363 576.677,107.303 577.119,108.341C577.124,108.359 577.144,108.371 577.164,108.366C577.184,108.361 577.196,108.342 577.191,108.323C577.063,107.173 576.829,106.081 576.457,105.005C576.201,104.268 575.882,103.571 575.509,102.888C575.195,102.312 574.845,101.763 574.444,101.242C574.043,100.72 573.593,100.232 573.106,99.784C572.619,99.335 572.089,98.931 571.534,98.56C570.981,98.191 570.407,97.856 569.803,97.565C568.041,96.718 566.133,96.188 564.116,95.965C564.01,95.942 563.906,96.006 563.883,96.107C563.859,96.208 563.926,96.309 564.031,96.331Z"/>
                </g>
                <g transform="matrix(-0.283278,3.0225e-17,2.11575e-16,0.175475,605.13,93.3628)">
                    <path d="M564.116,95.965C566.133,96.188 568.041,96.718 569.803,97.565C570.407,97.856 570.981,98.191 571.534,98.56C572.089,98.931 572.619,99.335 573.106,99.784C573.593,100.232 574.043,100.72 574.444,101.242C574.845,101.763 575.195,102.312 575.509,102.888C575.882,103.571 576.201,104.268 576.457,105.005C576.829,106.081 577.063,107.173 577.191,108.323C577.196,108.342 577.184,108.361 577.164,108.366C577.144,108.371 577.124,108.359 577.119,108.341C576.677,107.303 576.129,106.363 575.507,105.441C575.099,104.836 574.66,104.271 574.192,103.714C573.807,103.256 573.396,102.83 572.981,102.398C572.571,101.971 572.149,101.558 571.718,101.152C571.286,100.745 570.853,100.342 570.396,99.96C569.704,99.382 568.987,98.841 568.218,98.351C566.92,97.524 565.548,96.821 564.031,96.331C563.926,96.309 563.859,96.208 563.883,96.107C563.906,96.006 564.01,95.942 564.116,95.965Z"/>
                </g>
                <g transform="matrix(0.615047,0,0,0.325904,148.68,48.5805)">
                    <path d="M479.207,179.984L455.817,179.625C455.656,179.622 455.499,179.658 455.352,179.723C455.205,179.789 455.07,179.889 454.954,180.015C454.838,180.142 454.749,180.293 454.686,180.457C454.623,180.621 454.59,180.8 454.588,180.982L454.588,180.982C454.584,181.364 454.722,181.709 454.942,181.963C455.164,182.218 455.474,182.373 455.817,182.378C455.817,182.378 465.862,182.453 465.862,182.453C466.103,182.453 466.298,182.234 466.298,181.964C466.298,181.694 466.103,181.475 465.862,181.475L455.817,181.55C455.676,181.552 455.547,181.493 455.453,181.39C455.358,181.286 455.295,181.143 455.293,180.982L455.293,180.982C455.293,180.904 455.304,180.827 455.329,180.755C455.355,180.684 455.392,180.616 455.441,180.56C455.49,180.503 455.548,180.457 455.612,180.426C455.676,180.395 455.746,180.377 455.817,180.376L479.207,180.019C479.216,180.019 479.223,180.011 479.223,180.002C479.223,179.992 479.216,179.984 479.207,179.984Z"/>
                </g>
                <g transform="matrix(0.615047,0,0,0.325904,148.68,48.5805)">
                    <path d="M472.07,182.457C472.07,182.457 475.222,182.451 478.132,182.388C479.748,182.352 481.287,182.286 482.173,182.258C482.456,182.248 482.712,182.117 482.891,181.903C483.068,181.693 483.178,181.41 483.17,181.099L483.163,180.866C483.159,180.72 483.131,180.577 483.078,180.446C483.026,180.316 482.953,180.197 482.859,180.098C482.765,180 482.658,179.922 482.54,179.873C482.423,179.824 482.299,179.798 482.172,179.803L479.673,179.899C479.622,179.899 479.58,179.946 479.58,180.004C479.58,180.061 479.622,180.108 479.673,180.108L482.173,180.199C482.251,180.202 482.327,180.224 482.397,180.26C482.466,180.295 482.527,180.347 482.58,180.41C482.632,180.472 482.669,180.546 482.695,180.624C482.721,180.7 482.731,180.783 482.729,180.866C482.729,180.866 482.722,181.099 482.722,181.099C482.717,181.266 482.649,181.412 482.548,181.518C482.451,181.62 482.317,181.676 482.173,181.67C481.287,181.642 479.748,181.576 478.132,181.54C475.222,181.477 472.07,181.471 472.07,181.471C471.827,181.471 471.63,181.692 471.63,181.964C471.63,182.236 471.827,182.457 472.07,182.457Z"/>
                </g>
                <g transform="matrix(0.686456,0,0,0.365243,-104.48,7.89698)">
                    <path d="M776.793,273.752L776.4,285.089C776.386,285.516 776.544,285.903 776.786,286.193C777.033,286.487 777.386,286.66 777.776,286.674C778.857,286.709 780.908,286.793 783.364,286.852C785.093,286.893 787.022,286.938 788.952,286.942C790.475,286.946 791.998,286.924 793.423,286.89C796.366,286.82 798.886,286.696 800.129,286.651C800.31,286.643 800.487,286.605 800.648,286.521C800.807,286.439 800.957,286.33 801.078,286.183C801.198,286.037 801.297,285.874 801.357,285.692C801.416,285.511 801.451,285.32 801.444,285.125C801.444,285.125 800.985,274.803 800.985,274.803C800.985,274.784 800.971,274.769 800.954,274.769C800.938,274.769 800.924,274.784 800.924,274.803L800.465,285.125C800.463,285.173 800.445,285.218 800.426,285.261C800.409,285.303 800.378,285.335 800.347,285.366C800.318,285.396 800.279,285.411 800.242,285.426C800.207,285.44 800.169,285.437 800.131,285.435C800.131,285.435 800.131,285.435 800.131,285.435C798.887,285.386 796.368,285.254 793.425,285.174C792,285.136 790.477,285.109 788.954,285.108C787.025,285.106 785.096,285.144 783.366,285.18C780.91,285.231 778.859,285.309 777.777,285.339C777.777,285.339 777.777,285.339 777.777,285.339C777.712,285.342 777.648,285.328 777.604,285.282C777.555,285.232 777.511,285.168 777.508,285.089C777.508,285.089 777.116,273.752 777.116,273.752C777.116,273.653 777.043,273.572 776.954,273.572C776.865,273.572 776.793,273.653 776.793,273.752Z"/>
                </g>
                <g transform="matrix(-0.686456,1.56182e-17,2.93536e-17,-0.237711,978.686,172.317)">
                    <path d="M776.793,274.482L776.611,280.367C776.562,282.117 776.95,283.719 777.588,284.921C778.246,286.162 779.189,286.931 780.244,287.017C781.695,287.104 783.512,287.243 785.468,287.331C786.598,287.382 787.774,287.428 788.95,287.434C790.127,287.44 791.303,287.415 792.433,287.364C794.39,287.276 796.205,287.099 797.658,286.997C798.165,286.95 798.657,286.752 799.105,286.382C799.546,286.02 799.95,285.527 800.282,284.891C800.605,284.263 800.855,283.551 801.01,282.774C801.162,282.015 801.235,281.212 801.204,280.395C801.204,280.395 800.985,274.803 800.985,274.803C800.985,274.774 800.971,274.751 800.954,274.751C800.938,274.751 800.924,274.774 800.924,274.803L800.704,280.395C800.679,281.08 800.569,281.734 800.396,282.338C800.228,282.926 799.988,283.445 799.696,283.885C799.413,284.317 799.084,284.63 798.733,284.84C798.392,285.044 798.027,285.117 797.659,285.081C796.206,284.974 794.391,284.791 792.435,284.697C791.304,284.642 790.128,284.614 788.952,284.616C787.776,284.618 786.6,284.661 785.469,284.708C783.513,284.789 781.696,284.922 780.245,285.005C779.48,285.065 778.772,284.609 778.248,283.791C777.7,282.936 777.336,281.735 777.298,280.367C777.298,280.367 777.116,274.482 777.116,274.482C777.116,274.33 777.043,274.206 776.954,274.206C776.865,274.206 776.793,274.33 776.793,274.482Z"/>
                </g>
                <g transform="matrix(0.421971,0,0,0.299821,104.187,25.6919)">
                    <path d="M784.823,272L784.443,277.623C784.406,278.381 784.752,279.076 785.323,279.594C785.906,280.123 786.741,280.448 787.667,280.481L790.137,280.515C790.594,280.509 791.042,280.436 791.451,280.284C791.856,280.134 792.228,279.921 792.537,279.646C792.838,279.372 793.077,279.06 793.225,278.716C793.369,278.379 793.443,278.02 793.419,277.655C793.419,277.655 792.979,272.62 792.979,272.62C792.979,272.608 792.968,272.599 792.954,272.599C792.941,272.599 792.93,272.608 792.93,272.62L792.49,277.655C792.473,277.909 792.385,278.152 792.255,278.377C792.128,278.596 791.944,278.79 791.722,278.955C791.507,279.118 791.253,279.233 790.985,279.313C790.723,279.392 790.441,279.424 790.157,279.413C790.157,279.413 787.687,279.384 787.687,279.384C787.103,279.39 786.569,279.205 786.176,278.893C785.768,278.57 785.49,278.128 785.466,277.623L785.086,272C785.086,271.939 785.027,271.89 784.954,271.89C784.882,271.89 784.823,271.939 784.823,272Z"/>
                </g>
                <g transform="matrix(0.615384,0,0,0.370489,-48.3486,6.50828)">
                    <path d="M778.507,270.368L778.506,270.368L778.901,270.375C779.55,270.388 780.909,270.423 782.634,270.458C783.581,270.477 784.638,270.496 785.747,270.51C786.755,270.524 787.807,270.536 788.859,270.54C789.555,270.543 790.251,270.541 790.934,270.536C791.644,270.529 792.34,270.518 793.009,270.504C796.498,270.433 799.234,270.345 799.234,270.345L799.055,270.271C799.056,270.273 799.463,270.397 799.488,270.094C799.492,270.045 799.499,269.944 799.503,269.801C799.518,269.251 799.49,268.08 799.075,266.971C798.721,266.024 798.09,265.122 796.961,264.704C796.952,264.7 796.942,264.704 796.939,264.713C796.935,264.721 796.939,264.731 796.948,264.735C797.78,265.118 798.293,265.766 798.605,266.484C799.127,267.681 799.083,269.067 799.026,269.712C799.022,269.759 799.018,269.803 799.013,269.841C798.296,269.818 795.913,269.742 793.01,269.678C792.341,269.663 791.645,269.651 790.935,269.644C790.251,269.637 789.556,269.635 788.86,269.636C787.808,269.639 786.756,269.651 785.747,269.663C784.638,269.678 783.581,269.696 782.634,269.716C780.908,269.751 779.547,269.79 778.898,269.81C778.843,269.811 778.793,269.813 778.747,269.815C778.683,268.213 778.899,267.165 779.235,266.455C779.753,265.361 780.548,265.075 781,264.796C781.043,264.771 781.057,264.717 781.032,264.675C781.007,264.632 780.952,264.618 780.909,264.643C780.411,264.91 779.554,265.175 778.935,266.306C778.514,267.075 778.208,268.247 778.209,270.105C778.211,270.192 778.257,270.273 778.33,270.322C778.383,270.357 778.445,270.373 778.507,270.368Z"/>
                </g>
                <g transform="matrix(0.332442,0,0,0.182622,197.203,77.8238)">
                    <ellipse cx="721.63" cy="166" rx="1.851" ry="2"/>
                </g>
                <g transform="matrix(0.615384,0,0,0.435563,-22.1324,38.9322)">
                    <rect x="745.906" y="159.062" width="0.704" height="2.034"/>
                </g>
            </g>
        </g>
    </g>
</svg>
