<?xml version="1.0" encoding="UTF-8" standalone="no"?>
<!DOCTYPE svg PUBLIC "-//W3C//DTD SVG 1.1//EN" "http://www.w3.org/Graphics/SVG/1.1/DTD/svg11.dtd">
<svg width="100%" height="100%" viewBox="0 0 33 32" version="1.1" xmlns="http://www.w3.org/2000/svg" xmlns:xlink="http://www.w3.org/1999/xlink" xml:space="preserve" xmlns:serif="http://www.serif.com/" style="fill-rule:evenodd;clip-rule:evenodd;stroke-linejoin:round;stroke-miterlimit:2;">
    <g transform="matrix(1,0,0,1,-592,-1957)">
        <g id="memes" transform="matrix(0.96808,0,0,0.966644,18.8956,67.118)">
            <rect x="592.49" y="1955.26" width="32.69" height="32.561" style="fill:none;"/>
            <g id="meme" transform="matrix(1.82792,0,0,3.08437,-343.544,1436.25)">
                <g>
                    <g transform="matrix(-0.0731159,-5.47785e-18,6.87002e-16,0.0595066,567.298,165.019)">
                        <path d="M662.809,159.71C667.338,159.558 671.305,161.02 674.523,163.532C676.627,165.174 678.297,167.296 679.534,169.764C680.593,171.88 681.191,174.252 681.465,176.788C681.715,180.045 681.062,183.135 679.686,185.832C678.619,187.925 677.097,189.78 675.276,191.292C671.588,194.354 666.707,196.069 661.581,195.975C656.546,195.816 651.912,194.017 648.559,190.861C644.865,187.384 642.6,182.365 643.009,176.823C643.453,171.593 645.639,167.198 649.069,164.244C651.909,161.799 655.516,160.336 659.592,160.261C659.67,160.256 659.74,160.298 659.747,160.355C659.754,160.413 659.696,160.463 659.618,160.469C655.869,160.899 652.764,162.538 650.539,165.04C647.928,167.977 646.628,172.093 647.03,176.823C647.311,180.582 648.983,183.937 651.438,186.501C654.026,189.205 657.615,190.923 661.581,190.793C663.466,190.749 665.195,190.197 666.774,189.396C668.373,188.586 669.765,187.46 670.944,186.124C672.075,184.842 673.015,183.378 673.669,181.762C674.288,180.232 674.742,178.594 674.819,176.858C675.001,174.263 674.677,171.841 673.886,169.682C673.283,168.039 672.515,166.552 671.416,165.286C669.326,162.879 666.441,161.233 662.727,160.814C662.309,160.797 661.988,160.537 662.011,160.232C662.033,159.927 662.391,159.693 662.809,159.71Z"/>
                    </g>
                    <g transform="matrix(0.928973,-0.310606,-0.620267,-0.42728,168.864,386.226)">
                        <path d="M472.802,147.499L471.869,148.143C471.869,148.143 473.709,151.022 473.709,151.022C473.745,151.073 473.742,151.14 473.703,151.171C473.663,151.201 473.602,151.185 473.566,151.133L471.322,148.172C471.276,148.105 471.252,148.026 471.257,147.951C471.261,147.876 471.293,147.813 471.346,147.775L472.447,146.961C472.562,146.878 472.735,146.932 472.834,147.081C472.932,147.229 472.918,147.417 472.802,147.499Z"/>
                    </g>
                    <g transform="matrix(0.928973,-0.310606,-0.620267,-0.42728,175.049,386.226)">
                        <path d="M472.802,147.499L471.869,148.143C471.869,148.143 473.709,151.022 473.709,151.022C473.745,151.073 473.742,151.14 473.703,151.171C473.663,151.201 473.602,151.185 473.566,151.133L471.322,148.172C471.276,148.105 471.252,148.026 471.257,147.951C471.261,147.876 471.293,147.813 471.346,147.775L472.447,146.961C472.562,146.878 472.735,146.932 472.834,147.081C472.932,147.229 472.918,147.417 472.802,147.499Z"/>
                    </g>
                </g>
                <g>
                    <g transform="matrix(-0.469039,-0.0304495,0.0480346,-0.260649,895.441,268.324)">
                        <path d="M828.258,266.575C828.848,267.219 829.125,268.037 829.102,268.844C829.081,269.624 828.756,270.385 828.152,270.956C828.019,271.093 827.976,271.302 828.045,271.486C828.113,271.669 828.278,271.791 828.463,271.793C829.261,271.838 829.967,272.207 830.478,272.757C830.977,273.295 831.265,274.025 831.237,274.816C831.211,275.578 830.86,276.245 830.344,276.722C829.849,277.18 829.179,277.431 828.458,277.412C828.11,277.416 827.8,277.644 827.672,277.989C827.544,278.335 827.623,278.728 827.874,278.986C828.336,279.49 828.538,280.142 828.512,280.781C828.488,281.399 828.211,281.997 827.728,282.455C827.235,282.925 826.595,283.133 825.965,283.125C825.35,283.118 824.742,282.872 824.279,282.402C823.952,282.082 823.478,281.996 823.07,282.185C822.662,282.373 822.396,282.8 822.39,283.274C822.373,283.895 822.081,284.44 821.655,284.834C821.227,285.231 820.648,285.462 820.017,285.455C819.39,285.455 818.82,285.21 818.397,284.812C817.982,284.422 817.699,283.884 817.685,283.274C817.679,282.782 817.403,282.34 816.981,282.145C816.558,281.95 816.067,282.038 815.728,282.37C815.273,282.832 814.675,283.073 814.07,283.08C813.45,283.088 812.818,282.887 812.333,282.425C811.858,281.975 811.588,281.387 811.563,280.781C811.538,280.152 811.731,279.51 812.184,279.012C812.445,278.744 812.528,278.335 812.395,277.976C812.261,277.617 811.938,277.38 811.577,277.375C810.866,277.392 810.207,277.141 809.719,276.69C809.211,276.22 808.862,275.566 808.835,274.816C808.807,274.036 809.089,273.315 809.58,272.784C810.085,272.238 810.781,271.868 811.572,271.821C811.768,271.819 811.943,271.69 812.015,271.496C812.087,271.302 812.042,271.08 811.901,270.935C811.302,270.371 810.979,269.617 810.957,268.844C810.934,268.044 811.207,267.232 811.792,266.592C812.323,266.008 813.008,265.712 813.67,265.611C814.552,265.476 815.389,265.676 815.777,266.021C815.795,266.038 815.823,266.037 815.84,266.018C815.856,265.998 815.855,265.969 815.837,265.951C815.458,265.543 814.589,265.237 813.641,265.286C812.888,265.325 812.094,265.594 811.44,266.192C810.668,266.901 810.269,267.861 810.217,268.834C810.18,269.531 810.333,270.233 810.668,270.867C809.947,271.015 809.294,271.367 808.766,271.851C807.967,272.583 807.479,273.641 807.436,274.816C807.393,276.023 807.864,277.125 808.627,277.942C809.02,278.363 809.498,278.698 810.033,278.928C809.759,279.52 809.621,280.163 809.61,280.807C809.591,281.973 810.033,283.14 810.898,284.057C811.755,284.961 812.898,285.424 814.046,285.465C814.621,285.486 815.196,285.391 815.741,285.188C815.993,285.768 816.357,286.289 816.808,286.721C817.64,287.519 818.773,288.007 820.017,288.006C821.258,287.993 822.385,287.502 823.209,286.7C823.663,286.257 824.029,285.726 824.278,285.135C824.827,285.343 825.408,285.441 825.988,285.42C827.126,285.38 828.259,284.922 829.11,284.027C829.966,283.118 830.401,281.961 830.383,280.807C830.373,280.155 830.231,279.504 829.949,278.907C830.494,278.677 830.981,278.337 831.38,277.909C832.134,277.1 832.602,276.01 832.56,274.816C832.52,273.652 832.036,272.604 831.246,271.877C830.714,271.388 830.054,271.034 829.325,270.89C829.671,270.251 829.83,269.54 829.793,268.834C829.743,267.868 829.346,266.914 828.58,266.209C828.485,266.114 828.336,266.119 828.248,266.22C828.159,266.321 828.163,266.48 828.258,266.575Z"/>
                    </g>
                    <g transform="matrix(0.388391,0.095427,0.160781,0.24858,147.387,-10.3376)">
                        <path d="M798.509,428.725L799.646,427.691C800.122,427.258 800.358,426.74 800.172,426.536C799.987,426.332 799.449,426.518 798.973,426.951L797.836,427.985C797.36,428.419 797.124,428.937 797.309,429.141C797.495,429.345 798.033,429.159 798.509,428.725Z"/>
                    </g>
                    <g transform="matrix(0.663195,0.0284722,-0.054867,0.450199,20.4959,-43.0222)">
                        <path d="M794.288,425.46C794.625,425.563 795.059,425.925 795.449,426.332C795.75,426.646 796.014,426.986 796.144,427.263C796.049,427.366 795.948,427.454 795.848,427.534C795.621,427.714 795.378,427.829 795.136,427.898C794.913,427.962 794.693,427.989 794.482,427.973C794.253,427.954 794.036,427.903 793.854,427.802C793.477,427.593 793.233,427.233 793.295,426.761C793.344,426.383 793.548,425.954 793.989,425.483C793.995,425.478 793.995,425.469 793.989,425.464C793.983,425.458 793.973,425.458 793.967,425.463C793.39,425.864 793.068,426.273 792.918,426.657C792.82,426.906 792.807,427.144 792.841,427.365C792.897,427.739 793.125,428.053 793.438,428.289C793.743,428.519 794.145,428.659 794.58,428.691C794.845,428.71 795.124,428.681 795.4,428.604C795.587,428.552 795.773,428.475 795.951,428.372C796.289,428.174 796.604,427.885 796.861,427.491C796.92,427.41 796.933,427.31 796.898,427.219C796.821,427.055 796.691,426.861 796.508,426.666C796.309,426.453 796.061,426.234 795.789,426.035C795.279,425.663 794.714,425.366 794.327,425.319C794.283,425.309 794.237,425.333 794.227,425.372C794.216,425.411 794.243,425.451 794.288,425.46Z"/>
                    </g>
                    <g transform="matrix(0.565107,0,0,0.335403,75.1223,28.6856)">
                        <path d="M792.201,422.061C792.286,421.974 792.425,421.99 792.59,422.002C792.686,422.009 792.771,422.05 792.872,422.083C792.934,422.103 792.985,422.14 793.045,422.167C793.154,422.217 793.23,422.308 793.31,422.393C793.344,422.428 793.382,422.459 793.406,422.505C793.425,422.542 793.466,422.566 793.481,422.611C793.512,422.704 793.562,422.787 793.572,422.912C793.588,423.12 793.609,423.311 793.562,423.601C793.557,423.61 793.56,423.621 793.569,423.626C793.577,423.632 793.589,423.629 793.594,423.62C793.878,423.409 794.03,423.235 794.166,423.03C794.252,422.9 794.279,422.778 794.312,422.653C794.372,422.423 794.325,422.219 794.257,422.035C794.205,421.894 794.11,421.776 794.001,421.68C793.899,421.589 793.785,421.511 793.655,421.464C793.479,421.402 793.3,421.354 793.113,421.364C792.976,421.37 792.851,421.377 792.726,421.418C792.36,421.537 792.079,421.712 792.027,421.969C792.002,422.017 792.02,422.076 792.068,422.102C792.116,422.127 792.176,422.108 792.201,422.061Z"/>
                    </g>
                </g>
                <g transform="matrix(1.197e-17,0.249696,-0.614003,2.44699e-17,608.381,57.6074)">
                    <path d="M481.218,137.214L481.218,137.213C481.232,137.026 481.185,136.843 481.095,136.671C481.004,136.495 480.857,136.335 480.671,136.194C480.482,136.051 480.252,135.941 480.002,135.86C479.748,135.778 479.47,135.735 479.184,135.725C479.184,135.725 467.677,135.381 467.677,135.381C466.676,135.357 465.766,135.632 465.088,136.066C464.396,136.509 463.979,137.141 463.945,137.841C463.945,137.841 463.945,137.841 463.945,137.841C463.883,139.745 463.743,142.871 463.68,146C463.652,147.396 463.645,148.792 463.648,150.08C463.652,151.676 463.687,153.105 463.701,154.159C463.701,154.159 463.701,154.159 463.701,154.159C463.718,154.909 464.16,155.587 464.889,156.07C465.612,156.548 466.594,156.848 467.677,156.834C467.677,156.834 478.268,156.681 478.268,156.681C479.277,156.665 480.19,156.383 480.835,155.918C481.472,155.461 481.871,154.841 481.847,154.159L481.454,144.38C481.449,144.262 481.469,144.146 481.521,144.036C481.573,143.924 481.65,143.817 481.756,143.723C481.756,143.723 485.303,140.558 485.303,140.558C485.392,140.479 485.448,140.386 485.461,140.29C485.474,140.195 485.452,140.098 485.387,140.009C485.321,139.922 485.226,139.849 485.107,139.801C484.99,139.754 484.855,139.725 484.713,139.728L481.632,139.793C481.488,139.796 481.355,139.761 481.258,139.699C481.157,139.634 481.091,139.544 481.086,139.442C481.086,139.442 481.004,137.647 481.004,137.647C481.004,137.628 480.982,137.613 480.954,137.613C480.927,137.613 480.905,137.628 480.905,137.647L480.823,139.442C480.816,139.597 480.905,139.738 481.048,139.842C481.194,139.949 481.401,140.014 481.632,140.019L484.713,140.084L484.889,140.171L484.852,140.306L481.042,143.325C480.858,143.471 480.718,143.638 480.617,143.815C480.515,143.994 480.463,144.185 480.455,144.38C480.455,144.38 480.062,154.159 480.062,154.159C480.05,154.494 479.827,154.789 479.5,155.003C479.181,155.211 478.742,155.327 478.268,155.319C478.268,155.319 467.677,155.166 467.677,155.166C467.277,155.161 466.924,155.035 466.666,154.852C466.415,154.674 466.275,154.427 466.281,154.159C466.295,153.105 466.33,151.676 466.334,150.08C466.337,148.792 466.33,147.396 466.302,146C466.238,142.871 466.098,139.745 466.037,137.841C466.021,137.523 466.174,137.227 466.468,137.012C466.774,136.788 467.195,136.631 467.677,136.619C467.677,136.619 479.184,136.275 479.184,136.275C479.368,136.269 479.551,136.283 479.721,136.325C479.895,136.367 480.061,136.43 480.201,136.516C480.344,136.605 480.463,136.709 480.544,136.827C480.627,136.947 480.681,137.077 480.691,137.213C480.691,137.213 480.809,137.394 480.954,137.394C481.1,137.394 481.218,137.314 481.218,137.214Z"/>
                </g>
            </g>
        </g>
    </g>
</svg>
