<?xml version="1.0" encoding="UTF-8" standalone="no"?>
<!DOCTYPE svg PUBLIC "-//W3C//DTD SVG 1.1//EN" "http://www.w3.org/Graphics/SVG/1.1/DTD/svg11.dtd">
<svg width="100%" height="100%" viewBox="0 0 27 32" version="1.1" xmlns="http://www.w3.org/2000/svg" xmlns:xlink="http://www.w3.org/1999/xlink" xml:space="preserve" xmlns:serif="http://www.serif.com/" style="fill-rule:evenodd;clip-rule:evenodd;stroke-linejoin:round;stroke-miterlimit:2;">
    <g transform="matrix(1,0,0,1,-630,-701)">
        <g id="ic_categories_bucketlist_jewellery" transform="matrix(1.00139,0,0,1.00119,-0.896576,-0.856222)">
            <rect x="630.62" y="701.222" width="26.334" height="30.778" style="fill:none;"/>
            <g transform="matrix(1.76712,0,0,1.41931,-19.9549,516.551)">
                <g transform="matrix(0.199482,0,0,0.248416,273.55,97.2354)">
                    <path d="M503.802,162.67C502.355,162.378 501.155,162.784 500.067,163.522C498.842,164.352 498.244,165.729 497.836,167.396C497.491,169.294 498.21,171.024 499.281,172.46C499.965,173.379 500.967,174.004 502.056,174.439C502.761,174.721 503.544,174.813 504.344,174.829C506.361,174.68 508.237,173.925 509.412,172.464C510.536,171.065 511.268,169.31 510.989,167.396C510.652,165.643 509.931,164.104 508.548,163.192C507.317,162.38 505.899,161.899 504.344,162.235C504.079,162.235 503.857,162.421 503.802,162.67ZM503.806,162.93C502.748,163.309 502.103,164.015 501.651,164.913C501.282,165.647 501.405,166.47 501.631,167.396C501.739,167.96 502.211,168.286 502.593,168.66C502.789,168.851 503.078,168.88 503.323,169.004C503.627,169.158 503.979,169.189 504.344,169.171C505.007,169.226 505.659,169.102 506.078,168.648C506.42,168.278 506.839,167.931 506.919,167.396C507.081,166.558 507.094,165.747 506.657,165.087C506.11,164.261 505.388,163.573 504.344,163.347C504.085,163.347 503.867,163.169 503.806,162.93Z"/>
                </g>
                <g transform="matrix(0.199482,0,0,0.248416,276.259,97.2354)">
                    <path d="M503.802,162.67C502.355,162.378 501.155,162.784 500.067,163.522C498.842,164.352 498.244,165.729 497.836,167.396C497.491,169.294 498.21,171.024 499.281,172.46C499.965,173.379 500.967,174.004 502.056,174.439C502.761,174.721 503.544,174.813 504.344,174.829C506.361,174.68 508.237,173.925 509.412,172.464C510.536,171.065 511.268,169.31 510.989,167.396C510.652,165.643 509.931,164.104 508.548,163.192C507.317,162.38 505.899,161.899 504.344,162.235C504.079,162.235 503.857,162.421 503.802,162.67ZM503.806,162.93C502.748,163.309 502.103,164.015 501.651,164.913C501.282,165.647 501.405,166.47 501.631,167.396C501.739,167.96 502.211,168.286 502.593,168.66C502.789,168.851 503.078,168.88 503.323,169.004C503.627,169.158 503.979,169.189 504.344,169.171C505.007,169.226 505.659,169.102 506.078,168.648C506.42,168.278 506.839,167.931 506.919,167.396C507.081,166.558 507.094,165.747 506.657,165.087C506.11,164.261 505.388,163.573 504.344,163.347C504.085,163.347 503.867,163.169 503.806,162.93Z"/>
                </g>
                <g transform="matrix(0.00213979,-0.206996,0.166221,0.0026647,349.678,241.075)">
                    <path d="M503.854,162.691C502.41,162.424 501.203,162.836 500.146,163.591C498.98,164.425 498.383,165.772 498.026,167.396C497.726,169.231 498.41,170.91 499.461,172.279C500.132,173.153 501.092,173.761 502.142,174.173C502.823,174.439 503.574,174.532 504.344,174.546C506.286,174.417 508.085,173.677 509.231,172.283C510.33,170.946 511.028,169.245 510.786,167.396C510.491,165.692 509.776,164.196 508.454,163.286C507.267,162.47 505.869,161.994 504.344,162.291C504.102,162.291 503.9,162.463 503.854,162.691ZM503.856,162.9C502.758,163.247 502.054,163.942 501.572,164.843C501.176,165.585 501.232,166.443 501.442,167.396C501.545,168 501.994,168.399 502.396,168.804C502.608,169.019 502.91,169.092 503.178,169.232C503.525,169.412 503.925,169.472 504.344,169.454C504.952,169.494 505.537,169.378 505.974,169.02C506.494,168.595 507.029,168.113 507.123,167.396C507.275,166.519 507.221,165.672 506.751,164.992C506.181,164.166 505.407,163.498 504.344,163.291C504.105,163.291 503.905,163.124 503.856,162.9Z"/>
                </g>
                <g transform="matrix(-0.00213979,-0.206996,-0.166221,0.0026647,401.4,241.075)">
                    <path d="M503.854,162.691C503.9,162.463 504.102,162.291 504.344,162.291C505.869,161.994 507.267,162.47 508.454,163.286C509.776,164.196 510.491,165.692 510.786,167.396C511.028,169.245 510.33,170.946 509.231,172.283C508.085,173.677 506.286,174.417 504.344,174.546C503.574,174.532 502.823,174.439 502.142,174.173C501.092,173.761 500.132,173.153 499.461,172.279C498.41,170.91 497.726,169.231 498.026,167.396C498.383,165.772 498.98,164.425 500.146,163.591C501.203,162.836 502.41,162.424 503.854,162.691ZM503.856,162.9C503.905,163.124 504.105,163.291 504.344,163.291C505.407,163.498 506.181,164.166 506.751,164.992C507.221,165.672 507.275,166.519 507.123,167.396C507.029,168.113 506.494,168.595 505.974,169.02C505.537,169.378 504.952,169.494 504.344,169.454C503.925,169.472 503.525,169.412 503.178,169.232C502.91,169.092 502.608,169.019 502.396,168.804C501.994,168.399 501.545,168 501.442,167.396C501.232,166.443 501.176,165.585 501.572,164.843C502.054,163.942 502.758,163.247 503.856,162.9Z"/>
                </g>
                <g transform="matrix(-0.0298635,-0.161381,0.129591,-0.0371892,373.165,223.019)">
                    <path d="M503.933,162.725C503.921,162.716 503.906,162.712 503.89,162.713C502.469,162.498 501.268,162.921 500.265,163.696C499.183,164.531 498.597,165.836 498.311,167.396C498.073,169.136 498.711,170.737 499.732,172.008C500.381,172.816 501.28,173.396 502.272,173.773C502.914,174.018 503.62,174.111 504.344,174.122C506.174,174.02 507.859,173.306 508.959,172.011C510.019,170.764 510.672,169.148 510.481,167.396C510.245,165.766 509.545,164.332 508.312,163.429C507.19,162.607 505.825,162.134 504.344,162.374C504.137,162.374 503.964,162.526 503.933,162.725ZM503.933,162.858C503.923,162.865 503.911,162.869 503.898,162.87C502.759,163.169 501.976,163.842 501.453,164.739C501.013,165.494 500.974,166.399 501.157,167.396C501.27,168.222 501.833,168.814 502.44,169.295C502.711,169.511 503.046,169.611 503.378,169.727C503.68,169.832 504.004,169.885 504.344,169.878C505.062,169.918 505.737,169.723 506.245,169.292C506.82,168.806 507.34,168.201 507.428,167.396C507.563,166.458 507.414,165.558 506.893,164.85C506.284,164.023 505.438,163.385 504.344,163.208C504.137,163.208 503.965,163.057 503.933,162.858Z"/>
                </g>
                <g transform="matrix(0.0298635,-0.161381,-0.129591,-0.0371892,377.908,223.019)">
                    <path d="M503.933,162.725C503.964,162.526 504.137,162.374 504.344,162.374C505.825,162.134 507.19,162.607 508.312,163.429C509.545,164.332 510.245,165.766 510.481,167.396C510.672,169.148 510.019,170.764 508.959,172.011C507.859,173.306 506.174,174.02 504.344,174.122C503.62,174.111 502.914,174.018 502.272,173.773C501.28,173.396 500.381,172.816 499.732,172.008C498.711,170.737 498.073,169.136 498.311,167.396C498.597,165.836 499.183,164.531 500.265,163.696C501.268,162.921 502.469,162.498 503.89,162.713C503.906,162.712 503.921,162.716 503.933,162.725ZM503.933,162.858C503.965,163.057 504.137,163.208 504.344,163.208C505.438,163.385 506.284,164.023 506.893,164.85C507.414,165.558 507.563,166.458 507.428,167.396C507.34,168.201 506.82,168.806 506.245,169.292C505.737,169.723 505.062,169.918 504.344,169.878C504.004,169.885 503.68,169.832 503.378,169.727C503.046,169.611 502.711,169.511 502.44,169.295C501.833,168.814 501.27,168.222 501.157,167.396C500.974,166.399 501.013,165.494 501.453,164.739C501.976,163.842 502.759,163.169 503.898,162.87C503.911,162.869 503.923,162.865 503.933,162.858Z"/>
                </g>
                <g transform="matrix(-0.612335,0,0,1.17429,721.489,-66.8817)">
                    <path d="M559.982,168.869C559.978,168.866 559.977,168.864 559.982,168.862C559.988,168.859 559.986,168.863 559.982,168.869C559.993,168.876 560.028,168.883 560.044,168.891C560.113,168.926 560.209,168.951 560.318,168.981C560.74,169.096 561.376,169.167 562.149,169.215C562.966,169.266 563.925,169.277 564.953,169.239C566.065,169.217 567.086,169.121 567.93,169.022C568.44,168.963 568.88,168.909 569.208,168.837C568.894,168.734 568.479,168.636 567.987,168.542C567.128,168.377 566.105,168.215 564.953,168.118C564.853,168.118 564.772,168.065 564.772,168C564.772,167.935 564.853,167.882 564.953,167.882C566.211,167.776 567.36,167.744 568.318,167.789C568.916,167.817 569.424,167.886 569.83,167.966C570.43,168.084 570.804,168.286 571.005,168.46C571.159,168.593 571.204,168.741 571.22,168.887C571.242,169.127 571.061,169.378 570.641,169.609C570.35,169.768 569.874,169.924 569.246,170.047C568.659,170.163 567.919,170.253 567.085,170.297C566.425,170.332 565.706,170.33 564.953,170.309C563.27,170.244 561.773,170.075 560.749,169.842C560.181,169.713 559.748,169.571 559.486,169.421C559.179,169.246 559.036,169.065 559.055,168.887C559.07,168.759 559.129,168.631 559.286,168.518C559.524,168.347 559.988,168.18 560.675,168.08C561.61,167.946 562.962,167.896 564.58,167.978C564.598,167.978 564.614,167.988 564.614,168C564.614,168.012 564.598,168.022 564.58,168.022C563.294,168.088 562.201,168.218 561.367,168.384C560.893,168.478 560.516,168.585 560.246,168.697C560.084,168.764 559.965,168.816 559.973,168.887C559.972,168.883 559.978,168.875 559.982,168.869ZM569.647,169.023C569.656,169.032 569.663,169.04 569.663,169.04L569.647,169.023ZM569.577,168.729L569.58,168.728C569.596,168.721 569.639,168.721 569.628,168.714C569.6,168.695 569.585,168.705 569.577,168.729Z"/>
                </g>
                <g transform="matrix(-0.900607,0,0,0.896209,884.408,-1.06781)">
                    <path d="M560.157,168.805C560.738,168.942 561.743,168.97 562.977,168.982C563.59,168.988 564.256,169.009 564.953,168.991C566.047,169.038 567.064,169.015 567.916,168.974C568.643,168.939 569.242,168.894 569.656,168.806C568.936,168.475 567.756,168.183 567.453,168.154C567.385,168.154 567.33,168.085 567.33,168C567.33,167.915 567.385,167.846 567.453,167.846C567.793,167.813 569.194,167.888 569.983,168.119C570.255,168.199 570.458,168.321 570.57,168.431C570.706,168.565 570.743,168.736 570.752,168.887C570.76,169.035 570.708,169.186 570.597,169.339C570.459,169.528 570.073,169.751 569.478,169.937C568.818,170.142 567.874,170.333 566.763,170.451C566.197,170.511 565.588,170.537 564.953,170.558C564.319,170.544 563.709,170.531 563.143,170.471C562.031,170.352 561.089,170.14 560.431,169.924C559.981,169.777 559.657,169.622 559.482,169.473C559.253,169.279 559.168,169.068 559.18,168.887C559.19,168.742 559.225,168.574 559.363,168.449C559.477,168.346 559.682,168.235 559.955,168.166C560.766,167.962 562.193,167.929 562.53,167.971C562.543,167.971 562.553,167.984 562.553,168C562.553,168.016 562.543,168.029 562.53,168.029C562.209,168.069 560.888,168.429 560.157,168.805ZM559.84,168.997C559.831,169.049 559.814,169.091 559.788,169.059C559.772,169.041 559.807,169.018 559.84,168.997Z"/>
                </g>
                <g transform="matrix(0.612335,0,0,0.762545,29.6663,6.67638)">
                    <path d="M558.702,163.97C558.378,165.559 557.777,166.947 556.901,168.143C556.043,169.315 554.917,170.293 553.521,171.085C553.352,171.18 553.209,171.314 553.092,171.466C552.974,171.62 552.893,171.801 552.844,171.993C552.794,172.186 552.792,172.386 552.822,172.579C552.852,172.774 552.928,172.96 553.034,173.131C554.965,176.208 556.887,179.016 558.832,181.099C560.754,183.155 562.723,184.495 564.634,184.878L564.949,184.908L565.268,184.883C566.365,184.685 567.477,184.19 568.576,183.411C569.428,182.807 570.281,182.038 571.123,181.128C573.065,179.029 574.971,176.194 576.884,173.089C576.985,172.923 577.058,172.743 577.087,172.554C577.115,172.367 577.114,172.175 577.067,171.988C577.021,171.803 576.945,171.628 576.833,171.478C576.722,171.33 576.588,171.198 576.425,171.102C574.623,170.05 573.117,168.843 572.069,167.466C571.263,166.406 570.726,165.255 570.536,163.997C570.534,163.978 570.518,163.964 570.499,163.966C570.48,163.968 570.467,163.985 570.468,164.003C570.538,165.315 570.977,166.552 571.704,167.718C572.662,169.253 574.123,170.648 575.903,171.912C575.904,171.912 575.904,171.912 575.904,171.912C575.952,171.946 575.986,171.993 576.017,172.041C576.046,172.088 576.059,172.143 576.069,172.198C576.078,172.252 576.068,172.305 576.056,172.357C576.045,172.408 576.016,172.452 575.985,172.494C575.985,172.495 575.985,172.495 575.985,172.495C573.936,175.388 571.889,177.996 569.901,179.94C569.103,180.719 568.317,181.386 567.538,181.913C566.669,182.502 565.816,182.915 564.96,183.066C564.96,183.066 564.96,183.069 564.96,183.069C563.346,182.792 561.716,181.613 560.021,179.941C558.048,177.995 556.013,175.39 553.975,172.504C553.975,172.504 553.974,172.503 553.974,172.503C553.946,172.463 553.92,172.422 553.909,172.375C553.899,172.327 553.891,172.277 553.9,172.227C553.91,172.176 553.923,172.126 553.951,172.083C553.981,172.04 554.014,171.997 554.059,171.968C554.06,171.967 554.061,171.967 554.061,171.966C555.509,171.009 556.656,169.874 557.491,168.543C558.319,167.223 558.844,165.721 559.059,164.03C559.076,163.931 559.009,163.838 558.91,163.821C558.812,163.805 558.718,163.872 558.702,163.97Z"/>
                </g>
                <g transform="matrix(0.612335,0,0,0.762545,28.4483,6.67638)">
                    <path d="M562.845,182.87C562.839,182.849 562.836,182.835 562.828,182.838C562.793,182.854 562.813,182.864 562.845,182.87C562.848,182.882 562.852,182.897 562.858,182.911C562.916,183.043 562.989,183.293 563.114,183.657C563.194,183.889 563.254,184.147 563.341,184.438C563.397,184.623 563.446,184.818 563.505,185.017C563.587,185.288 563.69,185.558 563.726,185.86C563.8,186.479 563.763,187.145 563.319,187.892C563.259,187.961 563.267,188.065 563.336,188.125C563.405,188.185 563.509,188.177 563.569,188.108C564.292,187.528 564.648,186.883 564.83,186.225C564.927,185.874 564.941,185.526 564.92,185.185C564.906,184.951 564.865,184.722 564.794,184.508C564.721,184.288 564.623,184.083 564.504,183.9C564.348,183.659 564.188,183.455 564.008,183.285C563.641,182.937 563.334,182.751 563.166,182.656C563.117,182.629 563.089,182.613 563.073,182.605C563.006,182.572 562.97,182.596 562.951,182.64C562.932,182.541 562.871,182.555 562.827,182.598C562.762,182.662 562.762,182.766 562.826,182.831L562.943,182.88C562.943,182.88 562.884,182.878 562.845,182.87Z"/>
                </g>
                <g transform="matrix(-0.612335,0,0,0.762545,722.823,6.67638)">
                    <path d="M563.072,182.61C563.072,182.608 563.072,182.607 563.073,182.605C563.108,182.532 563.098,182.554 563.072,182.61C563.075,182.623 563.122,182.631 563.166,182.656C563.334,182.751 563.641,182.937 564.008,183.285C564.188,183.455 564.348,183.659 564.504,183.9C564.623,184.083 564.721,184.288 564.794,184.508C564.865,184.722 564.906,184.951 564.92,185.185C564.941,185.526 564.927,185.874 564.83,186.225C564.648,186.883 564.292,187.528 563.569,188.108C563.509,188.177 563.405,188.185 563.336,188.125C563.267,188.065 563.259,187.961 563.319,187.892C563.763,187.145 563.8,186.479 563.726,185.86C563.69,185.558 563.587,185.288 563.505,185.017C563.446,184.818 563.397,184.623 563.341,184.438C563.254,184.147 563.194,183.889 563.114,183.657C562.989,183.293 562.916,183.043 562.858,182.912C562.852,182.897 562.848,182.882 562.845,182.87C562.813,182.864 562.793,182.854 562.828,182.838C562.836,182.835 562.839,182.849 562.845,182.87C562.884,182.878 562.943,182.88 562.943,182.88C562.762,182.766 562.762,182.662 562.827,182.598C562.892,182.533 562.997,182.534 563.061,182.599L562.943,182.88C562.943,182.88 563.029,182.7 563.072,182.61Z"/>
                </g>
            </g>
        </g>
    </g>
</svg>
