<?xml version="1.0" encoding="UTF-8" standalone="no"?>
<!DOCTYPE svg PUBLIC "-//W3C//DTD SVG 1.1//EN" "http://www.w3.org/Graphics/SVG/1.1/DTD/svg11.dtd">
<svg width="100%" height="100%" viewBox="0 0 24 33" version="1.1" xmlns="http://www.w3.org/2000/svg" xmlns:xlink="http://www.w3.org/1999/xlink" xml:space="preserve" xmlns:serif="http://www.serif.com/" style="fill-rule:evenodd;clip-rule:evenodd;stroke-linejoin:round;stroke-miterlimit:2;">
    <g transform="matrix(1,0,0,1,-891,-1793)">
        <g id="ic_transactions_notes" transform="matrix(1.00155,0,0,1.00068,-1.4095,-1.98234)">
            <rect x="892" y="1794.45" width="22.468" height="31.33" style="fill:none;"/>
            <g transform="matrix(1.76684,0,0,2.97945,19.4788,1390.04)">
                <g transform="matrix(5.64252e-17,-0.546926,0.586906,2.13298e-17,414.585,400.222)">
                    <path d="M481.075,139.83L481.127,137.926C481.144,137.31 480.993,136.747 480.747,136.326C480.493,135.893 480.132,135.626 479.728,135.599C479.728,135.599 479.728,135.599 479.728,135.599C478.241,135.52 475.609,135.358 472.973,135.241C471.814,135.189 470.656,135.149 469.595,135.119C468.243,135.081 467.05,135.067 466.217,135.05C465.711,135.045 465.251,135.366 464.918,135.885C464.584,136.406 464.379,137.129 464.378,137.926C464.378,137.926 464.378,137.926 464.378,137.926C464.386,139.502 464.388,141.874 464.408,144.385C464.436,147.966 464.491,151.828 464.516,154.074C464.526,154.808 464.716,155.47 465.028,155.941C465.337,156.407 465.756,156.699 466.217,156.684L479.728,156.169C480.093,156.154 480.42,155.912 480.653,155.526C480.881,155.148 481.019,154.636 481.01,154.074C481.01,154.074 480.977,152.202 480.977,152.202C480.977,152.182 480.967,152.166 480.954,152.166C480.942,152.166 480.932,152.182 480.932,152.202L480.899,154.074C480.89,154.577 480.753,155.025 480.537,155.346C480.327,155.658 480.041,155.844 479.728,155.831C479.728,155.831 466.217,155.316 466.217,155.316C466.002,155.309 465.811,155.157 465.672,154.931C465.537,154.71 465.461,154.405 465.466,154.074C465.491,151.828 465.545,147.966 465.574,144.385C465.593,141.874 465.596,139.502 465.604,137.926C465.603,137.659 465.672,137.418 465.782,137.243C465.894,137.066 466.047,136.951 466.217,136.95C467.05,136.933 468.243,136.919 469.595,136.881C470.656,136.851 471.814,136.811 472.973,136.759C475.609,136.642 478.241,136.48 479.728,136.401C480.002,136.382 480.256,136.532 480.443,136.802C480.639,137.083 480.769,137.477 480.782,137.926C480.782,137.926 480.834,139.83 480.834,139.83C480.834,139.934 480.888,140.019 480.954,140.019C481.021,140.019 481.075,139.934 481.075,139.83Z"/>
                </g>
                <g transform="matrix(0.629515,0,0,0.373631,2.35152,23.1528)">
                    <path d="M788.477,303.522L786.213,303.636C786.132,303.64 786.052,303.653 785.98,303.688C785.909,303.722 785.84,303.763 785.786,303.823C785.732,303.882 785.686,303.947 785.66,304.021C785.634,304.094 785.615,304.171 785.619,304.25C785.619,304.25 785.714,305.983 785.714,305.983C785.722,306.119 785.774,306.244 785.868,306.328C785.961,306.41 786.08,306.467 786.213,306.459L787.818,306.365C787.891,306.365 787.95,306.306 787.95,306.233C787.95,306.16 787.891,306.101 787.818,306.101L786.213,306.008C786.213,306.008 786.211,305.983 786.211,305.983L786.3,304.368L788.79,304.493C788.969,304.5 789.129,304.422 789.254,304.311C789.38,304.2 789.451,304.035 789.466,303.856C789.555,302.955 790.262,302.537 790.952,302.555C791.601,302.572 792.235,303.01 792.277,303.864C792.289,304.088 792.388,304.288 792.539,304.433C792.692,304.579 792.898,304.668 793.124,304.669L795.374,304.624L795.425,305.746C794.852,305.778 793.885,305.831 792.853,305.898C790.825,306.032 788.568,306.209 788.568,306.209C788.554,306.209 788.543,306.22 788.543,306.233C788.543,306.247 788.554,306.258 788.568,306.258C788.568,306.258 790.825,306.435 792.853,306.568C794.083,306.649 795.22,306.708 795.709,306.737C795.81,306.742 795.907,306.717 796,306.684C796.093,306.651 796.174,306.591 796.249,306.523C796.325,306.455 796.377,306.368 796.42,306.278C796.463,306.187 796.478,306.086 796.483,305.983C796.483,305.983 796.562,304.25 796.562,304.25C796.566,304.137 796.539,304.027 796.5,303.923C796.462,303.818 796.395,303.726 796.317,303.642C796.24,303.558 796.142,303.499 796.04,303.452C795.938,303.405 795.824,303.387 795.709,303.383L793.552,303.333C793.244,301.967 792.096,301.283 790.95,301.317C789.797,301.35 788.641,302.086 788.477,303.522ZM795.684,305.731C795.675,305.731 795.667,305.732 795.658,305.733L795.655,305.733L795.709,305.73L795.684,305.731ZM788.459,303.793C788.458,303.799 788.458,303.805 788.458,303.811L788.459,303.793ZM793.619,303.768L793.619,303.773L793.619,303.768Z"/>
                </g>
                <g transform="matrix(-0.0043429,0.619202,-0.88849,-0.00302663,552.161,-164.011)">
                    <path d="M491.108,59.999C491.108,59.999 491.103,58.5 491.071,56.799C491.03,54.571 490.95,52 490.95,52C490.95,51.958 490.921,51.924 490.885,51.924C490.85,51.924 490.821,51.958 490.821,52C490.821,52 490.766,54.572 490.747,56.801C490.732,58.501 490.741,60.001 490.741,60.001C490.742,60.12 490.824,60.216 490.926,60.215C491.027,60.215 491.109,60.118 491.108,59.999Z"/>
                </g>
                <g transform="matrix(-0.0043429,0.619202,-0.88849,-0.00302663,552.161,-162.582)">
                    <path d="M491.108,59.999C491.108,59.999 491.103,58.5 491.071,56.799C491.03,54.571 490.95,52 490.95,52C490.95,51.958 490.921,51.924 490.885,51.924C490.85,51.924 490.821,51.958 490.821,52C490.821,52 490.766,54.572 490.747,56.801C490.732,58.501 490.741,60.001 490.741,60.001C490.742,60.12 490.824,60.216 490.926,60.215C491.027,60.215 491.109,60.118 491.108,59.999Z"/>
                </g>
                <g transform="matrix(-0.00345,0.619202,-0.705817,-0.00302663,540.762,-161.176)">
                    <path d="M491.108,59.999C491.108,59.999 491.103,58.499 491.071,56.799C491.03,54.57 490.95,52 490.95,52C490.95,51.947 490.921,51.904 490.885,51.904C490.849,51.905 490.821,51.948 490.821,52C490.821,52 490.766,54.572 490.747,56.801C490.732,58.501 490.741,60.001 490.741,60.001C490.742,60.151 490.825,60.272 490.926,60.271C491.027,60.271 491.109,60.149 491.108,59.999Z"/>
                </g>
            </g>
        </g>
    </g>
</svg>
