<?xml version="1.0" encoding="UTF-8" standalone="no"?>
<!DOCTYPE svg PUBLIC "-//W3C//DTD SVG 1.1//EN" "http://www.w3.org/Graphics/SVG/1.1/DTD/svg11.dtd">
<svg width="100%" height="100%" viewBox="0 0 31 31" version="1.1" xmlns="http://www.w3.org/2000/svg" xmlns:xlink="http://www.w3.org/1999/xlink" xml:space="preserve" xmlns:serif="http://www.serif.com/" style="fill-rule:evenodd;clip-rule:evenodd;stroke-linejoin:round;stroke-miterlimit:2;">
    <g transform="matrix(1,0,0,1,-707,-1843)">
        <g id="ic_user_phone" transform="matrix(1.0014,0,0,1.00076,-1.01287,-1.39977)">
            <rect x="708" y="1844" width="29.457" height="29.549" style="fill:none;"/>
            <g transform="matrix(1.36358,0,0,1.36446,-483.026,1399.26)">
                <g id="ic_user_phone1" serif:id="ic_user_phone">
                    <path d="M883.778,337.248C883.17,336.591 882.604,335.876 882.075,335.105C881.573,334.374 881.106,333.592 880.668,332.76L880.689,332.679L882.363,331.082C882.623,330.834 882.751,330.501 882.758,330.168C882.766,329.831 882.638,329.494 882.386,329.231L879.66,326.383C879.426,326.137 879.118,325.999 878.8,325.961C878.479,325.922 878.147,326 877.859,326.184C876.868,326.816 876.144,327.319 875.513,327.901C875.052,328.326 874.642,328.795 874.217,329.384C873.829,329.873 873.591,330.456 873.506,331.059C873.42,331.667 873.501,332.297 873.744,332.885C873.744,332.885 873.744,332.885 873.744,332.885C875.16,336.26 877.053,339.195 879.455,341.623C880.44,342.619 881.512,343.527 882.667,344.345C884.339,345.53 886.188,346.521 888.194,347.336C888.195,347.336 888.196,347.337 888.197,347.337C888.82,347.584 889.486,347.651 890.121,347.536C890.75,347.423 891.351,347.142 891.844,346.697L891.827,346.711C892.546,346.11 893.072,345.57 893.537,344.972C893.987,344.394 894.38,343.764 894.846,342.971C895.01,342.693 895.075,342.377 895.032,342.074C894.99,341.774 894.857,341.486 894.625,341.265C894.625,341.265 891.751,338.55 891.751,338.55C891.501,338.314 891.183,338.195 890.865,338.205C890.552,338.214 890.241,338.336 890.01,338.581L888.328,340.367C888.306,340.39 888.28,340.408 888.25,340.414C888.219,340.42 888.186,340.42 888.155,340.407C888.155,340.407 888.155,340.407 888.155,340.407C887.338,340.051 886.731,339.779 886.16,339.433C885.599,339.093 885.074,338.684 884.42,338.055C884.41,338.044 884.393,338.044 884.382,338.054C884.371,338.065 884.371,338.082 884.381,338.093C885.001,338.773 885.504,339.222 886.049,339.602C886.605,339.99 887.203,340.304 888.009,340.717C888.104,340.765 888.209,340.778 888.31,340.764C888.413,340.749 888.509,340.701 888.588,340.626C888.588,340.626 890.373,338.944 890.373,338.944C890.511,338.815 890.69,338.758 890.865,338.763C891.034,338.768 891.199,338.843 891.325,338.976L894.04,341.85C894.124,341.94 894.167,342.055 894.177,342.172C894.187,342.284 894.153,342.398 894.087,342.498C894.087,342.498 894.087,342.498 894.087,342.498C893.607,343.226 893.204,343.804 892.752,344.331C892.304,344.853 891.806,345.321 891.129,345.837C891.124,345.842 891.118,345.846 891.113,345.851C890.769,346.135 890.358,346.303 889.934,346.361C889.515,346.419 889.082,346.358 888.681,346.18C886.797,345.349 885.079,344.338 883.507,343.181C882.431,342.389 881.428,341.525 880.492,340.591C878.194,338.296 876.316,335.567 874.908,332.383C874.74,332.009 874.677,331.604 874.719,331.21C874.762,330.811 874.904,330.422 875.151,330.088C875.156,330.081 875.162,330.073 875.167,330.065C875.622,329.382 876.06,328.873 876.596,328.392C877.093,327.945 877.669,327.52 878.408,327.007C878.409,327.007 878.409,327.006 878.41,327.006C878.5,326.943 878.604,326.909 878.707,326.917C878.813,326.925 878.919,326.963 879.001,327.041L881.849,329.768C881.964,329.877 882.028,330.021 882.031,330.168C882.035,330.319 881.985,330.473 881.872,330.591L880.275,332.265C880.176,332.37 880.113,332.499 880.097,332.635C880.082,332.77 880.104,332.91 880.177,333.034C880.177,333.034 880.177,333.034 880.177,333.034C880.666,333.86 881.182,334.634 881.731,335.354C882.308,336.112 882.92,336.811 883.572,337.448C883.627,337.505 883.718,337.506 883.775,337.451C883.832,337.396 883.833,337.305 883.778,337.248Z"/>
                </g>
            </g>
        </g>
    </g>
</svg>
