<?xml version="1.0" encoding="UTF-8" standalone="no"?>
<!DOCTYPE svg PUBLIC "-//W3C//DTD SVG 1.1//EN" "http://www.w3.org/Graphics/SVG/1.1/DTD/svg11.dtd">
<svg width="100%" height="100%" viewBox="0 0 32 31" version="1.1" xmlns="http://www.w3.org/2000/svg" xmlns:xlink="http://www.w3.org/1999/xlink" xml:space="preserve" xmlns:serif="http://www.serif.com/" style="fill-rule:evenodd;clip-rule:evenodd;stroke-linejoin:round;stroke-miterlimit:2;">
    <g transform="matrix(1,0,0,1,-588,-441)">
        <g id="Share" transform="matrix(0.817405,0,0,0.797446,-28.1209,77.8959)">
            <rect x="754.333" y="456.384" width="37.718" height="37.397" style="fill:none;"/>
            <g transform="matrix(1.22338,0,0,1.254,-225.168,-50.5519)">
                <g transform="matrix(-0.771457,-0.655173,-0.659903,0.777026,1501.48,849.576)">
                    <path d="M779.37,114.4L791.272,114.117C791.676,113.55 792.724,112.084 793.92,110.434C795.49,108.27 797.316,105.794 798.208,104.575C798.521,104.154 798.98,103.904 799.464,103.828C799.95,103.752 800.463,103.868 800.893,104.175C800.895,104.176 800.898,104.178 800.9,104.179C802.662,105.473 803.958,107.017 804.788,108.857C805.555,110.559 805.918,112.518 805.903,114.757C805.842,118.65 804.218,122.163 801.601,124.67C799.017,127.145 795.485,128.647 791.616,128.57C787.809,128.483 784.389,126.891 781.951,124.353C779.557,121.861 778.11,118.469 778.202,114.757C778.202,114.716 778.236,114.682 778.278,114.682C778.32,114.682 778.354,114.716 778.354,114.757C778.443,118.357 779.987,121.581 782.421,123.886C784.81,126.147 788.059,127.512 791.616,127.43C795.11,127.36 798.24,125.885 800.491,123.569C802.708,121.287 804.06,118.175 804.006,114.757C803.992,112.818 803.652,111.132 802.986,109.659C802.288,108.115 801.227,106.805 799.762,105.701L799.7,105.697C798.761,106.88 796.855,109.296 795.182,111.383C793.547,113.424 792.137,115.149 792.137,115.149C792.012,115.313 791.815,115.409 791.607,115.406L779.365,114.785C779.258,114.783 779.172,114.696 779.174,114.589C779.175,114.483 779.263,114.398 779.37,114.4Z"/>
                </g>
                <g transform="matrix(1,0,0,1,218.372,338.486)">
                    <path d="M607.154,70.622L606.814,70.958C605.016,72.723 600.43,77.214 600.43,77.214C600.415,77.228 600.413,77.251 600.426,77.266C600.44,77.282 600.463,77.284 600.479,77.27C600.479,77.27 605.611,73.41 607.611,71.876C607.955,71.612 608.205,71.416 608.324,71.321C608.372,71.282 608.403,71.254 608.417,71.241C608.486,71.181 608.51,71.128 608.523,71.11C608.71,70.841 608.644,70.617 608.558,70.469C607.873,68.418 606.614,67.272 605.304,66.622C604.262,66.105 603.169,65.925 602.263,65.894C601.048,65.853 600.171,66.094 600.171,66.094C599.771,66.196 599.475,66.533 599.426,66.943C599.426,66.943 599.289,68.161 599.166,69.809C599.101,70.689 599.045,71.685 599,72.687C598.945,73.919 598.912,75.14 598.89,76.15C598.86,77.518 598.861,78.465 598.861,78.465C598.848,78.572 598.925,78.67 599.032,78.683C599.14,78.695 599.238,78.619 599.25,78.511C599.25,78.511 599.474,77.591 599.766,76.255C599.981,75.267 600.237,74.073 600.473,72.862C600.664,71.878 600.844,70.896 600.987,70.026C601.127,69.174 601.236,68.435 601.307,67.923C601.562,67.894 601.879,67.869 602.235,67.866C602.924,67.862 603.758,67.924 604.579,68.249C605.538,68.629 606.485,69.33 607.154,70.622Z"/>
                </g>
                <g transform="matrix(0.999704,0.0243458,-0.0243458,0.999704,220.458,324.123)">
                    <path d="M609.277,87.183C609.154,87.103 609.012,87.008 608.854,86.901C606.428,85.266 600.317,80.961 600.317,80.961C600.301,80.948 600.278,80.951 600.265,80.967C600.252,80.983 600.255,81.007 600.271,81.019C600.271,81.019 605.928,85.929 608.193,87.788C608.597,88.119 608.898,88.352 609.046,88.456C609.162,88.537 609.251,88.567 609.289,88.58C609.569,88.676 609.749,88.543 609.842,88.475C609.902,88.432 609.95,88.379 609.986,88.316C612.206,85.475 612.979,82.742 613.023,80.372C613.054,78.723 612.729,77.242 612.27,76.02C611.367,73.619 609.981,72.209 609.981,72.209C609.655,71.852 609.11,71.8 608.723,72.09C608.723,72.09 607.72,72.885 606.389,73.984C605.679,74.57 604.88,75.239 604.086,75.919C601.792,77.884 599.549,79.882 599.549,79.882C599.462,79.947 599.445,80.07 599.509,80.157C599.574,80.244 599.697,80.261 599.784,80.196C599.784,80.196 602.334,78.609 604.867,76.964C605.744,76.394 606.611,75.816 607.374,75.301C608.048,74.845 608.637,74.44 609.071,74.14C609.442,74.7 609.965,75.593 610.4,76.729C610.796,77.763 611.135,78.993 611.191,80.391C611.27,82.378 610.827,84.682 609.277,87.183Z"/>
                </g>
            </g>
        </g>
    </g>
</svg>
