<?xml version="1.0" encoding="UTF-8" standalone="no"?>
<!DOCTYPE svg PUBLIC "-//W3C//DTD SVG 1.1//EN" "http://www.w3.org/Graphics/SVG/1.1/DTD/svg11.dtd">
<svg width="100%" height="100%" viewBox="0 0 31 32" version="1.1" xmlns="http://www.w3.org/2000/svg" xmlns:xlink="http://www.w3.org/1999/xlink" xml:space="preserve" xmlns:serif="http://www.serif.com/" style="fill-rule:evenodd;clip-rule:evenodd;stroke-linejoin:round;stroke-miterlimit:2;">
    <g transform="matrix(1,0,0,1,-643,-1279)">
        <g id="ic_category_household_medicines" transform="matrix(0.945287,0,0,0.948488,36.9644,63.8455)">
            <rect x="642.135" y="1281.56" width="31.766" height="32.42" style="fill:none;"/>
            <g transform="matrix(1.872,0,0,3.14341,-210.573,952.774)">
                <g transform="matrix(2.54326,0.0023359,0.00393566,0.284349,-1519.64,91.9499)">
                    <path d="M776.953,55.621C776.953,55.621 777.703,55.61 778.553,55.534C779.667,55.435 780.954,55.236 780.954,55.236C780.996,55.236 781.031,55.054 781.031,54.83C781.031,54.605 780.997,54.423 780.955,54.423C780.955,54.423 779.67,54.22 778.556,54.116C777.706,54.037 776.956,54.023 776.956,54.023C776.873,54.023 776.805,54.381 776.804,54.822C776.803,55.262 776.87,55.621 776.953,55.621Z"/>
                </g>
                <g transform="matrix(0.599848,0.519515,-0.394278,0.161527,22.0852,-301.097)">
                    <path d="M777.134,55.621C777.134,55.621 777.85,55.61 778.661,55.534C779.728,55.435 780.954,55.236 780.954,55.236C781.055,55.236 781.137,55.054 781.138,54.83C781.138,54.605 781.056,54.423 780.955,54.423C780.955,54.423 779.73,54.22 778.664,54.116C777.853,54.037 777.137,54.023 777.137,54.023C776.938,54.023 776.775,54.381 776.774,54.822C776.774,55.262 776.934,55.621 777.134,55.621Z"/>
                </g>
                <g transform="matrix(0.77932,0.000339761,0.00057245,0.284345,-145.431,94.9992)">
                    <path d="M776.953,55.621C776.953,55.621 777.703,55.61 778.553,55.534C779.672,55.434 780.954,55.236 780.954,55.236C781.092,55.236 781.204,55.054 781.204,54.83C781.205,54.606 781.093,54.423 780.955,54.423C780.955,54.423 779.674,54.22 778.556,54.116C777.706,54.037 776.956,54.023 776.956,54.023C776.685,54.023 776.464,54.38 776.463,54.821C776.462,55.262 776.682,55.62 776.953,55.621Z"/>
                </g>
                <g transform="matrix(0.00057245,-0.462543,0.479081,-0.000339761,434.896,471.098)">
                    <path d="M776.953,55.621C776.953,55.621 777.703,55.61 778.553,55.534C779.672,55.434 780.954,55.236 780.954,55.236C781.092,55.236 781.204,55.054 781.204,54.83C781.205,54.606 781.093,54.423 780.955,54.423C780.955,54.423 779.674,54.22 778.556,54.116C777.706,54.037 776.956,54.023 776.956,54.023C776.685,54.023 776.464,54.38 776.463,54.821C776.462,55.262 776.682,55.62 776.953,55.621Z"/>
                </g>
                <g transform="matrix(-2.54326,0.0023359,-0.00393566,0.284349,2442.96,94.836)">
                    <path d="M778.02,54.025C778.02,54.025 778.57,54.039 779.194,54.117C780.012,54.22 780.955,54.423 780.955,54.423C780.997,54.423 781.031,54.605 781.031,54.83C781.031,55.054 780.996,55.236 780.954,55.236C780.954,55.236 780.01,55.435 779.192,55.535C778.567,55.611 778.017,55.623 778.017,55.623C777.934,55.623 777.867,55.264 777.868,54.824C777.869,54.383 777.937,54.025 778.02,54.025Z"/>
                </g>
                <g transform="matrix(0.302198,0,0,0.852966,319.605,-48.7929)">
                    <path d="M476.125,179.993L456.777,179.85C456.437,179.847 456.103,179.861 455.791,179.886C455.476,179.911 455.189,179.95 454.938,179.999C454.685,180.049 454.493,180.11 454.352,180.175C454.211,180.241 454.14,180.312 454.129,180.386L453.955,181.578C453.944,181.657 454.019,181.734 454.15,181.807C454.282,181.88 454.491,181.946 454.751,182.004C455.013,182.062 455.33,182.106 455.672,182.139C456.015,182.171 456.391,182.187 456.775,182.189C456.775,182.189 456.775,182.189 456.775,182.189C459.771,182.203 465.936,182.242 471.534,182.255C473.266,182.259 474.943,182.26 476.454,182.256C478.483,182.252 480.21,182.238 481.374,182.232C481.75,182.229 482.119,182.215 482.455,182.182C482.787,182.15 483.1,182.107 483.353,182.05C483.602,181.992 483.81,181.928 483.933,181.856C484.055,181.785 484.132,181.71 484.115,181.633L483.76,180.332C483.735,180.266 483.673,180.201 483.533,180.143C483.395,180.087 483.225,180.033 482.99,179.991C482.759,179.949 482.508,179.915 482.225,179.896C481.949,179.877 481.66,179.865 481.364,179.87L477.371,179.945C477.215,179.945 477.088,179.972 477.089,180.005C477.089,180.038 477.217,180.065 477.374,180.065L481.369,180.132C481.494,180.134 481.607,180.145 481.716,180.157C481.819,180.168 481.899,180.186 481.976,180.205C482.049,180.223 482.084,180.245 482.118,180.267C482.15,180.288 482.14,180.31 482.132,180.332L481.777,181.633L481.618,181.685L481.374,181.696C480.21,181.69 478.483,181.676 476.454,181.672C474.943,181.668 473.266,181.669 471.534,181.673C465.936,181.686 459.771,181.725 456.775,181.739C456.672,181.74 456.569,181.738 456.475,181.731C456.378,181.723 456.282,181.713 456.205,181.698C456.126,181.682 456.054,181.665 456.011,181.645C455.966,181.624 455.93,181.602 455.927,181.578L455.753,180.386C455.748,180.357 455.761,180.328 455.809,180.302C455.857,180.275 455.923,180.248 456.019,180.227C456.117,180.205 456.229,180.186 456.357,180.173C456.488,180.161 456.629,180.152 456.776,180.151C456.776,180.151 476.125,180.013 476.125,180.013C476.151,180.013 476.172,180.008 476.172,180.003C476.172,179.997 476.151,179.993 476.125,179.993Z"/>
                </g>
                <g transform="matrix(-0.289729,0.120408,-1.29564,-1.09823,838.101,254.747)">
                    <path d="M472.146,179.999L461.218,179.923C460.312,179.917 459.421,179.941 458.587,179.989C457.741,180.038 456.963,180.114 456.288,180.211C455.603,180.31 455.07,180.43 454.688,180.559C454.3,180.691 454.091,180.835 454.054,180.983C454.054,180.983 454.054,180.984 454.054,180.984C454.017,181.133 454.184,181.28 454.511,181.418C454.841,181.557 455.36,181.684 456.019,181.795C456.687,181.907 457.49,181.994 458.364,182.056C459.247,182.119 460.211,182.152 461.2,182.157L476.699,182.213C478.859,182.211 480.834,182.076 482.217,181.85C483.583,181.626 484.399,181.32 484.318,180.986C484.318,180.986 484.318,180.984 484.318,180.984C484.263,180.827 484.044,180.673 483.609,180.534C483.183,180.398 482.604,180.273 481.857,180.172C481.12,180.074 480.298,179.996 479.394,179.952C478.514,179.909 477.593,179.89 476.657,179.904C476.657,179.904 473.373,179.959 473.373,179.959C473.194,179.959 473.05,179.982 473.051,180.01C473.053,180.037 473.198,180.06 473.377,180.06L476.665,180.108C477.399,180.118 478.089,180.154 478.732,180.205C479.35,180.255 479.888,180.325 480.348,180.409C480.798,180.489 481.105,180.584 481.324,180.683C481.536,180.779 481.61,180.881 481.574,180.984C481.574,180.984 481.573,180.986 481.573,180.986C481.523,181.193 480.901,181.372 480.015,181.505C479.151,181.635 477.99,181.716 476.699,181.715C476.699,181.715 461.2,181.771 461.2,181.771C460.527,181.774 459.863,181.759 459.245,181.723C458.617,181.686 458.028,181.632 457.529,181.559C457.02,181.485 456.608,181.397 456.324,181.3C456.035,181.201 455.855,181.095 455.828,180.984C455.828,180.984 455.827,180.983 455.827,180.983C455.8,180.87 455.904,180.758 456.15,180.654C456.4,180.549 456.773,180.45 457.272,180.366C457.78,180.28 458.38,180.211 459.045,180.164C459.722,180.115 460.456,180.086 461.215,180.082C461.215,180.082 472.146,180.016 472.146,180.016C472.175,180.016 472.2,180.012 472.2,180.007C472.2,180.003 472.176,179.999 472.146,179.999Z"/>
                </g>
                <g transform="matrix(0.565107,0,0,0.335403,54.2366,28.5233)">
                    <path d="M714.813,232.873L714.725,235.161C714.716,235.389 714.658,235.608 714.564,235.811C714.471,236.009 714.336,236.186 714.171,236.336C714.171,236.336 711.197,239.039 711.197,239.039C710.946,239.269 710.753,239.549 710.613,239.853C710.472,240.16 710.4,240.496 710.388,240.841C710.388,240.841 710.388,240.841 710.388,240.841C710.352,241.987 710.269,244.152 710.213,246.401C710.163,248.416 710.139,250.495 710.112,251.96C710.104,252.757 710.427,253.479 710.943,254.008C711.463,254.539 712.189,254.864 712.99,254.875L722.911,254.986C723.463,254.988 723.912,254.541 723.914,253.989C723.916,253.437 723.47,252.988 722.918,252.986L712.996,253.029C712.698,253.031 712.425,252.917 712.228,252.724C712.027,252.527 711.893,252.258 711.888,251.955C711.853,250.49 711.817,248.411 711.756,246.396C711.687,244.148 711.592,241.983 711.549,240.838C711.541,240.645 711.565,240.454 711.631,240.277C711.699,240.096 711.796,239.925 711.93,239.782L714.671,236.843C714.886,236.613 715.054,236.349 715.161,236.059C715.266,235.774 715.32,235.47 715.307,235.16C715.307,235.16 715.205,232.872 715.205,232.872C715.205,232.763 715.117,232.676 715.009,232.676C714.9,232.676 714.813,232.764 714.813,232.873Z"/>
                </g>
                <g transform="matrix(0.565107,0,0,0.335403,54.2366,28.5233)">
                    <path d="M730.602,246.004C730.602,246.004 730.603,244.766 730.562,243.416C730.534,242.483 730.476,241.5 730.446,240.827C730.446,240.827 730.446,240.827 730.446,240.827C730.431,240.5 730.36,240.181 730.223,239.891C730.089,239.604 729.905,239.34 729.666,239.123C729.666,239.123 726.682,236.408 726.682,236.408C726.511,236.252 726.371,236.07 726.272,235.866C726.17,235.658 726.106,235.433 726.088,235.198C726.088,235.198 725.916,232.871 725.916,232.871C725.916,232.851 725.899,232.835 725.878,232.835C725.858,232.836 725.842,232.853 725.842,232.873L725.791,235.206C725.785,235.484 725.835,235.757 725.931,236.013C726.028,236.273 726.178,236.512 726.368,236.721L729.082,239.707C729.223,239.861 729.323,240.043 729.392,240.235C729.46,240.423 729.483,240.625 729.474,240.828C729.445,241.5 729.388,242.484 729.362,243.416C729.323,244.767 729.326,246.005 729.326,246.005C729.326,246.357 729.612,246.643 729.964,246.643C730.316,246.642 730.602,246.356 730.602,246.004Z"/>
                </g>
            </g>
        </g>
    </g>
</svg>
