<?xml version="1.0" encoding="UTF-8" standalone="no"?>
<!DOCTYPE svg PUBLIC "-//W3C//DTD SVG 1.1//EN" "http://www.w3.org/Graphics/SVG/1.1/DTD/svg11.dtd">
<svg width="100%" height="100%" viewBox="0 0 31 31" version="1.1" xmlns="http://www.w3.org/2000/svg" xmlns:xlink="http://www.w3.org/1999/xlink" xml:space="preserve" xmlns:serif="http://www.serif.com/" style="fill-rule:evenodd;clip-rule:evenodd;stroke-linejoin:round;stroke-miterlimit:2;">
    <g transform="matrix(1,0,0,1,-669,-752)">
        <g id="ic_category_bucket_list_hobbies" transform="matrix(0.951382,0,0,0.928933,27.6114,49.9291)">
            <rect x="674.523" y="756" width="32.068" height="32.817" style="fill:none;"/>
            <g transform="matrix(1.86001,0,0,1.52971,-76.5408,509.878)">
                <g transform="matrix(-3.46028e-17,-0.703731,-0.565107,4.30911e-17,510.619,612.683)">
                    <path d="M617.151,175.185L617.459,185C617.469,185.329 617.548,185.647 617.68,185.942C617.81,186.232 618.002,186.494 618.238,186.717C618.47,186.937 618.745,187.1 619.038,187.212C619.327,187.322 619.639,187.37 619.954,187.361C622.261,187.305 625.606,187.208 628.954,187.143C632.302,187.078 635.649,187.046 637.954,187.012C638.508,187.01 639.007,186.779 639.369,186.415C639.731,186.052 639.959,185.553 639.96,185C639.999,182.694 640.034,179.347 640.114,176C640.195,172.651 640.321,169.307 640.392,167C640.416,166.315 640.17,165.683 639.737,165.217C639.29,164.735 638.664,164.415 637.954,164.387C637.954,164.387 629.31,164.037 629.31,164.037C629.29,164.037 629.273,164.02 629.273,164C629.273,163.98 629.29,163.963 629.31,163.963L637.954,163.613C638.903,163.576 639.769,163.942 640.414,164.54C641.075,165.154 641.482,166.027 641.517,167C641.588,169.307 641.714,172.651 641.794,176C641.875,179.347 641.909,182.694 641.949,185C641.951,186.104 641.506,187.105 640.782,187.828C640.058,188.549 639.057,188.993 637.954,188.988C635.649,188.954 632.302,188.922 628.954,188.857C625.606,188.792 622.261,188.695 619.954,188.639C619.474,188.625 619.005,188.524 618.575,188.331C618.148,188.14 617.756,187.872 617.428,187.526C617.105,187.183 616.85,186.787 616.685,186.354C616.522,185.926 616.436,185.467 616.449,185C616.449,185 616.758,175.185 616.758,175.185C616.758,175.077 616.846,174.989 616.954,174.989C617.063,174.989 617.151,175.077 617.151,175.185Z"/>
                </g>
                <g transform="matrix(-0.609532,0,0,0.703731,794.82,46.2189)">
                    <path d="M618.474,175.843L621.431,175.678C621.595,175.678 621.728,175.822 621.729,175.999C621.8,177.525 622.759,178.22 623.717,178.161C624.613,178.106 625.47,177.347 625.44,175.991C625.444,175.622 625.723,175.325 626.065,175.325C626.065,175.325 627.854,175.264 629.404,175.253C630.022,175.248 630.602,175.253 631.014,175.258C631.313,173.47 632.622,172.635 633.928,172.721C635.237,172.808 636.562,173.811 636.595,175.681C636.595,175.681 640.558,175.972 640.558,175.972C640.572,175.972 640.584,175.985 640.584,176C640.584,176.015 640.572,176.028 640.558,176.028L636.27,176.343C636.185,176.343 636.103,176.307 636.044,176.242C635.984,176.177 635.951,176.089 635.951,175.997C635.885,174.539 634.884,173.839 633.912,173.873C633.036,173.903 632.219,174.611 632.308,175.977C632.314,176.175 632.245,176.367 632.117,176.509C631.989,176.651 631.813,176.732 631.63,176.732C631.63,176.732 630.587,176.756 629.404,176.747C628.382,176.74 627.256,176.711 626.608,176.692C626.267,178.382 624.99,179.243 623.731,179.204C622.454,179.165 621.17,178.232 621.128,176.303C621.128,176.303 618.473,176.137 618.473,176.137C618.398,176.137 618.337,176.071 618.337,175.989C618.337,175.908 618.399,175.842 618.474,175.843Z"/>
                </g>
                <g transform="matrix(-3.73231e-17,-0.759054,-0.565107,4.30911e-17,511.074,647.268)">
                    <path d="M617.552,175.853L621.43,175.63C621.619,175.63 621.773,175.795 621.773,175.999C621.84,177.494 622.778,178.176 623.717,178.121C624.598,178.069 625.442,177.324 625.416,175.991C625.421,175.608 625.71,175.3 626.065,175.3C626.065,175.3 627.456,175.253 628.847,175.251C629.674,175.25 630.501,175.264 631.036,175.276C631.334,173.499 632.632,172.672 633.927,172.764C635.227,172.856 636.539,173.861 636.545,175.732C636.545,175.732 639.802,175.972 639.802,175.972C639.816,175.972 639.828,175.985 639.828,176C639.828,176.015 639.816,176.028 639.802,176.028L636.27,176.288C636.198,176.288 636.13,176.257 636.08,176.203C636.03,176.148 636.002,176.075 636.002,175.998C635.931,174.507 634.906,173.792 633.913,173.831C633.021,173.865 632.191,174.588 632.287,175.977C632.293,176.169 632.226,176.355 632.102,176.493C631.978,176.631 631.808,176.709 631.63,176.709C631.63,176.709 630.239,176.751 628.847,176.749C628.005,176.748 627.163,176.73 626.629,176.716C626.284,178.414 624.998,179.279 623.732,179.244C622.446,179.208 621.149,178.278 621.085,176.35C621.085,176.35 617.552,176.147 617.552,176.147C617.476,176.147 617.415,176.081 617.415,176C617.415,175.919 617.476,175.853 617.552,175.853Z"/>
                </g>
                <g transform="matrix(0.401153,-0.40814,0.327743,0.499559,95.7651,338.907)">
                    <path d="M633.698,204.214L641.682,204.571C642.195,204.592 642.699,204.5 643.172,204.326C643.652,204.15 644.09,203.872 644.473,203.519C644.861,203.161 645.16,202.728 645.377,202.258C645.597,201.782 645.712,201.261 645.734,200.727L645.964,193.091C645.974,192.509 645.734,191.983 645.359,191.595C644.982,191.204 644.45,190.971 643.863,190.96L641.721,190.924C641.423,190.924 641.137,191.048 640.934,191.267C640.73,191.486 640.627,191.779 640.648,192.077C640.742,193.394 640.116,194.138 639.342,194.146C638.544,194.154 637.852,193.417 637.919,192.071C637.938,191.803 637.846,191.539 637.663,191.342C637.48,191.145 637.223,191.033 636.954,191.033L634.789,191.105C634.246,191.128 633.752,191.341 633.41,191.712C633.075,192.076 632.852,192.557 632.875,193.091L632.922,194.24C630.724,194.504 629.801,196.02 629.904,197.489C630.013,199.034 631.275,200.6 633.465,200.294C633.465,200.294 633.658,203.515 633.658,203.515C633.658,203.538 633.676,203.556 633.698,203.556C633.721,203.556 633.739,203.538 633.739,203.515L633.949,200C633.949,199.927 633.918,199.858 633.862,199.81C633.807,199.763 633.734,199.741 633.662,199.752C631.857,199.913 630.888,198.685 630.93,197.47C630.967,196.415 631.866,195.48 633.647,195.691C633.854,195.705 634.057,195.633 634.208,195.492C634.359,195.351 634.445,195.153 634.445,194.946L634.522,193.091C634.525,193.021 634.578,192.971 634.625,192.927C634.666,192.889 634.729,192.892 634.789,192.895C634.789,192.895 635.977,192.934 635.977,192.934C636.159,195.188 637.804,196.281 639.338,196.303C640.863,196.324 642.495,195.28 642.77,193.058C642.77,193.058 643.863,193.04 643.863,193.04C643.863,193.04 643.945,193.091 643.945,193.091C643.945,193.091 644.175,200.727 644.175,200.727C644.189,201.062 644.146,201.393 644.033,201.701C643.917,202.016 643.75,202.313 643.518,202.564C643.282,202.82 643.006,203.032 642.696,203.175C642.379,203.322 642.037,203.415 641.682,203.429L633.698,203.786C633.58,203.786 633.484,203.882 633.484,204C633.484,204.118 633.58,204.214 633.698,204.214Z"/>
                </g>
            </g>
        </g>
    </g>
</svg>
