<?xml version="1.0" encoding="UTF-8" standalone="no"?>
<!DOCTYPE svg PUBLIC "-//W3C//DTD SVG 1.1//EN" "http://www.w3.org/Graphics/SVG/1.1/DTD/svg11.dtd">
<svg width="100%" height="100%" viewBox="0 0 31 32" version="1.1" xmlns="http://www.w3.org/2000/svg" xmlns:xlink="http://www.w3.org/1999/xlink" xml:space="preserve" xmlns:serif="http://www.serif.com/" style="fill-rule:evenodd;clip-rule:evenodd;stroke-linejoin:round;stroke-miterlimit:2;">
    <g transform="matrix(1,0,0,1,-824,-1957)">
        <g id="referral" transform="matrix(0.980729,0,0,0.97115,15.8813,57.891)">
            <rect x="824.41" y="1955.56" width="30.218" height="32.668" style="fill:none;"/>
            <g id="referral1" serif:id="referral" transform="matrix(1.80435,0,0,3.07006,-101.417,1456.78)">
                <g transform="matrix(-0.0927527,0.0158808,0.117904,0.242582,564.487,130.408)">
                    <path d="M560.283,127.845C560.387,127.814 560.499,127.773 560.598,127.749C561.235,127.595 561.799,127.384 562.385,127.134C564.678,126.154 566.499,124.636 568.038,122.754C569.271,121.246 570.192,119.51 570.947,117.622C571.602,115.982 572.215,114.231 572.413,112.405C572.916,109.772 572.703,107.284 572.035,105.066C571.483,103.234 570.66,101.598 569.455,100.222C568.157,98.741 566.564,97.579 564.568,96.836C563.252,96.347 561.91,96.037 560.301,96.014C559.667,96.014 559.152,95.898 559.152,95.754C559.152,95.61 559.667,95.493 560.301,95.493C565.156,95.425 570.415,97.066 574.493,99.924C577.314,101.901 579.694,104.453 581.256,107.364C582.109,108.954 582.631,110.646 582.947,112.405C583.165,114.642 583.034,116.78 582.277,118.738C581.333,121.175 579.563,123.332 577.464,125.063C574.903,127.174 571.553,128.689 568.177,129.437C565.647,129.997 562.958,130.251 560.301,130.236C557.683,130.221 554.991,129.983 552.591,129.405C550.368,128.869 548.151,127.999 546.362,126.818C543.328,124.816 541.104,121.861 540.246,118.373L540.078,117.529C539.938,117.089 541.4,116.706 543.34,116.674C545.28,116.642 546.969,116.974 547.109,117.414L547.521,118.229C548.923,120.909 551.082,123.24 553.64,125.012C555.049,125.987 556.586,126.777 558.213,127.34C558.805,127.545 559.808,127.752 560.283,127.845ZM560.179,127.874C560.108,127.891 560.047,127.896 560.009,127.878C559.979,127.863 560.081,127.869 560.179,127.874Z"/>
                </g>
                <g transform="matrix(-0.0927527,0.0158808,0.117904,0.242582,564.487,130.408)">
                    <path d="M540.903,108.247C542.173,105.119 544.042,102.563 546.463,100.579C549.284,98.268 552.82,96.736 556.925,95.987C557.112,95.95 557.397,95.955 557.56,95.998C557.723,96.04 557.703,96.105 557.515,96.142C553.829,96.927 550.995,98.458 549.033,100.717C547.313,102.698 546.302,105.23 546.065,108.311C545.987,108.634 544.767,108.882 543.343,108.865C541.918,108.847 540.825,108.57 540.903,108.247Z"/>
                </g>
                <g transform="matrix(0.565107,0,0,0.335403,58.0433,22.8485)">
                    <path d="M822.142,419.905C821.152,421.581 819.635,422.932 817.759,424.09C815.394,425.55 812.461,426.68 809.248,427.653C809.246,427.654 809.245,427.654 809.243,427.655C808.516,427.888 807.854,428.268 807.283,428.754C806.708,429.244 806.239,429.854 805.89,430.541C805.542,431.234 805.344,431.984 805.293,432.743C805.241,433.505 805.348,434.277 805.599,435.014C805.597,435.009 806.072,436.365 806.072,436.365C806.072,436.365 806.072,436.365 806.072,436.365C806.602,437.793 807.619,438.918 808.892,439.553C810.146,440.179 811.63,440.352 813.069,439.923C813.071,439.922 813.072,439.922 813.074,439.921C816.095,438.946 819.008,438.252 821.697,438.206C823.756,438.171 825.671,438.503 827.402,439.417C827.42,439.428 827.442,439.422 827.453,439.405C827.463,439.388 827.458,439.365 827.44,439.354C825.774,438.205 823.846,437.618 821.725,437.426C818.945,437.174 815.863,437.623 812.643,438.327C811.634,438.558 810.623,438.359 809.775,437.884C808.946,437.42 808.281,436.663 807.957,435.698L807.479,434.349C807.302,433.864 807.222,433.354 807.242,432.847C807.261,432.336 807.371,431.828 807.588,431.354C807.804,430.875 808.106,430.445 808.481,430.09C808.862,429.732 809.305,429.439 809.803,429.249C813.04,427.992 815.991,426.607 818.304,424.895C820.167,423.516 821.615,421.94 822.489,420.088C822.54,419.993 822.503,419.874 822.407,419.823C822.312,419.772 822.193,419.809 822.142,419.905Z"/>
                </g>
                <g transform="matrix(0.565107,0,0,0.32831,58.0433,25.9657)">
                    <path d="M811.961,440.543C811.961,440.543 812.615,442.705 813.293,444.733C813.505,445.367 813.728,445.973 813.915,446.505C814.173,447.187 814.699,447.676 815.306,447.955C815.927,448.241 816.656,448.242 817.342,447.981L817.74,447.814C818.088,447.656 818.407,447.442 818.654,447.156C818.898,446.873 819.096,446.546 819.206,446.178C819.306,445.813 819.363,445.442 819.311,445.075C819.26,444.716 819.167,444.363 818.975,444.049C818.975,444.049 818.975,444.049 818.975,444.049C818.605,443.481 818.198,442.834 817.775,442.205C816.805,440.764 815.883,439.485 815.883,439.485C815.873,439.466 815.851,439.459 815.833,439.468C815.815,439.477 815.807,439.5 815.816,439.519C815.816,439.519 816.264,441.04 816.811,442.697C817.05,443.42 817.313,444.142 817.536,444.784C817.583,444.908 817.57,445.04 817.565,445.17C817.561,445.289 817.505,445.398 817.453,445.509C817.408,445.613 817.323,445.688 817.244,445.764C817.168,445.837 817.075,445.888 816.976,445.926L816.579,446.096C816.388,446.184 816.184,446.21 815.999,446.146C815.798,446.077 815.596,445.969 815.487,445.764C815.213,445.274 814.906,444.707 814.572,444.131C813.502,442.287 812.317,440.376 812.317,440.376C812.272,440.275 812.155,440.231 812.057,440.278C811.959,440.324 811.916,440.443 811.961,440.543Z"/>
                </g>
                <g transform="matrix(0.105522,-0.329504,0.555167,0.0626293,195.321,407.375)">
                    <path d="M811.629,440.713C811.629,440.713 812.373,442.727 813.099,444.547C813.335,445.141 813.575,445.699 813.77,446.169C814.006,446.712 814.461,447.085 814.969,447.303C815.49,447.526 816.094,447.51 816.664,447.302L817.891,446.81C818.182,446.678 818.449,446.502 818.659,446.269C818.867,446.037 819.04,445.772 819.14,445.471C819.231,445.171 819.29,444.866 819.257,444.561C819.225,444.262 819.163,443.963 819.014,443.695C818.577,442.966 818.033,442.024 817.485,441.149C816.633,439.79 815.853,438.648 815.853,438.648C815.845,438.63 815.823,438.621 815.804,438.63C815.786,438.638 815.777,438.66 815.786,438.679C815.786,438.679 816.117,440.021 816.562,441.562C816.849,442.553 817.189,443.587 817.44,444.399C817.463,444.465 817.442,444.534 817.438,444.602C817.434,444.664 817.391,444.714 817.363,444.771C817.344,444.812 817.305,444.839 817.275,444.872C817.232,444.919 817.173,444.945 817.113,444.968L815.905,445.504C815.802,445.554 815.694,445.59 815.591,445.56C815.472,445.526 815.341,445.489 815.271,445.377C814.993,444.951 814.668,444.438 814.311,443.908C813.219,442.281 811.976,440.529 811.976,440.529C811.925,440.434 811.807,440.397 811.711,440.447C811.615,440.498 811.578,440.617 811.629,440.713Z"/>
                </g>
                <g transform="matrix(-0.157324,0.139819,0.245864,0.0974531,583.337,78.2092)">
                    <path d="M564.721,95.263C566.943,95.684 568.921,96.538 570.63,97.704C571.234,98.116 571.789,98.573 572.308,99.059C572.839,99.557 573.328,100.086 573.757,100.646C574.198,101.223 574.58,101.829 574.898,102.449C575.23,103.096 575.491,103.753 575.696,104.411C575.958,105.252 576.136,106.072 576.213,106.876C576.343,108.243 576.218,109.487 575.852,110.558C575.848,110.577 575.829,110.59 575.809,110.586C575.789,110.582 575.776,110.564 575.779,110.545C575.843,109.478 575.615,108.318 575.182,107.085C574.936,106.385 574.615,105.687 574.235,104.972C573.941,104.42 573.598,103.882 573.24,103.331C572.9,102.806 572.532,102.285 572.144,101.766C571.766,101.261 571.376,100.754 570.95,100.266C570.321,99.545 569.642,98.854 568.88,98.218C567.635,97.176 566.243,96.264 564.609,95.623C564.506,95.593 564.447,95.488 564.478,95.389C564.508,95.29 564.618,95.234 564.721,95.263Z"/>
                </g>
            </g>
        </g>
    </g>
</svg>
