<?xml version="1.0" encoding="UTF-8" standalone="no"?>
<!DOCTYPE svg PUBLIC "-//W3C//DTD SVG 1.1//EN" "http://www.w3.org/Graphics/SVG/1.1/DTD/svg11.dtd">
<svg width="100%" height="100%" viewBox="0 0 32 32" version="1.1" xmlns="http://www.w3.org/2000/svg" xmlns:xlink="http://www.w3.org/1999/xlink" xml:space="preserve" xmlns:serif="http://www.serif.com/" style="fill-rule:evenodd;clip-rule:evenodd;stroke-linejoin:round;stroke-miterlimit:2;">
    <g transform="matrix(1,0,0,1,-645,-1957)">
        <g id="rocket" transform="matrix(1.00071,0,0,0.999603,-0.4725,1.06315)">
            <rect x="645.215" y="1957.25" width="31.033" height="30.737" style="fill:none;"/>
            <clipPath id="_clip1">
                <rect x="645.215" y="1957.25" width="31.033" height="30.737"/>
            </clipPath>
            <g clip-path="url(#_clip1)">
                <g id="rocket1" serif:id="rocket" transform="matrix(1.76833,0,0,2.98267,-291.664,1455.54)">
                    <g transform="matrix(0.691096,0,0,0.41018,-8.74281,10.2497)">
                        <path d="M783.72,401.836C783.72,401.836 785.16,395.277 791.281,390.793C792.619,389.813 794.183,388.938 796.006,388.242C798.001,387.48 800.308,386.938 802.98,386.747C802.737,388.857 802.264,390.734 801.658,392.414C800.822,394.738 799.713,396.682 798.456,398.299C796.538,400.765 794.318,402.485 792.363,403.655C789.941,405.103 787.94,405.72 787.469,405.854C787.469,405.854 783.748,402.547 783.748,402.547C783.736,402.535 783.717,402.536 783.706,402.548C783.694,402.56 783.694,402.579 783.706,402.591L787.255,406.265C787.308,406.317 787.384,406.338 787.457,406.323C787.457,406.323 789.8,405.922 792.774,404.396C794.904,403.302 797.352,401.635 799.489,399.143C800.919,397.477 802.214,395.444 803.158,392.97C803.932,390.941 804.449,388.61 804.661,385.962C804.679,385.732 804.597,385.505 804.437,385.34C804.276,385.175 804.051,385.088 803.821,385.1C801.175,385.282 798.857,385.762 796.836,386.473C794.336,387.352 792.285,388.562 790.61,389.924C784.507,394.883 783.405,401.776 783.405,401.776C783.388,401.863 783.445,401.947 783.532,401.964C783.619,401.98 783.703,401.923 783.72,401.836Z"/>
                    </g>
                    <g transform="matrix(0.691096,0,0,0.41018,-8.74281,10.2497)">
                        <path d="M783.365,402.64C783.365,402.64 781.801,403.593 780.595,405.441C780.241,405.982 779.936,406.599 779.71,407.286C779.503,407.918 779.394,408.61 779.361,409.344C779.359,409.741 779.642,410.083 780.033,410.154C780.494,410.223 780.951,410.243 781.397,410.174C782.044,410.074 782.662,409.848 783.227,409.536C783.785,409.227 784.288,408.861 784.722,408.468C785.824,407.472 786.459,406.455 786.459,406.455C786.47,406.443 786.469,406.424 786.456,406.413C786.444,406.401 786.425,406.403 786.413,406.415C786.413,406.415 785.089,407.484 783.366,408.157C782.774,408.388 782.142,408.545 781.489,408.603C781.331,408.617 781.173,408.624 781.014,408.622C781.04,408.292 781.089,407.974 781.151,407.667C781.273,407.061 781.438,406.501 781.645,405.99C782.411,404.097 783.565,402.891 783.565,402.891C783.634,402.836 783.646,402.735 783.591,402.666C783.535,402.597 783.434,402.585 783.365,402.64Z"/>
                    </g>
                    <g transform="matrix(1.69718e-16,-0.41018,-0.691096,-1.10317e-16,813.428,498.224)">
                        <path d="M791.682,405.51C791.682,405.51 792.21,406.498 791.962,407.739C791.886,408.117 791.731,408.506 791.473,408.897C791.771,408.919 792.064,408.903 792.35,408.864C792.734,408.811 793.099,408.692 793.452,408.54C793.751,408.411 794.036,408.25 794.31,408.07C794.591,407.886 794.863,407.689 795.113,407.464C795.78,406.862 796.318,406.145 796.599,405.356C796.918,404.46 796.965,403.542 796.533,402.69C796.523,402.676 796.526,402.657 796.54,402.648C796.554,402.638 796.573,402.641 796.582,402.655C797.305,403.432 797.546,404.434 797.463,405.484C797.428,405.927 797.316,406.362 797.158,406.797C796.939,407.398 796.602,407.963 796.187,408.476C795.911,408.818 795.592,409.126 795.24,409.391C794.881,409.661 794.484,409.879 794.068,410.041C793.56,410.239 793.022,410.36 792.471,410.373C791.7,410.391 790.907,410.231 790.131,409.827C789.934,409.742 789.797,409.559 789.772,409.346C789.746,409.133 789.835,408.923 790.006,408.794C790.64,408.407 791.009,407.959 791.207,407.503C791.628,406.531 791.385,405.632 791.385,405.632C791.352,405.55 791.391,405.457 791.473,405.423C791.554,405.389 791.648,405.428 791.682,405.51Z"/>
                    </g>
                    <g transform="matrix(0.691096,-1.7608e-16,3.12821e-16,0.41018,-8.87368,10.1917)">
                        <path d="M791.385,405.632C791.385,405.632 791.628,406.531 791.207,407.503C791.009,407.959 790.64,408.407 790.006,408.794C789.835,408.923 789.746,409.133 789.772,409.346C789.797,409.559 789.934,409.742 790.131,409.827C790.907,410.231 791.7,410.391 792.471,410.373C793.022,410.36 793.56,410.239 794.068,410.041C794.484,409.879 794.881,409.661 795.24,409.391C795.592,409.126 795.911,408.818 796.187,408.476C796.602,407.963 796.939,407.398 797.158,406.797C797.316,406.362 797.428,405.927 797.463,405.484C797.546,404.434 797.305,403.432 796.582,402.655C796.573,402.641 796.554,402.638 796.54,402.648C796.526,402.657 796.523,402.676 796.533,402.69C796.965,403.542 796.918,404.46 796.599,405.356C796.318,406.145 795.78,406.862 795.113,407.464C794.863,407.689 794.591,407.886 794.31,408.07C794.036,408.25 793.751,408.411 793.452,408.54C793.099,408.692 792.734,408.811 792.35,408.864C792.064,408.903 791.771,408.919 791.472,408.897C791.731,408.506 791.886,408.117 791.962,407.739C792.21,406.498 791.682,405.51 791.682,405.51C791.648,405.428 791.554,405.389 791.473,405.423C791.391,405.457 791.352,405.55 791.385,405.632Z"/>
                    </g>
                    <g transform="matrix(-0.0722549,-0.0361541,0.0635749,-0.0447578,574.199,197.286)">
                        <path d="M560.301,96.316C564.792,96.68 568.622,98.782 571.354,101.814C573.91,104.65 575.351,108.374 575.09,112.405C574.974,116.266 573.139,119.64 570.479,122.158C567.836,124.66 564.306,126.355 560.301,126.419C556.199,126.567 552.336,125.147 549.48,122.689C546.512,120.135 544.547,116.556 544.529,112.469C544.481,108.137 545.726,104.521 548.189,101.753C550.673,98.96 554.297,97.014 558.943,96.015C559.068,95.995 559.152,95.881 559.131,95.761C559.11,95.641 558.992,95.56 558.867,95.58C553.834,96.121 549.79,97.834 546.832,100.519C543.666,103.392 541.8,107.386 541.314,112.341C540.843,117.493 542.892,122.236 546.353,125.757C549.847,129.311 554.857,131.499 560.301,131.695C565.888,131.784 571.052,129.731 574.695,126.197C578.326,122.677 580.429,117.739 580.269,112.405C579.934,107.23 577.619,102.595 573.82,99.452C570.203,96.461 565.432,94.775 560.301,95.192C559.977,95.192 559.714,95.444 559.714,95.754C559.714,96.064 559.977,96.316 560.301,96.316Z"/>
                    </g>
                    <g transform="matrix(-0.0143929,-0.00720177,0.0126639,-0.0089156,543.401,179.426)">
                        <path d="M558.929,95.245C558.89,95.243 558.849,95.246 558.809,95.252C553.445,95.406 549.169,96.991 545.807,99.587C542.034,102.5 539.874,106.796 538.887,112.245C537.906,118.214 540.224,123.725 543.992,128.074C547.875,132.554 553.831,135.093 560.301,135.678C567.085,135.951 573.404,133.496 577.879,129.248C579.259,127.938 580.461,126.442 581.381,124.792C583.437,121.101 584.594,116.875 584.18,112.405C583.947,110.579 583.72,108.816 583.037,107.178C581.432,103.329 579.146,99.922 575.681,97.669C571.22,94.767 565.986,93.184 560.301,94.343C559.675,94.343 559.141,94.717 558.929,95.245ZM558.969,96.353C554.589,97.668 551.38,99.814 549.214,102.684C547.204,105.348 546.595,108.666 546.956,112.566C547.209,115.877 549.3,118.447 551.841,120.373C554.136,122.112 557.187,122.718 560.301,122.436C563.117,122.323 565.419,120.852 567.296,119.107C569.221,117.317 570.972,115.17 571.18,112.405C571.704,109.176 571.288,106.094 569.493,103.598C567.284,100.526 564.405,98.001 560.301,97.164C559.712,97.164 559.203,96.832 558.969,96.353Z"/>
                    </g>
                    <g transform="matrix(-0.818141,0.475713,-0.362696,-0.223494,965.584,-50.8255)">
                        <path d="M491.175,59.999C491.175,59.999 491.17,58.499 491.131,56.799C491.079,54.565 490.974,52 490.974,52C490.973,51.893 490.933,51.806 490.885,51.806C490.836,51.807 490.797,51.894 490.797,52C490.797,52 490.717,54.567 490.687,56.801C490.664,58.501 490.674,60.001 490.674,60.001C490.676,60.304 490.789,60.55 490.927,60.549C491.066,60.548 491.177,60.302 491.175,59.999Z"/>
                    </g>
                    <g transform="matrix(0.792928,-0.490524,0.48564,0.27954,119.308,400.234)">
                        <path d="M491.175,59.999C491.175,59.999 491.17,58.499 491.131,56.799C491.079,54.568 490.974,52 490.974,52C490.973,51.917 490.934,51.85 490.885,51.85C490.836,51.851 490.797,51.918 490.797,52C490.797,52 490.717,54.57 490.687,56.801C490.664,58.501 490.674,60.001 490.674,60.001C490.675,60.235 490.788,60.425 490.927,60.424C491.065,60.424 491.176,60.233 491.175,59.999Z"/>
                    </g>
                    <g transform="matrix(0.647559,0.00551948,0.0724112,0.386563,-9.98345,3.73628)">
                        <path d="M798.448,428.658L799.584,427.624C799.774,427.451 799.804,427.176 799.652,427.009C799.5,426.842 799.223,426.847 799.034,427.019L797.897,428.053C797.708,428.225 797.678,428.5 797.83,428.667C797.981,428.834 798.258,428.83 798.448,428.658Z"/>
                    </g>
                </g>
            </g>
        </g>
    </g>
</svg>
