<?xml version="1.0" encoding="UTF-8" standalone="no"?>
<!DOCTYPE svg PUBLIC "-//W3C//DTD SVG 1.1//EN" "http://www.w3.org/Graphics/SVG/1.1/DTD/svg11.dtd">
<svg width="100%" height="100%" viewBox="0 0 33 31" version="1.1" xmlns="http://www.w3.org/2000/svg" xmlns:xlink="http://www.w3.org/1999/xlink" xml:space="preserve" xmlns:serif="http://www.serif.com/" style="fill-rule:evenodd;clip-rule:evenodd;stroke-linejoin:round;stroke-miterlimit:2;">
    <g transform="matrix(1,0,0,1,-812,-1793)">
        <g id="ic_category_space_and_vehicle_emergency_funds" transform="matrix(1.00192,0,0,0.999957,-1.59371,-0.641443)">
            <rect x="812.689" y="1794.41" width="31.811" height="29.672" style="fill:none;"/>
            <g transform="matrix(0.998082,0,0,1.00004,1.59065,-0.111682)">
                <g transform="matrix(0.809808,0,0,1.94473,448.836,1469.71)">
                    <path d="M482.546,181.788C481.757,181.778 479.807,181.753 477.289,181.734C475.625,181.721 473.715,181.711 471.725,181.708C469.519,181.705 467.217,181.712 465.05,181.719C460.6,181.732 456.721,181.755 455.412,181.763L455.372,180.574C455.368,180.456 455.475,180.348 455.657,180.269C455.842,180.189 456.099,180.137 456.387,180.134C456.387,180.134 479.207,179.899 479.207,179.899C479.219,179.899 479.228,179.895 479.228,179.89C479.228,179.886 479.218,179.882 479.207,179.882L456.381,179.802C455.869,179.801 455.407,179.888 455.068,180.026C454.727,180.165 454.517,180.359 454.51,180.574C454.51,180.574 454.464,181.924 454.464,181.924C454.463,181.956 454.48,181.987 454.507,182.016C454.535,182.044 454.578,182.07 454.631,182.093C454.684,182.116 454.748,182.133 454.817,182.145C454.885,182.157 454.96,182.163 455.036,182.163C455.036,182.163 455.036,182.163 455.036,182.163C455.721,182.166 460.021,182.194 465.05,182.209C467.217,182.216 469.519,182.224 471.725,182.22C473.715,182.217 475.625,182.207 477.289,182.194C480.223,182.172 482.385,182.142 482.852,182.137C482.852,182.137 482.852,182.137 482.852,182.137C482.992,182.135 483.121,182.114 483.211,182.074C483.299,182.035 483.361,181.983 483.357,181.925L483.238,180.506C483.23,180.408 483.179,180.314 483.083,180.227C482.988,180.141 482.857,180.062 482.687,179.996C482.52,179.932 482.327,179.881 482.117,179.849C481.91,179.817 481.688,179.801 481.463,179.805L479.673,179.84C479.604,179.84 479.548,179.863 479.548,179.892C479.548,179.921 479.605,179.944 479.674,179.944L481.464,179.976C481.632,179.978 481.794,179.996 481.944,180.024C482.091,180.052 482.223,180.093 482.336,180.143C482.446,180.193 482.527,180.251 482.583,180.313C482.637,180.374 482.659,180.44 482.653,180.506L482.546,181.788Z"/>
                </g>
                <g transform="matrix(1.02154,0,0,1.02154,-42.6777,1466.73)">
                    <path d="M844.329,345.024C844.329,345.024 844.94,342.967 845.667,340.428C846.33,338.112 847.081,335.405 847.611,333.521C847.745,333.023 848.055,332.616 848.445,332.324C848.824,332.041 849.298,331.894 849.798,331.907C849.798,331.907 849.798,331.907 849.798,331.907C850.714,331.921 851.798,331.952 852.882,331.954C853.967,331.957 855.052,331.931 855.966,331.921C856.458,331.904 856.928,332.041 857.305,332.315C857.695,332.599 858.011,332.995 858.151,333.485C858.539,334.766 859.029,336.431 859.546,338.097C860.62,341.558 861.739,344.989 861.739,344.989C861.743,345.008 861.763,345.02 861.782,345.015C861.802,345.011 861.814,344.991 861.809,344.972C861.809,344.972 861.225,341.411 860.588,337.843C860.281,336.126 859.951,334.422 859.706,333.107C859.529,332.226 859.043,331.475 858.394,330.926C857.732,330.367 856.878,330.051 855.963,330.022C855.963,330.022 855.963,330.022 855.963,330.022C855.048,330.016 853.964,329.994 852.879,330C851.794,330.006 850.711,330.041 849.795,330.058C848.879,330.086 848.025,330.407 847.365,330.968C846.714,331.52 846.232,332.277 846.059,333.161C845.708,335.087 845.193,337.849 844.772,340.221C844.309,342.821 843.955,344.937 843.955,344.937C843.931,345.04 843.995,345.143 844.098,345.167C844.202,345.191 844.305,345.127 844.329,345.024Z"/>
                </g>
                <g transform="matrix(-0.00370977,1.69295,-0.758963,-0.00827504,885.607,979.351)">
                    <path d="M491.225,59.999C491.225,59.999 491.22,58.498 491.175,56.799C491.114,54.562 490.991,51.999 490.991,51.999C490.991,51.869 490.943,51.764 490.884,51.764C490.826,51.764 490.779,51.87 490.78,52.001C490.78,52.001 490.682,54.564 490.643,56.801C490.614,58.501 490.625,60.001 490.625,60.001C490.626,60.371 490.762,60.67 490.928,60.669C491.094,60.668 491.226,60.368 491.225,59.999Z"/>
                </g>
                <g transform="matrix(-0.00370977,1.69295,-0.758963,-0.00827504,877.055,985.649)">
                    <path d="M491.652,53.01C491.652,53.01 491.018,53.26 490.311,53.662C489.377,54.193 488.328,54.955 488.328,54.955C488.251,54.987 488.201,55.151 488.216,55.321C488.23,55.492 488.304,55.605 488.381,55.574C488.381,55.574 489.485,55.457 490.445,55.215C491.17,55.032 491.802,54.765 491.802,54.765C492.019,54.677 492.162,54.211 492.12,53.727C492.078,53.243 491.869,52.921 491.652,53.01Z"/>
                </g>
                <g transform="matrix(0.00370977,1.69295,0.758963,-0.00827504,771.582,979.351)">
                    <path d="M490.625,60.001C490.625,60.001 490.614,58.501 490.643,56.801C490.682,54.564 490.78,52.001 490.78,52.001C490.779,51.87 490.826,51.764 490.884,51.764C490.943,51.764 490.991,51.869 490.991,51.999C490.991,51.999 491.114,54.562 491.175,56.799C491.22,58.498 491.225,59.999 491.225,59.999C491.226,60.368 491.094,60.668 490.928,60.669C490.762,60.67 490.626,60.371 490.625,60.001Z"/>
                </g>
                <g transform="matrix(1.21455,1.17939,-0.501086,0.506248,269.206,1193.81)">
                    <path d="M491.225,60.009C491.225,60.009 491.23,58.505 491.195,56.801C491.148,54.557 491.041,51.986 491.041,51.986C491.041,51.847 490.994,51.733 490.936,51.732C490.877,51.73 490.83,51.841 490.83,51.98C490.83,51.98 490.716,54.544 490.663,56.785C490.624,58.487 490.625,59.991 490.625,59.991C490.624,60.384 490.758,60.708 490.924,60.713C491.089,60.718 491.224,60.403 491.225,60.009Z"/>
                </g>
                <g transform="matrix(1.21455,1.17939,-0.501086,0.506248,261.903,1190.36)">
                    <path d="M491.626,59.686C491.626,59.686 491.181,58.598 490.649,57.433C489.947,55.899 489.105,54.233 489.105,54.233C489.064,54.133 488.997,54.131 488.956,54.227C488.914,54.324 488.914,54.483 488.955,54.583C488.955,54.583 489.639,56.615 490.271,58.313C490.751,59.601 491.2,60.68 491.2,60.68C491.316,60.962 491.506,60.969 491.624,60.694C491.742,60.42 491.743,59.968 491.626,59.686Z"/>
                </g>
                <g transform="matrix(1.21455,1.17939,-0.501086,0.506248,254.424,1193.23)">
                    <path d="M491.63,58.794C491.63,58.794 490.998,58.761 490.282,58.819C489.339,58.896 488.259,59.113 488.259,59.113C488.201,59.111 488.153,59.221 488.153,59.36C488.152,59.499 488.199,59.613 488.258,59.616C488.258,59.616 489.336,59.924 490.278,60.081C490.993,60.2 491.625,60.22 491.625,60.22C491.791,60.227 491.926,59.913 491.928,59.52C491.929,59.126 491.796,58.801 491.63,58.794Z"/>
                </g>
                <g transform="matrix(0.709587,0,0,0.739239,227.414,1587.58)">
                    <path d="M853.314,300C853.791,300 854.178,300.372 854.178,300.829C854.178,301.287 853.791,301.658 853.314,301.658C852.837,301.658 852.45,301.287 852.45,300.829C852.45,300.372 852.837,300 853.314,300ZM853.314,300.836L853.324,300.844C853.342,300.863 853.342,300.916 853.314,300.919C853.249,300.929 853.182,300.992 853.139,300.951C853.097,300.91 853.022,300.89 853.012,300.829C852.995,300.728 852.963,300.626 853.021,300.548C853.095,300.449 853.179,300.345 853.314,300.323L853.314,300.836ZM853.314,300.836L853.314,300.916L853.268,300.829C853.267,300.812 853.296,300.824 853.314,300.836Z" style="fill:none;"/>
                </g>
                <g transform="matrix(0.709587,0,0,0.739239,227.414,1587.58)">
                    <ellipse cx="853.314" cy="300.829" rx="0.864" ry="0.829"/>
                </g>
            </g>
        </g>
    </g>
</svg>
