<?xml version="1.0" encoding="UTF-8" standalone="no"?>
<!DOCTYPE svg PUBLIC "-//W3C//DTD SVG 1.1//EN" "http://www.w3.org/Graphics/SVG/1.1/DTD/svg11.dtd">
<svg width="100%" height="100%" viewBox="0 0 32 32" version="1.1" xmlns="http://www.w3.org/2000/svg" xmlns:xlink="http://www.w3.org/1999/xlink" xml:space="preserve" xmlns:serif="http://www.serif.com/" style="fill-rule:evenodd;clip-rule:evenodd;stroke-linejoin:round;stroke-miterlimit:2;">
    <g transform="matrix(1,0,0,1,-680,-2049)">
        <g id="spending-behaviour" serif:id="spending behaviour" transform="matrix(0.840902,0,0,0.842875,110.989,324.679)">
            <rect x="677.178" y="2046.3" width="37.349" height="37.409" style="fill:none;"/>
            <g transform="matrix(2.10438,0,0,3.53728,-476.031,1489.39)">
                <g transform="matrix(-0.251607,0,0,0.149334,772.827,97.6571)">
                    <path d="M866.839,439.364L866.801,443.085C866.786,443.908 866.461,444.658 865.917,445.197C865.378,445.73 864.646,446.076 863.83,446.083C863.417,446.088 863.021,446.073 862.598,446.034C862.225,445.999 861.829,445.948 861.373,445.88L861.583,447.032C861.585,447.046 861.585,447.06 861.586,447.074C861.588,447.247 861.564,447.419 861.499,447.575C861.435,447.732 861.348,447.88 861.224,448.001C861.102,448.121 860.963,448.222 860.806,448.284C860.65,448.345 860.484,448.385 860.313,448.38C860.317,448.38 851.42,448.097 851.42,448.097C851.214,448.097 851.023,447.985 850.924,447.804C850.824,447.623 850.83,447.403 850.94,447.228C851.242,446.786 851.323,446.353 851.304,445.915C851.269,445.065 850.955,444.212 850.979,443.322C850.979,443.315 850.979,443.308 850.979,443.3C850.987,443.2 850.975,443.1 850.931,443.014C850.886,442.924 850.822,442.841 850.733,442.786C850.729,442.784 850.725,442.782 850.721,442.78C849.7,442.094 848.75,441.096 848.047,439.959C847.341,438.817 846.883,437.545 846.838,436.343C846.836,436.32 846.853,436.3 846.876,436.298C846.899,436.296 846.919,436.314 846.92,436.336C847.065,437.493 847.617,438.68 848.39,439.727C849.136,440.735 850.089,441.606 851.095,442.172C851.299,442.276 851.468,442.449 851.59,442.648C851.713,442.85 851.772,443.088 851.772,443.334C851.827,444.362 852.338,445.326 852.325,446.333C852.322,446.532 852.301,446.732 852.256,446.934L859.731,446.682C859.627,446.312 859.486,445.982 859.44,445.676C859.403,445.428 859.415,445.189 859.463,444.955C859.479,444.886 859.504,444.819 859.535,444.756C859.674,444.458 859.91,444.232 860.183,444.079C860.458,443.926 860.782,443.871 861.11,443.909C861.751,443.984 862.264,444.035 862.736,444.057L863.769,444.052C864.026,444.039 864.247,443.91 864.41,443.735C864.567,443.566 864.65,443.334 864.645,443.085L864.602,439.009C864.6,438.488 864.812,438.015 865.153,437.673C865.495,437.33 865.968,437.119 866.49,437.12L866.747,437.12C866.747,437.12 865.045,433.864 865.045,433.864C864.969,433.72 864.926,433.561 864.92,433.399C864.843,427.179 860.178,424.232 855.688,424.493C851.132,424.757 846.79,428.24 847.022,434.95C847.03,435.071 846.938,435.176 846.816,435.184C846.695,435.192 846.59,435.1 846.582,434.978C845.871,427.638 850.585,423.624 855.567,423.07C860.866,422.48 866.488,425.794 867.025,433.061C867.025,433.058 869.58,437.714 869.58,437.714C869.766,438.061 869.756,438.479 869.554,438.817C869.352,439.154 868.987,439.36 868.594,439.36L866.839,439.364Z"/>
                </g>
                <g transform="matrix(0.185779,0,0,0.110264,439.753,118.963)">
                    <path d="M604,369C604,368.448 603.552,368 603,368L601,368C600.448,368 600,368.448 600,369L600,371C600,371.552 600.448,372 601,372L603,372C603.552,372 604,371.552 604,371L604,369ZM602.229,370.29L602.012,369.107L603,368.715C603.216,368.617 603.384,368.473 603.576,368.582C603.764,368.688 603.903,368.788 604,369L603.126,371C603.093,371.078 602.958,371.007 602.911,370.944C602.89,370.916 602.83,370.875 602.861,370.861C602.894,370.846 602.815,370.767 602.851,370.76C602.949,370.74 602.899,370.479 603,370.516L602.229,370.29ZM602.275,370.92L602.271,370.849L602.279,370.936L602.278,370.997L602.275,370.92ZM601.044,369.939C601.353,369.986 601.69,369.905 601.866,370.134L601.915,370.199L601.04,369.943L601.044,369.939ZM601.979,369.12C601.92,369.284 601.638,369.369 601.544,369.544C601.516,369.597 601.462,369.597 601.399,369.583L601.787,369.196L601.979,369.12Z" style="fill:none;"/>
                </g>
                <g transform="matrix(0.185779,0,0,0.110264,441.487,118.963)">
                    <path d="M604,369C604,368.448 603.552,368 603,368L601,368C600.448,368 600,368.448 600,369L600,371C600,371.552 600.448,372 601,372L603,372C603.552,372 604,371.552 604,371L604,369ZM602.229,370.29L602.012,369.107L603,368.715C603.216,368.617 603.384,368.473 603.576,368.582C603.764,368.688 603.903,368.788 604,369L603.126,371C603.093,371.078 602.958,371.007 602.911,370.944C602.89,370.916 602.83,370.875 602.861,370.861C602.894,370.846 602.815,370.767 602.851,370.76C602.949,370.74 602.899,370.479 603,370.516L602.229,370.29ZM602.275,370.92L602.271,370.849L602.279,370.936L602.278,370.997L602.275,370.92ZM601.704,370.013C601.766,370.038 601.821,370.076 601.866,370.134L601.915,370.199L601.638,370.118C601.661,370.083 601.683,370.049 601.704,370.013Z" style="fill:none;"/>
                </g>
                <g transform="matrix(0.185779,0,0,0.110264,441.487,119.762)">
                    <path d="M604,369C604,368.448 603.552,368 603,368L601,368C600.448,368 600,368.448 600,369L600,371C600,371.552 600.448,372 601,372L603,372C603.552,372 604,371.552 604,371L604,369ZM602.229,370.29L602.012,369.107L603,368.715C603.216,368.617 603.384,368.473 603.576,368.582C603.764,368.688 603.903,368.788 604,369L603.126,371C603.093,371.078 602.958,371.007 602.911,370.944C602.89,370.916 602.83,370.875 602.861,370.861C602.894,370.846 602.815,370.767 602.851,370.76C602.949,370.74 602.899,370.479 603,370.516L602.229,370.29ZM602.275,370.92L602.271,370.849L602.279,370.936L602.278,370.997L602.275,370.92ZM601.704,370.013C601.766,370.038 601.821,370.076 601.866,370.134L601.915,370.199L601.638,370.118C601.661,370.083 601.683,370.049 601.704,370.013Z" style="fill:none;"/>
                </g>
                <g transform="matrix(0.185779,0,0,0.110264,439.753,119.762)">
                    <path d="M604,369C604,368.448 603.552,368 603,368L601,368C600.448,368 600,368.448 600,369L600,371C600,371.552 600.448,372 601,372L603,372C603.552,372 604,371.552 604,371L604,369ZM602.229,370.29L602.012,369.107L603,368.715C603.216,368.617 603.384,368.473 603.576,368.582C603.764,368.688 603.903,368.788 604,369L603.126,371C603.093,371.078 602.958,371.007 602.911,370.944C602.89,370.916 602.83,370.875 602.861,370.861C602.894,370.846 602.815,370.767 602.851,370.76C602.949,370.74 602.899,370.479 603,370.516L602.229,370.29ZM602.275,370.92L602.271,370.849L602.279,370.936L602.278,370.997L602.275,370.92ZM601.044,369.939C601.353,369.986 601.69,369.905 601.866,370.134L601.915,370.199L601.04,369.943L601.044,369.939ZM601.979,369.12C601.92,369.284 601.638,369.369 601.544,369.544C601.516,369.597 601.462,369.597 601.399,369.583L601.787,369.196L601.979,369.12Z" style="fill:none;"/>
                </g>
                <g transform="matrix(0.565107,0,0,0.335403,74.7739,17.8097)">
                    <path d="M844.154,437.625C844.158,437.62 844.158,437.617 844.156,437.616C844.138,437.603 844.143,437.611 844.154,437.625C844.149,437.633 844.136,437.645 844.126,437.66C844.07,437.742 843.956,437.903 843.83,438.105C843.763,438.213 843.695,438.327 843.634,438.443C843.582,438.545 843.533,438.645 843.5,438.737C843.45,438.876 843.432,438.993 843.416,439.051C843.411,439.078 843.401,439.103 843.401,439.13C843.402,439.158 843.397,439.183 843.403,439.21C843.416,439.27 843.437,439.377 843.467,439.496C843.495,439.607 843.635,439.772 843.55,439.797C843.462,439.822 843.598,439.935 843.598,439.935C843.598,439.935 843.673,439.716 843.729,439.496L843.794,439.21L843.811,439.206C843.84,439.153 843.906,439.056 843.964,438.92C844.003,438.83 844.035,438.724 844.066,438.614C844.102,438.487 844.129,438.358 844.154,438.232C844.2,437.999 844.226,437.803 844.242,437.706C844.244,437.691 844.244,437.676 844.244,437.665C844.257,437.66 844.265,437.655 844.25,437.653C844.246,437.652 844.245,437.657 844.244,437.665C844.228,437.672 844.205,437.678 844.205,437.678C844.261,437.621 844.248,437.593 844.223,437.583C844.198,437.573 844.169,437.585 844.159,437.611L844.205,437.678C844.205,437.678 844.172,437.645 844.154,437.625ZM843.598,439.935C843.593,439.935 843.589,439.931 843.598,439.935ZM843.598,439.935C843.603,439.935 843.608,439.931 843.608,439.926L843.598,439.935Z"/>
                </g>
                <g transform="matrix(-0.565107,0,0,0.335403,1029.93,17.7991)">
                    <path d="M843.598,440.105C843.598,440.105 843.598,440.105 843.598,440.105ZM843.598,440.105C843.593,440.105 843.589,440.101 843.589,440.096L843.598,440.105ZM844.244,437.666C844.244,437.657 844.246,437.652 844.25,437.652C844.265,437.655 844.257,437.661 844.244,437.666C844.243,437.676 844.243,437.691 844.241,437.705C844.224,437.802 844.194,437.998 844.147,438.23C844.121,438.355 844.093,438.484 844.059,438.611C844.029,438.722 843.998,438.828 843.964,438.92C843.944,438.976 843.923,439.026 843.902,439.069C843.872,439.133 843.843,439.181 843.826,439.212L843.815,439.21C843.798,439.292 843.768,439.471 843.725,439.653C843.669,439.893 843.598,440.105 843.598,440.105C843.598,440.105 843.527,439.893 843.471,439.653C843.429,439.471 843.398,439.292 843.382,439.21C843.378,439.182 843.382,439.155 843.384,439.127C843.385,439.099 843.395,439.072 843.401,439.045C843.411,439.01 843.422,438.956 843.444,438.888C843.458,438.843 843.477,438.791 843.5,438.737C843.539,438.647 843.587,438.548 843.641,438.446C843.703,438.33 843.771,438.217 843.838,438.108C843.961,437.906 844.072,437.742 844.126,437.66C844.141,437.638 844.151,437.623 844.156,437.616C844.17,437.595 844.181,437.607 844.19,437.626C844.182,437.581 844.204,437.575 844.223,437.583C844.248,437.593 844.261,437.621 844.251,437.647L844.205,437.678C844.205,437.678 844.228,437.672 844.244,437.666Z"/>
                </g>
                <g transform="matrix(-0.145787,0.109639,-0.192795,-0.0903069,655.753,108.694)">
                    <path d="M568.32,97.693C571.033,99.156 573.273,101.343 574.811,103.96C576.28,106.46 577.1,109.357 577.026,112.405C576.989,114.57 576.494,116.624 575.653,118.497C574.786,120.428 573.537,122.161 572.001,123.616C570.773,124.781 569.36,125.764 567.809,126.529C565.555,127.64 563.008,128.292 560.301,128.31C555.717,128.365 551.451,126.634 548.343,123.806C545.172,120.921 543.195,116.899 543.316,112.421C543.398,109.187 544.208,106.356 545.64,103.975C547.179,101.414 549.431,99.373 552.266,97.913C552.298,97.897 552.31,97.86 552.294,97.829C552.277,97.799 552.238,97.787 552.207,97.802C549.266,99.189 546.901,101.191 545.239,103.744C543.67,106.154 542.732,109.053 542.528,112.39C542.243,117.144 544.211,121.485 547.491,124.641C550.762,127.789 555.344,129.745 560.301,129.804C563.273,129.824 566.09,129.166 568.572,127.959C570.283,127.126 571.836,126.034 573.173,124.739C574.838,123.126 576.173,121.198 577.066,119.059C577.925,117.004 578.373,114.755 578.333,112.405C578.255,109.163 577.259,106.112 575.556,103.533C573.82,100.907 571.367,98.773 568.474,97.413C568.393,97.373 568.293,97.402 568.251,97.479C568.208,97.557 568.239,97.652 568.32,97.693Z"/>
                </g>
                <g transform="matrix(-0.145787,-0.109639,-0.192795,0.0903069,655.658,216.742)">
                    <path d="M569.874,98.203C572.376,99.676 574.472,101.756 575.948,104.228C577.395,106.651 578.232,109.447 578.307,112.405C578.358,115.236 577.696,117.922 576.471,120.3C575.623,121.945 574.502,123.441 573.169,124.735C571.834,126.032 570.283,127.127 568.573,127.96C566.091,129.171 563.274,129.83 560.301,129.812C555.341,129.753 550.758,127.796 547.486,124.646C544.205,121.488 542.237,117.146 542.522,112.389C542.728,109.052 543.666,106.152 545.236,103.743C546.899,101.19 549.265,99.188 552.207,97.802C552.238,97.787 552.277,97.799 552.294,97.829C552.31,97.86 552.298,97.897 552.266,97.913C549.432,99.374 547.18,101.415 545.642,103.976C544.212,106.357 543.403,109.188 543.322,112.421C543.201,116.898 545.178,120.917 548.348,123.8C551.456,126.627 555.72,128.356 560.301,128.302C563.007,128.285 565.553,127.635 567.808,126.527C569.36,125.764 570.775,124.783 572.005,123.62C573.238,122.454 574.287,121.112 575.103,119.63C576.296,117.467 577.006,115.017 577.052,112.405C577.123,109.618 576.447,106.956 575.212,104.607C573.919,102.146 572.023,100.025 569.693,98.468C569.617,98.42 569.595,98.322 569.645,98.249C569.695,98.176 569.798,98.155 569.874,98.203Z"/>
                </g>
                <g transform="matrix(0.145787,-0.109639,0.192795,0.0903069,458.089,216.754)">
                    <path d="M569.693,98.468C572.023,100.025 573.919,102.146 575.212,104.607C576.447,106.956 577.123,109.618 577.052,112.405C577.006,115.017 576.296,117.467 575.103,119.63C574.287,121.112 573.238,122.454 572.005,123.62C570.775,124.783 569.36,125.764 567.808,126.527C565.553,127.635 563.007,128.285 560.301,128.302C555.72,128.356 551.456,126.627 548.348,123.8C545.178,120.917 543.201,116.898 543.322,112.421C543.403,109.188 544.212,106.357 545.642,103.976C547.18,101.415 549.432,99.374 552.266,97.913C552.298,97.897 552.31,97.86 552.294,97.829C552.277,97.799 552.238,97.787 552.207,97.802C549.265,99.188 546.899,101.19 545.236,103.743C543.666,106.152 542.728,109.052 542.522,112.389C542.237,117.146 544.205,121.488 547.486,124.646C550.758,127.796 555.341,129.753 560.301,129.812C563.274,129.83 566.091,129.171 568.573,127.96C570.283,127.127 571.834,126.032 573.169,124.735C574.502,123.441 575.623,121.945 576.471,120.3C577.696,117.922 578.358,115.236 578.307,112.405C578.232,109.447 577.395,106.651 575.948,104.228C574.472,101.756 572.376,99.676 569.874,98.203C569.798,98.155 569.695,98.176 569.645,98.249C569.595,98.322 569.617,98.42 569.693,98.468Z"/>
                </g>
                <g transform="matrix(0.145787,0.109639,0.192795,-0.0903069,458.082,108.705)">
                    <path d="M570.903,98.903C573.11,100.424 574.942,102.439 576.229,104.779C577.489,107.07 578.214,109.668 578.286,112.405C578.339,115.234 577.68,117.918 576.459,120.294C575.613,121.939 574.495,123.436 573.164,124.73C571.499,126.349 569.499,127.653 567.274,128.535C565.126,129.385 562.767,129.834 560.301,129.819C555.339,129.76 550.755,127.802 547.481,124.651C544.199,121.491 542.231,117.147 542.517,112.389C542.724,109.051 543.663,106.151 545.234,103.742C546.898,101.189 549.265,99.188 552.207,97.802C552.238,97.787 552.277,97.799 552.294,97.829C552.31,97.86 552.298,97.897 552.266,97.913C549.432,99.375 547.182,101.416 545.644,103.977C544.215,106.358 543.407,109.189 543.326,112.422C543.207,116.896 545.183,120.914 548.352,123.796C551.459,126.621 555.721,128.35 560.301,128.295C562.545,128.281 564.679,127.829 566.63,127.05C568.651,126.242 570.474,125.075 572.01,123.625C573.245,122.459 574.297,121.118 575.115,119.636C576.311,117.472 577.024,115.02 577.073,112.405C577.141,109.82 576.568,107.343 575.504,105.121C574.389,102.794 572.744,100.746 570.702,99.153C570.63,99.1 570.616,99.001 570.672,98.932C570.727,98.863 570.831,98.85 570.903,98.903Z"/>
                </g>
                <g transform="matrix(0.565107,0,0,0.335403,74.7739,17.8028)">
                    <path d="M858.862,422.742L857.128,424.437C856.884,424.678 856.766,424.997 856.755,425.316C856.745,425.644 856.865,425.971 857.1,426.234C857.1,426.234 858.829,428.166 858.829,428.166C859.087,428.45 859.439,428.591 859.794,428.608C860.155,428.624 860.517,428.491 860.804,428.228C861.364,427.703 862.178,426.959 862.891,426.271C863.45,425.732 863.944,425.226 864.244,424.928C864.244,424.928 864.244,424.928 864.244,424.928C864.378,424.791 864.487,424.634 864.558,424.46C864.628,424.287 864.671,424.103 864.671,423.913L864.664,421.381C864.662,421.195 864.598,421.023 864.474,420.902C864.353,420.783 864.193,420.699 864.01,420.701C864.01,420.701 861.224,420.746 861.224,420.746C861.064,420.749 860.907,420.781 860.764,420.846C860.624,420.91 860.495,420.999 860.39,421.115C860.39,421.115 859.404,422.215 859.404,422.215C859.397,422.222 859.397,422.233 859.404,422.241C859.411,422.248 859.423,422.248 859.43,422.241L860.551,421.281C860.643,421.201 860.751,421.145 860.865,421.109C860.975,421.074 861.093,421.065 861.21,421.077L863.983,421.352L863.961,421.355C863.961,421.355 863.762,423.878 863.762,423.878C863.757,423.949 863.733,424.016 863.702,424.079C863.672,424.141 863.627,424.194 863.576,424.241C863.27,424.532 862.75,425.012 862.195,425.555C861.487,426.248 860.721,427.041 860.18,427.586C860.076,427.692 859.943,427.755 859.806,427.757C859.662,427.76 859.514,427.717 859.402,427.609L857.519,425.826C857.369,425.685 857.28,425.501 857.269,425.309C857.258,425.109 857.314,424.902 857.453,424.737C857.453,424.737 859.006,422.875 859.006,422.875C859.042,422.835 859.04,422.773 859,422.736C858.96,422.699 858.898,422.702 858.862,422.742Z"/>
                </g>
                <g transform="matrix(0.953504,-0.175382,-0.207001,0.551778,-110.093,63.1658)">
                    <path d="M798.448,428.658L799.584,427.624C799.681,427.536 799.636,427.329 799.484,427.162C799.332,426.995 799.131,426.931 799.034,427.019L797.897,428.053C797.801,428.141 797.846,428.348 797.998,428.514C798.149,428.681 798.351,428.746 798.448,428.658Z"/>
                </g>
                <g transform="matrix(0.169767,0,0,0.0955894,459.997,142.401)">
                    <path d="M598.474,255.891C596.579,254.445 594.707,252.54 593.073,250.481C591.4,248.372 590.002,246.104 589.154,243.992C589.15,243.982 589.145,243.973 589.141,243.963C588.133,241.644 587.622,239.35 587.558,237.29C587.486,234.969 588.035,232.975 589.319,231.743C589.621,231.449 590.004,231.517 590.403,231.653C591.32,231.964 592.264,232.804 593.219,233.842C594.671,235.42 596.048,237.532 597.041,239.665C597.379,240.363 598.061,240.803 598.805,240.803C599.55,240.803 600.231,240.363 600.57,239.665C601.583,237.565 602.986,235.551 604.435,234.057C605.222,233.246 605.999,232.573 606.766,232.209C607.297,231.957 607.798,231.75 608.192,232.13C608.192,232.13 608.192,232.13 608.192,232.13C609.461,233.34 610.008,235.303 609.946,237.592C609.891,239.645 609.398,241.933 608.405,244.25C608.401,244.26 608.396,244.27 608.392,244.28C607.565,246.408 605.717,249.302 603.605,252.043C601.514,254.757 599.193,257.305 597.285,258.801C597.25,258.825 597.241,258.873 597.263,258.909C597.285,258.945 597.331,258.955 597.365,258.932C599.468,257.673 602.122,255.42 604.54,252.945C607.098,250.327 609.345,247.467 610.461,245.32C612.174,242.17 613.002,238.939 612.999,236.143C612.996,233.425 612.141,231.117 610.661,229.47C609.075,227.725 606.85,227.644 604.467,228.951C603.004,229.754 601.457,231.16 600.065,232.903C599.612,233.469 599.178,234.074 598.767,234.703C597.074,232.195 595.039,230.022 593.138,228.902C590.777,227.511 588.569,227.527 586.998,229.242C585.53,230.867 584.689,233.151 584.676,235.84C584.662,238.623 585.473,241.845 587.176,245.021C588.266,247.173 589.954,249.484 591.951,251.569C593.828,253.529 595.95,255.291 598.045,256.583C598.227,256.707 598.47,256.653 598.588,256.462C598.706,256.271 598.655,256.015 598.474,255.891Z"/>
                </g>
                <g transform="matrix(0.565107,0,0,0.335403,74.7739,17.8028)">
                    <path d="M841.569,439.908L841.595,439.185L841.604,439.173L842.452,437.554C842.688,437.557 843.048,437.561 843.477,437.559C843.835,437.557 844.241,437.55 844.662,437.539C845.254,437.523 845.876,437.499 846.439,437.475C847.209,437.441 847.865,437.403 848.183,437.386L848.939,439.112L848.943,439.107L849.006,440.058C849.006,440.058 848.983,440.142 848.983,440.142L848.898,440.189L847.832,440.267C847.822,440.267 847.814,440.275 847.814,440.285C847.814,440.295 847.822,440.304 847.832,440.304L848.898,440.382C848.941,440.384 848.984,440.376 849.024,440.362C849.065,440.348 849.102,440.324 849.136,440.295C849.169,440.265 849.194,440.228 849.214,440.188C849.234,440.148 849.243,440.103 849.246,440.058C849.246,440.058 849.309,439.107 849.309,439.107C849.309,439.107 849.291,438.983 849.291,438.983L848.736,437.114C848.702,437.001 848.626,436.913 848.538,436.843C848.449,436.773 848.335,436.74 848.216,436.733C847.912,436.718 847.236,436.678 846.439,436.643C845.876,436.619 845.254,436.594 844.662,436.579C844.241,436.568 843.835,436.561 843.477,436.559C842.935,436.556 842.502,436.564 842.293,436.565C842.157,436.567 842.026,436.604 841.916,436.674C841.806,436.745 841.713,436.843 841.655,436.966C841.655,436.966 840.816,438.785 840.816,438.785C840.787,438.848 840.763,438.913 840.75,438.98C840.736,439.047 840.727,439.116 840.729,439.185L840.762,440.097C840.768,440.259 840.828,440.407 840.938,440.509C841.047,440.61 841.19,440.68 841.35,440.674L847.158,440.383C847.212,440.383 847.256,440.339 847.256,440.285C847.256,440.231 847.212,440.187 847.158,440.187L841.569,439.908Z"/>
                </g>
                <g transform="matrix(-0.00270309,0.555849,-0.55301,-0.00271696,584.735,-106.214)">
                    <path d="M491.129,59.999C491.129,59.999 491.124,58.499 491.09,56.799C491.046,54.569 490.958,52 490.958,52C490.957,51.932 490.925,51.878 490.885,51.878C490.845,51.878 490.813,51.933 490.814,52C490.814,52 490.751,54.571 490.728,56.801C490.711,58.501 490.72,60.001 490.72,60.001C490.721,60.192 490.814,60.347 490.926,60.346C491.039,60.345 491.13,60.19 491.129,59.999Z"/>
                </g>
                <g transform="matrix(0.936527,0.000457737,-0.0045777,0.093646,92.8565,160.49)">
                    <path d="M490.859,60.583L490.857,60.583C490.848,60.593 490.872,60.66 490.873,60.662C490.889,60.7 490.905,60.72 490.922,60.727L490.928,60.728C490.996,60.727 491.049,60.401 491.047,59.999L491.047,60L491.047,59.967C491.047,59.92 491.046,59.821 491.045,59.679C491.041,59.15 491.035,58.026 491.018,56.799C490.986,54.561 490.929,52 490.929,52C490.928,51.858 490.908,51.743 490.884,51.743C490.86,51.744 490.842,51.859 490.842,52C490.842,52 490.81,54.562 490.801,56.801C490.795,58.027 490.8,59.151 490.801,59.681C490.801,59.822 490.802,59.921 490.802,59.969C490.803,60.289 490.83,60.476 490.859,60.583Z"/>
                </g>
                <g transform="matrix(0.936527,0.000417185,-0.0045777,0.0853497,91.1457,160.989)">
                    <path d="M490.859,60.64C490.842,60.635 490.883,60.799 490.929,60.798C490.996,60.798 491.049,60.44 491.047,59.999L491.047,60L491.047,59.967C491.047,59.92 491.046,59.821 491.045,59.679C491.041,59.15 491.035,58.026 491.018,56.799C490.986,54.559 490.929,52 490.929,52C490.928,51.844 490.908,51.718 490.884,51.719C490.86,51.719 490.842,51.845 490.842,52C490.842,52 490.81,54.559 490.801,56.801C490.795,58.027 490.8,59.151 490.801,59.681C490.801,59.822 490.802,59.921 490.802,59.969C490.803,60.319 490.83,60.522 490.859,60.64Z"/>
                </g>
                <g transform="matrix(0.936527,0.000511367,-0.0045777,0.104618,94.634,159.847)">
                    <path d="M490.859,60.522L490.857,60.522C490.847,60.531 490.872,60.591 490.873,60.593C490.889,60.627 490.905,60.644 490.922,60.65L490.928,60.651C490.995,60.651 491.049,60.359 491.047,59.999L491.047,60L491.047,59.967C491.047,59.92 491.046,59.821 491.045,59.679C491.041,59.15 491.035,58.026 491.018,56.799C490.986,54.563 490.929,52 490.929,52C490.928,51.873 490.908,51.77 490.884,51.77C490.861,51.77 490.842,51.873 490.842,52C490.842,52 490.81,54.564 490.801,56.801C490.795,58.028 490.8,59.151 490.801,59.681C490.801,59.822 490.802,59.921 490.802,59.969C490.803,60.258 490.83,60.426 490.859,60.522Z"/>
                </g>
                <g transform="matrix(0.173077,0,0,0.0732147,458.143,148.457)">
                    <path d="M552.448,136L552.448,140C552.448,140.392 552.675,140.71 552.954,140.71C553.234,140.71 553.461,140.392 553.461,140L553.461,136C553.461,135.608 553.234,135.29 552.954,135.29C552.675,135.29 552.448,135.608 552.448,136Z"/>
                </g>
                <g transform="matrix(0.173077,0,0,0.0732147,455.374,148.457)">
                    <path d="M552.448,136L552.448,140C552.448,140.392 552.675,140.71 552.954,140.71C553.234,140.71 553.461,140.392 553.461,140L553.461,136C553.461,135.608 553.234,135.29 552.954,135.29C552.675,135.29 552.448,135.608 552.448,136Z"/>
                </g>
                <g transform="matrix(0.26021,0,0,0.111334,429.389,143.906)">
                    <path d="M480.824,137.972L480.824,137.977C480.824,138.077 480.882,138.158 480.954,138.158C480.954,138.158 481.08,138.138 481.085,137.964C481.086,137.944 481.087,137.903 481.089,137.845C481.096,137.574 481.062,137.307 480.996,137.057C480.928,136.804 480.823,136.571 480.688,136.369C480.551,136.165 480.387,136.006 480.208,135.891C480.026,135.775 479.828,135.713 479.624,135.702C478.12,135.632 475.549,135.494 472.973,135.392C470.398,135.29 467.825,135.224 466.321,135.175C466.065,135.168 465.814,135.237 465.581,135.365C465.346,135.493 465.132,135.691 464.947,135.939C464.762,136.189 464.619,136.487 464.519,136.81C464.418,137.134 464.366,137.486 464.363,137.845C464.354,139.75 464.322,142.875 464.326,146C464.33,149.125 464.369,152.25 464.383,154.155C464.386,154.511 464.438,154.859 464.537,155.18C464.637,155.499 464.778,155.794 464.961,156.041C465.144,156.287 465.356,156.482 465.588,156.61C465.819,156.738 466.068,156.807 466.321,156.802C466.321,156.802 479.624,156.454 479.624,156.454C479.843,156.447 480.057,156.384 480.254,156.264C480.449,156.144 480.629,155.975 480.779,155.757C480.929,155.541 481.046,155.29 481.123,155.016C481.199,154.744 481.239,154.452 481.234,154.155C481.234,154.155 480.979,138.859 480.979,138.859C480.979,138.841 480.968,138.825 480.954,138.825C480.941,138.825 480.93,138.841 480.93,138.859L480.674,154.155C480.671,154.347 480.638,154.533 480.583,154.706C480.529,154.877 480.449,155.03 480.35,155.162C480.252,155.292 480.136,155.389 480.012,155.455C479.89,155.521 479.758,155.55 479.624,155.546L466.321,155.198C466.222,155.196 466.126,155.163 466.036,155.109C465.948,155.056 465.868,154.976 465.8,154.878C465.732,154.781 465.682,154.665 465.647,154.542C465.612,154.42 465.598,154.288 465.599,154.155C465.612,152.25 465.652,149.125 465.656,146C465.66,142.875 465.628,139.75 465.619,137.845C465.618,137.715 465.632,137.587 465.666,137.469C465.7,137.349 465.748,137.236 465.814,137.142C465.881,137.047 465.958,136.968 466.044,136.916C466.131,136.863 466.224,136.828 466.321,136.825C466.321,136.825 466.321,136.825 466.321,136.825C467.825,136.776 470.398,136.71 472.973,136.608C475.549,136.506 478.12,136.368 479.624,136.298C479.773,136.29 479.921,136.319 480.059,136.39C480.199,136.462 480.33,136.568 480.441,136.712C480.555,136.858 480.647,137.03 480.71,137.221C480.775,137.416 480.814,137.627 480.82,137.845L480.823,137.964L480.824,137.972Z"/>
                </g>
                <g transform="matrix(0.173077,0,0,0.0813835,426.989,145.424)">
                    <path d="M712.954,166.943L713.231,163.155C713.239,163.036 713.275,162.926 713.318,162.822C713.359,162.723 713.421,162.642 713.49,162.568C713.556,162.498 713.636,162.458 713.716,162.426C713.793,162.395 713.874,162.398 713.956,162.407C713.956,162.407 713.956,162.407 713.956,162.407C714.594,162.474 715.497,162.583 716.595,162.685C717.747,162.792 719.096,162.908 720.555,163.006C721.407,163.063 722.293,163.113 723.194,163.147C723.777,163.168 724.366,163.184 724.954,163.185C725.692,163.186 726.429,163.17 727.154,163.144C727.905,163.116 728.641,163.071 729.355,163.024C730.543,162.947 731.657,162.861 732.655,162.776C734.05,162.657 735.193,162.534 735.956,162.462C736.131,162.444 736.301,162.492 736.425,162.625C736.563,162.772 736.67,162.974 736.686,163.218L736.954,167.006L737.223,163.218C737.253,162.764 737.115,162.351 736.899,162.028C736.673,161.689 736.335,161.491 735.957,161.45C735.195,161.373 734.052,161.244 732.658,161.117C731.661,161.027 730.546,160.933 729.359,160.85C728.645,160.799 727.909,160.749 727.159,160.718C726.433,160.687 725.696,160.667 724.959,160.664C724.37,160.662 723.782,160.674 723.199,160.692C722.297,160.721 721.412,160.765 720.559,160.817C719.1,160.907 717.751,161.015 716.598,161.116C715.5,161.212 714.596,161.316 713.958,161.379C713.772,161.398 713.593,161.446 713.43,161.551C713.272,161.653 713.123,161.781 713.006,161.955C712.891,162.125 712.796,162.312 712.743,162.521C712.692,162.725 712.663,162.938 712.678,163.155L712.954,166.943Z"/>
                </g>
                <g transform="matrix(0.185779,0,0,0.110264,439.753,118.963)">
                    <path d="M604,369C604,368.448 603.552,368 603,368L601,368C600.448,368 600,368.448 600,369L600,371C600,371.552 600.448,372 601,372L603,372C603.552,372 604,371.552 604,371L604,369Z"/>
                </g>
                <g transform="matrix(0.185779,0,0,0.110264,441.487,118.963)">
                    <path d="M604,369C604,368.448 603.552,368 603,368L601,368C600.448,368 600,368.448 600,369L600,371C600,371.552 600.448,372 601,372L603,372C603.552,372 604,371.552 604,371L604,369Z"/>
                </g>
                <g transform="matrix(0.185779,0,0,0.110264,441.487,119.762)">
                    <path d="M604,369C604,368.448 603.552,368 603,368L601,368C600.448,368 600,368.448 600,369L600,371C600,371.552 600.448,372 601,372L603,372C603.552,372 604,371.552 604,371L604,369Z"/>
                </g>
                <g transform="matrix(0.185779,0,0,0.110264,439.753,119.762)">
                    <path d="M604,369C604,368.448 603.552,368 603,368L601,368C600.448,368 600,368.448 600,369L600,371C600,371.552 600.448,372 601,372L603,372C603.552,372 604,371.552 604,371L604,369Z"/>
                </g>
            </g>
        </g>
    </g>
</svg>
