<?xml version="1.0" encoding="UTF-8" standalone="no"?>
<!DOCTYPE svg PUBLIC "-//W3C//DTD SVG 1.1//EN" "http://www.w3.org/Graphics/SVG/1.1/DTD/svg11.dtd">
<svg width="100%" height="100%" viewBox="0 0 31 32" version="1.1" xmlns="http://www.w3.org/2000/svg" xmlns:xlink="http://www.w3.org/1999/xlink" xml:space="preserve" xmlns:serif="http://www.serif.com/" style="fill-rule:evenodd;clip-rule:evenodd;stroke-linejoin:round;stroke-miterlimit:2;">
    <g transform="matrix(1,0,0,1,-674,-2002)">
        <g id="thought" transform="matrix(1.01038,0,0,0.991291,-7.28673,17.47)">
            <rect x="674.287" y="2002.24" width="29.713" height="31.441" style="fill:none;"/>
            <clipPath id="_clip1">
                <rect x="674.287" y="2002.24" width="29.713" height="31.441"/>
            </clipPath>
            <g clip-path="url(#_clip1)">
                <g transform="matrix(1.7514,0,0,3.00768,-286.16,1528.82)">
                    <g transform="matrix(0.2763,-2.09536e-18,3.12441e-18,-0.160274,422.501,183.935)">
                        <path d="M468.433,134.495C468.644,135.182 468.326,136.281 467.744,137.636C466.986,139.399 465.79,141.632 465.004,143.938C464.569,145.213 464.278,146.505 464.294,147.741C464.301,150.249 465.195,152.788 466.841,154.658C468.28,156.293 470.359,157.351 473.065,157.283C474.339,157.29 475.473,157.039 476.474,156.618C477.584,156.15 478.539,155.485 479.309,154.64C480.991,152.794 481.915,150.274 481.87,147.774C481.873,144.213 479.287,140.077 478.251,137.158C477.808,135.911 477.629,134.887 477.969,134.202C477.982,134.169 478.02,134.153 478.053,134.166C478.086,134.18 478.101,134.218 478.088,134.252C477.848,135.034 478.329,136.108 479.08,137.401C480.268,139.447 482.127,141.958 483.237,144.53C483.68,145.557 483.977,146.594 484.114,147.61C484.501,150.8 483.645,154.169 481.692,156.724C480.698,158.024 479.399,159.097 477.84,159.829C476.458,160.478 474.855,160.821 473.065,160.831C469.254,160.736 466.366,159.111 464.499,156.672C462.572,154.155 461.715,150.816 461.983,147.643C462.123,146.171 462.605,144.666 463.291,143.212C464.352,140.962 465.829,138.84 466.813,137.146C467.426,136.09 467.875,135.249 467.771,134.662C467.726,134.475 467.838,134.286 468.021,134.24C468.203,134.194 468.388,134.308 468.433,134.495Z"/>
                    </g>
                    <g transform="matrix(0.117568,0,0,0.369902,498.126,95.9562)">
                        <path d="M478.017,179.994L459.658,179.883C458.946,179.879 458.247,179.903 457.594,179.95C456.935,179.998 456.33,180.07 455.807,180.163C455.28,180.258 454.87,180.37 454.58,180.493C454.287,180.617 454.132,180.752 454.113,180.89C454.113,180.89 454.088,181.075 454.088,181.075C454.05,181.367 454.662,181.633 455.654,181.829C456.661,182.029 458.081,182.151 459.656,182.158C459.656,182.158 459.656,182.158 459.656,182.158C462.823,182.167 467.143,182.187 471.205,182.19C472.533,182.191 473.832,182.189 475.055,182.186C476.467,182.182 477.775,182.174 478.904,182.169C479.581,182.164 480.241,182.138 480.844,182.085C481.44,182.033 481.99,181.962 482.443,181.869C482.889,181.777 483.245,181.673 483.463,181.558C483.678,181.445 483.788,181.324 483.754,181.202C483.754,181.202 483.563,180.617 483.563,180.617C483.529,180.521 483.41,180.428 483.186,180.343C482.968,180.26 482.677,180.185 482.299,180.123C481.928,180.063 481.512,180.016 481.056,179.988C480.613,179.961 480.146,179.95 479.672,179.958C479.515,179.96 479.423,179.977 479.43,180.003C479.43,180.029 479.509,180.044 479.674,180.051C480.445,180.077 480.445,180.077 480.792,180.11C481.128,180.142 481.423,180.187 481.674,180.241C481.918,180.294 482.09,180.355 482.207,180.42C482.319,180.483 482.353,180.55 482.328,180.617L482.138,181.202C482.115,181.282 481.991,181.358 481.813,181.429C481.64,181.498 481.387,181.56 481.081,181.612C480.783,181.664 480.43,181.701 480.057,181.727C479.693,181.752 479.301,181.762 478.904,181.759L475.055,181.742C473.832,181.739 472.533,181.737 471.205,181.738C467.143,181.741 462.823,181.761 459.656,181.77C458.626,181.774 457.681,181.702 456.99,181.577C456.282,181.45 455.82,181.273 455.794,181.075C455.794,181.075 455.768,180.89 455.768,180.89C455.755,180.792 455.838,180.695 456.02,180.606C456.205,180.515 456.477,180.43 456.838,180.358C457.204,180.285 457.634,180.226 458.111,180.186C458.594,180.145 459.118,180.121 459.658,180.118C459.658,180.118 478.017,180.009 478.017,180.009C478.039,180.009 478.057,180.006 478.057,180.002C478.057,179.998 478.039,179.994 478.017,179.994Z"/>
                    </g>
                    <g transform="matrix(0.001628,0.342048,0.333063,-0.00167191,533.784,-4.91738)">
                        <path d="M490.76,60.242C490.76,60.092 490.751,58.585 490.763,56.889C490.778,54.551 490.826,51.859 490.826,51.859C490.826,51.803 490.852,51.757 490.884,51.757C490.917,51.757 490.943,51.802 490.943,51.858C490.943,51.858 491.018,54.55 491.056,56.887C491.084,58.583 491.09,60.09 491.092,60.241C491.093,60.399 491.019,60.528 490.927,60.529C490.836,60.529 490.761,60.401 490.76,60.242Z"/>
                    </g>
                    <g transform="matrix(-10.7305,-1.48187,0.0175555,-0.0436654,5818.53,887.609)">
                        <path d="M490.881,52.216L490.882,52.275C490.882,52.36 490.882,52.531 490.883,52.779C490.887,53.777 490.893,55.915 490.901,57.792C490.908,59.601 490.915,61.103 490.916,61.258C490.92,62.059 490.927,62.252 490.933,61.691C490.938,61.13 490.94,60.025 490.936,59.224C490.935,59.079 490.928,57.557 490.918,55.984C490.908,54.355 490.897,52.741 490.891,51.943C490.887,51.352 490.884,51.25 490.884,51.25C490.887,51.217 490.884,51.149 490.882,51.348C490.88,51.547 490.88,51.937 490.881,52.218L490.881,52.216Z"/>
                    </g>
                    <g transform="matrix(10.7305,-1.48187,-0.0175555,-0.0436654,-4711.94,887.609)">
                        <path d="M490.883,52.779C490.879,51.34 490.886,51.376 490.886,51.376C490.888,51.476 490.889,51.649 490.891,51.943C490.897,52.741 490.908,54.355 490.918,55.984C490.928,57.557 490.935,59.079 490.936,59.224C490.94,60.025 490.938,61.13 490.933,61.691C490.927,62.252 490.92,62.059 490.916,61.258C490.915,61.103 490.908,59.601 490.901,57.792C490.893,55.915 490.886,53.802 490.883,52.779Z"/>
                    </g>
                    <g transform="matrix(-8.15061,6.57613,-0.0586666,-0.0259179,4553.62,-3066.12)">
                        <path d="M490.885,51.85C490.883,52.209 490.88,52.658 490.883,52.351C490.883,52.293 490.883,52.614 490.884,52.867C490.888,53.884 490.895,56.082 490.903,57.981C490.911,59.816 490.918,61.316 490.919,61.472C490.922,62.221 490.928,62.277 490.932,61.598C490.936,60.918 490.937,59.759 490.933,59.011C490.932,58.867 490.925,57.343 490.916,55.794C490.903,53.647 490.888,51.476 490.888,51.476C490.886,51.16 490.884,51.141 490.883,51.382C490.881,51.622 490.881,52.031 490.882,52.294L490.885,51.85Z"/>
                    </g>
                    <g transform="matrix(8.15061,6.57613,0.0586666,-0.0259179,-3447.05,-3066.12)">
                        <path d="M490.883,51.75C490.881,51.779 490.882,51.543 490.883,51.382C490.884,51.141 490.886,51.16 490.887,51.423L490.888,51.476C490.888,51.476 490.903,53.647 490.916,55.794C490.925,57.343 490.932,58.867 490.933,59.011C490.937,59.759 490.936,60.918 490.932,61.598C490.928,62.277 490.922,62.221 490.919,61.472C490.918,61.316 490.911,59.816 490.903,57.981C490.895,56.082 490.888,53.885 490.884,52.867C490.883,52.614 490.883,52.438 490.883,52.351C490.882,52.075 490.882,51.882 490.883,51.75Z"/>
                    </g>
                    <g transform="matrix(-4.94563,-7.61782,-0.0680944,0.0158351,2981.17,3897.51)">
                        <path d="M490.887,51.423L490.89,51.855C490.895,52.631 490.906,54.196 490.916,55.794C490.925,57.343 490.932,58.867 490.933,59.011C490.937,59.759 490.936,60.918 490.932,61.598C490.928,62.277 490.922,62.221 490.919,61.472C490.918,61.316 490.911,59.817 490.903,57.981C490.892,55.314 490.882,52.09 490.882,52.09C490.881,52.031 490.881,51.622 490.883,51.382C490.884,51.141 490.886,51.16 490.887,51.423Z"/>
                    </g>
                    <g transform="matrix(4.94563,-7.61782,0.0680944,0.0158351,-1874.54,3897.51)">
                        <path d="M490.882,52.09L490.882,52.09L490.882,52.09L490.882,52.09L490.882,52.093C490.882,52.195 490.893,55.357 490.903,57.981C490.911,59.817 490.918,61.316 490.919,61.472C490.922,62.221 490.928,62.277 490.932,61.598C490.936,60.918 490.937,59.759 490.933,59.011C490.932,58.867 490.925,57.343 490.916,55.794C490.906,54.196 490.895,52.631 490.89,51.855C490.889,51.662 490.887,51.547 490.888,51.466C490.89,50.803 490.882,52.067 490.882,52.09ZM490.882,52.294L490.882,52.09L490.882,52.093C490.882,52.165 490.882,52.233 490.882,52.294ZM490.882,52.09C490.881,51.849 490.881,51.566 490.883,51.382C490.884,51.141 490.886,51.16 490.882,52.09Z"/>
                    </g>
                    <g transform="matrix(0.249107,1.89673e-18,-2.44491e-18,-0.101265,436.449,180.342)">
                        <path d="M472.819,167.237C472.808,166.685 472.808,166.685 472.8,166.287C472.789,165.751 472.704,165.231 472.556,164.751C472.41,164.278 472.2,163.848 471.936,163.485C471.675,163.126 471.37,162.853 471.042,162.671C470.717,162.491 470.368,162.407 470.014,162.423L467.873,162.509C467.164,162.525 466.529,162.964 466.07,163.65C465.614,164.329 465.333,165.259 465.337,166.285L465.338,166.877C465.34,167.399 464.578,167.422 464.57,166.91C464.57,166.877 464.57,166.877 464.57,166.877L464.57,166.877L464.572,166.285C464.577,164.956 464.946,163.752 465.547,162.888C466.144,162.03 466.967,161.505 467.871,161.519C467.871,161.519 470.013,161.588 470.013,161.588C470.438,161.603 470.853,161.737 471.235,161.985C471.613,162.23 471.959,162.579 472.249,163.026C472.536,163.468 472.759,163.982 472.904,164.54C473.048,165.093 473.121,165.685 473.109,166.287L473.09,167.227C473.086,167.408 472.834,167.493 472.819,167.237Z"/>
                    </g>
                    <g transform="matrix(0.557365,0,0,0.330808,81.2382,19.7044)">
                        <path d="M853.316,424.538C855.908,423.604 859.193,424.202 861.736,425.72C864.244,427.217 866.046,429.636 865.391,432.437C865.311,432.784 865.293,433.141 865.324,433.493C865.356,433.847 865.45,434.194 865.591,434.524C865.586,434.514 866.499,436.671 866.499,436.671C866.499,436.671 865.609,437.285 865.609,437.285C865.343,437.47 865.135,437.718 864.987,437.996C864.839,438.275 864.762,438.591 864.758,438.916L864.722,441.697C864.72,442.272 864.481,442.789 864.104,443.167C863.733,443.54 863.225,443.78 862.658,443.79C862.212,443.786 861.785,443.771 861.355,443.747C860.922,443.723 860.486,443.69 860.05,443.645C859.697,443.61 859.343,443.651 859.021,443.782C858.701,443.912 858.407,444.109 858.178,444.38C858.166,444.394 858.154,444.408 858.143,444.423C857.959,444.669 857.792,444.926 857.651,445.203C857.511,445.477 857.391,445.765 857.302,446.075C857.301,446.076 857.301,446.077 857.301,446.077C857.276,446.164 857.236,446.245 857.168,446.297C857.097,446.353 857.013,446.398 856.918,446.4C856.913,446.4 856.908,446.401 856.902,446.401L849.795,446.688C849.795,446.688 849.69,446.657 849.69,446.657L849.662,446.523C849.663,446.523 849.663,446.522 849.663,446.522C849.916,445.991 850.134,445.461 850.315,444.927C850.501,444.375 850.65,443.824 850.761,443.269C850.762,443.267 850.762,443.266 850.762,443.264C850.824,442.937 850.793,442.608 850.666,442.317C850.541,442.032 850.341,441.777 850.065,441.604C849.241,441.073 848.57,440.391 848.043,439.562C847.541,438.774 847.167,437.863 846.916,436.826C846.912,436.805 846.892,436.792 846.872,436.796C846.852,436.8 846.838,436.819 846.842,436.84C846.992,437.925 847.281,438.895 847.716,439.749C848.197,440.691 848.858,441.483 849.693,442.134C849.694,442.135 849.695,442.136 849.696,442.136C849.843,442.249 849.942,442.405 849.998,442.573C850.052,442.736 850.05,442.913 850.001,443.085C849.851,443.589 849.664,444.091 849.445,444.59C849.234,445.071 848.989,445.545 848.712,446.017C848.603,446.203 848.558,446.414 848.555,446.624C848.551,446.836 848.613,447.046 848.718,447.238C848.825,447.433 848.986,447.584 849.169,447.697C849.353,447.812 849.569,447.868 849.793,447.877L856.934,448.098C857.389,448.11 857.831,447.955 858.199,447.699C858.57,447.44 858.848,447.058 859.001,446.608C859.067,446.417 859.154,446.239 859.251,446.07C859.345,445.907 859.455,445.756 859.572,445.611C859.605,445.578 859.647,445.563 859.688,445.549C859.728,445.535 859.771,445.542 859.814,445.549C859.815,445.549 859.816,445.549 859.817,445.549C860.284,445.614 860.75,445.668 861.214,445.708C861.683,445.749 862.151,445.776 862.617,445.793C862.626,445.794 862.635,445.794 862.644,445.794C863.774,445.795 864.8,445.339 865.54,444.597C866.279,443.855 866.732,442.827 866.727,441.697L866.691,438.916L866.719,438.834L868.175,437.751C868.533,437.495 868.659,437.021 868.477,436.621L867.143,433.818C867.063,433.654 867.005,433.481 866.98,433.303C866.955,433.123 866.95,432.939 866.982,432.757C866.982,432.757 866.982,432.757 866.982,432.757C867.459,429.944 866.121,427.482 863.869,425.801C860.903,423.586 856.41,422.727 853.168,424.169C853.066,424.21 853.016,424.326 853.057,424.428C853.098,424.53 853.214,424.579 853.316,424.538Z"/>
                    </g>
                </g>
            </g>
        </g>
    </g>
</svg>
