<?xml version="1.0" encoding="UTF-8" standalone="no"?>
<!DOCTYPE svg PUBLIC "-//W3C//DTD SVG 1.1//EN" "http://www.w3.org/Graphics/SVG/1.1/DTD/svg11.dtd">
<svg width="100%" height="100%" viewBox="0 0 31 31" version="1.1" xmlns="http://www.w3.org/2000/svg" xmlns:xlink="http://www.w3.org/1999/xlink" xml:space="preserve" xmlns:serif="http://www.serif.com/" style="fill-rule:evenodd;clip-rule:evenodd;stroke-linejoin:round;stroke-miterlimit:2;">
    <g transform="matrix(1,0,0,1,-775,-1233)">
        <g id="ic_category_household_items" transform="matrix(0.994949,0,0,0.945644,4.07919,68.6964)">
            <rect x="775.827" y="1231.6" width="29.681" height="32.398" style="fill:none;"/>
            <g transform="matrix(1.77856,0,0,3.15287,-171.666,918.809)">
                <g transform="matrix(0.685869,-0.000542142,0.00130771,0.284344,7.29838,87.6133)">
                    <path d="M776.953,55.621C776.953,55.621 777.703,55.61 778.553,55.534C779.673,55.434 780.954,55.236 780.954,55.236C781.11,55.236 781.238,55.054 781.238,54.83C781.239,54.606 781.112,54.423 780.955,54.423C780.955,54.423 779.676,54.22 778.556,54.116C777.706,54.037 776.956,54.023 776.956,54.023C776.648,54.023 776.397,54.38 776.396,54.821C776.396,55.262 776.645,55.62 776.953,55.621Z"/>
                </g>
                <g transform="matrix(0.111564,-0.0175303,0.0979149,0.224868,441.863,101.173)">
                    <path d="M780.947,54.672C780.892,54.658 780.816,54.648 780.715,54.642C780.283,54.618 779.396,54.556 778.555,54.521C777.942,54.496 777.381,54.489 777.115,54.483C777.044,54.481 776.97,54.487 776.971,54.48C777.052,54.033 776.664,55.153 776.664,55.153C776.314,54.478 775.794,54.631 775.794,54.82C775.793,55.009 776.313,55.163 776.954,55.164L776.664,55.153C776.664,55.153 777.554,55.166 778.554,55.129C779.629,55.089 780.807,54.998 780.807,54.998C781.28,55.004 781.545,54.927 781.545,54.831C781.545,54.734 781.281,54.656 780.955,54.655L780.947,54.672Z"/>
                </g>
                <g transform="matrix(0.12131,-0.0190218,0.0979335,0.224865,434.807,103.488)">
                    <path d="M776.687,55.153C776.687,55.153 777.565,55.165 778.554,55.129C779.63,55.089 780.818,54.998 780.818,54.998C781.254,55.004 781.498,54.927 781.498,54.831C781.498,54.734 781.255,54.656 780.955,54.655L780.818,54.998C780.818,54.998 780.856,54.88 780.931,54.655C780.935,54.643 780.822,54.648 780.715,54.642C780.285,54.617 779.393,54.556 778.555,54.521C777.942,54.496 777.381,54.489 777.115,54.483C777.044,54.481 776.97,54.488 776.971,54.48C777.04,54.033 776.687,55.153 776.687,55.153C776.366,54.479 775.887,54.631 775.887,54.82C775.887,55.009 776.365,55.163 776.954,55.164L776.687,55.153Z"/>
                </g>
                <g transform="matrix(0.230478,0.071296,-0.120124,0.136794,423.083,29.8341)">
                    <path d="M604.567,200.325L604.627,200.295L604.984,197.957C604.149,197.207 603.204,196.608 602.163,196.248C601.142,195.895 600.06,195.721 598.961,195.794C597.888,195.877 596.853,196.137 595.912,196.616C594.996,197.083 594.162,197.701 593.482,198.499C593.482,198.499 590.754,201.758 590.754,201.758C590.63,201.883 590.63,202.086 590.755,202.211C590.879,202.336 591.082,202.336 591.207,202.211L594.466,199.482C595.1,198.94 595.834,198.559 596.612,198.306C597.363,198.062 598.158,197.993 598.961,198.056C599.543,198.095 600.102,198.237 600.635,198.447C599.968,198.837 599.44,199.332 599.05,199.902C598.27,201.046 598.018,202.569 598.448,204.365C598.447,204.364 594.883,208.384 594.883,208.384C594.902,208.363 594.924,208.427 594.95,208.425C594.974,208.423 594.891,208.471 594.912,208.488C594.912,208.488 590.013,204.5 590.013,204.5C589.938,204.439 589.865,204.375 589.82,204.291C589.771,204.201 589.729,204.108 589.718,204.005C589.706,203.895 589.704,203.787 589.735,203.683C589.767,203.573 589.812,203.466 589.885,203.375C589.885,203.375 590.629,202.451 590.629,202.451L590.572,202.383C590.546,202.353 590.526,202.33 590.55,202.362C590.561,202.376 590.506,202.395 590.464,202.427C590.298,202.554 589.951,202.821 589.605,203.087C589.463,203.195 589.358,203.334 589.271,203.485C589.181,203.642 589.136,203.818 589.113,204.001C589.092,204.191 589.123,204.376 589.175,204.556C589.229,204.741 589.332,204.905 589.456,205.058L593.451,209.952C593.833,210.412 594.394,210.603 594.946,210.651C595.516,210.702 596.076,210.46 596.548,210.061L601.332,205.882C601.763,205.454 601.912,204.817 601.716,204.243C601.365,203.194 601.326,202.327 601.74,201.681C602.164,201.019 602.973,200.623 604.115,200.452C604.272,200.434 604.424,200.391 604.567,200.325Z"/>
                </g>
                <g transform="matrix(0.347686,-0.0511315,0.127829,0.306196,303.68,67.7742)">
                    <path d="M586.61,206.529L585.729,206.508C585.7,206.067 585.669,205.405 585.605,204.743C585.535,204.025 585.428,203.315 585.374,202.876L585.404,202.754C585.428,202.736 585.447,202.714 585.479,202.703C585.513,202.691 585.546,202.675 585.585,202.672L587.279,202.555C587.365,202.555 587.434,202.509 587.434,202.451C587.434,202.394 587.365,202.347 587.279,202.347L585.585,202.23C585.456,202.221 585.331,202.239 585.209,202.264C585.084,202.29 584.976,202.34 584.874,202.397C584.77,202.456 584.697,202.532 584.635,202.611C584.572,202.692 584.547,202.783 584.535,202.876C584.48,203.315 584.373,204.025 584.304,204.743C584.235,205.458 584.204,206.172 584.173,206.609C584.169,206.736 584.208,206.86 584.276,206.975C584.344,207.09 584.45,207.195 584.582,207.286C584.715,207.375 584.871,207.446 585.042,207.493C585.213,207.54 585.397,207.566 585.585,207.565C585.585,207.565 586.648,207.539 586.648,207.539C586.83,207.531 587.01,207.512 587.17,207.458C587.328,207.405 587.482,207.342 587.6,207.251C587.717,207.16 587.821,207.064 587.876,206.952C587.931,206.842 587.972,206.727 587.96,206.609C587.96,206.609 587.96,206.609 587.96,206.609C587.894,206.146 587.801,205.38 587.679,204.641C587.509,203.616 587.309,202.673 587.309,202.673C587.309,202.662 587.296,202.653 587.279,202.653C587.263,202.653 587.25,202.662 587.25,202.673C587.25,202.673 587.05,203.616 586.88,204.641C586.765,205.339 586.676,206.06 586.61,206.529ZM586.606,206.558L586.589,206.569C586.589,206.569 586.599,206.609 586.599,206.609L586.606,206.558Z"/>
                </g>
                <g transform="matrix(0.281707,-0.0502778,0.161461,0.318685,334.84,65.8194)">
                    <path d="M595.184,204.726C595.184,204.726 594.695,207.91 594.154,211.098C593.612,214.288 593.02,217.468 593.02,217.468C592.987,217.885 593.605,218.237 594.4,218.254C595.195,218.272 595.866,217.947 595.899,217.53C595.899,217.53 595.81,214.336 595.772,211.133C595.735,207.933 595.749,204.738 595.749,204.738C595.755,204.656 595.634,204.587 595.478,204.584C595.322,204.58 595.19,204.644 595.184,204.726Z"/>
                </g>
                <g transform="matrix(0.281707,-0.0502778,0.161461,0.318685,334.84,65.8194)">
                    <path d="M601.229,218.335C601.229,218.335 601.036,216.544 600.645,214.267C599.959,210.266 598.75,204.787 598.75,204.787C598.749,204.772 598.724,204.76 598.694,204.76C598.664,204.761 598.641,204.774 598.643,204.79C598.643,204.79 598.461,210.304 598.523,214.321C598.558,216.607 598.7,218.4 598.7,218.4C598.735,218.766 599.329,219.049 600.026,219.031C600.724,219.013 601.263,218.701 601.229,218.335Z"/>
                </g>
                <g transform="matrix(0.294168,8.57201e-18,8.52659e-16,-0.295152,365.775,165.844)">
                    <path d="M594.73,213.108L594.782,213.108L595.063,213.115L595.922,204.722C595.924,204.63 596.052,204.556 596.208,204.558C596.364,204.559 596.489,204.635 596.487,204.727L596.944,213.386C596.956,213.634 596.769,213.855 596.503,214.024C596.322,214.139 596.085,214.219 595.819,214.261L596.031,220.66C596.031,220.66 596.155,220.847 596.155,220.847L597.259,221.718C597.259,221.718 597.929,221.716 597.929,221.716L599.107,220.808L599.229,220.628C599.252,219.969 599.285,218.571 599.345,217.21C599.398,216.028 599.466,214.876 599.505,214.257C599.249,214.202 599.023,214.114 598.855,213.993C598.615,213.82 598.446,213.605 598.459,213.367C598.459,213.367 599.037,204.695 599.037,204.695C599.036,204.678 599.06,204.664 599.089,204.663C599.118,204.663 599.143,204.677 599.143,204.694L600.254,213.193L600.522,213.202L600.521,213.202L600.538,213.203L600.574,213.204C600.598,213.205 600.623,213.21 600.623,213.206L600.623,213.205C600.595,213.204 600.567,213.203 600.538,213.203L600.522,213.202C600.533,213.198 600.627,213.168 600.623,213.205C601.116,213.236 601.502,213.481 601.507,213.78C601.507,213.78 601.673,215.456 601.807,217.196C601.912,218.556 601.991,219.953 602.034,220.612C602.046,220.83 601.987,221.046 601.879,221.251C601.77,221.457 601.596,221.651 601.376,221.827C601.376,221.827 599.788,223.08 599.788,223.08C599.516,223.292 599.091,223.417 598.641,223.417L596.548,223.411C596.091,223.411 595.661,223.282 595.392,223.063L593.903,221.817C593.699,221.644 593.537,221.457 593.437,221.258C593.336,221.06 593.281,220.853 593.291,220.643L593.762,213.705C593.768,213.384 594.195,213.124 594.73,213.108ZM600.352,214.36C600.329,214.564 600.335,214.636 600.407,214.365C600.408,214.36 600.382,214.362 600.358,214.36L600.352,214.36Z"/>
                </g>
                <g transform="matrix(0.565107,0,0,0.37299,113.162,14.4139)">
                    <path d="M742.718,244.001L742.472,253.14C742.463,253.512 742.632,253.848 742.897,254.097C743.166,254.35 743.546,254.501 743.965,254.51C743.965,254.51 743.965,254.51 743.965,254.51C746.142,254.553 751.556,254.687 756.974,254.764C762.389,254.841 767.805,254.863 769.983,254.882C770.535,254.882 771.034,254.679 771.395,254.354C771.757,254.028 771.979,253.578 771.979,253.082L771.845,244.896C771.834,244.431 771.628,244.01 771.282,243.711C770.939,243.415 770.476,243.225 769.963,243.235C769.963,243.235 769.963,243.235 769.963,243.235C767.827,243.289 762.593,243.404 757.459,243.554C751.122,243.74 744.954,243.967 744.954,243.967C744.934,243.967 744.917,243.982 744.917,244C744.917,244.018 744.934,244.033 744.954,244.033C744.954,244.033 751.122,244.26 757.459,244.446C762.593,244.596 767.827,244.711 769.963,244.765C770.002,244.766 770.032,244.791 770.057,244.814C770.079,244.835 770.081,244.868 770.08,244.899C770.08,244.899 769.98,253.085 769.98,253.085L769.979,253.086C767.801,253.114 762.386,253.156 756.971,253.253C751.553,253.351 746.14,253.505 743.963,253.555C743.831,253.559 743.706,253.521 743.617,253.446C743.524,253.367 743.456,253.26 743.452,253.136L743.11,243.999C743.11,243.902 743.021,243.823 742.913,243.824C742.805,243.824 742.717,243.903 742.718,244.001Z"/>
                </g>
                <g transform="matrix(-0.123117,0,0,0.0622838,634.22,91.0883)">
                    <path d="M743.953,252.737C746.126,252.579 751.533,252.135 756.968,251.796C758.753,251.684 760.534,251.589 762.204,251.521C764.802,251.416 767.119,251.365 768.718,251.328L768.826,246.305C766.293,246.121 761.869,245.818 757.5,245.418C751.123,244.835 744.954,244.1 744.954,244.1C744.908,244.1 744.87,244.055 744.87,244C744.87,243.945 744.908,243.9 744.954,243.9C744.954,243.9 751.123,243.165 757.5,242.582C762.693,242.107 767.965,241.767 770.045,241.606C770.866,241.558 771.595,241.991 772.16,242.59C772.731,243.197 773.032,244.095 773.075,245.069L773.273,252.898C773.273,253.398 773.19,253.888 773.031,254.342C772.871,254.795 772.637,255.212 772.336,255.566C772.035,255.919 771.681,256.197 771.295,256.385C770.909,256.572 770.492,256.673 770.066,256.673C768.633,256.637 765.671,256.604 762.211,256.476C760.541,256.415 758.759,256.326 756.974,256.222C751.475,255.899 746.005,255.469 743.882,255.323C743.333,255.283 742.829,255.046 742.49,254.598C742.16,254.16 741.923,253.6 741.955,252.97L742.464,244.003C742.462,243.712 742.663,243.474 742.911,243.472C743.16,243.47 743.363,243.705 743.364,243.997L743.953,252.737ZM768.686,252.825L768.685,252.911C768.684,252.882 768.685,252.854 768.686,252.825Z"/>
                </g>
                <g transform="matrix(0.565107,0,0,0.279082,113.157,37.6453)">
                    <path d="M744.023,242.876C744.023,242.876 744.112,239.588 744.18,236.47C744.216,234.83 744.243,233.239 744.264,232.199C744.268,231.976 744.351,231.778 744.475,231.635C744.597,231.495 744.764,231.416 744.945,231.42C744.945,231.42 747.578,231.482 747.578,231.482C747.799,231.482 747.979,231.266 747.979,231C747.979,230.734 747.8,230.517 747.578,230.517L744.945,230.577C744.575,230.586 744.24,230.768 744.002,231.065C743.767,231.359 743.62,231.757 743.626,232.197C743.643,233.237 743.664,234.828 743.694,236.468C743.751,239.587 743.827,242.875 743.827,242.875C743.827,242.94 743.871,242.993 743.925,242.993C743.979,242.993 744.023,242.941 744.023,242.876Z"/>
                </g>
                <g transform="matrix(0.565107,-4.76804e-05,-6.68449e-05,0.299607,114.108,33.4353)">
                    <path d="M744.028,240.407C744.028,240.407 744.107,238.377 744.177,236.07C744.269,233.049 744.348,229.563 744.348,229.563C744.349,229.315 744.169,229.113 743.948,229.113C743.727,229.112 743.546,229.313 743.546,229.561C743.546,229.561 743.614,233.048 743.696,236.068C743.759,238.376 743.832,240.407 743.832,240.407C743.832,240.467 743.875,240.517 743.93,240.517C743.984,240.517 744.028,240.468 744.028,240.407Z"/>
                </g>
                <g transform="matrix(0.503004,-0.000840665,-0.00117856,0.279066,160.608,38.9659)">
                    <path d="M744.261,231.04L747.085,231.309C747.244,231.313 747.377,231.178 747.38,231.007C747.383,230.836 747.256,230.694 747.096,230.69L744.265,230.804C744.205,230.802 744.154,230.854 744.153,230.919C744.152,230.984 744.2,231.038 744.261,231.04Z"/>
                </g>
                <g transform="matrix(0.565107,0,0,0.279082,113.157,37.6453)">
                    <path d="M750.768,231.58L755.917,231.581C756.183,231.581 756.399,231.322 756.399,231.002C756.4,230.682 756.184,230.422 755.917,230.422L750.769,230.421C750.503,230.421 750.286,230.681 750.286,231C750.286,231.32 750.502,231.58 750.768,231.58Z"/>
                </g>
                <g transform="matrix(0.353523,-6.57677e-05,5.76805e-05,0.279082,272.437,38.3829)">
                    <path d="M750.768,231.305L755.917,231.306C756.141,231.306 756.322,231.17 756.322,231.002C756.322,230.834 756.141,230.698 755.917,230.697L750.769,230.696C750.545,230.696 750.364,230.833 750.364,231C750.364,231.168 750.545,231.305 750.768,231.305Z"/>
                </g>
                <g transform="matrix(0.407583,-1.28558e-05,-1.80231e-05,0.279082,232.871,37.6551)">
                    <path d="M759.951,231.548L765.702,231.549L765.702,230.459L759.951,230.458L759.951,231.548Z"/>
                </g>
                <g transform="matrix(-0.270383,-2.40529e-05,3.37207e-05,0.279082,750.424,38.3511)">
                    <path d="M759.951,230.699L765.702,230.7C765.994,230.7 766.231,230.836 766.231,231.004C766.231,231.172 765.994,231.308 765.702,231.308L759.951,231.307C759.659,231.307 759.422,231.171 759.422,231.003C759.422,230.835 759.659,230.699 759.951,230.699Z"/>
                </g>
                <g transform="matrix(0.565107,0,0,0.279082,113.157,37.6453)">
                    <path d="M765.905,231.459L768.986,231.347C769.082,231.344 769.176,231.359 769.264,231.399C769.354,231.44 769.438,231.499 769.509,231.579C769.581,231.661 769.64,231.756 769.68,231.862C769.72,231.97 769.746,232.087 769.749,232.208C769.749,232.208 769.963,241.56 769.963,241.56C769.963,241.572 769.971,241.582 769.981,241.582C769.992,241.582 770,241.572 770,241.56L770.222,232.208C770.228,232.01 770.197,231.815 770.139,231.634C770.082,231.45 769.991,231.282 769.877,231.136C769.762,230.989 769.623,230.876 769.473,230.795C769.321,230.712 769.155,230.67 768.986,230.664C768.986,230.664 765.905,230.552 765.905,230.552C765.697,230.552 765.528,230.755 765.527,231.005C765.527,231.255 765.697,231.458 765.905,231.459Z"/>
                </g>
                <g transform="matrix(1.11958,6.47283e-05,9.07451e-05,0.279082,-314.817,38.2827)">
                    <path d="M768.834,231.157L769.986,231.158C770.021,231.158 770.05,231.09 770.05,231.006C770.05,230.922 770.021,230.853 769.986,230.853L768.834,230.853C768.799,230.853 768.77,230.921 768.77,231.005C768.77,231.089 768.799,231.157 768.834,231.157Z"/>
                </g>
                <g transform="matrix(0.565107,-2.20718e-05,-3.09433e-05,0.30599,112.308,31.9261)">
                    <path d="M769.61,229.645L769.963,239.24C769.963,239.252 769.971,239.261 769.981,239.261C769.992,239.261 770,239.252 770,239.24L770.364,229.645C770.364,229.417 770.195,229.232 769.987,229.231C769.779,229.231 769.61,229.416 769.61,229.645Z"/>
                </g>
                <g transform="matrix(0.565107,0,0,0.335403,112.306,23.9624)">
                    <path d="M765.286,232.209C765.307,233.013 765.379,235.985 765.454,238.592C765.521,240.883 765.589,242.887 765.589,242.887C765.589,242.941 765.633,242.985 765.687,242.985C765.741,242.985 765.785,242.941 765.785,242.887C765.785,242.887 765.854,240.883 765.92,238.592C765.998,235.913 766.072,232.849 766.091,232.148C766.091,232.148 766.091,232.148 766.091,232.148C766.093,232.038 766.066,231.932 766.021,231.835C765.976,231.738 765.905,231.654 765.82,231.585L764.904,230.853L765.833,227.656L767.084,227.66L768.122,230.833L767.111,231.574C767.018,231.643 766.94,231.729 766.891,231.83C766.842,231.931 766.812,232.041 766.815,232.157C766.832,232.685 766.879,234.476 766.949,236.449C767.054,239.461 767.2,242.887 767.2,242.887C767.2,242.898 767.208,242.906 767.219,242.906C767.229,242.906 767.237,242.898 767.237,242.887C767.237,242.887 767.382,239.461 767.487,236.449C767.553,234.551 767.599,232.821 767.617,232.222L768.781,231.449C768.897,231.371 768.978,231.256 769.024,231.131C769.07,231.005 769.071,230.864 769.032,230.729L767.993,227.223C767.94,227.056 767.837,226.916 767.703,226.817C767.569,226.718 767.404,226.661 767.229,226.662L765.69,226.667C765.512,226.668 765.344,226.727 765.209,226.83C765.076,226.934 764.973,227.079 764.927,227.251C764.927,227.251 764.013,230.766 764.013,230.766C763.981,230.892 763.984,231.022 764.025,231.139C764.067,231.256 764.139,231.363 764.243,231.44L765.286,232.209Z"/>
                </g>
            </g>
        </g>
    </g>
</svg>
