<?xml version="1.0" encoding="UTF-8" standalone="no"?>
<!DOCTYPE svg PUBLIC "-//W3C//DTD SVG 1.1//EN" "http://www.w3.org/Graphics/SVG/1.1/DTD/svg11.dtd">
<svg width="100%" height="100%" viewBox="0 0 31 30" version="1.1" xmlns="http://www.w3.org/2000/svg" xmlns:xlink="http://www.w3.org/1999/xlink" xml:space="preserve" xmlns:serif="http://www.serif.com/" style="fill-rule:evenodd;clip-rule:evenodd;stroke-linejoin:round;stroke-miterlimit:2;">
    <g transform="matrix(1,0,0,1,-887,-400)">
        <g id="Track" transform="matrix(1.00544,0,0,1.00434,292.062,-49.0799)">
            <rect x="591.84" y="447.87" width="30.179" height="28.433" style="fill:none;"/>
            <g transform="matrix(0.994587,0,0,0.995677,-241.336,383.639)">
                <path d="M837.983,80.196L841.341,80.324C841.46,80.329 841.571,80.371 841.669,80.432C841.764,80.492 841.838,80.58 841.892,80.682C841.892,80.682 843.791,84.25 843.791,84.25C843.89,84.422 844.081,84.519 844.277,84.498C844.474,84.478 844.64,84.344 844.702,84.155L847.215,77.152C847.618,78.834 848.173,81.13 848.744,83.423C849.847,87.845 851.011,92.251 851.011,92.251C851.128,92.701 851.542,93.009 852.007,92.992C852.472,92.976 852.863,92.638 852.948,92.181C852.948,92.181 854.133,85.451 855.274,78.713C855.921,74.89 856.553,71.066 856.98,68.472C856.98,68.471 858.903,79.194 858.903,79.194C858.957,79.496 859.114,79.758 859.337,79.94C859.557,80.121 859.839,80.228 860.141,80.222L867.929,80.037C867.949,80.037 867.965,80.02 867.965,80C867.965,79.98 867.949,79.963 867.929,79.963L860.141,79.778C859.952,79.774 859.779,79.698 859.646,79.579C859.515,79.463 859.428,79.3 859.404,79.116C859.404,79.116 857.513,65.038 857.513,65.038C857.47,64.766 857.238,64.564 856.962,64.56C856.687,64.556 856.449,64.752 856.398,65.023C856.398,65.023 855.003,71.712 853.652,78.413C852.984,81.726 852.327,85.041 851.833,87.546C851.465,86.152 851.036,84.544 850.599,82.939C849.401,78.541 848.142,74.161 848.142,74.161C848.053,73.819 847.749,73.577 847.395,73.566C847.042,73.555 846.724,73.779 846.614,74.115L844.06,82.787L842.523,80.318C842.394,80.113 842.221,79.945 842.014,79.836C841.809,79.728 841.58,79.666 841.341,79.676C841.341,79.676 837.983,79.804 837.983,79.804C837.875,79.804 837.787,79.892 837.787,80C837.787,80.108 837.875,80.196 837.983,80.196Z"/>
            </g>
        </g>
    </g>
</svg>
