<?xml version="1.0" encoding="UTF-8" standalone="no"?>
<!DOCTYPE svg PUBLIC "-//W3C//DTD SVG 1.1//EN" "http://www.w3.org/Graphics/SVG/1.1/DTD/svg11.dtd">
<svg width="100%" height="100%" viewBox="0 0 32 32" version="1.1" xmlns="http://www.w3.org/2000/svg" xmlns:xlink="http://www.w3.org/1999/xlink" xml:space="preserve" xmlns:serif="http://www.serif.com/" style="fill-rule:evenodd;clip-rule:evenodd;stroke-linejoin:round;stroke-miterlimit:2;">
    <g transform="matrix(1,0,0,1,-861,-1957)">
        <g id="updates" transform="matrix(0.925406,0,0,1.0007,65.4306,0.102757)">
            <rect x="860.051" y="1956" width="34.182" height="30.82" style="fill:none;"/>
            <g id="updates1" serif:id="updates" transform="matrix(1.91222,0,0,2.9794,-37.0267,1486.7)">
                <g transform="matrix(0.240647,0,0,0.152236,295.706,155.328)">
                    <path d="M740.604,49.212C740.604,49.212 743.311,53.152 745.805,56.534C747.695,59.097 749.438,61.282 749.438,61.282C749.808,61.689 750.34,61.938 750.909,61.97C751.479,62.002 752.039,61.816 752.459,61.454C752.459,61.454 754.551,59.914 757.364,57.528C757.967,57.017 758.587,56.452 759.226,55.855C760.103,55.037 761.004,54.158 761.919,53.244C764.144,51.022 766.423,48.664 768.457,46.518C772.102,42.673 774.831,39.623 774.831,39.623C774.866,39.593 774.869,39.541 774.836,39.508C774.804,39.475 774.749,39.473 774.714,39.503C774.714,39.503 771.241,41.793 766.846,44.87C764.392,46.588 761.693,48.517 759.143,50.406C758.094,51.183 757.083,51.95 756.139,52.7C755.451,53.246 754.798,53.777 754.204,54.297C752.901,55.436 751.81,56.442 751.019,57.189C750.247,56.468 749.261,55.559 748.202,54.611C745.03,51.774 741.305,48.651 741.305,48.651C741.139,48.469 740.848,48.448 740.655,48.603C740.462,48.758 740.439,49.031 740.604,49.212Z"/>
                </g>
                <g>
                    <g transform="matrix(0.15501,-0.0289524,-0.0561593,-0.105918,362.331,192.693)">
                        <path d="M820.951,69.591C820.397,70.127 819.63,70.868 818.74,71.702C818.129,72.275 817.462,72.889 816.766,73.514C813.243,76.674 809.178,80.169 809.178,80.169C809.071,80.276 808.884,80.287 808.76,80.194C808.637,80.101 808.624,79.938 808.731,79.831C808.731,79.831 812.145,75.846 815.255,72.374C815.87,71.688 816.477,71.028 817.044,70.423C818.303,69.079 819.353,68.011 819.797,67.548C819.797,67.548 819.797,67.548 819.797,67.548C819.942,67.401 820.121,67.288 820.318,67.209C820.515,67.129 820.732,67.089 820.954,67.088C821.177,67.089 821.394,67.129 821.591,67.208C821.788,67.288 821.967,67.401 822.112,67.548L823.497,68.979C824.361,69.894 825.477,71.102 826.634,72.389C829.752,75.854 833.178,79.831 833.178,79.831C833.285,79.938 833.272,80.101 833.149,80.194C833.025,80.287 832.838,80.276 832.731,80.169C832.731,80.169 828.676,76.665 825.162,73.499C823.857,72.324 822.637,71.195 821.714,70.324C821.427,70.053 821.171,69.806 820.951,69.591Z"/>
                    </g>
                    <g transform="matrix(3.96415e-17,-0.384242,0.745318,2.70869e-17,416.781,476.161)">
                        <path d="M816.089,72.486C820.483,72.809 823.716,74.446 825.644,76.687C826.596,77.794 827.224,79.046 827.528,80.357C827.934,82.107 827.766,83.958 826.951,85.731C825.88,88.062 823.757,90.252 820.414,91.867C820.329,91.904 820.295,91.993 820.337,92.067C820.38,92.14 820.483,92.17 820.567,92.133C824.983,90.417 827.659,87.672 828.733,84.731C829.291,83.207 829.406,81.625 829.121,80.106C828.833,78.57 828.117,77.099 827.025,75.801C824.873,73.242 821.216,71.352 816.238,70.975C815.758,70.939 815.335,71.248 815.294,71.665C815.253,72.082 815.609,72.45 816.089,72.486Z"/>
                    </g>
                </g>
                <g>
                    <g transform="matrix(-0.15501,0.0289524,0.0561593,0.105918,593.803,132.685)">
                        <path d="M820.951,69.591C820.397,70.127 819.63,70.868 818.74,71.702C818.129,72.275 817.462,72.889 816.766,73.514C813.243,76.674 809.178,80.169 809.178,80.169C809.071,80.276 808.884,80.287 808.76,80.194C808.637,80.101 808.624,79.938 808.731,79.831C808.731,79.831 812.145,75.846 815.255,72.374C815.87,71.688 816.477,71.028 817.044,70.423C818.303,69.079 819.353,68.011 819.797,67.548C819.797,67.548 819.797,67.548 819.797,67.548C819.942,67.401 820.121,67.288 820.318,67.209C820.515,67.129 820.732,67.089 820.954,67.088C821.177,67.089 821.394,67.129 821.591,67.208C821.788,67.288 821.967,67.401 822.112,67.548L823.497,68.979C824.361,69.894 825.477,71.102 826.634,72.389C829.752,75.854 833.178,79.831 833.178,79.831C833.285,79.938 833.272,80.101 833.149,80.194C833.025,80.287 832.838,80.276 832.731,80.169C832.731,80.169 828.676,76.665 825.162,73.499C823.857,72.324 822.637,71.195 821.714,70.324C821.427,70.053 821.171,69.806 820.951,69.591Z"/>
                    </g>
                    <g transform="matrix(-3.96415e-17,0.384242,-0.745318,-2.70869e-17,539.353,-150.784)">
                        <path d="M816.089,72.486C820.483,72.809 823.716,74.446 825.644,76.687C826.596,77.794 827.224,79.046 827.528,80.357C827.934,82.107 827.766,83.958 826.951,85.731C825.88,88.062 823.757,90.252 820.414,91.867C820.329,91.904 820.295,91.993 820.337,92.067C820.38,92.14 820.483,92.17 820.567,92.133C824.983,90.417 827.659,87.672 828.733,84.731C829.291,83.207 829.406,81.625 829.121,80.106C828.833,78.57 828.117,77.099 827.025,75.801C824.873,73.242 821.216,71.352 816.238,70.975C815.758,70.939 815.335,71.248 815.294,71.665C815.253,72.082 815.609,72.45 816.089,72.486Z"/>
                    </g>
                </g>
            </g>
        </g>
    </g>
</svg>
