<?xml version="1.0" encoding="UTF-8" standalone="no"?>
<!DOCTYPE svg PUBLIC "-//W3C//DTD SVG 1.1//EN" "http://www.w3.org/Graphics/SVG/1.1/DTD/svg11.dtd">
<svg width="100%" height="100%" viewBox="0 0 32 25" version="1.1" xmlns="http://www.w3.org/2000/svg" xmlns:xlink="http://www.w3.org/1999/xlink" xml:space="preserve" xmlns:serif="http://www.serif.com/" style="fill-rule:evenodd;clip-rule:evenodd;stroke-linejoin:round;stroke-miterlimit:2;">
    <g transform="matrix(1,0,0,1,-865,-1596)">
        <g id="ic_account_groups_virtual_accounts" transform="matrix(1.00063,0,0,1.00126,6.08008,-4.77519)">
            <rect x="858.678" y="1598.87" width="31.192" height="24.621" style="fill:none;"/>
            <g transform="matrix(1.76847,0,0,2.97774,142.437,1164.48)">
                <g transform="matrix(0.601266,0,0,0.167701,-79.8527,95.559)">
                    <path d="M823.516,340.686L818.361,340.846L817.624,339.022C817.531,338.79 817.42,338.597 817.292,338.476C817.164,338.355 817.026,338.278 816.883,338.284L807.003,338.85C806.923,338.855 806.845,338.881 806.774,338.949C806.703,339.017 806.634,339.104 806.58,339.227C806.525,339.35 806.478,339.486 806.451,339.641C806.423,339.796 806.404,339.959 806.406,340.128L806.406,340.132C806.444,342.596 806.931,344.809 807.715,346.371C808.481,347.899 809.516,348.828 810.649,348.748C810.649,348.748 815.453,348.392 815.453,348.392C815.554,348.392 815.637,348.217 815.637,348C815.637,347.783 815.554,347.608 815.453,347.608L810.649,347.252C809.737,347.187 808.927,346.332 808.348,345.021C807.891,343.987 807.588,342.652 807.504,341.178L816.556,341.697L817.288,343.665C817.38,343.912 817.5,344.096 817.629,344.233C817.759,344.37 817.905,344.431 818.053,344.438C818.053,344.438 823.867,344.619 823.867,344.619C824.043,344.621 824.213,344.532 824.368,344.375C824.523,344.218 824.659,343.983 824.769,343.69L825.405,341.997C826.09,341.999 827.476,342.007 828.982,341.969C830.853,341.921 832.909,341.816 834.044,341.756C834.016,342.011 833.981,342.262 833.938,342.506C833.802,343.275 833.605,343.996 833.336,344.608C833.064,345.229 832.743,345.733 832.387,346.078C832.024,346.428 831.633,346.644 831.227,346.673C831.227,346.673 816.954,347.926 816.954,347.926C816.935,347.926 816.92,347.959 816.92,348C816.92,348.041 816.935,348.074 816.954,348.074L831.227,349.327C831.805,349.368 832.372,349.145 832.903,348.718C833.438,348.286 833.928,347.614 834.353,346.76C834.782,345.898 835.114,344.862 835.349,343.736C835.587,342.6 835.708,341.36 835.722,340.093C835.722,340.093 835.722,340.092 835.722,340.092C835.726,339.594 835.622,339.151 835.472,338.817C835.321,338.483 835.105,338.299 834.871,338.288C834.465,338.27 831.55,338.096 828.982,338.031C827.14,337.985 825.478,338.006 825.057,338.003C824.881,338.006 824.709,338.088 824.555,338.25C824.402,338.411 824.263,338.641 824.155,338.937L823.516,340.686Z"/>
                </g>
                <g transform="matrix(0.565107,0,0,0.286922,-50.1254,53.8338)">
                    <path d="M807.138,343.016L807.669,324.367C807.678,323.952 807.842,323.586 808.081,323.321C808.313,323.065 808.632,322.926 808.976,322.937C810.43,322.972 812.55,323.037 814.962,323.081C816.839,323.116 818.893,323.153 820.948,323.156C823.002,323.159 825.056,323.135 826.933,323.098C829.347,323.049 831.465,322.959 832.919,322.915C833.27,322.902 833.597,323.038 833.834,323.298C834.081,323.568 834.253,323.941 834.264,324.367C834.264,324.367 834.917,342.382 834.917,342.382C834.917,342.405 834.933,342.425 834.954,342.425C834.974,342.425 834.991,342.405 834.991,342.382L835.643,324.367C835.668,323.479 835.363,322.674 834.882,322.073C834.391,321.461 833.693,321.092 832.919,321.063C831.465,321.018 829.347,320.929 826.933,320.88C825.056,320.842 823.002,320.819 820.948,320.821C818.893,320.824 816.839,320.862 814.962,320.896C812.55,320.94 810.43,321.006 808.976,321.041C808.196,321.065 807.492,321.436 806.994,322.05C806.503,322.654 806.194,323.469 806.214,324.367L806.745,343.016C806.745,343.143 806.833,343.246 806.942,343.246C807.05,343.246 807.138,343.143 807.138,343.016Z"/>
                </g>
                <g transform="matrix(0.595172,0,0,0.300099,-74.8631,48.9289)">
                    <path d="M824.766,332.294L824.6,337.692L820.961,339.222C820.644,339.078 819.904,338.733 819.155,338.398C818.472,338.092 817.781,337.794 817.406,337.63L817.321,332.604L820.726,334.042L820.855,338.803C820.855,338.863 820.896,338.913 820.948,338.913C820.999,338.913 821.041,338.864 821.041,338.803L821.185,333.973C821.188,333.879 821.161,333.791 821.12,333.715C821.079,333.638 821.016,333.58 820.942,333.543C820.942,333.543 817.188,331.658 817.188,331.658C817.122,331.626 817.051,331.618 816.982,331.625C816.913,331.632 816.846,331.664 816.786,331.71C816.726,331.755 816.68,331.821 816.646,331.892C816.612,331.964 816.597,332.046 816.595,332.131L816.501,337.744C816.499,337.934 816.55,338.113 816.636,338.264C816.722,338.416 816.848,338.533 816.999,338.604C816.999,338.604 816.999,338.604 816.999,338.604C817.348,338.764 818.083,339.109 818.816,339.441C819.576,339.784 820.333,340.113 820.643,340.25C820.643,340.25 820.643,340.25 820.643,340.25C820.744,340.293 820.849,340.317 820.955,340.315C821.06,340.313 821.166,340.291 821.265,340.244L824.878,338.494C825.01,338.429 825.122,338.326 825.195,338.19C825.269,338.056 825.314,337.899 825.31,337.733L825.14,332.2C825.138,332.141 825.127,332.085 825.103,332.036C825.08,331.987 825.049,331.942 825.008,331.911C824.967,331.88 824.922,331.857 824.875,331.852C824.829,331.847 824.78,331.851 824.736,331.872L821.31,333.504C821.301,333.508 821.296,333.52 821.3,333.53C821.303,333.541 821.313,333.547 821.322,333.543L824.766,332.294Z"/>
                </g>
                <g transform="matrix(0.595172,0,0,0.300099,-74.8631,48.9289)">
                    <path d="M817.866,331.588L820.979,330.339C820.979,330.339 821.095,330.337 821.095,330.337C821.35,330.45 821.884,330.698 822.461,330.945C823.44,331.365 824.532,331.797 824.532,331.797C824.59,331.825 824.657,331.793 824.68,331.725C824.704,331.657 824.677,331.579 824.619,331.551C824.619,331.551 823.586,330.949 822.642,330.432C822.085,330.127 821.558,329.859 821.309,329.727C821.309,329.727 821.309,329.727 821.309,329.727C821.229,329.686 821.143,329.664 821.057,329.658C820.971,329.652 820.884,329.667 820.8,329.697L817.665,330.87C817.496,330.935 817.404,331.149 817.46,331.347C817.515,331.546 817.697,331.654 817.866,331.588Z"/>
                </g>
            </g>
        </g>
    </g>
</svg>
