<?xml version="1.0" encoding="UTF-8" standalone="no"?>
<!DOCTYPE svg PUBLIC "-//W3C//DTD SVG 1.1//EN" "http://www.w3.org/Graphics/SVG/1.1/DTD/svg11.dtd">
<svg width="100%" height="100%" viewBox="0 0 28 32" version="1.1" xmlns="http://www.w3.org/2000/svg" xmlns:xlink="http://www.w3.org/1999/xlink" xml:space="preserve" xmlns:serif="http://www.serif.com/" style="fill-rule:evenodd;clip-rule:evenodd;stroke-linejoin:round;stroke-miterlimit:2;">
    <g transform="matrix(1,0,0,1,-903,-1957)">
        <g id="vocal-for-local" serif:id="vocal for local" transform="matrix(1.00087,0,0,1.00037,-0.79637,-1.36228)">
            <rect x="903.048" y="1957.74" width="27.261" height="31.579" style="fill:none;"/>
            <g id="vocal-for-local1" serif:id="vocal for local" transform="matrix(1.76804,0,0,2.98039,59.9228,1456.59)">
                <g>
                    <g transform="matrix(0.500192,1.86992e-17,-1.15935e-15,0.296875,202.039,122.173)">
                        <path d="M554.05,186.467L554.179,178.128C554.184,177.743 554.03,177.395 553.782,177.139C553.531,176.881 553.181,176.722 552.792,176.715L551.079,176.686C550.887,176.683 550.699,176.72 550.524,176.789C550.348,176.859 550.186,176.964 550.048,177.098C549.909,177.233 549.801,177.394 549.725,177.568C549.649,177.744 549.61,177.934 549.607,178.129L549.463,188.87C549.458,189.315 549.637,189.718 549.925,190.014C550.214,190.312 550.617,190.496 551.064,190.504L553.336,190.546C553.621,190.55 553.897,190.479 554.141,190.349C554.385,190.219 554.596,190.027 554.751,189.787C554.751,189.787 555.698,188.331 555.698,188.331C555.698,188.331 559.518,189.947 559.518,189.947C559.622,189.991 559.73,190.024 559.84,190.046C559.95,190.068 560.063,190.079 560.176,190.079L568.67,190.001C568.796,190 568.92,189.985 569.041,189.955C569.162,189.925 569.28,189.882 569.391,189.825C569.391,189.825 579.303,184.689 579.303,184.689C579.604,184.532 579.85,184.299 580.016,184.017C580.18,183.738 580.27,183.414 580.261,183.077C580.261,183.077 580.254,182.861 580.254,182.861C580.246,182.576 580.17,182.3 580.034,182.058C579.899,181.818 579.709,181.609 579.471,181.455C579.235,181.302 578.97,181.209 578.698,181.184C578.429,181.16 578.153,181.197 577.896,181.303C577.896,181.303 569.859,184.629 569.859,184.629C569.848,184.633 569.843,184.645 569.847,184.656C569.851,184.667 569.863,184.672 569.874,184.668L578.052,181.704C578.245,181.634 578.449,181.615 578.646,181.642C578.842,181.668 579.03,181.743 579.195,181.861C579.358,181.977 579.486,182.131 579.574,182.304C579.661,182.476 579.705,182.668 579.703,182.866L579.7,183.082C579.697,183.309 579.627,183.523 579.51,183.707C579.394,183.888 579.227,184.035 579.025,184.131L568.951,188.94C568.907,188.962 568.86,188.976 568.813,188.987C568.766,188.997 568.717,189.001 568.669,189.001L560.174,188.95L559.954,188.906L555.701,187.14C555.455,187.037 555.17,187.125 555.026,187.35L553.852,189.211C553.797,189.298 553.723,189.369 553.636,189.417C553.548,189.466 553.449,189.494 553.345,189.494C553.345,189.494 551.073,189.495 551.073,189.495C550.9,189.496 550.742,189.429 550.628,189.317C550.512,189.202 550.437,189.045 550.435,188.87C550.435,188.87 550.288,178.129 550.288,178.129C550.286,178.024 550.304,177.92 550.342,177.824C550.38,177.727 550.436,177.637 550.51,177.561C550.584,177.484 550.671,177.422 550.768,177.38C550.865,177.338 550.97,177.313 551.078,177.312C551.078,177.312 552.792,177.287 552.792,177.287C553.026,177.284 553.241,177.373 553.397,177.524C553.556,177.678 553.658,177.891 553.662,178.129L553.828,186.468C553.828,186.529 553.878,186.579 553.939,186.579C554,186.578 554.05,186.529 554.05,186.467Z"/>
                    </g>
                    <g transform="matrix(0.500192,1.86992e-17,-1.15935e-15,0.296875,202.039,122.173)">
                        <path d="M568.546,184.516L563.508,184.866C563.446,184.867 563.398,184.917 563.399,184.978C563.4,185.04 563.45,185.088 563.511,185.087L568.85,185.273C568.988,185.278 569.108,185.213 569.202,185.126C569.297,185.039 569.345,184.91 569.352,184.772C569.352,184.772 569.364,184.498 569.364,184.498C569.4,183.529 569.044,182.632 568.444,181.956C567.832,181.267 566.954,180.824 565.968,180.743C565.469,180.712 564.95,180.674 564.441,180.649C563.906,180.623 563.383,180.611 562.913,180.593C562.361,180.583 561.817,180.502 561.29,180.353C560.755,180.203 560.239,179.994 559.756,179.711C559.755,179.711 559.755,179.711 559.755,179.711C558.921,179.238 557.852,178.693 556.82,178.38C556.043,178.145 555.296,178.039 554.695,178.184C554.683,178.185 554.676,178.196 554.678,178.208C554.68,178.219 554.69,178.227 554.702,178.225C555.294,178.169 555.989,178.374 556.7,178.698C557.648,179.13 558.609,179.776 559.35,180.33C559.86,180.703 560.414,181.004 561,181.228C561.592,181.454 562.216,181.59 562.852,181.652C562.852,181.652 562.852,181.652 562.852,181.652C563.321,181.689 563.841,181.737 564.376,181.773C564.884,181.807 565.405,181.829 565.903,181.856C566.612,181.88 567.249,182.176 567.717,182.642C568.198,183.122 568.518,183.769 568.545,184.498L568.546,184.516Z"/>
                    </g>
                </g>
                <g>
                    <g transform="matrix(0.349592,-4.90059e-18,8.52088e-18,-0.255423,252.863,233.571)">
                        <path d="M663.247,228.123C663.247,228.123 659.876,233.779 657.551,239.274C656.35,242.113 655.415,244.896 655.5,246.78C655.556,248.624 656.414,250.275 657.729,251.5C659.065,252.744 660.915,253.529 662.968,253.508C665.023,253.532 666.871,252.745 668.217,251.507C669.549,250.281 670.442,248.635 670.521,246.78C670.625,244.939 669.879,242.415 668.9,239.867C666.933,234.744 663.984,229.584 663.984,229.584C663.968,229.561 663.979,229.531 664.008,229.519C664.037,229.506 664.073,229.514 664.089,229.538C664.089,229.538 667.848,234.413 670.48,239.392C671.894,242.067 672.926,244.772 673.04,246.78C673.142,249.199 672.174,251.424 670.534,253.089C668.683,254.967 665.96,256.099 662.968,256.132C659.975,256.103 657.257,254.967 655.393,253.096C653.735,251.433 652.738,249.208 652.812,246.78C652.906,244.716 654.109,241.712 655.731,238.697C658.627,233.313 662.69,227.877 662.69,227.877C662.773,227.752 662.966,227.706 663.12,227.774C663.274,227.842 663.33,227.998 663.247,228.123Z"/>
                    </g>
                    <g transform="matrix(-0.0874963,-3.59913e-18,0,0.054199,533.663,164.531)">
                        <path d="M560.301,95.147C565.462,94.692 570.265,96.364 573.923,99.353C577.78,102.504 580.119,107.181 580.485,112.405C580.656,117.799 578.537,122.8 574.865,126.36C571.18,129.932 565.95,131.998 560.301,131.895C554.806,131.679 549.753,129.468 546.24,125.868C542.766,122.308 540.712,117.527 541.209,112.337C541.696,107.607 543.436,103.62 546.511,100.685C549.322,98.002 553.191,96.187 558.163,95.564C558.297,95.539 558.427,95.624 558.453,95.753C558.479,95.882 558.391,96.007 558.256,96.031C553.715,97.136 550.305,99.177 547.999,101.959C545.663,104.776 544.569,108.362 544.634,112.474C544.67,116.525 546.642,120.057 549.593,122.578C552.425,124.997 556.248,126.378 560.301,126.219C564.244,126.147 567.707,124.46 570.309,121.995C572.928,119.516 574.754,116.206 574.875,112.405C575.154,108.42 573.76,104.733 571.251,101.913C568.551,98.879 564.768,96.755 560.301,96.361C559.951,96.361 559.667,96.089 559.667,95.754C559.667,95.419 559.951,95.147 560.301,95.147Z"/>
                    </g>
                </g>
            </g>
        </g>
    </g>
</svg>
