<?xml version="1.0" encoding="UTF-8" standalone="no"?>
<!DOCTYPE svg PUBLIC "-//W3C//DTD SVG 1.1//EN" "http://www.w3.org/Graphics/SVG/1.1/DTD/svg11.dtd">
<svg width="100%" height="100%" viewBox="0 0 26 31" version="1.1" xmlns="http://www.w3.org/2000/svg" xmlns:xlink="http://www.w3.org/1999/xlink" xml:space="preserve" xmlns:serif="http://www.serif.com/" style="fill-rule:evenodd;clip-rule:evenodd;stroke-linejoin:round;stroke-miterlimit:2;">
    <g transform="matrix(1,0,0,1,-721,-1279)">
        <g id="ic_category_utilities_water" transform="matrix(1.00136,0,0,1.00083,-1.00385,-2.83106)">
            <rect x="721.608" y="1281.16" width="24.462" height="29.828" style="fill:none;"/>
            <g transform="matrix(0.998644,0,0,0.999169,1.00249,1.07548)">
                <g transform="matrix(1.76958,0,0,2.98149,4.04708,962.591)">
                    <g transform="matrix(0.614596,0,0,0.358014,3.90824,25.2874)">
                        <path d="M662.821,227.894C662.821,227.894 658.999,233.051 656.246,238.193C654.668,241.139 653.473,244.091 653.423,246.103C653.368,248.764 654.424,251.2 656.178,252.958C657.906,254.69 660.317,255.743 662.968,255.761C665.615,255.732 668.015,254.668 669.739,252.937C671.487,251.181 672.55,248.758 672.5,246.103C672.495,245.893 672.48,245.675 672.454,245.449C672.42,245.149 672.371,244.835 672.303,244.509C672.23,244.129 671.867,243.88 671.493,243.954C671.12,244.028 670.875,244.398 670.948,244.779C670.989,245.01 671.02,245.235 671.039,245.451C671.06,245.678 671.065,245.896 671.06,246.103C671.019,248.307 670.057,250.274 668.565,251.686C667.111,253.062 665.138,253.904 662.968,253.88C660.802,253.895 658.841,253.04 657.391,251.665C655.904,250.255 654.935,248.301 654.889,246.103C654.843,244.243 655.877,241.483 657.187,238.683C659.641,233.442 663.115,228.106 663.115,228.106C663.173,228.023 663.154,227.909 663.072,227.85C662.991,227.791 662.879,227.811 662.821,227.894Z"/>
                    </g>
                    <g transform="matrix(0.614596,0,0,0.358014,3.90824,25.2874)">
                        <path d="M669.546,237.903C668.687,236.311 667.799,234.817 666.981,233.544C665.385,231.058 664.105,229.408 664.105,229.408C664.094,229.393 664.073,229.389 664.057,229.4C664.042,229.411 664.038,229.433 664.049,229.448C664.049,229.448 665.146,231.217 666.534,233.816C667.241,235.139 668.029,236.67 668.768,238.303C668.877,238.522 669.139,238.61 669.353,238.499C669.568,238.389 669.654,238.122 669.546,237.903Z"/>
                    </g>
                    <g transform="matrix(0.240155,0,0,0.160177,257.567,72.0569)">
                        <path d="M662.572,227.79C662.572,227.79 658.38,233.103 655.349,238.437C653.592,241.528 652.33,244.638 652.19,246.78C652.073,249.488 653.21,251.974 655.089,253.809C657.05,255.723 659.871,256.868 662.968,256.914C666.054,256.835 668.866,255.692 670.787,253.757C672.612,251.919 673.701,249.453 673.528,246.78C673.355,244.737 672.352,242.169 670.925,239.69C668.275,235.085 664.522,230.8 664.522,230.8C664.496,230.763 664.443,230.753 664.402,230.776C664.361,230.798 664.349,230.846 664.375,230.882C664.375,230.882 667.054,235.636 668.778,240.476C669.589,242.755 670.18,245.026 670.032,246.78C669.92,248.515 668.983,250.002 667.687,251.1C666.449,252.149 664.787,252.773 662.968,252.727C661.162,252.754 659.521,252.107 658.31,251.049C657.062,249.958 656.195,248.477 656.122,246.78C656.002,244.949 656.869,242.229 657.979,239.438C660.179,233.907 663.365,228.21 663.365,228.21C663.495,228.016 663.423,227.763 663.205,227.647C662.986,227.531 662.702,227.595 662.572,227.79Z"/>
                    </g>
                    <g transform="matrix(0.577232,0,0,0.342599,53.0636,87.6779)">
                        <path d="M620.823,81.356C620.757,81.256 620.719,81.136 620.719,81.007C620.719,80.653 621.01,80.365 621.368,80.365C621.727,80.365 622.017,80.653 622.017,81.007C622.017,81.362 621.727,81.65 621.368,81.65L621.368,81.006L621.348,80.997C621.298,80.97 621.308,80.851 621.368,80.832L621.368,81.006C621.422,81.03 621.515,81.055 621.5,81.007C621.472,80.911 621.635,80.78 621.546,80.748C621.468,80.72 621.455,80.556 621.368,80.58C621.231,80.614 621.063,80.504 620.988,80.611C620.9,80.74 620.731,80.842 620.754,81.007C620.763,81.13 620.775,81.255 620.823,81.356Z" style="fill:none;"/>
                    </g>
                    <g transform="matrix(0.307937,0,0,0.182767,225.55,97.3923)">
                        <path d="M621.984,81.21C621.899,81.465 621.655,81.65 621.368,81.65L621.368,81.241C621.429,81.206 621.459,81.41 621.5,81.358C621.582,81.255 621.818,81.488 621.832,81.36C621.84,81.287 621.909,81.245 621.984,81.21Z" style="fill:none;"/>
                    </g>
                    <g transform="matrix(0.565056,0.00448204,-0.00755161,0.335373,40.9422,28.2041)">
                        <path d="M652.312,242.243C652.053,243.076 651.858,244.481 652.069,245.96C652.182,246.76 652.41,247.579 652.79,248.336C653.615,249.98 655.114,251.359 657.721,251.587C657.851,251.605 657.972,251.514 657.99,251.384C658.009,251.253 657.918,251.132 657.787,251.114C655.554,250.677 654.372,249.38 653.787,247.891C653.522,247.215 653.391,246.502 653.328,245.813C653.213,244.55 653.363,243.363 653.6,242.66C653.716,242.305 653.521,241.923 653.165,241.807C652.81,241.692 652.427,241.887 652.312,242.243Z"/>
                    </g>
                    <g transform="matrix(0.181779,0.0208564,-0.0346651,0.106431,305.613,71.6832)">
                        <path d="M651.974,242.124C651.709,242.999 651.496,244.474 651.739,246.019C651.871,246.853 652.121,247.706 652.54,248.486C653.439,250.159 655.005,251.561 657.704,251.716C657.903,251.744 658.087,251.603 658.115,251.401C658.143,251.199 658.003,251.013 657.804,250.984C656.138,250.604 655.115,249.737 654.477,248.692C653.931,247.798 653.736,246.764 653.661,245.785C653.568,244.578 653.707,243.447 653.938,242.779C654.116,242.229 653.821,241.637 653.279,241.456C652.737,241.276 652.153,241.575 651.974,242.124Z"/>
                    </g>
                </g>
                <g transform="matrix(1.02146,0,0,1.02146,97.9472,1224)">
                    <ellipse cx="621.368" cy="81.007" rx="0.649" ry="0.642"/>
                </g>
                <g transform="matrix(0.544918,0,0,0.544918,403.175,1252.96)">
                    <ellipse cx="621.368" cy="81.007" rx="0.649" ry="0.642"/>
                </g>
            </g>
        </g>
    </g>
</svg>
