<?xml version="1.0" encoding="UTF-8" standalone="no"?>
<!DOCTYPE svg PUBLIC "-//W3C//DTD SVG 1.1//EN" "http://www.w3.org/Graphics/SVG/1.1/DTD/svg11.dtd">
<svg width="100%" height="100%" viewBox="0 0 33 33" version="1.1" xmlns="http://www.w3.org/2000/svg" xmlns:xlink="http://www.w3.org/1999/xlink" xml:space="preserve" xmlns:serif="http://www.serif.com/" style="fill-rule:evenodd;clip-rule:evenodd;stroke-linejoin:round;stroke-miterlimit:2;">
    <g transform="matrix(1,0,0,1,-812,-2053)">
        <g id="world-news" serif:id="world news" transform="matrix(0.711918,0,0,0.709479,235.593,601.826)">
            <rect x="810.831" y="2046.43" width="44.443" height="44.46" style="fill:none;"/>
            <g transform="matrix(2.48565,0,0,4.20236,-550.89,1385.13)">
                <g transform="matrix(-0.332762,-0.214016,0.376336,-0.206127,700.835,305.85)">
                    <path d="M560.301,95.97C564.975,96.116 569.132,98.067 572.112,101.088C575.023,104.039 576.791,108.03 576.682,112.405C576.632,116.717 574.734,120.578 571.775,123.399C568.822,126.216 564.792,128.013 560.301,128.041C555.789,128.104 551.585,126.411 548.519,123.632C545.39,120.797 543.431,116.841 543.541,112.43C543.642,107.911 545.105,104.179 547.772,101.373C550.395,98.614 554.162,96.745 558.919,95.881C558.967,95.873 559,95.83 558.992,95.783C558.984,95.737 558.938,95.706 558.89,95.714C553.983,96.401 550.054,98.18 547.249,100.898C544.311,103.745 542.609,107.622 542.303,112.381C542.004,117.203 543.995,121.606 547.314,124.814C550.627,128.015 555.272,130.003 560.301,130.073C565.401,130.105 570.061,128.169 573.399,124.956C576.732,121.748 578.733,117.285 578.677,112.405C578.557,107.588 576.452,103.248 573.062,100.178C569.742,97.172 565.223,95.383 560.301,95.537C560.176,95.537 560.075,95.634 560.075,95.754C560.075,95.873 560.176,95.97 560.301,95.97Z"/>
                </g>
                <g transform="matrix(0.874591,0,0,0.519088,-160.791,4.42651)">
                    <path d="M827.778,304.441C828.053,304.757 828.298,305.437 828.326,306.487C828.349,307.396 828.216,308.563 827.773,310.007C827.771,310.013 827.774,310.02 827.781,310.022C827.787,310.024 827.794,310.021 827.796,310.015C828.391,308.593 828.652,307.42 828.709,306.493C828.787,305.201 828.462,304.377 828.146,304.011C827.974,303.814 827.747,303.802 827.47,303.94C827.321,304.015 827.146,304.149 826.955,304.28C826.768,304.409 826.565,304.544 826.343,304.545C826.209,304.546 826.074,304.482 825.932,304.338C825.586,303.764 825.34,303.232 825.162,302.744C824.923,302.084 824.812,301.504 824.788,301.001C824.719,299.544 825.344,298.758 825.344,298.758C825.377,298.721 825.391,298.67 825.382,298.62C825.373,298.571 825.342,298.528 825.297,298.505C824.988,298.357 824.522,297.981 824.194,297.578C823.953,297.283 823.781,296.979 823.818,296.738C823.825,296.704 823.802,296.67 823.768,296.664C823.733,296.657 823.7,296.679 823.693,296.714C823.629,296.983 823.781,297.349 824.026,297.704C824.294,298.094 824.674,298.468 824.98,298.688C824.759,298.992 824.302,299.768 824.287,301.01C824.28,301.561 824.362,302.205 824.596,302.937C824.769,303.477 825.031,304.063 825.395,304.698C825.407,304.719 825.421,304.738 825.438,304.755C825.75,305.085 826.062,305.192 826.353,305.186C826.542,305.181 826.727,305.128 826.901,305.041C827.114,304.935 827.313,304.781 827.49,304.642C827.585,304.567 827.722,304.477 827.778,304.441Z"/>
                </g>
                <g transform="matrix(0.874591,0,0,0.519088,-160.791,4.42651)">
                    <path d="M811.049,303.992C811.049,303.992 811.529,304.891 812.464,305.777C812.976,306.262 813.624,306.732 814.392,307.063C814.393,307.064 814.394,307.064 814.395,307.064C814.406,307.069 814.41,307.081 814.415,307.091C814.42,307.099 814.415,307.109 814.413,307.119C814.304,307.689 814.336,308.168 814.463,308.575C814.568,308.909 814.736,309.197 814.943,309.445C815.174,309.722 815.453,309.95 815.742,310.15C816.028,310.35 816.323,310.52 816.585,310.689C816.774,310.81 816.946,310.926 817.08,311.056C817.22,311.191 817.324,311.332 817.345,311.509C817.383,311.813 817.415,312.119 817.443,312.407C817.514,313.158 817.55,313.763 817.55,313.763C817.55,313.77 817.555,313.775 817.562,313.775C817.568,313.775 817.574,313.77 817.574,313.764C817.574,313.764 817.617,313.276 817.649,312.629C817.667,312.277 817.679,311.88 817.682,311.489C817.68,310.978 817.246,310.577 816.691,310.155C816.356,309.9 815.981,309.631 815.66,309.3C815.473,309.107 815.307,308.892 815.183,308.64C814.998,308.265 814.906,307.808 814.997,307.218C814.997,307.217 814.997,307.217 814.997,307.216C815.017,307.067 814.989,306.921 814.914,306.801C814.84,306.683 814.73,306.584 814.59,306.537C813.854,306.293 813.222,305.9 812.704,305.498C811.72,304.731 811.157,303.926 811.157,303.926C811.138,303.896 811.099,303.886 811.07,303.905C811.04,303.923 811.03,303.962 811.049,303.992Z"/>
                </g>
                <g transform="matrix(0.874591,0,0,0.519088,-160.791,4.42651)">
                    <path d="M814.941,301.364C814.446,300.694 813.64,300.587 813.196,300.896C812.779,301.188 812.572,301.904 813.305,302.982C813.304,302.981 813.32,303.044 813.32,303.044L813.289,303.653C813.251,303.77 813.243,303.894 813.263,304.013C813.286,304.146 813.346,304.271 813.437,304.377C813.621,304.607 814.094,305.072 814.771,305.421C815.235,305.66 815.794,305.843 816.417,305.869C816.418,305.869 816.419,305.869 816.42,305.869C816.492,305.871 816.565,305.864 816.635,305.85C816.705,305.835 816.774,305.812 816.84,305.782C817.496,305.473 818.053,305.587 818.579,305.87C819.439,306.333 820.228,307.201 821.141,307.716C821.142,307.717 821.143,307.717 821.144,307.718C821.217,307.757 821.293,307.79 821.372,307.813C821.451,307.837 821.532,307.854 821.614,307.861C822.52,307.939 823.225,308.16 823.72,308.428C824.082,308.623 824.33,308.836 824.449,309.037C824.509,309.139 824.541,309.23 824.509,309.305C824.185,310.051 823.685,310.541 823.156,310.985C822.575,311.471 821.961,311.9 821.491,312.52C821.143,312.978 820.874,313.54 820.756,314.305C820.755,314.311 820.759,314.317 820.766,314.319C820.772,314.32 820.779,314.315 820.78,314.309C820.938,313.568 821.231,313.034 821.596,312.604C822.091,312.02 822.717,311.631 823.312,311.182C823.901,310.738 824.455,310.236 824.839,309.458C824.919,309.294 824.908,309.081 824.785,308.849C824.651,308.596 824.369,308.309 823.935,308.05C823.409,307.737 822.652,307.464 821.669,307.339C821.669,307.339 821.669,307.339 821.669,307.339C821.623,307.333 821.578,307.322 821.534,307.307C821.491,307.292 821.45,307.272 821.41,307.249C820.802,306.882 820.258,306.347 819.702,305.896C819.266,305.542 818.821,305.239 818.346,305.08C817.804,304.897 817.222,304.894 816.567,305.197L816.438,305.224C815.916,305.206 815.449,305.052 815.058,304.857C814.478,304.567 814.065,304.185 813.905,303.991C813.901,303.986 813.897,303.981 813.893,303.977C813.874,303.957 813.861,303.933 813.856,303.907C813.851,303.88 813.852,303.853 813.863,303.827C813.875,303.798 813.882,303.767 813.884,303.736L813.901,303.054C813.902,302.983 813.892,302.912 813.871,302.845C813.85,302.778 813.819,302.713 813.778,302.655C813.778,302.654 813.777,302.654 813.777,302.653C813.521,302.297 813.391,302 813.363,301.757C813.341,301.557 813.39,301.407 813.503,301.322C813.632,301.226 813.818,301.21 814.006,301.263C814.264,301.336 814.524,301.534 814.699,301.861C814.729,301.918 814.772,301.965 814.825,301.994C814.88,302.024 814.944,302.039 815.008,302.032C815.073,302.024 815.133,301.999 815.18,301.957C815.226,301.916 815.261,301.862 815.276,301.798C815.403,301.28 815.669,300.836 815.996,300.436C816.871,299.365 818.151,298.585 818.568,297.544C818.569,297.541 818.57,297.538 818.571,297.535C818.586,297.486 818.615,297.444 818.655,297.415C818.695,297.386 818.744,297.367 818.796,297.367C819.289,297.375 819.644,297.229 819.896,297.03C820.389,296.642 820.488,296.055 820.488,296.055C820.494,296.021 820.472,295.988 820.437,295.981C820.403,295.975 820.37,295.998 820.363,296.032C820.363,296.032 820.251,296.559 819.79,296.891C819.56,297.057 819.24,297.17 818.802,297.144C818.802,297.144 818.801,297.144 818.801,297.144C818.699,297.14 818.602,297.171 818.521,297.225C818.44,297.279 818.377,297.36 818.342,297.457C818.155,297.871 817.811,298.237 817.414,298.599C816.865,299.099 816.216,299.59 815.695,300.179C815.383,300.532 815.118,300.921 814.941,301.364Z"/>
                </g>
            </g>
        </g>
    </g>
</svg>
