<?xml version="1.0" encoding="UTF-8" standalone="no"?>
<!DOCTYPE svg PUBLIC "-//W3C//DTD SVG 1.1//EN" "http://www.w3.org/Graphics/SVG/1.1/DTD/svg11.dtd">
<svg width="100%" height="100%" viewBox="0 0 27 33" version="1.1" xmlns="http://www.w3.org/2000/svg" xmlns:xlink="http://www.w3.org/1999/xlink" xml:space="preserve" xmlns:serif="http://www.serif.com/" style="fill-rule:evenodd;clip-rule:evenodd;stroke-linejoin:round;stroke-miterlimit:2;">
    <g transform="matrix(1,0,0,1,-776,-1793)">
        <g id="ic_category_space_and_vehicle_retirement_funds" transform="matrix(1.00047,0,0,1.0003,-0.365567,-3.44378)">
            <rect x="776.958" y="1796.59" width="25.323" height="31.328" style="fill:none;"/>
            <g transform="matrix(1.76875,0,0,2.98058,4.10144,1391.12)">
                <g transform="matrix(0.577368,0,0,0.34268,-49.2492,15.1177)">
                    <path d="M848.691,362.181L846.85,353.903C846.785,353.614 846.618,353.372 846.401,353.195C846.181,353.016 845.9,352.918 845.601,352.913C845.601,352.913 843.487,352.875 843.487,352.875C843.28,352.872 843.078,352.922 842.894,353.006C842.708,353.091 842.546,353.223 842.412,353.384C842.277,353.546 842.189,353.737 842.138,353.937C842.087,354.138 842.088,354.35 842.13,354.558C842.13,354.558 842.13,354.558 842.13,354.558C842.475,356.242 843.19,359.832 843.949,363.45C844.68,366.94 845.452,370.452 845.853,372.323C845.992,372.942 846.335,373.472 846.799,373.854C847.264,374.238 847.854,374.466 848.49,374.485C849.994,374.509 852.504,374.57 855.013,374.591C857.528,374.611 860.041,374.591 861.539,374.591C862.131,374.588 862.675,374.366 863.068,373.98C863.455,373.6 863.715,373.082 863.729,372.499L863.776,370.458C863.783,370.107 863.726,369.76 863.596,369.441C863.467,369.126 863.283,368.832 863.035,368.588C862.79,368.346 862.505,368.153 862.191,368.031C861.88,367.909 861.547,367.843 861.206,367.854L850.838,368.251C850.688,368.258 850.544,368.218 850.426,368.138C850.304,368.055 850.205,367.936 850.154,367.789C850.154,367.789 849.584,366.166 849.584,366.166C849.579,366.147 849.558,366.136 849.539,366.142C849.52,366.147 849.509,366.168 849.515,366.187L849.943,367.853C849.995,368.055 850.113,368.226 850.268,368.351C850.425,368.479 850.625,368.553 850.838,368.562C850.838,368.562 861.206,368.959 861.206,368.959C861.392,368.965 861.57,369.016 861.734,369.094C861.895,369.17 862.037,369.284 862.157,369.42C862.275,369.554 862.357,369.712 862.411,369.878C862.465,370.041 862.478,370.215 862.463,370.389L862.295,372.423C862.279,372.609 862.179,372.766 862.048,372.88C861.923,372.989 861.753,373.037 861.575,373.028C860.078,372.959 857.57,372.823 855.056,372.727C852.549,372.631 850.039,372.576 848.535,372.531C848.344,372.527 848.166,372.463 848.025,372.349C847.883,372.235 847.774,372.077 847.73,371.889C847.271,370.032 846.425,366.537 845.552,363.08C844.647,359.495 843.717,355.955 843.288,354.291C843.288,354.291 843.313,354.093 843.313,354.093C843.336,354.063 843.359,354.034 843.391,354.017C843.425,353.999 843.46,353.982 843.499,353.981L845.611,353.898C845.687,353.895 845.761,353.91 845.82,353.952C845.88,353.996 845.934,354.055 845.955,354.132C845.955,354.132 848.319,362.276 848.319,362.276C848.345,362.379 848.45,362.441 848.552,362.414C848.655,362.388 848.717,362.283 848.691,362.181Z"/>
                </g>
                <g transform="matrix(0.46399,0,0,0.305771,226.789,89.9971)">
                    <path d="M455.096,180.756L456.014,179.968L456.006,179.964C460.099,181.51 463.735,182.464 467.688,182.509C471.169,182.549 474.892,181.884 479.388,180.295C479.399,180.292 479.404,180.281 479.401,180.271C479.397,180.262 479.385,180.257 479.374,180.26C474.86,181.693 471.148,182.237 467.702,182.093C463.829,181.931 460.299,180.895 456.346,179.266C456.346,179.266 456.346,179.265 456.346,179.265C456.193,179.203 456.026,179.187 455.867,179.209C455.706,179.231 455.555,179.297 455.429,179.399C455.43,179.399 454.43,180.208 454.43,180.208C454.333,180.286 454.26,180.385 454.212,180.493C454.163,180.6 454.145,180.718 454.154,180.837C454.163,180.956 454.206,181.069 454.271,181.17C454.336,181.271 454.429,181.357 454.54,181.424C454.541,181.424 454.543,181.425 454.544,181.426C457.429,183.106 460.907,184.17 464.529,184.65C466.034,184.85 467.563,184.949 469.083,184.947C470.363,184.945 471.636,184.872 472.881,184.728C474.163,184.581 475.416,184.359 476.616,184.069C477.88,183.764 479.087,183.383 480.209,182.932C481.421,182.444 482.532,181.873 483.521,181.234C483.522,181.233 483.523,181.233 483.524,181.232C483.599,181.181 483.664,181.12 483.708,181.047C483.752,180.975 483.783,180.896 483.789,180.812C483.794,180.729 483.785,180.646 483.752,180.57C483.719,180.495 483.673,180.424 483.607,180.366L482.259,179.2C482.179,179.131 482.081,179.084 481.976,179.071C481.872,179.058 481.763,179.069 481.666,179.116L479.796,180.027C479.735,180.054 479.709,180.12 479.739,180.175C479.768,180.231 479.842,180.254 479.903,180.227L481.857,179.47C481.857,179.47 481.925,179.491 481.925,179.491L483.169,180.747L483.162,180.755L483.155,180.749C482.164,181.304 481.057,181.777 479.867,182.184C478.761,182.562 477.584,182.875 476.357,183.126C475.189,183.364 473.978,183.544 472.741,183.666C471.538,183.784 470.312,183.846 469.08,183.852C466.137,183.865 463.157,183.54 460.387,182.81C458.499,182.312 456.706,181.637 455.096,180.756Z"/>
                </g>
                <g transform="matrix(0.337505,0,0,0.386653,286.692,69.9506)">
                    <path d="M479.586,179.979C479.537,179.944 479.504,179.972 479.504,180.003C479.504,180.052 479.58,180.091 479.673,180.091L481.136,180.139C481.338,180.145 481.532,180.174 481.711,180.219C481.886,180.262 482.04,180.326 482.172,180.402C482.301,180.476 482.392,180.563 482.455,180.655C482.516,180.745 482.535,180.841 482.525,180.938L482.515,181.028C482.495,181.22 482.313,181.384 482.058,181.504C481.817,181.617 481.49,181.677 481.139,181.669C479.947,181.647 478.25,181.606 476.278,181.579C474.778,181.558 473.123,181.54 471.416,181.534C469.486,181.527 467.49,181.535 465.583,181.544C462.028,181.561 458.782,181.597 456.833,181.613C456.494,181.616 456.182,181.551 455.955,181.438C455.724,181.323 455.57,181.163 455.563,180.984L455.563,180.98C455.559,180.893 455.585,180.806 455.645,180.726C455.707,180.644 455.794,180.568 455.913,180.504C456.033,180.439 456.173,180.386 456.329,180.35C456.487,180.315 456.657,180.292 456.833,180.291L479.207,180.016C479.223,180.016 479.235,180.01 479.235,180.002C479.235,179.994 479.223,179.987 479.207,179.987L456.833,179.71C456.507,179.706 456.187,179.739 455.889,179.799C455.588,179.86 455.314,179.953 455.077,180.071C454.839,180.189 454.655,180.331 454.524,180.485C454.393,180.64 454.326,180.808 454.319,180.98L454.319,180.984C454.305,181.346 454.585,181.674 455.035,181.915C455.489,182.16 456.127,182.309 456.833,182.315C456.833,182.315 456.833,182.315 456.833,182.315C458.782,182.331 462.028,182.367 465.583,182.384C467.49,182.393 469.486,182.401 471.416,182.394C473.123,182.388 474.778,182.37 476.278,182.349C478.25,182.322 479.947,182.281 481.139,182.259C481.787,182.244 482.371,182.106 482.775,181.876C483.167,181.652 483.41,181.354 483.376,181.028L483.367,180.938C483.351,180.786 483.286,180.638 483.161,180.503C483.039,180.371 482.874,180.249 482.658,180.149C482.447,180.051 482.207,179.974 481.944,179.926C481.686,179.88 481.413,179.856 481.135,179.865L479.688,179.915C479.6,179.918 479.579,179.946 479.586,179.979Z"/>
                </g>
                <g transform="matrix(0.939702,0.107035,-0.0951551,0.283371,-14.9251,75.6786)">
                    <path d="M491.325,59.998C491.325,59.998 491.321,58.497 491.263,56.798C491.186,54.558 491.027,51.999 491.027,51.999C491.026,51.846 490.962,51.722 490.884,51.723C490.806,51.723 490.744,51.848 490.745,52.001C490.745,52.001 490.61,54.561 490.555,56.802C490.513,58.501 490.525,60.002 490.525,60.002C490.527,60.436 490.708,60.787 490.929,60.786C491.149,60.785 491.327,60.432 491.325,59.998Z"/>
                </g>
                <g transform="matrix(-0.939734,0.106934,0.0885693,0.262725,903.972,76.876)">
                    <path d="M490.525,60.002C490.525,60.002 490.514,58.501 490.555,56.802C490.61,54.559 490.745,52.001 490.745,52.001C490.744,51.836 490.806,51.702 490.884,51.701C490.962,51.701 491.026,51.834 491.027,51.999C491.027,51.999 491.186,54.556 491.263,56.798C491.321,58.497 491.325,59.998 491.325,59.998C491.327,60.466 491.15,60.847 490.929,60.848C490.708,60.849 490.527,60.47 490.525,60.002Z"/>
                </g>
                <g transform="matrix(0.918852,0.158446,-0.0634544,0.120167,-0.337265,56.2951)">
                    <path d="M491.325,59.998C491.325,59.998 491.321,58.491 491.263,56.798C491.185,54.502 491.027,51.999 491.027,51.999C491.025,51.648 490.96,51.364 490.882,51.364C490.805,51.364 490.743,51.65 490.745,52.001C490.745,52.001 490.611,54.505 490.555,56.802C490.514,58.495 490.525,60.002 490.525,60.002C490.53,60.998 490.713,61.805 490.933,61.804C491.154,61.803 491.329,60.994 491.325,59.998Z"/>
                </g>
            </g>
        </g>
    </g>
</svg>
