<?xml version="1.0" encoding="UTF-8" standalone="no"?>
<!DOCTYPE svg PUBLIC "-//W3C//DTD SVG 1.1//EN" "http://www.w3.org/Graphics/SVG/1.1/DTD/svg11.dtd">
<svg width="100%" height="100%" viewBox="0 0 31 28" version="1.1" xmlns="http://www.w3.org/2000/svg" xmlns:xlink="http://www.w3.org/1999/xlink" xml:space="preserve" xmlns:serif="http://www.serif.com/" style="fill-rule:evenodd;clip-rule:evenodd;stroke-linejoin:round;stroke-miterlimit:2;">
    <g transform="matrix(1,0,0,1,-604,-1344)">
        <g id="ic_category_subscription_services_TV" transform="matrix(1.00039,0,0,0.987015,-0.241137,17.0555)">
            <rect x="604.954" y="1344.43" width="29.563" height="27.718" style="fill:none;"/>
            <g transform="matrix(1.76888,0,0,3.02071,-78.4964,1060.99)">
                <g transform="matrix(-0.0425499,6.93889e-18,3.57353e-16,0.0253153,428.825,95.2013)">
                    <path d="M662.819,158.963C668.285,158.086 672.91,159.781 676.724,162.784C680.736,165.942 682.865,170.959 683.843,176.709C684.419,183.035 682.091,188.961 678.007,193.239C675.93,195.414 673.31,197.101 670.435,198.152C667.672,199.163 664.678,199.676 661.581,199.47C655.473,198.907 649.984,196.386 646.396,191.973C643.021,187.823 640.94,182.555 641.586,176.823C642.249,171.642 644.209,167.316 647.514,164.35C650.726,161.467 654.836,159.805 659.588,160.121C659.724,160.112 659.841,160.214 659.85,160.349C659.858,160.483 659.756,160.6 659.621,160.609C655.558,161.427 652.419,163.644 650.363,166.785C648.565,169.534 647.962,172.988 648.452,176.823C648.842,180.279 650.834,183.036 653.335,185.075C655.559,186.888 658.502,187.582 661.581,187.299C662.981,187.206 664.238,186.658 665.446,186.102C666.659,185.545 667.717,184.75 668.675,183.855C670.616,182.04 672.296,179.786 672.441,176.937C672.879,173.542 672.594,170.418 671.012,167.877C669.157,164.898 666.609,162.503 662.717,161.56C661.998,161.532 661.438,160.927 661.466,160.211C661.494,159.494 662.101,158.935 662.819,158.963Z"/>
                </g>
                <g transform="matrix(-0.0425499,6.93889e-18,3.57353e-16,0.0253153,428.825,96.9622)">
                    <path d="M662.819,158.963C668.285,158.086 672.91,159.781 676.724,162.784C680.736,165.942 682.865,170.959 683.843,176.709C684.419,183.035 682.091,188.961 678.007,193.239C675.93,195.414 673.31,197.101 670.435,198.152C667.672,199.163 664.678,199.676 661.581,199.47C655.473,198.907 649.984,196.386 646.396,191.973C643.021,187.823 640.94,182.555 641.586,176.823C642.249,171.642 644.209,167.316 647.514,164.35C650.726,161.467 654.836,159.805 659.588,160.121C659.724,160.112 659.841,160.214 659.85,160.349C659.858,160.483 659.756,160.6 659.621,160.609C655.558,161.427 652.419,163.644 650.363,166.785C648.565,169.534 647.962,172.988 648.452,176.823C648.842,180.279 650.834,183.036 653.335,185.075C655.559,186.888 658.502,187.582 661.581,187.299C662.981,187.206 664.238,186.658 665.446,186.102C666.659,185.545 667.717,184.75 668.675,183.855C670.616,182.04 672.296,179.786 672.441,176.937C672.879,173.542 672.594,170.418 671.012,167.877C669.157,164.898 666.609,162.503 662.717,161.56C661.998,161.532 661.438,160.927 661.466,160.211C661.494,159.494 662.101,158.935 662.819,158.963Z"/>
                </g>
                <g transform="matrix(0.328929,-0.000542141,0.00133039,0.284343,144.382,81.8274)">
                    <path d="M776.761,54.837C776.536,54.499 776.373,54.647 776.373,54.821C776.372,55.041 776.632,55.221 776.953,55.221C776.953,55.221 777.703,55.216 778.553,55.179C779.674,55.131 780.954,55.033 780.954,55.033C781.117,55.033 781.25,54.942 781.25,54.83C781.251,54.718 781.119,54.627 780.955,54.626C780.955,54.626 779.676,54.524 778.556,54.47C777.942,54.441 777.381,54.433 777.116,54.426C776.73,54.416 776.7,54.629 776.761,54.837Z"/>
                </g>
                <g transform="matrix(0.881282,-0.523826,0.342326,0.198944,-308.882,492.128)">
                    <path d="M776.951,55.621C776.951,55.621 777.701,55.61 778.551,55.534C779.668,55.435 780.953,55.236 780.953,55.236C781.039,55.236 781.11,55.054 781.111,54.83C781.111,54.605 781.042,54.423 780.956,54.423C780.956,54.423 779.672,54.22 778.557,54.116C777.707,54.037 776.958,54.023 776.958,54.023C776.788,54.023 776.649,54.38 776.648,54.821C776.646,55.262 776.782,55.62 776.951,55.621Z"/>
                </g>
                <g transform="matrix(-0.881282,-0.523826,-0.342326,0.198944,1098.08,492.128)">
                    <path d="M776.958,54.023C776.958,54.023 777.707,54.037 778.557,54.116C779.672,54.22 780.956,54.423 780.956,54.423C781.042,54.423 781.111,54.605 781.111,54.83C781.11,55.054 781.039,55.236 780.953,55.236C780.953,55.236 779.668,55.435 778.551,55.534C777.701,55.61 776.951,55.621 776.951,55.621C776.782,55.62 776.646,55.262 776.648,54.821C776.649,54.38 776.788,54.023 776.958,54.023Z"/>
                </g>
                <g transform="matrix(0.328929,-0.000542141,0.00133039,0.284343,144.382,82.4107)">
                    <path d="M776.761,54.837C776.536,54.499 776.373,54.647 776.373,54.821C776.372,55.041 776.632,55.221 776.953,55.221C776.953,55.221 777.703,55.216 778.553,55.179C779.674,55.131 780.954,55.033 780.954,55.033C781.117,55.033 781.25,54.942 781.25,54.83C781.251,54.718 781.119,54.627 780.955,54.626C780.955,54.626 779.676,54.524 778.556,54.47C777.942,54.441 777.381,54.433 777.116,54.426C776.73,54.416 776.7,54.629 776.761,54.837Z"/>
                </g>
                <g transform="matrix(0.328929,-0.000542141,0.00133039,0.284343,144.382,82.9883)">
                    <path d="M776.761,54.837C776.536,54.499 776.373,54.647 776.373,54.821C776.372,55.041 776.632,55.221 776.953,55.221C776.953,55.221 777.703,55.216 778.553,55.179C779.674,55.131 780.954,55.033 780.954,55.033C781.117,55.033 781.25,54.942 781.25,54.83C781.251,54.718 781.119,54.627 780.955,54.626C780.955,54.626 779.676,54.524 778.556,54.47C777.942,54.441 777.381,54.433 777.116,54.426C776.73,54.416 776.7,54.629 776.761,54.837Z"/>
                </g>
                <g transform="matrix(0.659986,0,0,0.257077,0.61978,29.2056)">
                    <path d="M585.122,280.898L585.416,261.305C585.418,261.141 585.47,260.999 585.541,260.895C585.611,260.794 585.707,260.743 585.811,260.746C587.677,260.801 592.314,260.961 596.954,261.071C601.593,261.181 606.232,261.239 608.098,261.273C608.098,261.273 608.109,261.289 608.109,261.289L608.109,261.305C608.11,263.526 608.091,268.262 608.114,272.998C608.137,277.735 608.202,282.471 608.222,284.691C608.223,284.746 608.217,284.8 608.194,284.837C608.168,284.877 608.137,284.916 608.098,284.917C606.232,284.984 601.595,285.132 596.955,285.319C592.314,285.505 587.678,285.73 585.811,285.813C585.715,285.818 585.619,285.795 585.531,285.744C585.441,285.693 585.357,285.616 585.286,285.514C585.213,285.411 585.155,285.289 585.115,285.153C585.074,285.016 585.05,284.867 585.047,284.714C585.047,284.714 584.986,281.777 584.986,281.777C584.986,281.75 584.972,281.728 584.954,281.728C584.937,281.728 584.923,281.75 584.923,281.777L584.862,284.714C584.858,284.907 584.88,285.096 584.924,285.274C584.969,285.453 585.037,285.617 585.125,285.759C585.214,285.903 585.32,286.015 585.436,286.095C585.553,286.175 585.68,286.218 585.811,286.224C587.678,286.303 592.314,286.519 596.955,286.696C601.595,286.873 606.233,287.012 608.099,287.075C608.099,287.075 608.099,287.075 608.099,287.075C608.533,287.088 608.925,286.816 609.214,286.391C609.505,285.962 609.679,285.357 609.686,284.692C609.686,284.692 609.686,284.691 609.686,284.691C609.707,282.471 609.772,277.735 609.794,272.998C609.817,268.262 609.799,263.526 609.8,261.305C609.799,260.961 609.754,260.624 609.669,260.313C609.583,260.003 609.459,259.717 609.299,259.476C609.138,259.235 608.951,259.045 608.747,258.919C608.542,258.793 608.323,258.724 608.098,258.727C608.098,258.727 608.098,258.727 608.098,258.727C606.232,258.761 601.593,258.819 596.954,258.929C592.314,259.039 587.677,259.199 585.811,259.254C585.441,259.266 585.106,259.493 584.869,259.87C584.634,260.243 584.485,260.747 584.493,261.305L584.786,280.898C584.786,281.039 584.862,281.154 584.954,281.154C585.047,281.154 585.122,281.039 585.122,280.898Z"/>
                </g>
                <g transform="matrix(0.432454,-2.82516e-18,3.34714e-18,-0.196708,135.211,153.04)">
                    <path d="M584.945,281.715L584.954,281.714L584.962,281.722C584.975,281.739 585.003,281.782 585.006,281.86C585.011,281.989 585.02,282.261 585.033,282.607C585.048,283.042 585.131,283.463 585.27,283.849C585.407,284.229 585.601,284.571 585.843,284.859C586.081,285.141 586.357,285.351 586.654,285.491C586.944,285.628 587.255,285.687 587.57,285.669C589.88,285.54 593.413,285.326 596.956,285.144C600.497,284.962 604.033,284.813 606.342,284.705C606.782,284.687 607.164,284.413 607.443,284.025C607.712,283.653 607.853,283.139 607.841,282.588C607.796,279.647 607.699,275.232 607.664,271.081C607.641,268.202 607.658,265.451 607.656,263.41C607.658,262.934 607.518,262.499 607.281,262.183C607.04,261.862 606.712,261.645 606.341,261.639C604.033,261.586 600.494,261.526 596.954,261.422C593.413,261.318 589.876,261.171 587.568,261.09C587.068,261.069 586.603,261.296 586.265,261.711C585.916,262.14 585.679,262.735 585.663,263.41C585.663,263.41 585.211,280.898 585.211,280.898C585.211,281.082 585.096,281.232 584.954,281.232C584.813,281.232 584.698,281.082 584.698,280.898L584.246,263.41C584.217,262.202 584.586,261.103 585.174,260.287C585.774,259.455 586.624,258.948 587.568,258.91C587.568,258.91 587.568,258.91 587.568,258.91C589.876,258.829 593.413,258.682 596.954,258.578C600.494,258.474 604.033,258.414 606.341,258.361C607.413,258.342 608.386,258.907 609.097,259.814C609.81,260.727 610.245,262.003 610.253,263.41C610.251,265.451 610.268,268.202 610.244,271.081C610.21,275.232 610.113,279.647 610.068,282.588C610.039,283.92 609.624,285.124 608.936,285.971C608.258,286.804 607.347,287.33 606.344,287.29C606.344,287.29 606.344,287.29 606.344,287.29C604.035,287.187 600.498,287.046 596.957,286.871C593.414,286.696 589.88,286.489 587.57,286.365C587.191,286.343 586.822,286.231 586.484,286.025C586.152,285.823 585.849,285.54 585.598,285.179C585.35,284.825 585.159,284.418 585.037,283.975C584.917,283.541 584.859,283.077 584.876,282.607C584.889,282.261 585.002,281.866 584.903,281.86C584.859,281.857 584.879,281.813 584.906,281.774C584.907,281.745 584.923,281.721 584.945,281.715Z"/>
                </g>
            </g>
        </g>
    </g>
</svg>
