<?xml version="1.0" encoding="UTF-8" standalone="no"?>
<!DOCTYPE svg PUBLIC "-//W3C//DTD SVG 1.1//EN" "http://www.w3.org/Graphics/SVG/1.1/DTD/svg11.dtd">
<svg width="100%" height="100%" viewBox="0 0 32 18" version="1.1" xmlns="http://www.w3.org/2000/svg" xmlns:xlink="http://www.w3.org/1999/xlink" xml:space="preserve" xmlns:serif="http://www.serif.com/" style="fill-rule:evenodd;clip-rule:evenodd;stroke-linejoin:round;stroke-miterlimit:2;">
    <g transform="matrix(1,0,0,1,-755,-752)">
        <g id="ic_category_category_groups_vehicle" transform="matrix(1.00176,0,0,1.00348,-7.07783,-13.5312)">
            <rect x="760.954" y="763.08" width="31.338" height="16.92" style="fill:none;"/>
            <g transform="matrix(1.76647,0,0,1.41607,143.391,564.857)">
                <g transform="matrix(0.219474,0.000260555,0.000209229,0.136657,191.604,138.308)">
                    <path d="M776.952,56.057L780.953,55.732C781.202,55.732 781.404,55.328 781.405,54.83C781.406,54.333 781.205,53.928 780.956,53.927L776.957,53.586C776.616,53.586 776.338,54.139 776.337,54.821C776.335,55.503 776.611,56.057 776.952,56.057Z"/>
                </g>
                <g transform="matrix(0.219474,0.000260555,0.000209229,0.136657,186.509,138.31)">
                    <path d="M776.952,56.057L780.953,55.732C781.202,55.732 781.404,55.328 781.405,54.83C781.406,54.333 781.205,53.928 780.956,53.927L776.957,53.586C776.616,53.586 776.338,54.139 776.337,54.821C776.335,55.503 776.611,56.057 776.952,56.057Z"/>
                </g>
                <g transform="matrix(0.372986,0.000625046,0.000501921,0.136658,60.02,140.684)">
                    <path d="M776.951,56.675L780.952,56.183C781.171,56.183 781.351,55.577 781.352,54.83C781.354,54.084 781.177,53.477 780.957,53.476L776.958,52.969C776.657,52.968 776.411,53.798 776.409,54.821C776.407,55.844 776.65,56.675 776.951,56.675Z"/>
                </g>
                <g transform="matrix(-0.427162,0,0,0.552501,626.34,67.5512)">
                    <path d="M608.399,140.886L608.409,140.884C608.424,140.881 608.454,140.876 608.5,140.868C608.663,140.839 608.993,140.776 609.406,140.71C609.883,140.633 610.436,140.558 610.917,140.487C611.362,140.442 611.77,140.61 612.085,140.87C612.411,141.137 612.588,141.548 612.612,141.992L612.612,141.992C612.608,142.207 612.572,142.42 612.478,142.611C612.385,142.799 612.26,142.974 612.091,143.112C611.92,143.241 611.745,143.359 611.54,143.411C611.34,143.462 611.138,143.5 610.93,143.47C610.93,143.47 610.93,143.47 610.93,143.47C610.63,143.418 610.311,143.37 609.993,143.308C609.232,143.16 608.588,143.005 608.588,143.005C608.574,143.005 608.563,142.994 608.563,142.981C608.563,142.968 608.574,142.958 608.588,142.958C608.588,142.958 609.232,142.802 609.993,142.654C610.311,142.592 610.63,142.543 610.93,142.491C610.997,142.482 611.046,142.432 611.103,142.4C611.154,142.371 611.179,142.317 611.216,142.272C611.243,142.24 611.247,142.197 611.264,142.16C611.287,142.109 611.292,142.053 611.29,141.996L611.29,141.996C611.295,141.891 611.276,141.79 611.21,141.717C611.132,141.63 611.047,141.535 610.919,141.522C610.919,141.522 610.919,141.522 610.919,141.522C610.438,141.454 609.885,141.381 609.408,141.307C608.828,141.216 608.399,141.135 608.399,141.135C608.328,141.136 608.27,141.08 608.27,141.011C608.269,140.942 608.327,140.886 608.399,140.885L608.399,140.886Z"/>
                </g>
                <g transform="matrix(0.306827,0,0,0.382093,198.088,85.6652)">
                    <path d="M504.344,163.062C505.495,163.184 506.46,163.772 507.141,164.601C507.762,165.358 508.061,166.346 507.962,167.396C507.894,168.361 507.389,169.168 506.72,169.768C506.091,170.332 505.254,170.653 504.344,170.62C503.905,170.627 503.487,170.544 503.099,170.4C502.686,170.246 502.295,170.053 501.966,169.77C501.276,169.176 500.746,168.373 500.659,167.396C500.53,166.315 500.72,165.334 501.245,164.557C501.835,163.685 502.724,163.064 503.897,162.842C503.925,162.841 503.947,162.817 503.945,162.788C503.944,162.76 503.92,162.739 503.892,162.74C502.533,162.631 501.372,163.083 500.473,163.878C499.529,164.713 498.982,165.945 498.809,167.396C498.669,168.97 499.244,170.425 500.206,171.534C500.811,172.231 501.609,172.754 502.499,173.074C503.074,173.282 503.699,173.373 504.344,173.38C505.979,173.32 507.47,172.663 508.485,171.536C509.47,170.441 510.059,168.979 509.947,167.396C509.806,165.893 509.148,164.564 508.064,163.677C507.049,162.849 505.749,162.372 504.344,162.52C504.195,162.52 504.073,162.642 504.073,162.791C504.073,162.941 504.195,163.062 504.344,163.062Z"/>
                </g>
                <g transform="matrix(0.306827,0,0,0.382093,208.269,85.6652)">
                    <path d="M504.344,163.062C505.495,163.184 506.46,163.772 507.141,164.601C507.762,165.358 508.061,166.346 507.962,167.396C507.894,168.361 507.389,169.168 506.72,169.768C506.091,170.332 505.254,170.653 504.344,170.62C503.905,170.627 503.487,170.544 503.099,170.4C502.686,170.246 502.295,170.053 501.966,169.77C501.276,169.176 500.746,168.373 500.659,167.396C500.53,166.315 500.72,165.334 501.245,164.557C501.835,163.685 502.724,163.064 503.897,162.842C503.925,162.841 503.947,162.817 503.945,162.788C503.944,162.76 503.92,162.739 503.892,162.74C502.533,162.631 501.372,163.083 500.473,163.878C499.529,164.713 498.982,165.945 498.809,167.396C498.669,168.97 499.244,170.425 500.206,171.534C500.811,172.231 501.609,172.754 502.499,173.074C503.074,173.282 503.699,173.373 504.344,173.38C505.979,173.32 507.47,172.663 508.485,171.536C509.47,170.441 510.059,168.979 509.947,167.396C509.806,165.893 509.148,164.564 508.064,163.677C507.049,162.849 505.749,162.372 504.344,162.52C504.195,162.52 504.073,162.642 504.073,162.791C504.073,162.941 504.195,163.062 504.344,163.062Z"/>
                </g>
                <g transform="matrix(0.619918,0,0,0.728836,27.8362,15.9483)">
                    <path d="M521.801,183.223L520.33,183.158C520.243,183.154 520.16,183.128 520.082,183.09C520.006,183.052 519.94,182.996 519.883,182.929C519.827,182.864 519.788,182.786 519.76,182.704C519.733,182.625 519.726,182.539 519.73,182.453C519.73,182.453 519.818,180.649 519.818,180.649C519.843,180.078 520.045,179.551 520.362,179.123C520.671,178.705 521.104,178.395 521.607,178.237C521.607,178.237 525.117,177.131 525.117,177.131C525.23,177.091 525.33,177.018 525.406,176.92C526.698,175.355 528.005,174.309 529.524,173.584C530.97,172.893 532.611,172.503 534.625,172.269C535.682,172.13 536.795,172.123 537.938,172.164C540.16,172.243 542.494,172.543 544.75,172.755C544.75,172.755 544.331,173.625 544.331,173.625C544.2,173.885 544.211,174.199 544.359,174.449L545.952,177.005C546.054,177.168 546.138,177.343 546.192,177.528C546.247,177.715 546.282,177.909 546.285,178.107L546.315,179.925C546.322,180.29 546.265,180.649 546.141,180.981C546.015,181.318 545.832,181.631 545.59,181.896C545.59,181.896 544.954,182.592 544.954,182.592C544.883,182.671 544.802,182.737 544.71,182.78C544.616,182.824 544.516,182.854 544.412,182.857L542.965,182.899C542.698,182.899 542.48,183.129 542.48,183.412C542.48,183.696 542.698,183.926 542.965,183.926L544.412,183.968C544.655,183.975 544.894,183.925 545.118,183.836C545.343,183.745 545.549,183.604 545.728,183.427L546.397,182.765C546.765,182.399 547.053,181.959 547.257,181.481C547.462,180.999 547.573,180.473 547.588,179.934C547.588,179.934 547.641,178.116 547.641,178.116C547.65,177.779 547.61,177.446 547.531,177.123C547.451,176.799 547.324,176.489 547.16,176.198L545.908,173.996C545.908,173.996 546.746,172.406 546.746,172.406C546.875,172.15 546.874,171.843 546.743,171.588C546.612,171.333 546.369,171.165 546.097,171.141C543.842,170.906 541.48,170.49 539.19,170.307C537.531,170.174 535.91,170.169 534.397,170.376C532.187,170.717 530.39,171.213 528.831,172.053C527.208,172.928 525.837,174.156 524.518,175.925C524.519,175.924 521.283,177.219 521.283,177.219C520.604,177.492 520.036,177.966 519.651,178.576C519.273,179.173 519.056,179.888 519.077,180.642L519.131,182.447C519.136,182.616 519.168,182.78 519.233,182.931C519.297,183.08 519.384,183.218 519.499,183.331C519.613,183.443 519.743,183.533 519.886,183.588C520.027,183.644 520.177,183.674 520.33,183.667L521.801,183.602C521.9,183.602 521.98,183.517 521.98,183.412C521.98,183.308 521.9,183.223 521.801,183.223Z"/>
                </g>
                <g transform="matrix(0.619918,0,0,0.728836,27.8362,15.9483)">
                    <path d="M538.401,183.017L527.206,183.344C527.17,183.344 527.141,183.374 527.141,183.412C527.141,183.451 527.17,183.481 527.206,183.481L538.401,183.808C538.607,183.808 538.775,183.631 538.775,183.412C538.775,183.194 538.607,183.017 538.401,183.017Z"/>
                </g>
                <g transform="matrix(0.593072,0,0,0.695078,42.1714,22.2533)">
                    <path d="M525.462,176.571C525.462,176.571 527.892,176.725 530.835,176.848C531.99,176.897 533.223,176.942 534.417,176.964C535.245,176.98 536.054,176.987 536.805,176.977C537.603,176.966 538.335,176.934 538.955,176.909C539.55,176.886 540.04,176.858 540.388,176.841C540.622,176.829 540.846,176.76 541.036,176.629C541.222,176.5 541.382,176.327 541.485,176.109C541.485,176.109 543.387,172.009 543.387,172.009C543.392,172 543.389,171.989 543.38,171.984C543.372,171.979 543.361,171.982 543.356,171.991L540.987,175.805C540.921,175.914 540.825,175.993 540.72,176.049C540.62,176.104 540.505,176.123 540.388,176.117C540.041,176.1 539.551,176.072 538.955,176.047C538.335,176.022 537.604,175.989 536.806,175.978C536.055,175.967 535.246,175.973 534.418,175.988C533.223,176.009 531.991,176.053 530.835,176.101C527.892,176.222 525.462,176.373 525.462,176.373C525.41,176.373 525.368,176.417 525.368,176.472C525.368,176.527 525.41,176.571 525.462,176.571Z"/>
                </g>
                <g transform="matrix(0.572333,-0.0569862,0.084439,0.673141,38.5791,56.1268)">
                    <path d="M536.871,171.955C536.871,171.955 535.919,173.379 534.749,175.24C534.525,175.596 534.298,175.967 534.069,176.35C533.85,176.718 533.627,177.093 533.417,177.475C533.206,177.857 533.004,178.244 532.814,178.628C532.615,179.028 532.434,179.424 532.259,179.806C532.026,180.317 531.813,180.797 531.622,181.236C531.064,182.525 530.709,183.404 530.709,183.404C530.704,183.413 530.707,183.425 530.716,183.43C530.724,183.434 530.735,183.43 530.741,183.421C530.741,183.421 531.288,182.647 532.07,181.48C532.337,181.082 532.625,180.644 532.928,180.171C533.155,179.817 533.39,179.451 533.619,179.067C533.839,178.7 534.055,178.321 534.263,177.937C534.47,177.553 534.665,177.163 534.856,176.78C535.055,176.38 535.244,175.988 535.422,175.607C536.354,173.616 537.037,172.045 537.037,172.045C537.065,171.995 537.05,171.934 537.004,171.909C536.958,171.884 536.899,171.904 536.871,171.955Z"/>
                </g>
            </g>
        </g>
    </g>
</svg>
