<?xml version="1.0" encoding="UTF-8" standalone="no"?>
<!DOCTYPE svg PUBLIC "-//W3C//DTD SVG 1.1//EN" "http://www.w3.org/Graphics/SVG/1.1/DTD/svg11.dtd">
<svg width="100%" height="100%" viewBox="0 0 33 32" version="1.1" xmlns="http://www.w3.org/2000/svg" xmlns:xlink="http://www.w3.org/1999/xlink" xml:space="preserve" xmlns:serif="http://www.serif.com/" style="fill-rule:evenodd;clip-rule:evenodd;stroke-linejoin:round;stroke-miterlimit:2;">
    <g transform="matrix(1,0,0,1,-683,-1793)">
        <g id="ic_category_space_and_vehicle_fuel" transform="matrix(1.00066,0,0,1.00149,-0.456875,-7.09549)">
            <rect x="684" y="1798.11" width="31.296" height="30.937" style="fill:none;"/>
            <g transform="matrix(1.76841,0,0,2.97705,-16.6433,1392.08)">
                <g transform="matrix(0.584928,0,0,0.347167,-94.3072,24.9406)">
                    <path d="M851.417,330.004C851.417,330.004 851.819,329.559 852.205,328.999C852.726,328.245 853.21,327.336 853.21,327.336C853.294,327.241 853.285,327.095 853.19,327.011C853.094,326.926 852.948,326.935 852.864,327.031C852.864,327.031 852.022,327.623 851.337,328.232C850.83,328.684 850.437,329.137 850.437,329.137C850.198,329.408 850.223,329.822 850.494,330.061C850.764,330.3 851.178,330.274 851.417,330.004Z"/>
                </g>
                <g transform="matrix(0.584928,0,0,0.347167,-94.3072,24.9406)">
                    <path d="M857.267,349.874C857.069,349.921 856.451,350.034 855.924,349.655C855.601,349.423 855.317,349.02 855.156,348.348L852.277,335.383C852.274,335.363 852.255,335.351 852.236,335.354C852.216,335.358 852.203,335.377 852.207,335.396L854.336,348.521C854.511,349.481 854.916,350.053 855.354,350.405C856.224,351.104 857.305,350.923 857.534,350.877L857.671,350.833L863.365,348.654C863.569,348.899 863.846,349.054 864.142,349.123C864.448,349.195 864.777,349.156 865.078,349.013L867.931,347.667C868.308,347.489 868.574,347.17 868.715,346.808C868.857,346.443 868.852,346.026 868.694,345.637L864.198,334.787L864.374,334.56C864.695,334.147 864.83,333.644 864.789,333.156C864.748,332.669 864.528,332.196 864.141,331.842L858.841,327.025C858.436,326.661 857.927,326.479 857.42,326.489C856.914,326.5 856.409,326.69 856.021,327.07L855.416,327.662L850.008,323.37C849.918,323.297 849.813,323.243 849.701,323.214L841,321.091C840.794,321.042 840.583,321.029 840.378,321.062C840.174,321.095 839.975,321.163 839.796,321.274C839.618,321.385 839.462,321.525 839.343,321.692C839.225,321.859 839.134,322.047 839.088,322.25L838.782,323.605C838.693,323.996 838.755,324.388 838.944,324.711C839.131,325.03 839.429,325.288 839.81,325.4C839.81,325.4 847.439,327.652 847.439,327.652C847.439,327.652 847.478,327.668 847.478,327.668C847.478,327.668 850.888,330.424 850.888,330.424C850.888,330.424 850.951,330.519 850.951,330.519C850.951,330.519 851.884,334.842 851.884,334.842C851.904,334.944 852.004,335.012 852.106,334.992C852.209,334.972 852.276,334.873 852.257,334.77L851.525,330.409C851.511,330.323 851.48,330.242 851.438,330.167C851.396,330.092 851.34,330.025 851.275,329.967L847.996,327.056L847.685,326.879L840.155,324.313C840.067,324.283 840.004,324.216 839.964,324.14C839.925,324.067 839.921,323.979 839.944,323.893L840.305,322.552C840.305,322.552 840.451,322.378 840.451,322.378L840.666,322.362L849.109,324.732C849.109,324.732 854.299,329.074 854.299,329.074C854.647,329.363 855.077,329.493 855.5,329.479C855.924,329.466 856.342,329.297 856.671,328.985L857.296,328.395C857.336,328.357 857.39,328.344 857.441,328.343C857.491,328.343 857.539,328.367 857.578,328.403L862.836,333.266C862.836,333.266 862.849,333.386 862.849,333.386L862.472,333.881C862.325,334.073 862.234,334.297 862.206,334.528C862.178,334.76 862.208,334.999 862.305,335.22L867.23,346.266L867.243,346.284L864.448,347.748L864.402,347.755L864.213,347.537C864.084,347.387 863.918,347.281 863.735,347.239C863.553,347.198 863.356,347.204 863.176,347.283L857.267,349.874Z"/>
                </g>
                <g transform="matrix(0.584928,0,0,0.347167,-94.3072,24.9406)">
                    <path d="M856.374,338.867C856.398,338.712 856.503,338.252 856.974,338.039C857.27,337.906 857.686,337.883 858.272,338.004C858.283,338.006 858.295,338.008 858.306,338.009C858.514,338.041 858.702,338.13 858.863,338.253C859.023,338.375 859.149,338.539 859.232,338.728L861.881,345.057L860.704,345.657L860.693,345.674L860.661,345.667L858.273,339.831C858.273,339.831 858.141,339.651 858.141,339.651L856.711,338.561C856.7,338.551 856.683,338.552 856.673,338.564C856.663,338.575 856.665,338.592 856.676,338.601L857.965,339.855C857.965,339.855 858.003,339.925 858.003,339.925C858.003,339.925 859.773,345.978 859.773,345.978C859.813,346.112 859.888,346.229 859.976,346.333C860.066,346.438 860.182,346.516 860.309,346.578C860.438,346.639 860.578,346.663 860.717,346.667C860.857,346.67 860.996,346.636 861.129,346.582L862.544,345.999C862.776,345.903 862.938,345.714 863.036,345.502C863.135,345.287 863.137,345.036 863.058,344.796C862.819,344.099 862.263,342.415 861.639,340.779C861.271,339.813 860.87,338.87 860.544,338.138C860.543,338.137 860.543,338.137 860.543,338.137C860.352,337.725 860.066,337.374 859.709,337.117C859.356,336.861 858.939,336.69 858.491,336.638L858.513,336.642C857.552,336.485 856.879,336.614 856.406,336.854C855.337,337.397 855.175,338.492 855.154,338.768C855.153,338.781 855.152,338.793 855.151,338.805L855.16,338.967C855.16,338.967 856.363,346.938 856.363,346.938C856.394,347.129 856.463,347.308 856.575,347.459C856.684,347.608 856.825,347.734 856.995,347.818C857.163,347.9 857.344,347.944 857.525,347.94C857.704,347.936 857.882,347.894 858.043,347.806C858.043,347.806 859.797,346.84 859.797,346.84C859.867,346.805 859.896,346.72 859.862,346.65C859.827,346.579 859.742,346.55 859.671,346.585L857.837,347.388C857.741,347.43 857.638,347.443 857.536,347.436C857.437,347.43 857.342,347.395 857.255,347.342C857.171,347.291 857.106,347.217 857.056,347.135C857.008,347.056 856.985,346.964 856.978,346.869L856.374,338.867ZM856.372,338.838L856.373,338.856L856.373,338.854L856.372,338.838Z"/>
                </g>
                <g transform="matrix(-0.744785,5.4135e-17,7.85859e-17,0.380864,913.657,101.486)">
                    <path d="M692.336,98.068C692.336,98.068 691.599,100.155 691.102,102.178C690.849,103.206 690.657,104.21 690.686,104.891C690.7,105.301 690.906,105.648 691.193,105.895C691.47,106.136 691.838,106.264 692.235,106.251C692.624,106.244 692.973,106.082 693.238,105.837C693.498,105.597 693.685,105.272 693.692,104.891C693.728,104.236 693.572,103.34 693.375,102.427C693.262,101.903 693.143,101.381 693.021,100.891C692.699,99.6 692.396,98.588 692.396,98.588C692.39,98.574 692.395,98.557 692.407,98.55C692.42,98.543 692.435,98.549 692.441,98.563C692.441,98.563 692.954,99.467 693.503,100.664C693.715,101.128 693.926,101.628 694.116,102.138C694.28,102.578 694.421,103.018 694.533,103.439C694.674,103.971 694.75,104.47 694.77,104.891C694.783,105.664 694.473,106.378 693.948,106.868C693.501,107.286 692.895,107.533 692.235,107.522C691.583,107.5 690.993,107.239 690.562,106.81C690.069,106.319 689.767,105.636 689.792,104.891C689.825,104.134 690.107,103.037 690.491,101.934C691.178,99.957 692.135,97.956 692.135,97.956C692.161,97.892 692.228,97.864 692.284,97.895C692.339,97.926 692.362,98.004 692.336,98.068Z"/>
                </g>
            </g>
        </g>
    </g>
</svg>
