<?xml version="1.0" encoding="UTF-8" standalone="no"?>
<!DOCTYPE svg PUBLIC "-//W3C//DTD SVG 1.1//EN" "http://www.w3.org/Graphics/SVG/1.1/DTD/svg11.dtd">
<svg width="100%" height="100%" viewBox="0 0 33 33" version="1.1" xmlns="http://www.w3.org/2000/svg" xmlns:xlink="http://www.w3.org/1999/xlink" xml:space="preserve" xmlns:serif="http://www.serif.com/" style="fill-rule:evenodd;clip-rule:evenodd;stroke-linejoin:round;stroke-miterlimit:2;">
    <g transform="matrix(1,0,0,1,-731,-1793)">
        <g id="ic_category_space_and_vehicle_maintenance" transform="matrix(0.96852,0,0,0.857169,24.0434,258.282)">
            <rect x="730.944" y="1791.26" width="32.394" height="36.672" style="fill:none;"/>
            <g transform="matrix(1.82709,0,0,3.4783,-29.9916,1318.24)">
                <g transform="matrix(0.219474,0.000124182,0.000209229,0.0651317,258.47,140.045)">
                    <path d="M776.952,56.057L780.953,55.732C781.202,55.732 781.404,55.328 781.405,54.83C781.406,54.333 781.205,53.928 780.956,53.927L776.957,53.586C776.616,53.586 776.338,54.139 776.337,54.821C776.335,55.503 776.611,56.057 776.952,56.057Z"/>
                </g>
                <g transform="matrix(0.219474,0.000124182,0.000209229,0.0651317,253.374,140.046)">
                    <path d="M776.952,56.057L780.953,55.732C781.202,55.732 781.404,55.328 781.405,54.83C781.406,54.333 781.205,53.928 780.956,53.927L776.957,53.586C776.616,53.586 776.338,54.139 776.337,54.821C776.335,55.503 776.611,56.057 776.952,56.057Z"/>
                </g>
                <g transform="matrix(0.372986,0.000297901,0.000501921,0.0651321,126.886,141.177)">
                    <path d="M776.951,56.675L780.952,56.183C781.171,56.183 781.351,55.577 781.352,54.83C781.354,54.084 781.177,53.477 780.957,53.476L776.958,52.969C776.657,52.968 776.411,53.798 776.409,54.821C776.407,55.844 776.65,56.675 776.951,56.675Z"/>
                </g>
                <g transform="matrix(-0.427162,0,0,0.263325,693.206,106.322)">
                    <path d="M608.399,140.886L608.409,140.884C608.424,140.881 608.454,140.876 608.5,140.868C608.663,140.839 608.993,140.776 609.406,140.71C609.883,140.633 610.436,140.558 610.917,140.487C611.362,140.442 611.77,140.61 612.085,140.87C612.411,141.137 612.588,141.548 612.612,141.992L612.612,141.992C612.608,142.207 612.572,142.42 612.478,142.611C612.385,142.799 612.26,142.974 612.091,143.112C611.92,143.241 611.745,143.359 611.54,143.411C611.34,143.462 611.138,143.5 610.93,143.47C610.93,143.47 610.93,143.47 610.93,143.47C610.63,143.418 610.311,143.37 609.993,143.308C609.232,143.16 608.588,143.005 608.588,143.005C608.574,143.005 608.563,142.994 608.563,142.981C608.563,142.968 608.574,142.958 608.588,142.958C608.588,142.958 609.232,142.802 609.993,142.654C610.311,142.592 610.63,142.543 610.93,142.491C610.997,142.482 611.046,142.432 611.103,142.4C611.154,142.371 611.179,142.317 611.216,142.272C611.243,142.24 611.247,142.197 611.264,142.16C611.287,142.109 611.292,142.053 611.29,141.996L611.29,141.996C611.295,141.891 611.276,141.79 611.21,141.717C611.132,141.63 611.047,141.535 610.919,141.522C610.919,141.522 610.919,141.522 610.919,141.522C610.438,141.454 609.885,141.381 609.408,141.307C608.828,141.216 608.399,141.135 608.399,141.135C608.328,141.136 608.27,141.08 608.27,141.011C608.269,140.942 608.327,140.886 608.399,140.885L608.399,140.886Z"/>
                </g>
                <g transform="matrix(0.306827,0,0,0.182108,264.953,114.955)">
                    <path d="M504.344,163.062C505.495,163.184 506.46,163.772 507.141,164.601C507.762,165.358 508.061,166.346 507.962,167.396C507.894,168.361 507.389,169.168 506.72,169.768C506.091,170.332 505.254,170.653 504.344,170.62C503.905,170.627 503.487,170.544 503.099,170.4C502.686,170.246 502.295,170.053 501.966,169.77C501.276,169.176 500.746,168.373 500.659,167.396C500.53,166.315 500.72,165.334 501.245,164.557C501.835,163.685 502.724,163.064 503.897,162.842C503.925,162.841 503.947,162.817 503.945,162.788C503.944,162.76 503.92,162.739 503.892,162.74C502.533,162.631 501.372,163.083 500.473,163.878C499.529,164.713 498.982,165.945 498.809,167.396C498.669,168.97 499.244,170.425 500.206,171.534C500.811,172.231 501.609,172.754 502.499,173.074C503.074,173.282 503.699,173.373 504.344,173.38C505.979,173.32 507.47,172.663 508.485,171.536C509.47,170.441 510.059,168.979 509.947,167.396C509.806,165.893 509.148,164.564 508.064,163.677C507.049,162.849 505.749,162.372 504.344,162.52C504.195,162.52 504.073,162.642 504.073,162.791C504.073,162.941 504.195,163.062 504.344,163.062Z"/>
                </g>
                <g transform="matrix(0.306827,0,0,0.182108,275.135,114.955)">
                    <path d="M504.344,163.062C505.495,163.184 506.46,163.772 507.141,164.601C507.762,165.358 508.061,166.346 507.962,167.396C507.894,168.361 507.389,169.168 506.72,169.768C506.091,170.332 505.254,170.653 504.344,170.62C503.905,170.627 503.487,170.544 503.099,170.4C502.686,170.246 502.295,170.053 501.966,169.77C501.276,169.176 500.746,168.373 500.659,167.396C500.53,166.315 500.72,165.334 501.245,164.557C501.835,163.685 502.724,163.064 503.897,162.842C503.925,162.841 503.947,162.817 503.945,162.788C503.944,162.76 503.92,162.739 503.892,162.74C502.533,162.631 501.372,163.083 500.473,163.878C499.529,164.713 498.982,165.945 498.809,167.396C498.669,168.97 499.244,170.425 500.206,171.534C500.811,172.231 501.609,172.754 502.499,173.074C503.074,173.282 503.699,173.373 504.344,173.38C505.979,173.32 507.47,172.663 508.485,171.536C509.47,170.441 510.059,168.979 509.947,167.396C509.806,165.893 509.148,164.564 508.064,163.677C507.049,162.849 505.749,162.372 504.344,162.52C504.195,162.52 504.073,162.642 504.073,162.791C504.073,162.941 504.195,163.062 504.344,163.062Z"/>
                </g>
                <g transform="matrix(0.619918,0,0,0.347368,94.702,81.7276)">
                    <path d="M521.801,183.223L520.33,183.158C520.243,183.154 520.16,183.128 520.082,183.09C520.006,183.052 519.94,182.996 519.883,182.929C519.827,182.864 519.788,182.786 519.76,182.704C519.733,182.625 519.726,182.539 519.73,182.453C519.73,182.453 519.818,180.649 519.818,180.649C519.843,180.078 520.045,179.551 520.362,179.123C520.671,178.705 521.104,178.395 521.607,178.237C521.607,178.237 525.117,177.131 525.117,177.131C525.23,177.091 525.33,177.018 525.406,176.92C526.698,175.355 528.005,174.309 529.524,173.584C530.97,172.893 532.611,172.503 534.625,172.269C535.682,172.13 536.795,172.123 537.938,172.164C540.16,172.243 542.494,172.543 544.75,172.755C544.75,172.755 544.331,173.625 544.331,173.625C544.2,173.885 544.211,174.199 544.359,174.449L545.952,177.005C546.054,177.168 546.138,177.343 546.192,177.528C546.247,177.715 546.282,177.909 546.285,178.107L546.315,179.925C546.322,180.29 546.265,180.649 546.141,180.981C546.015,181.318 545.832,181.631 545.59,181.896C545.59,181.896 544.954,182.592 544.954,182.592C544.883,182.671 544.802,182.737 544.71,182.78C544.616,182.824 544.516,182.854 544.412,182.857L542.965,182.899C542.698,182.899 542.48,183.129 542.48,183.412C542.48,183.696 542.698,183.926 542.965,183.926L544.412,183.968C544.655,183.975 544.894,183.925 545.118,183.836C545.343,183.745 545.549,183.604 545.728,183.427L546.397,182.765C546.765,182.399 547.053,181.959 547.257,181.481C547.462,180.999 547.573,180.473 547.588,179.934C547.588,179.934 547.641,178.116 547.641,178.116C547.65,177.779 547.61,177.446 547.531,177.123C547.451,176.799 547.324,176.489 547.16,176.198L545.908,173.996C545.908,173.996 546.746,172.406 546.746,172.406C546.875,172.15 546.874,171.843 546.743,171.588C546.612,171.333 546.369,171.165 546.097,171.141C543.842,170.906 541.48,170.49 539.19,170.307C537.531,170.174 535.91,170.169 534.397,170.376C532.187,170.717 530.39,171.213 528.831,172.053C527.208,172.928 525.837,174.156 524.518,175.925C524.519,175.924 521.283,177.219 521.283,177.219C520.604,177.492 520.036,177.966 519.651,178.576C519.273,179.173 519.056,179.888 519.077,180.642L519.131,182.447C519.136,182.616 519.168,182.78 519.233,182.931C519.297,183.08 519.384,183.218 519.499,183.331C519.613,183.443 519.743,183.533 519.886,183.588C520.027,183.644 520.177,183.674 520.33,183.667L521.801,183.602C521.9,183.602 521.98,183.517 521.98,183.412C521.98,183.308 521.9,183.223 521.801,183.223Z"/>
                </g>
                <g transform="matrix(0.619918,0,0,0.347368,94.702,81.7276)">
                    <path d="M538.401,183.017L527.206,183.344C527.17,183.344 527.141,183.374 527.141,183.412C527.141,183.451 527.17,183.481 527.206,183.481L538.401,183.808C538.607,183.808 538.775,183.631 538.775,183.412C538.775,183.194 538.607,183.017 538.401,183.017Z"/>
                </g>
                <g transform="matrix(0.593072,0,0,0.331279,109.037,84.7326)">
                    <path d="M525.462,176.571C525.462,176.571 527.892,176.725 530.835,176.848C531.99,176.897 533.223,176.942 534.417,176.964C535.245,176.98 536.054,176.987 536.805,176.977C537.603,176.966 538.335,176.934 538.955,176.909C539.55,176.886 540.04,176.858 540.388,176.841C540.622,176.829 540.846,176.76 541.036,176.629C541.222,176.5 541.382,176.327 541.485,176.109C541.485,176.109 543.387,172.009 543.387,172.009C543.392,172 543.389,171.989 543.38,171.984C543.372,171.979 543.361,171.982 543.356,171.991L540.987,175.805C540.921,175.914 540.825,175.993 540.72,176.049C540.62,176.104 540.505,176.123 540.388,176.117C540.041,176.1 539.551,176.072 538.955,176.047C538.335,176.022 537.604,175.989 536.806,175.978C536.055,175.967 535.246,175.973 534.418,175.988C533.223,176.009 531.991,176.053 530.835,176.101C527.892,176.222 525.462,176.373 525.462,176.373C525.41,176.373 525.368,176.417 525.368,176.472C525.368,176.527 525.41,176.571 525.462,176.571Z"/>
                </g>
                <g transform="matrix(0.572333,-0.02716,0.084439,0.320823,105.445,100.877)">
                    <path d="M536.871,171.955C536.871,171.955 535.919,173.379 534.749,175.24C534.525,175.596 534.298,175.967 534.069,176.35C533.85,176.718 533.627,177.093 533.417,177.475C533.206,177.857 533.004,178.244 532.814,178.628C532.615,179.028 532.434,179.424 532.259,179.806C532.026,180.317 531.813,180.797 531.622,181.236C531.064,182.525 530.709,183.404 530.709,183.404C530.704,183.413 530.707,183.425 530.716,183.43C530.724,183.434 530.735,183.43 530.741,183.421C530.741,183.421 531.288,182.647 532.07,181.48C532.337,181.082 532.625,180.644 532.928,180.171C533.155,179.817 533.39,179.451 533.619,179.067C533.839,178.7 534.055,178.321 534.263,177.937C534.47,177.553 534.665,177.163 534.856,176.78C535.055,176.38 535.244,175.988 535.422,175.607C536.354,173.616 537.037,172.045 537.037,172.045C537.065,171.995 537.05,171.934 537.004,171.909C536.958,171.884 536.899,171.904 536.871,171.955Z"/>
                </g>
                <g transform="matrix(0.502212,0.166094,-0.28293,0.301359,138.384,25.3504)">
                    <path d="M594.689,59.344L595.25,60.665C595.445,61.111 595.97,61.316 596.42,61.123C596.871,60.929 597.078,60.411 596.883,59.965L596.156,58.356C596.079,58.18 595.944,58.034 595.773,57.942L595.392,57.732C595.228,57.632 595.034,57.59 594.842,57.612L590.551,58.155L590.386,58.1C590.005,57.642 589.657,57.153 589.348,56.64C589.038,56.126 588.766,55.589 588.536,55.034C588.522,54.997 588.514,54.96 588.518,54.922C588.523,54.881 588.534,54.84 588.559,54.806L591.09,51.335C591.179,51.216 591.226,51.07 591.222,50.922L591.215,50.48C591.219,50.333 591.173,50.189 591.085,50.071L588.462,46.668C588.422,46.617 588.394,46.56 588.385,46.498C588.375,46.436 588.377,46.371 588.4,46.31C588.615,45.744 588.873,45.191 589.172,44.661C589.471,44.129 589.808,43.618 590.185,43.135C590.232,43.076 590.291,43.028 590.358,43C590.428,42.97 590.505,42.954 590.584,42.962L594.89,43.382C594.989,43.394 595.09,43.372 595.175,43.32L595.568,43.087C595.655,43.04 595.723,42.966 595.762,42.877L597.42,38.924C597.46,38.828 597.521,38.744 597.601,38.68C597.681,38.616 597.776,38.569 597.881,38.551C598.498,38.447 599.122,38.389 599.748,38.378C600.376,38.367 601.005,38.401 601.629,38.483C601.745,38.499 601.856,38.543 601.949,38.612C602.043,38.682 602.122,38.774 602.172,38.883L603.961,42.78C604.004,42.876 604.117,42.921 604.215,42.879C604.312,42.837 604.357,42.725 604.315,42.628L602.664,38.672C602.583,38.476 602.451,38.309 602.289,38.179C602.126,38.05 601.929,37.962 601.716,37.925C601.715,37.924 601.715,37.924 601.714,37.924C601.063,37.816 600.406,37.757 599.748,37.746C599.088,37.735 598.428,37.774 597.772,37.861C597.772,37.861 597.771,37.861 597.77,37.861C597.543,37.893 597.334,37.984 597.157,38.115C596.978,38.247 596.835,38.425 596.74,38.633C596.741,38.632 595.017,42.393 595.017,42.393C595.017,42.393 594.853,42.483 594.853,42.483C594.853,42.483 590.703,41.943 590.703,41.943C590.448,41.91 590.194,41.946 589.961,42.035C589.727,42.125 589.519,42.276 589.353,42.472C589.352,42.473 589.35,42.474 589.349,42.476C588.922,42.989 588.535,43.533 588.192,44.102C587.847,44.673 587.549,45.27 587.295,45.887C587.294,45.888 587.294,45.89 587.293,45.891C587.193,46.139 587.165,46.403 587.197,46.66C587.229,46.917 587.33,47.165 587.488,47.382C587.488,47.381 589.884,50.671 589.884,50.671C589.884,50.671 589.883,50.711 589.883,50.711C589.883,50.711 587.387,53.946 587.387,53.946C587.21,54.176 587.102,54.445 587.059,54.723C587.016,55.002 587.049,55.291 587.15,55.565C587.151,55.567 587.152,55.569 587.153,55.571C587.394,56.203 587.683,56.814 588.016,57.401C588.349,57.99 588.729,58.552 589.149,59.086C589.15,59.088 589.151,59.089 589.153,59.091C589.341,59.327 589.587,59.502 589.858,59.616C590.131,59.73 590.432,59.772 590.735,59.741L594.689,59.344ZM599.525,47.4C600.416,47.52 601.188,47.993 601.759,48.635C602.261,49.198 602.521,49.924 602.436,50.701C602.436,51.187 602.835,51.581 603.326,51.581C603.817,51.581 604.216,51.187 604.216,50.701C604.085,49.497 603.499,48.44 602.533,47.776C601.672,47.184 600.606,46.874 599.525,47.019C599.418,47.019 599.332,47.104 599.332,47.209C599.332,47.315 599.418,47.4 599.525,47.4Z"/>
                </g>
                <g transform="matrix(0.502212,0.166094,-0.28293,0.301359,138.384,25.3504)">
                    <path d="M612.198,46.705C611.945,46.002 611.611,45.286 611.214,44.599C610.823,43.922 610.373,43.275 609.889,42.693C609.889,42.692 609.888,42.692 609.888,42.691C609.755,42.537 609.589,42.421 609.403,42.353C609.219,42.285 609.019,42.261 608.818,42.292C608.819,42.292 604.727,42.928 604.727,42.928C604.686,42.934 604.657,42.972 604.662,43.012C604.668,43.053 604.706,43.082 604.747,43.077L608.865,42.638C609.003,42.623 609.14,42.646 609.264,42.698C609.386,42.749 609.494,42.833 609.578,42.94C610.024,43.518 610.434,44.162 610.792,44.829C611.153,45.501 611.459,46.197 611.685,46.879C611.734,47.019 611.888,47.094 612.03,47.046C612.171,46.998 612.247,46.846 612.198,46.705Z"/>
                </g>
                <g transform="matrix(0.502212,0.166094,-0.28293,0.301359,138.384,25.3504)">
                    <path d="M599.748,53.329C598.991,53.375 598.312,53.133 597.8,52.67C597.242,52.165 596.836,51.468 596.711,50.659C596.599,49.982 596.82,49.125 597.297,48.388C597.764,47.667 598.445,47.061 599.3,46.826C599.341,46.818 599.368,46.779 599.36,46.739C599.353,46.698 599.313,46.671 599.272,46.679C598.297,46.773 597.444,47.312 596.8,48.01C596.045,48.828 595.634,49.875 595.63,50.743C595.635,51.869 596.05,52.902 596.716,53.693C597.444,54.557 598.508,55.075 599.748,55.151C600.257,55.151 600.669,54.743 600.669,54.24C600.669,53.737 600.257,53.329 599.748,53.329Z"/>
                </g>
            </g>
        </g>
    </g>
</svg>
