<?xml version="1.0" encoding="UTF-8" standalone="no"?>
<!DOCTYPE svg PUBLIC "-//W3C//DTD SVG 1.1//EN" "http://www.w3.org/Graphics/SVG/1.1/DTD/svg11.dtd">
<svg width="100%" height="100%" viewBox="0 0 31 25" version="1.1" xmlns="http://www.w3.org/2000/svg" xmlns:xlink="http://www.w3.org/1999/xlink" xml:space="preserve" xmlns:serif="http://www.serif.com/" style="fill-rule:evenodd;clip-rule:evenodd;stroke-linejoin:round;stroke-miterlimit:2;">
    <g transform="matrix(1,0,0,1,-589,-752)">
        <g id="ic_category_bucket_list_vehicle" transform="matrix(1.00197,0,0,1.00247,-1.18501,-9.1282)">
            <rect x="589.947" y="759.456" width="30.014" height="24.544" style="fill:none;"/>
            <g transform="matrix(1.7661,0,0,1.4175,-27.0794,558.959)">
                <g transform="matrix(0.0226078,-0.169012,-0.139931,-0.0290272,345.166,269.504)">
                    <path d="M695.008,44.033C695.311,46.413 694.592,48.63 693.255,50.372C691.759,52.322 689.42,53.474 686.801,53.707C684.065,53.827 681.511,52.776 679.714,50.94C677.997,49.186 677.025,46.704 677.08,44.033C677.229,41.421 678.296,39.074 680.062,37.438C681.846,35.787 684.22,34.788 686.801,34.958C689.2,35.137 691.563,36.322 693.234,38.174C694.786,39.894 695.758,42.103 695.566,44.378C695.566,44.419 695.532,44.452 695.49,44.452C695.448,44.452 695.414,44.419 695.414,44.378C695.237,42.276 694.037,40.391 692.362,39.042C690.775,37.763 688.752,37.028 686.801,37.174C684.994,37.293 683.458,38.211 682.365,39.507C681.348,40.714 680.816,42.314 680.914,44.033C680.949,45.687 681.679,47.134 682.713,48.246C683.767,49.377 685.153,50.221 686.801,50.293C688.577,50.451 690.239,49.897 691.521,48.814C692.921,47.632 693.95,46.007 694.202,44.033C694.202,43.817 694.382,43.642 694.605,43.642C694.827,43.642 695.008,43.817 695.008,44.033Z"/>
                </g>
                <g transform="matrix(0.0226078,-0.169012,-0.139931,-0.0290272,352.515,269.504)">
                    <path d="M695.008,44.033C695.311,46.413 694.592,48.63 693.255,50.372C691.759,52.322 689.42,53.474 686.801,53.707C684.065,53.827 681.511,52.776 679.714,50.94C677.997,49.186 677.025,46.704 677.08,44.033C677.229,41.421 678.296,39.074 680.062,37.438C681.846,35.787 684.22,34.788 686.801,34.958C689.2,35.137 691.563,36.322 693.234,38.174C694.786,39.894 695.758,42.103 695.566,44.378C695.566,44.419 695.532,44.452 695.49,44.452C695.448,44.452 695.414,44.419 695.414,44.378C695.237,42.276 694.037,40.391 692.362,39.042C690.775,37.763 688.752,37.028 686.801,37.174C684.994,37.293 683.458,38.211 682.365,39.507C681.348,40.714 680.816,42.314 680.914,44.033C680.949,45.687 681.679,47.134 682.713,48.246C683.767,49.377 685.153,50.221 686.801,50.293C688.577,50.451 690.239,49.897 691.521,48.814C692.921,47.632 693.95,46.007 694.202,44.033C694.202,43.817 694.382,43.642 694.605,43.642C694.827,43.642 695.008,43.817 695.008,44.033Z"/>
                </g>
                <g transform="matrix(0.532489,0,0,0.663112,40.1546,53.326)">
                    <path d="M584.242,143.028C584.045,143.064 583.853,143.121 583.669,143.198C583.336,143.339 583.029,143.542 582.771,143.804C582.513,144.066 582.309,144.372 582.174,144.707C582.038,145.04 581.965,145.4 581.968,145.767C581.968,145.767 582.019,151.843 582.019,151.843C582.023,152.25 582.105,152.648 582.261,153.016C582.417,153.382 582.642,153.72 582.932,154.005C583.221,154.288 583.559,154.511 583.927,154.66C584.295,154.807 584.691,154.887 585.095,154.883C585.095,154.883 608.79,154.591 608.79,154.591C609.553,154.58 610.242,154.269 610.736,153.762C611.225,153.259 611.53,152.573 611.52,151.816C611.52,151.816 611.448,146.122 611.448,146.122C611.439,145.39 611.14,144.729 610.654,144.255C610.172,143.785 609.513,143.494 608.787,143.503C608.787,143.503 587.369,143.792 587.369,143.792C587.255,143.792 587.161,143.885 587.161,144C587.161,144.115 587.255,144.208 587.369,144.208L608.787,144.497C609.233,144.503 609.632,144.692 609.921,144.988C610.206,145.28 610.376,145.682 610.37,146.122L610.299,151.816C610.294,152.23 610.117,152.601 609.842,152.87C609.571,153.134 609.198,153.291 608.789,153.286C608.789,153.286 585.093,153.045 585.093,153.045C584.934,153.044 584.779,153.008 584.635,152.947C584.492,152.886 584.363,152.795 584.252,152.682C584.142,152.57 584.059,152.437 584.001,152.294C583.944,152.152 583.918,151.998 583.919,151.842L583.967,145.766C583.967,145.665 583.991,145.566 584.029,145.475C584.068,145.384 584.126,145.301 584.198,145.231C584.269,145.16 584.354,145.108 584.445,145.071C584.536,145.034 584.634,145.017 584.733,145.018L584.882,145.019C585.113,145.021 585.33,144.948 585.514,144.826C585.697,144.704 585.841,144.525 585.928,144.312C585.928,144.312 589.406,135.719 589.406,135.719C589.487,135.518 589.625,135.352 589.797,135.235C589.968,135.118 590.174,135.05 590.391,135.049C591.38,135.037 592.793,135.031 594.355,134.999C595.629,134.973 596.999,134.933 598.319,134.887C600.407,134.814 602.363,134.717 603.605,134.665C603.889,134.651 604.167,134.702 604.405,134.836C604.654,134.976 604.873,135.174 605.012,135.436L608.919,142.513C608.928,142.533 608.951,142.541 608.971,142.532C608.991,142.523 608.999,142.5 608.99,142.48L606.044,134.952C605.844,134.461 605.497,134.064 605.082,133.77C604.657,133.469 604.144,133.307 603.603,133.28C603.603,133.28 603.603,133.28 603.603,133.28C602.361,133.232 600.405,133.141 598.317,133.073C596.996,133.031 595.626,132.995 594.352,132.972C592.79,132.945 591.377,132.943 590.388,132.933C589.738,132.932 589.121,133.13 588.606,133.479C588.09,133.828 587.678,134.328 587.437,134.932L584.242,143.028Z"/>
                </g>
                <g transform="matrix(0.502496,0,0,0.594995,57.808,64.0431)">
                    <path d="M584.954,153.964L584.954,156.803C584.954,157.116 585.073,157.417 585.284,157.639C585.495,157.861 585.781,157.985 586.079,157.985C586.627,157.985 587.283,157.985 587.83,157.985C588.451,157.985 588.954,157.455 588.954,156.802C588.954,155.616 588.954,153.964 588.954,153.964"/>
                </g>
                <g transform="matrix(0.502496,0,0,0.594995,57.808,64.0431)">
                    <path d="M587.83,156.802C587.83,156.802 586.079,156.803 586.079,156.803C586.079,156.803 586.079,153.964 586.079,153.964C586.079,153.311 585.575,152.781 584.954,152.781C584.334,152.781 583.83,153.311 583.83,153.964L583.83,156.803C583.83,157.43 584.067,158.032 584.489,158.475C584.911,158.919 585.483,159.168 586.079,159.168L587.83,159.168C589.072,159.167 590.079,158.108 590.079,156.802C590.079,155.616 590.079,153.964 590.079,153.964C590.079,153.311 589.575,152.781 588.954,152.781C588.334,152.781 587.83,153.311 587.83,153.964L587.83,156.802Z"/>
                </g>
                <g transform="matrix(0.469225,0,0,0.594995,88.0635,64.0431)">
                    <path d="M584.954,153.964L584.954,156.803C584.954,157.116 585.081,157.417 585.307,157.639C585.533,157.861 585.84,157.985 586.159,157.985C586.663,157.985 587.247,157.985 587.75,157.985C588.415,157.985 588.954,157.455 588.954,156.802C588.954,155.616 588.954,153.964 588.954,153.964"/>
                </g>
                <g transform="matrix(0.469225,0,0,0.594995,88.0635,64.0431)">
                    <path d="M587.75,156.802L586.159,156.803C586.159,155.616 586.159,153.964 586.159,153.964C586.159,153.311 585.619,152.781 584.954,152.781C584.29,152.781 583.75,153.311 583.75,153.964L583.75,156.803C583.75,157.43 584.004,158.032 584.456,158.475C584.908,158.919 585.52,159.168 586.159,159.168L587.751,159.168C589.081,159.167 590.159,158.108 590.159,156.802C590.159,155.616 590.159,153.964 590.159,153.964C590.159,153.311 589.619,152.781 588.954,152.781C588.29,152.781 587.75,153.311 587.75,153.964L587.75,156.802Z"/>
                </g>
                <g transform="matrix(0.532489,0,0,0.663112,40.2105,53.326)">
                    <path d="M608.582,141.097C608.582,141.097 609.563,141.255 610.481,141.371C610.774,141.408 611.055,141.433 611.295,141.459C611.295,141.459 611.295,141.459 611.295,141.459C611.345,141.463 611.374,141.51 611.405,141.546C611.43,141.574 611.427,141.615 611.425,141.656L611.431,142.33L611.424,142.452C611.407,142.472 611.4,142.501 611.378,142.513C611.351,142.528 611.332,142.557 611.302,142.56C611.302,142.56 611.302,142.56 611.302,142.56C611.022,142.602 610.694,142.644 610.363,142.7C609.63,142.822 608.954,142.961 608.954,142.961C608.944,142.961 608.935,142.97 608.935,142.981C608.935,142.992 608.944,143.001 608.954,143.001C608.954,143.001 609.63,143.14 610.363,143.262C610.694,143.317 611.022,143.36 611.302,143.401C611.447,143.419 611.587,143.389 611.725,143.349C611.866,143.308 611.986,143.222 612.101,143.127C612.22,143.03 612.302,142.903 612.37,142.77C612.439,142.634 612.464,142.481 612.474,142.326L612.476,141.652C612.458,141.331 612.335,141.036 612.111,140.839C611.892,140.648 611.61,140.518 611.297,140.542C611.058,140.567 610.776,140.59 610.483,140.626C609.564,140.736 608.583,140.889 608.583,140.889C608.525,140.888 608.478,140.935 608.478,140.992C608.478,141.05 608.525,141.097 608.582,141.097Z"/>
                </g>
                <g transform="matrix(-0.532489,0,0,0.663112,675.523,53.326)">
                    <path d="M608.466,140.887C608.466,140.887 609.505,140.729 610.463,140.617C610.774,140.581 611.07,140.558 611.319,140.534C611.627,140.512 611.905,140.641 612.12,140.831C612.339,141.025 612.461,141.315 612.477,141.631L612.469,142.342C612.459,142.494 612.435,142.645 612.366,142.777C612.299,142.908 612.219,143.034 612.103,143.129C611.99,143.222 611.872,143.307 611.733,143.347C611.598,143.386 611.46,143.416 611.318,143.398C611.038,143.357 610.707,143.315 610.372,143.26C609.636,143.139 608.954,143.001 608.954,143.001C608.944,143.001 608.935,142.992 608.935,142.981C608.935,142.97 608.944,142.961 608.954,142.961C608.954,142.961 609.636,142.823 610.372,142.702C610.706,142.647 611.038,142.605 611.318,142.564C611.318,142.564 611.318,142.564 611.318,142.564C611.347,142.56 611.364,142.531 611.389,142.518C611.41,142.506 611.416,142.479 611.432,142.46L611.435,142.346L611.423,141.635C611.425,141.601 611.429,141.565 611.409,141.542C611.382,141.512 611.359,141.47 611.316,141.467C611.068,141.441 610.771,141.416 610.461,141.378C609.503,141.26 608.465,141.095 608.465,141.095C608.408,141.095 608.361,141.048 608.361,140.991C608.361,140.933 608.408,140.887 608.466,140.887Z"/>
                </g>
            </g>
        </g>
    </g>
</svg>
