<?xml version="1.0" encoding="UTF-8" standalone="no"?>
<!DOCTYPE svg PUBLIC "-//W3C//DTD SVG 1.1//EN" "http://www.w3.org/Graphics/SVG/1.1/DTD/svg11.dtd">
<svg width="100%" height="100%" viewBox="0 0 32 32" version="1.1" xmlns="http://www.w3.org/2000/svg" xmlns:xlink="http://www.w3.org/1999/xlink" xml:space="preserve" xmlns:serif="http://www.serif.com/" style="fill-rule:evenodd;clip-rule:evenodd;stroke-linejoin:round;stroke-miterlimit:2;">
    <g transform="matrix(1,0,0,1,-916,-643)">
        <g id="ic_categories_travel_parking" transform="matrix(0.925528,0,0,0.890711,68.286,72.4131)">
            <rect x="916.983" y="641.673" width="32.484" height="34.586" style="fill:none;"/>
            <g transform="matrix(1.91196,0,0,1.59535,-67.2129,453.89)">
                <g transform="matrix(-0.176347,0.128307,0.103281,0.220136,626.371,-1.6327)">
                    <path d="M662.789,159.721C667.727,159.502 671.94,161.261 675.058,164.269C678.235,167.334 680.103,171.749 680.517,176.776C680.78,182.08 678.759,186.981 675.285,190.502C673.521,192.29 671.361,193.703 668.98,194.638C666.687,195.538 664.179,195.992 661.581,195.92C656.371,195.72 651.688,193.526 648.42,189.961C645.252,186.507 643.352,181.871 643.589,176.823C643.843,172.063 645.542,167.987 648.345,165.06C651.179,162.102 655.077,160.311 659.598,160.263C659.654,160.259 659.703,160.302 659.707,160.358C659.71,160.414 659.668,160.463 659.611,160.467C655.379,160.984 651.885,163.012 649.532,166.075C647.357,168.907 646.226,172.627 646.45,176.823C646.642,180.918 648.511,184.514 651.311,187.087C654.006,189.565 657.637,191 661.581,190.849C663.471,190.796 665.256,190.327 666.901,189.617C668.589,188.889 670.099,187.847 671.397,186.592C673.977,184.098 675.73,180.724 675.767,176.87C675.937,172.835 674.838,169.188 672.678,166.391C670.372,163.405 667.02,161.33 662.747,160.803C662.447,160.791 662.214,160.539 662.225,160.24C662.237,159.942 662.49,159.709 662.789,159.721Z"/>
                </g>
                <g transform="matrix(0.445512,0,0,0.353707,262.044,91.3522)">
                    <path d="M592.771,133.92C592.769,133.936 592.768,133.954 592.768,133.973C592.768,134.134 592.851,134.265 592.954,134.265C592.954,134.265 593.123,134.148 593.162,133.774C593.199,133.43 593.273,132.719 593.35,131.984C593.366,131.806 593.424,131.654 593.481,131.502C593.533,131.362 593.62,131.27 593.704,131.17C593.781,131.079 593.877,131.06 593.969,131.022C594.052,130.987 594.136,131.026 594.223,131.043C594.973,131.147 595.954,131.328 596.951,131.42C597.413,131.463 597.876,131.482 598.315,131.485C598.814,131.49 599.281,131.456 599.679,131.444C599.727,131.441 599.776,131.428 599.82,131.453C599.869,131.479 599.923,131.49 599.962,131.544C600.004,131.603 600.053,131.652 600.077,131.73C600.103,131.814 600.137,131.895 600.14,131.99L600.155,132.308C599.593,132.429 598.77,132.609 597.889,132.814C595.781,133.304 593.373,133.918 593.373,133.918C593.354,133.919 593.339,133.945 593.34,133.976C593.341,134.006 593.358,134.029 593.377,134.028C593.377,134.028 595.813,134.22 597.943,134.342C599.398,134.425 600.691,134.469 600.941,134.477L600.943,134.481L600.942,134.478L600.951,134.478C601.036,134.451 601.639,134.225 601.693,133.189C601.704,132.971 601.728,132.511 601.754,132.004C601.773,131.567 601.716,131.141 601.628,130.734C601.539,130.322 601.381,129.956 601.195,129.622C601.005,129.283 600.766,129.037 600.512,128.845C600.255,128.651 599.97,128.569 599.679,128.548C599.679,128.548 599.679,128.548 599.679,128.548C599.281,128.536 598.814,128.502 598.315,128.506C597.877,128.509 597.414,128.527 596.951,128.57C595.955,128.662 594.973,128.842 594.223,128.945C593.97,128.996 593.723,129.072 593.506,129.269C593.297,129.46 593.097,129.673 592.948,129.983C592.804,130.281 592.679,130.588 592.621,130.943C592.564,131.283 592.527,131.628 592.558,131.984C592.636,132.719 592.71,133.43 592.746,133.774C592.752,133.828 592.761,133.876 592.771,133.92Z"/>
                </g>
                <g transform="matrix(0.565107,0,0,0.703731,76.7653,27.55)">
                    <path d="M797.486,140.47L798.041,156C798.041,156.246 798.24,156.445 798.486,156.445C798.731,156.445 798.931,156.246 798.931,156L799.486,140.47C799.486,139.918 799.038,139.47 798.486,139.47C797.934,139.47 797.486,139.918 797.486,140.47Z"/>
                </g>
                <g transform="matrix(0.282553,0.00033544,0.000269363,0.175933,297.789,120.518)">
                    <path d="M776.951,56.741L780.952,56.231C781.338,56.232 781.654,55.604 781.655,54.831C781.656,54.057 781.344,53.429 780.957,53.428L776.958,52.902C776.428,52.901 775.997,53.761 775.995,54.82C775.993,55.879 776.421,56.74 776.951,56.741Z"/>
                </g>
                <g transform="matrix(-1.75774e-16,-1.62253,0.956867,-2.98055e-16,385.897,876.087)">
                    <path d="M463.337,148.4C463.337,148.4 463.817,148.404 464.36,148.354C465.078,148.288 465.895,148.141 465.895,148.141C465.952,148.141 465.998,148.078 465.998,148C465.998,147.922 465.952,147.859 465.895,147.859C465.895,147.859 465.078,147.712 464.36,147.646C463.817,147.596 463.337,147.6 463.337,147.6C463.175,147.6 463.044,147.779 463.044,148C463.044,148.221 463.175,148.4 463.337,148.4Z"/>
                </g>
                <g transform="matrix(0.633223,0,0,0.817638,23.2998,12.1563)">
                    <path d="M796.614,131.964C796.583,131.916 796.557,131.949 796.553,131.989C796.546,132.049 796.591,132.103 796.654,132.109C796.654,132.109 797.396,132.353 797.979,132.832C798.137,132.961 798.256,133.119 798.355,133.294C798.43,133.425 798.462,133.576 798.455,133.751C798.464,133.873 798.461,133.982 798.435,134.083C798.416,134.159 798.409,134.233 798.377,134.3C798.31,134.439 798.242,134.568 798.139,134.676C797.839,134.99 797.492,135.205 797.235,135.318C797.078,135.386 796.986,135.432 796.971,135.422C796.964,135.413 796.95,135.411 796.941,135.419C796.932,135.426 796.93,135.439 796.938,135.448C796.956,135.487 797.5,135.58 798.128,135.446C798.405,135.386 798.663,135.264 798.911,135.097C799.172,134.922 799.366,134.669 799.501,134.357C799.58,134.174 799.605,133.962 799.614,133.731C799.603,133.545 799.579,133.371 799.518,133.214C799.367,132.828 799.107,132.516 798.761,132.312C798.433,132.117 798.068,131.997 797.715,131.94C797.303,131.874 796.955,131.877 796.782,131.885C796.735,131.887 796.705,131.889 796.689,131.89C796.632,131.895 796.614,131.926 796.614,131.964Z"/>
                </g>
                <g transform="matrix(-0.648102,0,0,0.838269,918.669,11.9684)">
                    <path d="M608.399,140.928C608.399,140.928 609.274,140.811 610.167,140.716C610.427,140.688 610.685,140.668 610.924,140.646C610.924,140.646 610.924,140.646 610.924,140.646C611.317,140.621 611.68,140.764 611.948,141.002C612.22,141.245 612.377,141.6 612.382,141.986L612.382,141.987C612.37,142.173 612.334,142.354 612.249,142.517C612.166,142.676 612.058,142.824 611.914,142.942C611.77,143.052 611.616,143.146 611.442,143.194C611.274,143.239 611.101,143.265 610.924,143.244C610.924,143.244 609.278,142.997 609.278,142.997C609.269,142.997 609.262,142.99 609.262,142.981C609.262,142.973 609.269,142.966 609.278,142.966L610.924,142.718C611.022,142.706 611.109,142.663 611.194,142.617C611.272,142.574 611.332,142.508 611.389,142.439C611.445,142.375 611.473,142.297 611.499,142.22C611.524,142.146 611.526,142.068 611.521,141.99L611.521,141.988C611.522,141.83 611.455,141.688 611.351,141.58C611.241,141.467 611.1,141.374 610.926,141.364C610.687,141.343 610.429,141.324 610.168,141.297C609.275,141.206 608.4,141.093 608.4,141.093C608.352,141.093 608.314,141.056 608.314,141.011C608.314,140.965 608.352,140.928 608.399,140.928Z"/>
                </g>
                <g transform="matrix(1.5069,2.09436e-16,1.68181e-16,3.58673,-402.953,-384.305)">
                    <path d="M609.259,141.44L610.113,141.479C610.304,141.487 610.478,141.526 610.625,141.584C610.765,141.639 610.869,141.716 610.933,141.805C611.01,141.909 611.096,142.027 611.19,142.148C611.278,142.262 611.375,142.378 611.463,142.487C611.496,142.525 611.51,142.566 611.506,142.607C611.502,142.648 611.486,142.69 611.444,142.726C611.403,142.765 611.349,142.799 611.279,142.822C611.206,142.847 611.125,142.866 611.036,142.869C610.772,142.881 610.494,142.893 610.228,142.906C609.573,142.94 609.017,142.976 609.017,142.976C609.011,142.976 609.006,142.978 609.006,142.981C609.006,142.984 609.011,142.987 609.017,142.987C609.017,142.987 609.573,143.022 610.228,143.056C610.494,143.07 610.772,143.081 611.036,143.093C611.202,143.099 611.364,143.08 611.51,143.044C611.661,143.008 611.787,142.948 611.888,142.876C611.988,142.802 612.045,142.716 612.061,142.628C612.077,142.54 612.046,142.449 611.974,142.366C611.875,142.259 611.772,142.145 611.666,142.035C611.554,141.918 611.44,141.807 611.342,141.708C611.218,141.588 611.04,141.489 610.82,141.426C610.607,141.365 610.365,141.333 610.113,141.344C610.113,141.344 609.259,141.383 609.259,141.383C609.228,141.383 609.204,141.396 609.204,141.411C609.204,141.427 609.228,141.44 609.259,141.44Z"/>
                </g>
                <g transform="matrix(0.565107,0,0,0.703731,77.1492,27.192)">
                    <path d="M786.11,155.822C785.924,155.563 785.799,155.767 785.799,156C785.799,156.352 786.084,156.637 786.436,156.637L786.927,156.66C787.682,156.692 788.403,156.475 789.018,156.095C789.645,155.707 790.141,155.122 790.455,154.419C790.887,153.438 791.446,152.192 791.974,150.969C792.543,149.65 793.079,148.363 793.444,147.501C793.65,147.005 793.712,146.472 793.642,145.958C793.572,145.442 793.363,144.947 793.031,144.523C792.115,143.408 790.49,141.394 788.838,139.417C787.15,137.397 785.44,135.421 784.555,134.38C784.555,134.38 784.555,134.38 784.555,134.38C784.295,134.078 783.981,133.834 783.623,133.679C783.272,133.527 782.889,133.442 782.496,133.46C782.496,133.46 774.988,133.804 774.988,133.804C774.88,133.804 774.792,133.892 774.792,134C774.792,134.108 774.88,134.196 774.988,134.196L782.496,134.54C782.718,134.55 782.927,134.62 783.117,134.723C783.301,134.822 783.456,134.971 783.581,135.146C784.385,136.252 785.903,138.378 787.469,140.493C789.002,142.564 790.578,144.618 791.447,145.77C791.557,145.909 791.626,146.073 791.651,146.243C791.677,146.414 791.666,146.592 791.601,146.759C791.267,147.634 790.762,148.934 790.26,150.28C789.794,151.527 789.334,152.813 788.966,153.82C788.812,154.25 788.548,154.618 788.196,154.877C787.833,155.144 787.398,155.32 786.927,155.34C786.723,155.349 786.562,155.356 786.485,155.36C786.156,155.376 786.081,155.581 786.11,155.822Z"/>
                </g>
                <g transform="matrix(-0.102869,0.0748458,0.0602475,0.128413,576.998,63.9788)">
                    <path d="M662.804,159.334C668.007,158.795 672.449,160.503 675.908,163.511C679.499,166.634 681.529,171.348 682.214,176.742C682.626,182.567 680.461,187.995 676.674,191.898C674.749,193.883 672.354,195.434 669.722,196.431C667.191,197.39 664.434,197.866 661.581,197.731C655.913,197.358 650.828,194.976 647.387,190.988C644.108,187.186 642.133,182.219 642.567,176.823C643.022,171.851 644.868,167.648 647.921,164.698C650.943,161.778 654.957,160.057 659.593,160.19C659.69,160.184 659.773,160.257 659.78,160.353C659.786,160.45 659.713,160.533 659.616,160.539C655.474,161.213 652.154,163.336 649.956,166.437C647.98,169.228 647.105,172.816 647.472,176.823C647.775,180.588 649.693,183.769 652.344,186.061C654.805,188.189 658.081,189.268 661.581,189.037C663.22,188.96 664.739,188.457 666.159,187.824C667.603,187.18 668.882,186.266 670.008,185.196C672.263,183.052 673.968,180.243 674.07,176.904C674.39,173.203 673.678,169.82 671.828,167.149C669.763,164.169 666.8,161.937 662.731,161.189C662.218,161.169 661.818,160.737 661.838,160.225C661.858,159.713 662.291,159.314 662.804,159.334Z"/>
                </g>
                <g transform="matrix(0.764783,0,0,0.703731,-77.2539,27.192)">
                    <path d="M777.46,155.826L775.038,155.952C775.018,155.952 775.002,155.973 775.002,156C775.002,156.027 775.018,156.048 775.038,156.048L777.46,156.174C777.531,156.174 777.588,156.096 777.588,156C777.588,155.904 777.531,155.826 777.46,155.826Z"/>
                </g>
            </g>
        </g>
    </g>
</svg>
