<?xml version="1.0" encoding="UTF-8" standalone="no"?>
<!DOCTYPE svg PUBLIC "-//W3C//DTD SVG 1.1//EN" "http://www.w3.org/Graphics/SVG/1.1/DTD/svg11.dtd">
<svg width="100%" height="100%" viewBox="0 0 28 32" version="1.1" xmlns="http://www.w3.org/2000/svg" xmlns:xlink="http://www.w3.org/1999/xlink" xml:space="preserve" xmlns:serif="http://www.serif.com/" style="fill-rule:evenodd;clip-rule:evenodd;stroke-linejoin:round;stroke-miterlimit:2;">
    <g transform="matrix(1,0,0,1,-874,-643)">
        <g id="ic_categories_travel_train" transform="matrix(1.00111,0,0,1.00118,-0.983432,-0.782692)">
            <rect x="874.736" y="644" width="26.527" height="30.033" style="fill:none;"/>
            <g transform="matrix(1.76762,0,0,1.41933,-79.9428,440.605)">
                <g transform="matrix(0.0169559,-0.126759,-0.104948,-0.0217704,536.891,244.604)">
                    <path d="M695.142,44.033C695.56,46.491 694.866,48.775 693.544,50.631C692.036,52.75 689.565,53.947 686.801,54.276C683.882,54.446 681.141,53.341 679.214,51.389C677.38,49.531 676.362,46.873 676.441,44.033C676.651,41.271 677.772,38.788 679.678,37.094C681.593,35.392 684.088,34.35 686.801,34.588C689.279,34.836 691.702,36.069 693.379,38.029C694.91,39.819 695.851,42.069 695.591,44.378C695.591,44.432 695.546,44.476 695.49,44.476C695.434,44.476 695.389,44.432 695.389,44.378C695.155,42.299 693.913,40.482 692.216,39.186C690.65,37.99 688.682,37.355 686.801,37.543C685.118,37.691 683.743,38.623 682.749,39.852C681.84,40.976 681.434,42.459 681.553,44.033C681.594,45.518 682.288,46.795 683.213,47.797C684.149,48.81 685.332,49.638 686.801,49.724C688.445,49.92 690.005,49.518 691.232,48.554C692.643,47.446 693.741,45.952 694.067,44.033C694.067,43.745 694.308,43.512 694.605,43.512C694.901,43.512 695.142,43.745 695.142,44.033Z"/>
                </g>
                <g transform="matrix(0.0169559,-0.126759,-0.104948,-0.0217704,544.24,244.604)">
                    <path d="M695.142,44.033C695.56,46.491 694.866,48.775 693.544,50.631C692.036,52.75 689.565,53.947 686.801,54.276C683.882,54.446 681.141,53.341 679.214,51.389C677.38,49.531 676.362,46.873 676.441,44.033C676.651,41.271 677.772,38.788 679.678,37.094C681.593,35.392 684.088,34.35 686.801,34.588C689.279,34.836 691.702,36.069 693.379,38.029C694.91,39.819 695.851,42.069 695.591,44.378C695.591,44.432 695.546,44.476 695.49,44.476C695.434,44.476 695.389,44.432 695.389,44.378C695.155,42.299 693.913,40.482 692.216,39.186C690.65,37.99 688.682,37.355 686.801,37.543C685.118,37.691 683.743,38.623 682.749,39.852C681.84,40.976 681.434,42.459 681.553,44.033C681.594,45.518 682.288,46.795 683.213,47.797C684.149,48.81 685.332,49.638 686.801,49.724C688.445,49.92 690.005,49.518 691.232,48.554C692.643,47.446 693.741,45.952 694.067,44.033C694.067,43.745 694.308,43.512 694.605,43.512C694.901,43.512 695.142,43.745 695.142,44.033Z"/>
                </g>
                <g transform="matrix(0.486418,0,0,0.605739,247.921,97.0726)">
                    <ellipse cx="621.368" cy="81.007" rx="0.649" ry="0.642"/>
                </g>
                <g transform="matrix(0.486418,0,0,0.605739,247.921,97.0726)">
                    <path d="M621.188,80.391C621.245,80.374 621.306,80.365 621.368,80.365C621.727,80.365 622.017,80.653 622.017,81.007C622.017,81.362 621.727,81.65 621.368,81.65L621.368,80.92C621.43,80.897 621.404,81.135 621.43,81.08C621.465,81.007 621.676,81.089 621.646,81.007C621.604,80.887 621.79,80.728 621.684,80.677C621.547,80.61 621.525,80.329 621.368,80.38C621.31,80.397 621.249,80.397 621.188,80.391Z" style="fill:none;"/>
                </g>
                <g transform="matrix(0.486418,0,0,0.605739,242.769,97.0726)">
                    <ellipse cx="621.368" cy="81.007" rx="0.649" ry="0.642"/>
                </g>
                <g transform="matrix(0.486418,0,0,0.605739,242.769,97.0726)">
                    <path d="M621.188,80.391C621.245,80.374 621.306,80.365 621.368,80.365C621.727,80.365 622.017,80.653 622.017,81.007C622.017,81.362 621.727,81.65 621.368,81.65L621.368,80.92C621.43,80.897 621.404,81.135 621.43,81.08C621.465,81.007 621.676,81.089 621.646,81.007C621.604,80.887 621.79,80.728 621.684,80.677C621.547,80.61 621.525,80.329 621.368,80.38C621.31,80.397 621.249,80.397 621.188,80.391Z" style="fill:none;"/>
                </g>
                <g transform="matrix(0.620281,0.000514223,0.000412928,0.502741,64.387,118.175)">
                    <path d="M776.953,55.533L780.953,55.358C781.143,55.358 781.298,55.122 781.298,54.83C781.299,54.539 781.145,54.301 780.955,54.301L776.956,54.111C776.7,54.11 776.492,54.429 776.492,54.821C776.491,55.213 776.698,55.532 776.953,55.533Z"/>
                </g>
                <g transform="matrix(0.736088,0.000610228,0.000490022,0.596603,-25.815,122.637)">
                    <path d="M776.953,55.421L780.953,55.275C781.113,55.275 781.244,55.076 781.244,54.83C781.245,54.584 781.115,54.385 780.955,54.384L776.955,54.223C776.74,54.222 776.565,54.491 776.564,54.821C776.564,55.152 776.738,55.421 776.953,55.421Z"/>
                </g>
                <g transform="matrix(0.736088,0.000610228,0.000490022,0.596603,-25.815,124.078)">
                    <path d="M776.953,55.421L780.953,55.275C781.113,55.275 781.244,55.076 781.244,54.83C781.245,54.584 781.115,54.385 780.955,54.384L776.955,54.223C776.74,54.222 776.565,54.491 776.564,54.821C776.564,55.152 776.738,55.421 776.953,55.421Z"/>
                </g>
                <g transform="matrix(0.706448,0,0,0.703731,-9.76319,52.3825)">
                    <path d="M789.414,129.224L789.188,129.223C789.112,129.223 789.037,129.224 788.961,129.225C786.553,129.264 784.152,129.806 781.85,130.818L781.849,130.819C781.403,131.016 781.029,131.373 780.773,131.836C780.519,132.295 780.371,132.848 780.381,133.434C780.381,133.434 780.737,150.332 780.737,150.332C780.743,150.588 780.787,150.838 780.869,151.067C780.951,151.294 781.065,151.503 781.213,151.677C781.359,151.849 781.528,151.984 781.712,152.072C781.894,152.159 782.09,152.203 782.289,152.196C782.289,152.196 782.289,152.196 782.289,152.196L782.289,151.804C782.133,151.798 781.983,151.752 781.844,151.674C781.707,151.597 781.583,151.485 781.477,151.346C781.374,151.209 781.295,151.047 781.243,150.874C781.19,150.703 781.167,150.519 781.171,150.332L781.528,133.434C781.533,133.163 781.613,132.912 781.737,132.706C781.859,132.504 782.034,132.357 782.236,132.279C782.236,132.279 782.238,132.278 782.238,132.278C784.427,131.424 786.697,131.041 788.961,131.079C791.214,131.117 793.465,131.578 795.625,132.501L795.7,132.532C795.836,132.588 795.949,132.696 796.029,132.834C796.109,132.973 796.158,133.141 796.159,133.32C796.183,135.37 796.217,139.482 796.28,143.328C796.322,145.907 796.384,148.363 796.417,150C796.422,150.178 796.403,150.354 796.354,150.517C796.303,150.684 796.232,150.841 796.133,150.973C796.032,151.107 795.915,151.219 795.783,151.293C795.649,151.368 795.504,151.418 795.354,151.423L782.919,151.963C782.902,151.963 782.889,151.98 782.889,152C782.889,152.02 782.902,152.037 782.919,152.037L795.354,152.577C795.629,152.587 795.898,152.522 796.151,152.403C796.405,152.282 796.637,152.093 796.839,151.856C797.042,151.616 797.199,151.326 797.311,151.013C797.425,150.697 797.483,150.353 797.491,150C797.525,148.363 797.586,145.907 797.629,143.328C797.691,139.482 797.725,135.37 797.75,133.32C797.752,132.711 797.597,132.136 797.326,131.665C797.055,131.193 796.667,130.827 796.204,130.636C796.204,130.636 796.129,130.604 796.129,130.604C793.945,129.722 791.681,129.248 789.414,129.224Z"/>
                </g>
                <g transform="matrix(0.659525,0,0,0.935782,27.1035,20.2708)">
                    <path d="M782.83,136L782.5,141.242C782.492,141.395 782.527,141.545 782.586,141.686C782.645,141.828 782.743,141.956 782.862,142.07C782.983,142.185 783.131,142.271 783.289,142.335C783.449,142.4 783.625,142.431 783.805,142.437C784.428,142.455 785.339,142.488 786.379,142.511C787.186,142.529 788.069,142.544 788.953,142.553C789.651,142.559 790.351,142.563 791.012,142.56C792.263,142.554 793.378,142.53 794.1,142.521C794.499,142.513 794.86,142.373 795.116,142.139C795.369,141.907 795.531,141.594 795.523,141.248C795.523,141.248 795.395,136.755 795.395,136.755C795.39,136.606 795.356,136.46 795.288,136.327C795.22,136.195 795.127,136.072 795.005,135.971C794.883,135.87 794.744,135.79 794.591,135.739C794.439,135.689 794.278,135.66 794.112,135.665C794.112,135.665 784.037,135.979 784.037,135.979C784.024,135.979 784.014,135.988 784.014,136C784.014,136.012 784.024,136.021 784.037,136.021L794.112,136.335C794.175,136.337 794.234,136.354 794.29,136.376C794.345,136.398 794.391,136.432 794.433,136.471C794.474,136.509 794.501,136.556 794.521,136.604C794.541,136.651 794.546,136.702 794.544,136.753C794.544,136.753 794.391,141.246 794.391,141.246C794.389,141.315 794.348,141.373 794.295,141.417C794.245,141.458 794.174,141.475 794.1,141.474C794.1,141.474 794.1,141.474 794.1,141.474C793.378,141.464 792.263,141.44 791.012,141.434C790.351,141.431 789.652,141.434 788.953,141.44C788.069,141.449 787.186,141.463 786.379,141.481C785.339,141.504 784.428,141.536 783.805,141.554C783.757,141.556 783.709,141.556 783.664,141.541C783.619,141.526 783.572,141.509 783.536,141.48C783.498,141.449 783.462,141.416 783.441,141.376C783.419,141.334 783.399,141.29 783.397,141.243C783.397,141.243 783.082,136 783.082,136C783.082,135.939 783.026,135.889 782.956,135.889C782.887,135.889 782.83,135.939 782.83,136Z"/>
                </g>
                <g transform="matrix(0.453787,0,0,0.772131,188.91,41.5757)">
                    <path d="M778.417,157.119C778.141,157.106 777.78,157.091 777.394,157.083C777.634,156.847 777.886,156.594 778.139,156.332C779.607,154.821 781.138,153.1 781.138,153.1C781.227,153.026 781.217,152.913 781.115,152.848C781.014,152.782 780.859,152.79 780.771,152.864C780.771,152.864 778.641,154.201 776.786,155.465C775.656,156.235 774.663,156.974 774.245,157.272C774.065,157.407 773.979,157.585 773.931,157.763C773.882,157.941 773.936,158.126 774.031,158.302C774.127,158.478 774.314,158.61 774.517,158.716C774.72,158.822 774.973,158.862 775.233,158.871C775.618,158.877 776.349,158.909 777.062,158.901C777.873,158.892 778.657,158.838 778.891,158.829C778.891,158.829 778.892,158.829 778.892,158.829C779.115,158.814 779.339,158.794 779.517,158.703C779.695,158.613 779.878,158.516 779.975,158.369C780.128,158.118 780.89,156.945 781.586,155.738C782.369,154.379 783.045,153.039 783.045,153.039C783.058,153.023 783.051,153.003 783.029,152.993C783.007,152.984 782.979,152.989 782.966,153.005C782.966,153.005 781.676,154.076 780.413,155.225C779.625,155.943 778.874,156.673 778.417,157.119ZM776.076,158.364L776.027,158.412L776.072,158.368L776.076,158.364ZM778.134,157.394C778.121,157.407 778.107,157.42 778.093,157.433L778.014,157.512L778.136,157.393L778.134,157.394ZM775.225,157.117L775.225,157.117L775.225,157.117Z"/>
                </g>
                <g transform="matrix(-0.455756,0,0,0.772131,907.81,41.7626)">
                    <path d="M777.391,157.083C777.778,157.091 778.142,157.106 778.421,157.12C778.877,156.673 779.629,155.943 780.417,155.225C781.678,154.076 782.966,153.005 782.966,153.005C782.979,152.989 783.007,152.984 783.029,152.993C783.051,153.003 783.058,153.024 783.045,153.039C783.045,153.039 782.367,154.38 781.582,155.738C780.885,156.946 780.122,158.12 779.969,158.37C779.872,158.517 779.69,158.613 779.514,158.703C779.336,158.793 779.114,158.814 778.892,158.829C778.658,158.838 777.873,158.891 777.062,158.901C776.348,158.909 775.617,158.877 775.233,158.871C774.974,158.862 774.721,158.822 774.519,158.715C774.317,158.609 774.13,158.478 774.036,158.301C773.941,158.125 773.888,157.94 773.936,157.762C773.985,157.584 774.071,157.406 774.251,157.27C774.669,156.973 775.661,156.233 776.79,155.463C778.644,154.2 780.772,152.864 780.772,152.864C780.86,152.79 781.014,152.783 781.115,152.848C781.216,152.913 781.226,153.026 781.137,153.1C781.137,153.1 779.604,154.822 778.135,156.333C777.882,156.594 777.63,156.847 777.391,157.083ZM776.067,158.369L776.021,158.414L776.07,158.366L776.067,158.369ZM778.142,157.392L778.02,157.511L778.098,157.432C778.112,157.419 778.126,157.407 778.139,157.394L778.142,157.392ZM778.884,157.141L778.884,157.141L778.884,157.141ZM775.225,157.117L775.224,157.117L775.225,157.117Z"/>
                </g>
                <g transform="matrix(0.474711,-4.7605e-05,-3.82275e-05,0.703731,173.314,52.4202)">
                    <path d="M782.096,155.779C782.096,155.779 786.416,155.767 790.153,155.625C793.018,155.517 795.525,155.321 795.525,155.321C795.75,155.321 795.933,155.167 795.933,154.978C795.933,154.789 795.75,154.635 795.525,154.635C795.525,154.635 793.018,154.437 790.154,154.326C786.417,154.181 782.097,154.165 782.097,154.165C781.567,154.165 781.136,154.526 781.136,154.972C781.136,155.417 781.566,155.779 782.096,155.779Z"/>
                </g>
            </g>
        </g>
    </g>
</svg>
