<?xml version="1.0" encoding="UTF-8" standalone="no"?>
<!DOCTYPE svg PUBLIC "-//W3C//DTD SVG 1.1//EN" "http://www.w3.org/Graphics/SVG/1.1/DTD/svg11.dtd">
<svg width="100%" height="100%" viewBox="0 0 31 30" version="1.1" xmlns="http://www.w3.org/2000/svg" xmlns:xlink="http://www.w3.org/1999/xlink" xml:space="preserve" xmlns:serif="http://www.serif.com/" style="fill-rule:evenodd;clip-rule:evenodd;stroke-linejoin:round;stroke-miterlimit:2;">
    <g transform="matrix(1,0,0,1,-823,-643)">
        <g id="ic_categories_travel_local_transport" transform="matrix(1.00212,0,0,1.00177,-1.77053,-1.16248)">
            <rect x="824" y="644" width="29.407" height="28.835" style="fill:none;"/>
            <g transform="matrix(1.76584,0,0,1.41848,144.667,483.424)">
                <g transform="matrix(0.282553,0.00033544,0.000269363,0.175933,172.962,109.993)">
                    <path d="M776.783,54.694C776.653,54.242 776.563,54.511 776.562,54.821C776.561,55.254 776.736,55.606 776.953,55.607L776.954,55.607C776.954,55.607 777.116,56.299 778.148,58.001C778.292,58.239 778.37,58.361 778.547,58.539C778.679,58.671 778.796,58.804 778.947,58.819C779.088,58.834 779.222,58.751 779.347,58.629C779.55,58.43 779.598,58.285 779.748,57.984C780.972,55.534 780.954,54.977 780.954,54.977C780.995,54.977 781.028,54.911 781.028,54.83C781.028,54.748 780.995,54.682 780.955,54.682L780.955,54.704C780.933,54.613 780.896,54.49 780.835,54.327C780.548,53.549 780.611,53.374 779.76,51.671C779.61,51.37 779.564,51.224 779.362,51.024C779.237,50.901 779.104,50.818 778.962,50.832C778.812,50.847 778.694,50.979 778.561,51.111C778.384,51.289 778.306,51.411 778.16,51.647C777.425,52.841 777.34,53.223 777.076,53.771C776.901,54.136 776.815,54.443 776.783,54.694Z"/>
                </g>
                <g transform="matrix(0.565107,0,0,0.703731,19.3808,24.9248)">
                    <path d="M671.395,135.006L671.395,135.006C669.591,135.024 666.432,135.039 663.043,135.088C658.274,135.155 653.054,135.274 650.515,135.322C649.904,135.336 649.334,135.547 648.887,135.914C648.445,136.276 648.112,136.776 647.979,137.364C647.979,137.364 646.563,143.65 646.563,143.65C646.563,143.65 646.501,144.245 646.501,144.245C646.501,144.245 646.65,149.997 646.65,149.997C646.658,150.3 646.723,150.595 646.844,150.867C646.963,151.136 647.133,151.382 647.351,151.589C647.566,151.793 647.817,151.953 648.089,152.057C648.358,152.161 648.647,152.214 648.942,152.206L649.283,152.196L649.292,152.18C649.331,152.106 649.473,151.809 649.249,151.803C649.196,151.801 649.086,151.798 648.942,151.794C648.705,151.788 648.475,151.733 648.263,151.638C648.053,151.544 647.863,151.408 647.702,151.238C647.544,151.07 647.424,150.872 647.343,150.66C647.263,150.451 647.227,150.226 647.233,149.998L647.397,144.246L647.455,143.874C647.455,143.874 649.171,137.663 649.171,137.663C649.255,137.36 649.443,137.11 649.682,136.933C649.916,136.759 650.208,136.671 650.515,136.678C653.054,136.726 658.274,136.845 663.043,136.912C666.432,136.961 669.591,136.976 671.395,136.994C671.625,136.995 671.839,137.076 672.011,137.21C672.182,137.344 672.31,137.533 672.366,137.756L673.988,143.993C673.988,143.993 674.028,144.248 674.028,144.248L674.144,149.998C674.148,150.155 674.128,150.31 674.073,150.453C674.017,150.598 673.939,150.737 673.83,150.852C673.718,150.969 673.59,151.067 673.446,151.131C673.299,151.196 673.141,151.24 672.977,151.244C672.977,151.244 672.977,151.244 672.977,151.244C670.882,151.301 667.403,151.385 663.773,151.496C657.113,151.7 649.967,151.963 649.967,151.963C649.947,151.963 649.93,151.98 649.93,152C649.93,152.02 649.947,152.037 649.967,152.037C649.967,152.037 657.113,152.3 663.773,152.504C667.403,152.615 670.882,152.699 672.977,152.756C673.344,152.765 673.704,152.694 674.04,152.564C674.378,152.433 674.686,152.23 674.954,151.975C675.224,151.718 675.43,151.408 675.577,151.074C675.726,150.738 675.801,150.371 675.81,149.996C675.81,149.996 675.908,144.245 675.908,144.245C675.908,144.245 675.828,143.529 675.828,143.529L674.304,137.268C674.136,136.602 673.753,136.034 673.239,135.635C672.725,135.236 672.082,135.004 671.395,135.006Z"/>
                </g>
                <g transform="matrix(0.568207,0,0,0.729299,53.8419,24.6955)">
                    <path d="M584.392,145.476L593.774,145.401C594.01,145.401 594.202,145.215 594.202,144.986C594.202,144.757 594.01,144.571 593.774,144.571L584.392,144.496C584.113,144.496 583.887,144.716 583.887,144.986C583.887,145.257 584.113,145.476 584.392,145.476Z"/>
                </g>
                <g transform="matrix(0.571268,5.26312e-17,4.22637e-17,0.729299,52.3959,24.6955)">
                    <path d="M598.959,145.33L608.284,145.159C608.381,145.159 608.461,145.082 608.461,144.986C608.461,144.891 608.381,144.814 608.284,144.814L598.959,144.643C598.765,144.643 598.607,144.797 598.607,144.986C598.607,145.176 598.765,145.33 598.959,145.33Z"/>
                </g>
                <g transform="matrix(0.378449,0,0,0.729299,167.21,7.95559)">
                    <path d="M584.392,145.64C584.392,145.64 588.871,145.646 593.949,145.565C600.608,145.458 608.284,145.217 608.284,145.217C608.48,145.217 608.64,145.113 608.64,144.986C608.64,144.859 608.48,144.756 608.284,144.756C608.284,144.756 600.608,144.515 593.949,144.408C588.871,144.326 584.392,144.333 584.392,144.333C583.834,144.333 583.381,144.626 583.381,144.986C583.381,145.347 583.834,145.64 584.392,145.64Z"/>
                </g>
                <g transform="matrix(0.631565,0,0,0.703731,12.8993,23.5352)">
                    <path d="M598.723,132.746C598.821,132.637 598.938,132.505 599.066,132.354C599.318,132.055 599.613,131.687 599.92,131.298C600.201,130.941 600.484,130.569 600.75,130.214C601.426,129.312 601.966,128.554 601.966,128.554C601.972,128.547 601.973,128.535 601.966,128.528C601.96,128.521 601.949,128.521 601.943,128.528C601.943,128.528 601.25,129.11 600.424,129.84C600.099,130.127 599.759,130.433 599.432,130.737C599.075,131.069 598.738,131.388 598.464,131.662C598.169,131.958 597.951,132.2 597.846,132.311C597.846,132.311 597.846,132.311 597.846,132.311C597.794,132.367 597.753,132.434 597.725,132.507C597.698,132.58 597.683,132.66 597.683,132.74C597.685,132.821 597.698,132.901 597.726,132.973C597.755,133.046 597.794,133.114 597.847,133.169C597.847,133.169 597.847,133.169 597.847,133.169C597.972,133.297 598.257,133.598 598.629,133.967C598.868,134.205 599.142,134.471 599.431,134.742C600.575,135.82 601.893,137.002 601.893,137.002C601.928,137.04 601.984,137.039 602.017,137C602.051,136.961 602.05,136.899 602.015,136.862C602.015,136.862 600.919,135.424 599.921,134.177C599.67,133.863 599.424,133.565 599.204,133.305C599.02,133.087 598.855,132.896 598.723,132.746Z"/>
                </g>
                <g transform="matrix(-0.631565,0,0,0.703731,773.246,23.5379)">
                    <path d="M598.723,132.746C598.855,132.896 599.02,133.087 599.204,133.305C599.424,133.565 599.67,133.863 599.921,134.177C600.919,135.424 602.015,136.862 602.015,136.862C602.05,136.899 602.051,136.961 602.017,137C601.984,137.039 601.928,137.04 601.893,137.002C601.893,137.002 600.575,135.82 599.431,134.742C599.142,134.471 598.868,134.205 598.629,133.967C598.257,133.598 597.972,133.297 597.847,133.169C597.847,133.169 597.847,133.169 597.847,133.169C597.794,133.114 597.755,133.046 597.726,132.973C597.698,132.901 597.685,132.821 597.683,132.74C597.683,132.66 597.698,132.58 597.725,132.507C597.753,132.434 597.794,132.367 597.846,132.311C597.846,132.311 597.846,132.311 597.846,132.311C597.951,132.2 598.169,131.958 598.464,131.662C598.738,131.388 599.075,131.069 599.432,130.737C599.759,130.433 600.099,130.127 600.424,129.84C601.25,129.11 601.943,128.528 601.943,128.528C601.949,128.521 601.96,128.521 601.966,128.528C601.973,128.535 601.972,128.547 601.966,128.554C601.966,128.554 601.426,129.312 600.75,130.214C600.484,130.569 600.201,130.941 599.92,131.298C599.613,131.687 599.318,132.055 599.066,132.354C598.938,132.504 598.821,132.636 598.723,132.746Z"/>
                </g>
                <g transform="matrix(0.626076,0,0,0.815433,-20.438,3.35373)">
                    <path d="M654.693,157.788C654.583,158.13 654.361,158.391 654.069,158.572C653.763,158.76 653.392,158.878 652.981,158.896C652.545,158.925 652.133,158.824 651.792,158.614C651.423,158.388 651.128,158.06 650.97,157.658C650.945,157.576 650.855,157.529 650.769,157.553C650.684,157.577 650.634,157.663 650.659,157.745C650.772,158.254 651.064,158.698 651.464,159.031C651.872,159.372 652.4,159.573 652.981,159.612C653.551,159.637 654.083,159.524 654.521,159.288C655.009,159.025 655.372,158.602 655.566,158.056C655.643,157.826 655.51,157.579 655.27,157.505C655.029,157.431 654.77,157.558 654.693,157.788Z"/>
                </g>
                <g transform="matrix(0.626076,0,0,0.815433,-17.2679,3.35373)">
                    <path d="M654.693,157.623C654.58,157.976 654.351,158.28 654.052,158.502C653.752,158.725 653.389,158.881 652.981,158.899C652.545,158.928 652.132,158.826 651.791,158.615C651.422,158.389 651.128,158.06 650.97,157.658C650.945,157.576 650.855,157.529 650.769,157.553C650.684,157.577 650.634,157.663 650.659,157.745C650.772,158.253 651.065,158.697 651.465,159.03C651.873,159.37 652.4,159.571 652.981,159.609C653.567,159.635 654.118,159.472 654.568,159.177C655.035,158.872 655.381,158.414 655.566,157.891C655.644,157.661 655.511,157.414 655.27,157.34C655.029,157.266 654.771,157.392 654.693,157.623Z"/>
                </g>
                <g transform="matrix(0.626076,0,0,0.815433,-13.6567,3.35373)">
                    <path d="M654.693,157.623C654.58,157.976 654.351,158.28 654.052,158.502C653.752,158.725 653.389,158.881 652.981,158.899C652.545,158.928 652.132,158.826 651.791,158.615C651.422,158.389 651.128,158.06 650.97,157.658C650.945,157.576 650.855,157.529 650.769,157.553C650.684,157.577 650.634,157.663 650.659,157.745C650.772,158.253 651.065,158.697 651.465,159.03C651.873,159.37 652.4,159.571 652.981,159.609C653.567,159.635 654.118,159.472 654.568,159.177C655.035,158.872 655.381,158.414 655.566,157.891C655.644,157.661 655.511,157.414 655.27,157.34C655.029,157.266 654.771,157.392 654.693,157.623Z"/>
                </g>
                <g transform="matrix(0.626076,0,0,0.815433,-10.4867,3.35373)">
                    <path d="M654.693,157.623C654.58,157.976 654.351,158.28 654.052,158.502C653.752,158.725 653.389,158.881 652.981,158.899C652.545,158.928 652.132,158.826 651.791,158.615C651.422,158.389 651.128,158.06 650.97,157.658C650.945,157.576 650.855,157.529 650.769,157.553C650.684,157.577 650.634,157.663 650.659,157.745C650.772,158.253 651.065,158.697 651.465,159.03C651.873,159.37 652.4,159.571 652.981,159.609C653.567,159.635 654.118,159.472 654.568,159.177C655.035,158.872 655.381,158.414 655.566,157.891C655.644,157.661 655.511,157.414 655.27,157.34C655.029,157.266 654.771,157.392 654.693,157.623Z"/>
                </g>
                <g transform="matrix(-0.565107,0,0,0.704921,766.403,21.941)">
                    <path d="M657.051,148.147L648.957,148.402C648.828,148.401 648.706,148.341 648.628,148.239C648.549,148.137 648.523,148.004 648.557,147.879L649.812,142.61C649.896,142.263 650.1,141.971 650.364,141.759C650.63,141.544 650.969,141.424 651.331,141.415C651.331,141.415 651.331,141.415 651.331,141.415C652.275,141.396 654.007,141.35 656.07,141.319C657.539,141.297 659.174,141.271 660.809,141.27C662.445,141.268 664.081,141.284 665.548,141.309C667.622,141.344 669.358,141.405 670.287,141.428C670.629,141.439 670.952,141.547 671.21,141.747C671.465,141.944 671.667,142.213 671.762,142.538L672.915,146.57C672.976,146.785 672.992,147.007 672.949,147.22C672.907,147.43 672.823,147.632 672.686,147.805C672.551,147.975 672.384,148.113 672.192,148.201C672.002,148.288 671.794,148.337 671.58,148.328C671.58,148.328 664.583,148.028 664.583,148.028C664.568,148.028 664.555,148.015 664.555,148C664.555,147.985 664.568,147.972 664.583,147.972L671.58,147.672C671.686,147.667 671.785,147.632 671.875,147.581C671.963,147.532 672.034,147.458 672.091,147.373C672.146,147.29 672.174,147.194 672.185,147.098C672.196,147.005 672.18,146.909 672.147,146.818C672.147,146.818 670.715,142.876 670.715,142.876C670.683,142.786 670.616,142.718 670.54,142.666C670.468,142.617 670.379,142.601 670.287,142.604C670.287,142.604 670.287,142.604 670.287,142.604C669.358,142.627 667.622,142.689 665.548,142.724C664.081,142.749 662.445,142.766 660.809,142.765C659.174,142.764 657.539,142.74 656.07,142.718C654.008,142.687 652.275,142.642 651.331,142.624C651.24,142.621 651.151,142.641 651.081,142.692C651.008,142.745 650.945,142.816 650.918,142.907C650.918,142.907 649.51,147.591 649.51,147.591C649.51,147.591 657.052,147.853 657.052,147.853C657.133,147.853 657.199,147.919 657.199,148C657.198,148.081 657.132,148.147 657.051,148.147Z"/>
                </g>
                <g transform="matrix(0.537001,0,0,0.668731,37.7354,26.7642)">
                    <path d="M652.598,143.014C652.598,143.014 652.595,143.949 652.639,145.008C652.697,146.401 652.829,148 652.829,148C652.829,148.069 652.885,148.126 652.954,148.126C653.024,148.126 653.08,148.069 653.08,148C653.08,148 653.211,146.401 653.27,145.008C653.314,143.949 653.311,143.014 653.311,143.014C653.311,142.817 653.151,142.658 652.954,142.658C652.758,142.658 652.598,142.817 652.598,143.014Z"/>
                </g>
                <g transform="matrix(1.29355,0,0,1.91179,-453.24,-151.011)">
                    <path d="M652.806,143.014C652.806,143.014 652.805,143.949 652.823,145.008C652.848,146.397 652.902,148 652.902,148C652.902,148.024 652.926,148.044 652.954,148.044C652.983,148.044 653.006,148.024 653.006,148C653.006,148 653.061,146.397 653.085,145.008C653.104,143.949 653.102,143.014 653.102,143.014C653.102,142.945 653.036,142.889 652.954,142.889C652.873,142.889 652.806,142.945 652.806,143.014Z"/>
                </g>
                <g transform="matrix(1.29355,0,0,1.91179,-450.204,-151.011)">
                    <path d="M652.806,143.014C652.806,143.014 652.805,143.949 652.823,145.008C652.848,146.397 652.902,148 652.902,148C652.902,148.024 652.926,148.044 652.954,148.044C652.983,148.044 653.006,148.024 653.006,148C653.006,148 653.061,146.397 653.085,145.008C653.104,143.949 653.102,143.014 653.102,143.014C653.102,142.945 653.036,142.889 652.954,142.889C652.873,142.889 652.806,142.945 652.806,143.014Z"/>
                </g>
                <g transform="matrix(0.565107,0,0,0.703731,28.4253,21.7587)">
                    <path d="M652.616,143.014C652.616,143.014 652.612,143.949 652.655,145.008C652.71,146.401 652.835,148 652.835,148C652.835,148.066 652.888,148.119 652.954,148.119C653.02,148.119 653.074,148.066 653.074,148C653.074,148 653.199,146.401 653.254,145.008C653.296,143.949 653.293,143.014 653.293,143.014C653.293,142.827 653.141,142.675 652.954,142.675C652.767,142.675 652.616,142.827 652.616,143.014Z"/>
                </g>
            </g>
        </g>
    </g>
</svg>
