<?xml version="1.0" encoding="UTF-8" standalone="no"?>
<!DOCTYPE svg PUBLIC "-//W3C//DTD SVG 1.1//EN" "http://www.w3.org/Graphics/SVG/1.1/DTD/svg11.dtd">
<svg width="100%" height="100%" viewBox="0 0 33 30" version="1.1" xmlns="http://www.w3.org/2000/svg" xmlns:xlink="http://www.w3.org/1999/xlink" xml:space="preserve" xmlns:serif="http://www.serif.com/" style="fill-rule:evenodd;clip-rule:evenodd;stroke-linejoin:round;stroke-miterlimit:2;">
    <g transform="matrix(1,0,0,1,-636,-2049)">
        <g id="stocks" transform="matrix(1.00156,0,0,1.0009,-1.01182,-1.84387)">
            <rect x="636.954" y="2049.82" width="31.223" height="28.37" style="fill:none;"/>
            <g transform="matrix(1.76682,0,0,2.97882,-320.333,1425.35)">
                <g transform="matrix(1.14146e-17,-0.11131,1.54292,5.64126e-17,264.302,269.6)">
                    <path d="M479.218,179.998L479.216,180.003L479.222,180.006C479.255,180.015 479.411,180.055 479.853,180.062C480.158,180.066 480.8,180.075 481.432,180.084C481.54,180.086 481.629,180.094 481.723,180.1C481.809,180.105 481.864,180.116 481.926,180.125L482.007,180.185C481.835,180.406 481.496,180.786 481.263,181.142C481.126,181.353 481.039,181.554 480.965,181.704C479.82,181.7 478.25,181.693 476.441,181.69C474.907,181.688 473.201,181.689 471.443,181.693C465.795,181.704 459.595,181.732 456.661,181.742L456.128,180.183C456.128,180.183 456.184,180.151 456.184,180.151L456.448,180.132C456.448,180.132 477.824,180.011 477.824,180.011C477.866,180.011 477.9,180.007 477.9,180.002C477.9,179.997 477.866,179.993 477.824,179.993L456.449,179.869C456.104,179.867 455.767,179.876 455.448,179.89C455.126,179.904 454.838,179.928 454.581,179.956C454.32,179.985 454.13,180.021 453.983,180.059C453.835,180.098 453.769,180.14 453.753,180.183L453.206,181.781C453.175,181.89 453.557,181.989 454.126,182.063C454.704,182.138 455.535,182.181 456.447,182.185C459.286,182.194 465.654,182.224 471.443,182.235C473.201,182.239 474.907,182.24 476.441,182.238C478.514,182.235 480.274,182.226 481.439,182.222C482.435,182.217 483.348,182.172 483.971,182.089C484.585,182.007 485.011,181.9 484.965,181.781C484.965,181.781 484.965,181.781 484.965,181.781C484.883,181.626 484.791,181.392 484.628,181.142C484.396,180.786 484.057,180.406 483.885,180.185C483.851,180.146 483.792,180.107 483.639,180.073C483.491,180.04 483.32,180.008 483.074,179.984C482.834,179.961 482.581,179.94 482.29,179.93C482.007,179.921 481.717,179.914 481.42,179.919C480.79,179.929 480.149,179.94 479.844,179.945C479.8,179.946 479.758,179.947 479.72,179.948C479.705,179.948 479.689,179.948 479.673,179.948C479.436,179.948 479.241,179.97 479.218,179.998Z"/>
                </g>
                <g transform="matrix(2.07734e-17,-0.202572,1.52896,5.59025e-17,271.505,311.119)">
                    <path d="M481.999,181.737C480.955,181.729 479.107,181.71 476.848,181.699C475.25,181.691 473.446,181.687 471.578,181.687C470.015,181.687 468.407,181.691 466.835,181.697C462.13,181.712 457.753,181.736 455.888,181.744C455.866,181.543 455.708,180.185 455.708,180.185L455.712,180.172L455.769,180.163L478.51,180.011C478.534,180.011 478.552,180.007 478.552,180.002C478.552,179.997 478.534,179.992 478.51,179.992L455.769,179.837C455.562,179.836 455.36,179.846 455.17,179.862C454.978,179.878 454.806,179.904 454.655,179.936C454.502,179.968 454.388,180.007 454.304,180.049C454.219,180.092 454.18,180.138 454.174,180.185L453.989,181.779C453.978,181.889 454.184,181.989 454.5,182.062C454.818,182.137 455.271,182.181 455.769,182.183C455.769,182.183 455.769,182.183 455.769,182.183C457.561,182.191 462.027,182.216 466.835,182.232C468.407,182.237 470.015,182.241 471.578,182.241C473.446,182.241 475.25,182.237 476.848,182.229C479.191,182.218 481.091,182.197 482.118,182.19C482.118,182.19 482.118,182.19 482.118,182.19C482.622,182.185 483.083,182.142 483.4,182.065C483.712,181.99 483.924,181.89 483.904,181.779L483.478,180.186C483.466,180.146 483.433,180.106 483.354,180.071C483.277,180.036 483.18,180.003 483.047,179.977C482.915,179.952 482.771,179.93 482.609,179.918C482.45,179.907 482.283,179.899 482.112,179.902L479.672,179.947C479.533,179.947 479.421,179.973 479.422,180.004C479.422,180.035 479.536,180.06 479.674,180.06L482.116,180.1C482.116,180.1 482.357,180.132 482.357,180.132L482.413,180.186L481.999,181.737ZM481.993,181.759C481.984,181.764 481.988,181.771 481.988,181.778L481.993,181.759Z"/>
                </g>
                <g transform="matrix(1.65599e-17,-0.161484,1.53092,5.59741e-17,275.818,292.426)">
                    <path d="M481.694,181.723C480.588,181.716 478.829,181.701 476.722,181.694C475.143,181.688 473.37,181.686 471.536,181.688C465.495,181.696 458.792,181.734 456.127,181.744L455.85,180.185L455.868,180.165L455.979,180.152C455.979,180.152 478.138,180.011 478.138,180.011C478.167,180.011 478.191,180.007 478.191,180.002C478.191,179.997 478.167,179.993 478.138,179.992L455.98,179.849C455.728,179.847 455.482,179.856 455.251,179.872C455.017,179.887 454.808,179.913 454.622,179.943C454.435,179.974 454.297,180.013 454.193,180.053C454.088,180.094 454.041,180.139 454.032,180.185L453.748,181.779C453.741,181.832 453.804,181.884 453.908,181.932C454.013,181.98 454.181,182.024 454.386,182.063C454.593,182.101 454.845,182.13 455.113,182.151C455.383,182.172 455.678,182.182 455.979,182.184C458.538,182.193 465.381,182.232 471.536,182.24C473.37,182.242 475.143,182.24 476.722,182.234C478.97,182.226 480.822,182.21 481.907,182.204C482.223,182.201 482.533,182.192 482.813,182.168C483.091,182.145 483.357,182.116 483.568,182.075C483.776,182.034 483.955,181.989 484.058,181.938C484.16,181.887 484.23,181.834 484.215,181.779C484.215,181.779 484.215,181.779 484.215,181.779C484.142,181.559 484.037,181.178 483.897,180.823C483.799,180.574 483.678,180.341 483.608,180.186C483.608,180.186 483.608,180.186 483.608,180.186C483.59,180.146 483.548,180.107 483.447,180.072C483.348,180.038 483.228,180.005 483.059,179.98C482.894,179.955 482.716,179.934 482.513,179.922C482.315,179.911 482.109,179.904 481.898,179.907C481.898,179.907 479.671,179.947 479.671,179.947C479.497,179.948 479.357,179.973 479.358,180.004C479.359,180.035 479.501,180.06 479.675,180.06L481.904,180.095L482.219,180.13L482.284,180.186C482.213,180.341 482.092,180.574 481.994,180.823C481.866,181.149 481.767,181.497 481.694,181.723Z"/>
                </g>
                <g transform="matrix(2.48707e-17,-0.242527,1.52343,5.57002e-17,281.835,329.296)">
                    <path d="M482.187,181.746C481.19,181.738 479.289,181.715 476.93,181.702C475.319,181.693 473.496,181.687 471.606,181.686C469.492,181.685 467.295,181.694 465.216,181.701C461.014,181.716 457.296,181.738 455.729,181.745L455.598,180.186C455.598,180.186 455.6,180.177 455.6,180.177L455.632,180.169L478.332,180.011C478.351,180.011 478.367,180.007 478.367,180.002C478.367,179.997 478.351,179.992 478.332,179.992L455.633,179.831C455.457,179.829 455.285,179.839 455.124,179.856C454.962,179.873 454.816,179.899 454.687,179.932C454.559,179.965 454.462,180.005 454.392,180.048C454.321,180.091 454.287,180.138 454.283,180.186L454.149,181.779C454.145,181.831 454.187,181.883 454.257,181.931C454.328,181.98 454.439,182.024 454.576,182.062C454.714,182.1 454.88,182.129 455.059,182.15C455.238,182.171 455.433,182.181 455.632,182.182C457.138,182.189 460.925,182.212 465.216,182.227C467.295,182.234 469.492,182.243 471.606,182.242C473.496,182.241 475.319,182.235 476.93,182.226C479.343,182.212 481.277,182.189 482.254,182.181C482.453,182.179 482.648,182.17 482.825,182.148C483.001,182.126 483.167,182.098 483.302,182.059C483.434,182.021 483.546,181.978 483.612,181.929C483.677,181.881 483.72,181.831 483.711,181.779C483.711,181.779 483.395,180.186 483.395,180.186C483.386,180.146 483.358,180.106 483.293,180.07C483.229,180.035 483.148,180.002 483.037,179.976C482.927,179.949 482.806,179.928 482.669,179.915C482.535,179.903 482.394,179.895 482.25,179.897C482.25,179.897 479.672,179.947 479.672,179.947C479.557,179.947 479.463,179.973 479.463,180.004C479.464,180.035 479.558,180.06 479.674,180.06L482.253,180.104L482.448,180.134L482.496,180.186L482.187,181.746Z"/>
                </g>
                <g transform="matrix(-0.0345625,-2.47433e-18,2.45946e-18,0.0215389,562.907,211.284)">
                    <path d="M560.301,95.143C565.478,94.682 570.299,96.361 573.97,99.363C577.824,102.514 580.159,107.187 580.53,112.405C580.701,117.793 578.589,122.789 574.923,126.347C571.226,129.935 565.973,132.01 560.301,131.9C554.781,131.679 549.726,129.454 546.221,125.828C542.787,122.276 540.754,117.517 541.221,112.35C541.686,107.559 543.415,103.751 546.055,100.956C548.942,97.901 552.829,96.054 557.137,95.518C557.273,95.493 557.405,95.579 557.431,95.708C557.457,95.838 557.368,95.964 557.232,95.989C553.319,96.943 549.921,99.015 547.608,102.137C545.624,104.813 544.52,108.27 544.623,112.461C544.695,116.512 546.665,120.044 549.607,122.568C552.432,124.993 556.245,126.376 560.301,126.214C564.241,126.138 567.707,124.453 570.288,121.973C571.853,120.469 573.12,118.678 573.89,116.633C574.391,115.302 574.759,113.895 574.829,112.405C575.112,108.432 573.733,104.755 571.241,101.939C568.548,98.897 564.771,96.763 560.301,96.365C559.947,96.365 559.659,96.091 559.659,95.754C559.659,95.416 559.947,95.143 560.301,95.143Z"/>
                </g>
                <g transform="matrix(-0.0345625,-2.47433e-18,2.45946e-18,0.0215389,567.586,208.719)">
                    <path d="M560.301,95.143C565.478,94.682 570.299,96.361 573.97,99.363C577.824,102.514 580.159,107.187 580.53,112.405C580.701,117.793 578.589,122.789 574.923,126.347C571.226,129.935 565.973,132.01 560.301,131.9C554.781,131.679 549.726,129.454 546.221,125.828C542.787,122.276 540.754,117.517 541.221,112.35C541.686,107.559 543.415,103.751 546.055,100.956C548.942,97.901 552.829,96.054 557.137,95.518C557.273,95.493 557.405,95.579 557.431,95.708C557.457,95.838 557.368,95.964 557.232,95.989C553.319,96.943 549.921,99.015 547.608,102.137C545.624,104.813 544.52,108.27 544.623,112.461C544.695,116.512 546.665,120.044 549.607,122.568C552.432,124.993 556.245,126.376 560.301,126.214C564.241,126.138 567.707,124.453 570.288,121.973C571.853,120.469 573.12,118.678 573.89,116.633C574.391,115.302 574.759,113.895 574.829,112.405C575.112,108.432 573.733,104.755 571.241,101.939C568.548,98.897 564.771,96.763 560.301,96.365C559.947,96.365 559.659,96.091 559.659,95.754C559.659,95.416 559.947,95.143 560.301,95.143Z"/>
                </g>
                <g transform="matrix(-0.0345625,-2.47433e-18,2.45946e-18,0.0215389,572.252,209.88)">
                    <path d="M560.301,95.143C565.478,94.682 570.299,96.361 573.97,99.363C577.824,102.514 580.159,107.187 580.53,112.405C580.701,117.793 578.589,122.789 574.923,126.347C571.226,129.935 565.973,132.01 560.301,131.9C554.781,131.679 549.726,129.454 546.221,125.828C542.787,122.276 540.754,117.517 541.221,112.35C541.686,107.559 543.415,103.751 546.055,100.956C548.942,97.901 552.829,96.054 557.137,95.518C557.273,95.493 557.405,95.579 557.431,95.708C557.457,95.838 557.368,95.964 557.232,95.989C553.319,96.943 549.921,99.015 547.608,102.137C545.624,104.813 544.52,108.27 544.623,112.461C544.695,116.512 546.665,120.044 549.607,122.568C552.432,124.993 556.245,126.376 560.301,126.214C564.241,126.138 567.707,124.453 570.288,121.973C571.853,120.469 573.12,118.678 573.89,116.633C574.391,115.302 574.759,113.895 574.829,112.405C575.112,108.432 573.733,104.755 571.241,101.939C568.548,98.897 564.771,96.763 560.301,96.365C559.947,96.365 559.659,96.091 559.659,95.754C559.659,95.416 559.947,95.143 560.301,95.143Z"/>
                </g>
                <g transform="matrix(-0.0345625,-2.47433e-18,2.45946e-18,0.0215389,576.914,207.591)">
                    <path d="M560.301,95.143C565.478,94.682 570.299,96.361 573.97,99.363C577.824,102.514 580.159,107.187 580.53,112.405C580.701,117.793 578.589,122.789 574.923,126.347C571.226,129.935 565.973,132.01 560.301,131.9C554.781,131.679 549.726,129.454 546.221,125.828C542.787,122.276 540.754,117.517 541.221,112.35C541.686,107.559 543.415,103.751 546.055,100.956C548.942,97.901 552.829,96.054 557.137,95.518C557.273,95.493 557.405,95.579 557.431,95.708C557.457,95.838 557.368,95.964 557.232,95.989C553.319,96.943 549.921,99.015 547.608,102.137C545.624,104.813 544.52,108.27 544.623,112.461C544.695,116.512 546.665,120.044 549.607,122.568C552.432,124.993 556.245,126.376 560.301,126.214C564.241,126.138 567.707,124.453 570.288,121.973C571.853,120.469 573.12,118.678 573.89,116.633C574.391,115.302 574.759,113.895 574.829,112.405C575.112,108.432 573.733,104.755 571.241,101.939C568.548,98.897 564.771,96.763 560.301,96.365C559.947,96.365 559.659,96.091 559.659,95.754C559.659,95.416 559.947,95.143 560.301,95.143Z"/>
                </g>
                <g transform="matrix(0.644182,0.453156,-0.647196,0.326975,265.655,-28.3101)">
                    <path d="M491.402,58.186C491.402,58.186 491.263,57.19 491.068,56.068C490.81,54.595 490.464,52.912 490.464,52.912C490.454,52.848 490.402,52.804 490.347,52.815C490.292,52.826 490.255,52.888 490.264,52.953C490.264,52.953 490.402,54.678 490.566,56.169C490.691,57.305 490.836,58.3 490.836,58.3C490.862,58.484 491.01,58.607 491.166,58.576C491.323,58.544 491.428,58.37 491.402,58.186Z"/>
                </g>
                <g transform="matrix(-0.644182,0.453156,0.647196,0.326975,830.774,-29.2339)">
                    <path d="M490.903,57.784C490.903,57.784 490.953,57.071 491.05,56.266C491.176,55.207 491.373,54 491.373,54C491.378,53.935 491.427,53.886 491.483,53.891C491.538,53.897 491.58,53.955 491.575,54.02C491.575,54.02 491.589,55.248 491.556,56.316C491.531,57.128 491.475,57.84 491.475,57.84C491.461,58.026 491.322,58.164 491.164,58.149C491.006,58.133 490.889,57.97 490.903,57.784Z"/>
                </g>
                <g transform="matrix(-0.644182,0.453156,0.647196,0.326975,835.126,-30.1841)">
                    <path d="M493.82,57.395C493.82,57.395 492.991,57.366 492.053,57.288C490.821,57.185 489.407,57.006 489.407,57.006C489.351,57.004 489.307,56.949 489.309,56.883C489.311,56.817 489.358,56.766 489.414,56.768C489.414,56.768 490.836,56.698 492.072,56.691C493.012,56.685 493.841,56.72 493.841,56.72C494,56.726 494.123,56.882 494.118,57.069C494.112,57.255 493.978,57.401 493.82,57.395Z"/>
                </g>
            </g>
        </g>
    </g>
</svg>
