<?xml version="1.0" encoding="UTF-8" standalone="no"?>
<!DOCTYPE svg PUBLIC "-//W3C//DTD SVG 1.1//EN" "http://www.w3.org/Graphics/SVG/1.1/DTD/svg11.dtd">
<svg width="100%" height="100%" viewBox="0 0 28 33" version="1.1" xmlns="http://www.w3.org/2000/svg" xmlns:xlink="http://www.w3.org/1999/xlink" xml:space="preserve" xmlns:serif="http://www.serif.com/" style="fill-rule:evenodd;clip-rule:evenodd;stroke-linejoin:round;stroke-miterlimit:2;">
    <g transform="matrix(1,0,0,1,-591,-800)">
        <g id="ic_category_entertainment_movies" transform="matrix(0.9622,0,0,0.966128,23.4197,28.2051)">
            <rect x="589.888" y="799.767" width="28.992" height="32.233" style="fill:none;"/>
            <g transform="matrix(1.8391,0,0,1.47082,-220.403,574.402)">
                <g transform="matrix(-0.00797568,0.703723,-1.6317,-0.00343976,543.829,-178.275)">
                    <path d="M491.433,59.998C491.433,59.998 491.43,58.498 491.359,56.798C491.265,54.57 491.065,51.999 491.065,51.999C491.064,51.965 490.984,51.938 490.885,51.938C490.786,51.938 490.706,51.967 490.707,52.001C490.707,52.001 490.532,54.574 490.459,56.802C490.404,58.503 490.417,60.002 490.417,60.002C490.417,60.1 490.645,60.177 490.926,60.176C491.206,60.175 491.433,60.095 491.433,59.998Z"/>
                </g>
                <g transform="matrix(0.397957,0.499636,-0.335194,0.412555,267.463,-103.043)">
                    <path d="M491.433,59.998C491.433,59.998 491.43,58.497 491.359,56.798C491.264,54.563 491.065,51.999 491.065,51.999C491.064,51.881 490.983,51.785 490.885,51.785C490.786,51.786 490.706,51.882 490.707,52.001C490.707,52.001 490.532,54.566 490.459,56.802C490.404,58.502 490.417,60.002 490.417,60.002C490.418,60.339 490.647,60.61 490.928,60.609C491.208,60.608 491.434,60.334 491.433,59.998Z"/>
                </g>
                <g transform="matrix(0.234941,-0.640027,-0.428971,-0.243046,352.074,488.069)">
                    <path d="M490.417,60.002C490.417,60.002 490.404,58.502 490.459,56.802C490.532,54.566 490.707,52.001 490.707,52.001C490.706,51.882 490.786,51.786 490.885,51.785C490.983,51.785 491.064,51.881 491.065,51.999C491.065,51.999 491.264,54.563 491.359,56.798C491.43,58.497 491.433,59.998 491.433,59.998C491.434,60.334 491.208,60.608 490.928,60.609C490.647,60.61 490.418,60.339 490.417,60.002Z"/>
                </g>
                <g transform="matrix(0.397957,0.499636,-0.335194,0.412555,270.617,-103.138)">
                    <path d="M491.433,59.998C491.433,59.998 491.43,58.497 491.359,56.798C491.264,54.563 491.065,51.999 491.065,51.999C491.064,51.881 490.983,51.785 490.885,51.785C490.786,51.786 490.706,51.882 490.707,52.001C490.707,52.001 490.532,54.566 490.459,56.802C490.404,58.502 490.417,60.002 490.417,60.002C490.418,60.339 490.647,60.61 490.928,60.609C491.208,60.608 491.434,60.334 491.433,59.998Z"/>
                </g>
                <g transform="matrix(0.234585,-0.639056,-0.42832,-0.242677,354.938,486.155)">
                    <path d="M490.416,60.002C490.416,60.002 490.404,58.502 490.459,56.802C490.531,54.566 490.706,52.001 490.706,52.001C490.706,51.882 490.786,51.785 490.885,51.785C490.983,51.784 491.064,51.88 491.065,51.999C491.065,51.999 491.265,54.563 491.359,56.798C491.431,58.497 491.433,59.998 491.433,59.998C491.435,60.334 491.208,60.609 490.928,60.61C490.647,60.611 490.418,60.339 490.416,60.002Z"/>
                </g>
                <g transform="matrix(0.398004,0.499578,-0.325704,0.400737,273.086,-102.4)">
                    <path d="M491.433,59.998C491.433,59.998 491.43,58.497 491.359,56.798C491.264,54.562 491.065,51.999 491.065,51.999C491.064,51.877 490.983,51.779 490.884,51.779C490.786,51.779 490.706,51.879 490.707,52.001C490.707,52.001 490.532,54.566 490.459,56.802C490.404,58.502 490.417,60.002 490.417,60.002C490.418,60.348 490.647,60.628 490.928,60.627C491.208,60.625 491.434,60.343 491.433,59.998Z"/>
                </g>
                <g transform="matrix(0.230155,-0.626796,-0.408193,-0.231168,358.867,478.18)">
                    <path d="M490.406,60.003C490.406,60.003 490.394,58.502 490.45,56.802C490.524,54.566 490.703,52.001 490.703,52.001C490.702,51.876 490.784,51.775 490.884,51.774C490.985,51.774 491.068,51.875 491.068,51.999C491.068,51.999 491.272,54.562 491.368,56.798C491.441,58.497 491.443,59.997 491.443,59.997C491.445,60.351 491.214,60.639 490.928,60.64C490.642,60.641 490.408,60.356 490.406,60.003Z"/>
                </g>
                <g transform="matrix(0.398068,0.499497,-0.312431,0.384208,275.24,-101.454)">
                    <path d="M491.433,59.998C491.433,59.998 491.43,58.497 491.359,56.798C491.264,54.562 491.065,51.999 491.065,51.999C491.064,51.872 490.983,51.769 490.884,51.77C490.786,51.77 490.706,51.874 490.707,52.001C490.707,52.001 490.532,54.565 490.459,56.802C490.404,58.502 490.417,60.002 490.417,60.002C490.419,60.363 490.648,60.655 490.928,60.654C491.208,60.652 491.434,60.358 491.433,59.998Z"/>
                </g>
                <g transform="matrix(0.228151,-0.62107,-0.387957,-0.219558,361.48,473.481)">
                    <path d="M490.401,60.003C490.401,60.003 490.389,58.502 490.446,56.802C490.521,54.565 490.701,52.001 490.701,52.001C490.7,51.87 490.783,51.763 490.884,51.763C490.986,51.762 491.069,51.868 491.07,51.999C491.07,51.999 491.275,54.561 491.372,56.798C491.446,58.497 491.448,59.997 491.448,59.997C491.45,60.369 491.217,60.672 490.928,60.673C490.639,60.675 490.403,60.374 490.401,60.003Z"/>
                </g>
                <g transform="matrix(0.463054,0,0,0.774815,188.62,2.42212)">
                    <path d="M575.924,208.702C575.893,209.891 575.816,212.41 575.772,214.94C575.746,216.478 575.741,218.019 575.729,219.267C575.729,219.508 575.664,219.745 575.543,219.963C575.422,220.182 575.244,220.384 575.015,220.555C574.786,220.726 574.517,220.862 574.224,220.953C573.929,221.045 573.612,221.097 573.286,221.098C573.286,221.098 573.286,221.098 573.286,221.098C569.768,221.134 564.243,221.173 559.078,221.241C555.478,221.289 552.056,221.357 549.606,221.398C549.224,221.405 548.848,221.361 548.499,221.261C548.145,221.16 547.814,221.012 547.534,220.813C547.251,220.613 547.021,220.377 546.866,220.116C546.708,219.852 546.614,219.566 546.604,219.272C546.604,219.272 546.187,208 546.187,208C546.187,207.902 546.08,207.822 545.948,207.822C545.816,207.822 545.708,207.902 545.708,208L545.285,219.271C545.27,219.7 545.377,220.12 545.58,220.513C545.784,220.908 546.098,221.271 546.498,221.584C546.902,221.9 547.385,222.145 547.91,222.318C548.439,222.493 549.016,222.585 549.606,222.596C552.056,222.636 555.478,222.704 559.078,222.751C564.243,222.819 569.768,222.858 573.286,222.893C573.933,222.895 574.567,222.8 575.154,222.622C575.742,222.442 576.281,222.176 576.74,221.836C577.198,221.495 577.556,221.093 577.798,220.656C578.04,220.218 578.167,219.746 578.165,219.263C578.146,218.015 578.133,216.474 578.098,214.937C578.037,212.21 577.936,209.497 577.904,208.447C577.904,208.447 577.904,208.447 577.904,208.447C577.892,208.12 577.722,207.822 577.426,207.614C577.133,207.407 576.742,207.27 576.306,207.278C574.69,207.313 570.082,207.397 565.048,207.518C557.123,207.707 548.161,207.966 548.161,207.966C548.136,207.966 548.116,207.981 548.116,208C548.116,208.019 548.136,208.034 548.161,208.034C548.161,208.034 557.123,208.289 565.048,208.475C569.731,208.585 574.044,208.665 575.924,208.702Z"/>
                </g>
                <g transform="matrix(0.480572,-0.220744,0.177261,0.598459,119.384,150.554)">
                    <path d="M609.893,234.949C608.046,234.995 604.07,235.081 599.762,235.24C592.246,235.516 583.744,235.959 583.744,235.959C583.721,235.959 583.703,235.977 583.703,236C583.703,236.023 583.721,236.041 583.744,236.041C583.744,236.041 592.246,236.484 599.762,236.76C604.563,236.937 608.952,237.023 610.441,237.066C610.654,237.069 610.861,237.024 611.056,236.947C611.25,236.87 611.426,236.75 611.579,236.601C611.733,236.453 611.848,236.273 611.931,236.081C612.015,235.888 612.054,235.677 612.057,235.463C612.057,235.463 612.078,233.316 612.078,233.316C612.079,232.729 611.963,232.154 611.743,231.622C611.522,231.091 611.197,230.602 610.781,230.188C610.364,229.777 609.875,229.454 609.342,229.239C608.81,229.025 608.237,228.912 607.652,228.919C605.437,228.963 602.346,229.003 599.098,229.088C594.43,229.211 589.446,229.403 586.267,229.506C585.222,229.546 584.285,229.987 583.626,230.698C582.984,231.391 582.593,232.322 582.632,233.34C582.632,233.34 582.734,236 582.734,236C582.734,236.119 582.831,236.216 582.95,236.216C583.07,236.216 583.167,236.119 583.167,236L583.268,233.34C583.299,232.525 583.662,231.803 584.217,231.288C584.753,230.79 585.479,230.504 586.268,230.532C589.447,230.629 594.431,230.81 599.1,230.921C602.348,230.999 605.439,231.033 607.654,231.072C607.951,231.075 608.24,231.142 608.509,231.255C608.775,231.368 609.019,231.535 609.226,231.745C609.434,231.954 609.596,232.2 609.706,232.467C609.817,232.734 609.877,233.022 609.877,233.316L609.893,234.949Z"/>
                </g>
                <g transform="matrix(2.40655e-17,0.489429,-0.393019,2.99689e-17,547.052,-121.568)">
                    <path d="M601.69,252.794L601.697,252.769L601.695,252.725C601.688,252.625 601.656,252.527 601.601,252.442C601.601,252.442 601.029,251.627 600.282,250.598C598.97,248.791 597.141,246.336 597.141,246.336C597.099,246.27 597.012,246.251 596.946,246.293C596.881,246.335 596.861,246.422 596.903,246.488C596.903,246.488 598.367,249.177 599.458,251.125C599.662,251.49 599.853,251.828 600.018,252.117C599.848,252.111 599.662,252.104 599.463,252.099C598.754,252.078 597.888,252.051 597.022,252.051C596.316,252.05 595.609,252.066 594.988,252.087C594.599,252.1 594.243,252.116 593.942,252.131C594.166,251.699 594.447,251.154 594.739,250.577C595.626,248.825 596.61,246.799 596.61,246.799C596.618,246.786 596.614,246.77 596.601,246.762C596.589,246.755 596.572,246.759 596.565,246.771C596.565,246.771 595.221,248.579 594.076,250.174C593.204,251.388 592.459,252.468 592.459,252.468C592.35,252.647 592.347,252.871 592.449,253.053C592.552,253.235 592.745,253.348 592.954,253.348C592.954,253.348 593.819,253.41 594.988,253.45C595.609,253.471 596.316,253.488 597.022,253.487C597.888,253.486 598.754,253.46 599.463,253.439C600.14,253.419 600.673,253.392 600.927,253.382C601.484,253.36 601.656,252.907 601.69,252.794Z"/>
                </g>
            </g>
        </g>
    </g>
</svg>
