<?xml version="1.0" encoding="UTF-8" standalone="no"?>
<!DOCTYPE svg PUBLIC "-//W3C//DTD SVG 1.1//EN" "http://www.w3.org/Graphics/SVG/1.1/DTD/svg11.dtd">
<svg width="100%" height="100%" viewBox="0 0 31 28" version="1.1" xmlns="http://www.w3.org/2000/svg" xmlns:xlink="http://www.w3.org/1999/xlink" xml:space="preserve" xmlns:serif="http://www.serif.com/" style="fill-rule:evenodd;clip-rule:evenodd;stroke-linejoin:round;stroke-miterlimit:2;">
    <g transform="matrix(1,0,0,1,-870,-451)">
        <g id="ic_categories_bucket_list_education" transform="matrix(0.981968,0,0,1.00427,15.6595,-1.97455)">
            <rect x="870.824" y="451.584" width="30.496" height="26.423" style="fill:none;"/>
            <clipPath id="_clip1">
                <rect x="870.824" y="451.584" width="30.496" height="26.423"/>
            </clipPath>
            <g clip-path="url(#_clip1)">
                <g transform="matrix(-0.0344631,-0.17868,-0.188409,0.0347433,930.93,595.561)">
                    <path d="M694.605,44.033C694.605,48.43 691.108,52 686.801,52C682.494,52 678.997,48.43 678.997,44.033C678.997,39.636 682.494,36.066 686.801,36.066C691.108,36.066 695.49,39.981 695.49,44.378"/>
                </g>
                <g transform="matrix(1.01836,0,0,0.995748,-15.947,1.96615)">
                    <g transform="matrix(-0.0338417,-0.179443,-0.185011,0.0348917,929.803,596.13)">
                        <path d="M699.472,48.021C697.768,53.439 692.687,57.311 686.801,57.311C679.551,57.311 673.521,51.435 673.521,44.033C673.521,36.631 679.551,30.754 686.801,30.754C693.841,30.754 700.966,37.191 700.966,44.378C700.966,45.788 700.399,47.071 699.472,48.021ZM689.326,42.62C689.197,43.07 689.128,43.544 689.128,44.033C689.128,45.428 688.167,46.689 686.801,46.689C685.435,46.689 684.473,45.428 684.473,44.033C684.473,42.638 685.435,41.377 686.801,41.377C687.741,41.377 688.705,41.875 689.326,42.62Z" style="fill:none;"/>
                    </g>
                    <g transform="matrix(-1.59028,0,0,0.753014,1937.9,352.382)">
                        <path d="M652.937,139.972L661.495,146.686C662.071,146.18 663.849,144.585 665.707,143.029C667.101,141.862 668.543,140.729 669.531,139.943C668.754,139.224 667.697,138.251 666.608,137.217C664.119,134.855 661.461,132.242 661.461,132.242C661.397,132.189 661.367,132.037 661.392,131.903C661.417,131.77 661.489,131.705 661.552,131.758C661.552,131.758 664.331,133.733 666.905,135.643C668.315,136.689 669.656,137.729 670.455,138.335C670.618,138.462 670.75,138.702 670.847,138.988C670.945,139.276 670.994,139.63 670.999,140C671.004,140.372 670.946,140.723 670.856,141.024C670.764,141.326 670.625,141.557 670.463,141.706C669.527,142.531 667.834,144.077 666.173,145.489C664.221,147.149 662.32,148.647 661.839,149.041C661.839,149.041 661.839,149.041 661.839,149.041C661.731,149.126 661.619,149.175 661.506,149.171C661.394,149.166 661.281,149.126 661.176,149.032L652.627,141.301C652.503,141.188 652.397,141.01 652.328,140.78C652.259,140.551 652.216,140.283 652.22,140C652.223,139.719 652.262,139.451 652.336,139.233C652.41,139.016 652.511,138.836 652.635,138.741C652.635,138.741 660.997,132.32 660.997,132.32C661.021,132.299 661.05,132.325 661.059,132.377C661.069,132.429 661.057,132.489 661.033,132.51L652.937,139.972Z"/>
                    </g>
                    <g transform="matrix(0.886406,0,0,0.695374,299.862,364.176)">
                        <path d="M649.724,147.329L649.176,139.246C649.176,139.091 649.076,138.964 648.954,138.964C648.832,138.964 648.733,139.091 648.733,139.246L648.168,147.577C648.151,147.887 648.228,148.183 648.333,148.454C648.44,148.729 648.623,148.942 648.831,149.117C648.839,149.123 648.847,149.128 648.855,149.134C649.373,149.529 650.555,150.396 652.272,151.246C652.985,151.598 653.791,151.939 654.676,152.239C655.446,152.5 656.275,152.73 657.156,152.893C658.339,153.112 659.612,153.219 660.951,153.184C662.913,153.132 665.014,152.778 667.183,151.966C669.054,151.265 670.967,150.226 672.891,148.758C673.053,148.633 673.193,148.471 673.28,148.265C673.367,148.063 673.425,147.838 673.419,147.6C673.419,147.597 673.419,147.595 673.419,147.593L673.041,139.212C673.041,139.151 673.002,139.101 672.954,139.102C672.906,139.102 672.867,139.152 672.868,139.213L672.499,147.579C672.499,147.572 672.429,147.647 672.429,147.647C672.429,147.647 672.429,147.647 672.429,147.648C670.502,148.795 668.615,149.518 666.8,149.974C664.745,150.49 662.79,150.608 660.972,150.513C659.742,150.448 658.58,150.269 657.494,150.05C656.684,149.887 655.916,149.705 655.2,149.503C654.371,149.268 653.611,149.017 652.931,148.765C651.397,148.197 650.275,147.64 649.724,147.329ZM649.731,147.432L649.741,147.579C649.738,147.528 649.749,147.474 649.731,147.432Z"/>
                    </g>
                    <g transform="matrix(1,0,0,1,225.457,321.768)">
                        <path d="M672.277,137.684C672.277,137.684 672.27,141.118 672.355,145.011C672.466,150.115 672.716,156 672.716,156C672.716,156.132 672.823,156.239 672.954,156.239C673.086,156.239 673.193,156.132 673.193,156C673.193,156 673.443,150.115 673.554,145.011C673.638,141.118 673.632,137.684 673.632,137.684C673.632,137.31 673.328,137.007 672.954,137.007C672.581,137.007 672.277,137.31 672.277,137.684Z"/>
                    </g>
                </g>
            </g>
        </g>
    </g>
</svg>
