<?xml version="1.0" encoding="UTF-8" standalone="no"?>
<!DOCTYPE svg PUBLIC "-//W3C//DTD SVG 1.1//EN" "http://www.w3.org/Graphics/SVG/1.1/DTD/svg11.dtd">
<svg width="100%" height="100%" viewBox="0 0 31 22" version="1.1" xmlns="http://www.w3.org/2000/svg" xmlns:xlink="http://www.w3.org/1999/xlink" xml:space="preserve" xmlns:serif="http://www.serif.com/" style="fill-rule:evenodd;clip-rule:evenodd;stroke-linejoin:round;stroke-miterlimit:2;">
    <g transform="matrix(1,0,0,1,-643,-1233)">
        <g id="ic_category_household_clothing" transform="matrix(1.00069,0,0,1.00166,-0.457521,-12.04)">
            <rect x="644" y="1243.33" width="29.663" height="20.674" style="fill:none;"/>
            <g transform="matrix(0.999311,0,0,0.99834,-65.9169,1045.12)">
                <path d="M736.296,216.747C735.347,216.735 734.253,216.724 733.062,216.72C731.425,216.715 729.604,216.718 727.725,216.743C725.057,216.777 722.271,216.845 719.718,216.915C716.806,216.994 714.202,217.092 712.421,217.154C714.81,215.344 717.152,213.501 719.372,211.533C720.988,210.1 722.53,208.608 723.987,207.03C724.005,207.012 724.005,206.983 723.987,206.965C723.969,206.947 723.94,206.946 723.922,206.964C722.336,208.395 720.668,209.726 718.944,211.005C716.385,212.903 713.713,214.668 710.988,216.387C710.752,216.538 710.593,216.767 710.497,217.015C710.399,217.266 710.398,217.547 710.472,217.82C710.547,218.095 710.721,218.32 710.934,218.489C711.148,218.66 711.422,218.746 711.71,218.758C711.71,218.758 711.71,218.758 711.711,218.758C713.465,218.815 716.391,218.931 719.718,219.021C722.271,219.091 725.057,219.159 727.725,219.194C729.604,219.218 731.425,219.221 733.062,219.216C735.281,219.209 737.163,219.174 738.4,219.162C738.4,219.162 738.4,219.162 738.4,219.162C738.769,219.157 739.117,219.043 739.398,218.832C739.677,218.621 739.9,218.33 740.006,217.979C740.112,217.628 740.109,217.263 739.994,216.934C739.879,216.605 739.67,216.307 739.369,216.1C736.526,214.176 733.72,212.209 731.012,210.112C729.215,208.72 727.458,207.28 725.782,205.73C725.782,205.73 725.683,205.552 725.683,205.552L725.68,205.446C725.685,205.411 725.688,205.375 725.688,205.339C725.686,205.282 725.691,205.224 725.723,205.181C725.757,205.135 725.799,205.09 725.856,205.073C726.614,204.88 727.254,204.487 727.69,203.923C728.11,203.38 728.363,202.692 728.337,201.881C728.305,200.943 727.933,200.097 727.321,199.495C726.714,198.899 725.89,198.525 724.96,198.544C724.015,198.564 723.243,199.052 722.736,199.794C722.285,200.454 722.039,201.305 722.072,202.146C722.072,202.281 722.183,202.39 722.318,202.39C722.453,202.39 722.563,202.279 722.562,202.144C722.586,201.427 722.84,200.716 723.264,200.182C723.674,199.665 724.255,199.329 724.948,199.364C725.622,199.398 726.201,199.707 726.609,200.17C727.006,200.619 727.223,201.226 727.2,201.881C727.184,202.386 727.009,202.807 726.727,203.128C726.44,203.455 726.029,203.656 725.561,203.745C725.559,203.745 725.557,203.746 725.555,203.746C725.179,203.82 724.862,204.032 724.628,204.308C724.392,204.585 724.262,204.943 724.247,205.327C724.247,205.32 724.228,205.548 724.228,205.548C724.22,205.78 724.268,206.008 724.35,206.222C724.432,206.438 724.564,206.632 724.726,206.802C724.727,206.802 724.727,206.803 724.727,206.803C726.751,208.907 728.896,210.863 731.135,212.717C732.815,214.109 734.546,215.439 736.296,216.747ZM711.856,217.582L711.834,217.598L711.856,217.582Z"/>
            </g>
        </g>
    </g>
</svg>
