<?xml version="1.0" encoding="UTF-8" standalone="no"?>
<!DOCTYPE svg PUBLIC "-//W3C//DTD SVG 1.1//EN" "http://www.w3.org/Graphics/SVG/1.1/DTD/svg11.dtd">
<svg width="100%" height="100%" viewBox="0 0 32 30" version="1.1" xmlns="http://www.w3.org/2000/svg" xmlns:xlink="http://www.w3.org/1999/xlink" xml:space="preserve" xmlns:serif="http://www.serif.com/" style="fill-rule:evenodd;clip-rule:evenodd;stroke-linejoin:round;stroke-miterlimit:2;">
    <g transform="matrix(1,0,0,1,-692,-1958)">
        <g id="merch" transform="matrix(1.00109,0,0,0.86136,-0.780695,276.173)">
            <rect x="692.796" y="1952.81" width="31.195" height="34.022" style="fill:none;"/>
            <g id="merch1" serif:id="merch" transform="matrix(1.76764,0,0,3.46137,-210.171,1404.83)">
                <g>
                    <g transform="matrix(0.590526,0,0,0.35049,53.7671,11.8248)">
                        <path d="M781.775,442.833L781.549,426.263C781.548,425.953 781.349,425.679 781.055,425.581C780.761,425.484 780.437,425.586 780.252,425.834L778.455,428.312C778.455,428.312 778.338,428.391 778.338,428.391L778.193,428.362L775.319,426.234C775.268,426.196 775.231,426.146 775.22,426.088C775.209,426.028 775.214,425.963 775.249,425.908C775.25,425.907 775.251,425.906 775.251,425.905C776.004,424.716 777.701,422.211 779.681,420.511C780.856,419.503 782.119,418.76 783.342,418.848C784.097,422.046 786.379,423.644 788.693,423.774C791.192,423.914 793.748,422.342 794.392,419.173C794.414,419.072 794.35,418.972 794.249,418.949C794.148,418.927 794.047,418.991 794.025,419.093C793.353,421.964 791.01,423.368 788.736,423.173C786.629,422.992 784.605,421.421 784.093,418.398C784.061,418.229 783.93,418.097 783.762,418.065C782.237,417.753 780.578,418.538 779.06,419.765C776.939,421.479 775.084,424.039 774.261,425.258C774.048,425.568 773.981,425.94 774.035,426.29C774.09,426.643 774.28,426.972 774.582,427.208C774.575,427.202 777.397,429.414 777.397,429.414C777.557,429.539 777.739,429.625 777.931,429.677C778.123,429.73 778.325,429.741 778.527,429.715C778.729,429.689 778.92,429.62 779.093,429.521C779.266,429.421 779.418,429.285 779.542,429.123C779.542,429.123 780.085,428.415 780.085,428.415C780.085,428.415 779.926,442.867 779.926,442.867C779.921,443.373 780.129,443.831 780.459,444.166C780.789,444.503 781.25,444.707 781.759,444.712C782.52,444.706 783.687,444.712 784.975,444.689C788.321,444.631 792.48,444.481 792.48,444.481C792.871,444.481 793.189,444.164 793.189,443.773C793.189,443.381 792.871,443.064 792.48,443.064C792.48,443.064 788.321,442.914 784.975,442.856C783.696,442.834 782.537,442.839 781.775,442.833Z"/>
                    </g>
                    <g transform="matrix(0.590526,0,0,0.35049,53.7671,11.8248)">
                        <path d="M797.713,430.926L797.661,427.669L798.886,429.108C799.096,429.354 799.38,429.501 799.678,429.53C799.974,429.559 800.282,429.484 800.532,429.285L803.453,426.962C803.684,426.778 803.826,426.521 803.861,426.248C803.895,425.979 803.833,425.695 803.657,425.462C802.664,424.13 800.17,420.933 797.73,419.236C796.496,418.377 795.275,417.9 794.267,418.231C794.248,418.237 794.237,418.257 794.243,418.275C794.249,418.294 794.269,418.304 794.287,418.299C795.543,417.947 797.069,418.872 798.521,420.203C800.518,422.035 802.366,424.638 803.165,425.815C803.166,425.815 803.166,425.816 803.167,425.816C803.238,425.919 803.257,426.041 803.237,426.156C803.218,426.267 803.154,426.368 803.055,426.439L800.036,428.633C799.959,428.689 799.866,428.703 799.778,428.691C799.694,428.679 799.618,428.63 799.561,428.558C799.561,428.558 797.524,425.944 797.524,425.944C797.389,425.778 797.164,425.714 796.962,425.786C796.76,425.857 796.624,426.047 796.623,426.261L796.495,430.919C796.493,431.255 796.764,431.53 797.101,431.531C797.437,431.533 797.711,431.262 797.713,430.926Z"/>
                    </g>
                    <g transform="matrix(-0.211191,0.123113,-0.216487,-0.130821,662.4,101.481)">
                        <path d="M564.185,96.292C566.569,94.847 569.063,94.685 571.284,95.319C572.047,95.537 572.769,95.857 573.448,96.248C574.123,96.636 574.738,97.112 575.304,97.637C575.867,98.16 576.374,98.737 576.802,99.367C577.232,100.001 577.602,100.669 577.854,101.392C578.154,102.256 578.324,103.165 578.303,104.126C578.273,105.471 577.931,106.873 577.126,108.313C577.115,108.329 577.119,108.35 577.135,108.36C577.151,108.37 577.173,108.366 577.184,108.351C578.335,107.018 579.008,105.629 579.305,104.233C579.536,103.143 579.513,102.067 579.313,101.032C579.139,100.132 578.813,99.271 578.36,98.476C577.904,97.677 577.312,96.948 576.625,96.32C575.939,95.693 575.15,95.169 574.303,94.76C573.461,94.354 572.562,94.055 571.628,93.904C569.087,93.493 566.34,94.044 563.962,96.004C563.879,96.063 563.862,96.175 563.923,96.255C563.985,96.334 564.102,96.351 564.185,96.292Z"/>
                    </g>
                </g>
                <g>
                    <g transform="matrix(-0.307682,2.2364e-17,3.76902e-17,0.182664,670.455,139.416)">
                        <path d="M481.224,137.956L481.225,137.977C481.225,138.126 481.103,138.247 480.954,138.247C480.954,138.247 480.698,138.189 480.68,137.911C480.673,137.804 480.658,137.578 480.641,137.317C480.624,137.048 480.488,136.819 480.3,136.654C480.125,136.5 479.888,136.43 479.637,136.446C479.637,136.446 479.637,136.446 479.637,136.446C477.671,136.556 473.873,136.789 470.626,136.949C469.142,137.022 467.78,137.071 466.764,137.114C466.564,137.121 466.395,137.227 466.263,137.359C466.139,137.483 466.085,137.662 466.078,137.85C466.078,137.85 466.078,137.85 466.078,137.85C465.985,139.818 465.877,143.155 465.67,146.438C465.461,149.76 465.158,153.023 465.016,154.774L481.294,155.27L481.449,155.228L481.533,155.066L480.904,138.863C480.901,138.835 480.922,138.811 480.95,138.809C480.978,138.807 481.003,138.827 481.005,138.855L482.882,154.961C482.907,155.183 482.876,155.403 482.812,155.612C482.747,155.823 482.63,156.014 482.483,156.185C482.335,156.356 482.149,156.485 481.948,156.581C481.746,156.677 481.523,156.722 481.294,156.73L464.732,157.235C464.42,157.243 464.117,157.173 463.834,157.059C463.55,156.944 463.297,156.761 463.078,156.537C462.858,156.313 462.7,156.042 462.589,155.755C462.478,155.466 462.439,155.154 462.452,154.838C462.545,153.155 462.681,149.73 462.927,146.255C463.159,142.973 463.497,139.652 463.667,137.689C463.748,136.881 464.106,136.162 464.676,135.663C465.237,135.173 465.966,134.86 466.764,134.886C466.764,134.886 466.764,134.886 466.764,134.886C467.78,134.929 469.142,134.978 470.626,135.051C473.873,135.211 477.671,135.444 479.637,135.554C480.115,135.585 480.543,135.784 480.837,136.118C481.119,136.438 481.297,136.857 481.267,137.317L481.229,137.911L481.224,137.956Z"/>
                    </g>
                    <g transform="matrix(-0.153695,-0.0827408,-0.142804,0.0934441,627.385,201.597)">
                        <path d="M563.986,96.592C565.814,94.216 568.247,92.959 570.758,92.512C572.001,92.29 573.246,92.346 574.45,92.566C576.278,92.901 577.976,93.732 579.308,94.939C580.039,95.602 580.658,96.396 581.097,97.29C581.71,98.541 582.074,99.951 581.99,101.489C581.922,102.737 581.665,104.04 581.007,105.389C580.28,106.88 579.21,108.343 577.617,109.868C577.593,109.901 577.546,109.909 577.512,109.886C577.477,109.863 577.469,109.817 577.493,109.783C578.758,107.148 579.076,104.926 578.962,102.95C578.886,101.626 578.442,100.539 577.88,99.555C577.502,98.893 577.018,98.325 576.48,97.808C575.778,97.134 574.994,96.541 574.08,96.139C573.132,95.722 572.131,95.407 571.056,95.327C568.892,95.166 566.621,95.615 564.554,97.144C564.398,97.297 564.144,97.297 563.987,97.145C563.831,96.993 563.83,96.745 563.986,96.592Z"/>
                    </g>
                </g>
            </g>
        </g>
    </g>
</svg>
