<?xml version="1.0" encoding="UTF-8" standalone="no"?>
<!DOCTYPE svg PUBLIC "-//W3C//DTD SVG 1.1//EN" "http://www.w3.org/Graphics/SVG/1.1/DTD/svg11.dtd">
<svg width="100%" height="100%" viewBox="0 0 31 28" version="1.1" xmlns="http://www.w3.org/2000/svg" xmlns:xlink="http://www.w3.org/1999/xlink" xml:space="preserve" xmlns:serif="http://www.serif.com/" style="fill-rule:evenodd;clip-rule:evenodd;stroke-linejoin:round;stroke-miterlimit:2;">
    <g transform="matrix(1,0,0,1,-830,-1279)">
        <g id="ic_category_utilities_internet" transform="matrix(0.973475,0,0,1.00073,22.4254,-5.74073)">
            <rect x="830.081" y="1284.2" width="30.477" height="27.474" style="fill:none;"/>
            <g transform="matrix(1.81779,0,0,2.97933,-18.8791,962.829)">
                <g transform="matrix(0.577232,0,0,0.342599,121.358,87.228)">
                    <ellipse cx="621.368" cy="81.007" rx="0.649" ry="0.642"/>
                </g>
                <g transform="matrix(0.577232,0,0,0.342599,121.358,87.228)">
                    <path d="M620.823,81.356C620.757,81.256 620.719,81.136 620.719,81.007C620.719,80.653 621.01,80.365 621.368,80.365C621.727,80.365 622.017,80.653 622.017,81.007C622.017,81.362 621.727,81.65 621.368,81.65L621.368,81.006L621.348,80.997C621.298,80.97 621.308,80.851 621.368,80.832L621.368,81.006C621.422,81.03 621.515,81.055 621.5,81.007C621.472,80.911 621.635,80.78 621.546,80.748C621.468,80.72 621.455,80.556 621.368,80.58C621.231,80.614 621.063,80.504 620.988,80.611C620.9,80.74 620.731,80.842 620.754,81.007C620.763,81.13 620.775,81.255 620.823,81.356Z"/>
                </g>
                <g transform="matrix(0.577232,0,0,0.342599,120.098,87.228)">
                    <ellipse cx="621.368" cy="81.007" rx="0.649" ry="0.642"/>
                </g>
                <g transform="matrix(0.577232,0,0,0.342599,120.098,87.228)">
                    <path d="M620.823,81.356C620.757,81.256 620.719,81.136 620.719,81.007C620.719,80.653 621.01,80.365 621.368,80.365C621.727,80.365 622.017,80.653 622.017,81.007C622.017,81.362 621.727,81.65 621.368,81.65L621.368,81.006L621.348,80.997C621.298,80.97 621.308,80.851 621.368,80.832L621.368,81.006C621.422,81.03 621.515,81.055 621.5,81.007C621.472,80.911 621.635,80.78 621.546,80.748C621.468,80.72 621.455,80.556 621.368,80.58C621.231,80.614 621.063,80.504 620.988,80.611C620.9,80.74 620.731,80.842 620.754,81.007C620.763,81.13 620.775,81.255 620.823,81.356Z"/>
                </g>
                <g transform="matrix(0.577232,0,0,0.342599,118.658,87.228)">
                    <ellipse cx="621.368" cy="81.007" rx="0.649" ry="0.642"/>
                </g>
                <g transform="matrix(0.577232,0,0,0.342599,118.658,87.228)">
                    <path d="M620.823,81.356C620.757,81.256 620.719,81.136 620.719,81.007C620.719,80.653 621.01,80.365 621.368,80.365C621.727,80.365 622.017,80.653 622.017,81.007C622.017,81.362 621.727,81.65 621.368,81.65L621.368,81.006L621.348,80.997C621.298,80.97 621.308,80.851 621.368,80.832L621.368,81.006C621.422,81.03 621.515,81.055 621.5,81.007C621.472,80.911 621.635,80.78 621.546,80.748C621.468,80.72 621.455,80.556 621.368,80.58C621.231,80.614 621.063,80.504 620.988,80.611C620.9,80.74 620.731,80.842 620.754,81.007C620.763,81.13 620.775,81.255 620.823,81.356Z"/>
                </g>
                <g transform="matrix(0.482821,-2.44237e-18,4.11504e-18,-0.306508,202.108,166.657)">
                    <path d="M577.322,185.865C576.089,187.595 574.483,189.045 572.564,190.101C571.593,190.636 570.546,191.049 569.44,191.341C568.358,191.628 567.219,191.761 566.05,191.797C565.118,191.776 564.203,191.699 563.323,191.512C561.971,191.223 560.696,190.751 559.532,190.111C557.611,189.054 556.01,187.598 554.779,185.865C554.699,185.773 554.713,185.638 554.812,185.563C554.91,185.488 555.055,185.502 555.135,185.594C556.59,186.966 558.343,187.979 560.273,188.675C561.371,189.07 562.521,189.326 563.717,189.477C564.479,189.573 565.256,189.633 566.05,189.615C567.049,189.646 568.022,189.563 568.968,189.408C569.958,189.246 570.913,189.015 571.832,188.684C573.763,187.989 575.513,186.968 576.966,185.594C577.046,185.502 577.191,185.488 577.289,185.563C577.387,185.638 577.402,185.773 577.322,185.865Z"/>
                </g>
                <g transform="matrix(0.375995,-1.90198e-18,3.20457e-18,-0.238692,262.577,154.942)">
                    <path d="M577.373,185.904C576.171,187.692 574.59,189.188 572.668,190.302C571.691,190.869 570.631,191.302 569.507,191.616C568.407,191.923 567.244,192.059 566.05,192.107C565.098,192.08 564.163,192.003 563.267,191.801C561.89,191.489 560.599,190.994 559.426,190.314C557.502,189.199 555.926,187.696 554.728,185.904C554.625,185.786 554.644,185.612 554.771,185.516C554.897,185.42 555.083,185.438 555.185,185.556C556.674,186.883 558.44,187.82 560.379,188.471C561.466,188.836 562.596,189.053 563.773,189.188C564.518,189.272 565.276,189.327 566.05,189.305C567.025,189.344 567.974,189.272 568.901,189.134C569.876,188.988 570.817,188.789 571.728,188.483C573.667,187.833 575.431,186.886 576.915,185.556C577.018,185.438 577.204,185.42 577.33,185.516C577.456,185.612 577.475,185.786 577.373,185.904Z"/>
                </g>
                <g transform="matrix(0.246946,-1.24919e-18,2.1047e-18,-0.156768,335.625,140.507)">
                    <path d="M577.492,185.995C576.368,187.928 574.846,189.516 572.914,190.778C571.923,191.425 570.834,191.897 569.666,192.265C568.522,192.624 567.302,192.763 566.05,192.84C565.303,192.818 564.563,192.789 563.851,192.645C562.145,192.302 560.565,191.696 559.178,190.796C557.238,189.538 555.728,187.935 554.609,185.995C554.452,185.815 554.481,185.551 554.673,185.404C554.865,185.258 555.148,185.285 555.305,185.464C556.874,186.694 558.664,187.44 560.627,187.989C561.69,188.286 562.772,188.408 563.906,188.505C564.609,188.565 565.321,188.604 566.05,188.572C566.97,188.629 567.863,188.588 568.742,188.485C569.685,188.374 570.59,188.257 571.483,188.008C573.446,187.46 575.233,186.699 576.796,185.464C576.953,185.285 577.236,185.258 577.428,185.404C577.62,185.551 577.649,185.815 577.492,185.995Z"/>
                </g>
                <g transform="matrix(0.130375,-6.59508e-19,1.11118e-18,-0.0827659,401.61,127.378)">
                    <path d="M577.803,186.232C576.904,188.597 575.54,190.323 573.553,192.016C572.333,193.057 570.891,193.658 569.301,194.207C568.276,194.561 567.172,194.63 566.05,194.748C565.211,194.7 564.372,194.697 563.585,194.486C561.669,193.97 559.977,193.244 558.529,192.051C557.905,191.537 557.348,191.111 556.846,190.495C555.715,189.103 554.889,187.896 554.298,186.232C554.001,185.892 554.056,185.391 554.42,185.113C554.783,184.836 555.32,184.887 555.616,185.227C557.107,186.043 558.513,186.268 560.195,186.621C561.243,186.842 562.21,186.732 563.304,186.768C563.778,186.784 564.227,186.684 564.711,186.688C565.153,186.692 565.597,186.69 566.05,186.664C566.719,186.737 567.361,186.803 568.01,186.785C568.489,186.772 568.931,186.857 569.402,186.825C570.29,186.764 571.074,186.841 571.932,186.661C573.604,186.311 575.01,186.051 576.485,185.227C576.781,184.887 577.317,184.836 577.681,185.113C578.045,185.391 578.1,185.892 577.803,186.232Z"/>
                </g>
                <g transform="matrix(0.697338,-1.18919,0.460161,0.0682239,-86.2329,1033.8)">
                    <path d="M776.938,55.632C776.938,55.632 777.688,55.621 778.54,55.544C779.656,55.443 780.946,55.242 780.946,55.242C780.997,55.242 781.042,55.057 781.046,54.83C781.051,54.602 781.013,54.417 780.963,54.417C780.963,54.417 779.681,54.211 778.569,54.106C777.72,54.026 776.971,54.012 776.971,54.012C776.871,54.012 776.783,54.374 776.774,54.822C776.765,55.269 776.838,55.632 776.938,55.632Z"/>
                </g>
                <g transform="matrix(-0.697338,-1.18919,-0.460161,0.0682239,1037.05,1033.8)">
                    <path d="M776.971,54.012C776.971,54.012 777.72,54.026 778.569,54.106C779.681,54.211 780.963,54.417 780.963,54.417C781.013,54.417 781.051,54.602 781.046,54.83C781.042,55.057 780.997,55.242 780.946,55.242C780.946,55.242 779.656,55.443 778.54,55.544C777.688,55.621 776.938,55.632 776.938,55.632C776.838,55.632 776.765,55.269 776.774,54.822C776.783,54.374 776.871,54.012 776.971,54.012Z"/>
                </g>
                <g transform="matrix(-0.000497455,-0.129491,0.479079,0.00029525,445.009,217.394)">
                    <path d="M776.952,55.815L780.953,55.568C781.848,55.569 782.575,55.24 782.575,54.833C782.576,54.425 781.85,54.093 780.956,54.091L776.956,53.828C775.752,53.826 774.774,54.269 774.773,54.818C774.772,55.366 775.748,55.813 776.952,55.815Z"/>
                </g>
                <g transform="matrix(-0.000497455,-0.129491,0.479079,0.00029525,454.05,217.394)">
                    <path d="M776.952,55.815L780.953,55.568C781.848,55.569 782.575,55.24 782.575,54.833C782.576,54.425 781.85,54.093 780.956,54.091L776.956,53.828C775.752,53.826 774.774,54.269 774.773,54.818C774.772,55.366 775.748,55.813 776.952,55.815Z"/>
                </g>
                <g transform="matrix(0.484291,0,0,1.17192,248.304,-97.0869)">
                    <path d="M481.946,181.705C480.878,181.699 479.033,181.684 476.789,181.679C475.215,181.676 473.446,181.678 471.613,181.684C465.521,181.701 458.734,181.745 456.086,181.758C455.998,181.758 455.913,181.754 455.855,181.74C455.792,181.725 455.739,181.706 455.736,181.683L455.582,180.281C455.58,180.264 455.585,180.248 455.609,180.232C455.633,180.217 455.664,180.201 455.711,180.189C455.76,180.176 455.815,180.165 455.878,180.158C455.943,180.151 456.013,180.145 456.086,180.145L474.6,180.01C474.622,180.01 474.639,180.005 474.639,180C474.639,179.995 474.622,179.99 474.6,179.99L456.086,179.855C455.855,179.854 455.629,179.865 455.417,179.885C455.203,179.905 455.01,179.936 454.841,179.975C454.67,180.015 454.541,180.063 454.447,180.114C454.353,180.166 454.306,180.223 454.3,180.281L454.145,181.683C454.132,181.815 454.353,181.935 454.698,182.024C455.046,182.114 455.54,182.167 456.086,182.17C458.734,182.183 465.521,182.227 471.613,182.244C473.446,182.25 475.215,182.252 476.789,182.249C479.046,182.244 480.899,182.229 481.965,182.223C482.234,182.221 482.499,182.209 482.74,182.183C482.98,182.156 483.206,182.121 483.39,182.073C483.57,182.025 483.722,181.971 483.812,181.911C483.902,181.851 483.959,181.788 483.949,181.723C483.949,181.723 483.667,180.241 483.667,180.241C483.653,180.186 483.613,180.132 483.515,180.083C483.419,180.035 483.3,179.99 483.132,179.954C482.968,179.919 482.788,179.889 482.585,179.872C482.385,179.856 482.176,179.845 481.961,179.848L476.544,179.945C476.414,179.946 476.308,179.972 476.308,180.004C476.309,180.036 476.415,180.061 476.545,180.061L481.964,180.153C481.964,180.153 482.183,180.188 482.183,180.188L482.225,180.241L481.946,181.705ZM481.945,181.71L481.927,181.714L481.943,181.723L481.945,181.71Z"/>
                </g>
            </g>
        </g>
    </g>
</svg>
