<?xml version="1.0" encoding="UTF-8" standalone="no"?>
<!DOCTYPE svg PUBLIC "-//W3C//DTD SVG 1.1//EN" "http://www.w3.org/Graphics/SVG/1.1/DTD/svg11.dtd">
<svg width="100%" height="100%" viewBox="0 0 23 33" version="1.1" xmlns="http://www.w3.org/2000/svg" xmlns:xlink="http://www.w3.org/1999/xlink" xml:space="preserve" xmlns:serif="http://www.serif.com/" style="fill-rule:evenodd;clip-rule:evenodd;stroke-linejoin:round;stroke-miterlimit:2;">
    <g transform="matrix(1,0,0,1,-596,-2000)">
        <g id="smartwatch" transform="matrix(1.0016,0,0,1.00089,-0.979196,-1.80042)">
            <rect x="596.954" y="2000.44" width="21.37" height="31.557" style="fill:none;"/>
            <g transform="matrix(1.76675,0,0,2.97884,-376.574,1531.61)">
                <g transform="matrix(0.625048,0,0,0.331166,260.964,114.316)">
                    <path d="M480.777,137.977L480.777,137.977C480.777,138.087 480.856,138.176 480.954,138.176L481.132,137.977C481.144,137.686 481.101,137.399 481.015,137.13C480.927,136.856 480.788,136.605 480.61,136.385C480.429,136.162 480.21,135.989 479.971,135.863C479.729,135.734 479.463,135.666 479.19,135.651C477.516,135.572 474.893,135.435 472.348,135.329C470.697,135.261 469.083,135.212 467.788,135.165C466.802,135.138 465.906,135.577 465.245,136.284C464.574,137.001 464.166,138.013 464.144,139.133C464.129,141.007 464.087,143.503 464.087,146C464.088,148.497 464.132,150.993 464.149,152.867C464.167,153.987 464.576,154.998 465.243,155.718C465.902,156.431 466.799,156.874 467.788,156.854C467.788,156.854 478.158,156.578 478.158,156.578C479.065,156.552 479.882,156.131 480.46,155.447C481.028,154.775 481.377,153.865 481.352,152.867C481.352,152.867 480.988,138.859 480.988,138.859C480.988,138.839 480.973,138.822 480.954,138.822C480.936,138.822 480.921,138.839 480.921,138.859L480.557,152.867C480.538,153.6 480.25,154.251 479.81,154.718C479.381,155.174 478.795,155.44 478.158,155.422C478.158,155.422 467.788,155.146 467.788,155.146C467.231,155.134 466.735,154.863 466.378,154.447C466.027,154.039 465.823,153.478 465.833,152.867C465.85,150.993 465.894,148.497 465.894,146C465.895,143.503 465.853,141.007 465.837,139.133C465.826,138.522 466.026,137.96 466.375,137.551C466.734,137.131 467.228,136.85 467.788,136.835C469.083,136.788 470.697,136.739 472.348,136.671C474.893,136.565 477.516,136.428 479.19,136.349C479.385,136.338 479.578,136.366 479.759,136.438C479.943,136.512 480.117,136.622 480.265,136.773C480.416,136.927 480.539,137.108 480.625,137.311C480.712,137.518 480.767,137.743 480.777,137.977L480.777,137.977Z"/>
                </g>
                <g transform="matrix(1.75694e-17,0.170299,-0.161817,5.88087e-18,589.051,82.804)">
                    <path d="M465.148,167.705L465.449,164.322C465.479,163.955 465.633,163.707 465.787,163.499C465.913,163.329 466.082,163.351 466.251,163.389C466.72,163.466 467.274,163.589 467.873,163.656C468.399,163.715 468.953,163.762 469.494,163.751C469.789,163.745 470.079,163.709 470.359,163.665C470.836,163.592 471.271,163.473 471.655,163.392C471.732,163.372 471.806,163.306 471.88,163.339C471.964,163.375 472.056,163.371 472.127,163.463C472.209,163.565 472.3,163.641 472.353,163.788C472.412,163.953 472.484,164.104 472.504,164.3C472.504,164.3 472.918,167.934 472.918,167.934C472.918,167.97 472.934,167.999 472.954,167.999C472.974,167.999 472.991,167.97 472.991,167.934L473.405,164.3C473.449,163.874 473.41,163.464 473.358,163.049C473.303,162.614 473.167,162.249 473.019,161.879C472.862,161.498 472.646,161.245 472.422,161.006C472.19,160.759 471.925,160.675 471.652,160.606C471.652,160.606 471.652,160.606 471.652,160.606C471.268,160.528 470.832,160.412 470.354,160.342C470.075,160.301 469.785,160.267 469.49,160.264C468.948,160.257 468.395,160.309 467.868,160.372C467.27,160.443 466.717,160.571 466.248,160.652C466.248,160.652 466.248,160.652 466.248,160.652C465.693,160.78 465.193,161.162 464.88,161.894C464.587,162.577 464.385,163.405 464.459,164.322L464.761,167.705C464.761,167.894 464.848,168.047 464.954,168.047C465.061,168.047 465.148,167.894 465.148,167.705Z"/>
                </g>
                <g transform="matrix(0.634572,0,0,0.330069,15.9307,20.1056)">
                    <path d="M846.583,420.859C846.811,420.615 846.959,420.312 847.057,419.964C847.182,419.519 847.205,419.001 847.173,418.43C847.173,418.43 847.173,418.43 847.173,418.43C847.162,418.258 847.193,418.092 847.245,417.934C847.294,417.784 847.38,417.653 847.482,417.537C847.579,417.426 847.702,417.355 847.828,417.302C847.948,417.251 848.079,417.244 848.21,417.255C848.21,417.255 848.21,417.255 848.21,417.255C848.882,417.297 849.697,417.366 850.571,417.404C851.337,417.438 852.145,417.466 852.933,417.463C853.362,417.461 853.785,417.442 854.192,417.42C854.888,417.383 855.531,417.321 856.081,417.281C856.208,417.27 856.334,417.274 856.451,417.321C856.575,417.372 856.696,417.435 856.793,417.541C856.896,417.653 856.984,417.776 857.037,417.923C857.092,418.078 857.132,418.241 857.126,418.412C857.105,419.12 857.164,419.757 857.333,420.277C857.474,420.713 857.677,421.058 857.958,421.285C857.968,421.295 857.983,421.294 857.992,421.282C858.002,421.271 858.001,421.253 857.99,421.243C857.78,420.975 857.661,420.62 857.609,420.198C857.548,419.702 857.596,419.128 857.729,418.505C857.729,418.505 857.729,418.505 857.729,418.504C857.786,418.231 857.775,417.954 857.728,417.686C857.679,417.408 857.564,417.154 857.415,416.92C857.261,416.68 857.057,416.499 856.835,416.357C856.607,416.212 856.348,416.144 856.081,416.12C856.081,416.12 856.081,416.12 856.081,416.12C855.531,416.08 854.887,416.018 854.192,415.981C853.785,415.959 853.362,415.94 852.933,415.938C852.145,415.935 851.337,415.963 850.571,415.997C849.697,416.036 848.882,416.106 848.209,416.149C847.944,416.171 847.687,416.241 847.459,416.385C847.237,416.525 847.033,416.706 846.879,416.945C846.728,417.178 846.615,417.434 846.565,417.711C846.516,417.981 846.506,418.26 846.561,418.535C846.66,419.016 846.71,419.46 846.661,419.86C846.624,420.157 846.543,420.426 846.388,420.659C846.34,420.721 846.344,420.815 846.398,420.871C846.452,420.926 846.535,420.921 846.583,420.859Z"/>
                </g>
                <g transform="matrix(0.634572,5.70238e-18,-9.6077e-18,-0.330069,15.9307,305.266)">
                    <path d="M846.388,420.659C846.543,420.426 846.624,420.157 846.661,419.86C846.71,419.46 846.66,419.016 846.561,418.534C846.506,418.26 846.516,417.981 846.565,417.711C846.615,417.434 846.728,417.178 846.879,416.945C847.033,416.706 847.237,416.525 847.459,416.385C847.687,416.241 847.944,416.171 848.21,416.149C848.882,416.106 849.697,416.036 850.571,415.997C851.337,415.963 852.145,415.935 852.933,415.938C853.362,415.94 853.785,415.959 854.192,415.981C854.887,416.018 855.531,416.08 856.081,416.12C856.081,416.12 856.081,416.12 856.081,416.12C856.348,416.144 856.607,416.212 856.835,416.357C857.057,416.499 857.261,416.68 857.415,416.92C857.564,417.154 857.679,417.408 857.728,417.686C857.775,417.954 857.786,418.231 857.729,418.504C857.729,418.505 857.729,418.505 857.729,418.505C857.596,419.128 857.548,419.702 857.609,420.198C857.661,420.62 857.78,420.975 857.99,421.243C858.001,421.253 858.002,421.271 857.992,421.282C857.983,421.294 857.968,421.295 857.958,421.285C857.677,421.058 857.474,420.713 857.333,420.277C857.164,419.757 857.105,419.12 857.127,418.41C857.132,418.241 857.092,418.078 857.037,417.923C856.984,417.776 856.896,417.653 856.793,417.541C856.696,417.435 856.575,417.372 856.451,417.321C856.334,417.274 856.208,417.27 856.081,417.281C855.531,417.321 854.888,417.383 854.192,417.42C853.785,417.442 853.362,417.461 852.933,417.463C852.145,417.466 851.337,417.438 850.571,417.404C849.697,417.366 848.882,417.297 848.21,417.255C848.21,417.255 848.21,417.255 848.21,417.255C848.079,417.244 847.948,417.251 847.828,417.302C847.702,417.355 847.579,417.426 847.482,417.537C847.38,417.653 847.294,417.784 847.245,417.934C847.193,418.092 847.162,418.258 847.173,418.43C847.173,418.43 847.173,418.43 847.173,418.43C847.205,419.001 847.182,419.519 847.057,419.964C846.959,420.312 846.811,420.615 846.583,420.859C846.535,420.921 846.452,420.926 846.398,420.871C846.344,420.815 846.34,420.721 846.388,420.659Z"/>
                </g>
                <g transform="matrix(0.184077,0,0,0.103647,446.588,137.357)">
                    <path d="M598.97,256.351C597.05,254.921 595.016,252.934 593.225,250.787C591.386,248.585 589.814,246.216 588.939,244.1C588.936,244.092 588.932,244.085 588.929,244.077C587.882,241.732 587.332,239.406 587.248,237.314C587.15,234.873 587.718,232.769 589.057,231.46C589.462,231.06 589.973,231.074 590.513,231.253C591.171,231.473 591.85,231.955 592.546,232.569C594.381,234.187 596.205,236.801 597.447,239.446C597.708,239.983 598.232,240.322 598.805,240.322C599.378,240.322 599.903,239.983 600.163,239.446C601.419,236.825 603.256,234.319 605.084,232.795C605.77,232.222 606.434,231.775 607.079,231.586C607.598,231.434 608.09,231.434 608.482,231.818C608.482,231.818 608.482,231.818 608.482,231.818C609.815,233.112 610.384,235.196 610.295,237.618C610.219,239.708 609.682,242.033 608.646,244.38C608.643,244.387 608.639,244.395 608.636,244.402C607.777,246.532 605.877,249.423 603.715,252.15C601.588,254.833 599.224,257.349 597.294,258.816C597.268,258.834 597.26,258.871 597.277,258.899C597.294,258.927 597.33,258.935 597.356,258.917C599.434,257.631 602.053,255.341 604.43,252.839C606.932,250.206 609.137,247.342 610.217,245.198C611.868,242.081 612.663,238.903 612.635,236.16C612.608,233.559 611.8,231.345 610.372,229.782C608.905,228.192 606.862,228.15 604.682,229.362C603.265,230.149 601.771,231.521 600.421,233.214C599.843,233.94 599.293,234.727 598.784,235.549C597.072,232.848 594.929,230.461 592.932,229.269C590.76,227.972 588.721,227.951 587.26,229.524C585.837,231.072 585.036,233.272 585,235.855C584.962,238.591 585.744,241.766 587.388,244.907C588.449,247.059 590.255,249.465 592.359,251.65C594.342,253.709 596.572,255.573 598.641,256.882C598.78,256.978 598.967,256.937 599.058,256.79C599.148,256.643 599.109,256.446 598.97,256.351Z"/>
                </g>
            </g>
        </g>
    </g>
</svg>
