<?xml version="1.0" encoding="UTF-8" standalone="no"?>
<!DOCTYPE svg PUBLIC "-//W3C//DTD SVG 1.1//EN" "http://www.w3.org/Graphics/SVG/1.1/DTD/svg11.dtd">
<svg width="100%" height="100%" viewBox="0 0 31 32" version="1.1" xmlns="http://www.w3.org/2000/svg" xmlns:xlink="http://www.w3.org/1999/xlink" xml:space="preserve" xmlns:serif="http://www.serif.com/" style="fill-rule:evenodd;clip-rule:evenodd;stroke-linejoin:round;stroke-miterlimit:2;">
    <g transform="matrix(1,0,0,1,-792,-1279)">
        <g id="ic_category_utilities_phone" transform="matrix(1.0017,0,0,1.0012,-1.37555,-2.30523)">
            <rect x="792.122" y="1280.16" width="30.176" height="30.827" style="fill:none;"/>
            <g transform="matrix(0.748729,0,0,0.749099,439.12,1188.66)">
                <path d="M488.954,145.006C488.954,144.45 489.405,144 489.96,144L491.948,144C492.504,144 492.954,144.45 492.954,145.006L492.954,146.994C492.954,147.55 492.504,148 491.948,148L489.96,148C489.405,148 488.954,147.55 488.954,146.994L488.954,145.006Z"/>
            </g>
            <g transform="matrix(1.76658,0,0,2.97791,5.41344,962.995)">
                <g transform="matrix(0.42383,0,0,0.251552,245.507,75.7808)">
                    <path d="M488.954,145.006C488.954,144.45 489.405,144 489.96,144L491.948,144C492.504,144 492.954,144.45 492.954,145.006L492.954,146.994C492.954,147.55 492.504,148 491.948,148L489.96,148C489.405,148 488.954,147.55 488.954,146.994L488.954,145.006ZM491.368,145.346L491.416,146.689L489.96,146.862C490.002,146.857 489.946,146.953 489.977,146.977C490.005,146.998 489.871,146.957 489.876,146.994L489.591,145.006C489.617,144.919 489.746,144.952 489.812,144.899C489.874,144.85 489.878,145.047 489.96,145.068L491.368,145.346ZM491.554,145.383L491.948,145.461C491.807,145.445 491.647,145.493 491.562,145.392L491.554,145.383Z"/>
                </g>
                <g transform="matrix(0.42383,0,0,0.251552,248.305,75.7808)">
                    <path d="M488.954,145.006C488.954,144.45 489.405,144 489.96,144L491.948,144C492.504,144 492.954,144.45 492.954,145.006L492.954,146.994C492.954,147.55 492.504,148 491.948,148L489.96,148C489.405,148 488.954,147.55 488.954,146.994L488.954,145.006ZM491.368,145.346L491.416,146.689L489.96,146.862C490.002,146.857 489.946,146.953 489.977,146.977C490.005,146.998 489.871,146.957 489.876,146.994L489.591,145.006C489.617,144.919 489.746,144.952 489.812,144.899C489.874,144.85 489.878,145.047 489.96,145.068L491.368,145.346ZM491.554,145.383L491.948,145.461C491.807,145.445 491.647,145.493 491.562,145.392L491.554,145.383Z"/>
                </g>
                <g transform="matrix(0.42383,0,0,0.251552,251.043,75.7763)">
                    <path d="M488.954,145.006C488.954,144.45 489.405,144 489.96,144L491.948,144C492.504,144 492.954,144.45 492.954,145.006L492.954,146.994C492.954,147.55 492.504,148 491.948,148L489.96,148C489.405,148 488.954,147.55 488.954,146.994L488.954,145.006ZM491.368,145.346L491.416,146.689L489.96,146.862C490.002,146.857 489.946,146.953 489.977,146.977C490.005,146.998 489.871,146.957 489.876,146.994L489.591,145.006C489.617,144.919 489.746,144.952 489.812,144.899C489.874,144.85 489.878,145.047 489.96,145.068L491.368,145.346ZM491.554,145.383L491.948,145.461C491.807,145.445 491.647,145.493 491.562,145.392L491.554,145.383Z"/>
                </g>
                <g transform="matrix(0.42383,0,0,0.251552,245.507,77.1134)">
                    <path d="M488.954,145.006C488.954,144.45 489.405,144 489.96,144L491.948,144C492.504,144 492.954,144.45 492.954,145.006L492.954,146.994C492.954,147.55 492.504,148 491.948,148L489.96,148C489.405,148 488.954,147.55 488.954,146.994L488.954,145.006ZM491.368,145.346L491.416,146.689L489.96,146.862C490.002,146.857 489.946,146.953 489.977,146.977C490.005,146.998 489.871,146.957 489.876,146.994L489.591,145.006C489.617,144.919 489.746,144.952 489.812,144.899C489.874,144.85 489.878,145.047 489.96,145.068L491.368,145.346ZM491.554,145.383L491.948,145.461C491.807,145.445 491.647,145.493 491.562,145.392L491.554,145.383Z"/>
                </g>
                <g transform="matrix(0.42383,0,0,0.251552,248.305,77.1134)">
                    <path d="M488.954,145.006C488.954,144.45 489.405,144 489.96,144L491.948,144C492.504,144 492.954,144.45 492.954,145.006L492.954,146.994C492.954,147.55 492.504,148 491.948,148L489.96,148C489.405,148 488.954,147.55 488.954,146.994L488.954,145.006ZM491.368,145.346L491.416,146.689L489.96,146.862C490.002,146.857 489.946,146.953 489.977,146.977C490.005,146.998 489.871,146.957 489.876,146.994L489.591,145.006C489.617,144.919 489.746,144.952 489.812,144.899C489.874,144.85 489.878,145.047 489.96,145.068L491.368,145.346ZM491.554,145.383L491.948,145.461C491.807,145.445 491.647,145.493 491.562,145.392L491.554,145.383Z"/>
                </g>
                <g transform="matrix(0.42383,0,0,0.251552,251.043,77.1088)">
                    <path d="M488.954,145.006C488.954,144.45 489.405,144 489.96,144L491.948,144C492.504,144 492.954,144.45 492.954,145.006L492.954,146.994C492.954,147.55 492.504,148 491.948,148L489.96,148C489.405,148 488.954,147.55 488.954,146.994L488.954,145.006ZM491.368,145.346L491.416,146.689L489.96,146.862C490.002,146.857 489.946,146.953 489.977,146.977C490.005,146.998 489.871,146.957 489.876,146.994L489.591,145.006C489.617,144.919 489.746,144.952 489.812,144.899C489.874,144.85 489.878,145.047 489.96,145.068L491.368,145.346ZM491.554,145.383L491.948,145.461C491.807,145.445 491.647,145.493 491.562,145.392L491.554,145.383Z"/>
                </g>
                <g transform="matrix(0.42383,0,0,0.251552,245.507,78.455)">
                    <path d="M488.954,145.006C488.954,144.45 489.405,144 489.96,144L491.948,144C492.504,144 492.954,144.45 492.954,145.006L492.954,146.994C492.954,147.55 492.504,148 491.948,148L489.96,148C489.405,148 488.954,147.55 488.954,146.994L488.954,145.006ZM491.368,145.346L491.416,146.689L489.96,146.862C490.002,146.857 489.946,146.953 489.977,146.977C490.005,146.998 489.871,146.957 489.876,146.994L489.591,145.006C489.617,144.919 489.746,144.952 489.812,144.899C489.874,144.85 489.878,145.047 489.96,145.068L491.368,145.346ZM491.554,145.383L491.948,145.461C491.807,145.445 491.647,145.493 491.562,145.392L491.554,145.383Z"/>
                </g>
                <g transform="matrix(0.42383,0,0,0.251552,248.305,78.455)">
                    <path d="M488.954,145.006C488.954,144.45 489.405,144 489.96,144L491.948,144C492.504,144 492.954,144.45 492.954,145.006L492.954,146.994C492.954,147.55 492.504,148 491.948,148L489.96,148C489.405,148 488.954,147.55 488.954,146.994L488.954,145.006ZM491.368,145.346L491.416,146.689L489.96,146.862C490.002,146.857 489.946,146.953 489.977,146.977C490.005,146.998 489.871,146.957 489.876,146.994L489.591,145.006C489.617,144.919 489.746,144.952 489.812,144.899C489.874,144.85 489.878,145.047 489.96,145.068L491.368,145.346ZM491.554,145.383L491.948,145.461C491.807,145.445 491.647,145.493 491.562,145.392L491.554,145.383Z"/>
                </g>
                <g transform="matrix(0.42383,0,0,0.251552,251.043,78.4505)">
                    <path d="M488.954,145.006C488.954,144.45 489.405,144 489.96,144L491.948,144C492.504,144 492.954,144.45 492.954,145.006L492.954,146.994C492.954,147.55 492.504,148 491.948,148L489.96,148C489.405,148 488.954,147.55 488.954,146.994L488.954,145.006ZM491.368,145.346L491.416,146.689L489.96,146.862C490.002,146.857 489.946,146.953 489.977,146.977C490.005,146.998 489.871,146.957 489.876,146.994L489.591,145.006C489.617,144.919 489.746,144.952 489.812,144.899C489.874,144.85 489.878,145.047 489.96,145.068L491.368,145.346ZM491.554,145.383L491.948,145.461C491.807,145.445 491.647,145.493 491.562,145.392L491.554,145.383Z"/>
                </g>
                <g transform="matrix(-0.270613,0,0,0.152982,661.156,72.3244)">
                    <path d="M743.453,253.495C745.158,253.445 751.062,253.248 756.971,253.098C758.827,253.052 760.682,253.012 762.407,252.983C765.685,252.93 768.492,252.908 769.937,252.894C769.937,252.133 769.936,251.052 769.947,249.904C769.963,248.08 770.001,246.09 770.02,244.95C767.962,244.89 762.836,244.753 757.749,244.569C751.312,244.337 744.954,244.041 744.954,244.041C744.933,244.041 744.916,244.022 744.916,244C744.916,243.978 744.933,243.959 744.954,243.959C744.954,243.959 751.312,243.663 757.749,243.431C763.346,243.228 768.991,243.083 770.544,243.035C770.914,243.027 771.246,243.191 771.493,243.44C771.742,243.69 771.886,244.046 771.895,244.435C771.895,244.435 771.895,244.435 771.895,244.436C771.913,245.394 771.971,247.761 771.999,249.899C772.019,251.435 772.019,252.853 772.024,253.542C772.024,253.542 772.024,253.542 772.024,253.542C772.024,253.745 771.986,253.945 771.913,254.129C771.841,254.314 771.734,254.483 771.597,254.627C771.46,254.771 771.299,254.884 771.124,254.961C770.948,255.037 770.759,255.078 770.565,255.078C769.455,255.07 766.257,255.062 762.411,255.014C760.685,254.992 758.83,254.959 756.975,254.919C750.979,254.79 744.989,254.611 743.384,254.57C743.129,254.563 742.897,254.46 742.734,254.28C742.573,254.103 742.466,253.865 742.472,253.601C742.472,253.601 742.709,244.001 742.709,244.001C742.709,243.882 742.8,243.786 742.913,243.785C743.026,243.784 743.118,243.88 743.119,243.999L743.453,253.495Z"/>
                </g>
                <g transform="matrix(0.449798,0,0,0.335403,183.3,31.3763)">
                    <path d="M590.206,229.176L584.98,229.225C584.658,229.228 584.343,229.277 584.053,229.377C583.764,229.476 583.497,229.616 583.274,229.799C583.053,229.983 582.874,230.193 582.76,230.426C582.647,230.657 582.581,230.905 582.588,231.158C582.588,231.158 582.588,231.158 582.588,231.158C582.636,232.784 582.716,236.191 582.847,239.889C583.029,245.038 583.294,250.739 583.386,252.986C583.402,253.335 583.582,253.65 583.878,253.873C584.168,254.091 584.557,254.23 584.987,254.223C584.987,254.223 586.515,254.199 586.515,254.199C586.651,254.2 586.763,254.114 586.765,254.005C586.767,253.897 586.658,253.808 586.522,253.806L584.996,253.746C584.739,253.736 584.515,253.64 584.353,253.501C584.197,253.366 584.113,253.183 584.121,252.985C584.207,250.738 584.456,245.036 584.624,239.888C584.745,236.189 584.815,232.782 584.859,231.156C584.859,231.156 584.908,231.098 584.908,231.098L584.98,231.086L591.196,231.144C591.43,231.145 591.652,231.102 591.849,231.025L591.879,232.167C591.938,234.288 592.016,236.693 592.105,239.114C592.32,244.88 592.59,250.722 592.685,253.007C592.69,253.113 592.671,253.217 592.626,253.313C592.579,253.412 592.512,253.504 592.42,253.583C592.327,253.662 592.217,253.728 592.095,253.772C591.971,253.818 591.836,253.846 591.697,253.85C591.697,253.85 587.737,253.967 587.737,253.967C587.711,253.967 587.69,253.984 587.69,254.004C587.69,254.025 587.711,254.041 587.737,254.041L591.697,254.165C591.891,254.171 592.082,254.143 592.261,254.091C592.442,254.037 592.608,253.954 592.752,253.847C592.898,253.739 593.01,253.609 593.091,253.467C593.173,253.324 593.217,253.168 593.224,253.007C593.319,250.722 593.589,244.88 593.803,239.114C593.893,236.693 593.971,234.288 594.029,232.167C594.126,228.674 594.17,225.956 594.187,225.22C594.192,224.897 594.022,224.605 593.76,224.389C593.498,224.172 593.128,224.043 592.72,224.036L591.741,224.021C591.542,224.019 591.347,224.05 591.165,224.107C590.983,224.164 590.817,224.252 590.674,224.362C590.531,224.473 590.421,224.606 590.344,224.749C590.267,224.892 590.228,225.047 590.226,225.206L590.206,229.176Z"/>
                </g>
                <g transform="matrix(0.55759,0,0,0.335403,120.608,31.3763)">
                    <path d="M592.493,254.052L593.143,232C593.146,231.899 593.197,231.812 593.266,231.748C593.332,231.685 593.425,231.656 593.524,231.658L610.941,231.938L611.012,232.024C611.003,233.482 610.971,236.372 610.964,239.593C610.961,241.238 610.958,242.97 610.975,244.64C611.012,248.191 611.102,251.464 611.132,253.05C611.132,253.05 611.1,253.175 611.1,253.175L610.973,253.252C609.259,253.314 605.636,253.42 602.105,253.571C597.585,253.765 593.237,254.013 593.237,254.013C593.217,254.013 593.2,254.029 593.2,254.05C593.2,254.07 593.217,254.087 593.237,254.087C593.237,254.087 597.585,254.334 602.105,254.528C605.636,254.68 609.259,254.786 610.973,254.848C611.216,254.855 611.453,254.805 611.676,254.722C611.9,254.638 612.102,254.503 612.28,254.338C612.46,254.171 612.594,253.968 612.692,253.75C612.79,253.531 612.836,253.291 612.841,253.047C612.866,251.461 612.946,248.188 612.972,244.637C612.985,242.967 612.976,241.235 612.967,239.59C612.951,236.369 612.91,233.479 612.896,232.021C612.89,231.49 612.674,231.009 612.318,230.665C611.963,230.322 611.479,230.105 610.943,230.111C610.943,230.111 593.525,230.351 593.525,230.351C593.067,230.358 592.651,230.539 592.355,230.839C592.061,231.136 591.873,231.54 591.877,231.988L592.095,254.048C592.094,254.156 592.182,254.245 592.292,254.246C592.402,254.247 592.492,254.16 592.493,254.052Z"/>
                </g>
            </g>
            <g transform="matrix(0.748729,0,0,0.749099,444.064,1188.66)">
                <path d="M488.954,145.006C488.954,144.45 489.405,144 489.96,144L491.948,144C492.504,144 492.954,144.45 492.954,145.006L492.954,146.994C492.954,147.55 492.504,148 491.948,148L489.96,148C489.405,148 488.954,147.55 488.954,146.994L488.954,145.006Z"/>
            </g>
            <g transform="matrix(0.748729,0,0,0.749099,448.9,1188.65)">
                <path d="M488.954,145.006C488.954,144.45 489.405,144 489.96,144L491.948,144C492.504,144 492.954,144.45 492.954,145.006L492.954,146.994C492.954,147.55 492.504,148 491.948,148L489.96,148C489.405,148 488.954,147.55 488.954,146.994L488.954,145.006Z"/>
            </g>
            <g transform="matrix(0.748729,0,0,0.749099,439.12,1192.63)">
                <path d="M488.954,145.006C488.954,144.45 489.405,144 489.96,144L491.948,144C492.504,144 492.954,144.45 492.954,145.006L492.954,146.994C492.954,147.55 492.504,148 491.948,148L489.96,148C489.405,148 488.954,147.55 488.954,146.994L488.954,145.006Z"/>
            </g>
            <g transform="matrix(0.748729,0,0,0.749099,444.064,1192.63)">
                <path d="M488.954,145.006C488.954,144.45 489.405,144 489.96,144L491.948,144C492.504,144 492.954,144.45 492.954,145.006L492.954,146.994C492.954,147.55 492.504,148 491.948,148L489.96,148C489.405,148 488.954,147.55 488.954,146.994L488.954,145.006Z"/>
            </g>
            <g transform="matrix(0.748729,0,0,0.749099,448.9,1192.62)">
                <path d="M488.954,145.006C488.954,144.45 489.405,144 489.96,144L491.948,144C492.504,144 492.954,144.45 492.954,145.006L492.954,146.994C492.954,147.55 492.504,148 491.948,148L489.96,148C489.405,148 488.954,147.55 488.954,146.994L488.954,145.006Z"/>
            </g>
            <g transform="matrix(0.748729,0,0,0.749099,439.12,1196.63)">
                <path d="M488.954,145.006C488.954,144.45 489.405,144 489.96,144L491.948,144C492.504,144 492.954,144.45 492.954,145.006L492.954,146.994C492.954,147.55 492.504,148 491.948,148L489.96,148C489.405,148 488.954,147.55 488.954,146.994L488.954,145.006Z"/>
            </g>
            <g transform="matrix(0.748729,0,0,0.749099,444.064,1196.63)">
                <path d="M488.954,145.006C488.954,144.45 489.405,144 489.96,144L491.948,144C492.504,144 492.954,144.45 492.954,145.006L492.954,146.994C492.954,147.55 492.504,148 491.948,148L489.96,148C489.405,148 488.954,147.55 488.954,146.994L488.954,145.006Z"/>
            </g>
            <g transform="matrix(0.748729,0,0,0.749099,448.9,1196.61)">
                <path d="M488.954,145.006C488.954,144.45 489.405,144 489.96,144L491.948,144C492.504,144 492.954,144.45 492.954,145.006L492.954,146.994C492.954,147.55 492.504,148 491.948,148L489.96,148C489.405,148 488.954,147.55 488.954,146.994L488.954,145.006Z"/>
            </g>
        </g>
    </g>
</svg>
