<?xml version="1.0" encoding="UTF-8" standalone="no"?>
<!DOCTYPE svg PUBLIC "-//W3C//DTD SVG 1.1//EN" "http://www.w3.org/Graphics/SVG/1.1/DTD/svg11.dtd">
<svg width="100%" height="100%" viewBox="0 0 23 32" version="1.1" xmlns="http://www.w3.org/2000/svg" xmlns:xlink="http://www.w3.org/1999/xlink" xml:space="preserve" xmlns:serif="http://www.serif.com/" style="fill-rule:evenodd;clip-rule:evenodd;stroke-linejoin:round;stroke-miterlimit:2;">
    <g transform="matrix(1,0,0,1,-738,-1233)">
        <g id="ic_category_household_grocery" transform="matrix(0.947534,0,0,1.0009,38.7283,-1.1177)">
            <rect x="738.59" y="1233.37" width="22.655" height="31.169" style="fill:none;"/>
            <g transform="matrix(1.86756,0,0,2.97882,-294.114,864.938)">
                <g transform="matrix(0.347957,0.213576,-0.292662,0.168228,307.538,-49.3016)">
                    <path d="M776.953,55.292C776.953,55.292 777.703,55.286 778.554,55.242C779.67,55.184 780.954,55.069 780.954,55.069C781.061,55.069 781.149,54.962 781.149,54.83C781.149,54.698 781.062,54.591 780.955,54.59C780.955,54.59 779.672,54.47 778.555,54.408C777.705,54.361 776.955,54.352 776.955,54.352C776.744,54.352 776.573,54.562 776.572,54.821C776.572,55.08 776.742,55.291 776.953,55.292Z"/>
                </g>
                <g transform="matrix(0.347957,0.213576,-0.292662,0.168228,306.457,-48.0445)">
                    <path d="M776.953,55.292C776.953,55.292 777.703,55.286 778.554,55.242C779.67,55.184 780.954,55.069 780.954,55.069C781.061,55.069 781.149,54.962 781.149,54.83C781.149,54.698 781.062,54.591 780.955,54.59C780.955,54.59 779.672,54.47 778.555,54.408C777.705,54.361 776.955,54.352 776.955,54.352C776.744,54.352 776.573,54.562 776.572,54.821C776.572,55.08 776.742,55.291 776.953,55.292Z"/>
                </g>
                <g transform="matrix(0.13245,0,0,0.254511,494.931,77.9781)">
                    <path d="M479.512,179.961C479.389,179.91 479.307,179.952 479.307,180C479.307,180.074 479.5,180.133 479.739,180.133L480.079,180.15C480.389,180.165 480.658,180.208 480.922,180.257C481.165,180.302 481.352,180.367 481.527,180.438C481.691,180.504 481.766,180.582 481.834,180.661C481.898,180.734 481.864,180.809 481.831,180.885L481.749,181.079C481.722,181.146 481.597,181.202 481.493,181.26C481.398,181.313 481.234,181.348 481.079,181.387C480.935,181.423 480.749,181.432 480.576,181.449C480.417,181.464 480.248,181.452 480.079,181.448C480.079,181.448 480.079,181.448 480.079,181.448C478.874,181.421 477.374,181.377 475.687,181.35C474.313,181.328 472.824,181.312 471.295,181.307C469.551,181.302 467.757,181.313 466.025,181.326C462.997,181.348 460.166,181.39 458.119,181.413C457.718,181.418 457.332,181.388 457.057,181.311C456.76,181.227 456.518,181.116 456.498,180.982L456.564,180.783C456.639,180.717 456.731,180.653 456.884,180.6C457.043,180.546 457.217,180.496 457.427,180.466C457.645,180.434 457.874,180.407 458.119,180.403L479.208,180.022C479.247,180.022 479.28,180.012 479.28,180C479.28,179.988 479.247,179.978 479.208,179.978L458.119,179.597C457.52,179.588 456.934,179.623 456.379,179.684C455.817,179.746 455.31,179.849 454.859,179.975C454.402,180.103 454.061,180.261 453.802,180.429C453.539,180.601 453.415,180.789 453.384,180.982C453.384,180.982 453.384,180.982 453.384,180.982C453.321,181.391 453.858,181.762 454.687,182.042C455.535,182.329 456.764,182.497 458.119,182.515C458.119,182.515 458.119,182.515 458.119,182.515C460.166,182.538 462.997,182.58 466.025,182.602C467.757,182.615 469.551,182.626 471.295,182.621C472.824,182.616 474.313,182.6 475.687,182.578C477.374,182.551 478.874,182.507 480.079,182.48C480.675,182.464 481.259,182.43 481.777,182.345C482.283,182.261 482.765,182.162 483.134,182.022C483.493,181.885 483.808,181.741 483.962,181.575C484.112,181.414 484.211,181.248 484.143,181.079C484.143,181.079 484.06,180.885 484.06,180.885C483.992,180.725 483.878,180.57 483.621,180.432C483.373,180.3 483.086,180.175 482.685,180.08C482.298,179.99 481.893,179.914 481.431,179.878C480.987,179.843 480.54,179.827 480.079,179.85C479.931,179.857 479.825,179.862 479.773,179.865C479.563,179.876 479.503,179.915 479.512,179.961Z"/>
                </g>
                <g transform="matrix(0.516577,0,0,0.321675,184.089,52.0937)">
                    <path d="M714.773,236C714.773,236 714.624,239.138 714.48,242.802C714.328,246.646 714.184,251.056 714.114,253.004C714.114,253.004 714.114,253.004 714.114,253.004C714.099,253.523 714.325,253.991 714.672,254.339C715.024,254.692 715.524,254.899 716.074,254.913C716.074,254.913 716.074,254.913 716.074,254.913C717.339,254.938 719.599,254.999 722.129,255.034C723.437,255.051 724.816,255.07 726.165,255.063C728.755,255.05 731.233,254.975 732.893,254.947C733.291,254.936 733.682,254.86 734.038,254.708C734.393,254.556 734.722,254.348 734.993,254.074C735.26,253.8 735.476,253.489 735.61,253.145C735.743,252.805 735.818,252.442 735.803,252.073C735.733,250.475 735.641,248.093 735.519,245.644C735.285,240.929 734.986,236 734.986,236C734.986,235.979 734.968,235.961 734.945,235.961C734.923,235.961 734.905,235.979 734.905,236C734.905,236 734.604,240.929 734.367,245.643C734.245,248.093 734.152,250.475 734.081,252.072C734.075,252.221 734.026,252.362 733.962,252.494C733.9,252.623 733.802,252.733 733.691,252.831C733.583,252.928 733.452,252.994 733.316,253.044C733.183,253.092 733.039,253.105 732.894,253.101C732.894,253.101 732.894,253.101 732.894,253.101C731.234,253.071 728.756,252.994 726.167,252.978C724.817,252.97 723.438,252.987 722.13,253.003C719.601,253.035 717.34,253.094 716.075,253.118C716.038,253.119 715.999,253.121 715.974,253.098C715.945,253.072 715.91,253.043 715.909,253.002C715.833,251.054 715.676,246.644 715.514,242.8C715.359,239.137 715.202,236 715.202,236C715.202,235.887 715.105,235.795 714.987,235.795C714.868,235.796 714.772,235.887 714.773,236Z"/>
                </g>
                <g transform="matrix(0.516578,-0.000189632,-0.000343437,0.327202,184.439,50.8277)">
                    <path d="M730.913,254.03C730.913,254.03 730.787,250.119 730.588,246.203C730.389,242.281 730.118,238.376 730.118,238.376C730.118,238.355 730.1,238.338 730.078,238.338C730.056,238.338 730.037,238.355 730.037,238.375C730.037,238.375 729.731,242.277 729.497,246.198C729.262,250.111 729.101,254.02 729.101,254.02C729.098,254.489 729.503,254.872 730.003,254.874C730.503,254.877 730.911,254.498 730.913,254.03Z"/>
                </g>
                <g transform="matrix(0.516577,0,0,0.285233,184.089,60.6939)">
                    <path d="M724.506,237.108L721.842,235.529C721.706,235.452 721.561,235.402 721.414,235.413C721.269,235.424 721.121,235.46 720.997,235.555L718.489,237.513C718.067,237.275 715.567,235.871 715.567,235.871C715.502,235.828 715.416,235.85 715.375,235.92C715.335,235.991 715.356,236.083 715.421,236.127L718.207,238.266C718.301,238.337 718.414,238.362 718.524,238.369C718.636,238.375 718.746,238.334 718.848,238.273L721.402,236.734L724.052,238.564C724.199,238.66 724.365,238.704 724.531,238.705C724.697,238.706 724.862,238.654 725.009,238.559C725.009,238.559 725.009,238.559 725.009,238.559C725.246,238.401 725.825,238.03 726.392,237.636C726.841,237.325 727.281,237 727.56,236.795L730.21,238.313C730.305,238.366 730.404,238.407 730.508,238.406C730.61,238.404 730.714,238.391 730.806,238.335C730.806,238.335 734.51,236.025 734.51,236.025C734.523,236.018 734.529,236.001 734.523,235.987C734.517,235.973 734.501,235.967 734.488,235.973L730.59,237.509L727.968,235.503C727.835,235.405 727.678,235.369 727.523,235.361C727.368,235.352 727.214,235.407 727.072,235.492C727.072,235.492 727.072,235.492 727.072,235.492C726.828,235.64 726.236,235.985 725.655,236.353C725.22,236.628 724.793,236.915 724.506,237.108ZM730.534,237.531C730.511,237.534 730.49,237.548 730.467,237.557L730.534,237.531Z"/>
                </g>
                <g transform="matrix(-0.1863,0.262928,-0.694623,-0.17338,857.039,-24.7817)">
                    <path d="M730.045,226.892L723.692,226.551C723.066,226.522 722.452,226.586 721.869,226.711C721.273,226.839 720.734,227.056 720.253,227.325C719.769,227.603 719.397,227.943 719.126,228.312C718.85,228.686 718.714,229.097 718.686,229.518C718.686,229.518 718.686,229.521 718.686,229.521C718.66,230.407 719.191,231.229 720.111,231.804C721.027,232.376 722.31,232.708 723.692,232.673C725.331,232.589 727.25,232.507 729.016,232.4C731.92,232.224 734.34,232.028 734.34,232.028C734.364,232.028 734.384,232.015 734.384,232C734.384,231.985 734.364,231.972 734.34,231.972C734.34,231.972 731.92,231.776 729.016,231.6C727.25,231.493 725.331,231.411 723.692,231.327C722.925,231.308 722.272,231.067 721.774,230.744C721.283,230.424 720.937,230.004 720.923,229.521L720.922,229.518C720.907,229.281 720.951,229.046 721.075,228.827C721.202,228.602 721.377,228.386 721.633,228.205C721.893,228.016 722.193,227.854 722.539,227.744C722.899,227.63 723.283,227.545 723.692,227.526C723.692,227.526 730.045,227.186 730.045,227.186C730.172,227.186 730.276,227.12 730.276,227.039C730.276,226.958 730.172,226.892 730.045,226.892Z"/>
                </g>
                <g transform="matrix(0.480577,0,0,0.285233,210.283,60.6939)">
                    <path d="M718.338,223.198C718.338,223.198 718.523,224.617 718.088,225.717C717.915,226.154 717.625,226.525 717.132,226.678L717.092,226.693C716.484,226.934 715.902,227.414 715.487,228.051C715.297,228.342 715.146,228.669 715.047,229.018C714.952,229.354 714.911,229.712 714.921,230.08C714.943,230.405 714.967,230.92 715.009,231.518C715.031,231.824 715.057,232.147 715.089,232.48C715.254,234.214 715.472,236.09 715.472,236.09C715.472,236.102 715.482,236.112 715.494,236.112C715.506,236.112 715.516,236.102 715.516,236.09C715.516,236.09 715.747,234.215 715.913,232.48C715.945,232.147 715.972,231.823 715.992,231.517C716.034,230.914 716.053,230.395 716.068,230.067C716.069,229.812 716.114,229.567 716.178,229.334C716.247,229.087 716.34,228.853 716.459,228.639C716.72,228.173 717.076,227.785 717.485,227.575C717.489,227.573 717.475,227.577 717.475,227.577C717.478,227.577 717.48,227.576 717.483,227.575C718.2,227.231 718.602,226.628 718.757,225.922C719.035,224.651 718.563,223.147 718.563,223.147C718.549,223.085 718.487,223.046 718.425,223.06C718.363,223.074 718.324,223.136 718.338,223.198Z"/>
                </g>
                <g transform="matrix(-0.480577,0,0,0.285233,903.77,60.7183)">
                    <path d="M718.563,223.147C718.563,223.147 719.026,224.651 718.746,225.918C718.591,226.622 718.194,227.223 717.479,227.566C717.477,227.567 717.474,227.568 717.472,227.569L717.485,227.565C717.076,227.78 716.734,228.179 716.469,228.645C716.232,229.06 716.061,229.541 716.065,230.067L716.012,231.914C716.012,232.196 715.783,232.425 715.501,232.425C715.22,232.425 714.991,232.197 714.991,231.915L714.924,230.08C714.912,229.33 715.109,228.619 715.477,228.045C715.888,227.405 716.484,226.936 717.096,226.702L717.143,226.684C717.632,226.534 717.925,226.161 718.098,225.721C718.532,224.619 718.338,223.198 718.338,223.198C718.324,223.136 718.363,223.074 718.425,223.06C718.487,223.046 718.549,223.085 718.563,223.147Z"/>
                </g>
            </g>
        </g>
    </g>
</svg>
