<?xml version="1.0" encoding="UTF-8" standalone="no"?>
<!DOCTYPE svg PUBLIC "-//W3C//DTD SVG 1.1//EN" "http://www.w3.org/Graphics/SVG/1.1/DTD/svg11.dtd">
<svg width="100%" height="100%" viewBox="0 0 29 31" version="1.1" xmlns="http://www.w3.org/2000/svg" xmlns:xlink="http://www.w3.org/1999/xlink" xml:space="preserve" xmlns:serif="http://www.serif.com/" style="fill-rule:evenodd;clip-rule:evenodd;stroke-linejoin:round;stroke-miterlimit:2;">
    <g transform="matrix(1,0,0,1,-928,-752)">
        <g id="ic_category_food_dinner" transform="matrix(1.00088,0,0,0.982935,-0.819698,8.06113)">
            <rect x="928.191" y="757.06" width="28.764" height="30.94" style="fill:none;"/>
            <g transform="matrix(1.76803,0,0,1.44567,309.586,502.657)">
                <g transform="matrix(-0.0352783,0.0256679,0.0205696,0.0438424,377.572,152.179)">
                    <path d="M662.821,158.903C668.318,157.969 672.958,159.655 676.822,162.643C680.911,165.806 683.055,170.883 684.078,176.704C684.568,181.163 683.476,185.385 681.503,189.076C680.631,190.708 679.471,192.171 678.171,193.484C676.031,195.645 673.42,197.386 670.511,198.441C667.722,199.453 664.704,199.968 661.581,199.75C655.421,199.155 649.885,196.623 646.277,192.157C642.874,187.944 640.765,182.62 641.444,176.823C642.139,171.599 644.117,167.244 647.47,164.276C650.709,161.41 654.825,159.762 659.588,160.109C659.729,160.1 659.85,160.207 659.86,160.348C659.869,160.489 659.762,160.611 659.622,160.62C655.575,161.462 652.466,163.691 650.429,166.833C648.651,169.576 648.088,173.012 648.594,176.823C648.994,180.233 651,182.919 653.479,184.918C655.669,186.682 658.562,187.31 661.581,187.018C662.947,186.923 664.167,186.367 665.346,185.823C666.524,185.28 667.559,184.512 668.485,183.636C669.786,182.405 670.97,181.02 671.532,179.27C671.776,178.51 672.13,177.774 672.205,176.942C672.657,173.595 672.439,170.51 670.891,167.991C669.062,165.014 666.579,162.594 662.715,161.62C661.967,161.591 661.383,160.958 661.412,160.209C661.441,159.459 662.073,158.874 662.821,158.903Z"/>
                </g>
                <g transform="matrix(0.462899,0,0,0.502675,37.008,117.395)">
                    <path d="M702.171,148.13L698.63,150.467C697.788,150.01 695.606,148.878 693.887,148.394C692.749,148.074 691.788,148.089 691.381,148.529C691.279,148.631 691.226,148.783 691.238,148.937C691.25,149.092 691.325,149.231 691.441,149.311L691.796,149.535C691.796,149.535 687.996,159.023 687.996,159.023C687.985,159.048 687.994,159.079 688.016,159.092C688.038,159.105 688.066,159.095 688.077,159.069L692.663,149.546C692.708,149.444 692.716,149.331 692.692,149.227C693.148,149.31 693.694,149.515 694.265,149.766C695.777,150.431 697.434,151.467 698.07,151.878C698.073,151.88 698.076,151.882 698.079,151.884C698.263,151.998 698.468,152.045 698.671,152.05C698.876,152.055 699.079,151.992 699.268,151.885L707.18,147.392C707.39,147.273 707.535,147.061 707.626,146.829C707.717,146.596 707.72,146.327 707.657,146.067C707.595,145.806 707.441,145.603 707.259,145.456C707.077,145.309 706.848,145.254 706.613,145.275C706.207,145.311 703.849,145.513 701.699,145.649C700.383,145.732 699.15,145.792 698.524,145.756C698.186,145.738 697.974,145.716 697.816,145.644C697.654,145.569 697.595,145.408 697.442,145.224C697.161,144.884 696.784,144.447 696.151,143.881C696.126,143.859 696.101,143.838 696.075,143.819C694.088,142.375 692.127,142.193 690.441,142.628C688.507,143.127 686.967,144.405 686.193,145.155C686.194,145.155 685.521,144.69 685.521,144.69C685.175,144.417 684.708,144.467 684.412,144.809C684.412,144.809 682.362,147.51 680.9,149.516C680.063,150.665 679.433,151.577 679.433,151.577C679.34,151.685 679.34,151.859 679.434,151.966C679.528,152.072 679.68,152.072 679.773,151.964C679.773,151.964 680.564,151.237 681.561,150.27C682.764,149.102 684.255,147.611 685.062,146.801C685.061,146.801 685.769,147.434 685.769,147.434C686.145,147.73 686.652,147.683 686.981,147.32C686.981,147.32 688.664,145.675 690.892,145.238C692.046,145.012 693.365,145.132 694.691,146.126C695.681,146.984 695.975,147.514 696.347,147.822C696.789,148.189 697.286,148.435 698.458,148.45C699,148.454 699.958,148.381 701.044,148.262C701.408,148.222 701.788,148.177 702.171,148.13ZM706.816,147.492L706.818,147.492L706.816,147.492Z"/>
                </g>
                <g transform="matrix(0.565107,0,0,0.703731,38.6131,62.979)">
                    <path d="M550.942,178.121L550.947,178.122L550.975,178.093C550.985,177.953 551.022,177.82 551.084,177.696C551.143,177.577 551.227,177.472 551.33,177.383C551.429,177.297 551.544,177.236 551.667,177.195C551.785,177.156 551.91,177.142 552.037,177.151C552.799,177.2 553.91,177.281 555.264,177.361C556.235,177.418 557.322,177.476 558.491,177.531C559.319,177.57 560.183,177.608 561.073,177.638C562.333,177.68 563.639,177.719 564.945,177.739C566.703,177.765 568.461,177.763 570.109,177.759C573.463,177.752 576.357,177.707 577.854,177.695C577.909,177.694 577.965,177.701 578.015,177.721C578.067,177.742 578.116,177.77 578.156,177.809L578.183,177.837C576.861,177.858 573.939,177.903 570.479,177.967C562.245,178.119 550.972,178.36 550.972,178.36C550.891,178.36 550.825,178.426 550.825,178.507C550.825,178.588 550.891,178.654 550.972,178.654C550.972,178.654 562.246,178.864 570.48,178.994C574.761,179.062 578.219,179.103 578.841,179.112C579.046,179.114 579.23,179.028 579.366,178.895C579.502,178.763 579.582,178.576 579.585,178.37L579.588,178.114C579.592,177.883 579.546,177.657 579.462,177.447C579.379,177.236 579.251,177.044 579.09,176.878C578.928,176.712 578.735,176.584 578.526,176.494C578.316,176.403 578.088,176.357 577.855,176.354C577.855,176.354 577.855,176.354 577.855,176.354C576.359,176.338 573.465,176.287 570.11,176.272C568.463,176.264 566.705,176.258 564.947,176.281C563.64,176.297 562.335,176.333 561.074,176.372C560.185,176.4 559.32,176.436 558.492,176.473C557.323,176.526 556.235,176.581 555.265,176.636C553.91,176.713 552.799,176.791 552.038,176.839C551.873,176.85 551.714,176.889 551.57,176.962C551.429,177.033 551.301,177.128 551.197,177.251C551.095,177.37 551.018,177.504 550.971,177.651C550.926,177.793 550.906,177.942 550.919,178.094L550.92,178.094L550.919,178.094C550.919,178.108 550.929,178.119 550.942,178.121Z"/>
                </g>
                <g transform="matrix(0.496705,-5.27185e-18,4.23337e-18,-0.661598,76.7125,304.562)">
                    <path d="M580.715,176.883C580.866,180.78 579.343,184.359 576.78,187.013C574.107,189.782 570.297,191.512 566.05,191.634C563.487,191.68 561.046,191.142 558.906,190.101C557.44,189.387 556.103,188.45 554.99,187.312C554.3,186.607 553.696,185.828 553.193,184.988C552.7,184.164 552.299,183.294 552.005,182.375C551.832,181.837 551.69,181.295 551.598,180.733C551.393,179.478 551.385,178.205 551.567,176.883C551.567,176.862 551.586,176.844 551.609,176.844C551.632,176.844 551.651,176.862 551.651,176.883C551.825,178.154 552.191,179.326 552.675,180.459C552.882,180.944 553.112,181.408 553.362,181.867C553.778,182.63 554.27,183.335 554.807,184.012C555.341,184.685 555.938,185.302 556.572,185.884C557.582,186.81 558.711,187.612 559.959,188.24C561.788,189.16 563.844,189.738 566.05,189.778C569.838,189.887 573.304,188.497 575.86,186.183C578.453,183.835 580.126,180.562 580.269,176.883C580.269,176.768 580.369,176.675 580.492,176.675C580.615,176.675 580.715,176.768 580.715,176.883Z"/>
                </g>
            </g>
        </g>
    </g>
</svg>
