<?xml version="1.0" encoding="UTF-8" standalone="no"?>
<!DOCTYPE svg PUBLIC "-//W3C//DTD SVG 1.1//EN" "http://www.w3.org/Graphics/SVG/1.1/DTD/svg11.dtd">
<svg width="100%" height="100%" viewBox="0 0 31 30" version="1.1" xmlns="http://www.w3.org/2000/svg" xmlns:xlink="http://www.w3.org/1999/xlink" xml:space="preserve" xmlns:serif="http://www.serif.com/" style="fill-rule:evenodd;clip-rule:evenodd;stroke-linejoin:round;stroke-miterlimit:2;">
    <g transform="matrix(1,0,0,1,-842,-752)">
        <g id="ic_category_food_lunch" transform="matrix(0.714824,0,0,0.710583,240.919,217.586)">
            <rect x="841.213" y="752.363" width="41.736" height="41.699" style="fill:none;"/>
            <g transform="matrix(2.47554,0,0,1.99976,86.4292,445.651)">
                <g transform="matrix(0.000615504,-0.660759,0.207779,-0.000766491,299.687,675.096)">
                    <path d="M776.953,55.562L780.954,55.119C781.016,55.119 781.067,54.99 781.068,54.83C781.068,54.67 781.017,54.54 780.955,54.54L776.956,54.082C776.796,54.082 776.665,54.413 776.665,54.821C776.664,55.23 776.793,55.562 776.953,55.562Z"/>
                </g>
                <g transform="matrix(0.000615504,-0.660759,0.207779,-0.000766491,300.316,675.096)">
                    <path d="M776.953,55.562L780.954,55.119C781.016,55.119 781.067,54.99 781.068,54.83C781.068,54.67 781.017,54.54 780.955,54.54L776.956,54.082C776.796,54.082 776.665,54.413 776.665,54.821C776.664,55.23 776.793,55.562 776.953,55.562Z"/>
                </g>
                <g transform="matrix(0.168143,-0.20939,0.168143,0.20939,181.538,252.1)">
                    <path d="M598.775,169.496L598.774,169.493L598.689,171.176C598.664,171.785 598.494,172.366 598.239,172.905C597.989,173.435 597.636,173.916 597.19,174.315C596.78,174.701 596.304,175.136 595.801,175.622C594.833,176.556 593.732,177.639 592.637,178.757C589.342,182.122 586.054,185.686 586.054,185.686C585.96,185.773 585.954,185.921 586.042,186.015C586.13,186.11 586.277,186.115 586.371,186.028C586.371,186.028 590.169,183.013 593.769,179.976C594.965,178.968 596.127,177.949 597.13,177.054C597.652,176.588 598.121,176.146 598.537,175.765C599.161,175.162 599.662,174.452 599.978,173.663C600.291,172.881 600.443,172.036 600.407,171.176L600.338,169.789C600.836,169.311 601.921,168.268 603.1,167.111C605.216,165.035 607.617,162.619 607.617,162.619C607.636,162.603 607.638,162.575 607.622,162.557C607.606,162.538 607.579,162.536 607.56,162.552C607.56,162.552 604.805,164.555 602.429,166.328C600.618,167.679 599.045,168.888 599.045,168.888C598.881,169.028 598.783,169.231 598.775,169.446C598.775,169.463 598.774,169.479 598.775,169.496Z"/>
                </g>
                <g transform="matrix(0.168143,-0.20939,0.168143,0.20939,181.538,252.1)">
                    <path d="M605.213,174.615L603.781,174.567C602.931,174.543 602.098,174.704 601.324,175.012C600.542,175.322 599.832,175.802 599.225,176.408C597.971,177.721 596.047,179.641 594.115,181.757C591.316,184.824 588.457,188.243 586.813,190.127C586.813,190.127 586.813,190.127 586.813,190.127C586.691,190.271 586.551,190.397 586.386,190.481C586.215,190.568 586.032,190.633 585.837,190.647C585.636,190.663 585.436,190.647 585.248,190.585C585.055,190.521 584.871,190.427 584.714,190.29L584.545,190.141C584.382,189.999 584.246,189.833 584.153,189.642C584.057,189.446 583.994,189.234 583.981,189.012C583.968,188.784 583.996,188.558 584.07,188.347C584.147,188.129 584.261,187.925 584.418,187.75C584.865,187.253 585.299,186.771 585.504,186.543C585.541,186.501 585.57,186.449 585.591,186.429C585.614,186.436 585.631,186.439 585.612,186.422C585.606,186.416 585.599,186.42 585.591,186.429C585.565,186.421 585.532,186.408 585.532,186.408C585.599,186.289 585.557,186.289 585.532,186.315C585.527,186.319 585.523,186.325 585.52,186.331L585.521,186.334L585.516,186.342L585.513,186.356L585.512,186.351L585.511,186.347L585.515,186.343L585.516,186.342L585.517,186.336L585.52,186.331L585.518,186.326C585.513,186.321 585.508,186.312 585.506,186.321L585.511,186.347C585.49,186.367 585.438,186.395 585.395,186.431C585.162,186.63 584.669,187.052 584.161,187.487C583.94,187.676 583.766,187.909 583.639,188.164C583.509,188.426 583.438,188.714 583.42,189.011C583.4,189.314 583.45,189.613 583.548,189.894C583.648,190.182 583.812,190.443 584.019,190.674L584.17,190.842C584.383,191.078 584.643,191.258 584.925,191.391C585.213,191.527 585.528,191.595 585.852,191.609C586.182,191.624 586.505,191.56 586.809,191.448C587.119,191.334 587.397,191.148 587.643,190.918C589.446,189.186 592.723,186.166 595.652,183.222C597.673,181.19 599.498,179.176 600.749,177.861C601.137,177.432 601.599,177.085 602.114,176.847C602.635,176.604 603.201,176.453 603.788,176.432L605.555,176.36L605.55,176.358L605.6,176.358C605.84,176.35 606.066,176.242 606.223,176.061L612.773,167.735C612.9,167.59 612.885,167.369 612.739,167.242C612.593,167.115 612.372,167.131 612.246,167.277L605.213,174.615Z"/>
                </g>
                <g transform="matrix(-0.352121,0.369677,0.309821,0.45765,475.737,-95.0365)">
                    <path d="M560.301,95.523C565.231,95.359 569.761,97.143 573.093,100.148C576.5,103.222 578.614,107.574 578.742,112.405C578.803,117.303 576.797,121.786 573.452,125.007C570.102,128.233 565.421,130.173 560.301,130.14C555.255,130.065 550.595,128.068 547.275,124.853C543.949,121.632 541.957,117.214 542.262,112.379C542.576,107.612 544.285,103.73 547.232,100.882C550.043,98.166 553.977,96.39 558.889,95.708C558.94,95.7 558.989,95.733 558.998,95.783C559.006,95.832 558.972,95.878 558.92,95.887C554.167,96.756 550.406,98.628 547.789,101.389C545.131,104.194 543.676,107.92 543.581,112.432C543.477,116.829 545.436,120.77 548.558,123.594C551.616,126.359 555.806,128.041 560.301,127.975C564.772,127.945 568.782,126.152 571.722,123.349C574.668,120.539 576.564,116.699 576.617,112.405C576.733,108.044 574.977,104.064 572.081,101.118C569.112,98.096 564.967,96.14 560.301,95.984C560.168,95.984 560.06,95.881 560.06,95.754C560.06,95.626 560.168,95.523 560.301,95.523Z"/>
                </g>
                <g transform="matrix(-0.260831,-0.273835,0.229497,-0.339,433.623,355.092)">
                    <path d="M560.301,95.909C565.009,96.015 569.22,97.941 572.246,100.96C575.221,103.93 577.042,107.968 576.962,112.405C576.926,116.797 575.014,120.742 572.003,123.618C568.996,126.49 564.877,128.306 560.301,128.326C555.717,128.372 551.452,126.635 548.35,123.798C545.193,120.912 543.232,116.892 543.367,112.423C543.496,107.871 544.995,104.119 547.699,101.306C550.346,98.553 554.137,96.697 558.915,95.858C558.95,95.852 558.973,95.821 558.967,95.787C558.962,95.754 558.929,95.732 558.894,95.737C554.009,96.45 550.101,98.241 547.323,100.965C544.424,103.806 542.753,107.663 542.477,112.388C542.206,117.152 544.19,121.494 547.484,124.648C550.763,127.788 555.345,129.738 560.301,129.788C565.316,129.81 569.887,127.894 573.171,124.737C576.451,121.584 578.437,117.205 578.397,112.405C578.312,107.651 576.249,103.361 572.929,100.306C569.658,97.297 565.187,95.488 560.301,95.598C560.211,95.598 560.138,95.668 560.138,95.754C560.138,95.84 560.211,95.909 560.301,95.909Z"/>
                </g>
                <g transform="matrix(0.164928,-0.205386,0.164928,0.205386,186.96,250.523)">
                    <path d="M598.765,173.156L588.226,183.396C588.081,183.529 588.071,183.755 588.204,183.9C588.338,184.045 588.563,184.054 588.708,183.921L600.073,174.046L599.709,174.039C600.019,173.981 600.315,173.807 600.327,173.357C600.331,173.167 600.342,172.767 600.354,172.292C600.374,171.5 600.558,170.731 600.87,170.018C601.179,169.313 601.626,168.671 602.188,168.124C602.188,168.124 603.516,166.834 603.516,166.834C604.114,166.25 604.819,165.803 605.581,165.5C606.337,165.199 607.153,165.051 607.982,165.064C607.982,165.064 607.985,165.064 607.985,165.064C608.5,165.071 608.96,165.293 609.295,165.634C609.624,165.97 609.82,166.434 609.816,166.942C609.816,166.942 609.815,167.083 609.815,167.083C609.811,167.87 609.65,168.639 609.357,169.354C609.064,170.067 608.636,170.725 608.086,171.286C608.086,171.286 606.746,172.665 606.746,172.665C606.22,173.214 605.597,173.647 604.914,173.946C604.228,174.247 603.485,174.422 602.721,174.437L602.666,174.438C602.161,174.451 601.667,174.557 601.216,174.762C600.768,174.966 600.356,175.253 600.017,175.623C600.017,175.623 586.859,190.238 586.859,190.238C586.729,190.384 586.577,190.505 586.404,190.588C586.228,190.673 586.037,190.728 585.838,190.738C585.636,190.748 585.436,190.722 585.249,190.655C585.059,190.586 584.88,190.484 584.729,190.345L584.506,190.14C584.35,189.996 584.223,189.826 584.136,189.636C584.049,189.444 583.995,189.234 583.99,189.018C583.984,188.798 584.019,188.582 584.098,188.381C584.177,188.177 584.295,187.988 584.451,187.828C584.451,187.828 587.69,184.491 587.69,184.491C587.717,184.466 587.718,184.423 587.692,184.396C587.666,184.369 587.624,184.369 587.597,184.394L584.116,187.478C583.898,187.672 583.727,187.909 583.604,188.168C583.48,188.43 583.412,188.718 583.399,189.014C583.386,189.313 583.439,189.607 583.542,189.882C583.646,190.161 583.809,190.415 584.018,190.636C584.018,190.636 584.225,190.855 584.225,190.855C584.435,191.077 584.688,191.248 584.962,191.369C585.24,191.491 585.542,191.554 585.851,191.559C586.164,191.565 586.469,191.503 586.754,191.389C587.043,191.275 587.304,191.099 587.53,190.877L601.495,177.032C601.651,176.875 601.84,176.76 602.041,176.678C602.239,176.597 602.455,176.565 602.674,176.568C602.674,176.568 602.728,176.569 602.728,176.569C603.784,176.582 604.82,176.378 605.779,175.987C606.741,175.593 607.62,175.001 608.369,174.25C608.369,174.25 609.715,172.877 609.715,172.877C610.47,172.1 611.061,171.193 611.457,170.207C611.853,169.222 612.057,168.16 612.048,167.078C612.048,167.078 612.046,166.938 612.046,166.938C612.033,165.821 611.578,164.811 610.837,164.088C610.101,163.369 609.095,162.922 607.985,162.936L607.982,162.936C606.874,162.954 605.791,163.185 604.796,163.621C603.806,164.054 602.899,164.677 602.139,165.475C602.139,165.475 600.866,166.819 600.866,166.819C600.164,167.56 599.613,168.419 599.254,169.355C598.898,170.283 598.717,171.279 598.742,172.292L598.765,173.156Z"/>
                </g>
            </g>
        </g>
    </g>
</svg>
