<?xml version="1.0" encoding="UTF-8" standalone="no"?>
<!DOCTYPE svg PUBLIC "-//W3C//DTD SVG 1.1//EN" "http://www.w3.org/Graphics/SVG/1.1/DTD/svg11.dtd">
<svg width="100%" height="100%" viewBox="0 0 33 17" version="1.1" xmlns="http://www.w3.org/2000/svg" xmlns:xlink="http://www.w3.org/1999/xlink" xml:space="preserve" xmlns:serif="http://www.serif.com/" style="fill-rule:evenodd;clip-rule:evenodd;stroke-linejoin:round;stroke-miterlimit:2;">
    <g transform="matrix(1,0,0,1,-1004,-752)">
        <g id="ic_category_food_dining_out" transform="matrix(0.99808,0,0,0.995133,1.95,-8.27104)">
            <rect x="1004.95" y="764.193" width="31.162" height="15.891" style="fill:none;"/>
            <g transform="matrix(1.77298,0,0,1.42795,418.531,504.953)">
                <g transform="matrix(0.347111,0,0,1.33572,171.922,-62.2723)">
                    <path d="M481.781,190.007C481.781,190.007 481.789,189.033 481.686,187.929C481.551,186.48 481.246,184.812 481.246,184.812L480.663,184.812C480.663,184.812 480.358,186.48 480.222,187.929C480.119,189.033 480.127,190.007 480.127,190.007L481.781,190.007Z"/>
                </g>
                <g transform="matrix(0.331537,0.110691,-0.209429,0.727156,212.004,0.898393)">
                    <path d="M481.793,190.045C481.793,190.045 481.802,189.071 481.697,187.963C481.559,186.503 481.25,184.825 481.25,184.825C481.25,184.735 481.118,184.656 480.954,184.649C480.791,184.641 480.659,184.708 480.659,184.798C480.659,184.798 480.349,186.448 480.212,187.895C480.107,188.994 480.115,189.968 480.115,189.968C480.115,190.224 480.491,190.448 480.954,190.469C481.417,190.49 481.793,190.3 481.793,190.045Z"/>
                </g>
                <g transform="matrix(-0.331537,0.110691,0.209429,0.727156,467.093,0.898393)">
                    <path d="M480.115,189.968C480.115,189.968 480.107,188.994 480.212,187.895C480.349,186.448 480.659,184.798 480.659,184.798C480.659,184.708 480.791,184.641 480.954,184.649C481.118,184.656 481.25,184.735 481.25,184.825C481.25,184.825 481.559,186.503 481.697,187.963C481.802,189.071 481.793,190.045 481.793,190.045C481.793,190.3 481.417,190.49 480.954,190.469C480.491,190.448 480.115,190.224 480.115,189.968Z"/>
                </g>
                <g transform="matrix(-0.0319907,0.425994,0.702217,-6.82787e-15,217.817,-13.9677)">
                    <path d="M480.395,189.981C480.395,189.981 480.389,189.007 480.459,187.906C480.551,186.461 480.757,184.803 480.757,184.803C480.757,184.75 480.845,184.711 480.954,184.716C481.063,184.721 481.152,184.768 481.152,184.821C481.152,184.821 481.358,186.498 481.449,187.951C481.519,189.058 481.514,190.032 481.514,190.032C481.514,190.183 481.263,190.293 480.954,190.279C480.646,190.265 480.395,190.132 480.395,189.981Z"/>
                </g>
                <g transform="matrix(0.0319907,0.425994,-0.702217,-6.82787e-15,461.28,-13.9677)">
                    <path d="M481.514,190.032C481.514,190.032 481.519,189.058 481.449,187.951C481.358,186.498 481.152,184.821 481.152,184.821C481.152,184.768 481.063,184.721 480.954,184.716C480.845,184.711 480.757,184.75 480.757,184.803C480.757,184.803 480.551,186.461 480.459,187.906C480.389,189.007 480.395,189.981 480.395,189.981C480.395,190.132 480.646,190.265 480.954,190.279C481.263,190.293 481.514,190.183 481.514,190.032Z"/>
                </g>
                <g transform="matrix(-0.331537,0.110691,0.209429,0.727156,455.99,0.898393)">
                    <path d="M480.115,189.968C480.115,189.968 480.107,188.994 480.212,187.895C480.349,186.448 480.659,184.798 480.659,184.798C480.659,184.708 480.791,184.641 480.954,184.649C481.118,184.656 481.25,184.735 481.25,184.825C481.25,184.825 481.559,186.503 481.697,187.963C481.802,189.071 481.793,190.045 481.793,190.045C481.793,190.3 481.417,190.49 480.954,190.469C480.491,190.448 480.115,190.224 480.115,189.968Z"/>
                </g>
                <g transform="matrix(0.331537,0.110691,-0.209429,0.727156,223.107,0.898393)">
                    <path d="M481.793,190.045C481.793,190.045 481.802,189.071 481.697,187.963C481.559,186.503 481.25,184.825 481.25,184.825C481.25,184.735 481.118,184.656 480.954,184.649C480.791,184.641 480.659,184.708 480.659,184.798C480.659,184.798 480.349,186.448 480.212,187.895C480.107,188.994 480.115,189.968 480.115,189.968C480.115,190.224 480.491,190.448 480.954,190.469C481.417,190.49 481.793,190.3 481.793,190.045Z"/>
                </g>
                <g transform="matrix(0.347111,0,0,1.33572,173.258,-62.2723)">
                    <path d="M481.781,190.007C481.781,190.007 481.789,189.033 481.686,187.929C481.551,186.48 481.246,184.812 481.246,184.812L480.663,184.812C480.663,184.812 480.358,186.48 480.222,187.929C480.119,189.033 480.127,190.007 480.127,190.007L481.781,190.007Z"/>
                </g>
                <g transform="matrix(0.293297,-2.18921e-17,1.52151e-17,-0.470834,201.995,269.334)">
                    <path d="M479.673,179.852L482.946,179.671L482.963,179.674C483.04,179.689 483.351,179.765 483.374,180.049L483.41,180.49C483.43,180.736 483.374,180.977 483.274,181.206C483.171,181.439 482.999,181.65 482.785,181.839C482.565,182.03 482.295,182.175 482.004,182.284C481.707,182.394 481.381,182.447 481.046,182.46C479.857,182.5 478.192,182.571 476.264,182.62C474.787,182.657 473.16,182.69 471.482,182.702C469.584,182.717 467.623,182.705 465.743,182.69C462.304,182.663 459.138,182.6 457.135,182.573C456.317,182.56 455.578,182.301 455.054,181.876C454.537,181.457 454.213,180.888 454.232,180.262C454.235,180.15 454.238,180.066 454.239,180.026C454.253,179.577 454.78,179.478 454.911,179.46L454.941,179.456L479.207,179.977C479.225,179.977 479.24,179.988 479.24,180.002C479.24,180.016 479.225,180.027 479.207,180.027L455.701,180.528C455.774,180.732 455.921,180.912 456.113,181.055C456.377,181.251 456.74,181.361 457.135,181.355C459.138,181.328 462.304,181.265 465.743,181.238C467.623,181.223 469.584,181.211 471.482,181.226C473.16,181.238 474.787,181.271 476.264,181.308C478.192,181.357 479.857,181.428 481.046,181.468C481.216,181.474 481.385,181.463 481.543,181.42C481.705,181.376 481.863,181.317 481.994,181.226C482.131,181.133 482.25,181.027 482.329,180.902C482.41,180.774 482.47,180.636 482.482,180.49L482.497,180.305L479.674,180.155C479.566,180.155 479.478,180.087 479.478,180.004C479.478,179.92 479.565,179.852 479.673,179.852Z"/>
                </g>
                <g transform="matrix(0.178647,-3.37029e-17,2.91134e-17,-0.458092,255.759,274.879)">
                    <path d="M479.673,179.848L482.946,179.667L482.973,179.67C483.094,179.684 483.581,179.759 483.641,180.045C483.655,180.116 483.686,180.264 483.725,180.449C483.831,180.989 483.414,181.483 482.749,181.868C482.05,182.273 480.997,182.505 479.827,182.55C479.827,182.55 479.827,182.55 479.827,182.55C478.638,182.583 477.185,182.635 475.57,182.669C474.233,182.697 472.792,182.721 471.313,182.729C469.624,182.738 467.887,182.725 466.205,182.712C463.315,182.688 460.59,182.639 458.542,182.613C458.542,182.613 458.542,182.613 458.542,182.613C457.192,182.591 455.972,182.323 455.118,181.878C454.281,181.442 453.755,180.858 453.803,180.215C453.811,180.122 453.816,180.054 453.819,180.021C453.854,179.573 454.687,179.476 454.894,179.459L454.941,179.456L479.207,179.976C479.237,179.976 479.26,179.988 479.26,180.002C479.26,180.016 479.237,180.028 479.207,180.028L456.191,180.518C456.325,180.715 456.569,180.887 456.874,181.025C457.307,181.222 457.903,181.325 458.542,181.315C460.59,181.289 463.315,181.24 466.205,181.216C467.887,181.203 469.624,181.19 471.313,181.199C472.792,181.207 474.233,181.231 475.57,181.259C477.185,181.293 478.638,181.345 479.827,181.378C480.385,181.399 480.918,181.334 481.316,181.172C481.757,180.992 482.108,180.75 482.167,180.449L482.199,180.293L479.674,180.159C479.497,180.159 479.353,180.09 479.353,180.004C479.353,179.918 479.496,179.848 479.673,179.848Z"/>
                </g>
                <g transform="matrix(0.632916,0,0,0.599202,43.4321,59.4139)">
                    <path d="M453.975,204.037C453.975,204.037 453.977,204.074 453.98,204.107C453.982,204.13 453.984,204.153 453.987,204.178C454.004,204.395 454.036,204.842 454.091,205.452C454.169,206.314 454.276,207.48 454.416,208.738C454.593,210.316 454.826,212.013 454.999,213.398C455.151,214.41 455.564,215.285 456.137,215.902C456.712,216.521 457.451,216.872 458.238,216.868C458.238,216.868 461.89,216.764 461.89,216.764C462.335,216.749 462.758,216.569 463.104,216.242C463.447,215.919 463.724,215.471 463.875,214.928L463.957,214.633C464.03,214.373 464.058,214.1 464.03,213.834C464.003,213.571 463.934,213.313 463.812,213.09C463.691,212.87 463.538,212.689 463.358,212.572C463.18,212.457 462.982,212.389 462.777,212.397L459.17,212.512C458.952,212.52 458.744,212.44 458.575,212.282C458.401,212.12 458.261,211.89 458.192,211.609C458.192,211.609 456.584,205.017 456.584,205.017C456.507,204.7 456.357,204.434 456.16,204.252C455.968,204.073 455.734,203.971 455.487,203.981C455.487,203.981 454.487,204.018 454.487,204.018C454.473,204.018 454.462,204.033 454.462,204.05C454.462,204.068 454.473,204.083 454.486,204.083L455.486,204.146C455.7,204.159 455.897,204.265 456.053,204.436C456.206,204.601 456.317,204.831 456.366,205.098L457.612,211.824C457.698,212.292 457.903,212.687 458.172,212.977C458.445,213.272 458.793,213.442 459.165,213.462L462.777,213.653C462.822,213.655 462.863,213.679 462.9,213.707C462.936,213.734 462.962,213.779 462.985,213.826C463.007,213.872 463.013,213.925 463.016,213.978C463.019,214.027 463.006,214.076 462.99,214.123C462.99,214.123 462.895,214.411 462.895,214.411C462.808,214.675 462.657,214.882 462.481,215.03C462.309,215.174 462.103,215.243 461.89,215.236L458.238,215.132C457.764,215.129 457.326,214.902 456.975,214.535C456.622,214.166 456.35,213.656 456.241,213.045C455.963,211.689 455.642,210.017 455.307,208.484C455.04,207.262 454.771,206.143 454.571,205.315C454.43,204.73 454.318,204.306 454.266,204.099C454.251,204.038 454.241,203.997 454.235,203.977C454.213,203.89 454.133,203.815 454.076,203.831C454.005,203.851 453.97,203.934 453.975,204.037Z"/>
                </g>
                <g transform="matrix(-0.632916,0,0,0.599202,635.665,59.4139)">
                    <path d="M454.232,203.963C454.232,203.963 454.259,204.071 454.266,204.099C454.318,204.306 454.43,204.73 454.571,205.315C454.771,206.143 455.04,207.262 455.307,208.484C455.642,210.017 455.963,211.689 456.241,213.045C456.35,213.656 456.622,214.166 456.975,214.535C457.326,214.902 457.764,215.129 458.238,215.132L461.89,215.236C462.103,215.243 462.309,215.174 462.481,215.03C462.657,214.882 462.808,214.675 462.895,214.411C462.895,214.411 462.99,214.123 462.99,214.123C463.006,214.076 463.019,214.027 463.016,213.978C463.013,213.925 463.007,213.872 462.985,213.826C462.962,213.779 462.936,213.734 462.9,213.707C462.863,213.679 462.822,213.655 462.777,213.653L462.774,213.653L462.774,213.653L459.165,213.462C458.793,213.442 458.445,213.272 458.172,212.977C457.903,212.687 457.698,212.292 457.612,211.824C457.612,211.824 456.366,205.098 456.366,205.098C456.317,204.831 456.206,204.601 456.053,204.436C455.897,204.265 455.7,204.159 455.486,204.146C455.486,204.146 454.486,204.083 454.486,204.083C454.473,204.083 454.462,204.068 454.462,204.05C454.462,204.033 454.473,204.018 454.487,204.018L455.487,203.981C455.734,203.971 455.968,204.073 456.16,204.252C456.357,204.434 456.507,204.7 456.584,205.017C456.584,205.017 458.192,211.609 458.192,211.609C458.261,211.89 458.401,212.12 458.575,212.282C458.744,212.44 458.952,212.52 459.17,212.512L462.777,212.397L462.777,212.397C462.982,212.389 463.18,212.457 463.358,212.572C463.538,212.689 463.691,212.87 463.812,213.09C463.934,213.313 464.003,213.571 464.03,213.834C464.058,214.1 464.03,214.373 463.957,214.633L463.875,214.928C463.724,215.471 463.447,215.919 463.104,216.242C462.758,216.569 462.335,216.749 461.89,216.764C461.89,216.764 458.238,216.868 458.238,216.868C457.451,216.872 456.712,216.521 456.137,215.902C455.564,215.285 455.151,214.41 454.999,213.398C454.826,212.013 454.593,210.316 454.416,208.738C454.276,207.48 454.169,206.314 454.091,205.452C454.036,204.842 454.004,204.395 453.987,204.178C453.984,204.153 453.985,204.127 453.985,204.106C453.986,204.009 453.997,203.848 454.076,203.831C454.147,203.815 454.209,203.859 454.232,203.963Z"/>
                </g>
            </g>
        </g>
    </g>
</svg>
