<?xml version="1.0" encoding="UTF-8" standalone="no"?>
<!DOCTYPE svg PUBLIC "-//W3C//DTD SVG 1.1//EN" "http://www.w3.org/Graphics/SVG/1.1/DTD/svg11.dtd">
<svg width="100%" height="100%" viewBox="0 0 31 31" version="1.1" xmlns="http://www.w3.org/2000/svg" xmlns:xlink="http://www.w3.org/1999/xlink" xml:space="preserve" xmlns:serif="http://www.serif.com/" style="fill-rule:evenodd;clip-rule:evenodd;stroke-linejoin:round;stroke-miterlimit:2;">
    <g transform="matrix(1,0,0,1,-923,-1793)">
        <g id="ic_transactions_calculator" transform="matrix(1.00283,0,0,1.00094,-2.68025,-3.3618)">
            <rect x="924" y="1795.38" width="29.458" height="29.643" style="fill:none;"/>
            <g transform="matrix(1.76459,0,0,2.9787,24.3438,1390.39)">
                <g transform="matrix(0.991552,0,0,0.467718,49.38,72.6492)">
                    <path d="M480.844,137.956C480.843,137.963 480.843,137.97 480.843,137.977C480.843,138.055 480.893,138.118 480.954,138.118C480.954,138.118 481.064,138.078 481.068,137.923C481.07,137.836 481.074,137.654 481.08,137.434C481.091,136.99 480.953,136.584 480.729,136.284C480.5,135.977 480.176,135.786 479.814,135.772C478.094,135.714 474.709,135.584 471.604,135.495C469.405,135.432 467.35,135.396 466.131,135.368C465.675,135.358 465.262,135.59 464.959,135.96C464.654,136.333 464.468,136.857 464.463,137.434C464.454,139.276 464.419,142.638 464.421,146C464.423,149.362 464.463,152.724 464.474,154.566C464.479,155.14 464.664,155.659 464.967,156.031C465.267,156.4 465.678,156.631 466.131,156.624L479.814,156.363C480.003,156.358 480.188,156.309 480.358,156.216C480.527,156.124 480.682,155.992 480.813,155.822C480.942,155.653 481.044,155.456 481.111,155.242C481.178,155.028 481.213,154.799 481.21,154.566C481.21,154.566 480.975,138.859 480.975,138.859C480.975,138.845 480.966,138.833 480.954,138.833C480.943,138.833 480.933,138.845 480.933,138.859L480.699,154.566C480.697,154.713 480.67,154.856 480.624,154.988C480.579,155.119 480.512,155.237 480.428,155.338C480.346,155.438 480.248,155.514 480.144,155.565C480.04,155.617 479.928,155.64 479.814,155.637C479.814,155.637 466.131,155.376 466.131,155.376C465.954,155.373 465.797,155.276 465.683,155.129C465.571,154.984 465.506,154.784 465.508,154.566C465.519,152.724 465.558,149.362 465.561,146C465.563,142.638 465.528,139.276 465.519,137.434C465.517,137.22 465.58,137.023 465.69,136.88C465.803,136.734 465.957,136.636 466.131,136.632C467.35,136.604 469.405,136.568 471.604,136.505C474.709,136.416 478.094,136.286 479.814,136.228C480.083,136.217 480.33,136.342 480.512,136.556C480.699,136.777 480.82,137.086 480.829,137.434C480.834,137.654 480.839,137.836 480.841,137.923C480.841,137.935 480.842,137.946 480.844,137.956Z"/>
                </g>
                <g transform="matrix(0.936527,0.00571532,-0.0045777,1.16927,58.8673,72.6514)">
                    <path d="M491.333,59.998C491.333,59.998 491.33,58.498 491.271,56.798C491.193,54.57 491.03,51.999 491.03,51.999C491.029,51.961 490.965,51.931 490.885,51.932C490.806,51.932 490.741,51.963 490.742,52.001C490.742,52.001 490.603,54.573 490.547,56.802C490.505,58.502 490.516,60.002 490.516,60.002C490.517,60.109 490.7,60.195 490.926,60.194C491.151,60.193 491.334,60.105 491.333,59.998Z"/>
                </g>
                <g transform="matrix(-0.00962951,-0.555849,-1.97005,0.00271696,633.441,413.668)">
                    <path d="M490.516,60.002C490.516,60.002 490.505,58.502 490.547,56.802C490.603,54.573 490.742,52.001 490.742,52.001C490.741,51.963 490.806,51.932 490.885,51.932C490.965,51.931 491.029,51.961 491.03,51.999C491.03,51.999 491.193,54.57 491.271,56.798C491.33,58.498 491.333,59.998 491.333,59.998C491.334,60.105 491.151,60.193 490.926,60.194C490.7,60.195 490.517,60.109 490.516,60.002Z"/>
                </g>
                <g transform="matrix(-0.00247959,0.67547,-0.507286,-0.00330166,544.206,-192.64)">
                    <path d="M491.177,59.999C491.177,59.999 491.172,58.499 491.132,56.799C491.08,54.565 490.974,52 490.974,52C490.974,51.889 490.934,51.8 490.885,51.801C490.836,51.801 490.796,51.89 490.797,52C490.797,52 490.716,54.567 490.686,56.801C490.663,58.501 490.672,60.001 490.672,60.001C490.674,60.313 490.788,60.566 490.927,60.566C491.067,60.565 491.178,60.311 491.177,59.999Z"/>
                </g>
                <g transform="matrix(1.13807,0.00147169,-0.00556284,0.301085,-43.7933,121.097)">
                    <path d="M491.177,59.999C491.177,59.999 491.172,58.499 491.132,56.799C491.08,54.565 490.974,52 490.974,52C490.974,51.889 490.934,51.8 490.885,51.801C490.836,51.801 490.796,51.89 490.797,52C490.797,52 490.716,54.567 490.686,56.801C490.663,58.501 490.672,60.001 490.672,60.001C490.674,60.313 490.788,60.566 490.927,60.566C491.067,60.565 491.178,60.311 491.177,59.999Z"/>
                </g>
                <g transform="matrix(0.806491,-0.476589,0.354772,0.215234,98.6326,365.236)">
                    <path d="M491.177,59.999C491.177,59.999 491.172,58.499 491.132,56.799C491.08,54.565 490.974,52 490.974,52C490.974,51.889 490.934,51.8 490.885,51.801C490.836,51.801 490.796,51.89 490.797,52C490.797,52 490.716,54.567 490.686,56.801C490.663,58.501 490.672,60.001 490.672,60.001C490.674,60.313 490.788,60.566 490.927,60.566C491.067,60.565 491.178,60.311 491.177,59.999Z"/>
                </g>
                <g transform="matrix(-0.802985,-0.47867,0.362639,-0.210565,888.292,390.103)">
                    <path d="M491.177,59.999C491.177,59.999 491.172,58.499 491.132,56.799C491.08,54.565 490.974,52 490.974,52C490.974,51.889 490.934,51.8 490.885,51.801C490.836,51.801 490.796,51.89 490.797,52C490.797,52 490.716,54.567 490.686,56.801C490.663,58.501 490.672,60.001 490.672,60.001C490.674,60.313 490.788,60.566 490.927,60.566C491.067,60.565 491.178,60.311 491.177,59.999Z"/>
                </g>
                <g transform="matrix(0.00248593,0.555849,0.508584,-0.00271696,492.769,-133.951)">
                    <path d="M490.618,60.001C490.618,60.001 490.62,58.502 490.637,56.801C490.658,54.572 490.701,52.001 490.701,52.001C490.7,51.813 490.782,51.66 490.884,51.66C490.986,51.659 491.069,51.811 491.07,51.999C491.07,51.999 491.138,54.57 491.181,56.799C491.214,58.499 491.231,59.999 491.231,59.999C491.233,60.31 491.097,60.563 490.927,60.564C490.758,60.565 490.62,60.313 490.618,60.001Z"/>
                </g>
                <g transform="matrix(-0.00248593,0.555849,-0.508584,-0.00271696,552.243,-129.813)">
                    <path d="M491.231,59.999C491.231,59.999 491.227,58.498 491.18,56.799C491.119,54.565 490.994,51.999 490.994,51.999C490.993,51.89 490.944,51.801 490.885,51.801C490.825,51.801 490.777,51.891 490.778,52.001C490.778,52.001 490.677,54.567 490.638,56.801C490.608,58.501 490.618,60.001 490.618,60.001C490.62,60.313 490.758,60.565 490.927,60.564C491.097,60.563 491.233,60.31 491.231,59.999Z"/>
                </g>
                <g transform="matrix(0.00248593,0.555849,0.508584,-0.00271696,492.615,-128.961)">
                    <path d="M490.618,60.001C490.618,60.001 490.608,58.501 490.638,56.801C490.677,54.567 490.778,52.001 490.778,52.001C490.777,51.891 490.825,51.801 490.885,51.801C490.944,51.801 490.993,51.89 490.994,51.999C490.994,51.999 491.119,54.565 491.18,56.799C491.227,58.498 491.231,59.999 491.231,59.999C491.233,60.31 491.097,60.563 490.927,60.564C490.758,60.565 490.62,60.313 490.618,60.001Z"/>
                </g>
            </g>
        </g>
    </g>
</svg>
