<?xml version="1.0" encoding="UTF-8" standalone="no"?>
<!DOCTYPE svg PUBLIC "-//W3C//DTD SVG 1.1//EN" "http://www.w3.org/Graphics/SVG/1.1/DTD/svg11.dtd">
<svg width="100%" height="100%" viewBox="0 0 32 32" version="1.1" xmlns="http://www.w3.org/2000/svg" xmlns:xlink="http://www.w3.org/1999/xlink" xml:space="preserve" xmlns:serif="http://www.serif.com/" style="fill-rule:evenodd;clip-rule:evenodd;stroke-linejoin:round;stroke-miterlimit:2;">
    <g transform="matrix(1,0,0,1,-600,-1484)">
        <g id="ic_category_groups_lifestyle" transform="matrix(1.00017,0,0,1.00062,-0.105801,-1.66665)">
            <rect x="600.954" y="1484.81" width="30.887" height="30.954" style="fill:none;"/>
            <g transform="matrix(1.76927,0,0,2.97963,90.0838,1151.14)">
                <g transform="matrix(0.00240166,-1.03196,0.479085,-0.00142543,271.235,922.596)">
                    <path d="M776.953,55.621C776.953,55.621 777.703,55.61 778.553,55.534C779.668,55.435 780.954,55.236 780.954,55.236C781.015,55.236 781.066,55.054 781.066,54.83C781.067,54.605 781.017,54.423 780.955,54.423C780.955,54.423 779.67,54.22 778.556,54.116C777.706,54.037 776.956,54.023 776.956,54.023C776.834,54.023 776.735,54.381 776.734,54.821C776.733,55.262 776.831,55.62 776.953,55.621Z"/>
                </g>
                <g transform="matrix(0.899206,-0.155358,0.125662,0.263575,-146.835,176.558)">
                    <path d="M491.333,59.998C491.333,59.998 491.33,58.497 491.271,56.798C491.193,54.556 491.03,51.999 491.03,51.999C491.029,51.838 490.964,51.707 490.884,51.708C490.805,51.708 490.741,51.839 490.742,52.001C490.742,52.001 490.604,54.559 490.547,56.802C490.505,58.501 490.516,60.002 490.516,60.002C490.518,60.46 490.703,60.83 490.929,60.829C491.154,60.828 491.335,60.456 491.333,59.998Z"/>
                </g>
                <g transform="matrix(0.911297,0.128152,-0.0412723,0.0919476,-148.657,47.8894)">
                    <path d="M491.004,61.742L491.004,61.742L491.004,61.743L491.004,61.742C491.138,61.555 491.235,60.845 491.231,59.999L491.228,60.022C491.229,59.914 491.229,59.8 491.228,59.679C491.221,59.147 491.214,58.021 491.18,56.799C491.117,54.504 490.994,51.999 490.994,51.999C490.992,51.651 490.942,51.368 490.882,51.369C490.823,51.369 490.776,51.652 490.778,52.001C490.778,52.001 490.679,54.506 490.638,56.801C490.616,58.024 490.62,59.15 490.618,59.682C490.618,59.823 490.626,59.971 490.618,59.969C490.301,59.919 490.996,61.724 491.004,61.742ZM491.004,61.742L491.004,61.743L491.004,61.742L491.004,61.742C490.623,60.99 490.764,61.792 490.933,61.791C490.958,61.791 490.981,61.774 491.004,61.742Z"/>
                </g>
                <g transform="matrix(0.936518,0.00257699,-0.00530667,0.12117,-161.223,107.44)">
                    <path d="M491.231,59.999C491.231,59.999 491.227,58.494 491.18,56.799C491.118,54.529 490.994,51.999 490.994,51.999C490.992,51.726 490.943,51.504 490.883,51.504C490.824,51.505 490.776,51.727 490.778,52.001C490.778,52.001 490.678,54.531 490.638,56.801C490.608,58.497 490.618,60.001 490.618,60.001C490.622,60.777 490.762,61.406 490.932,61.406C491.101,61.405 491.235,60.774 491.231,59.999Z"/>
                </g>
                <g transform="matrix(0.565107,0,0,0.335403,-166.601,36.4949)">
                    <path d="M818.363,231.634C818.363,231.634 819.831,230.592 821.111,229.617C821.889,229.025 822.591,228.45 822.895,228.21C822.895,228.21 823.255,227.851 823.255,227.851L824.54,226.227C824.629,226.113 824.746,226.029 824.879,226.003C825.021,225.976 825.173,225.985 825.306,226.063C825.306,226.063 825.307,226.063 825.307,226.063C825.391,226.112 825.467,226.172 825.52,226.25C825.576,226.331 825.622,226.42 825.639,226.519C825.656,226.622 825.657,226.726 825.629,226.823C825.601,226.924 825.556,227.022 825.485,227.103C825.485,227.103 824.274,228.483 824.274,228.483C824.182,228.578 824.185,228.729 824.279,228.821C824.373,228.913 824.525,228.911 824.617,228.816L825.963,227.568C826.118,227.424 826.229,227.246 826.306,227.054C826.384,226.86 826.41,226.647 826.397,226.433C826.383,226.215 826.313,226.009 826.21,225.822C826.105,225.633 825.951,225.474 825.77,225.345C825.77,225.345 825.769,225.344 825.769,225.344C825.463,225.127 825.097,225.054 824.747,225.088C824.388,225.124 824.05,225.299 823.786,225.579L822.374,227.094L822.165,227.278C821.86,227.516 821.133,228.059 820.372,228.673C819.118,229.682 817.754,230.857 817.754,230.857C817.54,231.025 817.502,231.336 817.67,231.55C817.838,231.764 818.148,231.802 818.363,231.634Z"/>
                </g>
                <g transform="matrix(0.565107,0,0,0.335403,-166.601,36.4949)">
                    <path d="M816.324,228.117L816.324,228.117C816.41,228.217 816.435,228.348 816.428,228.471C816.422,228.588 816.358,228.696 816.266,228.781C816.266,228.781 813.38,231.466 813.38,231.466C813.108,231.73 813.026,232.134 813.174,232.483C813.322,232.831 813.669,233.053 814.048,233.041L819.244,232.947C819.588,232.938 819.929,232.889 820.26,232.802C820.591,232.716 820.912,232.591 821.217,232.43L826.762,229.407C826.811,229.38 826.861,229.354 826.916,229.348C826.973,229.341 827.031,229.337 827.087,229.354C827.144,229.371 827.201,229.392 827.246,229.429C827.292,229.467 827.338,229.51 827.366,229.565C827.366,229.565 827.371,229.574 827.371,229.574C827.427,229.682 827.452,229.8 827.423,229.91C827.392,230.025 827.332,230.138 827.225,230.207L819.994,235.046C819.994,235.046 819.713,235.194 819.713,235.194C818.368,235.681 817.024,236.165 815.863,236.69C814.895,237.128 814.056,237.589 813.448,238.1C813.446,238.101 813.445,238.103 813.444,238.104C813.219,238.303 813.024,238.53 812.87,238.784C812.717,239.034 812.601,239.306 812.529,239.594C812.531,239.588 811.992,241.581 811.992,241.581C811.986,241.6 811.997,241.621 812.016,241.627C812.036,241.633 812.057,241.622 812.062,241.602L812.791,239.674C812.881,239.424 813.008,239.193 813.164,238.983C813.319,238.776 813.504,238.593 813.714,238.438C814.327,238.009 815.161,237.646 816.113,237.312C817.297,236.897 818.658,236.538 820.021,236.176L820.554,235.951L828.109,231.634C828.595,231.349 828.922,230.893 829.081,230.39C829.242,229.881 829.204,229.316 828.967,228.797L828.963,228.787C828.836,228.51 828.649,228.27 828.429,228.069C828.207,227.866 827.941,227.716 827.651,227.614C827.361,227.512 827.054,227.48 826.753,227.499C826.45,227.518 826.153,227.607 825.876,227.746L820.277,230.668C820.108,230.759 819.931,230.832 819.747,230.882C819.563,230.932 819.373,230.964 819.181,230.971L816.317,231.102C816.317,231.102 817.427,229.977 817.427,229.977C817.824,229.57 818.041,229.05 818.043,228.521C818.046,227.999 817.868,227.47 817.479,227.065C817.479,227.065 817.478,227.063 817.478,227.063C817.122,226.693 816.663,226.468 816.182,226.427C815.707,226.386 815.215,226.497 814.805,226.797L810.499,229.926C809.651,230.525 808.752,231.962 807.997,233.589C806.727,236.324 805.783,239.544 805.783,239.544C805.749,239.647 805.805,239.758 805.907,239.793C806.01,239.827 806.121,239.771 806.156,239.669C806.156,239.669 807.324,236.577 808.758,233.975C809.52,232.593 810.341,231.346 811.12,230.869L815.639,228.001C815.752,227.927 815.886,227.913 816.011,227.931C816.131,227.947 816.238,228.018 816.322,228.115L816.324,228.117Z"/>
                </g>
                <g transform="matrix(0.565107,0,0,0.335403,-166.601,36.4949)">
                    <path d="M821.537,237.506L826.671,237.74C826.815,237.746 826.94,237.818 827.035,237.914C827.125,238.004 827.171,238.131 827.177,238.268C827.177,238.268 827.177,238.268 827.177,238.268C827.258,240.037 827.413,244.059 827.609,247.733C827.746,250.307 827.911,252.704 827.991,254.036L827.98,254.044L827.972,254.041C827.11,254.044 825.843,254.035 824.576,254.054C823.308,254.073 822.041,254.119 821.179,254.141C821.179,254.141 821.084,254.125 821.084,254.125L821.025,254.025C821.086,252.39 821.224,249.163 821.32,246.025C821.446,241.932 821.517,238.016 821.517,238.016C821.519,237.996 821.504,237.978 821.483,237.977C821.463,237.975 821.445,237.99 821.444,238.01C821.444,238.01 820.88,241.885 820.342,245.945C819.93,249.058 819.544,252.265 819.339,253.888C819.31,254.145 819.347,254.401 819.422,254.643C819.498,254.886 819.633,255.109 819.803,255.306C819.975,255.504 820.191,255.653 820.423,255.763C820.657,255.874 820.915,255.926 821.179,255.934C821.179,255.934 821.179,255.934 821.179,255.934C822.041,255.956 823.308,256.002 824.576,256.021C825.843,256.039 827.11,256.031 827.972,256.034C828.251,256.032 828.524,255.975 828.773,255.863C829.022,255.751 829.25,255.592 829.436,255.385C829.623,255.179 829.766,254.941 829.851,254.682C829.937,254.425 829.973,254.15 829.947,253.874C829.808,252.547 829.576,250.155 829.288,247.594C828.877,243.938 828.369,239.945 828.158,238.186C828.111,237.805 827.935,237.466 827.661,237.234C827.393,237.006 827.047,236.863 826.671,236.879C826.671,236.879 821.537,237.113 821.537,237.113C821.428,237.113 821.34,237.201 821.34,237.309C821.34,237.418 821.428,237.506 821.537,237.506Z"/>
                </g>
                <g transform="matrix(0.565107,0,0,0.335403,-161.025,36.4126)">
                    <path d="M818.059,238.68L820.642,238.077C820.788,238.042 820.929,238.093 821.048,238.165C821.154,238.228 821.213,238.347 821.247,238.476C821.476,239.342 821.813,240.711 822.246,242.252C822.582,243.451 822.957,244.75 823.355,245.991C823.574,246.674 823.799,247.339 824.033,247.955C824.481,249.139 824.937,250.143 825.225,250.841C825.225,250.841 825.275,251.037 825.275,251.037C825.259,251.076 825.256,251.122 825.227,251.151C825.194,251.184 825.172,251.231 825.128,251.249C825.128,251.249 820.318,253.308 820.318,253.308C820.298,253.313 820.287,253.334 820.293,253.353C820.299,253.373 820.319,253.384 820.339,253.378L825.494,252.487C825.718,252.444 825.916,252.334 826.101,252.208C826.29,252.08 826.432,251.896 826.556,251.698C826.683,251.497 826.741,251.268 826.778,251.038C826.816,250.803 826.779,250.565 826.721,250.329C826.521,249.601 826.265,248.528 825.894,247.318C825.701,246.688 825.471,246.024 825.226,245.35C824.78,244.126 824.28,242.87 823.811,241.716C823.207,240.233 822.635,238.945 822.285,238.121C822.12,237.738 821.843,237.435 821.484,237.29C821.139,237.151 820.746,237.112 820.376,237.266L817.937,238.307C817.834,238.341 817.778,238.452 817.811,238.555C817.845,238.658 817.956,238.714 818.059,238.68Z"/>
                </g>
                <g transform="matrix(-0.565107,0,0,0.335403,759.573,36.6042)">
                    <path d="M817.838,238.259L819.994,237.704C820.348,237.615 820.701,237.694 821.004,237.852C821.32,238.017 821.55,238.314 821.685,238.67C821.685,238.67 821.685,238.67 821.685,238.67C821.986,239.482 822.5,240.791 823.035,242.311C823.444,243.474 823.872,244.747 824.26,245.988C824.363,246.32 824.46,246.652 824.548,246.979C824.688,247.498 824.813,248.003 824.922,248.483C825.148,249.487 825.304,250.369 825.436,251.02C825.483,251.269 825.505,251.519 825.443,251.759C825.383,251.993 825.3,252.223 825.143,252.414C824.989,252.599 824.821,252.767 824.608,252.868C824.402,252.966 824.185,253.047 823.951,253.049C823.951,253.049 819.825,253.024 819.825,253.024C819.804,253.026 819.786,253.012 819.784,252.992C819.781,252.971 819.796,252.953 819.816,252.951L823.815,251.933C823.877,251.919 823.919,251.869 823.967,251.831C824.011,251.797 824.022,251.738 824.048,251.688C824.071,251.645 824.055,251.593 824.058,251.544C824.06,251.502 824.027,251.468 824.011,251.428C824.011,251.428 824.011,251.428 824.011,251.428C823.779,250.805 823.446,249.973 823.107,249.002C822.945,248.537 822.784,248.042 822.629,247.528C822.531,247.203 822.438,246.871 822.35,246.533C822.024,245.276 821.714,243.968 821.447,242.765C821.098,241.192 820.843,239.809 820.669,238.961C820.644,238.834 820.597,238.715 820.501,238.642C820.393,238.559 820.266,238.491 820.121,238.501L817.9,238.646C817.793,238.663 817.692,238.59 817.675,238.483C817.658,238.376 817.731,238.276 817.838,238.259Z"/>
                </g>
                <g transform="matrix(0.565107,0,0,0.335403,-166.601,36.4949)">
                    <path d="M824.479,251.989C824.552,252.033 824.642,252.084 824.744,252.136C824.899,252.215 825.08,252.293 825.274,252.371C825.552,252.482 825.834,252.579 826.102,252.666C826.597,252.828 826.965,252.924 826.965,252.924C826.964,252.926 826.976,252.923 826.981,252.915C826.986,252.906 826.984,252.895 826.975,252.889L826.974,252.891C826.973,252.888 826.971,252.885 826.969,252.883C826.959,252.873 826.942,252.854 826.913,252.824C826.811,252.718 826.615,252.509 826.35,252.254C826.147,252.059 825.93,251.854 825.701,251.66C825.542,251.525 825.388,251.402 825.246,251.302C825.05,251.165 824.885,251.073 824.807,251.028C824.283,250.719 824.502,251.916 824.502,251.916C824.502,251.916 824.242,251.003 824.242,251.003L823.875,251.262C823.719,251.378 823.532,251.522 823.337,251.682C822.711,252.196 822.033,252.806 822.033,252.806C821.987,252.834 821.972,252.894 822,252.94C822.029,252.987 822.089,253.002 822.135,252.973C822.135,252.973 822.989,252.655 823.734,252.337C823.966,252.237 824.18,252.138 824.355,252.053L824.479,251.989Z"/>
                </g>
                <g transform="matrix(0.565107,0,0,0.335403,-166.601,36.4949)">
                    <path d="M824.983,229.831C825.327,230.056 825.597,230.315 825.771,230.626C825.942,230.929 826.031,231.275 826.013,231.677C826.012,231.688 826.011,231.698 826.011,231.709L826.284,237.282C826.281,237.413 826.386,237.522 826.518,237.525C826.65,237.528 826.759,237.423 826.761,237.291L827.251,231.733L827.25,231.766C827.316,231.1 827.197,230.516 826.934,230.001C826.678,229.502 826.271,229.074 825.738,228.707C825.428,228.499 825.007,228.581 824.799,228.892C824.59,229.202 824.673,229.623 824.983,229.831Z"/>
                </g>
            </g>
        </g>
    </g>
</svg>
