<?xml version="1.0" encoding="UTF-8" standalone="no"?>
<!DOCTYPE svg PUBLIC "-//W3C//DTD SVG 1.1//EN" "http://www.w3.org/Graphics/SVG/1.1/DTD/svg11.dtd">
<svg width="100%" height="100%" viewBox="0 0 29 32" version="1.1" xmlns="http://www.w3.org/2000/svg" xmlns:xlink="http://www.w3.org/1999/xlink" xml:space="preserve" xmlns:serif="http://www.serif.com/" style="fill-rule:evenodd;clip-rule:evenodd;stroke-linejoin:round;stroke-miterlimit:2;">
    <g transform="matrix(1,0,0,1,-972,-1957)">
        <g id="excel" transform="matrix(1.0004,0,0,1.00049,-0.39606,-2.12283)">
            <rect x="972.239" y="1958.24" width="28.716" height="31.639" style="fill:none;"/>
            <g id="excel1" serif:id="excel" transform="matrix(1.76887,0,0,2.98003,129.621,1489.24)">
                <g transform="matrix(1.78038e-17,-0.172571,0.500084,1.81744e-17,408.552,247.065)">
                    <path d="M481.537,154.943L481.538,154.907C481.539,154.894 481.539,154.882 481.538,154.87C481.538,154.87 480.99,138.859 480.99,138.859C480.99,138.848 480.974,138.839 480.954,138.839C480.935,138.839 480.918,138.848 480.918,138.859L480.37,154.87C480.367,154.974 480.325,155.076 480.254,155.169C480.185,155.262 480.081,155.346 479.953,155.418C479.826,155.489 479.676,155.542 479.515,155.578C479.356,155.615 479.185,155.63 479.011,155.629C479.011,155.629 466.934,155.517 466.934,155.517C466.63,155.515 466.358,155.437 466.161,155.32C465.967,155.204 465.856,155.044 465.86,154.87C465.879,153.867 465.924,152.277 465.944,150.435C465.959,149.051 465.966,147.526 465.956,146C465.946,144.474 465.918,142.949 465.885,141.565C465.842,139.723 465.78,138.134 465.749,137.13C465.741,136.937 465.859,136.758 466.072,136.628C466.291,136.495 466.593,136.405 466.934,136.401C466.934,136.401 479.011,136.2 479.011,136.2C479.225,136.195 479.436,136.214 479.633,136.257C479.833,136.3 480.02,136.365 480.179,136.451C480.34,136.539 480.471,136.642 480.561,136.757C480.652,136.873 480.707,137 480.714,137.13C480.714,137.13 480.764,137.977 480.764,137.977L480.78,137.983C480.851,138.007 481.138,138.096 481.145,137.969L481.194,137.13C481.204,136.961 481.153,136.794 481.052,136.638C480.95,136.481 480.793,136.336 480.591,136.211C480.388,136.084 480.143,135.986 479.876,135.915C479.607,135.844 479.312,135.806 479.011,135.8C479.011,135.8 466.934,135.599 466.934,135.599C466.203,135.59 465.539,135.761 465.049,136.034C464.552,136.31 464.25,136.699 464.233,137.13C464.233,137.13 464.233,137.13 464.233,137.13C464.202,138.134 464.14,139.723 464.097,141.565C464.064,142.949 464.036,144.474 464.026,146C464.016,147.526 464.023,149.051 464.038,150.435C464.058,152.277 464.103,153.867 464.122,154.87C464.132,155.32 464.446,155.727 464.959,156.018C465.469,156.308 466.166,156.488 466.934,156.483C466.934,156.483 479.011,156.371 479.011,156.371C479.352,156.368 479.687,156.328 479.994,156.25C480.299,156.172 480.581,156.063 480.817,155.92C481.052,155.779 481.237,155.615 481.359,155.435C481.464,155.279 481.527,155.113 481.537,154.943Z"/>
                </g>
                <g transform="matrix(0.955307,0,0,0.880334,81.9807,78.8888)">
                    <g transform="matrix(1.11309,0,0,0.660643,-110.39,-0.418682)">
                        <path d="M471.278,148.177C471.278,148.177 471.678,148.756 472.161,149.387C472.795,150.218 473.562,151.14 473.562,151.14C473.593,151.185 473.653,151.194 473.695,151.16C473.737,151.125 473.745,151.061 473.713,151.015C473.713,151.015 473.105,149.964 472.542,149.075C472.113,148.399 471.709,147.823 471.709,147.823C471.619,147.694 471.45,147.669 471.331,147.766C471.212,147.864 471.188,148.048 471.278,148.177Z"/>
                    </g>
                    <g transform="matrix(1.11309,0,0,-0.660643,-110.39,197.06)">
                        <path d="M471.709,147.823C471.709,147.823 472.113,148.399 472.542,149.075C473.105,149.964 473.713,151.015 473.713,151.015C473.745,151.061 473.737,151.125 473.695,151.16C473.653,151.194 473.593,151.185 473.562,151.14C473.562,151.14 472.795,150.218 472.161,149.387C471.678,148.756 471.278,148.177 471.278,148.177C471.188,148.048 471.212,147.864 471.331,147.766C471.45,147.669 471.619,147.694 471.709,147.823Z"/>
                    </g>
                </g>
                <g transform="matrix(0.887455,-0.273437,-0.592546,-0.376149,150.45,350.84)">
                    <path d="M472.827,147.536L471.897,148.171C471.897,148.171 473.712,151.019 473.712,151.019C473.753,151.077 473.753,151.151 473.711,151.183C473.67,151.216 473.604,151.195 473.563,151.136L471.316,148.178C471.264,148.104 471.235,148.015 471.237,147.933C471.239,147.851 471.27,147.783 471.325,147.744L472.422,146.924C472.543,146.838 472.732,146.905 472.843,147.074C472.955,147.242 472.948,147.449 472.827,147.536Z"/>
                </g>
                <g transform="matrix(1.78038e-17,-0.172571,0.396033,1.43929e-17,427.542,243.065)">
                    <path d="M481.284,155.326L481.284,155.279C481.284,155.279 480.976,138.859 480.976,138.859C480.976,138.851 480.966,138.844 480.954,138.844C480.942,138.844 480.933,138.851 480.933,138.859L480.624,155.279C480.623,155.342 480.603,155.403 480.57,155.461C480.537,155.517 480.488,155.568 480.426,155.612C480.365,155.656 480.293,155.689 480.216,155.711C480.139,155.734 480.056,155.744 479.972,155.744L465.974,155.63C465.91,155.629 465.849,155.618 465.792,155.601C465.735,155.583 465.684,155.556 465.64,155.523C465.597,155.491 465.564,155.452 465.541,155.41C465.519,155.369 465.509,155.324 465.509,155.279C465.52,154.229 465.551,152.141 465.566,149.711C465.573,148.528 465.576,147.264 465.573,146C465.568,144.399 465.555,142.798 465.539,141.361C465.517,139.334 465.483,137.634 465.47,136.721C465.469,136.672 465.479,136.623 465.504,136.579C465.528,136.533 465.563,136.49 465.61,136.455C465.658,136.419 465.713,136.388 465.775,136.369C465.837,136.349 465.904,136.336 465.974,136.335L479.972,136.14C480.193,136.136 480.396,136.197 480.545,136.301C480.696,136.407 480.795,136.555 480.8,136.721C480.8,136.721 480.84,137.977 480.84,137.977L480.85,137.981C480.893,137.998 481.066,138.061 481.069,137.964L481.109,136.721C481.116,136.489 480.991,136.278 480.788,136.122C480.583,135.964 480.293,135.866 479.972,135.86C479.972,135.86 465.974,135.665 465.974,135.665C465.782,135.662 465.595,135.69 465.42,135.741C465.245,135.792 465.085,135.87 464.947,135.968C464.809,136.067 464.702,136.184 464.628,136.312C464.553,136.44 464.514,136.579 464.512,136.721C464.498,137.634 464.465,139.334 464.442,141.361C464.426,142.798 464.413,144.399 464.409,146C464.406,147.264 464.409,148.528 464.416,149.711C464.431,152.141 464.462,154.229 464.473,155.279C464.475,155.425 464.514,155.567 464.59,155.699C464.666,155.831 464.776,155.952 464.917,156.054C465.058,156.156 465.223,156.236 465.403,156.29C465.583,156.343 465.776,156.372 465.974,156.37C465.974,156.37 479.972,156.256 479.972,156.256C480.148,156.255 480.321,156.229 480.48,156.179C480.638,156.129 480.784,156.057 480.907,155.965C481.029,155.873 481.125,155.766 481.189,155.649C481.245,155.547 481.278,155.438 481.284,155.326Z"/>
                </g>
                <g transform="matrix(-0.00470916,0.570683,-0.963422,-0.00278947,541.537,-118.988)">
                    <path d="M491.024,60C491.024,60 491.018,58.5 490.997,56.8C490.97,54.572 490.921,52 490.921,52C490.921,51.981 490.905,51.965 490.885,51.965C490.866,51.965 490.85,51.981 490.85,52C490.85,52 490.826,54.573 490.821,56.8C490.817,58.501 490.825,60 490.825,60C490.825,60.055 490.87,60.1 490.925,60.099C490.98,60.099 491.024,60.054 491.024,60Z"/>
                </g>
                <g transform="matrix(-0.00470916,0.570683,-0.963422,-0.00278947,541.537,-118.037)">
                    <path d="M491.024,60C491.024,60 491.018,58.5 490.997,56.8C490.97,54.572 490.921,52 490.921,52C490.921,51.981 490.905,51.965 490.885,51.965C490.866,51.965 490.85,51.981 490.85,52C490.85,52 490.826,54.573 490.821,56.8C490.817,58.501 490.825,60 490.825,60C490.825,60.055 490.87,60.1 490.925,60.099C490.98,60.099 491.024,60.054 491.024,60Z"/>
                </g>
                <g transform="matrix(0.96152,0.00163652,-0.00469986,0.334807,14.992,141.929)">
                    <path d="M491.024,60C491.024,60 491.018,58.5 490.997,56.8C490.97,54.572 490.921,52 490.921,52C490.92,51.967 490.905,51.94 490.885,51.94C490.866,51.94 490.85,51.967 490.85,52C490.85,52 490.826,54.572 490.821,56.8C490.817,58.501 490.825,60 490.825,60C490.826,60.094 490.871,60.17 490.925,60.17C490.98,60.169 491.025,60.093 491.024,60Z"/>
                </g>
                <g transform="matrix(0.96152,0.00165354,-0.00469986,0.338289,12.1655,141.712)">
                    <path d="M491.024,60C491.024,60 491.018,58.5 490.997,56.8C490.97,54.572 490.921,52 490.921,52C490.92,51.967 490.905,51.941 490.885,51.941C490.866,51.941 490.85,51.968 490.85,52C490.85,52 490.826,54.572 490.821,56.8C490.817,58.501 490.825,60 490.825,60C490.826,60.093 490.871,60.168 490.925,60.168C490.98,60.168 491.025,60.092 491.024,60Z"/>
                </g>
                <g transform="matrix(0.580187,0,0,0.417833,194.405,102.569)">
                    <path d="M513.003,136.476L509.171,136.57C509.06,136.573 508.957,136.543 508.883,136.485C508.805,136.425 508.751,136.342 508.747,136.248L508.65,133.621C508.649,133.534 508.564,133.463 508.458,133.464C508.353,133.464 508.267,133.534 508.267,133.621L508.182,136.249C508.175,136.475 508.286,136.681 508.462,136.833C508.64,136.988 508.892,137.081 509.172,137.087L513.071,137.173C513.238,137.177 513.397,137.134 513.533,137.064C513.67,136.994 513.778,136.887 513.849,136.761C513.92,136.633 513.935,136.494 513.91,136.361C513.886,136.227 513.808,136.102 513.693,135.997C513.693,135.997 509.212,131.892 509.212,131.892C509.064,131.757 508.882,131.655 508.685,131.58C508.487,131.506 508.27,131.469 508.048,131.465C508.048,131.465 508.048,131.465 508.048,131.465C506.666,131.438 502.089,131.333 497.761,131.265C495.119,131.223 492.572,131.202 490.903,131.182C490.512,131.181 490.13,131.244 489.776,131.364C489.422,131.484 489.097,131.662 488.82,131.889C488.543,132.117 488.328,132.385 488.18,132.676C488.033,132.968 487.955,133.283 487.955,133.605L488.025,146.098C488.025,146.52 488.441,146.864 488.954,146.864C489.467,146.864 489.884,146.52 489.884,146.098L489.954,133.605C489.954,133.502 489.978,133.4 490.025,133.306C490.072,133.212 490.141,133.125 490.23,133.051C490.319,132.978 490.424,132.92 490.538,132.88C490.652,132.841 490.776,132.819 490.902,132.818C490.902,132.818 490.902,132.818 490.902,132.818C492.572,132.798 495.119,132.777 497.761,132.736C502.089,132.668 506.666,132.563 508.048,132.537C508.093,132.536 508.138,132.537 508.179,132.551C508.222,132.565 508.264,132.582 508.297,132.609L513.003,136.476Z"/>
                </g>
                <g transform="matrix(0.580187,0,0,0.417833,194.405,102.569)">
                    <path d="M488.247,154.937L488.247,154.937C488.247,154.937 488.247,154.95 488.247,154.963C488.247,155.178 488.299,155.388 488.397,155.583C488.496,155.777 488.64,155.956 488.824,156.107C489.009,156.259 489.226,156.377 489.462,156.457C489.698,156.537 489.953,156.58 490.213,156.579C492.267,156.572 496.549,156.576 500.888,156.541C505.018,156.508 509.199,156.437 511.562,156.407C511.885,156.403 512.201,156.348 512.492,156.244C512.78,156.14 513.046,155.992 513.269,155.801C513.49,155.612 513.664,155.391 513.779,155.151C513.892,154.912 513.953,154.656 513.947,154.395C513.947,154.395 513.546,137.654 513.546,137.654C513.546,137.638 513.53,137.625 513.51,137.625C513.49,137.625 513.474,137.638 513.474,137.654L513.074,154.395C513.07,154.559 513.024,154.719 512.945,154.867C512.868,155.013 512.753,155.145 512.61,155.258C512.469,155.37 512.303,155.454 512.124,155.512C511.947,155.569 511.756,155.596 511.562,155.593C509.199,155.563 505.018,155.492 500.888,155.459C496.549,155.424 492.267,155.428 490.213,155.421C490.213,155.421 490.213,155.421 490.213,155.421C490.139,155.421 490.067,155.408 490.001,155.385C489.934,155.362 489.873,155.328 489.822,155.285C489.77,155.242 489.73,155.192 489.703,155.137C489.676,155.082 489.662,155.023 489.662,154.963C489.662,154.95 489.662,154.941 489.662,154.937C489.663,154.394 489.348,154.234 488.954,154.235C488.431,154.236 488.247,154.612 488.247,154.934L488.247,154.937Z"/>
                </g>
                <g transform="matrix(1.39858,0,0,0.789824,-248.955,-12.4067)">
                    <path d="M523.565,224.984L523.572,224.998L523.565,224.984L523.572,224.999C523.672,225.202 523.846,225.289 524.058,225.315C524.254,225.338 524.486,225.296 524.657,225.37C524.74,225.405 524.799,225.479 524.819,225.624C524.856,225.894 524.658,226.07 524.409,226.127C524.167,226.182 523.875,226.131 523.646,225.943C523.615,225.916 523.569,225.92 523.544,225.952C523.518,225.984 523.522,226.032 523.552,226.059C523.868,226.362 524.316,226.419 524.64,226.296C524.927,226.187 525.117,225.938 525.095,225.593C525.095,225.593 525.095,225.593 525.095,225.593C525.075,225.299 524.946,225.155 524.784,225.072C524.621,224.988 524.403,224.985 524.202,224.963C524.08,224.95 523.96,224.943 523.909,224.83C523.838,224.609 523.948,224.413 524.151,224.344C524.335,224.281 524.582,224.314 524.854,224.476C524.953,224.534 525.078,224.497 525.133,224.393C525.189,224.29 525.153,224.158 525.055,224.1C524.542,223.803 524.086,223.855 523.813,224.059C523.545,224.258 523.425,224.602 523.559,224.97L523.565,224.984ZM523.721,225.099C523.725,225.099 523.73,225.099 523.735,225.099L523.721,225.099ZM523.707,225.097L523.716,225.098L523.707,225.097ZM523.693,225.094L523.701,225.096L523.693,225.094ZM523.68,225.091L523.687,225.093L523.68,225.091ZM523.667,225.086L523.674,225.088L523.667,225.086ZM523.654,225.08L523.661,225.083L523.654,225.08ZM523.642,225.073L523.649,225.077L523.642,225.073ZM523.631,225.066L523.637,225.07L523.631,225.066ZM523.62,225.057L523.626,225.062L523.62,225.057ZM523.609,225.048L523.615,225.053L523.609,225.048ZM523.599,225.038L523.605,225.044L523.599,225.038ZM523.59,225.027L523.595,225.033L523.59,225.027ZM523.582,225.015L523.586,225.022L523.582,225.015ZM523.574,225.003L523.578,225.01L523.574,225.003Z"/>
                </g>
            </g>
        </g>
    </g>
</svg>
