<?xml version="1.0" encoding="UTF-8" standalone="no"?>
<!DOCTYPE svg PUBLIC "-//W3C//DTD SVG 1.1//EN" "http://www.w3.org/Graphics/SVG/1.1/DTD/svg11.dtd">
<svg width="100%" height="100%" viewBox="0 0 33 32" version="1.1" xmlns="http://www.w3.org/2000/svg" xmlns:xlink="http://www.w3.org/1999/xlink" xml:space="preserve" xmlns:serif="http://www.serif.com/" style="fill-rule:evenodd;clip-rule:evenodd;stroke-linejoin:round;stroke-miterlimit:2;">
    <g transform="matrix(1,0,0,1,-737,-1957)">
        <g id="spotify---color" serif:id="spotify - color" transform="matrix(1.00099,0,0,1.00051,-0.73737,0.319544)">
            <rect x="737.553" y="1955.92" width="31.626" height="31.321" style="fill:none;"/>
            <g id="spotify---color1" serif:id="spotify - color" transform="matrix(1.76783,0,0,2.97998,-73.2057,1473.19)">
                <g transform="matrix(-0.490929,1.07217e-16,3.76486e-16,0.304102,742.712,132.942)">
                    <path d="M560.301,95.537C565.223,95.383 569.742,97.172 573.062,100.178C576.452,103.248 578.557,107.589 578.677,112.405C578.733,117.284 576.731,121.747 573.399,124.955C570.061,128.168 565.401,130.104 560.301,130.073C555.272,130.003 550.627,128.014 547.315,124.814C543.995,121.606 542.005,117.202 542.303,112.381C542.609,107.622 544.312,103.745 547.249,100.898C550.054,98.18 553.983,96.401 558.89,95.714C558.938,95.706 558.984,95.737 558.992,95.784C559,95.83 558.967,95.873 558.919,95.881C554.162,96.745 550.394,98.613 547.772,101.373C545.105,104.179 543.642,107.911 543.541,112.43C543.431,116.841 545.389,120.797 548.519,123.633C551.585,126.411 555.789,128.104 560.301,128.042C564.792,128.014 568.823,126.216 571.775,123.4C574.734,120.578 576.633,116.717 576.683,112.405C576.792,108.03 575.023,104.039 572.112,101.088C569.133,98.067 564.975,96.116 560.301,95.97C560.176,95.97 560.075,95.873 560.075,95.754C560.075,95.634 560.176,95.537 560.301,95.537Z" style="fill:rgb(29,185,84);"/>
                </g>
                <g transform="matrix(-0.262305,-0.220151,-0.456067,0.191421,663.811,271.829)">
                    <path d="M565.177,95.125C567.873,96.556 570.481,98.466 572.785,100.653C574.998,102.754 576.933,105.11 578.402,107.536C578.782,108.162 578.465,108.92 577.695,109.229C576.925,109.537 575.992,109.28 575.613,108.654C574.256,106.414 572.468,104.239 570.424,102.299C568.318,100.3 565.941,98.551 563.478,97.244C562.759,96.862 562.557,96.078 563.026,95.494C563.494,94.909 564.459,94.744 565.177,95.125Z" style="fill:rgb(29,185,84);"/>
                </g>
                <g transform="matrix(-0.22423,-0.188194,-0.399795,0.167802,636.247,257.652)">
                    <path d="M565.149,94.852C567.949,96.345 570.727,98.344 573.143,100.567C575.6,102.828 577.681,105.321 579.044,107.74C579.454,108.467 579.043,109.321 578.126,109.646C577.21,109.971 576.133,109.644 575.723,108.918C574.493,106.735 572.605,104.491 570.387,102.45C568.189,100.428 565.667,98.605 563.119,97.246C562.286,96.802 562.064,95.905 562.624,95.244C563.184,94.583 564.315,94.407 565.149,94.852Z" style="fill:rgb(29,185,84);"/>
                </g>
                <g transform="matrix(-0.22423,-0.188194,-0.399795,0.167802,636.127,259.324)">
                    <path d="M566.737,95.797C569.39,97.287 571.685,98.911 573.727,100.801C575.659,102.59 577.364,104.619 578.924,107.005C579.386,107.712 579.037,108.583 578.146,108.949C577.255,109.316 576.156,109.039 575.694,108.332C574.273,106.159 572.724,104.308 570.964,102.678C569.116,100.967 567.036,99.5 564.634,98.151C563.815,97.691 563.621,96.79 564.201,96.14C564.781,95.49 565.917,95.336 566.737,95.797Z" style="fill:rgb(29,185,84);"/>
                </g>
            </g>
        </g>
    </g>
</svg>
