<?xml version="1.0" encoding="UTF-8" standalone="no"?>
<!DOCTYPE svg PUBLIC "-//W3C//DTD SVG 1.1//EN" "http://www.w3.org/Graphics/SVG/1.1/DTD/svg11.dtd">
<svg width="100%" height="100%" viewBox="0 0 32 32" version="1.1" xmlns="http://www.w3.org/2000/svg" xmlns:xlink="http://www.w3.org/1999/xlink" xml:space="preserve" xmlns:serif="http://www.serif.com/" style="fill-rule:evenodd;clip-rule:evenodd;stroke-linejoin:round;stroke-miterlimit:2;">
    <g transform="matrix(1,0,0,1,-781,-1957)">
        <g id="spotify---black" serif:id="spotify - black" transform="matrix(1.00087,0,0,1.00068,-0.698348,-0.685046)">
            <rect x="781.168" y="1956.64" width="31.505" height="31.2" style="fill:none;"/>
            <g id="spotify---black1" serif:id="spotify - black" transform="matrix(1.76803,0,0,2.97946,-85.3183,1472.84)">
                <g transform="matrix(-0.488967,1.06788e-16,3.74982e-16,0.302887,773.05,133.448)">
                    <path d="M560.301,95.536C565.223,95.382 569.743,97.17 573.064,100.177C576.455,103.247 578.56,107.588 578.681,112.405C578.737,117.285 576.735,121.75 573.402,124.958C570.063,128.172 565.403,130.108 560.301,130.077C555.271,130.007 550.625,128.018 547.312,124.816C543.992,121.608 542.002,117.203 542.3,112.381C542.607,107.621 544.31,103.744 547.248,100.897C550.053,98.179 553.983,96.401 558.89,95.714C558.938,95.706 558.984,95.737 558.992,95.783C559,95.83 558.968,95.874 558.919,95.882C554.162,96.746 550.395,98.614 547.773,101.374C545.107,104.18 543.644,107.911 543.543,112.43C543.433,116.841 545.392,120.796 548.521,123.63C551.587,126.408 555.79,128.1 560.301,128.037C564.791,128.01 568.82,126.212 571.772,123.397C574.73,120.576 576.629,116.716 576.679,112.405C576.788,108.03 575.02,104.04 572.111,101.09C569.131,98.068 564.975,96.118 560.301,95.971C560.176,95.971 560.074,95.874 560.074,95.754C560.074,95.634 560.176,95.536 560.301,95.536Z"/>
                </g>
                <g transform="matrix(-0.261257,-0.219271,-0.454245,0.190656,694.465,271.779)">
                    <path d="M565.181,95.121C567.877,96.552 570.485,98.462 572.79,100.65C575.004,102.751 576.938,105.108 578.408,107.533C578.789,108.162 578.47,108.924 577.698,109.233C576.925,109.543 575.988,109.284 575.607,108.656C574.25,106.417 572.463,104.242 570.419,102.302C568.314,100.304 565.937,98.555 563.475,97.248C562.753,96.865 562.55,96.078 563.02,95.491C563.491,94.904 564.459,94.738 565.181,95.121Z"/>
                </g>
                <g transform="matrix(-0.223334,-0.187442,-0.398197,0.167131,667.01,257.659)">
                    <path d="M565.153,94.847C567.953,96.34 570.732,98.34 573.148,100.563C575.606,102.825 577.687,105.318 579.051,107.738C579.462,108.467 579.049,109.325 578.129,109.651C577.209,109.977 576.128,109.65 575.717,108.92C574.486,106.738 572.599,104.494 570.382,102.454C568.184,100.432 565.662,98.609 563.115,97.251C562.278,96.805 562.056,95.904 562.618,95.241C563.181,94.577 564.316,94.401 565.153,94.847Z"/>
                </g>
                <g transform="matrix(-0.223334,-0.187442,-0.398197,0.167131,666.891,259.325)">
                    <path d="M566.741,95.792C569.394,97.282 571.69,98.906 573.733,100.797C575.665,102.587 577.371,104.616 578.93,107.002C579.394,107.712 579.044,108.587 578.149,108.955C577.254,109.322 576.151,109.045 575.687,108.335C574.267,106.162 572.719,104.311 570.959,102.682C569.111,100.971 567.031,99.504 564.63,98.156C563.808,97.694 563.613,96.789 564.195,96.137C564.778,95.485 565.918,95.33 566.741,95.792Z"/>
                </g>
            </g>
        </g>
    </g>
</svg>
