<?xml version="1.0" encoding="UTF-8" standalone="no"?>
<!DOCTYPE svg PUBLIC "-//W3C//DTD SVG 1.1//EN" "http://www.w3.org/Graphics/SVG/1.1/DTD/svg11.dtd">
<svg width="100%" height="100%" viewBox="0 0 31 26" version="1.1" xmlns="http://www.w3.org/2000/svg" xmlns:xlink="http://www.w3.org/1999/xlink" xml:space="preserve" xmlns:serif="http://www.serif.com/" style="fill-rule:evenodd;clip-rule:evenodd;stroke-linejoin:round;stroke-miterlimit:2;">
    <g transform="matrix(1,0,0,1,-699,-442)">
        <g id="Friends" transform="matrix(0.96605,0,0,0.923502,22.6267,31.4318)">
            <rect x="700.907" y="444.827" width="30.736" height="27.179" style="fill:none;"/>
            <g transform="matrix(1.83177,0,0,1.5387,-237.225,170.823)">
                <g transform="matrix(-0.18839,0.13707,0.110335,0.23517,623.254,50.7977)">
                    <path d="M661.463,191.002C663.367,190.857 665.173,190.339 666.842,189.594C668.545,188.834 670.08,187.787 671.402,186.532C674.02,184.049 675.815,180.716 675.924,176.824C676.047,173.027 674.869,169.312 672.631,166.422C670.313,163.428 666.986,161.268 662.748,160.768C662.468,160.757 662.249,160.521 662.26,160.242C662.271,159.962 662.508,159.744 662.788,159.755C667.637,159.566 671.781,161.435 674.858,164.449C678.07,167.596 679.955,172.039 680.359,176.764C680.359,176.783 680.36,176.803 680.36,176.822C680.51,182.068 678.454,186.796 675.007,190.225C673.274,191.948 671.17,193.324 668.857,194.275C666.636,195.188 664.212,195.702 661.702,195.767C661.662,195.769 661.621,195.77 661.581,195.77C656.408,195.585 651.757,193.409 648.501,189.88C645.341,186.453 643.443,181.844 643.663,176.823C643.851,172.227 645.695,168.069 648.786,165.047C651.692,162.207 655.646,160.365 660.214,160.167C660.266,160.162 660.313,160.2 660.318,160.253C660.323,160.305 660.284,160.352 660.232,160.357C655.93,160.995 652.351,163.082 649.875,166.05C647.438,168.972 646.137,172.757 646.375,176.811C646.375,176.815 646.375,176.819 646.375,176.823C646.556,180.943 648.42,184.571 651.229,187.169C653.915,189.652 657.528,191.112 661.463,191.002Z"/>
                </g>
                <g transform="matrix(-0.164304,0.0553051,0.0445181,0.205102,625.633,109.01)">
                    <path d="M668.349,160.641C671.122,161.57 674.012,163.964 676.324,166.938C678.673,169.958 680.193,173.569 680.573,176.758C680.573,176.78 680.574,176.801 680.574,176.822C680.883,182.169 679.004,187.186 675.648,190.856C673.548,193.151 670.816,194.873 667.722,195.827C665.795,196.422 663.709,196.68 661.527,196.607C656.182,196.392 651.315,194.142 647.945,190.433C644.685,186.845 642.734,182.042 643.02,176.823C643.254,171.634 645.709,166.601 649.882,163.288C653.516,160.404 658.351,158.792 663.879,159.627C663.945,159.633 663.994,159.691 663.989,159.757C663.983,159.822 663.925,159.871 663.859,159.866C658.648,159.788 654.36,161.797 651.353,164.903C648.271,168.087 646.664,172.449 647.018,176.786C647.019,176.799 647.019,176.811 647.019,176.823C647.234,180.75 649.088,184.159 651.785,186.616C654.364,188.964 657.824,190.311 661.581,190.161C661.599,190.161 661.616,190.161 661.634,190.161C663.096,190.161 664.472,189.898 665.763,189.5C667.805,188.871 669.611,187.81 671.107,186.402C673.694,183.966 675.491,180.644 675.71,176.824C675.878,174.324 675.069,171.31 673.713,168.567C672.213,165.534 670.207,162.84 667.958,161.482C667.726,161.374 667.624,161.098 667.732,160.866C667.84,160.634 668.117,160.533 668.349,160.641Z"/>
                </g>
                <g transform="matrix(0.44171,0.135673,-0.108948,0.550064,276.741,42.1229)">
                    <path d="M600.248,122.895L598.483,123.562C598.402,123.548 598.325,123.603 598.312,123.684C598.298,123.765 598.353,123.842 598.434,123.855L600.524,123.577C600.656,123.56 600.771,123.486 600.875,123.403C600.982,123.318 601.047,123.193 601.097,123.06C601.148,122.924 601.136,122.78 601.111,122.642C601.085,122.5 601.001,122.379 600.903,122.266C599.92,121.127 598.977,120.212 598.048,119.479C596.773,118.473 595.548,117.832 594.392,117.459C593.032,117.02 591.755,116.972 590.606,117.171C588.399,117.552 586.623,118.866 585.321,120.355C583.276,122.694 582.4,125.456 582.4,125.456C582.232,125.897 582.454,126.392 582.896,126.56C583.337,126.727 583.831,126.506 583.999,126.064C583.999,126.064 585.046,123.801 586.961,121.891C588.023,120.832 589.37,119.904 591.04,119.599C591.747,119.47 592.507,119.437 593.343,119.561C594.081,119.671 594.871,119.862 595.725,120.209C597.087,120.761 598.589,121.594 600.248,122.895ZM600.297,122.877L600.339,122.861C600.341,122.86 600.342,122.86 600.344,122.86L600.302,122.852L600.297,122.877Z"/>
                </g>
                <g transform="matrix(-0.454948,-2.08678e-05,-1.67572e-05,0.566549,793.808,119.988)">
                    <path d="M598.006,126.857C596.863,126.791 595.099,126.705 593.271,126.586C590.04,126.374 586.648,126.096 586.166,126.061C586.142,126.061 586.121,126.041 586.121,126.016C586.121,125.991 586.142,125.971 586.166,125.971C586.648,125.935 590.04,125.655 593.271,125.443C595.1,125.323 596.864,125.239 598.008,125.175C598.472,125.176 598.849,125.553 598.848,126.017C598.848,126.481 598.47,126.858 598.006,126.857Z"/>
                </g>
                <g transform="matrix(-0.587143,0.00416675,0.00334596,0.731173,865.905,100.383)">
                    <path d="M601.812,125.775C600.418,123.973 599.069,122.655 597.787,121.703C595.929,120.324 594.214,119.797 592.634,119.814C591.696,119.824 590.81,120.02 589.976,120.351C589.09,120.702 588.263,121.191 587.5,121.752C585.74,123.046 584.31,124.69 583.396,125.938L585.144,126.034L587.862,126.211C587.966,126.21 588.052,126.294 588.052,126.398C588.053,126.503 587.969,126.588 587.865,126.589L585.149,126.805L583.212,126.935C583.189,126.935 583.167,126.933 583.144,126.93C582.975,126.918 582.821,126.849 582.684,126.76C582.544,126.67 582.44,126.535 582.358,126.384C582.275,126.23 582.251,126.059 582.252,125.89C582.254,125.719 582.313,125.554 582.4,125.4C582.401,125.398 582.402,125.396 582.403,125.395C582.933,124.483 583.664,123.353 584.598,122.253C585.416,121.29 586.387,120.356 587.487,119.604C588.985,118.581 590.727,117.895 592.625,117.889C593.89,117.885 595.231,118.189 596.611,118.905C598.65,119.962 600.803,121.945 602.988,125.24C603.088,125.39 603.159,125.56 603.176,125.738C603.193,125.915 603.179,126.097 603.108,126.266C603.038,126.434 602.938,126.585 602.802,126.696C602.666,126.807 602.509,126.895 602.333,126.929C602.292,126.939 602.251,126.944 602.209,126.945C601.135,126.926 599.089,126.86 596.917,126.774C593.137,126.625 588.996,126.429 588.996,126.429C588.976,126.429 588.96,126.413 588.961,126.393C588.961,126.374 588.977,126.358 588.996,126.358L601.812,125.775Z"/>
                </g>
            </g>
        </g>
    </g>
</svg>
