<?xml version="1.0" encoding="UTF-8" standalone="no"?>
<!DOCTYPE svg PUBLIC "-//W3C//DTD SVG 1.1//EN" "http://www.w3.org/Graphics/SVG/1.1/DTD/svg11.dtd">
<svg width="100%" height="100%" viewBox="0 0 30 22" version="1.1" xmlns="http://www.w3.org/2000/svg" xmlns:xlink="http://www.w3.org/1999/xlink" xml:space="preserve" xmlns:serif="http://www.serif.com/" style="fill-rule:evenodd;clip-rule:evenodd;stroke-linejoin:round;stroke-miterlimit:2;">
    <g transform="matrix(1,0,0,1,-622,-400)">
        <g id="Credit-Card" serif:id="Credit Card" transform="matrix(0.902516,0,0,0.804055,58.3959,73.0471)">
            <rect x="624.598" y="407.43" width="32.999" height="25.38" style="fill:none;"/>
            <g transform="matrix(1.10801,0,0,1.2437,-67.3475,-102.206)">
                <g transform="matrix(7.15233e-17,-1.16806,1.39869,8.56448e-17,435.139,972.215)">
                    <path d="M481.409,154.664L481.41,154.617C481.41,154.602 481.41,154.586 481.409,154.57L480.986,138.859C480.986,138.845 480.972,138.833 480.954,138.833C480.937,138.833 480.923,138.845 480.923,138.859L480.499,154.57C480.493,154.857 480.342,155.112 480.112,155.297C479.887,155.477 479.578,155.581 479.242,155.575L466.703,155.386C466.574,155.384 466.449,155.358 466.333,155.316C466.218,155.275 466.115,155.212 466.026,155.136C465.938,155.06 465.873,154.969 465.827,154.873C465.782,154.778 465.763,154.675 465.765,154.57C465.781,153.366 465.818,151.51 465.836,149.428C465.845,148.327 465.849,147.164 465.845,146C465.841,144.529 465.828,143.058 465.808,141.715C465.784,139.985 465.744,138.466 465.723,137.43C465.721,137.321 465.739,137.212 465.786,137.113C465.833,137.011 465.9,136.916 465.992,136.836C466.085,136.755 466.193,136.688 466.313,136.644C466.436,136.599 466.567,136.568 466.703,136.565L479.242,136.246C479.432,136.24 479.62,136.262 479.794,136.316C479.972,136.371 480.139,136.453 480.281,136.563C480.425,136.674 480.542,136.806 480.622,136.952C480.704,137.101 480.754,137.263 480.761,137.43C480.761,137.43 480.786,137.977 480.786,137.977L480.801,137.982C480.864,138.005 481.117,138.084 481.125,137.922C481.129,137.835 481.137,137.651 481.147,137.43C481.157,137.217 481.112,137.009 481.026,136.813C480.938,136.615 480.8,136.433 480.625,136.275C480.447,136.115 480.233,135.991 480,135.901C479.764,135.811 479.507,135.763 479.242,135.754C479.242,135.754 466.703,135.435 466.703,135.435C466.385,135.429 466.073,135.48 465.783,135.574C465.49,135.669 465.224,135.817 464.993,136.002C464.761,136.188 464.583,136.411 464.457,136.653C464.33,136.896 464.265,137.16 464.259,137.43C464.238,138.466 464.198,139.985 464.173,141.715C464.154,143.058 464.141,144.529 464.136,146C464.133,147.164 464.137,148.327 464.146,149.428C464.164,151.51 464.201,153.366 464.217,154.57C464.222,154.845 464.287,155.114 464.415,155.362C464.542,155.608 464.724,155.836 464.959,156.027C465.193,156.217 465.465,156.367 465.763,156.466C466.059,156.565 466.378,156.618 466.703,156.614C466.703,156.614 479.242,156.425 479.242,156.425C479.852,156.415 480.402,156.206 480.794,155.866C481.156,155.551 481.391,155.13 481.409,154.664Z"/>
                </g>
                <g transform="matrix(1.04454,0,0,1,-184.738,371.752)">
                    <path d="M775.556,45.266L802.337,45.266L802.337,42.734L775.556,42.734L775.556,45.266Z"/>
                </g>
                <g transform="matrix(1.69553,0.00161639,0.00161639,0.847772,-688.877,378.089)">
                    <path d="M776.953,55.621C776.953,55.621 777.703,55.61 778.553,55.534C779.67,55.434 780.954,55.236 780.954,55.236C781.066,55.236 781.157,55.054 781.158,54.83C781.158,54.605 781.067,54.423 780.955,54.423C780.955,54.423 779.672,54.22 778.556,54.116C777.706,54.037 776.956,54.023 776.956,54.023C776.735,54.023 776.556,54.38 776.555,54.821C776.554,55.262 776.732,55.62 776.953,55.621Z"/>
                </g>
                <g transform="matrix(0.499999,0.000476659,0.000476659,0.250001,248.844,411.741)">
                    <path d="M776.951,56.741L780.952,56.231C781.338,56.232 781.654,55.604 781.655,54.831C781.656,54.057 781.344,53.429 780.957,53.428L776.958,52.902C776.428,52.901 775.997,53.761 775.995,54.82C775.993,55.879 776.421,56.74 776.951,56.741Z"/>
                </g>
            </g>
        </g>
    </g>
</svg>
