<?xml version="1.0" encoding="UTF-8" standalone="no"?>
<!DOCTYPE svg PUBLIC "-//W3C//DTD SVG 1.1//EN" "http://www.w3.org/Graphics/SVG/1.1/DTD/svg11.dtd">
<svg width="100%" height="100%" viewBox="0 0 33 32" version="1.1" xmlns="http://www.w3.org/2000/svg" xmlns:xlink="http://www.w3.org/1999/xlink" xml:space="preserve" xmlns:serif="http://www.serif.com/" style="fill-rule:evenodd;clip-rule:evenodd;stroke-linejoin:round;stroke-miterlimit:2;">
    <g transform="matrix(1,0,0,1,-956,-1596)">
        <g id="ic_account_groups_other_assets" transform="matrix(0.989146,0,0,1.00075,71.027,-1.07644)">
            <rect x="895.311" y="1595.98" width="32.014" height="31.19" style="fill:none;"/>
            <g transform="matrix(1.789,0,0,2.97924,133.639,1164.25)">
                <g transform="matrix(0.0944719,-4.91047e-33,1.0303e-32,-0.0645524,357.116,151.967)">
                    <path d="M820.96,71.781C820.563,72.137 820.123,72.522 819.65,72.921C819.013,73.458 818.328,74.008 817.6,74.563C813.778,77.471 809.504,80.415 809.504,80.415C809.24,80.678 808.78,80.706 808.477,80.477C808.174,80.248 808.141,79.849 808.405,79.585C808.405,79.585 811.162,75.498 813.943,71.804C814.473,71.099 815.005,70.433 815.528,69.81C816.556,68.585 817.503,67.579 818.066,66.942C818.424,66.573 818.875,66.295 819.365,66.093C819.855,65.891 820.399,65.796 820.954,65.788C821.509,65.797 822.054,65.89 822.543,66.094C823.032,66.297 823.486,66.573 823.84,66.944C824.165,67.304 824.622,67.78 825.123,68.367C825.949,69.335 826.933,70.541 827.922,71.837C830.723,75.51 833.504,79.585 833.504,79.585C833.767,79.849 833.735,80.248 833.432,80.477C833.128,80.706 832.668,80.678 832.405,80.415C832.405,80.415 828.148,77.453 824.354,74.529C823.09,73.556 821.917,72.597 820.96,71.781ZM819.465,70.442C819.424,70.407 819.385,70.371 819.346,70.334L819.465,70.442ZM822.431,70.457L822.565,70.336L822.486,70.41L822.431,70.457Z"/>
                </g>
                <g transform="matrix(0.0944719,4.27843e-33,1.0303e-32,0.0562437,357.116,141.979)">
                    <path d="M818.929,72C818.929,72 818.909,75.752 819.162,80C819.495,85.604 820.24,92 820.24,92C820.24,92.393 820.56,92.712 820.954,92.712C821.348,92.712 821.668,92.393 821.668,92C821.668,92 822.414,85.604 822.747,80C822.999,75.752 822.98,72 822.98,72C822.98,70.886 822.072,69.981 820.954,69.981C819.837,69.981 818.929,70.886 818.929,72Z"/>
                </g>
                <g transform="matrix(0.050345,0.0474458,0.0920311,-0.0344006,391.002,111.903)">
                    <path d="M820.96,71.781C820.557,72.142 820.111,72.533 819.63,72.938C818.993,73.474 818.31,74.023 817.583,74.576C813.765,77.481 809.504,80.415 809.504,80.415C809.24,80.678 808.78,80.706 808.477,80.477C808.174,80.248 808.141,79.849 808.405,79.585C808.405,79.585 811.153,75.51 813.93,71.82C814.458,71.117 814.989,70.453 815.511,69.83C816.532,68.613 817.474,67.609 818.042,66.967C818.402,66.595 818.858,66.314 819.351,66.11C819.846,65.907 820.394,65.81 820.954,65.803C821.514,65.812 822.063,65.906 822.557,66.111C823.049,66.316 823.507,66.595 823.864,66.968C824.191,67.331 824.646,67.806 825.143,68.39C825.968,69.359 826.95,70.561 827.935,71.853C830.732,75.522 833.504,79.585 833.504,79.585C833.767,79.849 833.735,80.248 833.432,80.477C833.128,80.706 832.668,80.678 832.405,80.415C832.405,80.415 828.161,77.462 824.37,74.543C823.1,73.565 821.922,72.601 820.96,71.781ZM822.403,70.483L822.54,70.361L822.463,70.433L822.403,70.483Z"/>
                </g>
                <g transform="matrix(0.050345,0.0474458,-0.0801856,0.0299728,405.242,106.58)">
                    <path d="M818.929,72C818.929,72 818.909,75.752 819.162,80C819.495,85.604 820.24,92 820.24,92C820.24,92.393 820.56,92.712 820.954,92.712C821.348,92.712 821.668,92.393 821.668,92C821.668,92 822.414,85.604 822.747,80C822.999,75.752 822.98,72 822.98,72C822.98,70.886 822.072,69.981 820.954,69.981C819.837,69.981 818.929,70.886 818.929,72Z"/>
                </g>
                <g transform="matrix(-0.050345,0.0474458,-0.0920311,-0.0344006,478.349,111.903)">
                    <path d="M820.962,71.775C821.859,72.539 822.952,73.431 824.131,74.344C827.976,77.32 832.405,80.415 832.405,80.415C832.668,80.678 833.128,80.706 833.432,80.477C833.735,80.248 833.767,79.849 833.504,79.585C833.504,79.585 830.596,75.343 827.741,71.62C826.7,70.262 825.676,69.013 824.849,68.056L823.51,66.602C823.196,66.275 822.793,66.032 822.36,65.853C821.927,65.673 821.445,65.591 820.954,65.586C820.464,65.592 819.982,65.674 819.549,65.853C819.115,66.031 818.715,66.276 818.398,66.602C818.398,66.602 818.398,66.602 818.398,66.603C817.936,67.117 816.918,68.181 815.764,69.541C815.227,70.172 814.673,70.856 814.121,71.585C811.283,75.327 808.405,79.585 808.405,79.585C808.141,79.849 808.174,80.248 808.477,80.477C808.78,80.706 809.24,80.678 809.504,80.415C809.504,80.415 813.955,77.343 817.824,74.379C818.577,73.802 819.279,73.23 819.925,72.68C820.295,72.365 820.642,72.06 820.962,71.775Z"/>
                </g>
                <g transform="matrix(-0.050345,0.0474458,0.0801856,0.0299728,464.109,106.58)">
                    <path d="M822.98,72C822.98,72 822.999,75.752 822.747,80C822.414,85.604 821.668,92 821.668,92C821.668,92.393 821.348,92.712 820.954,92.712C820.56,92.712 820.24,92.393 820.24,92C820.24,92 819.495,85.604 819.162,80C818.909,75.752 818.929,72 818.929,72C818.929,70.886 819.837,69.981 820.954,69.981C822.072,69.981 822.98,70.886 822.98,72Z"/>
                </g>
                <g transform="matrix(-1.73542e-17,0.0560711,0.108762,1.18581e-17,431.798,104.694)">
                    <path d="M820.961,71.779C820.594,72.109 820.191,72.463 819.757,72.829C819.117,73.371 818.424,73.929 817.686,74.492C813.844,77.421 809.504,80.415 809.504,80.415C809.24,80.678 808.78,80.706 808.477,80.477C808.174,80.248 808.141,79.849 808.405,79.585C808.405,79.585 811.21,75.433 814.011,71.719C814.549,71.006 815.089,70.332 815.617,69.705C816.687,68.436 817.659,67.411 818.194,66.811C818.194,66.811 818.194,66.811 818.194,66.811C818.536,66.459 818.968,66.193 819.436,66C819.904,65.808 820.424,65.717 820.954,65.71C821.485,65.718 822.005,65.806 822.473,66.001C822.94,66.195 823.374,66.458 823.713,66.812L825.018,68.247C825.846,69.211 826.844,70.434 827.852,71.753C830.674,75.447 833.504,79.585 833.504,79.585C833.767,79.849 833.735,80.248 833.432,80.477C833.128,80.706 832.668,80.678 832.405,80.415C832.405,80.415 828.083,77.402 824.268,74.458C823.036,73.508 821.894,72.576 820.961,71.779Z"/>
                </g>
                <g transform="matrix(-1.73542e-17,0.0560711,-0.0947627,-1.03318e-17,448.627,104.694)">
                    <path d="M818.929,72C818.929,72 818.909,75.752 819.162,80C819.495,85.604 820.24,92 820.24,92C820.24,92.393 820.56,92.712 820.954,92.712C821.348,92.712 821.668,92.393 821.668,92C821.668,92 822.414,85.604 822.747,80C822.999,75.752 822.98,72 822.98,72C822.98,70.886 822.072,69.981 820.954,69.981C819.837,69.981 818.929,70.886 818.929,72Z"/>
                </g>
                <g transform="matrix(1.73542e-17,0.0560711,-0.108762,1.18581e-17,437.548,104.694)">
                    <path d="M820.964,71.785C821.928,72.606 823.106,73.57 824.377,74.549C828.166,77.467 832.405,80.415 832.405,80.415C832.668,80.678 833.128,80.706 833.432,80.477C833.735,80.248 833.767,79.849 833.504,79.585C833.504,79.585 830.736,75.528 827.941,71.86C826.957,70.57 825.977,69.369 825.152,68.401C824.656,67.818 824.202,67.344 823.875,66.98C823.516,66.605 823.057,66.325 822.563,66.119C822.067,65.913 821.516,65.818 820.954,65.81C820.392,65.817 819.842,65.914 819.345,66.118C818.85,66.323 818.393,66.605 818.031,66.978C817.536,67.533 816.763,68.352 815.914,69.354C815.276,70.108 814.595,70.94 813.924,71.827C811.136,75.508 808.405,79.585 808.405,79.585C808.141,79.849 808.174,80.248 808.477,80.477C808.78,80.706 809.24,80.678 809.504,80.415C809.504,80.415 813.769,77.495 817.576,74.582C818.493,73.881 819.346,73.179 820.116,72.525C820.416,72.269 820.7,72.021 820.964,71.785ZM822.452,70.443L822.529,70.371L822.409,70.48L822.452,70.443Z"/>
                </g>
                <g transform="matrix(1.73542e-17,0.0560711,0.0947627,-1.03318e-17,420.719,104.694)">
                    <path d="M822.98,72C822.98,72 822.999,75.752 822.747,80C822.414,85.604 821.668,92 821.668,92C821.668,92.393 821.348,92.712 820.954,92.712C820.56,92.712 820.24,92.393 820.24,92C820.24,92 819.495,85.604 819.162,80C818.909,75.752 818.929,72 818.929,72C818.929,70.886 819.837,69.981 820.954,69.981C822.072,69.981 822.98,70.886 822.98,72Z"/>
                </g>
                <g transform="matrix(0.418086,1.56297e-17,-9.69044e-16,0.248143,198.471,107.992)">
                    <path d="M554.138,186.467L554.378,178.348C554.392,177.846 554.189,177.39 553.869,177.051C553.543,176.707 553.082,176.499 552.572,176.484L551.301,176.446C551.048,176.439 550.799,176.488 550.566,176.577C550.331,176.666 550.118,176.806 549.932,176.982C549.744,177.159 549.601,177.374 549.498,177.604C549.394,177.837 549.342,178.091 549.335,178.351C549.335,178.351 549.083,188.65 549.083,188.65C549.072,189.262 549.32,189.815 549.712,190.225C550.107,190.639 550.664,190.89 551.281,190.907L553.21,190.958C553.604,190.966 553.986,190.867 554.325,190.689C554.664,190.511 554.956,190.243 555.173,189.912L555.858,188.871C555.858,188.871 559.303,190.343 559.303,190.343C559.449,190.404 559.599,190.45 559.753,190.481C559.907,190.512 560.064,190.527 560.221,190.527C560.221,190.527 560.221,190.527 560.221,190.527C560.778,190.523 562.116,190.524 563.58,190.504C565.577,190.478 567.807,190.421 568.619,190.405C568.619,190.405 568.619,190.405 568.619,190.405C568.792,190.401 568.965,190.381 569.132,190.338C569.298,190.295 569.461,190.237 569.614,190.157L578.766,185.269C579.308,184.976 579.752,184.551 580.044,184.035C580.332,183.527 580.49,182.943 580.463,182.337C580.463,182.337 580.463,182.335 580.463,182.335C580.451,182.074 580.384,181.822 580.256,181.604C580.129,181.387 579.958,181.196 579.739,181.06C579.523,180.925 579.284,180.84 579.038,180.821C578.795,180.803 578.546,180.835 578.316,180.935C578.316,180.935 569.853,184.613 569.853,184.613C569.833,184.621 569.824,184.643 569.831,184.662C569.839,184.681 569.861,184.691 569.88,184.683L578.61,181.693C578.718,181.655 578.832,181.653 578.941,181.67C579.048,181.686 579.147,181.735 579.236,181.8C579.322,181.864 579.384,181.952 579.43,182.046C579.474,182.136 579.488,182.239 579.485,182.343L579.485,182.345C579.474,182.754 579.338,183.139 579.12,183.467C578.908,183.788 578.602,184.043 578.238,184.209C578.238,184.209 568.821,188.562 568.821,188.562C568.821,188.562 568.616,188.597 568.616,188.597C567.804,188.584 565.574,188.534 563.577,188.514C562.112,188.499 560.775,188.503 560.218,188.501C560.218,188.501 560.086,188.475 560.086,188.475L555.868,186.74C555.428,186.556 554.919,186.715 554.662,187.117L553.563,188.88C553.526,188.938 553.48,188.989 553.422,189.022C553.362,189.055 553.296,189.079 553.226,189.079L551.297,189.097C551.171,189.098 551.053,189.059 550.969,188.978C550.882,188.894 550.817,188.781 550.815,188.65L550.56,178.351C550.558,178.252 550.568,178.153 550.603,178.062C550.638,177.97 550.686,177.881 550.756,177.807C550.827,177.732 550.907,177.668 551,177.627C551.094,177.585 551.195,177.555 551.3,177.552C551.3,177.552 552.57,177.518 552.57,177.518C552.805,177.512 553.022,177.592 553.18,177.741C553.344,177.895 553.456,178.108 553.464,178.35L553.74,186.468C553.74,186.578 553.83,186.667 553.939,186.667C554.049,186.666 554.138,186.577 554.138,186.467Z"/>
                </g>
                <g transform="matrix(0.418086,1.56297e-17,-9.69044e-16,0.248143,198.471,107.992)">
                    <path d="M568.166,184.258L563.506,184.778C563.396,184.78 563.309,184.87 563.311,184.98C563.313,185.09 563.403,185.177 563.513,185.175L568.763,185.578C569.01,185.596 569.223,185.469 569.399,185.32C569.577,185.168 569.653,184.931 569.675,184.679L569.675,184.676C569.751,183.562 569.352,182.528 568.68,181.733C567.987,180.914 566.962,180.403 565.816,180.288C565.816,180.288 563.281,180.172 563.281,180.172C562.661,180.178 562.049,180.111 561.45,179.969C560.835,179.822 560.235,179.632 559.668,179.34C559.668,179.34 559.668,179.34 559.668,179.34C558.802,178.916 557.763,178.458 556.759,178.226C555.99,178.048 555.272,177.993 554.692,178.167C554.672,178.171 554.658,178.19 554.661,178.21C554.665,178.231 554.684,178.245 554.704,178.241C555.27,178.22 555.901,178.445 556.559,178.778C557.422,179.215 558.279,179.845 558.981,180.415C559.582,180.885 560.237,181.262 560.937,181.553C561.647,181.848 562.399,182.016 563.169,182.113L565.7,182.291C566.349,182.301 566.939,182.546 567.378,182.962C567.746,183.311 568.038,183.75 568.166,184.258Z"/>
                </g>
                <g transform="matrix(-0.126653,-0.0633733,0.111438,-0.0784545,493.101,194.535)">
                    <path d="M560.301,96.235C564.834,96.55 568.744,98.614 571.532,101.644C574.169,104.508 575.691,108.294 575.464,112.405C575.362,116.372 573.513,119.86 570.783,122.449C568.067,125.025 564.42,126.743 560.301,126.8C556.103,126.929 552.161,125.443 549.255,122.911C546.248,120.292 544.287,116.623 544.297,112.46C544.283,108.084 545.581,104.442 548.091,101.664C550.607,98.878 554.266,96.951 558.937,95.983C559.044,95.966 559.117,95.869 559.099,95.766C559.081,95.664 558.979,95.594 558.872,95.612C553.87,96.187 549.851,97.915 546.93,100.608C543.818,103.475 541.989,107.442 541.546,112.351C541.117,117.425 543.15,122.09 546.579,125.536C550.031,129.006 554.954,131.15 560.301,131.314C565.774,131.389 570.819,129.364 574.391,125.906C577.952,122.459 580.03,117.632 579.896,112.405C579.614,107.315 577.344,102.75 573.642,99.623C570.097,96.627 565.382,94.92 560.301,95.273C560.024,95.273 559.799,95.488 559.799,95.754C559.799,96.019 560.024,96.235 560.301,96.235Z"/>
                </g>
                <g transform="matrix(-0.00167699,0.239102,-0.343087,-0.00116872,454.71,32.2028)">
                    <path d="M491.4,59.998C491.4,59.998 491.397,58.497 491.329,56.798C491.241,54.564 491.053,51.999 491.053,51.999C491.052,51.891 490.977,51.803 490.885,51.803C490.792,51.804 490.718,51.892 490.718,52.001C490.718,52.001 490.556,54.568 490.489,56.802C490.438,58.502 490.45,60.002 490.45,60.002C490.451,60.31 490.665,60.559 490.927,60.558C491.19,60.556 491.401,60.305 491.4,59.998Z"/>
                </g>
                <g transform="matrix(-0.000996359,0.142059,-0.20384,-0.000694377,446.771,80.3802)">
                    <path d="M491.724,59.996C491.724,59.996 491.724,58.495 491.617,56.797C491.474,54.551 491.167,51.999 491.167,51.999C491.166,51.816 491.039,51.668 490.884,51.669C490.728,51.67 490.603,51.819 490.604,52.001C490.604,52.001 490.322,54.557 490.201,56.803C490.11,58.502 490.125,60.004 490.125,60.004C490.128,60.522 490.488,60.941 490.929,60.939C491.37,60.936 491.727,60.514 491.724,59.996Z"/>
                </g>
                <g transform="matrix(0.390564,0,0,0.231808,163.114,119.111)">
                    <path d="M694.814,131.26C694.811,131.239 694.811,131.222 694.804,131.224C694.764,131.234 694.781,131.248 694.814,131.26L694.818,131.28C694.844,131.381 694.884,131.579 694.95,131.855C695.045,132.25 695.146,132.764 695.231,133.301C695.282,133.625 695.31,133.944 695.309,134.238C695.308,134.44 695.3,134.621 695.194,134.741C695.105,134.841 694.952,134.853 694.724,134.846C694.347,134.835 693.858,134.752 693.227,134.542C692.994,134.447 692.727,134.513 692.564,134.705C692.402,134.897 692.381,135.172 692.513,135.386C693.017,136.076 693.585,136.768 694.16,137.4C695.558,138.937 696.898,140.108 696.898,140.108C696.909,140.119 696.926,140.119 696.936,140.109C696.947,140.099 696.948,140.082 696.937,140.072C696.937,140.072 696.08,138.953 695.104,137.472C694.83,137.055 694.547,136.613 694.275,136.158C694.55,136.22 694.789,136.245 694.996,136.243C695.601,136.237 696.01,136.003 696.281,135.692C696.517,135.422 696.665,135.067 696.686,134.655C696.705,134.277 696.643,133.843 696.492,133.412C696.368,133.059 696.214,132.708 696.025,132.391C695.692,131.835 695.339,131.411 695.16,131.202C695.112,131.145 695.079,131.11 695.062,131.092C695.014,131.041 694.982,131.07 694.962,131.121C694.968,131.003 694.908,130.996 694.857,131.025C694.789,131.063 694.764,131.149 694.802,131.218L694.926,131.291C694.926,131.291 694.857,131.277 694.814,131.26Z"/>
                </g>
                <g transform="matrix(0.879819,0,0,0.522191,-112.018,103.029)">
                    <path d="M621.368,80.517C621.505,80.516 621.63,80.57 621.721,80.658C621.813,80.747 621.872,80.87 621.873,81.007C621.875,81.146 621.821,81.273 621.731,81.366C621.639,81.461 621.512,81.525 621.368,81.53C621.22,81.535 621.083,81.482 620.982,81.389C620.878,81.294 620.809,81.159 620.803,81.007C620.798,80.855 620.83,80.736 620.88,80.647C620.963,80.5 621.087,80.43 621.149,80.418C621.178,80.414 621.199,80.386 621.194,80.357C621.19,80.328 621.162,80.307 621.133,80.312C621.052,80.321 620.882,80.394 620.762,80.575C620.693,80.68 620.641,80.821 620.634,81.007C620.627,81.211 620.708,81.398 620.838,81.536C620.971,81.676 621.159,81.762 621.368,81.77C621.582,81.776 621.777,81.694 621.921,81.559C622.069,81.421 622.158,81.224 622.162,81.007C622.164,80.789 622.075,80.59 621.931,80.446C621.787,80.302 621.588,80.214 621.368,80.213C621.284,80.213 621.216,80.281 621.216,80.365C621.216,80.449 621.284,80.517 621.368,80.517Z"/>
                </g>
                <g transform="matrix(0.405087,0.46355,-0.781016,0.240428,253.44,-160.214)">
                    <path d="M621.368,80.517C621.505,80.516 621.63,80.57 621.721,80.658C621.813,80.747 621.872,80.87 621.873,81.007C621.875,81.146 621.821,81.273 621.731,81.366C621.639,81.461 621.512,81.525 621.368,81.53C621.22,81.535 621.083,81.482 620.982,81.389C620.878,81.294 620.809,81.159 620.803,81.007C620.798,80.855 620.83,80.736 620.88,80.647C620.963,80.5 621.087,80.43 621.149,80.418C621.178,80.414 621.199,80.386 621.194,80.357C621.19,80.328 621.162,80.307 621.133,80.312C621.052,80.321 620.882,80.394 620.762,80.575C620.693,80.68 620.641,80.821 620.634,81.007C620.627,81.211 620.708,81.398 620.838,81.536C620.971,81.676 621.159,81.762 621.368,81.77C621.582,81.776 621.777,81.694 621.921,81.559C622.069,81.421 622.158,81.224 622.162,81.007C622.164,80.789 622.075,80.59 621.931,80.446C621.787,80.302 621.588,80.214 621.368,80.213C621.284,80.213 621.216,80.281 621.216,80.365C621.216,80.449 621.284,80.517 621.368,80.517Z"/>
                </g>
                <g transform="matrix(-0.22853,0.504268,-0.849621,-0.135637,653.789,-151.642)">
                    <path d="M621.368,80.517C621.505,80.516 621.63,80.57 621.721,80.658C621.813,80.747 621.872,80.87 621.873,81.007C621.875,81.146 621.821,81.273 621.731,81.366C621.639,81.461 621.512,81.525 621.368,81.53C621.22,81.535 621.083,81.482 620.982,81.389C620.878,81.294 620.809,81.159 620.803,81.007C620.798,80.855 620.83,80.736 620.88,80.647C620.963,80.5 621.087,80.43 621.149,80.418C621.178,80.414 621.199,80.386 621.194,80.357C621.19,80.328 621.162,80.307 621.133,80.312C621.052,80.321 620.882,80.394 620.762,80.575C620.693,80.68 620.641,80.821 620.634,81.007C620.627,81.211 620.708,81.398 620.838,81.536C620.971,81.676 621.159,81.762 621.368,81.77C621.582,81.776 621.777,81.694 621.921,81.559C622.069,81.421 622.158,81.224 622.162,81.007C622.164,80.789 622.075,80.59 621.931,80.446C621.787,80.302 621.588,80.214 621.368,80.213C621.284,80.213 621.216,80.281 621.216,80.365C621.216,80.449 621.284,80.517 621.368,80.517Z"/>
                </g>
                <g transform="matrix(0.0658068,-0.520729,0.877355,0.0390578,314.497,471.107)">
                    <path d="M621.368,80.517C621.505,80.516 621.63,80.57 621.721,80.658C621.813,80.747 621.872,80.87 621.873,81.007C621.875,81.146 621.821,81.273 621.731,81.366C621.639,81.461 621.512,81.525 621.368,81.53C621.22,81.535 621.083,81.482 620.982,81.389C620.878,81.294 620.809,81.159 620.803,81.007C620.798,80.855 620.83,80.736 620.88,80.647C620.963,80.5 621.087,80.43 621.149,80.418C621.178,80.414 621.199,80.386 621.194,80.357C621.19,80.328 621.162,80.307 621.133,80.312C621.052,80.321 620.882,80.394 620.762,80.575C620.693,80.68 620.641,80.821 620.634,81.007C620.627,81.211 620.708,81.398 620.838,81.536C620.971,81.676 621.159,81.762 621.368,81.77C621.582,81.776 621.777,81.694 621.921,81.559C622.069,81.421 622.158,81.224 622.162,81.007C622.164,80.789 622.075,80.59 621.931,80.446C621.787,80.302 621.588,80.214 621.368,80.213C621.284,80.213 621.216,80.281 621.216,80.365C621.216,80.449 621.284,80.517 621.368,80.517Z"/>
                </g>
                <g transform="matrix(0.586636,-0.389171,0.655698,0.348181,9.77664,360.965)">
                    <path d="M621.368,80.517C621.505,80.516 621.63,80.57 621.721,80.658C621.813,80.747 621.872,80.87 621.873,81.007C621.875,81.146 621.821,81.273 621.731,81.366C621.639,81.461 621.512,81.525 621.368,81.53C621.22,81.535 621.083,81.482 620.982,81.389C620.878,81.294 620.809,81.159 620.803,81.007C620.798,80.855 620.83,80.736 620.88,80.647C620.963,80.5 621.087,80.43 621.149,80.418C621.178,80.414 621.199,80.386 621.194,80.357C621.19,80.328 621.162,80.307 621.133,80.312C621.052,80.321 620.882,80.394 620.762,80.575C620.693,80.68 620.641,80.821 620.634,81.007C620.627,81.211 620.708,81.398 620.838,81.536C620.971,81.676 621.159,81.762 621.368,81.77C621.582,81.776 621.777,81.694 621.921,81.559C622.069,81.421 622.158,81.224 622.162,81.007C622.164,80.789 622.075,80.59 621.931,80.446C621.787,80.302 621.588,80.214 621.368,80.213C621.284,80.213 621.216,80.281 621.216,80.365C621.216,80.449 621.284,80.517 621.368,80.517Z"/>
                </g>
            </g>
        </g>
    </g>
</svg>
