<?xml version="1.0" encoding="UTF-8" standalone="no"?>
<!DOCTYPE svg PUBLIC "-//W3C//DTD SVG 1.1//EN" "http://www.w3.org/Graphics/SVG/1.1/DTD/svg11.dtd">
<svg width="100%" height="100%" viewBox="0 0 31 32" version="1.1" xmlns="http://www.w3.org/2000/svg" xmlns:xlink="http://www.w3.org/1999/xlink" xml:space="preserve" xmlns:serif="http://www.serif.com/" style="fill-rule:evenodd;clip-rule:evenodd;stroke-linejoin:round;stroke-miterlimit:2;">
    <g transform="matrix(1,0,0,1,-582,-1596)">
        <g id="ic_account_groups_bank" transform="matrix(1.00083,0,0,1.00026,-21.1269,-9.10669)">
            <rect x="602.873" y="1604.8" width="30.167" height="31.244" style="fill:none;"/>
            <g transform="matrix(1.76811,0,0,2.98072,142.377,1164.03)">
                <g transform="matrix(0.282553,0,0,0.094792,142.706,141.643)">
                    <path d="M464.282,166.744C464.279,166.789 464.277,166.835 464.277,166.883C464.277,167.544 464.581,168.081 464.954,168.081C464.954,168.081 465.635,167.794 465.63,166.591L465.618,163.965C465.617,163.751 465.661,163.553 465.739,163.411C465.82,163.265 465.928,163.162 466.052,163.158C466.052,163.158 471.92,162.733 471.92,162.733C472.004,162.726 472.087,162.735 472.164,162.784C472.244,162.834 472.321,162.9 472.385,163.002C472.451,163.108 472.509,163.226 472.547,163.366C472.585,163.509 472.614,163.663 472.619,163.825L472.716,167.237C472.716,167.47 472.823,167.659 472.954,167.659C473.086,167.659 473.193,167.47 473.193,167.237L473.29,163.825C473.299,163.501 473.265,163.183 473.204,162.883C473.143,162.579 473.042,162.304 472.917,162.06C472.79,161.813 472.634,161.627 472.466,161.487C472.296,161.346 472.11,161.278 471.918,161.262L466.049,160.884C465.567,160.873 465.131,161.22 464.811,161.773C464.49,162.329 464.295,163.107 464.29,163.965C464.286,164.963 464.281,166.075 464.278,166.591C464.278,166.644 464.279,166.695 464.282,166.744Z"/>
                </g>
                <g transform="matrix(0.282553,0,0,-0.094792,142.848,167.817)">
                    <path d="M464.282,166.744C464.279,166.789 464.277,166.835 464.277,166.883C464.277,167.544 464.581,168.081 464.954,168.081C464.954,168.081 465.635,167.794 465.63,166.591L465.618,163.965C465.617,163.751 465.661,163.553 465.739,163.411C465.82,163.265 465.928,163.162 466.052,163.158C466.052,163.158 471.92,162.733 471.92,162.733C472.004,162.726 472.087,162.735 472.164,162.784C472.244,162.834 472.321,162.9 472.385,163.002C472.451,163.108 472.509,163.226 472.547,163.366C472.585,163.509 472.614,163.663 472.619,163.825L472.716,167.237C472.716,167.47 472.823,167.659 472.954,167.659C473.086,167.659 473.193,167.47 473.193,167.237L473.29,163.825C473.299,163.501 473.265,163.183 473.204,162.883C473.143,162.579 473.042,162.304 472.917,162.06C472.79,161.813 472.634,161.627 472.466,161.487C472.296,161.346 472.11,161.278 471.918,161.262L466.049,160.884C465.567,160.873 465.131,161.22 464.811,161.773C464.49,162.329 464.295,163.107 464.29,163.965C464.286,164.963 464.281,166.075 464.278,166.591C464.278,166.644 464.279,166.695 464.282,166.744Z"/>
                </g>
                <g transform="matrix(0.282553,0,0,-0.094792,130.317,167.817)">
                    <path d="M464.282,166.744C464.279,166.789 464.277,166.835 464.277,166.883C464.277,167.544 464.581,168.081 464.954,168.081C464.954,168.081 465.635,167.794 465.63,166.591L465.618,163.965C465.617,163.751 465.661,163.553 465.739,163.411C465.82,163.265 465.928,163.162 466.052,163.158C466.052,163.158 471.92,162.733 471.92,162.733C472.004,162.726 472.087,162.735 472.164,162.784C472.244,162.834 472.321,162.9 472.385,163.002C472.451,163.108 472.509,163.226 472.547,163.366C472.585,163.509 472.614,163.663 472.619,163.825L472.716,167.237C472.716,167.47 472.823,167.659 472.954,167.659C473.086,167.659 473.193,167.47 473.193,167.237L473.29,163.825C473.299,163.501 473.265,163.183 473.204,162.883C473.143,162.579 473.042,162.304 472.917,162.06C472.79,161.813 472.634,161.627 472.466,161.487C472.296,161.346 472.11,161.278 471.918,161.262L466.049,160.884C465.567,160.873 465.131,161.22 464.811,161.773C464.49,162.329 464.295,163.107 464.29,163.965C464.286,164.963 464.281,166.075 464.278,166.591C464.278,166.644 464.279,166.695 464.282,166.744Z"/>
                </g>
                <g transform="matrix(0.282553,0,0,0.094792,130.041,141.602)">
                    <path d="M464.282,166.744C464.279,166.789 464.277,166.835 464.277,166.883C464.277,167.544 464.581,168.081 464.954,168.081C464.954,168.081 465.635,167.794 465.63,166.591L465.618,163.965C465.617,163.751 465.661,163.553 465.739,163.411C465.82,163.265 465.928,163.162 466.052,163.158C466.052,163.158 471.92,162.733 471.92,162.733C472.004,162.726 472.087,162.735 472.164,162.784C472.244,162.834 472.321,162.9 472.385,163.002C472.451,163.108 472.509,163.226 472.547,163.366C472.585,163.509 472.614,163.663 472.619,163.825L472.716,167.237C472.716,167.47 472.823,167.659 472.954,167.659C473.086,167.659 473.193,167.47 473.193,167.237L473.29,163.825C473.299,163.501 473.265,163.183 473.204,162.883C473.143,162.579 473.042,162.304 472.917,162.06C472.79,161.813 472.634,161.627 472.466,161.487C472.296,161.346 472.11,161.278 471.918,161.262L466.049,160.884C465.567,160.873 465.131,161.22 464.811,161.773C464.49,162.329 464.295,163.107 464.29,163.965C464.286,164.963 464.281,166.075 464.278,166.591C464.278,166.644 464.279,166.695 464.282,166.744Z"/>
                </g>
                <g transform="matrix(2.04446,-2.62181e-32,-1.12392e-31,0.566123,-951.605,8.52443)">
                    <path d="M600.447,252.284C600.071,252.264 599.556,252.238 598.97,252.218C598.369,252.198 597.694,252.178 597.019,252.177C596.486,252.176 595.954,252.186 595.458,252.205C594.677,252.234 593.987,252.281 593.53,252.312C593.816,251.805 594.209,251.109 594.621,250.372C595.624,248.581 596.738,246.564 596.738,246.564C596.742,246.557 596.743,246.543 596.74,246.534C596.736,246.524 596.73,246.522 596.725,246.53C596.725,246.53 595.53,248.318 594.464,249.933C593.817,250.913 593.221,251.83 592.964,252.222C592.964,252.222 592.964,252.222 592.964,252.222C592.92,252.29 592.892,252.389 592.875,252.493C592.859,252.598 592.861,252.714 592.877,252.825C592.893,252.937 592.927,253.027 592.969,253.094C593.01,253.162 593.062,253.195 593.117,253.199C593.474,253.219 594.379,253.292 595.458,253.332C595.954,253.351 596.486,253.361 597.019,253.361C597.694,253.359 598.369,253.339 598.97,253.319C599.87,253.289 600.603,253.244 600.92,253.23C600.92,253.23 600.92,253.23 600.92,253.23C600.979,253.227 601.035,253.19 601.079,253.118C601.123,253.045 601.159,252.948 601.176,252.829C601.192,252.709 601.194,252.585 601.175,252.474C601.157,252.362 601.125,252.259 601.078,252.188C601.078,252.188 596.958,246.168 596.958,246.168C596.934,246.13 596.9,246.142 596.882,246.194C596.865,246.245 596.87,246.318 596.894,246.356L600.447,252.284Z"/>
                </g>
                <g transform="matrix(0.00299454,-1.08609,0.503623,-0.001568,232.032,1000.76)">
                    <path d="M776.953,55.582C776.953,55.582 777.703,55.571 778.553,55.499C779.668,55.405 780.954,55.216 780.954,55.216C781.012,55.216 781.06,55.043 781.061,54.83C781.061,54.616 781.014,54.443 780.955,54.443C780.955,54.443 779.67,54.249 778.556,54.15C777.706,54.075 776.956,54.062 776.956,54.062C776.84,54.062 776.746,54.402 776.745,54.822C776.744,55.241 776.837,55.582 776.953,55.582Z"/>
                </g>
                <g transform="matrix(0.00299454,-1.09248,0.503623,-0.00157722,244.668,1005.77)">
                    <path d="M776.953,55.582C776.953,55.582 777.703,55.571 778.553,55.499C779.668,55.405 780.954,55.216 780.954,55.216C781.012,55.216 781.06,55.043 781.06,54.83C781.061,54.616 781.014,54.443 780.955,54.443C780.955,54.443 779.67,54.249 778.556,54.15C777.706,54.075 776.956,54.062 776.956,54.062C776.841,54.062 776.747,54.402 776.746,54.822C776.746,55.241 776.838,55.582 776.953,55.582Z"/>
                </g>
                <g transform="matrix(0.00296437,1.07781,0.503623,0.00155221,233.386,-684.891)">
                    <path d="M776.956,54.062C776.956,54.062 777.706,54.075 778.556,54.15C779.67,54.249 780.955,54.443 780.955,54.443C781.014,54.443 781.062,54.616 781.062,54.83C781.061,55.043 781.013,55.216 780.954,55.216C780.954,55.216 779.668,55.405 778.553,55.499C777.703,55.571 776.953,55.582 776.953,55.582C776.836,55.582 776.743,55.241 776.744,54.821C776.744,54.402 776.84,54.062 776.956,54.062Z"/>
                </g>
                <g transform="matrix(0.00296437,1.08415,0.503623,0.00156133,246.022,-689.796)">
                    <path d="M776.956,54.062C776.956,54.062 777.706,54.075 778.556,54.15C779.67,54.249 780.955,54.443 780.955,54.443C781.014,54.443 781.061,54.616 781.061,54.83C781.061,55.043 781.012,55.216 780.954,55.216C780.954,55.216 779.668,55.405 778.553,55.499C777.703,55.571 776.953,55.582 776.953,55.582C776.837,55.582 776.744,55.241 776.745,54.822C776.746,54.402 776.84,54.062 776.956,54.062Z"/>
                </g>
                <g transform="matrix(-0.176598,-0.088364,0.155383,-0.109392,350.4,216.65)">
                    <path d="M560.301,95.984C564.968,96.139 569.113,98.095 572.083,101.116C574.979,104.063 576.736,108.043 576.62,112.405C576.567,116.699 574.672,120.541 571.725,123.351C568.784,126.155 564.773,127.949 560.301,127.978C555.805,128.044 551.615,126.361 548.556,123.596C545.433,120.771 543.475,116.83 543.579,112.432C543.675,107.92 545.13,104.193 547.788,101.388C550.405,98.627 554.167,96.756 558.92,95.886C558.971,95.878 559.006,95.832 558.997,95.783C558.989,95.734 558.94,95.7 558.889,95.709C553.977,96.39 550.044,98.166 547.233,100.883C544.286,103.731 542.577,107.613 542.264,112.379C541.959,117.214 543.952,121.631 547.277,124.851C550.597,128.065 555.256,130.062 560.301,130.136C565.42,130.17 570.1,128.23 573.45,125.004C576.794,121.784 578.799,117.302 578.739,112.405C578.611,107.575 576.497,103.223 573.091,100.15C569.76,97.144 565.231,95.36 560.301,95.524C560.168,95.524 560.061,95.627 560.061,95.754C560.061,95.881 560.168,95.984 560.301,95.984Z"/>
                </g>
                <g transform="matrix(0.593944,0,0,0.314606,-9.54112,100.939)">
                    <path d="M479.207,179.984L455.817,179.617C455.655,179.615 455.497,179.65 455.349,179.716C455.201,179.783 455.066,179.883 454.95,180.01C454.833,180.138 454.743,180.29 454.68,180.454C454.617,180.619 454.584,180.799 454.582,180.982L454.582,180.982C454.578,181.366 454.716,181.713 454.938,181.967C455.161,182.223 455.473,182.379 455.817,182.383C455.817,182.383 455.817,182.383 455.817,182.383C457.439,182.4 461.123,182.457 465.271,182.48C467.323,182.492 469.489,182.5 471.573,182.488C473.036,182.479 474.459,182.459 475.775,182.433C478.572,182.378 480.886,182.3 482.077,182.269C482.228,182.263 482.375,182.228 482.51,182.16C482.643,182.092 482.766,181.999 482.868,181.877C482.969,181.756 483.049,181.618 483.101,181.466C483.151,181.315 483.179,181.155 483.174,180.991C483.174,180.991 483.173,180.974 483.173,180.974C483.169,180.812 483.138,180.653 483.08,180.508C483.022,180.365 482.941,180.232 482.837,180.123C482.733,180.014 482.614,179.928 482.484,179.873C482.355,179.819 482.217,179.79 482.076,179.795L479.673,179.895C479.62,179.896 479.577,179.944 479.577,180.004C479.577,180.063 479.62,180.111 479.673,180.111L482.077,180.207C482.167,180.21 482.254,180.236 482.335,180.276C482.414,180.317 482.485,180.376 482.546,180.449C482.606,180.52 482.649,180.605 482.68,180.694C482.709,180.783 482.721,180.878 482.718,180.974L482.718,180.991C482.715,181.085 482.693,181.176 482.659,181.261C482.625,181.344 482.575,181.417 482.515,181.481C482.455,181.543 482.385,181.588 482.31,181.62C482.237,181.651 482.157,181.662 482.077,181.659C480.886,181.628 478.572,181.55 475.775,181.495C474.459,181.469 473.036,181.449 471.573,181.44C469.489,181.428 467.323,181.436 465.271,181.448C461.123,181.471 457.439,181.528 455.817,181.545C455.677,181.547 455.549,181.487 455.457,181.386C455.363,181.283 455.301,181.141 455.3,180.982L455.3,180.982C455.299,180.905 455.31,180.829 455.335,180.758C455.36,180.687 455.397,180.621 455.445,180.565C455.494,180.509 455.551,180.463 455.614,180.433C455.678,180.403 455.747,180.384 455.817,180.383L479.207,180.02C479.216,180.02 479.223,180.012 479.223,180.002C479.223,179.992 479.216,179.984 479.207,179.984Z"/>
                </g>
                <g transform="matrix(-0.0025619,0.365271,-0.524125,-0.00178542,299.541,-25.5722)">
                    <path d="M491.391,59.998C491.391,59.998 491.388,58.498 491.322,56.798C491.234,54.564 491.05,51.999 491.05,51.999C491.049,51.893 490.975,51.807 490.885,51.807C490.794,51.807 490.721,51.894 490.721,52.001C490.721,52.001 490.562,54.568 490.496,56.802C490.446,58.502 490.458,60.002 490.458,60.002C490.46,60.304 490.67,60.549 490.927,60.548C491.185,60.546 491.392,60.3 491.391,59.998Z"/>
                </g>
                <g transform="matrix(-0.00152211,0.21702,-0.311401,-0.00106078,287.413,48.0272)">
                    <path d="M491.71,59.996C491.71,59.996 491.71,58.495 491.604,56.797C491.464,54.552 491.162,51.999 491.162,51.999C491.161,51.819 491.037,51.674 490.884,51.675C490.731,51.676 490.608,51.822 490.609,52.001C490.609,52.001 490.333,54.557 490.214,56.803C490.125,58.502 490.14,60.004 490.14,60.004C490.142,60.513 490.496,60.924 490.929,60.922C491.362,60.92 491.712,60.505 491.71,59.996Z"/>
                </g>
                <g transform="matrix(0.596655,0,0,0.354128,-145.922,107.195)">
                    <path d="M694.816,131.258C694.813,131.237 694.813,131.221 694.806,131.222C694.767,131.233 694.784,131.246 694.816,131.258L694.82,131.279C694.847,131.38 694.888,131.577 694.955,131.853C695.051,132.247 695.155,132.761 695.241,133.298C695.293,133.622 695.322,133.943 695.321,134.237C695.321,134.443 695.312,134.627 695.203,134.75C695.113,134.852 694.956,134.866 694.723,134.859C694.345,134.847 693.855,134.763 693.223,134.552C692.995,134.459 692.732,134.523 692.573,134.712C692.413,134.9 692.393,135.17 692.522,135.38C693.025,136.071 693.592,136.763 694.165,137.396C695.56,138.935 696.899,140.108 696.899,140.108C696.909,140.118 696.925,140.119 696.936,140.109C696.946,140.099 696.947,140.082 696.937,140.072C696.937,140.072 696.077,138.955 695.1,137.476C694.82,137.053 694.533,136.603 694.255,136.142C694.538,136.206 694.783,136.232 694.996,136.23C695.596,136.223 696.003,135.992 696.271,135.684C696.505,135.415 696.652,135.063 696.673,134.654C696.692,134.277 696.631,133.844 696.481,133.415C696.358,133.062 696.202,132.713 696.016,132.394C695.83,132.074 695.64,131.804 695.468,131.581C695.295,131.356 695.161,131.207 695.092,131.13C695.016,131.045 694.961,131.175 694.938,131.246C695.002,131.011 694.922,130.991 694.858,131.027C694.791,131.064 694.767,131.149 694.805,131.216L694.926,131.288C694.926,131.288 694.859,131.275 694.816,131.258Z"/>
                </g>
            </g>
        </g>
    </g>
</svg>
