<?xml version="1.0" encoding="UTF-8" standalone="no"?>
<!DOCTYPE svg PUBLIC "-//W3C//DTD SVG 1.1//EN" "http://www.w3.org/Graphics/SVG/1.1/DTD/svg11.dtd">
<svg width="100%" height="100%" viewBox="0 0 32 32" version="1.1" xmlns="http://www.w3.org/2000/svg" xmlns:xlink="http://www.w3.org/1999/xlink" xml:space="preserve" xmlns:serif="http://www.serif.com/" style="fill-rule:evenodd;clip-rule:evenodd;stroke-linejoin:round;stroke-miterlimit:2;">
    <g transform="matrix(1,0,0,1,-640,-1543)">
        <g id="ic_accounts_liabilities" transform="matrix(0.925727,0,0,0.932989,48.6029,104.45)">
            <rect x="639.181" y="1542.78" width="33.223" height="32.624" style="fill:none;"/>
            <g transform="matrix(1.91155,0,0,3.19563,-214.124,1212.64)">
                <g transform="matrix(0.201872,0.139341,-0.156058,0.0796444,393.239,25.678)">
                    <path d="M473.179,167.846L473.202,167.809L473.214,167.771C473.236,167.694 473.281,167.505 473.293,167.215C473.313,166.746 473.356,165.749 473.398,164.746C473.418,164.288 473.365,163.838 473.268,163.411C473.169,162.976 473.003,162.583 472.797,162.231C472.586,161.874 472.326,161.605 472.045,161.401C471.76,161.192 471.445,161.091 471.123,161.062C471.123,161.062 466.776,160.737 466.776,160.737C466.032,160.712 465.357,161.164 464.86,161.885C464.359,162.612 464.058,163.641 464.049,164.772C464.043,165.733 464.038,166.683 464.036,167.128C464.033,167.706 464.167,168.199 464.357,168.444C464.745,168.946 465.331,168.88 465.664,168.296C465.664,168.296 465.892,167.896 465.886,167.123L465.867,164.767C465.863,164.382 465.955,164.027 466.119,163.769C466.288,163.503 466.516,163.31 466.78,163.299L471.126,162.939C471.289,162.924 471.452,162.937 471.603,163.015C471.76,163.096 471.912,163.205 472.039,163.374C472.171,163.548 472.286,163.745 472.362,163.977C472.441,164.217 472.499,164.474 472.51,164.746C472.553,165.749 472.596,166.746 472.616,167.215C472.621,167.335 472.654,167.459 472.626,167.461C472.452,167.479 472.532,167.545 472.682,167.615C472.639,167.666 472.677,167.778 472.741,167.862C472.869,168.028 473.059,168.017 473.179,167.846Z"/>
                </g>
                <g transform="matrix(-0.024186,-0.0128998,-0.0226836,0.0149818,479.229,109.269)">
                    <path d="M559.024,95.298C559.215,94.801 559.715,94.447 560.301,94.447C565.916,93.387 571.102,94.973 575.453,97.887C578.817,100.14 581.075,103.488 582.607,107.277C583.258,108.887 583.489,110.616 583.701,112.405C584.077,116.78 582.947,120.918 580.919,124.52C580.012,126.13 578.838,127.592 577.489,128.874C573.113,133.031 566.939,135.437 560.301,135.19C553.957,134.659 548.121,132.153 544.282,127.79C540.548,123.548 538.272,118.125 539.185,112.256C540.105,106.869 542.237,102.612 545.933,99.701C549.242,97.094 553.494,95.495 558.816,95.292C558.887,95.281 558.958,95.283 559.024,95.298ZM559.056,96.286C559.268,96.742 559.746,97.06 560.301,97.06C564.447,97.843 567.454,100.314 569.721,103.379C571.601,105.92 572.159,109.082 571.659,112.405C571.457,115.303 569.701,117.603 567.685,119.481C565.715,121.318 563.262,122.814 560.301,122.924C557.068,123.195 553.918,122.478 551.552,120.657C548.956,118.658 546.889,115.958 546.659,112.554C546.332,108.604 547.027,105.248 549.088,102.57C551.295,99.704 554.568,97.58 558.993,96.303L559.056,96.286Z"/>
                </g>
                <g transform="matrix(-0.0621522,-0.031099,0.0546859,-0.0384997,476.769,127.866)">
                    <path d="M559.282,95.671C559.22,95.497 559.034,95.387 558.838,95.419C553.646,95.773 549.479,97.418 546.327,100.06C542.87,102.958 540.84,107.098 540.119,112.294C539.412,117.847 541.57,122.98 545.19,126.898C548.886,130.898 554.352,133.283 560.301,133.657C566.478,133.829 572.252,131.624 576.263,127.7C580.254,123.796 582.503,118.289 582.195,112.405C582.047,110.729 581.811,109.109 581.256,107.587C579.943,103.988 577.795,100.817 574.737,98.574C570.717,95.626 565.699,94.009 560.301,94.774C559.765,94.774 559.325,95.169 559.282,95.671ZM559.29,95.899C559.251,96.039 559.13,96.151 558.971,96.176C554.453,97.334 551.019,99.378 548.694,102.211C546.463,104.931 545.514,108.402 545.725,112.517C545.873,116.217 547.881,119.315 550.643,121.548C553.23,123.64 556.69,124.684 560.301,124.457C563.719,124.362 566.644,122.782 568.911,120.655C571.209,118.499 572.991,115.723 573.164,112.405C573.573,108.779 572.598,105.37 570.438,102.693C567.978,99.645 564.589,97.341 560.301,96.734C559.788,96.734 559.362,96.371 559.29,95.899Z"/>
                </g>
                <g transform="matrix(-0.227684,-0.0546022,0.0960149,-0.141037,575.172,152.675)">
                    <path d="M571.977,100.667C573.528,102.237 574.736,104.1 575.533,106.155C576.285,108.097 576.637,110.207 576.525,112.405C576.331,116.62 574.34,120.327 571.345,122.987C568.45,125.56 564.555,127.091 560.301,126.963C558.25,126.932 556.293,126.476 554.483,125.763C552.618,125.027 550.922,123.986 549.475,122.695C548.007,121.385 546.769,119.857 545.92,118.109C545.081,116.383 544.538,114.497 544.507,112.469C544.411,109.505 544.912,106.88 546.007,104.594C547.22,102.065 549.069,99.966 551.589,98.336C551.674,98.29 551.704,98.187 551.657,98.105C551.609,98.024 551.501,97.994 551.416,98.04C548.451,99.329 546.102,101.241 544.378,103.723C542.725,106.104 541.737,108.994 541.336,112.342C541.079,114.867 541.439,117.297 542.273,119.541C543.14,121.875 544.558,123.985 546.359,125.752C548.144,127.503 550.333,128.901 552.749,129.836C555.089,130.742 557.656,131.192 560.301,131.151C565.642,130.99 570.458,128.851 573.829,125.368C577.113,121.974 579.064,117.389 578.834,112.405C578.709,109.943 578.089,107.625 577.024,105.542C575.942,103.425 574.439,101.556 572.6,100.041C572.42,99.876 572.134,99.883 571.962,100.055C571.79,100.228 571.797,100.502 571.977,100.667Z"/>
                </g>
                <g transform="matrix(-0.00265271,0.378219,-0.542704,-0.00184871,490.02,-80.6343)">
                    <path d="M491.375,59.998C491.375,59.998 491.372,58.498 491.308,56.798C491.223,54.565 491.044,51.999 491.044,51.999C491.044,51.896 490.972,51.813 490.885,51.814C490.797,51.814 490.726,51.898 490.727,52.001C490.727,52.001 490.573,54.568 490.51,56.802C490.462,58.502 490.474,60.002 490.474,60.002C490.476,60.294 490.679,60.53 490.927,60.529C491.176,60.528 491.376,60.29 491.375,59.998Z"/>
                </g>
                <g transform="matrix(-0.00157607,0.224713,-0.322439,-0.00109838,477.462,-4.42595)">
                    <path d="M491.683,59.996C491.683,59.996 491.683,58.495 491.58,56.797C491.444,54.553 491.153,51.999 491.153,51.999C491.152,51.825 491.032,51.685 490.884,51.686C490.737,51.687 490.617,51.828 490.618,52.001C490.618,52.001 490.352,54.558 490.238,56.803C490.152,58.502 490.167,60.004 490.167,60.004C490.169,60.495 490.511,60.892 490.929,60.89C491.347,60.888 491.685,60.488 491.683,59.996Z"/>
                </g>
                <g transform="matrix(0.617805,0,0,0.366681,28.7662,56.8392)">
                    <path d="M694.821,131.255C694.818,131.235 694.817,131.218 694.81,131.22C694.772,131.23 694.789,131.244 694.821,131.255C694.822,131.262 694.823,131.269 694.825,131.277C694.852,131.377 694.895,131.574 694.964,131.848C695.063,132.242 695.171,132.756 695.259,133.293C695.313,133.618 695.344,133.94 695.344,134.235C695.344,134.449 695.334,134.639 695.222,134.766C695.127,134.872 694.964,134.89 694.722,134.882C694.342,134.87 693.85,134.784 693.216,134.57C692.995,134.48 692.742,134.542 692.587,134.725C692.433,134.907 692.414,135.167 692.539,135.37C693.039,136.061 693.604,136.755 694.175,137.388C695.565,138.93 696.899,140.107 696.899,140.107C696.909,140.117 696.925,140.118 696.935,140.108C696.946,140.099 696.946,140.083 696.936,140.072C696.936,140.072 696.073,138.958 695.091,137.482C694.802,137.048 694.505,136.585 694.218,136.111C694.516,136.18 694.773,136.209 694.995,136.206C695.587,136.199 695.988,135.972 696.253,135.668C696.484,135.403 696.628,135.055 696.649,134.651C696.669,134.277 696.608,133.847 696.461,133.419C696.34,133.067 696.185,132.718 696.001,132.4C695.817,132.08 695.629,131.808 695.459,131.585C695.289,131.36 695.156,131.21 695.088,131.133C695.068,131.11 695.055,131.096 695.049,131.088C695.006,131.042 694.978,131.064 694.96,131.107C694.961,131.01 694.906,131.006 694.861,131.031C694.796,131.067 694.773,131.149 694.809,131.214L694.926,131.283C694.926,131.283 694.861,131.271 694.821,131.255Z"/>
                </g>
                <g transform="matrix(0.565107,0,0,0.335403,-8.89884,27.7555)">
                    <path d="M814.319,249.294L818.021,248.708L819.261,252.621C819.319,252.807 819.415,252.976 819.547,253.113C819.678,253.249 819.837,253.36 820.019,253.425L825.987,255.548C826.267,255.647 826.561,255.691 826.851,255.671C827.14,255.652 827.426,255.578 827.688,255.442C827.949,255.307 828.179,255.125 828.36,254.902C828.541,254.681 828.681,254.425 828.76,254.144L828.761,254.141C828.911,253.608 828.85,253.062 828.61,252.605C828.374,252.152 827.977,251.781 827.46,251.602C827.46,251.602 822.893,250.028 822.893,250.028C822.893,250.028 822.834,249.974 822.834,249.974C822.834,249.974 821.798,245.124 821.798,245.124C821.798,245.124 821.66,244.812 821.66,244.812C821.66,244.812 819.007,241.254 819.007,241.254C818.944,241.165 818.821,241.145 818.733,241.207C818.645,241.27 818.624,241.393 818.687,241.481L821.175,245.157L821.205,245.237C821.205,245.237 822.02,250.129 822.02,250.129C822.047,250.288 822.118,250.432 822.216,250.553C822.315,250.675 822.448,250.768 822.599,250.828C822.599,250.828 827.097,252.587 827.097,252.587C827.343,252.683 827.525,252.871 827.629,253.093C827.732,253.31 827.748,253.564 827.668,253.809L827.667,253.812C827.626,253.938 827.556,254.05 827.47,254.147C827.386,254.243 827.279,254.317 827.161,254.373C827.044,254.427 826.918,254.452 826.792,254.455C826.668,254.459 826.544,254.433 826.426,254.385L820.667,252.087L819.507,247.958C819.418,247.641 819.213,247.387 818.955,247.217C818.697,247.046 818.377,246.974 818.049,247.017L813.838,247.57C813.601,247.601 813.381,247.698 813.195,247.836C813.007,247.975 812.859,248.164 812.76,248.383L810.488,253.408C810.455,253.48 810.407,253.542 810.35,253.595C810.294,253.648 810.226,253.686 810.152,253.714C810.08,253.74 810.002,253.749 809.926,253.746C809.851,253.743 809.777,253.722 809.708,253.689L809.707,253.688C809.565,253.622 809.469,253.501 809.419,253.366C809.37,253.232 809.374,253.08 809.438,252.94L812.293,246.646L816.836,245.103C817.116,245.011 817.337,244.792 817.432,244.513C817.527,244.234 817.485,243.926 817.319,243.683L813.334,238.028C813.219,237.867 813.152,237.682 813.15,237.493C813.148,237.3 813.195,237.104 813.308,236.937L813.308,236.937C813.439,236.744 813.622,236.602 813.833,236.538C814.049,236.473 814.286,236.469 814.508,236.559C814.508,236.559 826.081,241.18 826.081,241.18C826.221,241.235 826.349,241.314 826.454,241.418C826.561,241.524 826.649,241.648 826.707,241.79C826.765,241.934 826.796,242.086 826.793,242.238C826.79,242.392 826.76,242.546 826.695,242.69L826.692,242.695C826.562,242.983 826.334,243.197 826.062,243.306C825.782,243.417 825.46,243.43 825.16,243.308C825.16,243.308 816.346,239.751 816.346,239.751C816.327,239.743 816.305,239.751 816.297,239.77C816.289,239.789 816.297,239.81 816.316,239.819L824.911,243.877C825.363,244.09 825.858,244.097 826.298,243.949C826.746,243.798 827.131,243.474 827.366,243.023C827.366,243.023 827.368,243.018 827.368,243.018C827.49,242.785 827.556,242.532 827.576,242.275C827.595,242.017 827.558,241.755 827.472,241.504C827.386,241.251 827.245,241.025 827.07,240.83C826.893,240.634 826.674,240.478 826.429,240.366L815.088,235.201C814.548,234.957 813.959,234.929 813.418,235.07C812.872,235.213 812.379,235.546 812.024,236.027C812.024,236.027 812.023,236.027 812.023,236.027C811.705,236.458 811.547,236.967 811.532,237.479C811.517,237.994 811.666,238.511 811.961,238.963C811.961,238.963 815.078,243.692 815.078,243.692C815.078,243.692 811.469,244.838 811.469,244.838C811.271,244.902 811.091,245.008 810.939,245.144C810.786,245.279 810.663,245.447 810.576,245.637L807.635,252.122C807.349,252.758 807.344,253.451 807.574,254.055C807.803,254.658 808.259,255.176 808.894,255.461C808.894,255.461 808.895,255.461 808.895,255.461C809.203,255.599 809.531,255.676 809.862,255.684C810.192,255.692 810.524,255.639 810.838,255.516C811.151,255.394 811.435,255.214 811.671,254.985C811.908,254.757 812.102,254.484 812.234,254.176L814.319,249.294Z"/>
                </g>
            </g>
        </g>
    </g>
</svg>
