<?xml version="1.0" encoding="UTF-8" standalone="no"?>
<!DOCTYPE svg PUBLIC "-//W3C//DTD SVG 1.1//EN" "http://www.w3.org/Graphics/SVG/1.1/DTD/svg11.dtd">
<svg width="100%" height="100%" viewBox="0 0 32 33" version="1.1" xmlns="http://www.w3.org/2000/svg" xmlns:xlink="http://www.w3.org/1999/xlink" xml:space="preserve" xmlns:serif="http://www.serif.com/" style="fill-rule:evenodd;clip-rule:evenodd;stroke-linejoin:round;stroke-miterlimit:2;">
    <g transform="matrix(1,0,0,1,-725,-1543)">
        <g id="ic_accounts_total_liabilties" transform="matrix(1.00123,0,0,1.0003,-0.910958,-0.47445)">
            <rect x="725.818" y="1543.85" width="30.426" height="31.469" style="fill:none;"/>
            <g transform="matrix(1.76741,0,0,2.98058,-128.217,1237.2)">
                <g transform="matrix(0.471494,5.55112e-17,1.11022e-16,0.292063,227.558,75.4364)">
                    <path d="M561.022,95.932C565.711,96.087 569.698,98.064 572.491,101.119C575.194,104.075 576.759,108.056 576.644,112.405C576.592,116.706 574.693,120.554 571.742,123.368C568.797,126.176 564.78,127.972 560.301,128.002C555.802,128.068 551.593,126.384 548.522,123.618C545.383,120.79 543.419,116.841 543.557,112.435C543.678,108.183 545.008,104.47 547.505,101.602C549.945,98.8 553.483,96.805 558.074,95.883C558.124,95.874 558.157,95.828 558.148,95.78C558.139,95.732 558.09,95.7 558.04,95.709C553.29,96.454 549.579,98.368 546.947,101.137C544.181,104.047 542.613,107.904 542.287,112.376C541.947,117.208 543.942,121.625 547.279,124.843C550.602,128.047 555.268,130.039 560.301,130.112C565.414,130.146 570.087,128.209 573.432,124.987C576.772,121.772 578.775,117.296 578.715,112.405C578.589,107.617 576.684,103.289 573.511,100.209C570.357,97.15 565.987,95.318 561.022,95.482C560.893,95.482 560.787,95.583 560.787,95.707C560.787,95.831 560.893,95.932 561.022,95.932Z"/>
                </g>
                <g transform="matrix(0.679512,0,0,0.403305,-66.8488,-0.598794)">
                    <path d="M823.191,259.283C823.191,259.28 823.19,259.276 823.187,259.273C823.179,259.264 823.162,259.246 823.138,259.219C823.048,259.122 822.863,258.919 822.642,258.69C822.522,258.564 822.394,258.434 822.266,258.308C822.154,258.197 822.045,258.091 821.945,258C821.881,257.941 821.82,257.889 821.768,257.844C821.797,257.822 821.828,257.799 821.862,257.773C821.977,257.684 822.113,257.578 822.253,257.463C822.711,257.09 823.21,256.659 823.21,256.659C823.229,256.646 823.234,256.62 823.221,256.602C823.208,256.583 823.183,256.579 823.164,256.591C823.164,256.591 822.583,256.905 822.071,257.2C821.915,257.29 821.767,257.379 821.643,257.456L821.362,257.634C821.33,257.655 821.305,257.685 821.286,257.717C821.267,257.75 821.257,257.788 821.255,257.827C821.252,257.866 821.261,257.904 821.276,257.939C821.29,257.974 821.315,258.004 821.344,258.03C821.407,258.08 821.531,258.185 821.692,258.306C821.8,258.388 821.925,258.474 822.055,258.564C822.202,258.665 822.354,258.766 822.5,258.861C822.875,259.104 823.187,259.292 823.187,259.292C823.186,259.293 823.19,259.293 823.193,259.289C823.196,259.286 823.195,259.281 823.192,259.279L823.191,259.283Z"/>
                </g>
                <g transform="matrix(0.127757,0.0881842,-0.0987639,0.0504041,452.528,56.1908)">
                    <path d="M473.191,167.865L473.215,167.827L473.227,167.799C473.249,167.743 473.293,167.603 473.304,167.374C473.313,167.194 473.331,166.82 473.354,166.344C473.386,165.678 473.316,165.024 473.179,164.403C473.039,163.766 472.803,163.187 472.505,162.671C472.199,162.144 471.822,161.743 471.413,161.439C470.995,161.128 470.535,160.969 470.061,160.922C470.061,160.922 467.834,160.724 467.834,160.724C466.79,160.674 465.836,161.292 465.137,162.299C464.428,163.319 464.005,164.771 463.991,166.364L463.985,167.287C463.994,167.845 464.129,168.247 464.325,168.501C464.733,169.029 465.35,168.959 465.702,168.345C465.702,168.345 465.943,168.007 465.937,167.282C465.936,167.121 465.933,166.786 465.929,166.358C465.92,165.556 466.123,164.824 466.463,164.285C466.813,163.728 467.289,163.334 467.838,163.304L470.065,163.088C470.358,163.057 470.65,163.088 470.924,163.225C471.208,163.368 471.478,163.572 471.709,163.873C471.948,164.183 472.15,164.542 472.289,164.958C472.433,165.389 472.531,165.854 472.555,166.344C472.578,166.82 472.596,167.194 472.604,167.374C472.607,167.426 472.621,167.476 472.61,167.477C472.429,167.498 472.508,167.563 472.66,167.631C472.627,167.688 472.666,167.799 472.73,167.882C472.865,168.056 473.065,168.046 473.191,167.865Z"/>
                </g>
                <g transform="matrix(-0.0153064,-0.00816382,-0.0143556,0.00948147,506.947,109.093)">
                    <path d="M559.038,95.309C559.226,94.815 559.721,94.463 560.301,94.463C565.905,93.418 571.083,95.005 575.417,97.921C578.766,100.174 581.019,103.513 582.54,107.292C583.186,108.898 583.418,110.621 583.626,112.405C583.996,116.765 582.871,120.889 580.847,124.478C579.942,126.082 578.772,127.538 577.428,128.816C573.067,132.959 566.916,135.357 560.301,135.114C553.977,134.591 548.159,132.09 544.327,127.746C540.599,123.52 538.329,118.112 539.231,112.258C540.141,106.88 542.269,102.629 545.953,99.719C549.254,97.11 553.502,95.509 558.817,95.299C558.893,95.286 558.968,95.29 559.038,95.309ZM559.07,96.276C559.279,96.729 559.752,97.044 560.301,97.044C564.454,97.818 567.481,100.281 569.757,103.345C571.65,105.893 572.229,109.068 571.734,112.405C571.533,115.324 569.776,117.648 567.746,119.54C565.761,121.39 563.285,122.891 560.301,123C557.049,123.269 553.884,122.536 551.507,120.701C548.903,118.691 546.839,115.971 546.613,112.552C546.291,108.594 546.999,105.232 549.069,102.552C551.282,99.688 554.563,97.568 558.992,96.297L559.07,96.276Z"/>
                </g>
                <g transform="matrix(-0.0393339,-0.0196815,0.0346087,-0.0243651,505.391,120.862)">
                    <path d="M559.243,95.558C559.153,95.439 558.997,95.372 558.835,95.398C553.622,95.729 549.44,97.366 546.264,100.002C542.769,102.903 540.722,107.061 539.969,112.288C539.23,117.892 541.406,123.072 545.045,127.041C548.764,131.098 554.289,133.505 560.301,133.902C566.552,134.086 572.403,131.861 576.46,127.888C580.495,123.935 582.764,118.358 582.437,112.405C582.278,110.711 582.042,109.073 581.472,107.537C580.126,103.908 577.958,100.709 574.851,98.464C570.78,95.521 565.733,93.911 560.301,94.721C559.776,94.721 559.338,95.082 559.243,95.558ZM559.259,96.015C559.198,96.108 559.097,96.177 558.974,96.197C554.472,97.373 551.063,99.43 548.757,102.269C546.554,104.982 545.644,108.435 545.874,112.523C546.037,116.175 548.053,119.211 550.789,121.405C553.341,123.453 556.751,124.447 560.301,124.212C563.646,124.113 566.495,122.547 568.715,120.467C570.967,118.356 572.744,115.656 572.923,112.405C573.348,108.828 572.436,105.458 570.323,102.803C567.895,99.752 564.565,97.422 560.301,96.786C559.8,96.786 559.379,96.458 559.259,96.015Z"/>
                </g>
                <g transform="matrix(-0.144093,-0.0345558,0.0607644,-0.0892573,567.666,136.563)">
                    <path d="M572.043,100.601C573.622,102.166 574.865,104.029 575.689,106.091C576.472,108.047 576.857,110.18 576.767,112.405C576.611,116.699 574.633,120.504 571.606,123.237C568.656,125.9 564.668,127.507 560.301,127.403C558.188,127.377 556.166,126.924 554.301,126.19C552.379,125.433 550.632,124.353 549.148,123.016C547.644,121.661 546.392,120.066 545.537,118.259C544.695,116.482 544.18,114.535 544.175,112.455C544.125,109.455 544.688,106.799 545.836,104.502C547.098,101.981 549.01,99.9 551.57,98.305C551.638,98.269 551.662,98.187 551.624,98.123C551.587,98.058 551.501,98.035 551.434,98.071C548.521,99.397 546.215,101.329 544.549,103.815C542.96,106.186 542.012,109.051 541.669,112.355C541.447,114.828 541.818,117.204 542.655,119.39C543.526,121.661 544.919,123.715 546.686,125.431C548.437,127.132 550.573,128.494 552.931,129.408C555.215,130.294 557.718,130.743 560.301,130.711C565.528,130.587 570.243,128.5 573.568,125.118C576.824,121.806 578.77,117.307 578.592,112.405C578.494,109.972 577.897,107.675 576.867,105.606C575.817,103.496 574.341,101.628 572.535,100.107C572.392,99.976 572.166,99.982 572.03,100.118C571.895,100.255 571.9,100.471 572.043,100.601Z"/>
                </g>
                <g transform="matrix(-0.00167881,0.239361,-0.343458,-0.00116999,513.777,-11.0905)">
                    <path d="M491.399,59.998C491.399,59.998 491.396,58.497 491.329,56.798C491.24,54.564 491.053,51.999 491.053,51.999C491.052,51.891 490.977,51.803 490.885,51.804C490.792,51.804 490.718,51.892 490.718,52.001C490.718,52.001 490.556,54.568 490.489,56.802C490.438,58.502 490.45,60.002 490.45,60.002C490.452,60.31 490.666,60.558 490.927,60.557C491.189,60.556 491.401,60.305 491.399,59.998Z"/>
                </g>
                <g transform="matrix(-0.000997438,0.142213,-0.20406,-0.000695129,505.829,37.1391)">
                    <path d="M491.723,59.996C491.723,59.996 491.724,58.495 491.616,56.797C491.473,54.551 491.167,51.999 491.167,51.999C491.166,51.816 491.039,51.669 490.884,51.669C490.729,51.67 490.603,51.819 490.604,52.001C490.604,52.001 490.323,54.557 490.202,56.803C490.111,58.502 490.126,60.004 490.126,60.004C490.129,60.521 490.489,60.94 490.929,60.938C491.37,60.935 491.726,60.514 491.723,59.996Z"/>
                </g>
                <g transform="matrix(0.390987,0,0,0.232059,221.865,75.9116)">
                    <path d="M694.814,131.26C694.811,131.239 694.811,131.222 694.804,131.224C694.764,131.234 694.781,131.248 694.814,131.26L694.818,131.28C694.844,131.381 694.884,131.579 694.95,131.855C695.045,132.25 695.147,132.764 695.231,133.301C695.282,133.625 695.311,133.944 695.31,134.238C695.309,134.44 695.3,134.621 695.194,134.742C695.106,134.842 694.952,134.854 694.724,134.847C694.347,134.836 693.858,134.753 693.227,134.542C692.994,134.448 692.727,134.514 692.565,134.705C692.403,134.897 692.382,135.172 692.514,135.386C693.018,136.076 693.585,136.768 694.16,137.4C695.558,138.937 696.898,140.108 696.898,140.108C696.909,140.119 696.926,140.119 696.936,140.109C696.947,140.099 696.948,140.082 696.937,140.072C696.937,140.072 696.08,138.953 695.104,137.472C694.829,137.055 694.546,136.612 694.274,136.158C694.549,136.219 694.788,136.244 694.996,136.242C695.601,136.236 696.01,136.002 696.28,135.692C696.516,135.421 696.664,135.067 696.685,134.655C696.704,134.277 696.643,133.843 696.492,133.412C696.368,133.059 696.213,132.708 696.024,132.391C695.692,131.835 695.339,131.411 695.16,131.202C695.111,131.145 695.079,131.11 695.062,131.092C695.014,131.041 694.982,131.07 694.961,131.121C694.968,131.003 694.908,130.997 694.857,131.025C694.789,131.063 694.764,131.149 694.803,131.218L694.926,131.29C694.926,131.29 694.857,131.277 694.814,131.26Z"/>
                </g>
                <g transform="matrix(0.357636,0,0,0.212265,198.029,57.5056)">
                    <path d="M814.436,249.44L817.917,248.881L819.084,252.524C819.164,252.773 819.293,253.001 819.47,253.184C819.647,253.366 819.861,253.515 820.106,253.602C820.106,253.602 825.955,255.659 825.955,255.659C826.25,255.762 826.557,255.809 826.862,255.787C827.164,255.765 827.464,255.688 827.739,255.545C828.011,255.403 828.252,255.212 828.442,254.978C828.63,254.745 828.777,254.478 828.859,254.183C828.859,254.183 828.864,254.165 828.864,254.165C829.019,253.607 828.955,253.036 828.703,252.558C828.455,252.087 828.04,251.698 827.499,251.513C827.499,251.513 823.076,250.006 823.076,250.006C823.028,249.99 822.983,249.968 822.95,249.932C822.916,249.894 822.886,249.851 822.875,249.799L821.866,245.176L821.667,244.73L819.036,241.232C818.962,241.128 818.817,241.103 818.712,241.178C818.607,241.252 818.583,241.397 818.657,241.502L821.095,245.136C821.095,245.136 821.16,245.31 821.16,245.31L821.918,249.981C821.954,250.204 822.054,250.406 822.19,250.576C822.328,250.747 822.513,250.878 822.724,250.962L827.07,252.68C827.289,252.767 827.448,252.938 827.541,253.137C827.631,253.329 827.64,253.556 827.569,253.772L827.563,253.79C827.526,253.901 827.463,253.998 827.387,254.083C827.313,254.166 827.217,254.229 827.114,254.277C827.012,254.324 826.902,254.343 826.792,254.345C826.684,254.348 826.577,254.322 826.475,254.281L820.783,251.985L819.72,248.155C819.603,247.734 819.33,247.394 818.987,247.167C818.643,246.938 818.216,246.842 817.779,246.897C817.779,246.897 813.975,247.387 813.975,247.387C813.659,247.428 813.369,247.556 813.121,247.739C812.872,247.922 812.675,248.173 812.542,248.463C812.542,248.463 810.333,253.325 810.333,253.325C810.309,253.377 810.272,253.421 810.231,253.459C810.19,253.497 810.14,253.523 810.087,253.542C810.035,253.561 809.979,253.565 809.925,253.563C809.871,253.56 809.819,253.543 809.77,253.52L809.768,253.519C809.676,253.475 809.616,253.393 809.584,253.304C809.552,253.218 809.557,253.119 809.599,253.029L812.429,246.794L816.891,245.269C817.223,245.16 817.485,244.901 817.597,244.569C817.71,244.238 817.66,243.873 817.463,243.584L813.409,237.867C813.328,237.754 813.274,237.627 813.272,237.494C813.27,237.357 813.297,237.216 813.377,237.097L813.378,237.095C813.503,236.909 813.677,236.768 813.88,236.705C814.09,236.64 814.321,236.632 814.536,236.718L825.989,241.232C826.127,241.286 826.254,241.361 826.357,241.462C826.462,241.566 826.552,241.687 826.609,241.826C826.667,241.968 826.701,242.118 826.699,242.268C826.696,242.421 826.668,242.575 826.605,242.718C826.605,242.718 826.604,242.719 826.604,242.719C826.489,242.975 826.29,243.17 826.048,243.268C825.797,243.369 825.509,243.385 825.239,243.277L816.348,239.745C816.326,239.735 816.3,239.745 816.291,239.767C816.281,239.789 816.291,239.815 816.313,239.825L824.942,243.956C825.393,244.171 825.888,244.178 826.329,244.032C826.778,243.882 827.164,243.557 827.401,243.107L827.402,243.106C827.533,242.858 827.604,242.587 827.626,242.313C827.649,242.036 827.609,241.756 827.518,241.487C827.427,241.216 827.277,240.973 827.089,240.763C826.901,240.552 826.665,240.385 826.403,240.263L815.223,235.111C814.631,234.841 813.984,234.811 813.388,234.964C812.786,235.118 812.245,235.486 811.851,236.014C811.851,236.014 811.85,236.015 811.85,236.015C811.528,236.448 811.37,236.962 811.353,237.477C811.336,237.997 811.488,238.517 811.784,238.975C811.784,238.975 814.807,243.592 814.807,243.592L811.533,244.625C811.272,244.709 811.035,244.849 810.834,245.027C810.633,245.205 810.471,245.427 810.356,245.676L807.462,252.06C807.159,252.739 807.151,253.477 807.398,254.121C807.643,254.763 808.129,255.316 808.806,255.618L808.808,255.619C809.139,255.767 809.493,255.85 809.849,255.858C810.204,255.866 810.562,255.809 810.899,255.677C811.236,255.545 811.541,255.352 811.796,255.105C812.049,254.859 812.258,254.565 812.4,254.234L814.436,249.44Z"/>
                </g>
            </g>
        </g>
    </g>
</svg>
