<?xml version="1.0" encoding="UTF-8" standalone="no"?>
<!DOCTYPE svg PUBLIC "-//W3C//DTD SVG 1.1//EN" "http://www.w3.org/Graphics/SVG/1.1/DTD/svg11.dtd">
<svg width="100%" height="100%" viewBox="0 0 33 30" version="1.1" xmlns="http://www.w3.org/2000/svg" xmlns:xlink="http://www.w3.org/1999/xlink" xml:space="preserve" xmlns:serif="http://www.serif.com/" style="fill-rule:evenodd;clip-rule:evenodd;stroke-linejoin:round;stroke-miterlimit:2;">
    <g transform="matrix(1,0,0,1,-1044,-1596)">
        <g id="ic_account_groups_foreign_liabilities" transform="matrix(0.856505,0,0,0.835083,212.759,261.417)">
            <rect x="971.253" y="1598.27" width="37.247" height="35.752" style="fill:none;"/>
            <g transform="matrix(2.06604,0,0,3.57029,7.39108,1079.84)">
                <g transform="matrix(-0.234991,-0.151135,0.265762,-0.145563,579.843,252.577)">
                    <path d="M560.301,96.06C564.926,96.265 569.001,98.253 571.915,101.277C574.73,104.2 576.418,108.12 576.267,112.405C576.199,116.599 574.318,120.333 571.437,123.076C568.565,125.81 564.665,127.58 560.301,127.618C555.896,127.705 551.782,126.08 548.77,123.387C545.682,120.626 543.724,116.767 543.799,112.44C543.86,107.97 545.268,104.269 547.881,101.472C550.467,98.704 554.198,96.816 558.925,95.916C558.994,95.905 559.04,95.843 559.028,95.778C559.017,95.712 558.952,95.668 558.884,95.679C553.945,96.329 549.984,98.09 547.14,100.799C544.144,103.653 542.397,107.561 542.045,112.37C541.703,117.278 543.706,121.772 547.064,125.06C550.425,128.351 555.164,130.395 560.301,130.496C565.528,130.542 570.319,128.576 573.737,125.279C577.147,121.99 579.174,117.403 579.092,112.405C578.919,107.496 576.754,103.08 573.259,99.989C569.864,96.986 565.276,95.227 560.301,95.447C560.124,95.447 559.981,95.585 559.981,95.754C559.981,95.923 560.124,96.06 560.301,96.06Z"/>
                </g>
                <g transform="matrix(0.61762,0,0,0.366571,-28.6224,39.7174)">
                    <path d="M827.756,304.598C827.998,304.927 828.205,305.554 828.246,306.485C828.286,307.392 828.18,308.555 827.769,310.005C827.766,310.014 827.77,310.023 827.779,310.027C827.788,310.03 827.797,310.025 827.801,310.016C828.429,308.597 828.714,307.426 828.788,306.495C828.862,305.584 828.727,304.901 828.542,304.446C828.452,304.225 828.34,304.057 828.232,303.931C828.056,303.726 827.834,303.69 827.572,303.768C827.345,303.835 827.037,304.095 826.699,304.29C826.499,304.406 826.272,304.481 826.037,304.254C825.699,303.696 825.457,303.179 825.28,302.703C825.04,302.058 824.923,301.492 824.893,300.999C824.807,299.579 825.395,298.804 825.395,298.804C825.442,298.75 825.462,298.678 825.449,298.608C825.436,298.538 825.392,298.477 825.329,298.444C825.023,298.304 824.558,297.942 824.229,297.552C823.99,297.269 823.812,296.978 823.844,296.743C823.853,296.694 823.821,296.647 823.773,296.638C823.724,296.628 823.677,296.66 823.668,296.709C823.597,296.984 823.746,297.361 823.991,297.73C824.24,298.105 824.589,298.465 824.885,298.697C824.644,299.036 824.213,299.807 824.183,301.012C824.169,301.573 824.246,302.229 824.479,302.977C824.649,303.526 824.914,304.12 825.279,304.766C825.296,304.795 825.317,304.823 825.34,304.848C825.686,305.212 826.033,305.327 826.355,305.319C826.563,305.314 826.767,305.256 826.957,305.159C827.178,305.048 827.383,304.888 827.565,304.742C827.622,304.696 827.699,304.639 827.756,304.598Z"/>
                </g>
                <g transform="matrix(0.61762,0,0,0.366571,-28.6224,39.7174)">
                    <path d="M811.026,304.006C811.026,304.006 811.476,304.898 812.377,305.799C812.872,306.294 813.503,306.773 814.253,307.13C814.254,307.131 814.256,307.131 814.258,307.132C814.273,307.139 814.276,307.158 814.283,307.172C814.289,307.183 814.279,307.196 814.277,307.21C814.176,307.793 814.223,308.285 814.368,308.702C814.485,309.04 814.666,309.332 814.887,309.582C815.128,309.853 815.413,310.077 815.708,310.272C815.994,310.462 816.286,310.623 816.547,310.784C816.765,310.919 816.963,311.042 817.099,311.195C817.185,311.292 817.256,311.39 817.274,311.514C817.321,311.816 817.361,312.121 817.397,312.409C817.491,313.16 817.545,313.763 817.545,313.763C817.545,313.773 817.552,313.78 817.562,313.78C817.571,313.78 817.579,313.773 817.579,313.764C817.579,313.764 817.637,313.278 817.688,312.628C817.716,312.274 817.739,311.878 817.753,311.485C817.763,310.957 817.335,310.532 816.774,310.085C816.455,309.831 816.097,309.564 815.785,309.243C815.61,309.062 815.454,308.863 815.332,308.632C815.15,308.287 815.047,307.871 815.114,307.329C815.115,307.328 815.115,307.327 815.115,307.326C815.134,307.121 815.094,306.921 814.987,306.758C814.883,306.598 814.734,306.462 814.542,306.398C813.834,306.163 813.221,305.792 812.716,305.41C811.744,304.676 811.179,303.912 811.179,303.912C811.153,303.87 811.098,303.856 811.056,303.882C811.013,303.908 811,303.963 811.026,304.006Z"/>
                </g>
                <g transform="matrix(0.61762,0,0,0.366571,-28.6224,39.7174)">
                    <path d="M814.919,301.183C814.379,300.56 813.564,300.496 813.114,300.822C812.682,301.135 812.443,301.883 813.177,303.005C813.176,303.004 813.196,303.092 813.196,303.092L813.174,303.548C813.13,303.713 813.129,303.888 813.166,304.055C813.206,304.233 813.294,304.399 813.421,304.539C813.647,304.803 814.107,305.227 814.739,305.551C815.198,305.786 815.746,305.965 816.356,306C816.358,306 816.36,306 816.363,306.001C816.463,306.004 816.563,305.997 816.66,305.978C816.758,305.959 816.854,305.929 816.945,305.889C816.945,305.889 816.945,305.889 816.945,305.889C817.534,305.624 818.037,305.731 818.514,305.985C819.345,306.426 820.114,307.247 820.99,307.76C820.992,307.761 820.994,307.762 820.996,307.764C821.1,307.822 821.21,307.87 821.323,307.905C821.437,307.94 821.553,307.965 821.672,307.975C822.367,308.036 822.941,308.183 823.387,308.371C823.846,308.565 824.169,308.791 824.335,309.014C824.41,309.115 824.47,309.198 824.439,309.272C823.783,310.836 822.35,311.314 821.469,312.502C821.125,312.967 820.861,313.534 820.751,314.304C820.75,314.313 820.756,314.322 820.765,314.323C820.774,314.325 820.783,314.319 820.785,314.31C820.951,313.573 821.249,313.045 821.618,312.621C822.118,312.045 822.747,311.665 823.345,311.223C823.947,310.78 824.511,310.275 824.908,309.49C825.059,309.19 824.913,308.684 824.344,308.224C823.833,307.812 822.969,307.416 821.757,307.239C821.757,307.239 821.756,307.239 821.756,307.239C821.69,307.23 821.626,307.211 821.564,307.188C821.502,307.166 821.443,307.135 821.387,307.1C820.811,306.731 820.29,306.211 819.755,305.776C819.32,305.422 818.875,305.122 818.402,304.96C817.844,304.768 817.246,304.759 816.575,305.053C816.575,305.053 816.397,305.087 816.397,305.087C815.924,305.065 815.499,304.927 815.14,304.751C814.631,304.501 814.251,304.177 814.066,303.971C814.062,303.966 814.057,303.961 814.053,303.956C814.025,303.928 814.004,303.895 813.995,303.859C813.986,303.821 813.983,303.781 813.994,303.743C814.004,303.71 814.01,303.677 814.012,303.644L814.019,303.109C814.02,303.01 814.007,302.912 813.978,302.819C813.949,302.726 813.908,302.636 813.852,302.555C813.851,302.553 813.85,302.552 813.849,302.55C813.621,302.228 813.499,301.961 813.475,301.74C813.459,301.593 813.48,301.478 813.562,301.414C813.66,301.336 813.803,301.321 813.95,301.356C814.177,301.41 814.411,301.571 814.577,301.844C814.626,301.928 814.686,301.99 814.76,302.027C814.837,302.067 814.925,302.088 815.015,302.076C815.105,302.064 815.188,302.029 815.252,301.971C815.315,301.913 815.366,301.839 815.386,301.751C815.512,301.271 815.766,300.85 816.075,300.469C816.92,299.429 818.138,298.655 818.585,297.658C818.588,297.653 818.59,297.647 818.592,297.642C818.613,297.578 818.65,297.523 818.701,297.484C818.753,297.444 818.816,297.417 818.885,297.413C819.365,297.398 819.709,297.238 819.953,297.031C820.422,296.631 820.514,296.06 820.514,296.06C820.523,296.012 820.491,295.965 820.442,295.956C820.393,295.946 820.346,295.978 820.337,296.027C820.337,296.027 820.227,296.517 819.799,296.839C819.585,297 819.288,297.114 818.882,297.102C818.881,297.102 818.88,297.102 818.879,297.102C818.744,297.101 818.616,297.144 818.509,297.216C818.404,297.286 818.321,297.389 818.27,297.511C817.779,298.457 816.534,299.134 815.652,300.105C815.358,300.429 815.104,300.783 814.919,301.183Z"/>
                </g>
                <g transform="matrix(0.130563,0.0901207,-0.100933,0.051511,432.151,94.9948)">
                    <path d="M473.186,167.857L473.21,167.819L473.221,167.791C473.243,167.735 473.286,167.594 473.297,167.365C473.306,167.169 473.325,166.762 473.35,166.25C473.38,165.598 473.311,164.958 473.176,164.35C473.038,163.727 472.807,163.161 472.515,162.656C472.215,162.142 471.846,161.75 471.446,161.453C471.037,161.15 470.587,160.995 470.123,160.951L467.772,160.747C466.75,160.7 465.817,161.307 465.133,162.293C464.44,163.292 464.025,164.712 464.013,166.27C464.01,166.734 464.007,167.102 464.006,167.278C464.006,167.328 464.146,168.229 464.338,168.477C464.738,168.994 465.342,168.926 465.686,168.324C465.686,168.324 465.922,167.988 465.916,167.272C465.915,167.097 465.911,166.729 465.907,166.265C465.899,165.48 466.097,164.764 466.431,164.236C466.773,163.693 467.24,163.31 467.776,163.281L470.127,163.059C470.414,163.029 470.7,163.061 470.968,163.196C471.246,163.336 471.51,163.537 471.735,163.832C471.969,164.136 472.166,164.489 472.301,164.896C472.441,165.317 472.537,165.771 472.559,166.25C472.583,166.762 472.602,167.169 472.612,167.365C472.614,167.42 472.629,167.475 472.617,167.476C472.44,167.496 472.518,167.56 472.667,167.627C472.634,167.683 472.672,167.792 472.735,167.873C472.867,168.044 473.062,168.034 473.186,167.857Z"/>
                </g>
                <g transform="matrix(-0.0156426,-0.00834309,-0.0146709,0.00968967,487.765,149.058)">
                    <path d="M559.061,95.328C559.242,94.84 559.729,94.491 560.301,94.491C565.886,93.472 571.051,95.06 575.357,97.98C578.679,100.232 580.924,103.556 582.425,107.319C583.063,108.917 583.295,110.631 583.498,112.405C583.858,116.74 582.74,120.841 580.724,124.405C579.823,125.998 578.66,127.446 577.324,128.716C572.989,132.835 566.877,135.22 560.301,134.984C554.01,134.475 548.224,131.983 544.404,127.67C540.685,123.472 538.427,118.088 539.31,112.261C540.203,106.9 542.323,102.659 545.986,99.749C549.274,97.137 553.515,95.533 558.819,95.309C558.903,95.296 558.986,95.303 559.061,95.328ZM559.093,96.258C559.296,96.705 559.761,97.016 560.301,97.016C564.465,97.776 567.526,100.225 569.818,103.287C571.733,105.846 572.35,109.042 571.861,112.405C571.662,115.359 569.904,117.724 567.85,119.639C565.84,121.515 563.324,123.022 560.301,123.131C557.017,123.396 553.826,122.634 551.43,120.777C548.811,118.748 546.753,115.993 546.533,112.549C546.221,108.577 546.951,105.205 549.035,102.522C551.258,99.66 554.553,97.547 558.99,96.286C559.026,96.28 559.061,96.271 559.093,96.258Z"/>
                </g>
                <g transform="matrix(-0.0401977,-0.0201136,0.0353687,-0.0249002,486.174,161.086)">
                    <path d="M559.26,95.598C559.177,95.46 559.01,95.379 558.836,95.407C553.632,95.748 549.456,97.388 546.291,100.027C542.812,102.926 540.772,107.077 540.033,112.29C539.307,117.873 541.476,123.033 545.106,126.981C548.816,131.013 554.316,133.411 560.301,133.798C566.52,133.978 572.339,131.761 576.376,127.808C580.393,123.876 582.653,118.329 582.334,112.405C582.18,110.719 581.944,109.088 581.381,107.559C580.048,103.942 577.889,100.755 574.803,98.51C570.753,95.565 565.719,93.953 560.301,94.744C559.774,94.744 559.337,95.114 559.26,95.598ZM559.273,95.975C559.216,96.084 559.108,96.166 558.973,96.188C554.464,97.357 551.044,99.408 548.73,102.245C546.515,104.96 545.589,108.421 545.811,112.521C545.967,116.193 547.98,119.255 550.727,121.466C553.294,123.532 556.725,124.547 560.301,124.316C563.677,124.219 566.558,122.647 568.798,120.547C571.069,118.416 572.848,115.684 573.025,112.405C573.444,108.807 572.505,105.421 570.371,102.756C567.93,99.707 564.575,97.388 560.301,96.764C559.798,96.764 559.377,96.426 559.273,95.975Z"/>
                </g>
                <g transform="matrix(-0.147257,-0.0353146,0.0620988,-0.0912173,549.817,177.131)">
                    <path d="M572.048,100.596C573.629,102.16 574.875,104.024 575.702,106.086C576.487,108.043 576.875,110.178 576.787,112.405C576.634,116.706 574.657,120.519 571.627,123.258C568.673,125.928 564.677,127.54 560.301,127.439C558.183,127.413 556.156,126.96 554.286,126.225C552.359,125.466 550.608,124.383 549.121,123.042C547.615,121.683 546.362,120.083 545.506,118.271C544.664,116.49 544.151,114.538 544.148,112.454C544.102,109.45 544.67,106.793 545.823,104.495C547.088,101.974 549.005,99.894 551.569,98.302C551.635,98.267 551.658,98.187 551.622,98.124C551.585,98.061 551.501,98.038 551.435,98.074C548.526,99.403 546.224,101.337 544.563,103.822C542.979,106.193 542.034,109.055 541.696,112.357C541.477,114.824 541.849,117.197 542.686,119.378C543.557,121.644 544.948,123.693 546.712,125.405C548.461,127.102 550.592,128.461 552.946,129.374C555.225,130.258 557.723,130.706 560.301,130.676C565.518,130.554 570.225,128.472 573.547,125.098C576.801,121.793 578.746,117.3 578.572,112.405C578.477,109.974 577.881,107.679 576.855,105.611C575.807,103.502 574.333,101.634 572.53,100.112C572.39,99.985 572.169,99.99 572.036,100.123C571.903,100.257 571.908,100.469 572.048,100.596Z"/>
                </g>
                <g transform="matrix(-0.00171567,0.244617,-0.351,-0.00119568,494.745,26.2361)">
                    <path d="M491.389,59.998C491.389,59.998 491.386,58.498 491.32,56.798C491.233,54.565 491.049,51.999 491.049,51.999C491.049,51.893 490.975,51.807 490.885,51.808C490.794,51.808 490.721,51.895 490.722,52.001C490.722,52.001 490.563,54.568 490.498,56.802C490.449,58.502 490.46,60.002 490.46,60.002C490.462,60.303 490.671,60.546 490.927,60.545C491.184,60.544 491.39,60.299 491.389,59.998Z"/>
                </g>
                <g transform="matrix(-0.00101934,0.145336,-0.208541,-0.000710393,486.623,75.5248)">
                    <path d="M491.706,59.996C491.706,59.996 491.706,58.495 491.601,56.797C491.461,54.552 491.161,51.999 491.161,51.999C491.16,51.82 491.036,51.676 490.884,51.677C490.732,51.677 490.609,51.823 490.61,52.001C490.61,52.001 490.335,54.557 490.217,56.803C490.128,58.502 490.143,60.004 490.143,60.004C490.146,60.51 490.498,60.92 490.929,60.917C491.36,60.915 491.708,60.503 491.706,59.996Z"/>
                </g>
                <g transform="matrix(0.399573,0,0,0.237155,196.423,115.149)">
                    <path d="M694.817,131.258C694.814,131.237 694.814,131.22 694.807,131.222C694.768,131.232 694.785,131.246 694.817,131.258L694.821,131.279C694.848,131.379 694.889,131.577 694.956,131.852C695.053,132.247 695.157,132.76 695.243,133.297C695.295,133.622 695.325,133.942 695.324,134.237C695.324,134.444 695.314,134.629 695.206,134.752C695.115,134.855 694.957,134.869 694.723,134.862C694.345,134.85 693.854,134.766 693.222,134.554C692.995,134.462 692.733,134.526 692.575,134.714C692.416,134.901 692.395,135.17 692.524,135.379C693.027,136.069 693.593,136.762 694.166,137.395C695.561,138.934 696.899,140.108 696.899,140.108C696.909,140.118 696.925,140.119 696.936,140.109C696.946,140.099 696.947,140.082 696.937,140.072C696.937,140.072 696.077,138.955 695.099,137.476C694.818,137.052 694.529,136.601 694.25,136.137C694.535,136.203 694.782,136.229 694.996,136.227C695.595,136.22 696.001,135.989 696.269,135.682C696.503,135.413 696.649,135.062 696.67,134.654C696.689,134.277 696.628,133.845 696.479,133.415C696.356,133.062 696.2,132.713 696.014,132.395C695.828,132.075 695.639,131.804 695.467,131.581C695.294,131.357 695.161,131.207 695.092,131.13C695.016,131.045 694.961,131.176 694.938,131.247C695.002,131.012 694.922,130.992 694.859,131.027C694.792,131.065 694.768,131.149 694.805,131.216L694.926,131.287C694.926,131.287 694.859,131.274 694.817,131.258Z"/>
                </g>
                <g transform="matrix(0.365489,0,0,0.216926,172.063,96.3385)">
                    <path d="M818.661,241.499L821.094,245.143C821.094,245.143 821.155,245.307 821.155,245.307C821.155,245.307 821.472,247.209 821.472,247.209C821.515,247.434 821.734,247.582 821.959,247.538C822.184,247.494 822.331,247.276 822.288,247.051L821.87,245.168L821.674,244.731L819.032,241.235C818.959,241.133 818.817,241.109 818.715,241.182C818.613,241.254 818.589,241.397 818.661,241.499Z"/>
                </g>
                <g transform="matrix(0.365489,0,0,0.216926,172.063,96.3385)">
                    <path d="M814.417,249.417L817.932,248.854L819.216,252.893C819.353,253.353 819.838,253.616 820.299,253.478C820.759,253.34 821.021,252.855 820.884,252.395L819.695,248.148C819.579,247.736 819.312,247.404 818.977,247.182C818.641,246.959 818.224,246.864 817.797,246.919C817.797,246.919 813.969,247.415 813.969,247.415C813.661,247.455 813.377,247.58 813.135,247.758C812.892,247.938 812.701,248.182 812.571,248.466C812.571,248.466 810.354,253.335 810.354,253.335C810.329,253.39 810.29,253.436 810.246,253.476C810.204,253.516 810.151,253.543 810.095,253.563C810.04,253.584 809.982,253.588 809.925,253.585C809.868,253.583 809.813,253.566 809.761,253.542L809.759,253.541C809.66,253.495 809.594,253.409 809.559,253.313C809.525,253.22 809.533,253.115 809.578,253.018L812.419,246.787L816.889,245.264C817.22,245.156 817.481,244.898 817.593,244.568C817.705,244.238 817.655,243.875 817.459,243.587L813.4,237.884C813.316,237.766 813.261,237.633 813.259,237.494C813.257,237.351 813.285,237.204 813.369,237.08L813.37,237.078C813.496,236.89 813.67,236.748 813.874,236.684C814.085,236.619 814.318,236.61 814.535,236.696C814.535,236.696 825.493,241.008 825.493,241.008C825.755,241.119 826.058,240.998 826.169,240.736C826.281,240.475 826.159,240.172 825.898,240.06L815.206,235.125C814.621,234.857 813.981,234.827 813.392,234.978C812.796,235.13 812.26,235.493 811.87,236.015C811.87,236.015 811.868,236.017 811.868,236.017C811.546,236.449 811.389,236.963 811.372,237.477C811.355,237.996 811.507,238.516 811.803,238.972L814.818,243.595L811.529,244.636C811.271,244.72 811.038,244.857 810.84,245.034C810.643,245.21 810.482,245.428 810.37,245.674L807.484,252.068C807.185,252.742 807.179,253.473 807.423,254.112C807.666,254.748 808.147,255.296 808.817,255.597C808.817,255.597 808.819,255.598 808.819,255.598C809.147,255.745 809.497,255.828 809.85,255.836C810.202,255.845 810.557,255.787 810.891,255.656C811.225,255.525 811.528,255.334 811.78,255.089C812.031,254.845 812.238,254.554 812.378,254.225L814.417,249.417Z"/>
                </g>
                <g transform="matrix(0.365489,0,0,0.216926,172.063,96.3385)">
                    <path d="M824.094,242.772L816.348,239.745C816.326,239.736 816.301,239.746 816.292,239.768C816.282,239.789 816.292,239.815 816.314,239.824L823.794,243.458C823.983,243.541 824.204,243.454 824.286,243.265C824.369,243.076 824.283,242.855 824.094,242.772Z"/>
                </g>
            </g>
        </g>
    </g>
</svg>
