<?xml version="1.0" encoding="UTF-8" standalone="no"?>
<!DOCTYPE svg PUBLIC "-//W3C//DTD SVG 1.1//EN" "http://www.w3.org/Graphics/SVG/1.1/DTD/svg11.dtd">
<svg width="100%" height="100%" viewBox="0 0 33 32" version="1.1" xmlns="http://www.w3.org/2000/svg" xmlns:xlink="http://www.w3.org/1999/xlink" xml:space="preserve" xmlns:serif="http://www.serif.com/" style="fill-rule:evenodd;clip-rule:evenodd;stroke-linejoin:round;stroke-miterlimit:2;">
    <g transform="matrix(1,0,0,1,-1223,-1596)">
        <g id="ic_account_groups_other_liabilities" transform="matrix(0.988763,0,0,1.00037,132.544,0.0595472)">
            <rect x="1103.31" y="1595.46" width="32.014" height="31.19" style="fill:none;"/>
            <g transform="matrix(1.78969,0,0,2.98039,130.972,1164.08)">
                <g transform="matrix(0.0944719,4.91047e-33,1.0303e-32,0.0645524,474.658,141.465)">
                    <path d="M820.966,71.77C821.851,72.529 822.92,73.405 824.082,74.303C827.942,77.286 832.405,80.415 832.405,80.415C832.668,80.678 833.128,80.706 833.432,80.477C833.735,80.248 833.767,79.849 833.504,79.585C833.504,79.585 830.562,75.31 827.702,71.572C826.826,70.428 825.963,69.37 825.213,68.493C824.421,67.566 823.754,66.878 823.438,66.529C823.438,66.528 823.438,66.528 823.438,66.528C823.133,66.21 822.741,65.973 822.32,65.8C821.899,65.626 821.431,65.545 820.954,65.541C820.478,65.547 820.01,65.627 819.589,65.8C819.168,65.974 818.778,66.211 818.471,66.528C818.471,66.528 818.47,66.528 818.47,66.528C818.049,66.998 817.01,68.079 815.816,69.482C815.277,70.116 814.717,70.803 814.16,71.537C811.309,75.289 808.405,79.585 808.405,79.585C808.141,79.849 808.174,80.248 808.477,80.477C808.78,80.706 809.24,80.678 809.504,80.415C809.504,80.415 813.995,77.315 817.873,74.339C818.631,73.757 819.337,73.179 819.984,72.627C820.333,72.328 820.662,72.041 820.966,71.77Z"/>
                </g>
                <g transform="matrix(0.0944719,-4.27843e-33,1.0303e-32,-0.0562437,474.658,151.453)">
                    <path d="M822.98,72C822.98,72 822.999,75.752 822.747,80C822.414,85.604 821.668,92 821.668,92C821.668,92.393 821.348,92.712 820.954,92.712C820.56,92.712 820.24,92.393 820.24,92C820.24,92 819.495,85.604 819.162,80C818.909,75.752 818.929,72 818.929,72C818.929,70.886 819.837,69.981 820.954,69.981C822.072,69.981 822.98,70.886 822.98,72Z"/>
                </g>
                <g transform="matrix(-0.050345,-0.0474458,-0.0920311,0.0344006,605.931,184.126)">
                    <path d="M820.961,71.776C820.632,72.071 820.272,72.386 819.888,72.713C819.243,73.261 818.543,73.83 817.794,74.404C813.93,77.361 809.504,80.415 809.504,80.415C809.24,80.678 808.78,80.706 808.477,80.477C808.174,80.248 808.141,79.849 808.405,79.585C808.405,79.585 811.267,75.351 814.097,71.614C814.646,70.89 815.196,70.208 815.731,69.577C816.864,68.241 817.871,67.187 818.353,66.649C818.353,66.649 818.353,66.648 818.353,66.648C818.675,66.317 819.083,66.067 819.524,65.886C819.965,65.704 820.455,65.62 820.954,65.613C821.454,65.619 821.944,65.703 822.385,65.885C822.826,66.068 823.236,66.316 823.555,66.649L824.887,68.098C825.715,69.056 826.732,70.3 827.766,71.649C830.613,75.366 833.504,79.585 833.504,79.585C833.767,79.849 833.735,80.248 833.432,80.477C833.128,80.706 832.668,80.678 832.405,80.415C832.405,80.415 828,77.338 824.161,74.369C822.97,73.448 821.865,72.548 820.961,71.776Z"/>
                </g>
                <g transform="matrix(-0.050345,-0.0474458,0.0801856,-0.0299728,591.691,189.449)">
                    <path d="M818.929,72C818.929,72 818.909,75.752 819.162,80C819.495,85.604 820.24,92 820.24,92C820.24,92.393 820.56,92.712 820.954,92.712C821.348,92.712 821.668,92.393 821.668,92C821.668,92 822.414,85.604 822.747,80C822.999,75.752 822.98,72 822.98,72C822.98,70.886 822.072,69.981 820.954,69.981C819.837,69.981 818.929,70.886 818.929,72Z"/>
                </g>
                <g transform="matrix(0.050345,-0.0474458,0.0920311,0.0344006,498.505,184.126)">
                    <path d="M820.962,71.777C821.867,72.549 822.973,73.45 824.166,74.373C828.004,77.341 832.405,80.415 832.405,80.415C832.668,80.678 833.128,80.706 833.432,80.477C833.735,80.248 833.767,79.849 833.504,79.585C833.504,79.585 830.616,75.37 827.77,71.654C826.737,70.306 825.721,69.063 824.893,68.104L823.562,66.656C823.242,66.322 822.831,66.074 822.389,65.891C821.947,65.707 821.455,65.624 820.954,65.617C820.453,65.624 819.962,65.708 819.52,65.891C819.077,66.073 818.668,66.323 818.346,66.656C818.346,66.656 818.346,66.656 818.346,66.656C817.861,67.197 816.856,68.249 815.726,69.583C815.192,70.213 814.641,70.895 814.093,71.619C811.264,75.355 808.405,79.585 808.405,79.585C808.141,79.849 808.174,80.248 808.477,80.477C808.78,80.706 809.24,80.678 809.504,80.415C809.504,80.415 813.926,77.363 817.789,74.408C818.538,73.835 819.238,73.266 819.882,72.718C820.268,72.39 820.629,72.073 820.962,71.777Z"/>
                </g>
                <g transform="matrix(0.050345,-0.0474458,-0.0801856,-0.0299728,512.745,189.449)">
                    <path d="M822.98,72C822.98,72 822.999,75.752 822.747,80C822.414,85.604 821.668,92 821.668,92C821.668,92.393 821.348,92.712 820.954,92.712C820.56,92.712 820.24,92.393 820.24,92C820.24,92 819.495,85.604 819.162,80C818.909,75.752 818.929,72 818.929,72C818.929,70.886 819.837,69.981 820.954,69.981C822.072,69.981 822.98,70.886 822.98,72Z"/>
                </g>
                <g transform="matrix(1.73542e-17,0.0560711,-0.108762,1.18581e-17,566.743,104.52)">
                    <path d="M820.963,71.774C821.853,72.533 822.938,73.418 824.108,74.325C827.958,77.307 832.405,80.415 832.405,80.415C832.668,80.678 833.128,80.706 833.432,80.477C833.735,80.248 833.767,79.849 833.504,79.585C833.504,79.585 830.583,75.326 827.723,71.598C826.676,70.233 825.647,68.98 824.82,68.025L823.476,66.567C823.166,66.244 822.768,66.004 822.341,65.828C821.914,65.651 821.439,65.57 820.954,65.565C820.47,65.571 819.995,65.652 819.568,65.828C819.14,66.004 818.744,66.246 818.432,66.567C818.432,66.567 818.432,66.568 818.432,66.568C817.988,67.062 816.961,68.134 815.788,69.513C815.25,70.146 814.694,70.832 814.139,71.562C811.295,75.31 808.405,79.585 808.405,79.585C808.141,79.849 808.174,80.248 808.477,80.477C808.78,80.706 809.24,80.678 809.504,80.415C809.504,80.415 813.974,77.33 817.847,74.36C818.603,73.781 819.307,73.206 819.952,72.655C820.312,72.348 820.65,72.052 820.963,71.774Z"/>
                </g>
                <g transform="matrix(1.73542e-17,0.0560711,0.0947627,-1.03318e-17,549.914,104.52)">
                    <path d="M822.98,72C822.98,72 822.999,75.752 822.747,80C822.414,85.604 821.668,92 821.668,92C821.668,92.393 821.348,92.712 820.954,92.712C820.56,92.712 820.24,92.393 820.24,92C820.24,92 819.495,85.604 819.162,80C818.909,75.752 818.929,72 818.929,72C818.929,70.886 819.837,69.981 820.954,69.981C822.072,69.981 822.98,70.886 822.98,72Z"/>
                </g>
                <g transform="matrix(-2.89237e-17,-0.0560711,0.108762,-1.97635e-17,537.689,196.584)">
                    <path d="M820.962,71.779C821.88,72.562 823.002,73.477 824.213,74.412C828.04,77.369 832.405,80.415 832.405,80.415C832.668,80.678 833.128,80.706 833.432,80.477C833.735,80.248 833.767,79.849 833.504,79.585C833.504,79.585 830.642,75.405 827.807,71.699C826.786,70.364 825.779,69.131 824.951,68.169C824.412,67.544 823.934,67.059 823.631,66.728C823.303,66.385 822.881,66.129 822.428,65.941C821.974,65.753 821.469,65.667 820.954,65.66C820.44,65.667 819.936,65.754 819.481,65.941C819.027,66.128 818.608,66.385 818.276,66.727C817.766,67.298 816.776,68.337 815.676,69.639C815.144,70.267 814.599,70.945 814.056,71.665C811.239,75.391 808.405,79.585 808.405,79.585C808.141,79.849 808.174,80.248 808.477,80.477C808.78,80.706 809.24,80.678 809.504,80.415C809.504,80.415 813.889,77.39 817.742,74.446C818.486,73.878 819.183,73.314 819.825,72.769C820.232,72.423 820.613,72.09 820.962,71.779ZM819.229,70.215L819.129,70.124C819.162,70.155 819.195,70.186 819.229,70.215ZM822.78,70.125L822.661,70.234L822.691,70.208L822.78,70.125Z"/>
                </g>
                <g transform="matrix(-2.89237e-17,-0.0560711,-0.0947627,1.72197e-17,554.518,196.584)">
                    <path d="M822.98,72C822.98,72 822.999,75.752 822.747,80C822.414,85.604 821.668,92 821.668,92C821.668,92.393 821.348,92.712 820.954,92.712C820.56,92.712 820.24,92.393 820.24,92C820.24,92 819.495,85.604 819.162,80C818.909,75.752 818.929,72 818.929,72C818.929,70.886 819.837,69.981 820.954,69.981C822.072,69.981 822.98,70.886 822.98,72Z"/>
                </g>
                <g transform="matrix(0.418086,1.56297e-17,-9.69044e-16,0.248143,316.014,107.818)">
                    <path d="M554.138,186.467L554.378,178.348C554.392,177.846 554.189,177.39 553.869,177.051C553.543,176.707 553.082,176.499 552.572,176.484L551.301,176.446C551.048,176.439 550.799,176.488 550.566,176.577C550.331,176.666 550.118,176.806 549.932,176.982C549.744,177.159 549.601,177.374 549.498,177.604C549.394,177.837 549.342,178.091 549.335,178.351C549.335,178.351 549.083,188.65 549.083,188.65C549.072,189.262 549.32,189.815 549.712,190.225C550.107,190.639 550.664,190.89 551.281,190.907L553.21,190.958C553.604,190.966 553.986,190.867 554.325,190.689C554.664,190.511 554.956,190.243 555.173,189.912L555.858,188.871C555.858,188.871 559.303,190.343 559.303,190.343C559.449,190.404 559.599,190.45 559.753,190.481C559.907,190.512 560.064,190.527 560.221,190.527C560.221,190.527 560.221,190.527 560.221,190.527C560.778,190.523 562.116,190.524 563.58,190.504C565.577,190.478 567.807,190.421 568.619,190.405C568.619,190.405 568.619,190.405 568.619,190.405C568.792,190.401 568.965,190.381 569.132,190.338C569.298,190.295 569.461,190.237 569.614,190.157L578.766,185.269C579.308,184.976 579.752,184.551 580.044,184.035C580.332,183.527 580.49,182.943 580.463,182.337C580.463,182.337 580.463,182.335 580.463,182.335C580.451,182.074 580.384,181.822 580.256,181.604C580.129,181.387 579.958,181.196 579.739,181.06C579.523,180.925 579.284,180.84 579.038,180.821C578.795,180.803 578.546,180.835 578.316,180.935C578.316,180.935 569.853,184.613 569.853,184.613C569.833,184.621 569.824,184.643 569.831,184.662C569.839,184.681 569.861,184.691 569.88,184.683L578.61,181.693C578.718,181.655 578.832,181.653 578.941,181.67C579.048,181.686 579.147,181.735 579.236,181.8C579.322,181.864 579.384,181.952 579.43,182.046C579.474,182.136 579.488,182.239 579.485,182.343L579.485,182.345C579.474,182.754 579.338,183.139 579.12,183.467C578.908,183.788 578.602,184.043 578.238,184.209C578.238,184.209 568.821,188.562 568.821,188.562C568.821,188.562 568.616,188.597 568.616,188.597C567.804,188.584 565.574,188.534 563.577,188.514C562.112,188.499 560.775,188.503 560.218,188.501C560.218,188.501 560.086,188.475 560.086,188.475L555.868,186.74C555.428,186.556 554.919,186.715 554.662,187.117L553.563,188.88C553.526,188.938 553.48,188.989 553.422,189.022C553.362,189.055 553.296,189.079 553.226,189.079L551.297,189.097C551.171,189.098 551.053,189.059 550.969,188.978C550.882,188.894 550.817,188.781 550.815,188.65L550.56,178.351C550.558,178.252 550.568,178.153 550.603,178.062C550.638,177.97 550.686,177.881 550.756,177.807C550.827,177.732 550.907,177.668 551,177.627C551.094,177.585 551.195,177.555 551.3,177.552C551.3,177.552 552.57,177.518 552.57,177.518C552.805,177.512 553.022,177.592 553.18,177.741C553.344,177.895 553.456,178.108 553.464,178.35L553.74,186.468C553.74,186.578 553.83,186.667 553.939,186.667C554.049,186.666 554.138,186.577 554.138,186.467Z"/>
                </g>
                <g transform="matrix(0.418086,1.56297e-17,-9.69044e-16,0.248143,316.014,107.818)">
                    <path d="M568.166,184.258L563.506,184.778C563.396,184.78 563.309,184.87 563.311,184.98C563.313,185.09 563.403,185.177 563.513,185.175L568.763,185.578C569.01,185.596 569.223,185.469 569.399,185.32C569.577,185.168 569.653,184.931 569.675,184.679L569.675,184.676C569.751,183.562 569.352,182.528 568.68,181.733C567.987,180.914 566.962,180.403 565.816,180.288C565.816,180.288 563.281,180.172 563.281,180.172C562.661,180.178 562.049,180.111 561.45,179.969C560.835,179.822 560.235,179.632 559.668,179.34C559.668,179.34 559.668,179.34 559.668,179.34C558.802,178.916 557.763,178.458 556.759,178.226C555.99,178.048 555.272,177.993 554.692,178.167C554.672,178.171 554.658,178.19 554.661,178.21C554.665,178.231 554.684,178.245 554.704,178.241C555.27,178.22 555.901,178.445 556.559,178.778C557.422,179.215 558.279,179.845 558.981,180.415C559.582,180.885 560.237,181.262 560.937,181.553C561.647,181.848 562.399,182.016 563.169,182.113L565.7,182.291C566.349,182.301 566.939,182.546 567.378,182.962C567.746,183.311 568.038,183.75 568.166,184.258Z"/>
                </g>
                <g transform="matrix(-0.126653,-0.0633733,0.111438,-0.0784545,610.643,194.361)">
                    <path d="M560.301,96.235C564.834,96.55 568.744,98.614 571.532,101.644C574.169,104.508 575.691,108.294 575.464,112.405C575.362,116.372 573.513,119.86 570.783,122.449C568.067,125.025 564.42,126.743 560.301,126.8C556.103,126.929 552.161,125.443 549.255,122.911C546.248,120.292 544.287,116.623 544.297,112.46C544.283,108.084 545.581,104.442 548.091,101.664C550.607,98.878 554.266,96.951 558.937,95.983C559.044,95.966 559.117,95.869 559.099,95.766C559.081,95.664 558.979,95.594 558.872,95.612C553.87,96.187 549.851,97.915 546.93,100.608C543.818,103.475 541.989,107.442 541.546,112.351C541.117,117.425 543.15,122.09 546.579,125.536C550.031,129.006 554.954,131.15 560.301,131.314C565.774,131.389 570.819,129.364 574.391,125.906C577.952,122.459 580.03,117.632 579.896,112.405C579.614,107.315 577.344,102.75 573.642,99.623C570.097,96.627 565.382,94.92 560.301,95.273C560.024,95.273 559.799,95.488 559.799,95.754C559.799,96.019 560.024,96.235 560.301,96.235Z"/>
                </g>
                <g transform="matrix(-0.00167699,0.239102,-0.343087,-0.00116872,572.252,32.0285)">
                    <path d="M491.4,59.998C491.4,59.998 491.397,58.497 491.329,56.798C491.241,54.564 491.053,51.999 491.053,51.999C491.052,51.891 490.977,51.803 490.885,51.803C490.792,51.804 490.718,51.892 490.718,52.001C490.718,52.001 490.556,54.568 490.489,56.802C490.438,58.502 490.45,60.002 490.45,60.002C490.451,60.31 490.665,60.559 490.927,60.558C491.19,60.556 491.401,60.305 491.4,59.998Z"/>
                </g>
                <g transform="matrix(-0.000996359,0.142059,-0.20384,-0.000694377,564.313,80.2059)">
                    <path d="M491.724,59.996C491.724,59.996 491.724,58.495 491.617,56.797C491.474,54.551 491.167,51.999 491.167,51.999C491.166,51.816 491.039,51.668 490.884,51.669C490.728,51.67 490.603,51.819 490.604,52.001C490.604,52.001 490.322,54.557 490.201,56.803C490.11,58.502 490.125,60.004 490.125,60.004C490.128,60.522 490.488,60.941 490.929,60.939C491.37,60.936 491.727,60.514 491.724,59.996Z"/>
                </g>
                <g transform="matrix(0.390564,0,0,0.231808,280.656,118.936)">
                    <path d="M694.814,131.26C694.811,131.239 694.811,131.222 694.804,131.224C694.764,131.234 694.781,131.248 694.814,131.26L694.818,131.28C694.844,131.381 694.884,131.579 694.95,131.855C695.045,132.25 695.146,132.764 695.231,133.301C695.282,133.625 695.31,133.944 695.309,134.238C695.308,134.44 695.3,134.621 695.194,134.741C695.105,134.841 694.952,134.853 694.724,134.846C694.347,134.835 693.858,134.752 693.227,134.542C692.994,134.447 692.727,134.513 692.564,134.705C692.402,134.897 692.381,135.172 692.513,135.386C693.017,136.076 693.585,136.768 694.16,137.4C695.558,138.937 696.898,140.108 696.898,140.108C696.909,140.119 696.926,140.119 696.936,140.109C696.947,140.099 696.948,140.082 696.937,140.072C696.937,140.072 696.08,138.953 695.104,137.472C694.83,137.055 694.547,136.613 694.275,136.158C694.55,136.22 694.789,136.245 694.996,136.243C695.601,136.237 696.01,136.003 696.281,135.692C696.517,135.422 696.665,135.067 696.686,134.655C696.705,134.277 696.643,133.843 696.492,133.412C696.368,133.059 696.214,132.708 696.025,132.391C695.692,131.835 695.339,131.411 695.16,131.202C695.112,131.145 695.079,131.11 695.062,131.092C695.014,131.041 694.982,131.07 694.962,131.121C694.968,131.003 694.908,130.996 694.857,131.025C694.789,131.063 694.764,131.149 694.802,131.218L694.926,131.291C694.926,131.291 694.857,131.277 694.814,131.26Z"/>
                </g>
                <g transform="matrix(0.879819,0,0,0.522191,5.52399,102.855)">
                    <path d="M621.368,80.517C621.505,80.516 621.63,80.57 621.721,80.658C621.813,80.747 621.872,80.87 621.873,81.007C621.875,81.146 621.821,81.273 621.731,81.366C621.639,81.461 621.512,81.525 621.368,81.53C621.22,81.535 621.083,81.482 620.982,81.389C620.878,81.294 620.809,81.159 620.803,81.007C620.798,80.855 620.83,80.736 620.88,80.647C620.963,80.5 621.087,80.43 621.149,80.418C621.178,80.414 621.199,80.386 621.194,80.357C621.19,80.328 621.162,80.307 621.133,80.312C621.052,80.321 620.882,80.394 620.762,80.575C620.693,80.68 620.641,80.821 620.634,81.007C620.627,81.211 620.708,81.398 620.838,81.536C620.971,81.676 621.159,81.762 621.368,81.77C621.582,81.776 621.777,81.694 621.921,81.559C622.069,81.421 622.158,81.224 622.162,81.007C622.164,80.789 622.075,80.59 621.931,80.446C621.787,80.302 621.588,80.214 621.368,80.213C621.284,80.213 621.216,80.281 621.216,80.365C621.216,80.449 621.284,80.517 621.368,80.517Z"/>
                </g>
                <g transform="matrix(0.405087,0.46355,-0.781016,0.240428,370.983,-160.389)">
                    <path d="M621.368,80.517C621.505,80.516 621.63,80.57 621.721,80.658C621.813,80.747 621.872,80.87 621.873,81.007C621.875,81.146 621.821,81.273 621.731,81.366C621.639,81.461 621.512,81.525 621.368,81.53C621.22,81.535 621.083,81.482 620.982,81.389C620.878,81.294 620.809,81.159 620.803,81.007C620.798,80.855 620.83,80.736 620.88,80.647C620.963,80.5 621.087,80.43 621.149,80.418C621.178,80.414 621.199,80.386 621.194,80.357C621.19,80.328 621.162,80.307 621.133,80.312C621.052,80.321 620.882,80.394 620.762,80.575C620.693,80.68 620.641,80.821 620.634,81.007C620.627,81.211 620.708,81.398 620.838,81.536C620.971,81.676 621.159,81.762 621.368,81.77C621.582,81.776 621.777,81.694 621.921,81.559C622.069,81.421 622.158,81.224 622.162,81.007C622.164,80.789 622.075,80.59 621.931,80.446C621.787,80.302 621.588,80.214 621.368,80.213C621.284,80.213 621.216,80.281 621.216,80.365C621.216,80.449 621.284,80.517 621.368,80.517Z"/>
                </g>
                <g transform="matrix(-0.22853,0.504268,-0.849621,-0.135637,771.331,-151.816)">
                    <path d="M621.368,80.517C621.505,80.516 621.63,80.57 621.721,80.658C621.813,80.747 621.872,80.87 621.873,81.007C621.875,81.146 621.821,81.273 621.731,81.366C621.639,81.461 621.512,81.525 621.368,81.53C621.22,81.535 621.083,81.482 620.982,81.389C620.878,81.294 620.809,81.159 620.803,81.007C620.798,80.855 620.83,80.736 620.88,80.647C620.963,80.5 621.087,80.43 621.149,80.418C621.178,80.414 621.199,80.386 621.194,80.357C621.19,80.328 621.162,80.307 621.133,80.312C621.052,80.321 620.882,80.394 620.762,80.575C620.693,80.68 620.641,80.821 620.634,81.007C620.627,81.211 620.708,81.398 620.838,81.536C620.971,81.676 621.159,81.762 621.368,81.77C621.582,81.776 621.777,81.694 621.921,81.559C622.069,81.421 622.158,81.224 622.162,81.007C622.164,80.789 622.075,80.59 621.931,80.446C621.787,80.302 621.588,80.214 621.368,80.213C621.284,80.213 621.216,80.281 621.216,80.365C621.216,80.449 621.284,80.517 621.368,80.517Z"/>
                </g>
                <g transform="matrix(0.0658068,-0.520729,0.877355,0.0390578,432.039,470.933)">
                    <path d="M621.368,80.517C621.505,80.516 621.63,80.57 621.721,80.658C621.813,80.747 621.872,80.87 621.873,81.007C621.875,81.146 621.821,81.273 621.731,81.366C621.639,81.461 621.512,81.525 621.368,81.53C621.22,81.535 621.083,81.482 620.982,81.389C620.878,81.294 620.809,81.159 620.803,81.007C620.798,80.855 620.83,80.736 620.88,80.647C620.963,80.5 621.087,80.43 621.149,80.418C621.178,80.414 621.199,80.386 621.194,80.357C621.19,80.328 621.162,80.307 621.133,80.312C621.052,80.321 620.882,80.394 620.762,80.575C620.693,80.68 620.641,80.821 620.634,81.007C620.627,81.211 620.708,81.398 620.838,81.536C620.971,81.676 621.159,81.762 621.368,81.77C621.582,81.776 621.777,81.694 621.921,81.559C622.069,81.421 622.158,81.224 622.162,81.007C622.164,80.789 622.075,80.59 621.931,80.446C621.787,80.302 621.588,80.214 621.368,80.213C621.284,80.213 621.216,80.281 621.216,80.365C621.216,80.449 621.284,80.517 621.368,80.517Z"/>
                </g>
                <g transform="matrix(0.586636,-0.389171,0.655698,0.348181,127.319,360.791)">
                    <path d="M621.368,80.517C621.505,80.516 621.63,80.57 621.721,80.658C621.813,80.747 621.872,80.87 621.873,81.007C621.875,81.146 621.821,81.273 621.731,81.366C621.639,81.461 621.512,81.525 621.368,81.53C621.22,81.535 621.083,81.482 620.982,81.389C620.878,81.294 620.809,81.159 620.803,81.007C620.798,80.855 620.83,80.736 620.88,80.647C620.963,80.5 621.087,80.43 621.149,80.418C621.178,80.414 621.199,80.386 621.194,80.357C621.19,80.328 621.162,80.307 621.133,80.312C621.052,80.321 620.882,80.394 620.762,80.575C620.693,80.68 620.641,80.821 620.634,81.007C620.627,81.211 620.708,81.398 620.838,81.536C620.971,81.676 621.159,81.762 621.368,81.77C621.582,81.776 621.777,81.694 621.921,81.559C622.069,81.421 622.158,81.224 622.162,81.007C622.164,80.789 622.075,80.59 621.931,80.446C621.787,80.302 621.588,80.214 621.368,80.213C621.284,80.213 621.216,80.281 621.216,80.365C621.216,80.449 621.284,80.517 621.368,80.517Z"/>
                </g>
            </g>
        </g>
    </g>
</svg>
