<?xml version="1.0" encoding="UTF-8" standalone="no"?>
<!DOCTYPE svg PUBLIC "-//W3C//DTD SVG 1.1//EN" "http://www.w3.org/Graphics/SVG/1.1/DTD/svg11.dtd">
<svg width="100%" height="100%" viewBox="0 0 33 31" version="1.1" xmlns="http://www.w3.org/2000/svg" xmlns:xlink="http://www.w3.org/1999/xlink" xml:space="preserve" xmlns:serif="http://www.serif.com/" style="fill-rule:evenodd;clip-rule:evenodd;stroke-linejoin:round;stroke-miterlimit:2;">
    <g transform="matrix(1,0,0,1,-1094,-1596)">
        <g id="ic_account_groups_loan" transform="matrix(1.00091,0,0,0.973969,93.2173,-16.7127)">
            <rect x="1000.44" y="1655.92" width="31.564" height="31.324" style="fill:none;"/>
            <g transform="matrix(1.76797,0,0,3.06118,140.711,1211.91)">
                <g transform="matrix(-0.413561,1.54606e-17,9.58557e-16,0.245457,731.2,108.402)">
                    <path d="M553.738,186.468L553.459,178.365C553.451,178.12 553.338,177.905 553.172,177.749C553.012,177.598 552.792,177.517 552.556,177.524L551.315,177.558C551.209,177.561 551.106,177.591 551.011,177.633C550.918,177.675 550.836,177.74 550.765,177.816C550.694,177.89 550.646,177.98 550.61,178.074C550.575,178.166 550.564,178.266 550.567,178.366L550.824,188.636C550.826,188.768 550.892,188.882 550.98,188.967C551.065,189.049 551.184,189.088 551.311,189.087C551.311,189.087 553.218,189.069 553.218,189.069C553.289,189.069 553.356,189.045 553.416,189.011C553.475,188.978 553.521,188.927 553.558,188.868L554.653,187.111C554.913,186.705 555.427,186.544 555.872,186.731L560.088,188.464L560.221,188.49C560.779,188.492 562.115,188.488 563.578,188.503C565.571,188.523 567.798,188.573 568.613,188.587C568.613,188.587 568.82,188.552 568.82,188.552L578.239,184.202C578.601,184.037 578.905,183.784 579.116,183.465C579.332,183.138 579.468,182.756 579.479,182.349C579.479,182.349 579.48,182.347 579.48,182.347C579.483,182.243 579.469,182.141 579.425,182.051C579.379,181.957 579.318,181.87 579.232,181.806C579.143,181.741 579.045,181.692 578.939,181.676C578.829,181.659 578.716,181.661 578.608,181.698C578.608,181.698 569.88,184.684 569.88,184.684C569.861,184.691 569.839,184.682 569.831,184.662C569.823,184.643 569.833,184.621 569.853,184.613L578.311,180.932C578.542,180.832 578.792,180.8 579.036,180.818C579.284,180.836 579.524,180.922 579.741,181.057C579.96,181.194 580.133,181.387 580.26,181.604C580.389,181.824 580.456,182.076 580.468,182.339C580.468,182.339 580.469,182.341 580.469,182.341C580.496,182.947 580.338,183.53 580.05,184.038C579.758,184.555 579.315,184.98 578.772,185.273C578.772,185.273 569.622,190.164 569.622,190.164C569.467,190.245 569.302,190.304 569.134,190.348C568.965,190.391 568.791,190.411 568.616,190.415C568.615,190.415 568.615,190.415 568.615,190.415C567.801,190.431 565.574,190.488 563.581,190.515C562.119,190.535 560.783,190.534 560.224,190.538C560.065,190.538 559.906,190.523 559.751,190.492C559.596,190.46 559.443,190.414 559.296,190.352L555.862,188.885C555.862,188.885 555.187,189.91 555.187,189.91C554.966,190.245 554.672,190.516 554.329,190.696C553.986,190.876 553.601,190.977 553.201,190.968L551.295,190.917C550.672,190.9 550.109,190.646 549.709,190.228C549.314,189.813 549.062,189.254 549.074,188.636C549.074,188.636 549.328,178.366 549.328,178.366C549.335,178.103 549.388,177.846 549.493,177.611C549.598,177.378 549.742,177.161 549.932,176.982C550.12,176.805 550.336,176.663 550.573,176.572C550.808,176.483 551.06,176.433 551.316,176.441C551.316,176.441 552.557,176.477 552.557,176.477C553.073,176.493 553.539,176.704 553.869,177.052C554.192,177.394 554.397,177.855 554.383,178.363L554.14,186.467C554.14,186.578 554.05,186.669 553.939,186.669C553.828,186.669 553.738,186.579 553.738,186.468Z"/>
                </g>
                <g transform="matrix(0.413561,-1.54606e-17,-9.58557e-16,-0.245457,259.274,193.416)">
                    <path d="M553.738,186.468L553.34,178.365C553.33,178.155 553.221,177.976 553.077,177.844C552.941,177.72 552.753,177.666 552.555,177.675L551.315,177.727C551.231,177.73 551.152,177.759 551.077,177.793C551.005,177.826 550.945,177.882 550.89,177.941C550.836,177.999 550.804,178.071 550.777,178.143C550.751,178.213 550.749,178.29 550.752,178.366C550.752,178.366 550.752,178.366 550.752,178.366C550.789,179.616 550.862,181.557 550.904,183.501C550.946,185.445 550.956,187.389 550.973,188.635C550.973,188.73 551.009,188.816 551.07,188.878C551.133,188.942 551.216,188.99 551.312,188.992C551.312,188.992 553.218,189.05 553.218,189.05C553.289,189.053 553.36,189.052 553.422,189.022C553.486,188.989 553.552,188.953 553.595,188.891L554.77,187.186C554.993,186.836 555.436,186.698 555.819,186.859L559.867,188.777C559.867,188.777 560.232,188.864 560.232,188.864C560.232,188.864 567.596,188.427 567.596,188.427C567.596,188.427 567.825,188.395 567.825,188.395C567.825,188.395 569.876,187.879 569.876,187.879C569.896,187.873 569.918,187.884 569.924,187.904C569.93,187.924 569.919,187.945 569.899,187.951L567.933,188.729C567.933,188.729 567.641,188.81 567.641,188.81L560.374,190.082C560.205,190.111 560.034,190.109 559.865,190.094C559.694,190.079 559.528,190.034 559.365,189.975C559.365,189.975 555.86,188.691 555.86,188.691C555.86,188.691 555.15,189.887 555.15,189.887C554.948,190.227 554.654,190.492 554.323,190.686C553.988,190.881 553.601,190.978 553.201,190.987L551.294,191.012C550.641,191.013 550.049,190.744 549.62,190.317C549.189,189.887 548.927,189.291 548.925,188.636C548.941,187.39 548.951,185.446 548.992,183.501C549.033,181.557 549.106,179.616 549.143,178.366C549.153,178.079 549.209,177.798 549.326,177.542C549.442,177.288 549.598,177.051 549.807,176.857C550.013,176.665 550.247,176.509 550.507,176.412C550.764,176.317 551.037,176.261 551.316,176.272C551.316,176.272 552.557,176.327 552.557,176.327C553.113,176.351 553.615,176.576 553.964,176.956C554.305,177.328 554.525,177.82 554.502,178.363L554.14,186.467C554.14,186.578 554.05,186.669 553.939,186.669C553.828,186.669 553.738,186.579 553.738,186.468Z"/>
                </g>
                <g transform="matrix(-0.413561,1.54606e-17,9.58557e-16,0.245457,731.2,108.402)">
                    <path d="M568.156,184.252C568.025,183.75 567.735,183.316 567.37,182.97C566.932,182.555 566.342,182.311 565.695,182.301L563.19,182.126C562.414,182.028 561.654,181.858 560.938,181.56C560.232,181.266 559.571,180.885 558.964,180.411C558.264,179.841 557.411,179.214 556.552,178.778C555.897,178.446 555.268,178.221 554.704,178.242C554.684,178.245 554.664,178.231 554.661,178.21C554.657,178.19 554.671,178.17 554.692,178.167C555.271,177.992 555.986,178.046 556.753,178.221C557.754,178.451 558.79,178.905 559.656,179.326C559.657,179.326 559.657,179.326 559.657,179.326C560.23,179.62 560.835,179.811 561.457,179.958C562.061,180.101 562.678,180.168 563.305,180.162C563.304,180.162 565.812,180.277 565.812,180.277C566.962,180.392 567.991,180.905 568.686,181.728C569.36,182.525 569.76,183.563 569.683,184.68C569.683,184.68 569.682,184.688 569.682,184.688C569.66,184.939 569.585,185.176 569.407,185.328C569.232,185.477 569.019,185.604 568.772,185.587L563.513,185.177C563.402,185.179 563.31,185.091 563.308,184.98C563.307,184.869 563.395,184.777 563.506,184.775L568.156,184.252Z"/>
                </g>
                <g transform="matrix(0.355994,0.124923,0.210478,-0.21129,253.442,117.504)">
                    <path d="M568.412,182.845C568.399,182.581 568.287,182.342 568.123,182.153C567.96,181.965 567.73,181.841 567.47,181.796C566.344,181.584 564.697,181.308 563.264,181.005C562.038,180.745 560.971,180.465 560.487,180.351C560.487,180.351 560.109,180.287 560.109,180.287C560.108,180.287 560.108,180.287 560.107,180.287C559.548,180.257 558.167,180.158 556.966,179.545C556.329,179.22 555.753,178.767 555.371,178.126C555.34,178.085 555.348,178.026 555.389,177.995C555.431,177.963 555.49,177.972 555.521,178.013C555.983,178.502 556.581,178.776 557.201,178.952C557.687,179.09 558.179,179.147 558.631,179.176C559.255,179.217 559.788,179.185 560.077,179.157C560.183,179.147 560.291,179.147 560.4,179.149L560.726,179.18C561.216,179.266 562.307,179.427 563.538,179.67C564.974,179.954 566.597,180.348 567.716,180.595C568.248,180.721 568.706,181.013 569.019,181.422C569.328,181.824 569.513,182.326 569.496,182.864C569.495,182.889 569.494,182.913 569.49,182.938C569.472,183.24 569.399,183.533 569.267,183.799C569.125,184.082 568.93,184.339 568.678,184.542C568.429,184.743 568.146,184.891 567.844,184.968C567.544,185.045 567.23,185.065 566.919,185.009C566.918,185.009 566.917,185.008 566.916,185.008C565.702,184.774 564.489,184.563 563.27,184.444C562.455,184.365 561.64,184.326 560.82,184.351C560.82,184.351 560.787,184.361 560.787,184.361L560.772,184.401C560.773,184.403 560.773,184.404 560.774,184.405C560.87,184.855 561.022,185.184 561.242,185.459C561.573,185.873 562.043,186.165 562.671,186.55C562.682,186.556 562.686,186.57 562.68,186.582C562.674,186.593 562.66,186.597 562.649,186.591C561.969,186.253 561.461,185.992 561.083,185.598C560.815,185.318 560.614,184.971 560.464,184.487C560.447,184.437 560.444,184.381 560.451,184.326C560.457,184.27 560.479,184.218 560.51,184.169C560.54,184.12 560.584,184.082 560.631,184.052C560.68,184.021 560.736,184.005 560.794,183.998C560.794,183.998 560.794,183.998 560.794,183.998C561.628,183.901 562.463,183.869 563.301,183.88C564.548,183.896 565.794,184.011 567.045,184.146C567.227,184.165 567.41,184.138 567.582,184.08C567.75,184.024 567.903,183.926 568.036,183.802C568.166,183.681 568.26,183.53 568.326,183.369C568.391,183.212 568.417,183.041 568.411,182.867L568.412,182.845Z"/>
                </g>
                <g transform="matrix(0.252789,0.122282,-0.350788,0.255454,428.301,53.3629)">
                    <path d="M480.826,137.985C480.778,137.985 480.789,138.016 480.823,138.04C480.882,138.083 480.989,138.089 481.062,138.054C481.062,138.054 481.123,138.015 481.126,137.932C481.13,137.861 481.137,137.712 481.145,137.527C481.166,137.07 480.863,136.653 480.367,136.345C479.861,136.032 479.148,135.836 478.355,135.824L467.59,135.658C466.705,135.646 465.9,135.852 465.306,136.185C464.702,136.523 464.332,136.999 464.31,137.527C464.31,137.527 464.31,137.527 464.31,137.527C464.273,138.86 464.19,140.907 464.157,143.018C464.093,147.023 464.124,151.254 464.124,151.254C464.124,151.535 464.513,151.763 464.991,151.763C465.469,151.763 465.857,151.535 465.857,151.254C465.857,151.254 465.889,147.023 465.825,143.018C465.792,140.907 465.709,138.86 465.671,137.527C465.659,137.211 465.855,136.921 466.199,136.709C466.551,136.492 467.04,136.35 467.59,136.342C467.59,136.342 478.355,136.176 478.355,136.176C478.998,136.166 479.587,136.308 480.019,136.549C480.462,136.796 480.746,137.14 480.764,137.527L480.784,137.973L480.826,137.985Z"/>
                </g>
                <g transform="matrix(0.252789,0.122282,-0.350788,0.255454,428.301,53.3629)">
                    <path d="M465.942,155.022C465.895,154.951 465.858,154.717 465.858,154.717C465.852,154.709 464.183,154.708 464.183,154.708C464.183,154.708 464.261,155.172 464.412,155.383C464.564,155.595 464.782,155.792 465.067,155.956C465.35,156.12 465.681,156.249 466.043,156.334C466.403,156.419 466.791,156.465 467.187,156.461L478.355,156.357C479.236,156.348 480.031,156.136 480.599,155.791C481.16,155.45 481.507,154.985 481.492,154.473C481.492,154.473 480.986,138.859 480.986,138.859C480.986,138.849 480.972,138.841 480.954,138.841C480.937,138.841 480.922,138.849 480.922,138.859L480.416,154.473C480.407,154.805 480.164,155.101 479.788,155.315C479.418,155.525 478.91,155.649 478.355,155.643C478.355,155.643 467.187,155.539 467.187,155.539C467.003,155.537 466.824,155.511 466.659,155.469C466.495,155.427 466.348,155.364 466.222,155.287C466.098,155.21 466.006,155.119 465.942,155.022Z"/>
                </g>
                <g transform="matrix(0.092926,-0.0219296,0.0369483,0.0551535,428.704,153.275)">
                    <path d="M662.755,160.594C667.144,160.992 670.688,162.986 673.136,165.974C675.48,168.834 676.767,172.627 676.691,176.852C676.698,180.988 674.905,184.665 672.145,187.351C670.754,188.706 669.118,189.815 667.298,190.585C665.531,191.332 663.605,191.787 661.581,191.82C657.399,191.918 653.577,190.312 650.764,187.64C647.887,184.908 646.031,181.098 645.91,176.823C645.768,172.449 647.082,168.561 649.524,165.659C652.041,162.667 655.725,160.72 660.226,160.324C660.261,160.322 660.287,160.293 660.285,160.258C660.283,160.224 660.254,160.197 660.219,160.199C655.539,160.292 651.608,162.088 648.8,165.008C645.954,167.969 644.282,172.088 644.129,176.823C643.99,181.692 645.87,186.146 648.981,189.423C652.151,192.761 656.62,194.833 661.581,194.948C664.039,194.989 666.407,194.541 668.57,193.675C670.814,192.777 672.847,191.439 674.523,189.756C677.83,186.437 679.786,181.822 679.593,176.794C679.312,171.96 677.554,167.697 674.587,164.672C671.644,161.672 667.576,159.872 662.781,159.929C662.597,159.922 662.443,160.065 662.436,160.249C662.428,160.432 662.571,160.587 662.755,160.594Z"/>
                </g>
                <g transform="matrix(0.137127,-0.102746,0.173112,0.081388,370.29,226.487)">
                    <path d="M822.014,76.144C822.054,76.068 822.003,76.062 821.959,76.083C821.896,76.114 821.87,76.189 821.901,76.251L821.915,76.274C821.915,76.274 822.113,77.026 822.138,77.846C822.152,78.298 822.091,78.757 821.83,79.09C821.683,79.279 821.438,79.366 821.082,79.412C820.847,79.442 820.572,79.447 820.244,79.422C819.971,79.401 819.667,79.374 819.325,79.311C819.074,79.25 818.813,79.366 818.689,79.593C818.566,79.821 818.611,80.103 818.8,80.28C818.8,80.28 819.969,81.235 821.165,82.171C822.365,83.111 823.571,84.017 823.571,84.017C823.581,84.026 823.596,84.026 823.605,84.016C823.614,84.007 823.613,83.992 823.604,83.983C823.604,83.983 822.625,82.834 821.614,81.694C821.312,81.354 821.01,81.017 820.733,80.712C820.78,80.712 820.824,80.711 820.868,80.71C821.181,80.702 821.453,80.65 821.683,80.57C822.213,80.387 822.57,80.089 822.776,79.715C823.038,79.237 823.106,78.655 822.986,78.081C822.83,77.331 822.443,76.637 822.242,76.316C822.193,76.238 822.157,76.185 822.139,76.159C822.099,76.102 822.053,76.112 822.014,76.144Z"/>
                </g>
                <g transform="matrix(0.144027,-0.107915,0.173112,0.081388,364.672,230.737)">
                    <path d="M818.868,76.269L818.868,76.269L818.867,76.269C818.867,76.269 818.922,76.364 819.056,76.409C819.098,76.425 819.144,76.433 819.191,76.433L819.19,76.433L819.212,76.433C819.243,76.433 819.308,76.432 819.401,76.431C819.749,76.424 820.486,76.423 821.291,76.383C822.759,76.311 824.442,76.153 824.442,76.153C824.523,76.153 824.588,76.084 824.588,76C824.588,75.916 824.523,75.847 824.442,75.847C824.442,75.847 822.759,75.689 821.291,75.617C820.486,75.577 819.749,75.576 819.401,75.569L819.193,75.567L818.868,76.269ZM818.867,76.269L818.867,76.269L818.868,76.269L818.867,76.269C818.963,75.567 818.778,75.761 818.778,76C818.778,76.102 818.812,76.195 818.867,76.269Z"/>
                </g>
                <g transform="matrix(0.123198,-0.092309,0.173112,0.081388,382.116,218.055)">
                    <path d="M818.813,76.269L818.813,76.269L818.813,76.269L818.814,76.27C818.902,76.369 819.038,76.433 819.191,76.433L819.123,76.404C819.201,76.421 819.293,76.433 819.401,76.431C819.749,76.424 820.486,76.423 821.291,76.383C822.761,76.311 824.442,76.153 824.442,76.153C824.536,76.153 824.612,76.084 824.612,76C824.612,75.916 824.536,75.847 824.442,75.847C824.442,75.847 822.761,75.689 821.291,75.617C820.486,75.577 819.749,75.576 819.401,75.569L819.193,75.567L818.813,76.269ZM818.813,76.269L818.813,76.269L818.813,76.269L818.813,76.269C818.925,75.567 818.709,75.761 818.709,76C818.709,76.102 818.748,76.195 818.813,76.269Z"/>
                </g>
            </g>
        </g>
    </g>
</svg>
