<?xml version="1.0" encoding="UTF-8" standalone="no"?>
<!DOCTYPE svg PUBLIC "-//W3C//DTD SVG 1.1//EN" "http://www.w3.org/Graphics/SVG/1.1/DTD/svg11.dtd">
<svg width="100%" height="100%" viewBox="0 0 32 32" version="1.1" xmlns="http://www.w3.org/2000/svg" xmlns:xlink="http://www.w3.org/1999/xlink" xml:space="preserve" xmlns:serif="http://www.serif.com/" style="fill-rule:evenodd;clip-rule:evenodd;stroke-linejoin:round;stroke-miterlimit:2;">
    <g transform="matrix(1,0,0,1,-620,-1596)">
        <g id="ic_account_groups_cash" transform="matrix(0.928372,0,0,0.932809,27.0811,102.421)">
            <rect x="638.822" y="1601.28" width="33.304" height="33.969" style="fill:none;"/>
            <g transform="matrix(1.90611,0,0,3.19625,104.13,1135.99)">
                <g transform="matrix(0.268802,0.231754,-0.664827,0.271636,259.293,2.41264)">
                    <path d="M481.147,138.055L481.23,137.4C481.245,137.191 481.184,136.986 481.064,136.794C480.942,136.598 480.751,136.419 480.507,136.263C480.259,136.105 479.959,135.982 479.633,135.893C479.303,135.803 478.941,135.755 478.57,135.745C478.57,135.745 467.375,135.511 467.375,135.511C466.947,135.503 466.527,135.552 466.134,135.64C465.738,135.729 465.377,135.868 465.063,136.042C464.746,136.218 464.504,136.43 464.33,136.659C464.154,136.89 464.065,137.142 464.052,137.4C464.052,137.4 464.052,137.4 464.052,137.4C464.014,138.434 463.941,139.959 463.892,141.7C463.853,143.048 463.82,144.524 463.808,146C463.795,147.476 463.802,148.952 463.819,150.3C463.841,152.04 463.894,153.566 463.918,154.6C463.925,154.868 464.016,155.132 464.195,155.373C464.372,155.614 464.624,155.837 464.951,156.023C465.277,156.209 465.655,156.355 466.069,156.452C466.481,156.547 466.923,156.6 467.375,156.596C467.375,156.596 478.57,156.466 478.57,156.466C478.99,156.46 479.401,156.41 479.778,156.312C480.153,156.215 480.499,156.079 480.787,155.902C481.073,155.726 481.3,155.522 481.447,155.3C481.593,155.079 481.672,154.841 481.663,154.6L480.998,138.859C480.998,138.845 480.979,138.834 480.954,138.834C480.93,138.834 480.91,138.845 480.91,138.859L480.245,154.6C480.24,154.729 480.186,154.855 480.098,154.972C480.012,155.087 479.883,155.189 479.725,155.278C479.569,155.365 479.384,155.43 479.187,155.475C478.993,155.519 478.783,155.537 478.57,155.534L467.375,155.404C467.194,155.403 467.019,155.377 466.856,155.335C466.695,155.294 466.552,155.232 466.427,155.156C466.304,155.082 466.214,154.992 466.15,154.898C466.087,154.804 466.061,154.702 466.064,154.6C466.088,153.566 466.14,152.04 466.163,150.3C466.18,148.952 466.186,147.476 466.174,146C466.162,144.524 466.128,143.048 466.09,141.7C466.041,139.959 465.968,138.434 465.93,137.4C465.924,137.287 465.948,137.174 466.015,137.069C466.084,136.963 466.18,136.862 466.316,136.778C466.454,136.692 466.612,136.62 466.792,136.573C466.975,136.525 467.171,136.493 467.375,136.489L478.57,136.255C478.832,136.248 479.091,136.269 479.332,136.32C479.578,136.373 479.809,136.451 480.005,136.557C480.206,136.666 480.369,136.793 480.482,136.935C480.597,137.08 480.667,137.237 480.679,137.4L480.72,137.971C480.72,137.971 480.715,138.047 480.822,138.09C480.928,138.133 481.074,138.117 481.147,138.055Z"/>
                </g>
                <g transform="matrix(0.394362,0.156134,-0.447898,0.398519,169.507,18.7743)">
                    <path d="M480.749,137.981C480.715,137.99 480.727,138.024 480.76,138.053C480.831,138.116 480.977,138.133 481.084,138.091C481.084,138.091 481.184,138.037 481.192,137.919C481.199,137.827 481.213,137.632 481.229,137.4C481.244,137.192 481.182,136.986 481.062,136.794C480.941,136.599 480.749,136.42 480.505,136.264C480.257,136.106 479.958,135.983 479.632,135.894C479.302,135.805 478.941,135.757 478.57,135.748C478.57,135.748 467.375,135.487 467.375,135.487C466.941,135.478 466.515,135.528 466.116,135.616C465.714,135.705 465.348,135.846 465.028,136.022C464.705,136.2 464.46,136.415 464.281,136.648C464.1,136.882 464.01,137.138 463.996,137.4C463.967,138.136 463.918,139.096 463.891,140.115C463.815,143.039 463.806,146.45 463.806,146.45C463.806,146.834 464.337,147.146 464.991,147.146C465.645,147.146 466.176,146.834 466.176,146.45C466.176,146.45 466.167,143.039 466.091,140.115C466.064,139.096 466.014,138.136 465.986,137.4C465.98,137.291 465.999,137.182 466.064,137.081C466.13,136.979 466.22,136.88 466.35,136.798C466.483,136.715 466.635,136.644 466.809,136.598C466.986,136.55 467.177,136.517 467.375,136.513L478.57,136.252C478.832,136.246 479.091,136.267 479.333,136.319C479.579,136.372 479.81,136.45 480.007,136.556C480.208,136.665 480.371,136.792 480.483,136.935C480.598,137.08 480.668,137.237 480.68,137.4L480.72,137.971L480.749,137.981Z"/>
                </g>
                <g transform="matrix(0.394362,0.156134,-0.447898,0.398519,169.507,18.7743)">
                    <path d="M476.361,156.451L478.57,156.422C478.98,156.417 479.382,156.368 479.75,156.273C480.116,156.178 480.454,156.044 480.736,155.872C481.015,155.7 481.236,155.501 481.38,155.283C481.523,155.067 481.6,154.836 481.591,154.6C481.591,154.6 481.36,149.12 481.36,149.12C481.36,148.989 481.178,148.882 480.954,148.882C480.731,148.882 480.549,148.989 480.549,149.12L480.317,154.6C480.312,154.735 480.256,154.866 480.165,154.988C480.075,155.108 479.941,155.216 479.776,155.308C479.614,155.4 479.421,155.467 479.215,155.514C479.012,155.561 478.792,155.58 478.57,155.578L476.361,155.549C475.937,155.549 475.593,155.751 475.593,156C475.593,156.249 475.937,156.451 476.361,156.451Z"/>
                </g>
                <g transform="matrix(-0.0979009,-0.0845452,-0.148668,0.0606441,356.338,197.138)">
                    <path d="M564.122,95.938C566.158,96.133 568.078,96.638 569.864,97.47C570.477,97.756 571.057,98.089 571.617,98.457C572.18,98.826 572.717,99.231 573.208,99.683C573.7,100.135 574.151,100.628 574.552,101.157C574.952,101.686 575.298,102.242 575.606,102.827C575.972,103.521 576.283,104.224 576.527,104.972C576.881,106.064 577.092,107.16 577.196,108.322C577.202,108.344 577.188,108.366 577.165,108.371C577.143,108.377 577.12,108.363 577.114,108.342C576.648,107.309 576.079,106.388 575.437,105.473C575.018,104.876 574.571,104.325 574.095,103.775C573.706,103.324 573.289,102.909 572.874,102.483C572.464,102.063 572.043,101.656 571.616,101.253C571.188,100.849 570.762,100.445 570.312,100.063C569.629,99.483 568.926,98.937 568.168,98.44C566.882,97.596 565.534,96.871 564.025,96.358C563.904,96.332 563.828,96.217 563.854,96.101C563.881,95.985 564.001,95.912 564.122,95.938Z"/>
                </g>
                <g transform="matrix(0.0979009,0.0845452,0.148668,-0.0606441,222.516,106.401)">
                    <path d="M564.122,95.938C566.158,96.133 568.078,96.638 569.864,97.47C570.477,97.756 571.057,98.089 571.617,98.457C572.18,98.826 572.717,99.231 573.208,99.683C573.7,100.135 574.151,100.628 574.552,101.157C574.952,101.686 575.298,102.242 575.606,102.827C575.972,103.521 576.283,104.224 576.527,104.972C576.881,106.064 577.092,107.16 577.196,108.322C577.202,108.344 577.188,108.366 577.165,108.371C577.143,108.377 577.12,108.363 577.114,108.342C576.648,107.309 576.079,106.388 575.437,105.473C575.018,104.876 574.571,104.325 574.095,103.775C573.706,103.324 573.289,102.909 572.874,102.483C572.464,102.063 572.043,101.656 571.616,101.253C571.188,100.849 570.762,100.445 570.312,100.063C569.629,99.483 568.926,98.937 568.168,98.44C566.882,97.596 565.534,96.871 564.025,96.358C563.904,96.332 563.828,96.217 563.854,96.101C563.881,95.985 564.001,95.912 564.122,95.938Z"/>
                </g>
                <g transform="matrix(0.142447,-0.0581063,-0.102177,-0.0882377,211.983,194.997)">
                    <path d="M564.122,95.938C566.158,96.133 568.078,96.638 569.864,97.47C570.477,97.756 571.057,98.089 571.617,98.457C572.18,98.826 572.717,99.231 573.208,99.683C573.7,100.135 574.151,100.628 574.552,101.157C574.952,101.686 575.298,102.242 575.606,102.827C575.972,103.521 576.283,104.224 576.527,104.972C576.881,106.064 577.092,107.16 577.196,108.322C577.202,108.344 577.188,108.366 577.165,108.371C577.143,108.377 577.12,108.363 577.114,108.342C576.648,107.309 576.079,106.388 575.437,105.473C575.018,104.876 574.571,104.325 574.095,103.775C573.706,103.324 573.289,102.909 572.874,102.483C572.464,102.063 572.043,101.656 571.616,101.253C571.188,100.849 570.762,100.445 570.312,100.063C569.629,99.483 568.926,98.937 568.168,98.44C566.882,97.596 565.534,96.871 564.025,96.358C563.904,96.332 563.828,96.217 563.854,96.101C563.881,95.985 564.001,95.912 564.122,95.938Z"/>
                </g>
                <g transform="matrix(-0.142447,0.0581063,0.102177,0.0882377,367.198,108.589)">
                    <path d="M564.122,95.938C566.158,96.133 568.078,96.638 569.864,97.47C570.477,97.756 571.057,98.089 571.617,98.457C572.18,98.826 572.717,99.231 573.208,99.683C573.7,100.135 574.151,100.628 574.552,101.157C574.952,101.686 575.298,102.242 575.606,102.827C575.972,103.521 576.283,104.224 576.527,104.972C576.881,106.064 577.092,107.16 577.196,108.322C577.202,108.344 577.188,108.366 577.165,108.371C577.143,108.377 577.12,108.363 577.114,108.342C576.648,107.309 576.079,106.388 575.437,105.473C575.018,104.876 574.571,104.325 574.095,103.775C573.706,103.324 573.289,102.909 572.874,102.483C572.464,102.063 572.043,101.656 571.616,101.253C571.188,100.849 570.762,100.445 570.312,100.063C569.629,99.483 568.926,98.937 568.168,98.44C566.882,97.596 565.534,96.871 564.025,96.358C563.904,96.332 563.828,96.217 563.854,96.101C563.881,95.985 564.001,95.912 564.122,95.938Z"/>
                </g>
                <g transform="matrix(0.14472,-0.00813091,0.0136994,0.0858942,191.274,141.925)">
                    <path d="M662.75,160.719C667.068,161.194 670.5,163.233 672.864,166.218C675.099,169.041 676.278,172.749 676.146,176.863C676.125,180.832 674.354,184.329 671.698,186.899C670.362,188.193 668.8,189.26 667.059,190.004C665.366,190.728 663.524,191.189 661.581,191.233C657.544,191.362 653.84,189.858 651.099,187.305C648.269,184.67 646.407,180.988 646.244,176.823C646.053,172.515 647.289,168.671 649.66,165.782C652.125,162.776 655.758,160.798 660.227,160.348C660.275,160.345 660.311,160.305 660.309,160.257C660.306,160.21 660.266,160.173 660.218,160.176C655.501,160.209 651.53,161.979 648.664,164.886C645.738,167.855 644.008,172.018 643.794,176.823C643.599,181.804 645.494,186.373 648.646,189.758C651.877,193.228 656.472,195.372 661.581,195.536C664.121,195.593 666.57,195.142 668.809,194.256C671.133,193.336 673.241,191.954 674.97,190.208C678.378,186.767 680.374,181.979 680.138,176.783C679.78,171.832 677.953,167.478 674.86,164.428C671.815,161.426 667.662,159.653 662.786,159.805C662.533,159.795 662.321,159.991 662.311,160.244C662.301,160.496 662.498,160.709 662.75,160.719Z"/>
                </g>
                <g transform="matrix(0.26187,-0.110212,0.185692,0.155425,59.5122,229.959)">
                    <path d="M822.027,76.143C822.047,76.073 822.001,76.068 821.961,76.087C821.901,76.117 821.876,76.189 821.905,76.249L821.944,76.295C821.944,76.295 821.936,76.292 821.926,76.288C821.933,76.315 821.935,76.363 821.947,76.407C822.016,76.676 822.13,77.238 822.152,77.844C822.169,78.3 822.11,78.765 821.848,79.102C821.697,79.295 821.449,79.388 821.086,79.435C820.849,79.465 820.572,79.47 820.242,79.445C819.968,79.424 819.662,79.395 819.32,79.331C819.078,79.272 818.827,79.384 818.708,79.603C818.589,79.823 818.633,80.094 818.814,80.265C818.814,80.265 819.981,81.222 821.173,82.162C822.369,83.105 823.572,84.017 823.572,84.017C823.581,84.025 823.596,84.025 823.604,84.016C823.613,84.006 823.612,83.992 823.603,83.983C823.603,83.983 822.62,82.839 821.605,81.703C821.291,81.351 820.975,81.001 820.689,80.687C820.75,80.688 820.809,80.688 820.867,80.686C821.178,80.678 821.448,80.627 821.676,80.548C822.201,80.368 822.554,80.073 822.758,79.703C823.02,79.23 823.084,78.652 822.97,78.082C822.882,77.636 822.717,77.209 822.545,76.864C822.39,76.554 822.243,76.325 822.169,76.214C822.148,76.182 822.135,76.161 822.127,76.151C822.092,76.101 822.057,76.111 822.027,76.143ZM821.926,76.288C821.91,76.28 821.89,76.269 821.909,76.264C821.918,76.261 821.923,76.271 821.926,76.288Z"/>
                </g>
                <g transform="matrix(0.275045,-0.115757,0.185692,0.155425,48.7555,234.532)">
                    <path d="M819.191,76.417C819.191,76.417 820.176,76.421 821.291,76.369C822.759,76.301 824.442,76.147 824.442,76.147C824.52,76.147 824.583,76.081 824.583,76C824.583,75.919 824.52,75.853 824.442,75.853C824.442,75.853 822.759,75.699 821.291,75.631C820.176,75.579 819.191,75.583 819.191,75.583C818.972,75.583 818.794,75.77 818.794,76C818.794,76.23 818.972,76.417 819.191,76.417Z"/>
                </g>
                <g transform="matrix(0.23527,-0.0990173,0.185692,0.155425,81.8018,221.053)">
                    <path d="M819.191,76.417C819.191,76.417 820.176,76.421 821.291,76.369C822.761,76.301 824.442,76.147 824.442,76.147C824.533,76.147 824.606,76.081 824.606,76C824.606,75.919 824.533,75.853 824.442,75.853C824.442,75.853 822.761,75.699 821.291,75.631C820.176,75.579 819.191,75.583 819.191,75.583C818.934,75.583 818.726,75.77 818.726,76C818.726,76.23 818.934,76.417 819.191,76.417Z"/>
                </g>
            </g>
        </g>
    </g>
</svg>
