<?xml version="1.0" encoding="UTF-8" standalone="no"?>
<!DOCTYPE svg PUBLIC "-//W3C//DTD SVG 1.1//EN" "http://www.w3.org/Graphics/SVG/1.1/DTD/svg11.dtd">
<svg width="100%" height="100%" viewBox="0 0 32 32" version="1.1" xmlns="http://www.w3.org/2000/svg" xmlns:xlink="http://www.w3.org/1999/xlink" xml:space="preserve" xmlns:serif="http://www.serif.com/" style="fill-rule:evenodd;clip-rule:evenodd;stroke-linejoin:round;stroke-miterlimit:2;">
    <g transform="matrix(1,0,0,1,-757,-1596)">
        <g id="ic_account_groups_investment" transform="matrix(1.00077,0,0,0.999827,4.14379,-0.9337)">
            <rect x="752.397" y="1597.32" width="31.232" height="31.181" style="fill:none;"/>
            <g transform="matrix(1.76821,0,0,2.982,142.47,1163.84)">
                <g transform="matrix(0.335211,0,-2.09549e-15,0.0572261,124.223,150.175)">
                    <path d="M694.874,44.033C695.071,46.338 694.318,48.479 692.968,50.114C691.491,51.904 689.276,52.995 686.801,53.142C684.246,53.217 681.88,52.214 680.21,50.494C678.608,48.845 677.679,46.535 677.714,44.033C677.808,41.57 678.812,39.353 680.443,37.781C682.101,36.182 684.35,35.216 686.801,35.324C689.123,35.441 691.427,36.57 693.089,38.317C694.662,39.971 695.668,42.135 695.541,44.378C695.541,44.405 695.518,44.427 695.49,44.427C695.462,44.427 695.439,44.405 695.439,44.378C695.319,42.251 694.161,40.304 692.506,38.898C690.9,37.534 688.823,36.706 686.801,36.807C684.869,36.892 683.18,37.805 681.984,39.165C680.855,40.451 680.209,42.168 680.28,44.033C680.306,45.855 681.072,47.472 682.218,48.691C683.39,49.94 684.975,50.804 686.801,50.858C688.711,50.972 690.475,50.28 691.808,49.072C693.198,47.811 694.161,46.065 694.335,44.033C694.335,43.888 694.456,43.771 694.605,43.771C694.753,43.771 694.874,43.888 694.874,44.033Z"/>
                </g>
                <g transform="matrix(-0.456304,0,0,0.341783,754.637,134.81)">
                    <path d="M870.813,52.35C870.813,52.35 870.838,52.999 871.05,53.575C871.131,53.796 871.251,53.995 871.436,54.109C871.76,54.322 872.194,54.466 872.683,54.604C873.119,54.727 873.605,54.819 874.121,54.907C875.067,55.07 876.114,55.188 877.176,55.226C879.568,55.313 881.993,55.08 883.223,54.382C883.369,54.287 883.469,54.101 883.54,53.897C883.668,53.525 883.696,53.105 883.695,52.947C883.692,52.923 883.715,52.902 883.744,52.901C883.774,52.899 883.8,52.916 883.802,52.94C883.834,53.103 883.889,53.542 883.827,53.942C883.784,54.218 883.674,54.469 883.493,54.625C883.49,54.628 883.486,54.63 883.482,54.633C882.582,55.299 880.916,55.794 879.038,56.044C877.997,56.182 876.897,56.248 875.835,56.212C874.881,56.179 873.954,56.076 873.148,55.874C872.092,55.609 871.244,55.191 870.698,54.704C870.439,54.448 870.276,54.078 870.265,53.671C870.248,53.009 870.496,52.316 870.496,52.316C870.508,52.247 870.589,52.199 870.676,52.208C870.764,52.217 870.825,52.281 870.813,52.35Z"/>
                </g>
                <g transform="matrix(-0.456304,0,0,0.341783,754.649,135.416)">
                    <path d="M870.813,52.35C870.813,52.35 870.838,52.999 871.05,53.575C871.131,53.796 871.251,53.995 871.436,54.109C871.76,54.322 872.194,54.466 872.683,54.604C873.119,54.727 873.605,54.819 874.121,54.907C875.067,55.07 876.114,55.188 877.176,55.226C879.568,55.313 881.993,55.08 883.223,54.382C883.369,54.287 883.469,54.101 883.54,53.897C883.668,53.525 883.696,53.105 883.695,52.947C883.692,52.923 883.715,52.902 883.744,52.901C883.774,52.899 883.8,52.916 883.802,52.94C883.834,53.103 883.889,53.542 883.827,53.942C883.784,54.218 883.674,54.469 883.493,54.625C883.49,54.628 883.486,54.63 883.482,54.633C882.582,55.299 880.916,55.794 879.038,56.044C877.997,56.182 876.897,56.248 875.835,56.212C874.881,56.179 873.954,56.076 873.148,55.874C872.092,55.609 871.244,55.191 870.698,54.704C870.439,54.448 870.276,54.078 870.265,53.671C870.248,53.009 870.496,52.316 870.496,52.316C870.508,52.247 870.589,52.199 870.676,52.208C870.764,52.217 870.825,52.281 870.813,52.35Z"/>
                </g>
                <g transform="matrix(-0.456304,0,0,0.341783,754.654,136.008)">
                    <path d="M870.813,52.35C870.813,52.35 870.838,52.999 871.05,53.575C871.131,53.796 871.251,53.995 871.436,54.109C871.76,54.322 872.194,54.466 872.683,54.604C873.119,54.727 873.605,54.819 874.121,54.907C875.067,55.07 876.114,55.188 877.176,55.226C879.568,55.313 881.993,55.08 883.223,54.382C883.369,54.287 883.469,54.101 883.54,53.897C883.668,53.525 883.696,53.105 883.695,52.947C883.692,52.923 883.715,52.902 883.744,52.901C883.774,52.899 883.8,52.916 883.802,52.94C883.834,53.103 883.889,53.542 883.827,53.942C883.784,54.218 883.674,54.469 883.493,54.625C883.49,54.628 883.486,54.63 883.482,54.633C882.582,55.299 880.916,55.794 879.038,56.044C877.997,56.182 876.897,56.248 875.835,56.212C874.881,56.179 873.954,56.076 873.148,55.874C872.092,55.609 871.244,55.191 870.698,54.704C870.439,54.448 870.276,54.078 870.265,53.671C870.248,53.009 870.496,52.316 870.496,52.316C870.508,52.247 870.589,52.199 870.676,52.208C870.764,52.217 870.825,52.281 870.813,52.35Z"/>
                </g>
                <g transform="matrix(-0.456304,0,0,0.341783,754.637,136.602)">
                    <path d="M870.813,52.35C870.813,52.35 870.838,52.999 871.05,53.575C871.131,53.796 871.251,53.995 871.436,54.109C871.76,54.322 872.194,54.466 872.683,54.604C873.119,54.727 873.605,54.819 874.121,54.907C875.067,55.07 876.114,55.188 877.176,55.226C879.568,55.313 881.993,55.08 883.223,54.382C883.369,54.287 883.469,54.101 883.54,53.897C883.668,53.525 883.696,53.105 883.695,52.947C883.692,52.923 883.715,52.902 883.744,52.901C883.774,52.899 883.8,52.916 883.802,52.94C883.834,53.103 883.889,53.542 883.827,53.942C883.784,54.218 883.674,54.469 883.493,54.625C883.49,54.628 883.486,54.63 883.482,54.633C882.582,55.299 880.916,55.794 879.038,56.044C877.997,56.182 876.897,56.248 875.835,56.212C874.881,56.179 873.954,56.076 873.148,55.874C872.092,55.609 871.244,55.191 870.698,54.704C870.439,54.448 870.276,54.078 870.265,53.671C870.248,53.009 870.496,52.316 870.496,52.316C870.508,52.247 870.589,52.199 870.676,52.208C870.764,52.217 870.825,52.281 870.813,52.35Z"/>
                </g>
                <g transform="matrix(0.335211,-0.000437304,0.000211927,0.057226,117.837,146.985)">
                    <path d="M694.874,44.033C695.071,46.338 694.318,48.479 692.968,50.114C691.491,51.904 689.276,52.995 686.801,53.142C684.246,53.217 681.88,52.214 680.21,50.494C678.608,48.845 677.679,46.535 677.714,44.033C677.808,41.57 678.812,39.353 680.443,37.781C682.101,36.182 684.35,35.216 686.801,35.324C689.123,35.441 691.427,36.57 693.089,38.317C694.662,39.971 695.668,42.135 695.541,44.378C695.541,44.405 695.518,44.427 695.49,44.427C695.462,44.427 695.439,44.405 695.439,44.378C695.319,42.251 694.161,40.304 692.506,38.898C690.9,37.534 688.823,36.706 686.801,36.807C684.869,36.892 683.18,37.805 681.984,39.165C680.855,40.451 680.209,42.168 680.28,44.033C680.306,45.855 681.072,47.472 682.218,48.691C683.39,49.94 684.975,50.804 686.801,50.858C688.711,50.972 690.475,50.28 691.808,49.072C693.198,47.811 694.161,46.065 694.335,44.033C694.335,43.888 694.456,43.771 694.605,43.771C694.753,43.771 694.874,43.888 694.874,44.033Z"/>
                </g>
                <g transform="matrix(-0.456303,0.000595276,0.00126573,0.341782,748.192,130.798)">
                    <path d="M870.813,52.35C870.813,52.35 870.838,52.999 871.05,53.575C871.131,53.796 871.251,53.995 871.436,54.109C871.76,54.322 872.194,54.466 872.683,54.604C873.119,54.727 873.605,54.819 874.121,54.907C875.067,55.07 876.114,55.188 877.176,55.226C879.568,55.313 881.993,55.08 883.223,54.382C883.369,54.287 883.469,54.101 883.54,53.897C883.668,53.525 883.696,53.105 883.695,52.947C883.692,52.923 883.715,52.902 883.744,52.901C883.774,52.899 883.8,52.916 883.802,52.94C883.834,53.103 883.889,53.542 883.827,53.942C883.784,54.218 883.674,54.469 883.493,54.625C883.49,54.628 883.486,54.63 883.482,54.633C882.582,55.299 880.916,55.794 879.038,56.044C877.997,56.182 876.897,56.248 875.835,56.212C874.881,56.179 873.954,56.076 873.148,55.874C872.092,55.609 871.244,55.191 870.698,54.704C870.439,54.448 870.276,54.078 870.265,53.671C870.248,53.009 870.496,52.316 870.496,52.316C870.508,52.247 870.589,52.199 870.676,52.208C870.764,52.217 870.825,52.281 870.813,52.35Z"/>
                </g>
                <g transform="matrix(-0.456303,0.000595276,0.00126573,0.341782,748.198,133.15)">
                    <path d="M870.813,52.35C870.813,52.35 870.838,52.999 871.05,53.575C871.131,53.796 871.251,53.995 871.436,54.109C871.76,54.322 872.194,54.466 872.683,54.604C873.119,54.727 873.605,54.819 874.121,54.907C875.067,55.07 876.114,55.188 877.176,55.226C879.568,55.313 881.993,55.08 883.223,54.382C883.369,54.287 883.469,54.101 883.54,53.897C883.668,53.525 883.696,53.105 883.695,52.947C883.692,52.923 883.715,52.902 883.744,52.901C883.774,52.899 883.8,52.916 883.802,52.94C883.834,53.103 883.889,53.542 883.827,53.942C883.784,54.218 883.674,54.469 883.493,54.625C883.49,54.628 883.486,54.63 883.482,54.633C882.582,55.299 880.916,55.794 879.038,56.044C877.997,56.182 876.897,56.248 875.835,56.212C874.881,56.179 873.954,56.076 873.148,55.874C872.092,55.609 871.244,55.191 870.698,54.704C870.439,54.448 870.276,54.078 870.265,53.671C870.248,53.009 870.496,52.316 870.496,52.316C870.508,52.247 870.589,52.199 870.676,52.208C870.764,52.217 870.825,52.281 870.813,52.35Z"/>
                </g>
                <g transform="matrix(-0.456303,0.000595276,0.00126573,0.341782,748.206,131.404)">
                    <path d="M870.813,52.35C870.813,52.35 870.838,52.999 871.05,53.575C871.131,53.796 871.251,53.995 871.436,54.109C871.76,54.322 872.194,54.466 872.683,54.604C873.119,54.727 873.605,54.819 874.121,54.907C875.067,55.07 876.114,55.188 877.176,55.226C879.568,55.313 881.993,55.08 883.223,54.382C883.369,54.287 883.469,54.101 883.54,53.897C883.668,53.525 883.696,53.105 883.695,52.947C883.692,52.923 883.715,52.902 883.744,52.901C883.774,52.899 883.8,52.916 883.802,52.94C883.834,53.103 883.889,53.542 883.827,53.942C883.784,54.218 883.674,54.469 883.493,54.625C883.49,54.628 883.486,54.63 883.482,54.633C882.582,55.299 880.916,55.794 879.038,56.044C877.997,56.182 876.897,56.248 875.835,56.212C874.881,56.179 873.954,56.076 873.148,55.874C872.092,55.609 871.244,55.191 870.698,54.704C870.439,54.448 870.276,54.078 870.265,53.671C870.248,53.009 870.496,52.316 870.496,52.316C870.508,52.247 870.589,52.199 870.676,52.208C870.764,52.217 870.825,52.281 870.813,52.35Z"/>
                </g>
                <g transform="matrix(-0.456303,0.000595276,0.00126573,0.341782,748.212,133.755)">
                    <path d="M870.813,52.35C870.813,52.35 870.838,52.999 871.05,53.575C871.131,53.796 871.251,53.995 871.436,54.109C871.76,54.322 872.194,54.466 872.683,54.604C873.119,54.727 873.605,54.819 874.121,54.907C875.067,55.07 876.114,55.188 877.176,55.226C879.568,55.313 881.993,55.08 883.223,54.382C883.369,54.287 883.469,54.101 883.54,53.897C883.668,53.525 883.696,53.105 883.695,52.947C883.692,52.923 883.715,52.902 883.744,52.901C883.774,52.899 883.8,52.916 883.802,52.94C883.834,53.103 883.889,53.542 883.827,53.942C883.784,54.218 883.674,54.469 883.493,54.625C883.49,54.628 883.486,54.63 883.482,54.633C882.582,55.299 880.916,55.794 879.038,56.044C877.997,56.182 876.897,56.248 875.835,56.212C874.881,56.179 873.954,56.076 873.148,55.874C872.092,55.609 871.244,55.191 870.698,54.704C870.439,54.448 870.276,54.078 870.265,53.671C870.248,53.009 870.496,52.316 870.496,52.316C870.508,52.247 870.589,52.199 870.676,52.208C870.764,52.217 870.825,52.281 870.813,52.35Z"/>
                </g>
                <g transform="matrix(-0.456303,0.000595276,0.00126573,0.341782,748.276,135.502)">
                    <path d="M870.813,52.35C870.813,52.35 870.838,52.999 871.05,53.575C871.131,53.796 871.251,53.995 871.436,54.109C871.76,54.322 872.194,54.466 872.683,54.604C873.119,54.727 873.605,54.819 874.121,54.907C875.067,55.07 876.114,55.188 877.176,55.226C879.568,55.313 881.993,55.08 883.223,54.382C883.369,54.287 883.469,54.101 883.54,53.897C883.668,53.525 883.696,53.105 883.695,52.947C883.692,52.923 883.715,52.902 883.744,52.901C883.774,52.899 883.8,52.916 883.802,52.94C883.834,53.103 883.889,53.542 883.827,53.942C883.784,54.218 883.674,54.469 883.493,54.625C883.49,54.628 883.486,54.63 883.482,54.633C882.582,55.299 880.916,55.794 879.038,56.044C877.997,56.182 876.897,56.248 875.835,56.212C874.881,56.179 873.954,56.076 873.148,55.874C872.092,55.609 871.244,55.191 870.698,54.704C870.439,54.448 870.276,54.078 870.265,53.671C870.248,53.009 870.496,52.316 870.496,52.316C870.508,52.247 870.589,52.199 870.676,52.208C870.764,52.217 870.825,52.281 870.813,52.35Z"/>
                </g>
                <g transform="matrix(-0.456303,0.000595276,0.00126573,0.341782,748.213,131.995)">
                    <path d="M870.813,52.35C870.813,52.35 870.838,52.999 871.05,53.575C871.131,53.796 871.251,53.995 871.436,54.109C871.76,54.322 872.194,54.466 872.683,54.604C873.119,54.727 873.605,54.819 874.121,54.907C875.067,55.07 876.114,55.188 877.176,55.226C879.568,55.313 881.993,55.08 883.223,54.382C883.369,54.287 883.469,54.101 883.54,53.897C883.668,53.525 883.696,53.105 883.695,52.947C883.692,52.923 883.715,52.902 883.744,52.901C883.774,52.899 883.8,52.916 883.802,52.94C883.834,53.103 883.889,53.542 883.827,53.942C883.784,54.218 883.674,54.469 883.493,54.625C883.49,54.628 883.486,54.63 883.482,54.633C882.582,55.299 880.916,55.794 879.038,56.044C877.997,56.182 876.897,56.248 875.835,56.212C874.881,56.179 873.954,56.076 873.148,55.874C872.092,55.609 871.244,55.191 870.698,54.704C870.439,54.448 870.276,54.078 870.265,53.671C870.248,53.009 870.496,52.316 870.496,52.316C870.508,52.247 870.589,52.199 870.676,52.208C870.764,52.217 870.825,52.281 870.813,52.35Z"/>
                </g>
                <g transform="matrix(-0.456303,0.000595276,0.00126573,0.341782,748.22,134.347)">
                    <path d="M870.813,52.35C870.813,52.35 870.838,52.999 871.05,53.575C871.131,53.796 871.251,53.995 871.436,54.109C871.76,54.322 872.194,54.466 872.683,54.604C873.119,54.727 873.605,54.819 874.121,54.907C875.067,55.07 876.114,55.188 877.176,55.226C879.568,55.313 881.993,55.08 883.223,54.382C883.369,54.287 883.469,54.101 883.54,53.897C883.668,53.525 883.696,53.105 883.695,52.947C883.692,52.923 883.715,52.902 883.744,52.901C883.774,52.899 883.8,52.916 883.802,52.94C883.834,53.103 883.889,53.542 883.827,53.942C883.784,54.218 883.674,54.469 883.493,54.625C883.49,54.628 883.486,54.63 883.482,54.633C882.582,55.299 880.916,55.794 879.038,56.044C877.997,56.182 876.897,56.248 875.835,56.212C874.881,56.179 873.954,56.076 873.148,55.874C872.092,55.609 871.244,55.191 870.698,54.704C870.439,54.448 870.276,54.078 870.265,53.671C870.248,53.009 870.496,52.316 870.496,52.316C870.508,52.247 870.589,52.199 870.676,52.208C870.764,52.217 870.825,52.281 870.813,52.35Z"/>
                </g>
                <g transform="matrix(-0.456303,0.000595276,0.00126573,0.341782,748.278,136.08)">
                    <path d="M870.813,52.35C870.813,52.35 870.838,52.999 871.05,53.575C871.131,53.796 871.251,53.995 871.436,54.109C871.76,54.322 872.194,54.466 872.683,54.604C873.119,54.727 873.605,54.819 874.121,54.907C875.067,55.07 876.114,55.188 877.176,55.226C879.568,55.313 881.993,55.08 883.223,54.382C883.369,54.287 883.469,54.101 883.54,53.897C883.668,53.525 883.696,53.105 883.695,52.947C883.692,52.923 883.715,52.902 883.744,52.901C883.774,52.899 883.8,52.916 883.802,52.94C883.834,53.103 883.889,53.542 883.827,53.942C883.784,54.218 883.674,54.469 883.493,54.625C883.49,54.628 883.486,54.63 883.482,54.633C882.582,55.299 880.916,55.794 879.038,56.044C877.997,56.182 876.897,56.248 875.835,56.212C874.881,56.179 873.954,56.076 873.148,55.874C872.092,55.609 871.244,55.191 870.698,54.704C870.439,54.448 870.276,54.078 870.265,53.671C870.248,53.009 870.496,52.316 870.496,52.316C870.508,52.247 870.589,52.199 870.676,52.208C870.764,52.217 870.825,52.281 870.813,52.35Z"/>
                </g>
                <g transform="matrix(-0.456303,0.000595276,0.00126573,0.341782,748.198,132.59)">
                    <path d="M870.813,52.35C870.813,52.35 870.838,52.999 871.05,53.575C871.131,53.796 871.251,53.995 871.436,54.109C871.76,54.322 872.194,54.466 872.683,54.604C873.119,54.727 873.605,54.819 874.121,54.907C875.067,55.07 876.114,55.188 877.176,55.226C879.568,55.313 881.993,55.08 883.223,54.382C883.369,54.287 883.469,54.101 883.54,53.897C883.668,53.525 883.696,53.105 883.695,52.947C883.692,52.923 883.715,52.902 883.744,52.901C883.774,52.899 883.8,52.916 883.802,52.94C883.834,53.103 883.889,53.542 883.827,53.942C883.784,54.218 883.674,54.469 883.493,54.625C883.49,54.628 883.486,54.63 883.482,54.633C882.582,55.299 880.916,55.794 879.038,56.044C877.997,56.182 876.897,56.248 875.835,56.212C874.881,56.179 873.954,56.076 873.148,55.874C872.092,55.609 871.244,55.191 870.698,54.704C870.439,54.448 870.276,54.078 870.265,53.671C870.248,53.009 870.496,52.316 870.496,52.316C870.508,52.247 870.589,52.199 870.676,52.208C870.764,52.217 870.825,52.281 870.813,52.35Z"/>
                </g>
                <g transform="matrix(-0.456303,0.000595276,0.00126573,0.341782,748.274,134.925)">
                    <path d="M870.813,52.35C870.813,52.35 870.838,52.999 871.05,53.575C871.131,53.796 871.251,53.995 871.436,54.109C871.76,54.322 872.194,54.466 872.683,54.604C873.119,54.727 873.605,54.819 874.121,54.907C875.067,55.07 876.114,55.188 877.176,55.226C879.568,55.313 881.993,55.08 883.223,54.382C883.369,54.287 883.469,54.101 883.54,53.897C883.668,53.525 883.696,53.105 883.695,52.947C883.692,52.923 883.715,52.902 883.744,52.901C883.774,52.899 883.8,52.916 883.802,52.94C883.834,53.103 883.889,53.542 883.827,53.942C883.784,54.218 883.674,54.469 883.493,54.625C883.49,54.628 883.486,54.63 883.482,54.633C882.582,55.299 880.916,55.794 879.038,56.044C877.997,56.182 876.897,56.248 875.835,56.212C874.881,56.179 873.954,56.076 873.148,55.874C872.092,55.609 871.244,55.191 870.698,54.704C870.439,54.448 870.276,54.078 870.265,53.671C870.248,53.009 870.496,52.316 870.496,52.316C870.508,52.247 870.589,52.199 870.676,52.208C870.764,52.217 870.825,52.281 870.813,52.35Z"/>
                </g>
                <g transform="matrix(-1.95439e-17,-0.189438,-0.522628,1.89937e-17,452.982,241.828)">
                    <path d="M478.307,176.17L455.826,176.34C455.75,176.341 455.677,176.352 455.608,176.369C455.54,176.387 455.479,176.414 455.426,176.447C455.374,176.479 455.335,176.518 455.308,176.56C455.281,176.601 455.268,176.645 455.269,176.691L455.354,182.363C455.354,182.401 455.368,182.438 455.392,182.473C455.416,182.507 455.452,182.538 455.496,182.565C455.54,182.591 455.592,182.611 455.648,182.625C455.704,182.639 455.765,182.646 455.826,182.645C455.826,182.645 459.125,182.632 459.125,182.632C459.37,182.632 459.57,182.754 459.57,182.904C459.57,183.054 459.37,183.176 459.125,183.176L455.826,183.162C455.653,183.161 455.483,183.14 455.326,183.1C455.17,183.06 455.026,183.001 454.904,182.926C454.783,182.851 454.688,182.763 454.624,182.667C454.561,182.571 454.526,182.468 454.528,182.363C454.528,182.363 454.612,176.691 454.612,176.691C454.614,176.593 454.646,176.496 454.709,176.408C454.77,176.32 454.859,176.238 454.974,176.17C455.088,176.102 455.221,176.048 455.367,176.013C455.511,175.978 455.667,175.958 455.826,175.96L478.307,176.133C478.324,176.133 478.337,176.142 478.337,176.152C478.337,176.162 478.324,176.17 478.307,176.17Z"/>
                </g>
                <g transform="matrix(-1.95439e-17,-0.189438,-0.522628,1.89937e-17,452.982,241.828)">
                    <path d="M507.184,179.524C506.235,178.955 504.378,177.843 502.545,176.734C501.037,175.821 499.545,174.91 498.573,174.315C498.573,174.315 498.53,175.609 498.53,175.609C498.522,175.858 498.358,176.083 498.086,176.243C497.817,176.401 497.453,176.501 497.05,176.496C497.05,176.496 479.673,176.263 479.673,176.263C479.574,176.263 479.494,176.214 479.494,176.153C479.494,176.093 479.574,176.044 479.673,176.044L497.049,175.804C497.135,175.803 497.209,175.776 497.264,175.741C497.317,175.707 497.341,175.66 497.339,175.609L497.264,173.344C497.264,173.18 497.425,173.031 497.672,172.967C497.92,172.903 498.206,172.935 498.4,173.049C498.4,173.049 501.019,174.527 503.652,176.033C505.934,177.338 508.222,178.666 508.869,179.038C508.869,179.038 508.869,179.038 508.869,179.038C508.979,179.102 509.062,179.178 509.121,179.261C509.18,179.344 509.21,179.434 509.211,179.526C509.212,179.619 509.18,179.709 509.123,179.792C509.067,179.876 508.981,179.952 508.873,180.016C508.873,180.016 498.549,186.125 498.549,186.125C498.294,186.276 497.916,186.319 497.59,186.234C497.263,186.149 497.051,185.954 497.051,185.737L497.062,183.444C497.062,183.444 497.049,183.434 497.049,183.434L487.859,183.411C487.4,183.411 487.028,183.184 487.028,182.904C487.028,182.624 487.4,182.396 487.859,182.396L497.049,182.373C497.534,182.373 497.972,182.493 498.291,182.686C498.61,182.88 498.806,183.148 498.807,183.444L498.812,184.468L507.184,179.524Z"/>
                </g>
                <g transform="matrix(0.175357,0.0166623,-0.0280736,0.104078,244.168,121.272)">
                    <path d="M662.75,160.73C667.062,161.211 670.484,163.254 672.84,166.239C675.067,169.059 676.237,172.76 676.099,176.864C676.076,180.818 674.307,184.3 671.66,186.861C670.329,188.149 668.773,189.213 667.039,189.955C665.352,190.676 663.517,191.138 661.581,191.183C657.557,191.315 653.863,189.819 651.127,187.276C648.301,184.649 646.439,180.979 646.273,176.823C646.077,172.521 647.307,168.68 649.671,165.792C652.133,162.785 655.76,160.805 660.227,160.35C660.276,160.347 660.313,160.306 660.311,160.257C660.308,160.208 660.267,160.171 660.218,160.174C655.498,160.202 651.523,161.97 648.653,164.876C645.719,167.846 643.985,172.012 643.766,176.823C643.566,181.814 645.463,186.393 648.617,189.786C651.854,193.267 656.46,195.418 661.581,195.586C664.128,195.645 666.584,195.193 668.829,194.305C671.16,193.383 673.275,191.997 675.008,190.247C678.425,186.795 680.424,181.992 680.185,176.782C679.819,171.821 677.987,167.459 674.883,164.407C671.829,161.405 667.67,159.634 662.786,159.794C662.528,159.784 662.31,159.985 662.3,160.243C662.29,160.502 662.491,160.719 662.75,160.73Z"/>
                </g>
                <g transform="matrix(0.392187,0,0,0.232771,32.9448,132.219)">
                    <path d="M820.877,80.79C821.195,80.782 821.472,80.728 821.706,80.646C822.255,80.454 822.626,80.145 822.835,79.754C823.1,79.261 823.169,78.665 823.04,78.077C822.941,77.624 822.769,77.197 822.585,76.851C822.42,76.54 822.268,76.315 822.19,76.204C822.168,76.173 822.154,76.152 822.146,76.142C822.105,76.086 822.075,76.116 822.053,76.167C822.062,76.053 822.003,76.044 821.952,76.069C821.881,76.103 821.852,76.188 821.887,76.258C821.887,76.258 822.078,77.02 822.091,77.854C822.097,78.292 822.027,78.731 821.771,79.051C821.632,79.224 821.4,79.291 821.07,79.332C820.841,79.361 820.573,79.367 820.253,79.344C819.983,79.324 819.681,79.301 819.342,79.241C819.059,79.172 818.765,79.303 818.626,79.559C818.487,79.815 818.538,80.133 818.751,80.333C818.751,80.333 819.928,81.277 821.136,82.201C822.35,83.13 823.569,84.019 823.569,84.019C823.58,84.029 823.597,84.029 823.607,84.018C823.617,84.008 823.617,83.991 823.606,83.981C823.606,83.981 822.643,82.818 821.642,81.664C821.382,81.364 821.121,81.066 820.877,80.79Z"/>
                </g>
                <g transform="matrix(0.411919,0,0,0.232771,16.7806,132.265)">
                    <path d="M819.191,76.488C819.191,76.488 820.176,76.493 821.291,76.432C822.761,76.352 824.442,76.172 824.442,76.172C824.533,76.172 824.606,76.095 824.606,76C824.606,75.905 824.533,75.828 824.442,75.828C824.442,75.828 822.761,75.648 821.291,75.568C820.176,75.507 819.191,75.512 819.191,75.512C818.934,75.512 818.726,75.731 818.726,76C818.726,76.269 818.934,76.488 819.191,76.488Z"/>
                </g>
                <g transform="matrix(0.352349,0,0,0.232771,65.761,132.693)">
                    <path d="M819.191,76.488C819.191,76.488 820.176,76.493 821.291,76.432C822.763,76.352 824.442,76.172 824.442,76.172C824.548,76.172 824.634,76.095 824.634,76C824.634,75.905 824.548,75.828 824.442,75.828C824.442,75.828 822.763,75.648 821.291,75.568C820.176,75.507 819.191,75.512 819.191,75.512C818.891,75.512 818.648,75.731 818.648,76C818.648,76.269 818.891,76.488 819.191,76.488Z"/>
                </g>
            </g>
        </g>
    </g>
</svg>
