<?xml version="1.0" encoding="UTF-8" standalone="no"?>
<!DOCTYPE svg PUBLIC "-//W3C//DTD SVG 1.1//EN" "http://www.w3.org/Graphics/SVG/1.1/DTD/svg11.dtd">
<svg width="100%" height="100%" viewBox="0 0 26 23" version="1.1" xmlns="http://www.w3.org/2000/svg" xmlns:xlink="http://www.w3.org/1999/xlink" xml:space="preserve" xmlns:serif="http://www.serif.com/" style="fill-rule:evenodd;clip-rule:evenodd;stroke-linejoin:round;stroke-miterlimit:2;">
    <g transform="matrix(1,0,0,1,-708,-701)">
        <g id="ic_budget_categories_fixed_expense" transform="matrix(0.889702,0,0,0.885925,80.8675,79.5501)">
            <rect x="705.927" y="701.695" width="27.087" height="25.648" style="fill:none;"/>
            <g transform="matrix(1.98895,0,0,1.60397,-139.193,473.034)">
                <g transform="matrix(-0.268737,-0.144291,-0.120928,0.349276,594.723,190.777)">
                    <path d="M560.301,95.391C565.305,95.141 569.918,96.899 573.358,99.895C576.918,102.996 579.135,107.441 579.359,112.405C579.455,115.926 578.509,119.248 576.763,122.073C575.987,123.328 575.043,124.479 573.971,125.503C570.477,128.839 565.618,130.85 560.301,130.798C557.155,130.736 554.089,129.89 551.394,128.451C548.664,126.994 546.305,124.962 544.617,122.618C544.151,122.005 544.293,121.145 544.933,120.699C545.572,120.254 546.469,120.389 546.935,121.002C548.466,122.919 550.557,124.535 552.927,125.669C555.19,126.751 557.722,127.367 560.301,127.316C564.576,127.274 568.394,125.534 571.203,122.852C572.914,121.219 574.264,119.24 575.079,117.006C575.607,115.558 575.95,114.02 576,112.405C576.191,108.172 574.576,104.28 571.817,101.371C568.943,98.342 564.9,96.346 560.301,96.117C560.092,96.117 559.922,95.954 559.922,95.754C559.922,95.553 560.092,95.391 560.301,95.391Z"/>
                </g>
                <g transform="matrix(-0.268737,-0.144291,-0.120928,0.349276,594.723,190.777)">
                    <path d="M541.911,114.875C541.852,114.377 541.825,113.992 541.823,113.601C541.822,113.23 541.84,112.854 541.875,112.364C541.941,111.437 542.089,110.416 542.292,109.425C542.505,108.388 542.773,107.384 543.062,106.561L544.759,107.058C544.536,107.831 544.343,108.768 544.2,109.734C544.065,110.652 543.982,111.594 543.969,112.447C543.962,112.88 543.964,113.212 543.983,113.538C544.002,113.86 544.045,114.174 544.116,114.581L541.911,114.875Z"/>
                </g>
                <g transform="matrix(-0.268737,-0.144291,-0.120928,0.349276,594.723,190.777)">
                    <path d="M545.616,102.308C547.09,100.356 549.112,98.696 551.529,97.522C553.714,96.461 556.21,95.79 558.892,95.656C558.973,95.649 559.045,95.707 559.053,95.785C559.06,95.863 558.999,95.932 558.917,95.939C556.334,96.242 553.965,97.045 551.927,98.213C549.755,99.457 547.976,101.119 546.736,103.029C546.528,103.325 546.109,103.404 545.8,103.205C545.491,103.006 545.408,102.605 545.616,102.308Z"/>
                </g>
                <g transform="matrix(-0.00284489,0.851055,-0.582021,-0.00415992,464.604,-271.197)">
                    <path d="M491.333,59.998C491.333,59.998 491.33,58.498 491.271,56.798C491.193,54.566 491.03,51.999 491.03,51.999C491.029,51.906 490.964,51.83 490.885,51.831C490.805,51.831 490.741,51.907 490.742,52.001C490.742,52.001 490.603,54.569 490.547,56.802C490.505,58.502 490.516,60.002 490.516,60.002C490.517,60.267 490.701,60.481 490.927,60.48C491.153,60.479 491.335,60.263 491.333,59.998Z"/>
                </g>
                <g transform="matrix(-0.00169025,0.505641,-0.345799,-0.00247155,451.136,-99.7157)">
                    <path d="M491.612,59.997C491.612,59.997 491.612,58.496 491.518,56.797C491.394,54.556 491.128,51.999 491.128,51.999C491.127,51.842 491.018,51.715 490.884,51.715C490.75,51.716 490.642,51.844 490.643,52.001C490.643,52.001 490.402,54.561 490.3,56.803C490.223,58.502 490.237,60.003 490.237,60.003C490.239,60.449 490.549,60.809 490.929,60.808C491.308,60.806 491.615,60.442 491.612,59.997Z"/>
                </g>
                <g transform="matrix(0.662563,0,0,0.825094,-30.0656,38.1411)">
                    <path d="M694.832,131.246C694.829,131.227 694.828,131.212 694.821,131.214C694.787,131.224 694.803,131.236 694.832,131.246C694.834,131.254 694.835,131.262 694.837,131.27C694.866,131.369 694.915,131.566 694.988,131.837C695.094,132.229 695.212,132.743 695.307,133.278C695.365,133.606 695.402,133.933 695.404,134.231C695.405,134.463 695.391,134.67 695.269,134.807C695.165,134.926 694.986,134.953 694.717,134.943C694.333,134.929 693.836,134.837 693.197,134.617C692.996,134.536 692.766,134.592 692.627,134.758C692.487,134.923 692.469,135.159 692.582,135.343C693.077,136.036 693.637,136.732 694.202,137.368C695.577,138.917 696.901,140.106 696.901,140.106C696.91,140.115 696.924,140.115 696.934,140.107C696.943,140.098 696.943,140.083 696.935,140.074C696.935,140.074 696.061,138.967 695.069,137.5C694.755,137.035 694.43,136.537 694.12,136.027C694.459,136.113 694.747,136.149 694.991,136.145C695.562,136.135 695.949,135.919 696.205,135.626C696.428,135.37 696.565,135.034 696.588,134.645C696.609,134.277 696.549,133.854 696.408,133.432C696.291,133.081 696.139,132.733 695.962,132.415C695.784,132.095 695.6,131.821 695.436,131.596C695.271,131.37 695.141,131.217 695.076,131.139C695.056,131.116 695.044,131.102 695.038,131.094C694.999,131.051 694.973,131.073 694.957,131.114C694.959,131.023 694.909,131.019 694.867,131.042C694.808,131.075 694.787,131.149 694.82,131.208L694.926,131.271C694.926,131.271 694.869,131.26 694.832,131.246Z"/>
                </g>
                <g transform="matrix(0.496541,0,0,0.473833,94.436,84.5542)">
                    <path d="M691.944,143.34L683.977,142.717C683.513,142.682 683.093,142.928 682.771,143.302C682.44,143.688 682.248,144.252 682.221,144.876C682.221,144.876 681.898,153.179 681.898,153.179C681.873,153.935 682.116,154.617 682.479,155.133C682.85,155.659 683.387,155.959 683.977,155.989C683.977,155.989 683.977,155.989 683.977,155.989C685.009,156.027 686.59,156.123 688.074,156.139C689.105,156.151 690.088,156.111 690.806,156.101C690.806,156.101 690.806,156.101 690.806,156.101C691.101,156.084 691.392,156.015 691.655,155.855C691.916,155.695 692.163,155.491 692.36,155.208C692.553,154.924 692.719,154.615 692.812,154.263C692.904,153.916 692.968,153.552 692.95,153.179C692.869,152.026 692.781,150.383 692.642,148.824C692.437,146.517 692.174,144.47 692.174,144.47C692.174,144.304 692.071,144.169 691.944,144.169C691.817,144.169 691.713,144.304 691.713,144.47C691.713,144.47 691.451,146.517 691.245,148.824C691.107,150.383 691.019,152.026 690.937,153.179L690.86,153.25L690.806,153.227C690.088,153.217 689.105,153.177 688.074,153.188C686.59,153.205 685.009,153.301 683.977,153.339C683.937,153.341 683.893,153.358 683.865,153.325C683.831,153.283 683.782,153.245 683.78,153.179C683.78,153.179 683.457,144.876 683.457,144.876C683.449,144.678 683.48,144.486 683.574,144.349C683.676,144.199 683.812,144.077 683.977,144.064C683.977,144.064 691.944,143.441 691.944,143.441C691.965,143.441 691.982,143.418 691.982,143.391C691.982,143.363 691.965,143.34 691.944,143.34Z"/>
                </g>
                <g transform="matrix(0.565107,0,0,0.573462,-3.30821,65.0963)">
                    <path d="M774.053,152.41L774.233,150.682C774.27,150.238 774.392,149.839 774.549,149.466C774.705,149.096 774.919,148.779 775.165,148.502C775.405,148.232 775.684,148.018 775.988,147.86C776.283,147.707 776.599,147.594 776.939,147.579L776.941,147.579C777.662,147.522 778.33,147.82 778.836,148.357C779.375,148.929 779.747,149.735 779.809,150.675C779.809,150.675 779.933,152.41 779.933,152.41C779.933,152.422 779.941,152.432 779.951,152.432C779.962,152.432 779.97,152.422 779.97,152.409L780.083,150.674C780.149,149.579 779.833,148.566 779.286,147.801C778.713,146.999 777.874,146.51 776.938,146.444C776.938,146.444 776.935,146.444 776.935,146.444C776.466,146.428 776.012,146.521 775.603,146.728C775.178,146.942 774.798,147.27 774.493,147.68C774.192,148.085 773.953,148.562 773.816,149.093C773.686,149.593 773.633,150.126 773.679,150.681C773.679,150.681 773.857,152.409 773.857,152.409C773.857,152.476 773.901,152.53 773.955,152.53C774.009,152.53 774.053,152.476 774.053,152.41Z"/>
                </g>
                <g transform="matrix(0.565107,0,0,0.703731,-3.30821,45.242)">
                    <path d="M781.101,152.409L781.442,149.775C781.516,148.934 781.33,148.137 780.967,147.438C780.803,147.123 780.591,146.838 780.351,146.579C779.949,146.146 779.452,145.798 778.896,145.571C778.361,145.352 777.768,145.253 777.154,145.272L776.754,145.294C775.541,145.37 774.457,145.888 773.719,146.74C773.015,147.551 772.607,148.62 772.699,149.775C772.699,149.775 772.927,152.409 772.927,152.409C772.927,152.425 772.939,152.437 772.954,152.437C772.97,152.437 772.982,152.425 772.982,152.409L773.21,149.775C773.285,148.826 773.749,148.015 774.416,147.437C775.04,146.896 775.865,146.601 776.754,146.657C776.754,146.657 777.154,146.679 777.154,146.679C777.571,146.692 777.96,146.804 778.322,146.956C778.696,147.114 779.038,147.327 779.332,147.598C779.694,147.931 779.999,148.323 780.193,148.788C780.323,149.099 780.432,149.422 780.467,149.775C780.467,149.775 780.807,152.409 780.807,152.409C780.807,152.491 780.873,152.557 780.954,152.557C781.036,152.557 781.101,152.491 781.101,152.409Z"/>
                </g>
                <g transform="matrix(0.305282,0,0,0.351866,215.454,96.6144)">
                    <ellipse cx="721.63" cy="166" rx="1.851" ry="2"/>
                </g>
                <g transform="matrix(0.305282,0,0,0.351866,215.454,96.6144)">
                    <path d="M721.63,164C722.652,164 723.481,164.896 723.481,166C723.481,167.104 722.652,168 721.63,168C720.608,168 719.779,167.104 719.779,166C719.779,164.896 720.608,164 721.63,164ZM721.56,166.039L721.551,166.046L721.516,166.062C721.466,166.094 721.42,166.136 721.424,166.09C721.435,165.953 721.025,166.132 721.082,166C721.111,165.918 720.896,165.894 720.935,165.821C720.998,165.702 720.923,165.537 720.932,165.411C720.894,165.261 720.865,165.122 720.94,164.972C721.124,164.603 721.255,164.31 721.63,164.111L721.63,164.589C721.894,164.813 721.761,165.049 721.912,165.348C721.962,165.445 721.847,165.518 721.883,165.621C721.95,165.82 721.78,166.031 721.584,166.033L721.56,166.039ZM720.932,165.411C720.935,165.367 720.948,165.328 720.98,165.298C721.085,165.197 721.237,165.191 721.365,165.121C721.45,165.074 721.532,165.256 721.63,165.23C721.783,165.178 721.69,165.607 721.836,165.642C721.898,165.656 721.733,165.799 721.791,165.826C721.881,165.87 721.652,165.944 721.581,166.021L721.56,166.039C721.545,166.044 721.53,166.052 721.516,166.062C721.492,166.07 721.468,166.068 721.453,166.047C721.412,165.987 721.292,166.072 721.263,166C721.205,165.861 720.999,165.872 720.992,165.728C720.986,165.614 720.957,165.51 720.932,165.411Z" style="fill:none;"/>
                </g>
                <g transform="matrix(0.565107,0,0,0.839219,14.0384,21.6802)">
                    <rect x="745.906" y="159.062" width="0.704" height="2.034"/>
                </g>
                <g transform="matrix(0.565107,0,0,0.839219,14.0384,21.6802)">
                    <rect x="745.906" y="159.062" width="0.704" height="2.034" style="fill:none;"/>
                </g>
            </g>
        </g>
    </g>
</svg>
