<?xml version="1.0" encoding="UTF-8" standalone="no"?>
<!DOCTYPE svg PUBLIC "-//W3C//DTD SVG 1.1//EN" "http://www.w3.org/Graphics/SVG/1.1/DTD/svg11.dtd">
<svg width="100%" height="100%" viewBox="0 0 29 22" version="1.1" xmlns="http://www.w3.org/2000/svg" xmlns:xlink="http://www.w3.org/1999/xlink" xml:space="preserve" xmlns:serif="http://www.serif.com/" style="fill-rule:evenodd;clip-rule:evenodd;stroke-linejoin:round;stroke-miterlimit:2;">
    <g transform="matrix(1,0,0,1,-744,-701)">
        <g id="ic_budget_categories_variable_expense" transform="matrix(0.900462,0,0,0.863856,76.8574,93.558)">
            <rect x="741.928" y="703.405" width="30.081" height="25.066" style="fill:none;"/>
            <g transform="matrix(1.96519,0,0,1.64495,-53.5912,469.018)">
                <g transform="matrix(0.175158,8.10974e-17,-4.93906e-17,0.381188,271.055,122.015)">
                    <path d="M820.973,71.478C821.771,72.161 822.692,72.921 823.678,73.703C827.632,76.836 832.273,80.223 832.273,80.223C832.488,80.438 832.968,80.513 833.344,80.39C833.72,80.267 833.851,79.992 833.636,79.777C833.636,79.777 830.884,75.771 828.167,72.233C827.335,71.15 826.501,70.132 825.771,69.284C825.017,68.405 824.361,67.729 824.03,67.365C823.724,67.046 823.261,66.796 822.734,66.616C822.206,66.436 821.59,66.344 820.954,66.341C820.318,66.346 819.703,66.436 819.175,66.616C818.648,66.796 818.187,67.047 817.878,67.364C817.435,67.856 816.416,68.915 815.277,70.247C814.754,70.858 814.213,71.52 813.684,72.214C810.98,75.761 808.273,79.777 808.273,79.777C808.058,79.992 808.188,80.267 808.564,80.39C808.94,80.513 809.421,80.438 809.636,80.223C809.636,80.223 814.315,76.853 818.289,73.722C819.067,73.109 819.79,72.507 820.446,71.939C820.628,71.782 820.804,71.628 820.973,71.478Z"/>
                </g>
                <g transform="matrix(0.175158,-8.10974e-17,-4.93906e-17,-0.381188,274.069,183.005)">
                    <path d="M820.973,71.478C820.804,71.628 820.628,71.782 820.446,71.939C819.79,72.507 819.067,73.109 818.289,73.722C814.315,76.853 809.636,80.223 809.636,80.223C809.421,80.438 808.94,80.513 808.564,80.39C808.188,80.267 808.058,79.992 808.273,79.777C808.273,79.777 810.98,75.761 813.684,72.214C814.213,71.52 814.754,70.858 815.277,70.247C816.416,68.915 817.435,67.856 817.878,67.364C818.187,67.047 818.648,66.796 819.175,66.616C819.703,66.436 820.318,66.346 820.954,66.341C821.59,66.344 822.206,66.436 822.734,66.616C823.261,66.796 823.724,67.046 824.03,67.365C824.361,67.729 825.017,68.405 825.771,69.284C826.501,70.132 827.335,71.15 828.167,72.233C830.884,75.771 833.636,79.777 833.636,79.777C833.851,79.992 833.72,80.267 833.344,80.39C832.968,80.513 832.488,80.438 832.273,80.223C832.273,80.223 827.632,76.836 823.678,73.703C822.692,72.921 821.771,72.161 820.973,71.478Z"/>
                </g>
                <g transform="matrix(0.175158,-8.10974e-17,-4.93906e-17,-0.381188,271.055,184.53)">
                    <path d="M823.139,72C823.139,72 823.161,75.375 822.888,79.2C822.53,84.227 821.725,90 821.725,90C821.725,90.243 821.379,90.441 820.954,90.441C820.529,90.441 820.184,90.243 820.184,90C820.184,90 819.379,84.227 819.021,79.2C818.748,75.375 818.77,72 818.77,72C818.77,71.31 819.749,70.75 820.954,70.75C822.16,70.75 823.139,71.31 823.139,72Z"/>
                </g>
                <g transform="matrix(0.175158,8.10974e-17,-4.93906e-17,0.381188,274.069,120.491)">
                    <path d="M818.77,72C818.77,72 818.748,75.375 819.021,79.2C819.379,84.227 820.184,90 820.184,90C820.184,90.243 820.529,90.441 820.954,90.441C821.379,90.441 821.725,90.243 821.725,90C821.725,90 822.53,84.227 822.888,79.2C823.161,75.375 823.139,72 823.139,72C823.139,71.31 822.16,70.75 820.954,70.75C819.749,70.75 818.77,71.31 818.77,72Z"/>
                </g>
                <g transform="matrix(-0.268737,-0.144291,-0.120928,0.349276,574.62,190.699)">
                    <path d="M560.301,95.391C565.308,95.134 569.928,96.885 573.372,99.881C576.937,102.983 579.153,107.436 579.375,112.405C579.463,115.927 578.511,119.248 576.759,122.071C575.981,123.323 575.036,124.473 573.962,125.495C570.466,128.819 565.61,130.821 560.301,130.758C560.291,130.758 560.281,130.758 560.271,130.758C556.294,130.603 552.63,129.419 549.64,127.413C546.558,125.347 544.173,122.449 542.888,119C542.641,118.393 542.955,117.709 543.588,117.473C544.221,117.237 544.935,117.538 545.181,118.144C546.445,121.01 548.614,123.351 551.324,124.973C553.91,126.521 557.008,127.378 560.331,127.356C564.584,127.305 568.404,125.553 571.212,122.86C572.919,121.223 574.262,119.24 575.073,117.004C575.597,115.557 575.936,114.019 575.984,112.405C576.173,108.177 574.557,104.292 571.802,101.385C568.932,98.356 564.898,96.353 560.301,96.117C560.092,96.117 559.922,95.954 559.922,95.754C559.922,95.553 560.092,95.391 560.301,95.391Z"/>
                </g>
                <g transform="matrix(-0.268737,-0.144291,-0.120928,0.349276,574.62,190.699)">
                    <path d="M546.894,100.951C548.427,99.449 550.287,98.228 552.463,97.318C554.369,96.522 556.511,95.961 558.88,95.657C558.961,95.644 559.038,95.697 559.051,95.774C559.065,95.851 559.01,95.925 558.929,95.938C556.638,96.381 554.584,97.057 552.777,97.951C550.783,98.939 549.103,100.197 547.753,101.705C547.536,101.932 547.167,101.948 546.93,101.74C546.692,101.531 546.676,101.178 546.894,100.951Z"/>
                </g>
                <g transform="matrix(0.729728,0,0,0.729728,72.8405,44.98)">
                    <g transform="matrix(-0.00389856,1.16626,-0.797585,-0.00570064,509.355,-433.352)">
                        <path d="M491.333,59.998C491.333,59.998 491.33,58.498 491.271,56.798C491.193,54.566 491.03,51.999 491.03,51.999C491.029,51.906 490.964,51.83 490.885,51.831C490.805,51.831 490.741,51.907 490.742,52.001C490.742,52.001 490.603,54.569 490.547,56.802C490.505,58.502 490.516,60.002 490.516,60.002C490.517,60.267 490.701,60.481 490.927,60.48C491.153,60.479 491.335,60.263 491.333,59.998Z"/>
                    </g>
                    <g transform="matrix(-0.00231627,0.692917,-0.473873,-0.00338695,490.899,-198.359)">
                        <path d="M491.612,59.997C491.612,59.997 491.612,58.496 491.518,56.797C491.394,54.556 491.128,51.999 491.128,51.999C491.127,51.842 491.018,51.715 490.884,51.715C490.75,51.716 490.642,51.844 490.643,52.001C490.643,52.001 490.402,54.561 490.3,56.803C490.223,58.502 490.237,60.003 490.237,60.003C490.239,60.449 490.549,60.809 490.929,60.808C491.308,60.806 491.615,60.442 491.612,59.997Z"/>
                    </g>
                    <g transform="matrix(0.907958,0,0,1.13069,-168.527,-9.44334)">
                        <path d="M694.832,131.246C694.829,131.227 694.828,131.212 694.821,131.214C694.787,131.224 694.803,131.236 694.832,131.246C694.834,131.254 694.835,131.262 694.837,131.27C694.866,131.369 694.915,131.566 694.988,131.837C695.094,132.229 695.212,132.743 695.307,133.278C695.365,133.606 695.402,133.933 695.404,134.231C695.405,134.463 695.391,134.67 695.269,134.807C695.165,134.926 694.986,134.953 694.717,134.943C694.333,134.929 693.836,134.837 693.197,134.617C692.996,134.536 692.766,134.592 692.627,134.758C692.487,134.923 692.469,135.159 692.582,135.343C693.077,136.036 693.637,136.732 694.202,137.368C695.577,138.917 696.901,140.106 696.901,140.106C696.91,140.115 696.924,140.115 696.934,140.107C696.943,140.098 696.943,140.083 696.935,140.074C696.935,140.074 696.061,138.967 695.069,137.5C694.755,137.035 694.43,136.537 694.12,136.027C694.459,136.113 694.747,136.149 694.991,136.145C695.562,136.135 695.949,135.919 696.205,135.626C696.428,135.37 696.565,135.034 696.588,134.645C696.609,134.277 696.549,133.854 696.408,133.432C696.291,133.081 696.139,132.733 695.962,132.415C695.784,132.095 695.6,131.821 695.436,131.596C695.271,131.37 695.141,131.217 695.076,131.139C695.056,131.116 695.044,131.102 695.038,131.094C694.999,131.051 694.973,131.073 694.957,131.114C694.959,131.023 694.909,131.019 694.867,131.042C694.808,131.075 694.787,131.149 694.82,131.208L694.926,131.271C694.926,131.271 694.869,131.26 694.832,131.246Z"/>
                    </g>
                </g>
            </g>
        </g>
    </g>
</svg>
