<?xml version="1.0" encoding="UTF-8" standalone="no"?>
<!DOCTYPE svg PUBLIC "-//W3C//DTD SVG 1.1//EN" "http://www.w3.org/Graphics/SVG/1.1/DTD/svg11.dtd">
<svg width="100%" height="100%" viewBox="0 0 32 31" version="1.1" xmlns="http://www.w3.org/2000/svg" xmlns:xlink="http://www.w3.org/1999/xlink" xml:space="preserve" xmlns:serif="http://www.serif.com/" style="fill-rule:evenodd;clip-rule:evenodd;stroke-linejoin:round;stroke-miterlimit:2;">
    <g transform="matrix(1,0,0,1,-600,-1736)">
        <g id="ic_budget_distribute_savings" transform="matrix(0.943686,0,0,0.936708,34.5948,109.533)">
            <rect x="599.484" y="1736.54" width="33.551" height="32.565" style="fill:none;"/>
            <g transform="matrix(1.87518,0,0,3.18294,-55.4929,1336.98)">
                <g transform="matrix(-0.0627277,-0.150056,0.263865,-0.0388562,363.692,219.211)">
                    <path d="M560.301,96.162C564.871,96.433 568.85,98.466 571.689,101.494C574.398,104.383 575.991,108.223 575.794,112.405C575.707,116.466 573.848,120.057 571.057,122.711C568.276,125.356 564.524,127.1 560.301,127.152C556.013,127.266 551.996,125.721 549.041,123.121C545.995,120.441 544.032,116.687 544.067,112.451C544.081,108.261 545.406,104.658 547.83,101.873C550.291,99.045 553.835,97.053 558.234,96.113C558.325,96.097 558.385,96.014 558.368,95.927C558.352,95.84 558.265,95.783 558.174,95.798C553.503,96.427 549.648,98.258 546.839,101.017C543.921,103.882 542.161,107.749 541.777,112.36C541.383,117.359 543.399,121.948 546.793,125.326C550.204,128.719 555.045,130.822 560.301,130.962C565.67,131.028 570.608,129.031 574.117,125.644C577.618,122.265 579.675,117.537 579.566,112.405C579.33,107.389 577.102,102.886 573.485,99.772C570.003,96.774 565.338,95.047 560.301,95.346C560.066,95.346 559.875,95.529 559.875,95.754C559.875,95.979 560.066,96.162 560.301,96.162Z"/>
                </g>
                <g transform="matrix(0.0426898,0.105261,-0.185095,0.0264439,355.126,68.8342)">
                    <path d="M560.301,96.045C564.934,96.24 569.023,98.222 571.947,101.246C574.779,104.173 576.481,108.105 576.336,112.405C576.271,116.619 574.388,120.375 571.495,123.131C568.609,125.88 564.687,127.656 560.301,127.693C555.877,127.776 551.747,126.139 548.724,123.431C545.628,120.657 543.669,116.78 543.749,112.438C543.816,107.978 545.059,104.248 547.5,101.417C549.935,98.593 553.532,96.662 558.29,95.764C558.354,95.753 558.398,95.694 558.387,95.632C558.377,95.57 558.315,95.528 558.25,95.539C553.28,96.199 549.46,98.026 546.774,100.81C543.992,103.695 542.436,107.611 542.095,112.372C541.76,117.264 543.76,121.741 547.11,125.015C550.461,128.291 555.183,130.325 560.301,130.421C565.506,130.465 570.275,128.506 573.679,125.224C577.077,121.949 579.1,117.383 579.023,112.405C578.859,107.511 576.704,103.108 573.227,100.02C569.844,97.017 565.267,95.253 560.301,95.463C560.133,95.463 559.997,95.593 559.997,95.754C559.997,95.914 560.133,96.045 560.301,96.045Z"/>
                </g>
                <g transform="matrix(-0.00189964,0.270846,-0.388636,-0.00132388,380.918,-3.12032)">
                    <path d="M491.344,59.998C491.344,59.998 491.341,58.498 491.28,56.798C491.201,54.566 491.033,51.999 491.033,51.999C491.033,51.903 490.966,51.826 490.885,51.826C490.803,51.827 490.737,51.905 490.738,52.001C490.738,52.001 490.596,54.569 490.538,56.802C490.494,58.502 490.505,60.002 490.505,60.002C490.507,60.274 490.696,60.493 490.927,60.492C491.158,60.491 491.345,60.27 491.344,59.998Z"/>
                </g>
                <g transform="matrix(-0.00112864,0.160919,-0.230902,-0.000786565,371.925,51.4533)">
                    <path d="M491.63,59.997C491.63,59.997 491.63,58.495 491.534,56.797C491.407,54.555 491.134,51.999 491.134,51.999C491.134,51.838 491.021,51.707 490.884,51.708C490.747,51.709 490.636,51.84 490.637,52.001C490.637,52.001 490.389,54.56 490.284,56.803C490.205,58.502 490.219,60.003 490.219,60.003C490.221,60.461 490.539,60.831 490.929,60.829C491.318,60.827 491.633,60.454 491.63,59.997Z"/>
                </g>
                <g transform="matrix(0.442417,0,0,0.262584,50.6094,95.3259)">
                    <path d="M694.829,131.249C694.826,131.229 694.825,131.214 694.818,131.216C694.783,131.226 694.8,131.238 694.829,131.249C694.831,131.256 694.832,131.264 694.834,131.272C694.863,131.371 694.91,131.568 694.982,131.84C695.086,132.232 695.202,132.747 695.295,133.282C695.352,133.609 695.388,133.934 695.389,134.232C695.389,134.46 695.376,134.662 695.257,134.797C695.155,134.912 694.98,134.937 694.718,134.927C694.336,134.913 693.84,134.823 693.202,134.605C692.996,134.522 692.76,134.58 692.617,134.749C692.473,134.919 692.455,135.161 692.571,135.35C693.067,136.042 693.629,136.738 694.195,137.373C695.574,138.921 696.901,140.106 696.901,140.106C696.91,140.115 696.925,140.116 696.934,140.107C696.944,140.098 696.944,140.083 696.935,140.074C696.935,140.074 696.064,138.965 695.075,137.495C694.767,137.039 694.449,136.55 694.146,136.048C694.474,136.131 694.754,136.164 694.992,136.16C695.569,136.152 695.959,135.932 696.217,135.637C696.442,135.378 696.581,135.039 696.603,134.647C696.625,134.277 696.564,133.852 696.421,133.428C696.304,133.078 696.151,132.729 695.972,132.411C695.792,132.092 695.607,131.817 695.442,131.593C695.276,131.368 695.145,131.215 695.079,131.137C695.059,131.115 695.047,131.1 695.04,131.093C695.001,131.049 694.975,131.07 694.958,131.112C694.959,131.019 694.908,131.015 694.865,131.039C694.805,131.073 694.783,131.149 694.817,131.21L694.926,131.274C694.926,131.274 694.867,131.263 694.829,131.249Z"/>
                </g>
                <g transform="matrix(-0.00138107,0.555849,-0.282547,-0.00271696,380.374,-141.947)">
                    <path d="M491.129,59.999C491.129,59.999 491.124,58.498 491.09,56.799C491.045,54.562 490.958,52 490.958,52C490.957,51.868 490.924,51.761 490.884,51.761C490.845,51.761 490.813,51.869 490.814,52C490.814,52 490.751,54.563 490.728,56.801C490.711,58.5 490.72,60.001 490.72,60.001C490.722,60.375 490.815,60.678 490.928,60.677C491.041,60.677 491.131,60.373 491.129,59.999Z"/>
                </g>
                <g transform="matrix(0.936527,0.000819697,-0.0045777,0.167697,-101.251,117.615)">
                    <path d="M491.129,59.999C491.129,59.999 491.124,58.498 491.09,56.799C491.045,54.562 490.958,52 490.958,52C490.957,51.868 490.924,51.761 490.884,51.761C490.845,51.761 490.813,51.869 490.814,52C490.814,52 490.751,54.563 490.728,56.801C490.711,58.5 490.72,60.001 490.72,60.001C490.722,60.375 490.815,60.678 490.928,60.677C491.041,60.677 491.131,60.373 491.129,59.999Z"/>
                </g>
                <g transform="matrix(0.660908,0.393826,-0.272514,0.1579,53.6134,-74.1257)">
                    <path d="M491.129,59.999C491.129,59.999 491.124,58.499 491.09,56.799C491.045,54.566 490.958,52 490.958,52C490.957,51.902 490.924,51.823 490.885,51.823C490.845,51.823 490.813,51.903 490.814,52C490.814,52 490.751,54.568 490.728,56.801C490.711,58.501 490.72,60.001 490.72,60.001C490.722,60.278 490.814,60.503 490.927,60.502C491.04,60.502 491.13,60.276 491.129,59.999Z"/>
                </g>
                <g transform="matrix(0.660908,-0.393826,-0.272514,-0.1579,53.6134,335.465)">
                    <path d="M490.72,60.001C490.72,60.001 490.711,58.501 490.728,56.801C490.751,54.568 490.814,52 490.814,52C490.813,51.903 490.845,51.823 490.885,51.823C490.924,51.823 490.957,51.902 490.958,52C490.958,52 491.045,54.566 491.09,56.799C491.124,58.499 491.129,59.999 491.129,59.999C491.13,60.276 491.04,60.502 490.927,60.502C490.814,60.503 490.722,60.278 490.72,60.001Z"/>
                </g>
                <g transform="matrix(-0.660908,0.393826,0.272514,0.1579,662.861,-74.0871)">
                    <path d="M490.72,60.001C490.72,60.001 490.711,58.501 490.728,56.801C490.751,54.568 490.814,52 490.814,52C490.813,51.903 490.845,51.823 490.885,51.823C490.924,51.823 490.957,51.902 490.958,52C490.958,52 491.045,54.566 491.09,56.799C491.124,58.499 491.129,59.999 491.129,59.999C491.13,60.276 491.04,60.502 490.927,60.502C490.814,60.503 490.722,60.278 490.72,60.001Z"/>
                </g>
                <g transform="matrix(-0.66089,-0.393837,0.27624,-0.160112,662.658,335.546)">
                    <path d="M491.129,59.999C491.129,59.999 491.124,58.499 491.09,56.799C491.045,54.567 490.958,52 490.958,52C490.957,51.903 490.924,51.825 490.885,51.825C490.845,51.825 490.813,51.904 490.814,52C490.814,52 490.751,54.568 490.728,56.801C490.711,58.501 490.72,60.001 490.72,60.001C490.722,60.275 490.814,60.496 490.927,60.496C491.04,60.495 491.13,60.273 491.129,59.999Z"/>
                </g>
                <g transform="matrix(0.936527,-0.000819697,-0.00417341,-0.152887,-101.308,143.011)">
                    <path d="M490.72,60.001C490.72,60.001 490.711,58.5 490.728,56.801C490.751,54.563 490.814,52 490.814,52C490.813,51.869 490.845,51.761 490.884,51.761C490.924,51.761 490.957,51.868 490.958,52C490.958,52 491.045,54.562 491.09,56.799C491.124,58.498 491.129,59.999 491.129,59.999C491.131,60.373 491.041,60.677 490.928,60.677C490.815,60.678 490.722,60.375 490.72,60.001Z"/>
                </g>
                <g transform="matrix(0.00130558,0.555849,0.267102,-0.00271696,336.887,-141.955)">
                    <path d="M490.72,60.001C490.72,60.001 490.711,58.5 490.728,56.801C490.751,54.562 490.814,52 490.814,52C490.813,51.861 490.845,51.748 490.884,51.747C490.924,51.747 490.957,51.86 490.958,52C490.958,52 491.045,54.561 491.09,56.799C491.124,58.498 491.129,59.999 491.129,59.999C491.131,60.394 491.041,60.716 490.928,60.716C490.815,60.717 490.722,60.396 490.72,60.001Z"/>
                </g>
                <g transform="matrix(-0.0372913,-0.0186594,0.0328115,-0.0230998,383.057,143.812)">
                    <path d="M560.301,96.298C564.801,96.652 568.649,98.746 571.393,101.777C573.966,104.62 575.425,108.357 575.171,112.405C575.058,116.289 573.22,119.687 570.545,122.221C567.886,124.739 564.331,126.439 560.301,126.502C556.178,126.645 552.299,125.211 549.432,122.737C546.455,120.169 544.491,116.571 544.479,112.467C544.439,108.125 545.695,104.504 548.168,101.733C550.659,98.942 554.291,97 558.941,96.008C559.063,95.989 559.145,95.878 559.124,95.762C559.104,95.646 558.989,95.568 558.868,95.587C553.842,96.135 549.803,97.852 546.853,100.538C543.699,103.41 541.841,107.399 541.365,112.343C540.903,117.479 542.948,122.205 546.402,125.709C549.887,129.245 554.878,131.423 560.301,131.612C565.864,131.699 571.001,129.651 574.629,126.134C578.245,122.63 580.342,117.715 580.188,112.405C579.865,107.249 577.56,102.629 573.781,99.489C570.181,96.497 565.422,94.806 560.301,95.209C559.987,95.209 559.732,95.453 559.732,95.754C559.732,96.054 559.987,96.298 560.301,96.298Z"/>
                </g>
                <g transform="matrix(-0.0372913,-0.0186594,0.0328115,-0.0230998,367.626,143.812)">
                    <path d="M560.301,96.298C564.801,96.652 568.649,98.746 571.393,101.777C573.966,104.62 575.425,108.357 575.171,112.405C575.058,116.289 573.22,119.687 570.545,122.221C567.886,124.739 564.331,126.439 560.301,126.502C556.178,126.645 552.299,125.211 549.432,122.737C546.455,120.169 544.491,116.571 544.479,112.467C544.439,108.125 545.695,104.504 548.168,101.733C550.659,98.942 554.291,97 558.941,96.008C559.063,95.989 559.145,95.878 559.124,95.762C559.104,95.646 558.989,95.568 558.868,95.587C553.842,96.135 549.803,97.852 546.853,100.538C543.699,103.41 541.841,107.399 541.365,112.343C540.903,117.479 542.948,122.205 546.402,125.709C549.887,129.245 554.878,131.423 560.301,131.612C565.864,131.699 571.001,129.651 574.629,126.134C578.245,122.63 580.342,117.715 580.188,112.405C579.865,107.249 577.56,102.629 573.781,99.489C570.181,96.497 565.422,94.806 560.301,95.209C559.987,95.209 559.732,95.453 559.732,95.754C559.732,96.054 559.987,96.298 560.301,96.298Z"/>
                </g>
                <g transform="matrix(-0.0372913,-0.0186594,0.0328115,-0.0230998,375.442,139.253)">
                    <path d="M560.301,96.298C564.801,96.652 568.649,98.746 571.393,101.777C573.966,104.62 575.425,108.357 575.171,112.405C575.058,116.289 573.22,119.687 570.545,122.221C567.886,124.739 564.331,126.439 560.301,126.502C556.178,126.645 552.299,125.211 549.432,122.737C546.455,120.169 544.491,116.571 544.479,112.467C544.439,108.125 545.695,104.504 548.168,101.733C550.659,98.942 554.291,97 558.941,96.008C559.063,95.989 559.145,95.878 559.124,95.762C559.104,95.646 558.989,95.568 558.868,95.587C553.842,96.135 549.803,97.852 546.853,100.538C543.699,103.41 541.841,107.399 541.365,112.343C540.903,117.479 542.948,122.205 546.402,125.709C549.887,129.245 554.878,131.423 560.301,131.612C565.864,131.699 571.001,129.651 574.629,126.134C578.245,122.63 580.342,117.715 580.188,112.405C579.865,107.249 577.56,102.629 573.781,99.489C570.181,96.497 565.422,94.806 560.301,95.209C559.987,95.209 559.732,95.453 559.732,95.754C559.732,96.054 559.987,96.298 560.301,96.298Z"/>
                </g>
                <g transform="matrix(0.0892764,-0.0232775,0.0409322,0.0553017,310.591,133.437)">
                    <path d="M560.301,96.298C564.801,96.652 568.648,98.746 571.392,101.778C573.965,104.62 575.424,108.357 575.17,112.405C575.057,116.289 573.219,119.687 570.544,122.22C567.885,124.738 564.33,126.438 560.301,126.501C556.178,126.645 552.299,125.21 549.432,122.737C546.456,120.169 544.492,116.57 544.48,112.467C544.439,108.125 545.695,104.504 548.168,101.734C550.659,98.942 554.291,97.001 558.941,96.008C559.063,95.989 559.145,95.878 559.124,95.762C559.104,95.646 558.989,95.567 558.868,95.587C553.842,96.135 549.803,97.852 546.853,100.538C543.698,103.41 541.84,107.398 541.364,112.343C540.902,117.479 542.947,122.205 546.401,125.71C549.886,129.246 554.877,131.424 560.301,131.613C565.864,131.7 571.002,129.652 574.63,126.135C578.246,122.63 580.344,117.716 580.189,112.405C579.866,107.248 577.56,102.629 573.782,99.489C570.181,96.496 565.422,94.806 560.301,95.209C559.987,95.209 559.732,95.453 559.732,95.754C559.732,96.054 559.987,96.298 560.301,96.298Z"/>
                </g>
                <g transform="matrix(0.0892764,-0.0232775,0.0409322,0.0553017,296.605,133.437)">
                    <path d="M560.301,96.298C564.801,96.652 568.648,98.746 571.392,101.778C573.965,104.62 575.424,108.357 575.17,112.405C575.057,116.289 573.219,119.687 570.544,122.22C567.885,124.738 564.33,126.438 560.301,126.501C556.178,126.645 552.299,125.21 549.432,122.737C546.456,120.169 544.492,116.57 544.48,112.467C544.439,108.125 545.695,104.504 548.168,101.734C550.659,98.942 554.291,97.001 558.941,96.008C559.063,95.989 559.145,95.878 559.124,95.762C559.104,95.646 558.989,95.567 558.868,95.587C553.842,96.135 549.803,97.852 546.853,100.538C543.698,103.41 541.84,107.398 541.364,112.343C540.902,117.479 542.947,122.205 546.401,125.71C549.886,129.246 554.877,131.424 560.301,131.613C565.864,131.7 571.002,129.652 574.63,126.135C578.246,122.63 580.344,117.716 580.189,112.405C579.866,107.248 577.56,102.629 573.782,99.489C570.181,96.496 565.422,94.806 560.301,95.209C559.987,95.209 559.732,95.453 559.732,95.754C559.732,96.054 559.987,96.298 560.301,96.298Z"/>
                </g>
                <g transform="matrix(0.0892764,-0.0232775,0.0409322,0.0553017,310.591,141.399)">
                    <path d="M560.301,96.298C564.801,96.652 568.648,98.746 571.392,101.778C573.965,104.62 575.424,108.357 575.17,112.405C575.057,116.289 573.219,119.687 570.544,122.22C567.885,124.738 564.33,126.438 560.301,126.501C556.178,126.645 552.299,125.21 549.432,122.737C546.456,120.169 544.492,116.57 544.48,112.467C544.439,108.125 545.695,104.504 548.168,101.734C550.659,98.942 554.291,97.001 558.941,96.008C559.063,95.989 559.145,95.878 559.124,95.762C559.104,95.646 558.989,95.567 558.868,95.587C553.842,96.135 549.803,97.852 546.853,100.538C543.698,103.41 541.84,107.398 541.364,112.343C540.902,117.479 542.947,122.205 546.401,125.71C549.886,129.246 554.877,131.424 560.301,131.613C565.864,131.7 571.002,129.652 574.63,126.135C578.246,122.63 580.344,117.716 580.189,112.405C579.866,107.248 577.56,102.629 573.782,99.489C570.181,96.496 565.422,94.806 560.301,95.209C559.987,95.209 559.732,95.453 559.732,95.754C559.732,96.054 559.987,96.298 560.301,96.298Z"/>
                </g>
                <g transform="matrix(0.0286897,0.0553133,-0.0972654,0.0177716,346.088,101.584)">
                    <path d="M560.301,96.298C564.801,96.652 568.648,98.746 571.392,101.778C573.965,104.62 575.424,108.357 575.17,112.405C575.057,116.289 573.219,119.687 570.544,122.22C567.885,124.738 564.33,126.438 560.301,126.501C556.178,126.645 552.299,125.21 549.432,122.737C546.456,120.169 544.492,116.57 544.48,112.467C544.439,108.125 545.695,104.504 548.168,101.734C550.659,98.942 554.291,97.001 558.941,96.008C559.063,95.989 559.145,95.878 559.124,95.762C559.104,95.646 558.989,95.567 558.868,95.587C553.842,96.135 549.803,97.852 546.853,100.538C543.698,103.41 541.84,107.398 541.364,112.343C540.902,117.479 542.947,122.205 546.401,125.71C549.886,129.246 554.877,131.424 560.301,131.613C565.864,131.7 571.002,129.652 574.63,126.135C578.246,122.63 580.344,117.716 580.189,112.405C579.866,107.248 577.56,102.629 573.782,99.489C570.181,96.496 565.422,94.806 560.301,95.209C559.987,95.209 559.732,95.453 559.732,95.754C559.732,96.054 559.987,96.298 560.301,96.298Z"/>
                </g>
                <g transform="matrix(-0.0372913,-0.0186594,0.0328115,-0.0230998,375.41,148.287)">
                    <path d="M560.301,96.298C564.801,96.652 568.649,98.746 571.393,101.777C573.966,104.62 575.425,108.357 575.171,112.405C575.058,116.289 573.22,119.687 570.545,122.221C567.886,124.739 564.331,126.439 560.301,126.502C556.178,126.645 552.299,125.211 549.432,122.737C546.455,120.169 544.491,116.571 544.479,112.467C544.439,108.125 545.695,104.504 548.168,101.733C550.659,98.942 554.291,97 558.941,96.008C559.063,95.989 559.145,95.878 559.124,95.762C559.104,95.646 558.989,95.568 558.868,95.587C553.842,96.135 549.803,97.852 546.853,100.538C543.699,103.41 541.841,107.399 541.365,112.343C540.903,117.479 542.948,122.205 546.402,125.709C549.887,129.245 554.878,131.423 560.301,131.612C565.864,131.699 571.001,129.651 574.629,126.134C578.245,122.63 580.342,117.715 580.188,112.405C579.865,107.249 577.56,102.629 573.781,99.489C570.181,96.497 565.422,94.806 560.301,95.209C559.987,95.209 559.732,95.453 559.732,95.754C559.732,96.054 559.987,96.298 560.301,96.298Z"/>
                </g>
            </g>
        </g>
    </g>
</svg>
