<?xml version="1.0" encoding="UTF-8" standalone="no"?>
<!DOCTYPE svg PUBLIC "-//W3C//DTD SVG 1.1//EN" "http://www.w3.org/Graphics/SVG/1.1/DTD/svg11.dtd">
<svg width="100%" height="100%" viewBox="0 0 19 32" version="1.1" xmlns="http://www.w3.org/2000/svg" xmlns:xlink="http://www.w3.org/1999/xlink" xml:space="preserve" xmlns:serif="http://www.serif.com/" style="fill-rule:evenodd;clip-rule:evenodd;stroke-linejoin:round;stroke-miterlimit:2;">
    <g transform="matrix(1,0,0,1,-728,-583)">
        <g id="ic_budget_categories_tax" transform="matrix(1.00203,0,0,1.00058,-1.50073,-0.347262)">
            <rect x="728.954" y="584" width="17.458" height="30.053" style="fill:none;"/>
            <g transform="matrix(0.997971,0,0,0.999423,1.49769,0.347062)">
                <g transform="matrix(0.805919,0,0,0.713242,356.437,497.708)">
                    <path d="M467.881,134.326C467.881,134.326 465.552,139.42 463.892,144.427C462.979,147.183 462.295,149.914 462.231,151.797C462.149,154.988 463.43,157.913 465.545,159.998C467.483,161.908 470.141,163.07 473.065,163.122C474.481,163.117 475.838,162.858 477.077,162.354C478.404,161.815 479.602,161.018 480.602,160.021C482.71,157.922 483.983,154.991 483.885,151.797C483.808,149.912 483.107,147.145 482.164,144.35C480.457,139.29 478.07,134.143 478.07,134.143C478.06,134.117 478.033,134.106 478.01,134.117C477.987,134.129 477.976,134.16 477.987,134.186C477.987,134.186 479.806,139.57 481.043,144.76C481.682,147.439 482.171,150.049 482.099,151.797C482.022,154.301 480.863,156.487 479.132,158.027C478.303,158.764 477.334,159.338 476.275,159.736C475.277,160.111 474.197,160.329 473.065,160.324C470.727,160.366 468.591,159.497 466.982,158.05C465.257,156.499 464.111,154.303 464.047,151.797C463.988,150.061 464.488,147.504 465.145,144.893C466.428,139.805 468.323,134.557 468.323,134.557C468.379,134.419 468.326,134.255 468.204,134.192C468.082,134.128 467.937,134.188 467.881,134.326Z"/>
                </g>
                <g transform="matrix(1,0,0,1,268.735,454.91)">
                    <path d="M472.951,137.787L472.954,137.787L472.975,137.739C472.983,137.601 472.963,137.466 472.919,137.339C472.874,137.208 472.803,137.088 472.709,136.982C472.614,136.875 472.498,136.79 472.371,136.729C472.241,136.666 472.099,136.632 471.952,136.624C470.973,136.572 469.439,136.483 468.051,136.417C466.985,136.367 466.012,136.332 465.45,136.309C465.45,136.309 465.45,136.309 465.45,136.309C465.189,136.3 464.953,136.41 464.776,136.575C464.595,136.743 464.492,136.985 464.482,137.251L464.482,137.251C464.475,137.519 464.583,137.763 464.751,137.947C464.922,138.133 465.165,138.246 465.436,138.263C465.867,138.278 466.54,138.315 467.311,138.326C467.902,138.335 468.549,138.332 469.189,138.319C470.166,138.299 471.116,138.255 471.821,138.222C472.51,138.189 472.954,138.156 472.954,138.156C473.005,138.158 473.05,138.116 473.052,138.062C473.054,138.007 473.012,137.962 472.958,137.96L472.958,137.96L472.947,137.958C472.93,137.956 472.896,137.951 472.846,137.944C472.673,137.921 472.316,137.868 471.837,137.808C471.137,137.72 470.193,137.604 469.22,137.51C468.583,137.448 467.938,137.395 467.348,137.359C466.578,137.311 465.904,137.297 465.473,137.278L465.427,137.251C465.426,137.241 465.418,137.229 465.424,137.223C465.433,137.213 465.438,137.197 465.452,137.197C466.014,137.171 466.987,137.132 468.052,137.077C469.44,137.005 470.974,136.91 471.952,136.854C472.072,136.847 472.189,136.862 472.3,136.9C472.414,136.939 472.52,136.998 472.612,137.079C472.707,137.163 472.783,137.262 472.837,137.373C472.892,137.486 472.926,137.61 472.934,137.739L472.944,137.763C472.939,137.757 472.936,137.763 472.936,137.769C472.936,137.778 472.942,137.785 472.951,137.787Z"/>
                </g>
                <g transform="matrix(1,0,0,1,268.735,454.91)">
                    <path d="M465.422,132.251L466.842,133.369C467.147,133.581 467.547,133.599 467.869,133.414C468.191,133.23 468.378,132.876 468.349,132.506L468.251,131.019L469.822,130.933L469.826,132.598C469.808,132.894 469.978,133.169 470.251,133.285C470.523,133.401 470.84,133.333 471.041,133.115L472.203,131.662L472.98,132.215C473.098,132.298 473.192,132.404 473.227,132.535C473.266,132.678 473.272,132.833 473.207,132.976L471.745,136.201C471.735,136.218 471.742,136.241 471.76,136.251C471.777,136.261 471.8,136.254 471.81,136.236L473.777,133.293C473.958,133.021 474.008,132.702 473.976,132.396C473.942,132.078 473.781,131.784 473.539,131.547L472.806,130.831C472.608,130.64 472.344,130.571 472.088,130.57C471.862,130.568 471.646,130.659 471.46,130.806L471.483,130.621C471.505,130.436 471.469,130.253 471.415,130.079C471.362,129.902 471.256,129.747 471.133,129.605C471.009,129.461 470.848,129.362 470.681,129.281C470.512,129.2 470.324,129.172 470.133,129.165C470.133,129.165 467.18,129.09 467.18,129.09C466.905,129.094 466.645,129.211 466.46,129.414C466.275,129.617 466.182,129.887 466.204,130.161L466.259,130.761C466.259,130.761 466.257,130.76 466.257,130.76C466.014,130.614 465.748,130.518 465.478,130.54C465.212,130.561 464.942,130.628 464.728,130.808L464.324,131.158C463.995,131.442 463.754,131.797 463.702,132.201C463.653,132.589 463.694,132.999 463.931,133.342C463.931,133.342 465.878,136.093 465.878,136.093C465.929,136.188 466.048,136.224 466.143,136.173C466.239,136.122 466.274,136.002 466.223,135.907L465.003,132.766C464.968,132.68 465.016,132.593 465.044,132.511C465.066,132.445 465.14,132.418 465.203,132.38L465.422,132.251ZM465.543,132.179C465.584,132.165 465.623,132.133 465.664,132.108L465.543,132.179ZM469.822,130.628L469.822,130.52C469.821,130.556 469.816,130.593 469.822,130.628Z"/>
                </g>
                <g transform="matrix(1.51602,0,0,1.39135,29.3932,397.036)">
                    <path d="M463.337,148.365C463.337,148.365 463.817,148.369 464.36,148.323C465.08,148.263 465.895,148.129 465.895,148.129C465.96,148.129 466.013,148.071 466.013,148C466.013,147.929 465.96,147.871 465.895,147.871C465.895,147.871 465.08,147.737 464.36,147.677C463.817,147.631 463.337,147.635 463.337,147.635C463.152,147.635 463.002,147.799 463.002,148C463.002,148.201 463.152,148.365 463.337,148.365Z"/>
                </g>
                <g transform="matrix(-2.55586e-16,-1.39135,1.39135,-2.55586e-16,527.681,1251.9)">
                    <path d="M463.337,148.365C463.337,148.365 463.818,148.369 464.36,148.323C465.081,148.263 465.895,148.129 465.895,148.129C465.966,148.129 466.023,148.071 466.023,148C466.023,147.929 465.966,147.871 465.895,147.871C465.895,147.871 465.081,147.737 464.36,147.677C463.818,147.631 463.337,147.635 463.337,147.635C463.136,147.635 462.972,147.799 462.972,148C462.972,148.201 463.136,148.365 463.337,148.365Z"/>
                </g>
                <g transform="matrix(1.07023,0,0,1.39135,240.345,399.883)">
                    <path d="M463.337,148.365C463.337,148.365 463.818,148.368 464.36,148.323C465.087,148.262 465.895,148.129 465.895,148.129C465.987,148.129 466.062,148.071 466.062,148C466.062,147.929 465.987,147.871 465.895,147.871C465.895,147.871 465.087,147.738 464.36,147.677C463.818,147.632 463.337,147.635 463.337,147.635C463.075,147.635 462.863,147.799 462.863,148C462.863,148.201 463.075,148.365 463.337,148.365Z"/>
                </g>
                <g transform="matrix(1.39135,0,0,1.39135,86.2655,396.991)">
                    <path d="M467.479,151.217C467.479,151.217 467.888,150.227 468.224,149.362C468.3,149.169 468.371,148.981 468.434,148.813C468.435,148.813 469.494,151.344 469.494,151.344C469.518,151.411 469.592,151.445 469.658,151.421C469.725,151.397 469.76,151.323 469.736,151.256L468.698,147.898C468.656,147.783 468.547,147.705 468.424,147.702C468.301,147.699 468.189,147.772 468.142,147.886C468.142,147.886 467.876,148.451 467.59,149.1C467.216,149.948 466.805,150.938 466.805,150.938C466.728,151.124 466.816,151.338 467.002,151.415C467.188,151.492 467.402,151.403 467.479,151.217Z"/>
                </g>
                <g transform="matrix(1.39135,0,0,1.39135,84.5626,397.301)">
                    <path d="M471.194,148.209C471.194,148.209 471.593,148.788 472.086,149.416C472.736,150.243 473.532,151.151 473.532,151.151C473.573,151.209 473.653,151.224 473.711,151.183C473.769,151.142 473.784,151.062 473.743,151.004C473.743,151.004 473.167,149.942 472.616,149.046C472.198,148.367 471.793,147.791 471.793,147.791C471.678,147.626 471.45,147.585 471.285,147.7C471.12,147.816 471.079,148.043 471.194,148.209Z"/>
                </g>
                <g transform="matrix(1.39135,0,0,-1.39135,84.5626,813.2)">
                    <path d="M471.793,147.791C471.793,147.791 472.198,148.367 472.616,149.046C473.167,149.942 473.743,151.004 473.743,151.004C473.784,151.062 473.769,151.142 473.711,151.183C473.653,151.224 473.573,151.209 473.532,151.151C473.532,151.151 472.736,150.243 472.086,149.416C471.593,148.788 471.194,148.209 471.194,148.209C471.079,148.043 471.12,147.816 471.285,147.7C471.45,147.585 471.678,147.626 471.793,147.791Z"/>
                </g>
            </g>
        </g>
    </g>
</svg>
