<?xml version="1.0" encoding="UTF-8" standalone="no"?>
<!DOCTYPE svg PUBLIC "-//W3C//DTD SVG 1.1//EN" "http://www.w3.org/Graphics/SVG/1.1/DTD/svg11.dtd">
<svg width="100%" height="100%" viewBox="0 0 33 32" version="1.1" xmlns="http://www.w3.org/2000/svg" xmlns:xlink="http://www.w3.org/1999/xlink" xml:space="preserve" xmlns:serif="http://www.serif.com/" style="fill-rule:evenodd;clip-rule:evenodd;stroke-linejoin:round;stroke-miterlimit:2;">
    <g transform="matrix(1,0,0,1,-639,-1793)">
        <g id="ic_category_space_and_vehicle_house_emi" transform="matrix(0.882327,0,0,0.881362,75.2815,210.401)">
            <rect x="640" y="1796.42" width="35.316" height="35.445" style="fill:none;"/>
            <g transform="matrix(2.00558,0,0,3.38282,-113.813,1336.29)">
                <g transform="matrix(0.565107,0,0,0.239051,75.2429,103.688)">
                    <path d="M552.448,136L552.448,140C552.448,140.392 552.675,140.71 552.954,140.71C553.234,140.71 553.461,140.392 553.461,140L553.461,136C553.461,135.608 553.234,135.29 552.954,135.29C552.675,135.29 552.448,135.608 552.448,136Z"/>
                </g>
                <g transform="matrix(0.565107,0,0,0.239051,66.2012,103.688)">
                    <path d="M552.448,136L552.448,140C552.448,140.392 552.675,140.71 552.954,140.71C553.234,140.71 553.461,140.392 553.461,140L553.461,136C553.461,135.608 553.234,135.29 552.954,135.29C552.675,135.29 552.448,135.608 552.448,136Z"/>
                </g>
                <g transform="matrix(0.565107,0,0,0.265722,-26.4763,93.7858)">
                    <path d="M712.954,166.943L713.231,163.155C713.239,163.036 713.275,162.926 713.318,162.822C713.359,162.723 713.421,162.642 713.49,162.568C713.556,162.498 713.636,162.458 713.716,162.426C713.793,162.395 713.874,162.398 713.956,162.407C713.956,162.407 713.956,162.407 713.956,162.407C714.594,162.474 715.497,162.583 716.595,162.685C717.747,162.792 719.096,162.908 720.555,163.006C721.407,163.063 722.293,163.113 723.194,163.147C723.777,163.168 724.366,163.184 724.954,163.185C725.692,163.186 726.429,163.17 727.154,163.144C727.905,163.116 728.641,163.071 729.355,163.024C730.543,162.947 731.657,162.861 732.655,162.776C734.05,162.657 735.193,162.534 735.956,162.462C736.131,162.444 736.301,162.492 736.425,162.625C736.563,162.772 736.67,162.974 736.686,163.218L736.954,167.006L737.223,163.218C737.253,162.764 737.115,162.351 736.899,162.028C736.673,161.689 736.335,161.491 735.957,161.45C735.195,161.373 734.052,161.244 732.658,161.117C731.661,161.027 730.546,160.933 729.359,160.85C728.645,160.799 727.909,160.749 727.159,160.718C726.433,160.687 725.696,160.667 724.959,160.664C724.37,160.662 723.782,160.674 723.199,160.692C722.297,160.721 721.412,160.765 720.559,160.817C719.1,160.907 717.751,161.015 716.598,161.116C715.5,161.212 714.596,161.316 713.958,161.379C713.772,161.398 713.593,161.446 713.43,161.551C713.272,161.653 713.123,161.781 713.006,161.955C712.891,162.125 712.796,162.312 712.743,162.521C712.692,162.725 712.663,162.938 712.678,163.155L712.954,166.943Z"/>
                </g>
                <g transform="matrix(0.42383,0,0,0.251552,124.407,47.1025)">
                    <path d="M604,369C604,368.448 603.552,368 603,368L601,368C600.448,368 600,368.448 600,369L600,371C600,371.552 600.448,372 601,372L603,372C603.552,372 604,371.552 604,371L604,369Z"/>
                </g>
                <g transform="matrix(0.42383,0,0,0.251552,124.407,47.1025)">
                    <path d="M604,369C604,368.448 603.552,368 603,368L601,368C600.448,368 600,368.448 600,369L600,371C600,371.552 600.448,372 601,372L603,372C603.552,372 604,371.552 604,371L604,369ZM600.997,371.002C600.998,370.975 600.998,370.948 600.997,370.92C600.994,370.787 600.99,370.507 600.973,370.2C600.948,369.787 600.905,369.332 600.883,369.12C600.879,369.074 600.871,369.037 600.861,369.008L600.869,369C600.86,368.927 600.806,368.848 600.856,368.8C600.904,368.754 600.929,368.671 601,368.661C601,368.661 603,368.314 603,368.314C603.217,368.271 603.424,368.291 603.595,368.405C603.8,368.541 603.948,368.74 604,369L603.617,371C603.588,371.158 603.458,371.25 603.336,371.336C603.243,371.402 603.121,371.369 603,371.349C603,371.349 601,371.093 601,371.093L600.999,371L600.997,371.002Z" style="fill:none;"/>
                </g>
                <g transform="matrix(0.42383,0,0,0.251552,128.363,47.1025)">
                    <path d="M604,369C604,368.448 603.552,368 603,368L601,368C600.448,368 600,368.448 600,369L600,371C600,371.552 600.448,372 601,372L603,372C603.552,372 604,371.552 604,371L604,369Z"/>
                </g>
                <g transform="matrix(0.42383,0,0,0.251552,128.363,47.1025)">
                    <path d="M604,369C604,368.448 603.552,368 603,368L601,368C600.448,368 600,368.448 600,369L600,371C600,371.552 600.448,372 601,372L603,372C603.552,372 604,371.552 604,371L604,369ZM600.997,371.002C600.998,370.975 600.998,370.948 600.997,370.92C600.994,370.787 600.99,370.507 600.973,370.2C600.948,369.787 600.905,369.332 600.883,369.12C600.879,369.074 600.871,369.037 600.861,369.008L600.869,369C600.86,368.927 600.806,368.848 600.856,368.8C600.904,368.754 600.929,368.671 601,368.661C601,368.661 603,368.314 603,368.314C603.217,368.271 603.424,368.291 603.595,368.405C603.8,368.541 603.948,368.74 604,369L603.617,371C603.588,371.158 603.458,371.25 603.336,371.336C603.243,371.402 603.121,371.369 603,371.349C603,371.349 601,371.093 601,371.093L600.999,371L600.997,371.002Z" style="fill:none;"/>
                </g>
                <g transform="matrix(0.42383,0,0,0.251552,124.407,48.9252)">
                    <path d="M604,369C604,368.448 603.552,368 603,368L601,368C600.448,368 600,368.448 600,369L600,371C600,371.552 600.448,372 601,372L603,372C603.552,372 604,371.552 604,371L604,369Z"/>
                </g>
                <g transform="matrix(0.42383,0,0,0.251552,124.407,48.9252)">
                    <path d="M604,369C604,368.448 603.552,368 603,368L601,368C600.448,368 600,368.448 600,369L600,371C600,371.552 600.448,372 601,372L603,372C603.552,372 604,371.552 604,371L604,369ZM600.997,371.002C600.998,370.975 600.998,370.948 600.997,370.92C600.994,370.787 600.99,370.507 600.973,370.2C600.948,369.787 600.905,369.332 600.883,369.12C600.879,369.074 600.871,369.037 600.861,369.008L600.869,369C600.86,368.927 600.806,368.848 600.856,368.8C600.904,368.754 600.929,368.671 601,368.661C601,368.661 603,368.314 603,368.314C603.217,368.271 603.424,368.291 603.595,368.405C603.8,368.541 603.948,368.74 604,369L603.617,371C603.588,371.158 603.458,371.25 603.336,371.336C603.243,371.402 603.121,371.369 603,371.349C603,371.349 601,371.093 601,371.093L600.999,371L600.997,371.002Z" style="fill:none;"/>
                </g>
                <g transform="matrix(0.42383,0,0,0.251552,124.407,50.7527)">
                    <path d="M604,369C604,368.448 603.552,368 603,368L601,368C600.448,368 600,368.448 600,369L600,371C600,371.552 600.448,372 601,372L603,372C603.552,372 604,371.552 604,371L604,369Z"/>
                </g>
                <g transform="matrix(0.42383,0,0,0.251552,124.407,50.7527)">
                    <path d="M604,369C604,368.448 603.552,368 603,368L601,368C600.448,368 600,368.448 600,369L600,371C600,371.552 600.448,372 601,372L603,372C603.552,372 604,371.552 604,371L604,369ZM600.997,371.002C600.998,370.975 600.998,370.948 600.997,370.92C600.994,370.787 600.99,370.507 600.973,370.2C600.948,369.787 600.905,369.332 600.883,369.12C600.879,369.074 600.871,369.037 600.861,369.008L600.869,369C600.86,368.927 600.806,368.848 600.856,368.8C600.904,368.754 600.929,368.671 601,368.661C601,368.661 603,368.314 603,368.314C603.217,368.271 603.424,368.291 603.595,368.405C603.8,368.541 603.948,368.74 604,369L603.617,371C603.588,371.158 603.458,371.25 603.336,371.336C603.243,371.402 603.121,371.369 603,371.349C603,371.349 601,371.093 601,371.093C601,371.093 600.999,371 600.999,371L600.997,371.002Z" style="fill:none;"/>
                </g>
                <g transform="matrix(-0.243883,-0.122031,0.214585,-0.151072,499.97,228.462)">
                    <path d="M560.301,96.087C564.912,96.309 568.963,98.308 571.857,101.333C574.645,104.247 576.309,108.147 576.145,112.405C576.071,116.565 574.196,120.262 571.338,122.981C568.489,125.691 564.628,127.453 560.301,127.494C555.927,127.587 551.84,125.983 548.843,123.314C545.767,120.575 543.81,116.745 543.874,112.443C543.924,107.988 545.316,104.295 547.913,101.501C550.488,98.73 554.208,96.836 558.927,95.926C559.001,95.914 559.051,95.847 559.039,95.776C559.027,95.705 558.956,95.657 558.882,95.669C553.933,96.307 549.964,98.063 547.108,100.77C544.095,103.626 542.335,107.543 541.969,112.367C541.615,117.3 543.622,121.82 546.99,125.132C550.365,128.45 555.132,130.51 560.301,130.62C565.566,130.67 570.395,128.695 573.836,125.374C577.269,122.062 579.303,117.438 579.214,112.405C579.025,107.468 576.843,103.03 573.317,99.933C569.9,96.932 565.292,95.181 560.301,95.421C560.109,95.421 559.953,95.57 559.953,95.754C559.953,95.938 560.109,96.087 560.301,96.087Z"/>
                </g>
                <g transform="matrix(-0.00322921,0.460414,-0.660647,-0.00225048,426.044,-84.1254)">
                    <path d="M491.295,59.998C491.295,59.998 491.291,58.498 491.236,56.798C491.165,54.567 491.016,51.999 491.016,51.999C491.016,51.915 490.957,51.846 490.885,51.847C490.813,51.847 490.755,51.916 490.755,52.001C490.755,52.001 490.631,54.57 490.582,56.802C490.544,58.502 490.555,60.002 490.555,60.002C490.556,60.242 490.723,60.435 490.927,60.434C491.131,60.433 491.296,60.238 491.295,59.998Z"/>
                </g>
                <g transform="matrix(-0.00191859,0.273548,-0.392513,-0.00133709,410.757,8.64483)">
                    <path d="M491.547,59.997C491.547,59.997 491.546,58.496 491.46,56.797C491.347,54.559 491.105,51.999 491.105,51.999C491.104,51.857 491.005,51.742 490.884,51.742C490.763,51.743 490.665,51.859 490.666,52.001C490.666,52.001 490.449,54.563 490.358,56.803C490.289,58.502 490.302,60.003 490.302,60.003C490.304,60.407 490.585,60.733 490.928,60.731C491.272,60.73 491.549,60.401 491.547,59.997Z"/>
                </g>
                <g transform="matrix(0.752069,0,0,0.446369,-135.452,83.2243)">
                    <path d="M694.843,131.238C694.839,131.22 694.838,131.206 694.832,131.208C694.801,131.218 694.816,131.229 694.843,131.238C694.844,131.246 694.846,131.255 694.849,131.264C694.879,131.362 694.932,131.559 695.01,131.827C695.122,132.216 695.251,132.731 695.351,133.264C695.414,133.596 695.456,133.926 695.459,134.228C695.462,134.477 695.444,134.698 695.314,134.846C695.2,134.975 695.006,135.011 694.713,134.999C694.325,134.983 693.824,134.886 693.179,134.661C692.997,134.587 692.789,134.639 692.663,134.788C692.536,134.938 692.52,135.152 692.623,135.318C693.111,136.013 693.667,136.711 694.226,137.349C695.589,138.906 696.903,140.104 696.903,140.104C696.911,140.112 696.924,140.113 696.932,140.105C696.941,140.097 696.941,140.084 696.933,140.076C696.933,140.076 696.05,138.975 695.048,137.516C694.71,137.023 694.359,136.491 694.027,135.947C694.405,136.051 694.723,136.093 694.988,136.088C695.54,136.077 695.914,135.87 696.161,135.587C696.377,135.34 696.507,135.015 696.531,134.639C696.553,134.277 696.494,133.86 696.359,133.443C696.246,133.095 696.097,132.747 695.926,132.429C695.753,132.109 695.573,131.832 695.414,131.606C695.255,131.38 695.128,131.224 695.064,131.145C695.046,131.122 695.034,131.107 695.027,131.1C694.993,131.059 694.969,131.081 694.954,131.12C694.957,131.035 694.911,131.031 694.873,131.052C694.819,131.082 694.8,131.149 694.83,131.202L694.926,131.259C694.926,131.259 694.876,131.25 694.843,131.238Z"/>
                </g>
                <g transform="matrix(0.848664,0,0,0.363172,-18.1757,88.881)">
                    <path d="M480.824,137.972L480.824,137.977C480.824,138.077 480.882,138.158 480.954,138.158C480.954,138.158 481.08,138.138 481.085,137.964C481.086,137.945 481.087,137.904 481.089,137.847C481.105,137.277 480.947,136.757 480.689,136.368C480.423,135.969 480.045,135.722 479.623,135.698C477.858,135.612 474.626,135.432 471.643,135.308C469.541,135.221 467.566,135.168 466.323,135.125C465.779,135.114 465.286,135.42 464.924,135.907C464.559,136.398 464.337,137.086 464.329,137.847C464.329,137.847 464.329,137.847 464.329,137.847C464.327,139.751 464.313,142.876 464.321,146C464.328,149.124 464.357,152.248 464.368,154.153C464.373,154.9 464.591,155.576 464.948,156.06C465.303,156.54 465.788,156.841 466.323,156.832L472.458,156.721C472.746,156.721 472.979,156.398 472.979,156C472.979,155.602 472.746,155.279 472.458,155.279L466.323,155.168C466.122,155.165 465.944,155.043 465.814,154.858C465.686,154.677 465.612,154.426 465.614,154.153C465.625,152.248 465.654,149.124 465.661,146C465.668,142.876 465.655,139.751 465.653,137.847C465.65,137.587 465.717,137.348 465.838,137.175C465.962,136.998 466.131,136.879 466.323,136.875C467.566,136.832 469.541,136.779 471.643,136.692C474.626,136.568 477.858,136.388 479.623,136.302C479.936,136.284 480.226,136.44 480.44,136.714C480.661,136.997 480.807,137.396 480.82,137.847C480.822,137.904 480.823,137.945 480.823,137.964L480.824,137.972Z"/>
                </g>
                <g transform="matrix(0.848664,0,0,0.363172,-18.1757,88.881)">
                    <path d="M481.055,141.109L480.988,138.859C480.988,138.834 480.973,138.813 480.954,138.813C480.936,138.813 480.921,138.834 480.921,138.859L480.854,141.109C480.854,141.186 480.899,141.248 480.954,141.248C481.01,141.248 481.055,141.186 481.055,141.109Z"/>
                </g>
            </g>
        </g>
    </g>
</svg>
