<?xml version="1.0" encoding="UTF-8" standalone="no"?>
<!DOCTYPE svg PUBLIC "-//W3C//DTD SVG 1.1//EN" "http://www.w3.org/Graphics/SVG/1.1/DTD/svg11.dtd">
<svg width="100%" height="100%" viewBox="0 0 32 27" version="1.1" xmlns="http://www.w3.org/2000/svg" xmlns:xlink="http://www.w3.org/1999/xlink" xml:space="preserve" xmlns:serif="http://www.serif.com/" style="fill-rule:evenodd;clip-rule:evenodd;stroke-linejoin:round;stroke-miterlimit:2;">
    <g transform="matrix(1,0,0,1,-910,-1484)">
        <g id="ic_category_groups_debt_pay" transform="matrix(1.00034,0,0,0.997147,-0.313654,0.682348)">
            <rect x="910.327" y="1487.63" width="31.557" height="26.516" style="fill:none;"/>
            <g transform="matrix(1.76898,0,0,2.99002,111.554,1150.7)">
                <g transform="matrix(0.250549,1.3023e-32,2.73245e-32,0.171199,259.402,101.12)">
                    <path d="M809.265,80.234C809.265,80.234 812.779,77.445 816.124,74.57C817.774,73.151 819.336,71.696 820.506,70.649C820.563,70.595 820.641,70.564 820.717,70.535C820.791,70.507 820.872,70.497 820.954,70.497C821.037,70.497 821.119,70.505 821.193,70.533C821.27,70.562 821.35,70.59 821.408,70.645C822.583,71.689 824.155,73.135 825.806,74.553C829.15,77.427 832.644,80.234 832.644,80.234C832.793,80.383 833.053,80.399 833.224,80.27C833.396,80.141 833.414,79.915 833.265,79.766C833.265,79.766 830.554,76.368 827.746,73.09C826.36,71.471 824.932,69.917 823.906,68.761C823.545,68.379 823.088,68.086 822.587,67.877C822.084,67.668 821.525,67.565 820.954,67.559C820.383,67.564 819.825,67.667 819.32,67.875C818.818,68.082 818.361,68.376 817.997,68.756C816.967,69.909 815.527,71.456 814.141,73.074C811.331,76.353 808.644,79.766 808.644,79.766C808.495,79.915 808.513,80.141 808.684,80.27C808.856,80.399 809.116,80.383 809.265,80.234Z"/>
                </g>
                <g transform="matrix(0.250549,-1.6651e-32,2.73245e-32,-0.218891,259.402,133.584)">
                    <path d="M822.482,72C822.482,72 822.497,75.75 822.306,80C822.056,85.578 821.493,92 821.493,92C821.493,92.202 821.252,92.366 820.954,92.366C820.657,92.366 820.416,92.202 820.416,92C820.416,92 819.853,85.578 819.602,80C819.412,75.75 819.427,72 819.427,72C819.427,71.427 820.111,70.962 820.954,70.962C821.797,70.962 822.482,71.427 822.482,72Z"/>
                </g>
                <g transform="matrix(0.568473,2.12518e-17,-1.31761e-15,0.337401,139.405,57.1245)">
                    <path d="M554.134,186.467L554.377,177.992C554.388,177.589 554.224,177.224 553.967,176.953C553.706,176.678 553.337,176.513 552.928,176.501L550.943,176.444C550.737,176.438 550.535,176.479 550.346,176.552C550.155,176.624 549.983,176.739 549.832,176.882C549.68,177.026 549.565,177.2 549.481,177.388C549.397,177.576 549.356,177.782 549.35,177.993L549.09,189.005C549.081,189.515 549.29,189.977 549.617,190.319C549.947,190.664 550.412,190.872 550.926,190.885C550.926,190.885 553.407,190.948 553.407,190.948C553.738,190.955 554.058,190.871 554.342,190.721C554.627,190.572 554.87,190.346 555.053,190.069C555.053,190.069 555.853,188.852 555.853,188.852L559.378,190.353C559.5,190.404 559.626,190.443 559.756,190.469C559.885,190.495 560.016,190.508 560.149,190.508C560.149,190.508 568.703,190.38 568.703,190.38C568.847,190.377 568.99,190.361 569.129,190.326C569.267,190.29 569.403,190.242 569.53,190.175L579.002,185.121C579.466,184.871 579.846,184.508 580.097,184.067C580.344,183.632 580.48,183.133 580.457,182.614L580.457,182.611C580.444,182.32 580.368,182.04 580.225,181.796C580.085,181.556 579.893,181.343 579.65,181.191C579.41,181.041 579.143,180.947 578.869,180.926C578.599,180.906 578.322,180.942 578.066,181.053C578.066,181.053 569.853,184.614 569.853,184.614C569.834,184.621 569.825,184.643 569.832,184.662C569.839,184.681 569.861,184.69 569.88,184.683L578.346,181.774C578.486,181.725 578.634,181.719 578.777,181.741C578.915,181.762 579.046,181.823 579.163,181.908C579.276,181.992 579.359,182.105 579.419,182.228C579.478,182.347 579.5,182.482 579.496,182.619C579.496,182.619 579.496,182.622 579.496,182.622C579.487,182.949 579.377,183.256 579.203,183.518C579.034,183.774 578.789,183.977 578.499,184.11C578.499,184.11 568.755,188.618 568.755,188.618C568.755,188.618 568.7,188.622 568.7,188.622L560.146,188.521C560.146,188.521 555.862,186.754 555.862,186.754C555.429,186.573 554.928,186.729 554.674,187.125L553.47,189.056L553.424,189.093L550.942,189.112C550.91,189.112 550.878,189.111 550.857,189.09C550.833,189.067 550.808,189.04 550.807,189.005L550.545,177.993C550.544,177.939 550.547,177.886 550.565,177.837C550.585,177.787 550.608,177.737 550.646,177.697C550.685,177.656 550.727,177.619 550.778,177.597C550.83,177.574 550.884,177.555 550.942,177.553C550.942,177.553 552.927,177.501 552.927,177.501C553.066,177.498 553.197,177.542 553.29,177.631C553.388,177.723 553.459,177.849 553.463,177.994C553.463,177.994 553.744,186.468 553.744,186.468C553.744,186.576 553.832,186.663 553.939,186.663C554.047,186.663 554.134,186.575 554.134,186.467Z"/>
                </g>
                <g transform="matrix(0.568473,2.12518e-17,-1.31761e-15,0.337401,139.405,57.1245)">
                    <path d="M568.227,184.263L563.506,184.781C563.398,184.783 563.313,184.872 563.314,184.98C563.316,185.087 563.405,185.173 563.513,185.171L568.477,185.544C568.796,185.566 569.076,185.417 569.301,185.224C569.532,185.025 569.645,184.721 569.672,184.394C569.672,184.394 569.679,184.289 569.679,184.289C569.746,183.286 569.381,182.358 568.777,181.642C568.154,180.904 567.232,180.445 566.201,180.339C565.639,180.301 565.044,180.246 564.463,180.222C563.844,180.195 563.243,180.2 562.72,180.191C562.265,180.196 561.815,180.152 561.377,180.043C560.926,179.93 560.487,179.785 560.076,179.56C560.076,179.56 560.075,179.56 560.075,179.559C559.2,179.109 558.055,178.564 556.939,178.277C556.105,178.063 555.318,177.982 554.692,178.168C554.672,178.171 554.659,178.19 554.662,178.21C554.665,178.23 554.684,178.244 554.704,178.24C555.314,178.215 556.004,178.477 556.716,178.853C557.676,179.36 558.622,180.083 559.333,180.678C559.8,181.052 560.314,181.348 560.862,181.581C561.418,181.818 562.009,181.952 562.614,182.03C562.614,182.03 562.614,182.03 562.614,182.03C563.134,182.081 563.731,182.155 564.348,182.2C564.929,182.243 565.526,182.257 566.088,182.284C566.635,182.292 567.136,182.491 567.505,182.842C567.893,183.21 568.182,183.694 568.227,184.263ZM568.333,184.252L568.455,184.238C568.412,184.243 568.364,184.23 568.333,184.252Z"/>
                </g>
                <g transform="matrix(-0.126653,-0.0633733,0.111438,-0.0784545,516.738,159.71)">
                    <path d="M560.301,96.235C564.834,96.55 568.744,98.614 571.532,101.644C574.169,104.508 575.691,108.294 575.464,112.405C575.362,116.372 573.513,119.86 570.783,122.449C568.067,125.025 564.42,126.743 560.301,126.8C556.103,126.929 552.161,125.443 549.255,122.911C546.248,120.292 544.287,116.623 544.297,112.46C544.283,108.084 545.581,104.442 548.091,101.664C550.607,98.878 554.266,96.951 558.937,95.983C559.044,95.966 559.117,95.869 559.099,95.766C559.081,95.664 558.979,95.594 558.872,95.612C553.87,96.187 549.851,97.915 546.93,100.608C543.818,103.475 541.989,107.442 541.546,112.351C541.117,117.425 543.15,122.09 546.579,125.536C550.031,129.006 554.954,131.15 560.301,131.314C565.774,131.389 570.819,129.364 574.391,125.906C577.952,122.459 580.03,117.632 579.896,112.405C579.614,107.315 577.344,102.75 573.642,99.623C570.097,96.627 565.382,94.92 560.301,95.273C560.024,95.273 559.799,95.488 559.799,95.754C559.799,96.019 560.024,96.235 560.301,96.235Z"/>
                </g>
                <g transform="matrix(-0.00167699,0.239102,-0.343087,-0.00116872,478.346,-2.62297)">
                    <path d="M491.4,59.998C491.4,59.998 491.397,58.497 491.329,56.798C491.241,54.564 491.053,51.999 491.053,51.999C491.052,51.891 490.977,51.803 490.885,51.803C490.792,51.804 490.718,51.892 490.718,52.001C490.718,52.001 490.556,54.568 490.489,56.802C490.438,58.502 490.45,60.002 490.45,60.002C490.451,60.31 490.665,60.559 490.927,60.558C491.19,60.556 491.401,60.305 491.4,59.998Z"/>
                </g>
                <g transform="matrix(-0.000996359,0.142059,-0.20384,-0.000694377,470.407,45.5544)">
                    <path d="M491.724,59.996C491.724,59.996 491.724,58.495 491.617,56.797C491.474,54.551 491.167,51.999 491.167,51.999C491.166,51.816 491.039,51.668 490.884,51.669C490.728,51.67 490.603,51.819 490.604,52.001C490.604,52.001 490.322,54.557 490.201,56.803C490.11,58.502 490.125,60.004 490.125,60.004C490.128,60.522 490.488,60.941 490.929,60.939C491.37,60.936 491.727,60.514 491.724,59.996Z"/>
                </g>
                <g transform="matrix(0.390564,0,0,0.231808,186.751,84.285)">
                    <path d="M694.814,131.26C694.811,131.239 694.811,131.222 694.804,131.224C694.764,131.234 694.781,131.248 694.814,131.26L694.818,131.28C694.844,131.381 694.884,131.579 694.95,131.855C695.045,132.25 695.146,132.764 695.231,133.301C695.282,133.625 695.31,133.944 695.309,134.238C695.308,134.44 695.3,134.621 695.194,134.741C695.105,134.841 694.952,134.853 694.724,134.846C694.347,134.835 693.858,134.752 693.227,134.542C692.994,134.447 692.727,134.513 692.564,134.705C692.402,134.897 692.381,135.172 692.513,135.386C693.017,136.076 693.585,136.768 694.16,137.4C695.558,138.937 696.898,140.108 696.898,140.108C696.909,140.119 696.926,140.119 696.936,140.109C696.947,140.099 696.948,140.082 696.937,140.072C696.937,140.072 696.08,138.953 695.104,137.472C694.83,137.055 694.547,136.613 694.275,136.158C694.55,136.22 694.789,136.245 694.996,136.243C695.601,136.237 696.01,136.003 696.281,135.692C696.517,135.422 696.665,135.067 696.686,134.655C696.705,134.277 696.643,133.843 696.492,133.412C696.368,133.059 696.214,132.708 696.025,132.391C695.692,131.835 695.339,131.411 695.16,131.202C695.112,131.145 695.079,131.11 695.062,131.092C695.014,131.041 694.982,131.07 694.962,131.121C694.968,131.003 694.908,130.996 694.857,131.025C694.789,131.063 694.764,131.149 694.802,131.218L694.926,131.291C694.926,131.291 694.857,131.277 694.814,131.26Z"/>
                </g>
            </g>
        </g>
    </g>
</svg>
