<?xml version="1.0" encoding="UTF-8" standalone="no"?>
<!DOCTYPE svg PUBLIC "-//W3C//DTD SVG 1.1//EN" "http://www.w3.org/Graphics/SVG/1.1/DTD/svg11.dtd">
<svg width="100%" height="100%" viewBox="0 0 26 30" version="1.1" xmlns="http://www.w3.org/2000/svg" xmlns:xlink="http://www.w3.org/1999/xlink" xml:space="preserve" xmlns:serif="http://www.serif.com/" style="fill-rule:evenodd;clip-rule:evenodd;stroke-linejoin:round;stroke-miterlimit:2;">
    <g transform="matrix(1,0,0,1,-691,-1233)">
        <g id="ic_category_household_taxes" transform="matrix(1.00254,0,0,1.00086,-1.79796,-3.71098)">
            <rect x="691.309" y="1236" width="25.382" height="29.613" style="fill:none;"/>
            <g transform="matrix(1.76509,0,0,2.97892,-241.411,885.106)">
                <g transform="matrix(2.45681,0.00223806,0.00377082,0.284348,-1377.76,107.722)">
                    <path d="M776.953,55.621C776.953,55.621 777.703,55.61 778.553,55.534C779.667,55.435 780.954,55.236 780.954,55.236C780.997,55.236 781.033,55.054 781.034,54.83C781.034,54.605 780.999,54.423 780.955,54.423C780.955,54.423 779.67,54.22 778.556,54.116C777.706,54.037 776.956,54.023 776.956,54.023C776.87,54.023 776.799,54.381 776.799,54.822C776.798,55.262 776.867,55.621 776.953,55.621Z"/>
                </g>
                <g transform="matrix(1.69532,0.00137633,0.00231893,0.284347,-786.039,109.298)">
                    <path d="M776.953,55.621C776.953,55.621 777.703,55.61 778.553,55.534C779.668,55.435 780.954,55.236 780.954,55.236C781.017,55.236 781.069,55.054 781.069,54.83C781.07,54.605 781.019,54.423 780.955,54.423C780.955,54.423 779.67,54.22 778.556,54.116C777.706,54.037 776.956,54.023 776.956,54.023C776.831,54.023 776.729,54.381 776.729,54.821C776.728,55.262 776.828,55.62 776.953,55.621Z"/>
                </g>
                <g transform="matrix(1.21283,0,0,0.660643,-30.8516,23.698)">
                    <path d="M463.337,148.344C463.337,148.344 463.817,148.347 464.36,148.304C465.079,148.248 465.895,148.121 465.895,148.121C465.956,148.121 466.006,148.067 466.006,148C466.006,147.933 465.956,147.879 465.895,147.879C465.895,147.879 465.079,147.752 464.36,147.696C463.817,147.653 463.337,147.656 463.337,147.656C463.163,147.656 463.022,147.81 463.022,148C463.022,148.19 463.163,148.344 463.337,148.344Z"/>
                </g>
                <g transform="matrix(-2.04471e-16,-0.660643,1.11309,-1.21358e-16,367.783,429.607)">
                    <path d="M463.337,148.344C463.337,148.344 463.817,148.347 464.36,148.304C465.08,148.248 465.895,148.121 465.895,148.121C465.962,148.121 466.016,148.067 466.016,148C466.016,147.933 465.962,147.879 465.895,147.879C465.895,147.879 465.08,147.752 464.36,147.696C463.817,147.653 463.337,147.656 463.337,147.656C463.148,147.656 462.993,147.81 462.993,148C462.993,148.19 463.148,148.344 463.337,148.344Z"/>
                </g>
                <g transform="matrix(0.856193,0,0,0.660643,137.912,25.0499)">
                    <path d="M463.337,148.344C463.337,148.344 463.818,148.347 464.36,148.304C465.086,148.247 465.895,148.121 465.895,148.121C465.982,148.121 466.052,148.067 466.052,148C466.052,147.933 465.982,147.879 465.895,147.879C465.895,147.879 465.086,147.753 464.36,147.696C463.818,147.653 463.337,147.656 463.337,147.656C463.091,147.656 462.89,147.81 462.89,148C462.89,148.19 463.091,148.344 463.337,148.344Z"/>
                </g>
                <g transform="matrix(1.11309,0,0,0.660643,14.6468,23.6768)">
                    <path d="M467.46,151.209C467.46,151.209 467.869,150.219 468.206,149.355C468.287,149.146 468.364,148.944 468.432,148.767C468.432,148.766 469.501,151.341 469.501,151.341C469.523,151.404 469.593,151.437 469.656,151.414C469.719,151.391 469.751,151.322 469.729,151.259L468.682,147.904C468.642,147.795 468.54,147.722 468.424,147.719C468.308,147.717 468.202,147.785 468.158,147.892C468.158,147.892 467.894,148.458 467.609,149.107C467.236,149.957 466.825,150.946 466.825,150.946C466.752,151.121 466.835,151.322 467.011,151.395C467.186,151.468 467.387,151.384 467.46,151.209Z"/>
                </g>
                <g transform="matrix(1.11309,0,0,0.660643,13.2845,23.8239)">
                    <path d="M471.211,148.197C471.211,148.197 471.611,148.776 472.101,149.405C472.748,150.234 473.538,151.147 473.538,151.147C473.576,151.202 473.652,151.215 473.707,151.177C473.762,151.139 473.775,151.063 473.737,151.008C473.737,151.008 473.155,149.951 472.601,149.057C472.181,148.379 471.776,147.803 471.776,147.803C471.667,147.648 471.453,147.609 471.297,147.718C471.141,147.826 471.103,148.041 471.211,148.197Z"/>
                </g>
                <g transform="matrix(1.11309,0,0,-0.660643,13.2845,221.302)">
                    <path d="M471.776,147.803C471.776,147.803 472.181,148.379 472.601,149.057C473.155,149.951 473.737,151.008 473.737,151.008C473.775,151.063 473.762,151.139 473.707,151.177C473.652,151.215 473.576,151.202 473.538,151.147C473.538,151.147 472.748,150.234 472.101,149.405C471.611,148.776 471.211,148.197 471.211,148.197C471.103,148.041 471.141,147.826 471.297,147.718C471.453,147.609 471.667,147.648 471.776,147.803Z"/>
                </g>
                <g transform="matrix(0.565107,0,0,0.389531,252.699,66.7011)">
                    <path d="M506.738,133.421L506.633,136.256C506.628,136.405 506.661,136.551 506.721,136.688C506.782,136.827 506.877,136.953 506.997,137.063C507.118,137.174 507.265,137.259 507.423,137.32C507.582,137.382 507.757,137.414 507.935,137.418C507.935,137.418 512.177,137.52 512.177,137.52C512.379,137.524 512.57,137.469 512.732,137.378C512.895,137.287 513.021,137.15 513.099,136.989C513.178,136.826 513.186,136.65 513.146,136.484C513.106,136.318 513.001,136.165 512.852,136.042L507.685,131.782C507.532,131.657 507.352,131.563 507.16,131.496C506.968,131.427 506.759,131.394 506.548,131.39L490.954,131.172C490.135,131.166 489.392,131.451 488.85,131.91C488.307,132.371 487.974,133.013 487.969,133.722C487.969,133.722 487.969,133.722 487.969,133.722C487.969,135.556 487.95,138.643 487.971,141.944C488.002,146.605 488.097,151.69 488.13,154.278C488.135,154.6 488.21,154.915 488.356,155.205C488.5,155.493 488.707,155.76 488.974,155.983C489.24,156.206 489.549,156.381 489.887,156.497C490.224,156.612 490.585,156.674 490.954,156.67C490.954,156.67 510.954,156.385 510.954,156.385C511.278,156.38 511.594,156.322 511.885,156.213C512.174,156.104 512.441,155.949 512.664,155.75C512.886,155.552 513.06,155.321 513.175,155.07C513.289,154.82 513.349,154.552 513.343,154.278C513.343,154.278 512.991,138.469 512.991,138.469C512.991,138.452 512.975,138.438 512.954,138.438C512.934,138.438 512.917,138.452 512.917,138.469L512.566,154.278C512.562,154.461 512.513,154.639 512.43,154.804C512.347,154.967 512.225,155.115 512.073,155.241C511.923,155.366 511.745,155.46 511.554,155.525C511.365,155.589 511.161,155.618 510.954,155.615L490.954,155.33C490.793,155.328 490.636,155.295 490.491,155.241C490.347,155.187 490.218,155.107 490.107,155.008C489.996,154.91 489.915,154.793 489.857,154.669C489.801,154.546 489.776,154.413 489.779,154.278C489.812,151.69 489.907,146.605 489.937,141.944C489.959,138.643 489.939,135.556 489.94,133.722C489.938,133.48 490.047,133.258 490.23,133.098C490.415,132.936 490.67,132.83 490.954,132.828C490.954,132.828 506.548,132.61 506.548,132.61C506.548,132.61 506.754,132.665 506.754,132.665C506.754,132.665 512.173,136.685 512.173,136.685C512.173,136.685 512.187,136.686 512.187,136.686L512.176,136.706L507.935,136.815C507.847,136.817 507.761,136.808 507.681,136.782C507.6,136.756 507.522,136.719 507.457,136.666C507.391,136.613 507.336,136.552 507.299,136.482C507.262,136.411 507.237,136.335 507.235,136.256C507.235,136.256 507.13,133.421 507.13,133.421C507.13,133.327 507.042,133.252 506.934,133.252C506.826,133.252 506.738,133.327 506.738,133.421Z"/>
                </g>
            </g>
        </g>
    </g>
</svg>
