<?xml version="1.0" encoding="UTF-8" standalone="no"?>
<!DOCTYPE svg PUBLIC "-//W3C//DTD SVG 1.1//EN" "http://www.w3.org/Graphics/SVG/1.1/DTD/svg11.dtd">
<svg width="100%" height="100%" viewBox="0 0 29 28" version="1.1" xmlns="http://www.w3.org/2000/svg" xmlns:xlink="http://www.w3.org/1999/xlink" xml:space="preserve" xmlns:serif="http://www.serif.com/" style="fill-rule:evenodd;clip-rule:evenodd;stroke-linejoin:round;stroke-miterlimit:2;">
    <g transform="matrix(1,0,0,1,-661,-442)">
        <g id="Budget" transform="matrix(1.00379,0,0,1.00366,-4.0086,-4.55125)">
            <rect x="662.774" y="445.153" width="28.364" height="26.847" style="fill:none;"/>
            <g>
                <g transform="matrix(-0.73185,0,4.57497e-15,0.210532,1172.21,451.221)">
                    <path d="M694.874,44.033C695.071,46.338 694.318,48.479 692.968,50.114C691.491,51.904 689.276,52.995 686.801,53.142C684.246,53.217 681.88,52.214 680.21,50.494C678.608,48.845 677.679,46.535 677.714,44.033C677.808,41.57 678.812,39.353 680.443,37.781C682.101,36.182 684.35,35.216 686.801,35.324C689.123,35.441 691.427,36.57 693.089,38.317C694.662,39.971 695.668,42.135 695.541,44.378C695.541,44.405 695.518,44.427 695.49,44.427C695.462,44.427 695.439,44.405 695.439,44.378C695.319,42.251 694.161,40.304 692.506,38.898C690.9,37.534 688.823,36.706 686.801,36.807C684.869,36.892 683.18,37.805 681.984,39.165C680.855,40.451 680.209,42.168 680.28,44.033C680.306,45.855 681.072,47.472 682.218,48.691C683.39,49.94 684.975,50.804 686.801,50.858C688.711,50.972 690.475,50.28 691.808,49.072C693.198,47.811 694.161,46.065 694.335,44.033C694.335,43.888 694.456,43.771 694.605,43.771C694.753,43.771 694.874,43.888 694.874,44.033Z"/>
                </g>
                <g transform="matrix(0.996224,0,0,1.2574,-204.154,394.695)">
                    <path d="M870.504,52.317C870.504,52.317 870.262,53.009 870.285,53.668C870.299,54.071 870.459,54.438 870.717,54.689C871.077,55.017 871.575,55.305 872.182,55.542C872.666,55.73 873.221,55.883 873.822,55.989C874.854,56.169 876.019,56.221 877.178,56.179C879.746,56.084 882.282,55.5 883.476,54.626C883.479,54.624 883.483,54.622 883.486,54.619C883.666,54.465 883.776,54.215 883.82,53.94C883.883,53.541 883.831,53.103 883.8,52.94C883.798,52.918 883.773,52.901 883.745,52.903C883.716,52.905 883.695,52.924 883.698,52.946C883.699,53.105 883.673,53.526 883.547,53.898C883.477,54.104 883.376,54.292 883.219,54.395C882,55.09 879.571,55.333 877.176,55.251C876.112,55.214 875.061,55.098 874.113,54.935C873.595,54.846 873.107,54.752 872.67,54.628C872.178,54.488 871.743,54.34 871.418,54.124C871.23,54.007 871.111,53.803 871.03,53.578C870.823,53 870.806,52.35 870.806,52.35C870.817,52.284 870.758,52.223 870.675,52.214C870.592,52.205 870.516,52.251 870.504,52.317Z"/>
                </g>
                <g transform="matrix(0.996224,0,0,1.2574,-204.154,396.924)">
                    <path d="M870.504,52.317C870.504,52.317 870.262,53.009 870.285,53.668C870.299,54.071 870.459,54.438 870.717,54.689C871.077,55.017 871.575,55.305 872.182,55.542C872.666,55.73 873.221,55.883 873.822,55.989C874.854,56.169 876.019,56.221 877.178,56.179C879.746,56.084 882.282,55.5 883.476,54.626C883.479,54.624 883.483,54.622 883.486,54.619C883.666,54.465 883.776,54.215 883.82,53.94C883.883,53.541 883.831,53.103 883.8,52.94C883.798,52.918 883.773,52.901 883.745,52.903C883.716,52.905 883.695,52.924 883.698,52.946C883.699,53.105 883.673,53.526 883.547,53.898C883.477,54.104 883.376,54.292 883.219,54.395C882,55.09 879.571,55.333 877.176,55.251C876.112,55.214 875.061,55.098 874.113,54.935C873.595,54.846 873.107,54.752 872.67,54.628C872.178,54.488 871.743,54.34 871.418,54.124C871.23,54.007 871.111,53.803 871.03,53.578C870.823,53 870.806,52.35 870.806,52.35C870.817,52.284 870.758,52.223 870.675,52.214C870.592,52.205 870.516,52.251 870.504,52.317Z"/>
                </g>
                <g transform="matrix(0.996224,0,0,1.2574,-204.154,399.099)">
                    <path d="M870.504,52.317C870.504,52.317 870.262,53.009 870.285,53.668C870.299,54.071 870.459,54.438 870.717,54.689C871.077,55.017 871.575,55.305 872.182,55.542C872.666,55.73 873.221,55.883 873.822,55.989C874.854,56.169 876.019,56.221 877.178,56.179C879.746,56.084 882.282,55.5 883.476,54.626C883.479,54.624 883.483,54.622 883.486,54.619C883.666,54.465 883.776,54.215 883.82,53.94C883.883,53.541 883.831,53.103 883.8,52.94C883.798,52.918 883.773,52.901 883.745,52.903C883.716,52.905 883.695,52.924 883.698,52.946C883.699,53.105 883.673,53.526 883.547,53.898C883.477,54.104 883.376,54.292 883.219,54.395C882,55.09 879.571,55.333 877.176,55.251C876.112,55.214 875.061,55.098 874.113,54.935C873.595,54.846 873.107,54.752 872.67,54.628C872.178,54.488 871.743,54.34 871.418,54.124C871.23,54.007 871.111,53.803 871.03,53.578C870.823,53 870.806,52.35 870.806,52.35C870.817,52.284 870.758,52.223 870.675,52.214C870.592,52.205 870.516,52.251 870.504,52.317Z"/>
                </g>
                <g transform="matrix(0.996224,0,0,1.2574,-204.154,401.287)">
                    <path d="M870.504,52.317C870.504,52.317 870.262,53.009 870.285,53.668C870.299,54.071 870.459,54.438 870.717,54.689C871.077,55.017 871.575,55.305 872.182,55.542C872.666,55.73 873.221,55.883 873.822,55.989C874.854,56.169 876.019,56.221 877.178,56.179C879.746,56.084 882.282,55.5 883.476,54.626C883.479,54.624 883.483,54.622 883.486,54.619C883.666,54.465 883.776,54.215 883.82,53.94C883.883,53.541 883.831,53.103 883.8,52.94C883.798,52.918 883.773,52.901 883.745,52.903C883.716,52.905 883.695,52.924 883.698,52.946C883.699,53.105 883.673,53.526 883.547,53.898C883.477,54.104 883.376,54.292 883.219,54.395C882,55.09 879.571,55.333 877.176,55.251C876.112,55.214 875.061,55.098 874.113,54.935C873.595,54.846 873.107,54.752 872.67,54.628C872.178,54.488 871.743,54.34 871.418,54.124C871.23,54.007 871.111,53.803 871.03,53.578C870.823,53 870.806,52.35 870.806,52.35C870.817,52.284 870.758,52.223 870.675,52.214C870.592,52.205 870.516,52.251 870.504,52.317Z"/>
                </g>
                <g transform="matrix(-0.731848,-0.00160882,-0.000462689,0.210531,1186.85,439.486)">
                    <path d="M694.874,44.033C695.071,46.338 694.318,48.479 692.968,50.114C691.491,51.904 689.276,52.995 686.801,53.142C684.246,53.217 681.88,52.214 680.21,50.494C678.608,48.845 677.679,46.535 677.714,44.033C677.808,41.57 678.812,39.353 680.443,37.781C682.101,36.182 684.35,35.216 686.801,35.324C689.123,35.441 691.427,36.57 693.089,38.317C694.662,39.971 695.668,42.135 695.541,44.378C695.541,44.405 695.518,44.427 695.49,44.427C695.462,44.427 695.439,44.405 695.439,44.378C695.319,42.251 694.161,40.304 692.506,38.898C690.9,37.534 688.823,36.706 686.801,36.807C684.869,36.892 683.18,37.805 681.984,39.165C680.855,40.451 680.209,42.168 680.28,44.033C680.306,45.855 681.072,47.472 682.218,48.691C683.39,49.94 684.975,50.804 686.801,50.858C688.711,50.972 690.475,50.28 691.808,49.072C693.198,47.811 694.161,46.065 694.335,44.033C694.335,43.888 694.456,43.771 694.605,43.771C694.753,43.771 694.874,43.888 694.874,44.033Z"/>
                </g>
                <g transform="matrix(0.996222,0.00218999,-0.00276341,1.2574,-189.377,379.935)">
                    <path d="M870.504,52.317C870.504,52.317 870.262,53.009 870.285,53.668C870.299,54.071 870.459,54.438 870.717,54.689C871.077,55.017 871.575,55.305 872.182,55.542C872.666,55.73 873.221,55.883 873.822,55.989C874.854,56.169 876.019,56.221 877.178,56.179C879.746,56.084 882.282,55.5 883.476,54.626C883.479,54.624 883.483,54.622 883.486,54.619C883.666,54.465 883.776,54.215 883.82,53.94C883.883,53.541 883.831,53.103 883.8,52.94C883.798,52.918 883.773,52.901 883.745,52.903C883.716,52.905 883.695,52.924 883.698,52.946C883.699,53.105 883.673,53.526 883.547,53.898C883.477,54.104 883.376,54.292 883.219,54.395C882,55.09 879.571,55.333 877.176,55.251C876.112,55.214 875.061,55.098 874.113,54.935C873.595,54.846 873.107,54.752 872.67,54.628C872.178,54.488 871.743,54.34 871.418,54.124C871.23,54.007 871.111,53.803 871.03,53.578C870.823,53 870.806,52.35 870.806,52.35C870.817,52.284 870.758,52.223 870.675,52.214C870.592,52.205 870.516,52.251 870.504,52.317Z"/>
                </g>
                <g transform="matrix(0.996222,0.00218999,-0.00276341,1.2574,-189.377,388.587)">
                    <path d="M870.504,52.317C870.504,52.317 870.262,53.009 870.285,53.668C870.299,54.071 870.459,54.438 870.717,54.689C871.077,55.017 871.575,55.305 872.182,55.542C872.666,55.73 873.221,55.883 873.822,55.989C874.854,56.169 876.019,56.221 877.178,56.179C879.746,56.084 882.282,55.5 883.476,54.626C883.479,54.624 883.483,54.622 883.486,54.619C883.666,54.465 883.776,54.215 883.82,53.94C883.883,53.541 883.831,53.103 883.8,52.94C883.798,52.918 883.773,52.901 883.745,52.903C883.716,52.905 883.695,52.924 883.698,52.946C883.699,53.105 883.673,53.526 883.547,53.898C883.477,54.104 883.376,54.292 883.219,54.395C882,55.09 879.571,55.333 877.176,55.251C876.112,55.214 875.061,55.098 874.113,54.935C873.595,54.846 873.107,54.752 872.67,54.628C872.178,54.488 871.743,54.34 871.418,54.124C871.23,54.007 871.111,53.803 871.03,53.578C870.823,53 870.806,52.35 870.806,52.35C870.817,52.284 870.758,52.223 870.675,52.214C870.592,52.205 870.516,52.251 870.504,52.317Z"/>
                </g>
                <g transform="matrix(0.996222,0.00218999,-0.00276341,1.2574,-189.377,382.164)">
                    <path d="M870.504,52.317C870.504,52.317 870.262,53.009 870.285,53.668C870.299,54.071 870.459,54.438 870.717,54.689C871.077,55.017 871.575,55.305 872.182,55.542C872.666,55.73 873.221,55.883 873.822,55.989C874.854,56.169 876.019,56.221 877.178,56.179C879.746,56.084 882.282,55.5 883.476,54.626C883.479,54.624 883.483,54.622 883.486,54.619C883.666,54.465 883.776,54.215 883.82,53.94C883.883,53.541 883.831,53.103 883.8,52.94C883.798,52.918 883.773,52.901 883.745,52.903C883.716,52.905 883.695,52.924 883.698,52.946C883.699,53.105 883.673,53.526 883.547,53.898C883.477,54.104 883.376,54.292 883.219,54.395C882,55.09 879.571,55.333 877.176,55.251C876.112,55.214 875.061,55.098 874.113,54.935C873.595,54.846 873.107,54.752 872.67,54.628C872.178,54.488 871.743,54.34 871.418,54.124C871.23,54.007 871.111,53.803 871.03,53.578C870.823,53 870.806,52.35 870.806,52.35C870.817,52.284 870.758,52.223 870.675,52.214C870.592,52.205 870.516,52.251 870.504,52.317Z"/>
                </g>
                <g transform="matrix(0.996222,0.00218999,-0.00276341,1.2574,-189.377,390.816)">
                    <path d="M870.504,52.317C870.504,52.317 870.262,53.009 870.285,53.668C870.299,54.071 870.459,54.438 870.717,54.689C871.077,55.017 871.575,55.305 872.182,55.542C872.666,55.73 873.221,55.883 873.822,55.989C874.854,56.169 876.019,56.221 877.178,56.179C879.746,56.084 882.282,55.5 883.476,54.626C883.479,54.624 883.483,54.622 883.486,54.619C883.666,54.465 883.776,54.215 883.82,53.94C883.883,53.541 883.831,53.103 883.8,52.94C883.798,52.918 883.773,52.901 883.745,52.903C883.716,52.905 883.695,52.924 883.698,52.946C883.699,53.105 883.673,53.526 883.547,53.898C883.477,54.104 883.376,54.292 883.219,54.395C882,55.09 879.571,55.333 877.176,55.251C876.112,55.214 875.061,55.098 874.113,54.935C873.595,54.846 873.107,54.752 872.67,54.628C872.178,54.488 871.743,54.34 871.418,54.124C871.23,54.007 871.111,53.803 871.03,53.578C870.823,53 870.806,52.35 870.806,52.35C870.817,52.284 870.758,52.223 870.675,52.214C870.592,52.205 870.516,52.251 870.504,52.317Z"/>
                </g>
                <g transform="matrix(0.996222,0.00218999,-0.00276341,1.2574,-189.377,397.242)">
                    <path d="M870.504,52.317C870.504,52.317 870.262,53.009 870.285,53.668C870.299,54.071 870.459,54.438 870.717,54.689C871.077,55.017 871.575,55.305 872.182,55.542C872.666,55.73 873.221,55.883 873.822,55.989C874.854,56.169 876.019,56.221 877.178,56.179C879.746,56.084 882.282,55.5 883.476,54.626C883.479,54.624 883.483,54.622 883.486,54.619C883.666,54.465 883.776,54.215 883.82,53.94C883.883,53.541 883.831,53.103 883.8,52.94C883.798,52.918 883.773,52.901 883.745,52.903C883.716,52.905 883.695,52.924 883.698,52.946C883.699,53.105 883.673,53.526 883.547,53.898C883.477,54.104 883.376,54.292 883.219,54.395C882,55.09 879.571,55.333 877.176,55.251C876.112,55.214 875.061,55.098 874.113,54.935C873.595,54.846 873.107,54.752 872.67,54.628C872.178,54.488 871.743,54.34 871.418,54.124C871.23,54.007 871.111,53.803 871.03,53.578C870.823,53 870.806,52.35 870.806,52.35C870.817,52.284 870.758,52.223 870.675,52.214C870.592,52.205 870.516,52.251 870.504,52.317Z"/>
                </g>
                <g transform="matrix(0.996222,0.00218999,-0.00276341,1.2574,-189.377,384.339)">
                    <path d="M870.504,52.317C870.504,52.317 870.262,53.009 870.285,53.668C870.299,54.071 870.459,54.438 870.717,54.689C871.077,55.017 871.575,55.305 872.182,55.542C872.666,55.73 873.221,55.883 873.822,55.989C874.854,56.169 876.019,56.221 877.178,56.179C879.746,56.084 882.282,55.5 883.476,54.626C883.479,54.624 883.483,54.622 883.486,54.619C883.666,54.465 883.776,54.215 883.82,53.94C883.883,53.541 883.831,53.103 883.8,52.94C883.798,52.918 883.773,52.901 883.745,52.903C883.716,52.905 883.695,52.924 883.698,52.946C883.699,53.105 883.673,53.526 883.547,53.898C883.477,54.104 883.376,54.292 883.219,54.395C882,55.09 879.571,55.333 877.176,55.251C876.112,55.214 875.061,55.098 874.113,54.935C873.595,54.846 873.107,54.752 872.67,54.628C872.178,54.488 871.743,54.34 871.418,54.124C871.23,54.007 871.111,53.803 871.03,53.578C870.823,53 870.806,52.35 870.806,52.35C870.817,52.284 870.758,52.223 870.675,52.214C870.592,52.205 870.516,52.251 870.504,52.317Z"/>
                </g>
                <g transform="matrix(0.996222,0.00218999,-0.00276341,1.2574,-189.377,392.991)">
                    <path d="M870.504,52.317C870.504,52.317 870.262,53.009 870.285,53.668C870.299,54.071 870.459,54.438 870.717,54.689C871.077,55.017 871.575,55.305 872.182,55.542C872.666,55.73 873.221,55.883 873.822,55.989C874.854,56.169 876.019,56.221 877.178,56.179C879.746,56.084 882.282,55.5 883.476,54.626C883.479,54.624 883.483,54.622 883.486,54.619C883.666,54.465 883.776,54.215 883.82,53.94C883.883,53.541 883.831,53.103 883.8,52.94C883.798,52.918 883.773,52.901 883.745,52.903C883.716,52.905 883.695,52.924 883.698,52.946C883.699,53.105 883.673,53.526 883.547,53.898C883.477,54.104 883.376,54.292 883.219,54.395C882,55.09 879.571,55.333 877.176,55.251C876.112,55.214 875.061,55.098 874.113,54.935C873.595,54.846 873.107,54.752 872.67,54.628C872.178,54.488 871.743,54.34 871.418,54.124C871.23,54.007 871.111,53.803 871.03,53.578C870.823,53 870.806,52.35 870.806,52.35C870.817,52.284 870.758,52.223 870.675,52.214C870.592,52.205 870.516,52.251 870.504,52.317Z"/>
                </g>
                <g transform="matrix(0.996222,0.00218999,-0.00276341,1.2574,-189.377,399.368)">
                    <path d="M870.504,52.317C870.504,52.317 870.262,53.009 870.285,53.668C870.299,54.071 870.459,54.438 870.717,54.689C871.077,55.017 871.575,55.305 872.182,55.542C872.666,55.73 873.221,55.883 873.822,55.989C874.854,56.169 876.019,56.221 877.178,56.179C879.746,56.084 882.282,55.5 883.476,54.626C883.479,54.624 883.483,54.622 883.486,54.619C883.666,54.465 883.776,54.215 883.82,53.94C883.883,53.541 883.831,53.103 883.8,52.94C883.798,52.918 883.773,52.901 883.745,52.903C883.716,52.905 883.695,52.924 883.698,52.946C883.699,53.105 883.673,53.526 883.547,53.898C883.477,54.104 883.376,54.292 883.219,54.395C882,55.09 879.571,55.333 877.176,55.251C876.112,55.214 875.061,55.098 874.113,54.935C873.595,54.846 873.107,54.752 872.67,54.628C872.178,54.488 871.743,54.34 871.418,54.124C871.23,54.007 871.111,53.803 871.03,53.578C870.823,53 870.806,52.35 870.806,52.35C870.817,52.284 870.758,52.223 870.675,52.214C870.592,52.205 870.516,52.251 870.504,52.317Z"/>
                </g>
                <g transform="matrix(0.996222,0.00218999,-0.00276341,1.2574,-189.377,386.527)">
                    <path d="M870.504,52.317C870.504,52.317 870.262,53.009 870.285,53.668C870.299,54.071 870.459,54.438 870.717,54.689C871.077,55.017 871.575,55.305 872.182,55.542C872.666,55.73 873.221,55.883 873.822,55.989C874.854,56.169 876.019,56.221 877.178,56.179C879.746,56.084 882.282,55.5 883.476,54.626C883.479,54.624 883.483,54.622 883.486,54.619C883.666,54.465 883.776,54.215 883.82,53.94C883.883,53.541 883.831,53.103 883.8,52.94C883.798,52.918 883.773,52.901 883.745,52.903C883.716,52.905 883.695,52.924 883.698,52.946C883.699,53.105 883.673,53.526 883.547,53.898C883.477,54.104 883.376,54.292 883.219,54.395C882,55.09 879.571,55.333 877.176,55.251C876.112,55.214 875.061,55.098 874.113,54.935C873.595,54.846 873.107,54.752 872.67,54.628C872.178,54.488 871.743,54.34 871.418,54.124C871.23,54.007 871.111,53.803 871.03,53.578C870.823,53 870.806,52.35 870.806,52.35C870.817,52.284 870.758,52.223 870.675,52.214C870.592,52.205 870.516,52.251 870.504,52.317Z"/>
                </g>
                <g transform="matrix(0.996222,0.00218999,-0.00276341,1.2574,-189.377,395.117)">
                    <path d="M870.504,52.317C870.504,52.317 870.262,53.009 870.285,53.668C870.299,54.071 870.459,54.438 870.717,54.689C871.077,55.017 871.575,55.305 872.182,55.542C872.666,55.73 873.221,55.883 873.822,55.989C874.854,56.169 876.019,56.221 877.178,56.179C879.746,56.084 882.282,55.5 883.476,54.626C883.479,54.624 883.483,54.622 883.486,54.619C883.666,54.465 883.776,54.215 883.82,53.94C883.883,53.541 883.831,53.103 883.8,52.94C883.798,52.918 883.773,52.901 883.745,52.903C883.716,52.905 883.695,52.924 883.698,52.946C883.699,53.105 883.673,53.526 883.547,53.898C883.477,54.104 883.376,54.292 883.219,54.395C882,55.09 879.571,55.333 877.176,55.251C876.112,55.214 875.061,55.098 874.113,54.935C873.595,54.846 873.107,54.752 872.67,54.628C872.178,54.488 871.743,54.34 871.418,54.124C871.23,54.007 871.111,53.803 871.03,53.578C870.823,53 870.806,52.35 870.806,52.35C870.817,52.284 870.758,52.223 870.675,52.214C870.592,52.205 870.516,52.251 870.504,52.317Z"/>
                </g>
            </g>
        </g>
    </g>
</svg>
