<?xml version="1.0" encoding="UTF-8" standalone="no"?>
<!DOCTYPE svg PUBLIC "-//W3C//DTD SVG 1.1//EN" "http://www.w3.org/Graphics/SVG/1.1/DTD/svg11.dtd">
<svg width="100%" height="100%" viewBox="0 0 16 31" version="1.1" xmlns="http://www.w3.org/2000/svg" xmlns:xlink="http://www.w3.org/1999/xlink" xml:space="preserve" xmlns:serif="http://www.serif.com/" style="fill-rule:evenodd;clip-rule:evenodd;stroke-linejoin:round;stroke-miterlimit:2;">
    <g transform="matrix(1,0,0,1,-747,-445)">
        <g id="ic_features_savings" transform="matrix(0.89445,0,0,0.985147,79.4467,7.31116)">
            <rect x="746.471" y="444.312" width="16.714" height="30.823" style="fill:none;"/>
            <g transform="matrix(1.11801,0,0,0.986656,-89.3482,5.766)">
                <g transform="matrix(-0.00183753,0.452346,-0.37593,-0.00221104,777.243,224.741)">
                    <path d="M491.335,59.998C491.335,59.998 491.332,58.498 491.272,56.798C491.194,54.566 491.03,51.999 491.03,51.999C491.03,51.906 490.965,51.83 490.885,51.831C490.805,51.831 490.74,51.907 490.741,52.001C490.741,52.001 490.602,54.569 490.546,56.802C490.503,58.502 490.514,60.002 490.514,60.002C490.516,60.267 490.701,60.481 490.927,60.48C491.153,60.479 491.336,60.263 491.335,59.998Z"/>
                </g>
                <g transform="matrix(-0.00109174,0.268754,-0.223353,-0.00131366,768.544,315.886)">
                    <path d="M491.615,59.997C491.615,59.997 491.615,58.496 491.52,56.797C491.396,54.556 491.129,51.999 491.129,51.999C491.128,51.842 491.019,51.715 490.884,51.715C490.75,51.716 490.641,51.844 490.642,52.001C490.642,52.001 490.4,54.561 490.298,56.803C490.22,58.502 490.234,60.003 490.234,60.003C490.236,60.449 490.548,60.809 490.929,60.808C491.31,60.806 491.617,60.442 491.615,59.997Z"/>
                </g>
                <g transform="matrix(0.427952,0,0,0.438547,457.734,389.158)">
                    <path d="M694.832,131.247C694.829,131.228 694.828,131.212 694.821,131.214C694.787,131.224 694.803,131.237 694.832,131.247C694.834,131.254 694.835,131.263 694.838,131.271C694.867,131.369 694.915,131.567 694.988,131.839C695.094,132.231 695.213,132.746 695.308,133.281C695.366,133.61 695.403,133.936 695.404,134.235C695.405,134.465 695.391,134.67 695.269,134.806C695.164,134.924 694.984,134.95 694.714,134.94C694.331,134.926 693.834,134.834 693.196,134.615C692.996,134.534 692.766,134.591 692.626,134.757C692.487,134.923 692.469,135.16 692.583,135.345C693.077,136.038 693.638,136.734 694.202,137.369C695.578,138.918 696.901,140.106 696.901,140.106C696.91,140.115 696.925,140.115 696.934,140.107C696.943,140.098 696.943,140.083 696.935,140.074C696.935,140.074 696.061,138.966 695.069,137.499C694.756,137.036 694.432,136.539 694.123,136.03C694.458,136.115 694.744,136.151 694.986,136.147C695.555,136.139 695.942,135.925 696.198,135.636C696.424,135.38 696.563,135.042 696.587,134.652C696.61,134.282 696.55,133.858 696.409,133.434C696.292,133.083 696.14,132.734 695.963,132.416C695.784,132.096 695.6,131.82 695.436,131.596C695.271,131.37 695.141,131.217 695.076,131.139C695.056,131.116 695.044,131.101 695.037,131.094C694.999,131.05 694.973,131.072 694.957,131.114C694.958,131.022 694.909,131.018 694.867,131.042C694.808,131.075 694.787,131.149 694.82,131.208L694.926,131.271C694.926,131.271 694.869,131.261 694.832,131.247Z"/>
                </g>
                <g transform="matrix(0.070011,-0.432398,-0.433332,-0.0742626,726.229,748.618)">
                    <path d="M694.835,44.033C695.001,46.316 694.236,48.434 692.884,50.038C691.413,51.781 689.234,52.851 686.801,52.975C684.3,53.038 681.99,52.048 680.357,50.363C678.789,48.744 677.873,46.486 677.902,44.033C677.981,41.615 678.964,39.436 680.556,37.882C682.178,36.299 684.389,35.342 686.801,35.433C689.101,35.531 691.388,36.642 693.047,38.36C694.625,39.994 695.641,42.144 695.534,44.378C695.534,44.401 695.514,44.42 695.49,44.42C695.466,44.42 695.447,44.401 695.447,44.378C695.344,42.243 694.197,40.278 692.549,38.856C690.938,37.466 688.844,36.611 686.801,36.699C684.832,36.773 683.099,37.685 681.872,39.064C680.708,40.372 680.031,42.125 680.093,44.033C680.115,45.904 680.893,47.572 682.071,48.823C683.278,50.106 684.922,50.978 686.801,51.025C688.752,51.124 690.546,50.394 691.893,49.148C693.28,47.863 694.225,46.083 694.374,44.033C694.374,43.91 694.478,43.81 694.605,43.81C694.732,43.81 694.835,43.91 694.835,44.033Z"/>
                </g>
                <g transform="matrix(0.52515,0,0,0.934645,342.645,326.982)">
                    <path d="M777.136,151.322C778.63,151.338 780.933,151.374 783.39,151.358C787.162,151.333 791.29,151.213 793.426,151.166L793.757,156.515C793.774,156.738 793.733,156.958 793.603,157.164C793.469,157.375 793.279,157.576 793.01,157.744C792.733,157.918 792.413,158.062 792.049,158.159C791.674,158.259 791.272,158.324 790.852,158.333C790.852,158.333 782.954,158.514 782.954,158.514C782.873,158.513 782.807,158.55 782.805,158.597C782.803,158.644 782.868,158.683 782.948,158.684L790.827,159.05C791.422,159.077 792.009,159.026 792.565,158.921C793.132,158.814 793.652,158.634 794.113,158.405C794.583,158.171 794.945,157.883 795.219,157.569C795.498,157.249 795.646,156.896 795.692,156.532L796.34,150.838C796.36,150.65 796.288,150.466 796.183,150.292C796.077,150.117 795.888,149.962 795.669,149.821C795.448,149.679 795.168,149.579 794.875,149.498C794.58,149.418 794.252,149.386 793.92,149.377L793.92,149.377C791.985,149.34 787.479,149.201 783.39,149.175C780.461,149.156 777.752,149.21 776.371,149.218C776.004,149.226 775.642,149.261 775.314,149.348C774.988,149.434 774.678,149.545 774.43,149.7C774.184,149.855 773.973,150.026 773.851,150.22C773.729,150.412 773.646,150.615 773.662,150.824C773.722,151.435 773.804,152.478 773.937,153.607C774.048,154.548 774.201,155.538 774.317,156.389C774.436,157.149 774.99,157.828 775.926,158.286C776.812,158.72 777.949,158.99 779.195,158.935C779.195,158.935 781.628,158.817 781.628,158.817C781.834,158.819 782.005,158.724 782.008,158.605C782.012,158.486 781.848,158.388 781.641,158.385L779.217,158.218C778.385,158.164 777.696,157.905 777.201,157.558C776.749,157.241 776.552,156.823 776.613,156.383C776.715,155.531 776.852,154.541 776.947,153.598C777.033,152.739 777.091,151.929 777.136,151.322ZM777.175,150.814L777.169,150.883L777.172,150.861L777.175,150.814Z"/>
                </g>
                <g transform="matrix(0.540744,-0.534678,0.519707,0.556321,262.715,787.94)">
                    <path d="M766.202,135.974C766.243,135.859 766.183,135.868 766.144,135.909C766.093,135.961 766.095,136.044 766.147,136.094L766.683,137.164C766.922,137.614 767.067,138.085 767.167,138.567C767.266,139.042 767.287,139.521 767.258,140C767.228,140.467 767.127,140.926 766.978,141.375C766.834,141.81 766.644,142.236 766.378,142.629L766.19,142.931L766.048,142.743C765.421,141.936 765.075,140.987 765.016,140.013C764.954,138.993 765.18,137.961 765.728,137.043L766.05,136.499C766.075,136.457 765.976,136.501 765.976,136.501C766.026,136.408 765.994,136.408 765.974,136.429C765.971,136.432 765.968,136.436 765.966,136.441L765.966,136.442C765.966,136.443 765.966,136.445 765.965,136.446L765.963,136.449L765.961,136.455L765.96,136.464L765.957,136.455L765.963,136.449L765.963,136.446L765.966,136.441L765.965,136.439C765.951,136.427 765.952,136.439 765.957,136.455C765.949,136.463 765.938,136.472 765.928,136.484C765.865,136.559 765.735,136.717 765.562,136.926C764.823,137.823 764.415,138.9 764.329,140.007C764.24,141.157 764.526,142.32 765.139,143.36L765.769,144.358C765.796,144.409 765.818,144.437 765.818,144.437L765.845,144.45C765.966,144.506 766.471,144.702 766.812,144.243C766.927,144.089 767.166,143.763 767.461,143.364C767.736,142.965 767.967,142.544 768.124,142.101C768.364,141.423 768.466,140.707 768.424,140C768.389,139.418 768.268,138.843 768.043,138.298C767.828,137.775 767.535,137.289 767.156,136.843L766.354,135.936C766.294,135.868 766.24,135.914 766.202,135.974Z"/>
                </g>
                <g transform="matrix(0.413809,0.643528,-0.62551,0.425729,530.382,-95.6928)">
                    <path d="M766.378,135.971C766.386,135.934 766.385,135.908 766.354,135.936C766.347,135.942 766.359,135.955 766.378,135.971C766.369,136.015 766.347,136.072 766.347,136.072C766.137,136.004 766.109,136.045 766.138,136.084C766.142,136.084 766.146,136.088 766.15,136.097L766.155,136.101L766.162,136.106L766.155,136.107L766.151,136.099L766.15,136.097L766.146,136.093L766.138,136.084L766.135,136.084C766.085,136.11 766.108,136.113 766.155,136.107C766.162,136.127 766.171,136.156 766.185,136.183C766.273,136.357 766.455,136.716 766.683,137.164C766.922,137.614 767.067,138.085 767.167,138.567C767.266,139.042 767.287,139.521 767.258,140C767.228,140.467 767.127,140.926 766.978,141.375C766.834,141.81 766.644,142.236 766.378,142.629L766.19,142.931L766.048,142.743C765.421,141.936 765.075,140.987 765.016,140.013C764.954,138.993 765.18,137.961 765.728,137.043C765.728,137.043 766.054,136.492 766.054,136.492L766.046,136.477C766.032,136.449 765.998,136.4 765.965,136.439L765.562,136.926C764.823,137.823 764.415,138.9 764.329,140.007C764.24,141.157 764.526,142.32 765.139,143.36L765.731,144.331C765.731,144.331 766.743,144.334 766.743,144.334L767.461,143.364C767.736,142.965 767.967,142.544 768.124,142.101C768.364,141.423 768.466,140.707 768.424,140C768.389,139.418 768.268,138.843 768.043,138.298C767.828,137.775 767.535,137.289 767.156,136.843C766.823,136.466 766.557,136.164 766.427,136.018C766.411,136 766.393,135.984 766.378,135.971Z"/>
                </g>
                <g transform="matrix(1,0,0,1.02881,-130.207,311.618)">
                    <path d="M885.623,149.273C885.623,149.273 885.533,148.573 885.66,147.543C885.705,147.181 885.757,146.781 885.861,146.35C886.074,145.469 886.423,144.488 887.139,143.488C887.183,143.441 887.18,143.367 887.133,143.324C887.086,143.28 887.012,143.283 886.969,143.33C885.949,144.186 885.293,145.11 884.867,145.995C884.644,146.459 884.496,146.907 884.4,147.32C884.107,148.587 884.286,149.487 884.286,149.487C884.345,149.856 884.692,150.108 885.061,150.049C885.43,149.99 885.682,149.642 885.623,149.273Z"/>
                </g>
                <g transform="matrix(-1,0,0,1.17532,1639.47,289.528)">
                    <path d="M884.202,149.097C884.202,149.097 884.141,148.451 884.468,147.455C884.535,147.252 884.616,147.033 884.733,146.808C885.158,145.987 885.879,145.061 886.982,144.099C887.021,144.054 887.094,144.046 887.145,144.08C887.196,144.115 887.205,144.179 887.166,144.223C886.712,144.918 886.418,145.565 886.184,146.162C886.013,146.597 885.914,146.996 885.805,147.352C885.483,148.405 885.423,149.076 885.423,149.076C885.43,149.371 885.161,149.615 884.824,149.621C884.487,149.627 884.208,149.392 884.202,149.097Z"/>
                </g>
                <g transform="matrix(-1,0,0,1.17532,1639.44,285.592)">
                    <path d="M884.269,149.722C884.269,149.722 884.687,148.337 884.771,145.958C884.81,144.861 884.776,143.564 884.608,142.095C884.602,142.063 884.627,142.032 884.664,142.027C884.701,142.022 884.735,142.044 884.741,142.076C885.11,143.535 885.312,144.834 885.428,145.94C885.688,148.431 885.469,149.922 885.469,149.922C885.405,150.212 885.085,150.403 884.754,150.347C884.423,150.292 884.205,150.012 884.269,149.722Z"/>
                </g>
            </g>
        </g>
    </g>
</svg>
