<?xml version="1.0" encoding="UTF-8" standalone="no"?>
<!DOCTYPE svg PUBLIC "-//W3C//DTD SVG 1.1//EN" "http://www.w3.org/Graphics/SVG/1.1/DTD/svg11.dtd">
<svg width="100%" height="100%" viewBox="0 0 32 24" version="1.1" xmlns="http://www.w3.org/2000/svg" xmlns:xlink="http://www.w3.org/1999/xlink" xml:space="preserve" xmlns:serif="http://www.serif.com/" style="fill-rule:evenodd;clip-rule:evenodd;stroke-linejoin:round;stroke-miterlimit:2;">
    <g transform="matrix(1,0,0,1,-1003,-1793)">
        <g id="ic_transactions_expense" transform="matrix(0.977597,0,0,0.933233,22.4463,115.846)">
            <rect x="1004" y="1797.89" width="31.364" height="24.453" style="fill:none;"/>
            <g transform="matrix(1.81013,0,0,3.19479,12.1528,1357.91)">
                <g transform="matrix(0.458122,-1.71265e-17,-1.06184e-15,-0.271905,296.449,191.311)">
                    <path d="M553.757,186.468L553.392,178.233C553.384,178.043 553.288,177.882 553.159,177.762C553.037,177.65 552.867,177.598 552.688,177.605L551.182,177.661C551.107,177.663 551.036,177.688 550.969,177.719C550.903,177.748 550.849,177.797 550.799,177.85C550.75,177.902 550.72,177.966 550.696,178.032C550.672,178.095 550.669,178.164 550.671,178.233C550.671,178.233 550.671,178.233 550.671,178.233C550.705,179.475 550.773,181.486 550.812,183.5C550.85,185.515 550.859,187.529 550.873,188.767C550.873,188.852 550.906,188.93 550.961,188.987C551.017,189.044 551.093,189.086 551.18,189.088L553.291,189.148C553.355,189.151 553.42,189.149 553.475,189.121C553.534,189.091 553.593,189.057 553.631,189.001L554.841,187.232C555.043,186.917 555.441,186.793 555.786,186.937L559.874,188.852C559.874,188.852 560.204,188.927 560.204,188.927C560.204,188.927 567.612,188.446 567.612,188.446C567.612,188.446 567.818,188.415 567.818,188.415C567.818,188.415 569.877,187.883 569.877,187.883C569.895,187.877 569.915,187.887 569.92,187.905C569.926,187.923 569.916,187.942 569.898,187.948L567.915,188.717L567.652,188.789C567.652,188.789 560.332,190.027 560.332,190.027C560.18,190.052 560.026,190.05 559.873,190.036C559.719,190.021 559.569,189.981 559.423,189.927L555.82,188.588C555.82,188.588 555.035,189.9 555.035,189.9C554.851,190.207 554.587,190.446 554.287,190.62C553.985,190.795 553.636,190.882 553.276,190.89L551.164,190.913C550.573,190.914 550.04,190.671 549.652,190.285C549.263,189.897 549.026,189.359 549.024,188.767C549.024,188.767 549.024,188.767 549.024,188.767C549.038,187.53 549.046,185.515 549.084,183.5C549.123,181.487 549.191,179.475 549.223,178.233C549.232,177.974 549.282,177.721 549.387,177.489C549.491,177.26 549.632,177.045 549.819,176.87C550.005,176.695 550.217,176.555 550.451,176.467C550.683,176.379 550.931,176.329 551.183,176.337L552.689,176.397C553.191,176.417 553.643,176.62 553.959,176.961C554.269,177.295 554.467,177.74 554.449,178.23C554.449,178.23 554.12,186.467 554.12,186.467C554.121,186.568 554.04,186.649 553.939,186.649C553.839,186.649 553.758,186.568 553.757,186.468Z"/>
                </g>
                <g transform="matrix(0.394352,0.138384,0.233157,-0.234056,289.989,107.219)">
                    <path d="M562.65,186.589C561.965,186.245 561.456,185.981 561.079,185.578C560.815,185.295 560.617,184.945 560.471,184.455C560.456,184.411 560.454,184.36 560.461,184.311C560.467,184.261 560.487,184.213 560.514,184.17C560.542,184.126 560.581,184.092 560.624,184.065C560.668,184.038 560.718,184.023 560.77,184.017C560.77,184.017 560.77,184.017 560.77,184.017C561.623,183.92 562.476,183.892 563.333,183.908C564.607,183.932 565.881,184.058 567.159,184.203C567.331,184.222 567.505,184.198 567.669,184.144C567.83,184.091 567.976,183.999 568.103,183.882C568.228,183.766 568.319,183.623 568.383,183.47C568.446,183.32 568.471,183.156 568.466,182.99L568.463,182.799C568.455,182.534 568.347,182.293 568.183,182.104C568.024,181.919 567.8,181.795 567.545,181.75C566.421,181.537 564.747,181.242 563.288,180.942C562.781,180.838 562.301,180.728 561.878,180.63C561.254,180.484 560.756,180.355 560.474,180.287C560.474,180.287 560.127,180.231 560.127,180.231C560.127,180.231 560.126,180.231 560.126,180.231C559.584,180.208 558.197,180.121 556.985,179.519C556.346,179.202 555.766,178.755 555.378,178.121C555.35,178.083 555.358,178.03 555.395,178.002C555.432,177.974 555.485,177.981 555.513,178.018C555.973,178.516 556.573,178.801 557.196,178.983C557.685,179.127 558.182,179.19 558.636,179.222C559.271,179.268 559.812,179.237 560.095,179.211C560.193,179.202 560.292,179.202 560.391,179.205L560.689,179.234C560.975,179.282 561.484,179.359 562.115,179.471C562.543,179.546 563.028,179.634 563.535,179.737C564.995,180.035 566.649,180.422 567.767,180.667C568.268,180.783 568.698,181.058 568.994,181.442C569.286,181.82 569.46,182.293 569.446,182.799C569.446,182.799 569.439,183.002 569.439,183.002C569.43,183.294 569.362,183.59 569.229,183.857C569.099,184.121 568.916,184.361 568.682,184.55C568.451,184.738 568.187,184.876 567.905,184.949C567.626,185.021 567.333,185.04 567.042,184.988C567.042,184.988 567.041,184.988 567.04,184.987C565.796,184.752 564.553,184.538 563.304,184.42C562.469,184.341 561.634,184.303 560.794,184.334C560.794,184.334 560.764,184.344 560.764,184.344L560.752,184.38C560.752,184.381 560.752,184.382 560.753,184.384C560.85,184.842 561.003,185.176 561.224,185.454C561.558,185.873 562.033,186.166 562.67,186.552C562.68,186.558 562.684,186.57 562.678,186.58C562.673,186.59 562.66,186.594 562.65,186.589Z"/>
                </g>
                <g transform="matrix(0.280027,0.135458,-0.388585,0.282979,483.689,36.1668)">
                    <path d="M480.845,137.985C480.794,137.982 480.804,138.011 480.835,138.034C480.889,138.073 480.986,138.078 481.051,138.047C481.051,138.047 481.107,138.003 481.11,137.917C481.114,137.821 481.123,137.618 481.132,137.378C481.149,136.965 480.874,136.588 480.425,136.311C479.967,136.029 479.324,135.853 478.608,135.843C478.608,135.843 467.337,135.688 467.337,135.688C466.954,135.683 466.579,135.726 466.228,135.806C465.876,135.886 465.553,136.01 465.274,136.166C464.994,136.324 464.776,136.513 464.623,136.718C464.469,136.924 464.388,137.149 464.379,137.378C464.346,138.687 464.269,140.77 464.238,142.929C464.18,146.96 464.209,151.254 464.209,151.254C464.209,151.508 464.559,151.714 464.991,151.714C465.423,151.714 465.773,151.508 465.773,151.254C465.773,151.254 465.802,146.96 465.744,142.929C465.712,140.77 465.636,138.687 465.603,137.378C465.597,137.242 465.634,137.108 465.716,136.984C465.799,136.858 465.92,136.74 466.082,136.641C466.246,136.54 466.438,136.459 466.65,136.404C466.866,136.349 467.098,136.315 467.337,136.312C467.337,136.312 478.608,136.157 478.608,136.157C479.188,136.149 479.72,136.278 480.11,136.496C480.507,136.719 480.762,137.03 480.776,137.378L480.801,137.971L480.845,137.985Z"/>
                </g>
                <g transform="matrix(0.280027,0.135458,-0.388585,0.282979,483.689,36.1668)">
                    <path d="M464.411,154.62L464.265,154.579L464.265,154.83C464.265,155.042 464.333,155.251 464.47,155.443C464.606,155.634 464.803,155.811 465.06,155.96C465.315,156.108 465.614,156.225 465.94,156.302C466.266,156.379 466.616,156.42 466.973,156.417L478.608,156.319C478.99,156.316 479.364,156.27 479.709,156.183C480.052,156.096 480.367,155.971 480.632,155.811C480.896,155.651 481.104,155.465 481.24,155.262C481.377,155.06 481.448,154.843 481.442,154.622C481.442,154.622 480.983,138.859 480.983,138.859C480.983,138.85 480.97,138.842 480.954,138.842C480.938,138.842 480.925,138.85 480.925,138.859L480.466,154.622C480.462,154.766 480.407,154.906 480.311,155.036C480.216,155.165 480.077,155.282 479.902,155.382C479.728,155.481 479.523,155.556 479.303,155.607C479.084,155.658 478.848,155.683 478.608,155.681C478.608,155.681 466.973,155.583 466.973,155.583C466.807,155.581 466.646,155.558 466.497,155.52C466.349,155.482 466.216,155.426 466.102,155.356C465.989,155.287 465.906,155.205 465.848,155.117C465.791,155.031 465.767,154.937 465.771,154.842L465.783,154.591C465.783,154.591 465.503,154.928 465.503,154.928C464.894,154.674 464.563,154.603 464.411,154.62Z"/>
                </g>
                <g transform="matrix(0.102939,-0.0242925,0.0409295,0.0610963,484.134,146.844)">
                    <path d="M662.756,160.562C667.164,160.939 670.736,162.922 673.207,165.91C675.579,168.78 676.893,172.595 676.832,176.849C676.846,181.028 675.047,184.751 672.261,187.468C670.856,188.838 669.201,189.959 667.36,190.735C665.574,191.489 663.626,191.942 661.581,191.973C657.361,192.061 653.509,190.429 650.677,187.727C647.788,184.969 645.934,181.127 645.823,176.823C645.695,172.432 647.028,168.533 649.488,165.628C652.02,162.639 655.716,160.7 660.226,160.318C660.257,160.317 660.281,160.29 660.279,160.259C660.278,160.228 660.251,160.204 660.22,160.205C655.548,160.313 651.629,162.116 648.835,165.04C646.01,167.998 644.353,172.106 644.216,176.823C644.091,181.662 645.967,186.087 649.068,189.336C652.221,192.64 656.658,194.692 661.581,194.796C664.018,194.832 666.364,194.385 668.508,193.525C670.731,192.633 672.745,191.306 674.407,189.64C677.688,186.351 679.634,181.781 679.452,176.797C679.19,171.992 677.451,167.754 674.516,164.736C671.599,161.736 667.554,159.928 662.78,159.962C662.614,159.955 662.474,160.084 662.468,160.25C662.461,160.416 662.591,160.555 662.756,160.562Z"/>
                </g>
                <g transform="matrix(0.151903,-0.113816,0.191765,0.0901575,419.427,227.944)">
                    <path d="M822.012,76.152C822.051,76.081 822.004,76.074 821.964,76.094C821.908,76.122 821.884,76.189 821.912,76.246L821.925,76.266C821.925,76.266 822.139,77.019 822.175,77.84C822.195,78.303 822.141,78.777 821.876,79.121C821.722,79.321 821.467,79.424 821.091,79.473C820.852,79.504 820.571,79.509 820.237,79.483C819.963,79.461 819.656,79.43 819.312,79.365C819.085,79.31 818.849,79.414 818.738,79.62C818.627,79.825 818.668,80.08 818.838,80.24C818.838,80.24 820.001,81.202 821.187,82.148C822.376,83.096 823.573,84.016 823.573,84.016C823.582,84.024 823.595,84.023 823.603,84.015C823.611,84.006 823.611,83.993 823.602,83.984C823.602,83.984 822.611,82.846 821.592,81.717C821.255,81.344 820.917,80.974 820.615,80.646C820.702,80.649 820.786,80.65 820.866,80.648C821.173,80.639 821.439,80.589 821.666,80.512C822.181,80.336 822.527,80.046 822.73,79.685C822.991,79.219 823.055,78.647 822.945,78.084C822.799,77.339 822.422,76.643 822.228,76.323C822.18,76.244 822.145,76.191 822.128,76.164C822.091,76.111 822.049,76.122 822.012,76.152Z"/>
                </g>
                <g transform="matrix(0.159545,-0.119543,0.191765,0.0901575,413.203,232.653)">
                    <path d="M818.899,76.243L818.899,76.243L818.899,76.243C818.899,76.243 818.941,76.316 819.044,76.359C819.089,76.38 819.139,76.391 819.191,76.391L819.19,76.391C819.197,76.391 819.204,76.391 819.212,76.391C819.243,76.391 819.308,76.39 819.401,76.389C819.749,76.383 820.486,76.382 821.291,76.346C822.758,76.281 824.442,76.138 824.442,76.138C824.515,76.138 824.574,76.076 824.574,76C824.574,75.924 824.515,75.862 824.442,75.862C824.442,75.862 822.758,75.719 821.291,75.654C820.486,75.618 819.749,75.617 819.401,75.611L819.193,75.609L818.899,76.243ZM818.899,76.243L818.899,76.243L818.899,76.243L818.899,76.243C818.985,75.609 818.818,75.784 818.818,76C818.818,76.092 818.848,76.176 818.899,76.243Z"/>
                </g>
                <g transform="matrix(0.136473,-0.102255,0.191765,0.0901575,432.527,218.604)">
                    <path d="M818.85,76.243L818.85,76.243L818.85,76.243L818.85,76.243C818.93,76.333 819.053,76.391 819.191,76.391L819.117,76.359C819.195,76.378 819.289,76.391 819.401,76.389C819.749,76.383 820.486,76.382 821.291,76.346C822.76,76.281 824.442,76.138 824.442,76.138C824.527,76.138 824.596,76.076 824.596,76C824.596,75.924 824.527,75.862 824.442,75.862C824.442,75.862 822.76,75.719 821.291,75.654C820.486,75.618 819.749,75.617 819.401,75.611L819.193,75.609L818.85,76.243ZM818.85,76.243L818.85,76.243L818.85,76.243L818.85,76.243C818.95,75.609 818.755,75.784 818.755,76C818.755,76.092 818.791,76.176 818.85,76.243Z"/>
                </g>
            </g>
        </g>
    </g>
</svg>
