<?xml version="1.0" encoding="UTF-8" standalone="no"?>
<!DOCTYPE svg PUBLIC "-//W3C//DTD SVG 1.1//EN" "http://www.w3.org/Graphics/SVG/1.1/DTD/svg11.dtd">
<svg width="100%" height="100%" viewBox="0 0 28 33" version="1.1" xmlns="http://www.w3.org/2000/svg" xmlns:xlink="http://www.w3.org/1999/xlink" xml:space="preserve" xmlns:serif="http://www.serif.com/" style="fill-rule:evenodd;clip-rule:evenodd;stroke-linejoin:round;stroke-miterlimit:2;">
    <g transform="matrix(1,0,0,1,-964,-1793)">
        <g id="ic_transactions_transfer" transform="matrix(1.00273,0,0,1.00027,-2.67316,-0.497266)">
            <rect x="964.946" y="1793.7" width="26.277" height="31.306" style="fill:none;"/>
            <g transform="matrix(1.76475,0,0,2.98067,30.328,1388.18)">
                <g transform="matrix(-0.203964,-0.102057,0.179462,-0.126344,631.139,212.818)">
                    <path d="M560.301,96.152C564.877,96.415 568.867,98.443 571.714,101.47C574.434,104.363 576.037,108.212 575.845,112.405C575.758,116.48 573.895,120.085 571.093,122.746C568.303,125.397 564.536,127.14 560.301,127.188C556.005,127.298 551.982,125.745 549.025,123.136C545.979,120.451 544.021,116.691 544.061,112.451C544.082,108.03 545.433,104.36 547.991,101.573C550.54,98.796 554.234,96.887 558.932,95.952C559.02,95.937 559.08,95.857 559.065,95.772C559.05,95.687 558.966,95.629 558.878,95.644C553.905,96.254 549.914,97.998 547.03,100.698C543.973,103.56 542.182,107.498 541.783,112.36C541.396,117.355 543.413,121.939 546.809,125.31C550.218,128.695 555.054,130.792 560.301,130.926C565.657,130.987 570.582,128.99 574.081,125.609C577.57,122.237 579.623,117.523 579.514,112.405C579.285,107.401 577.063,102.907 573.46,99.796C569.987,96.798 565.332,95.066 560.301,95.356C560.071,95.356 559.885,95.534 559.885,95.754C559.885,95.973 560.071,96.152 560.301,96.152Z"/>
                </g>
                <g transform="matrix(-0.00270065,0.385053,-0.552511,-0.00188212,569.313,-48.604)">
                    <path d="M491.367,59.998C491.367,59.998 491.364,58.498 491.301,56.798C491.217,54.565 491.042,51.999 491.042,51.999C491.041,51.898 490.971,51.816 490.885,51.817C490.799,51.817 490.729,51.9 490.73,52.001C490.73,52.001 490.579,54.568 490.517,56.802C490.471,58.502 490.482,60.002 490.482,60.002C490.484,60.289 490.683,60.521 490.927,60.519C491.171,60.518 491.368,60.285 491.367,59.998Z"/>
                </g>
                <g transform="matrix(-0.00160455,0.228773,-0.328266,-0.00111823,556.529,28.9814)">
                    <path d="M491.669,59.996C491.669,59.996 491.669,58.495 491.568,56.797C491.435,54.554 491.148,51.999 491.148,51.999C491.147,51.829 491.029,51.691 490.884,51.692C490.739,51.692 490.622,51.831 490.623,52.001C490.623,52.001 490.362,54.559 490.25,56.803C490.166,58.502 490.18,60.004 490.18,60.004C490.182,60.486 490.518,60.876 490.929,60.874C491.34,60.872 491.672,60.479 491.669,59.996Z"/>
                </g>
                <g transform="matrix(0.62897,0,0,0.373307,99.7244,91.3537)">
                    <path d="M694.823,131.253C694.82,131.233 694.819,131.217 694.812,131.219C694.775,131.229 694.792,131.242 694.823,131.253C694.824,131.26 694.825,131.268 694.828,131.275C694.855,131.375 694.899,131.573 694.969,131.846C695.069,132.24 695.179,132.754 695.268,133.29C695.323,133.616 695.355,133.939 695.356,134.235C695.356,134.452 695.345,134.645 695.231,134.774C695.134,134.883 694.968,134.902 694.721,134.894C694.34,134.881 693.847,134.794 693.212,134.579C692.995,134.491 692.746,134.552 692.595,134.731C692.444,134.91 692.424,135.165 692.547,135.365C693.046,136.056 693.611,136.75 694.18,137.384C695.567,138.928 696.9,140.107 696.9,140.107C696.909,140.117 696.925,140.117 696.935,140.108C696.945,140.099 696.946,140.083 696.936,140.073C696.936,140.073 696.07,138.96 695.087,137.486C694.793,137.046 694.491,136.576 694.2,136.095C694.505,136.168 694.768,136.198 694.994,136.195C695.582,136.187 695.981,135.961 696.244,135.66C696.473,135.396 696.616,135.051 696.638,134.65C696.658,134.277 696.597,133.848 696.451,133.422C696.33,133.07 696.176,132.721 695.994,132.403C695.811,132.083 695.623,131.811 695.455,131.587C695.285,131.362 695.153,131.211 695.085,131.134C695.066,131.111 695.053,131.097 695.046,131.089C695.005,131.044 694.977,131.066 694.959,131.108C694.96,131.012 694.907,131.008 694.862,131.033C694.798,131.069 694.775,131.149 694.811,131.213L694.926,131.281C694.926,131.281 694.863,131.269 694.823,131.253Z"/>
                </g>
                <g transform="matrix(0.628726,6.01288e-17,-4.69583e-16,0.349085,181.563,103.356)">
                    <path d="M564.083,96.242C565.888,96.124 567.527,96.306 568.992,96.724C569.972,97.004 570.868,97.397 571.679,97.893C572.243,98.236 572.762,98.633 573.243,99.071C573.728,99.513 574.172,100 574.574,100.535C574.97,101.063 575.33,101.629 575.641,102.248C576,102.961 576.3,103.731 576.535,104.563C576.861,105.714 577.072,106.967 577.138,108.332C577.138,108.342 577.146,108.35 577.155,108.35C577.164,108.35 577.171,108.342 577.172,108.332C577.263,106.944 577.206,105.647 576.996,104.443C576.839,103.543 576.597,102.701 576.28,101.917C575.998,101.22 575.656,100.572 575.252,99.98C574.837,99.371 574.358,98.822 573.823,98.34C573.294,97.863 572.708,97.453 572.076,97.108C571.472,96.778 570.826,96.509 570.139,96.305C569.019,95.973 567.797,95.808 566.484,95.825C565.707,95.836 564.901,95.913 564.064,96.054C564.016,96.06 563.981,96.106 563.986,96.158C563.991,96.21 564.035,96.247 564.083,96.242Z"/>
                </g>
                <g transform="matrix(-0.628726,-6.01288e-17,4.69583e-16,-0.349085,892.532,179.248)">
                    <path d="M564.083,96.242C565.888,96.124 567.527,96.306 568.992,96.724C569.972,97.004 570.868,97.397 571.679,97.893C572.243,98.236 572.762,98.633 573.243,99.071C573.728,99.513 574.172,100 574.574,100.535C574.97,101.063 575.33,101.629 575.641,102.248C576,102.961 576.3,103.731 576.535,104.563C576.861,105.714 577.072,106.967 577.138,108.332C577.138,108.342 577.146,108.35 577.155,108.35C577.164,108.35 577.171,108.342 577.172,108.332C577.263,106.944 577.206,105.647 576.996,104.443C576.839,103.543 576.597,102.701 576.28,101.917C575.998,101.22 575.656,100.572 575.252,99.98C574.837,99.371 574.358,98.822 573.823,98.34C573.294,97.863 572.708,97.453 572.076,97.108C571.472,96.778 570.826,96.509 570.139,96.305C569.019,95.973 567.797,95.808 566.484,95.825C565.707,95.836 564.901,95.913 564.064,96.054C564.016,96.06 563.981,96.106 563.986,96.158C563.991,96.21 564.035,96.247 564.083,96.242Z"/>
                </g>
                <g transform="matrix(-5.08498e-18,0.0693301,0.153918,7.00662e-18,524.443,80.0077)">
                    <path d="M820.955,70.925C820.558,71.292 820.111,71.698 819.626,72.128C818.991,72.691 818.296,73.286 817.558,73.889C813.791,76.967 809.423,80.27 809.423,80.27C809.227,80.466 808.857,80.505 808.598,80.356C808.34,80.207 808.289,79.926 808.485,79.73C808.485,79.73 811.502,75.648 814.395,72.067C814.962,71.365 815.53,70.698 816.073,70.082C817.248,68.749 818.272,67.691 818.735,67.188C818.735,67.188 818.735,67.188 818.735,67.188C818.995,66.923 819.336,66.718 819.715,66.571C820.093,66.425 820.518,66.353 820.954,66.349C821.39,66.352 821.816,66.424 822.194,66.571C822.572,66.718 822.915,66.922 823.173,67.188L824.523,68.625C825.358,69.559 826.406,70.779 827.474,72.09C830.382,75.659 833.423,79.73 833.423,79.73C833.62,79.926 833.569,80.207 833.31,80.356C833.051,80.505 832.682,80.466 832.485,80.27C832.485,80.27 828.138,76.952 824.39,73.866C823.093,72.797 821.892,71.763 820.955,70.925Z"/>
                </g>
                <g transform="matrix(5.08498e-18,-0.0693301,-0.153918,-7.00662e-18,549.652,202.596)">
                    <path d="M820.955,70.925C820.558,71.292 820.111,71.698 819.626,72.128C818.991,72.691 818.296,73.286 817.558,73.889C813.791,76.967 809.423,80.27 809.423,80.27C809.227,80.466 808.857,80.505 808.598,80.356C808.34,80.207 808.289,79.926 808.485,79.73C808.485,79.73 811.502,75.648 814.395,72.067C814.962,71.365 815.53,70.698 816.073,70.082C817.248,68.749 818.272,67.691 818.735,67.188C818.735,67.188 818.735,67.188 818.735,67.188C818.995,66.923 819.336,66.718 819.715,66.571C820.093,66.425 820.518,66.353 820.954,66.349C821.39,66.352 821.816,66.424 822.194,66.571C822.572,66.718 822.915,66.922 823.173,67.188L824.523,68.625C825.358,69.559 826.406,70.779 827.474,72.09C830.382,75.659 833.423,79.73 833.423,79.73C833.62,79.926 833.569,80.207 833.31,80.356C833.051,80.505 832.682,80.466 832.485,80.27C832.485,80.27 828.138,76.952 824.39,73.866C823.093,72.797 821.892,71.763 820.955,70.925Z"/>
                </g>
            </g>
        </g>
    </g>
</svg>
