<?xml version="1.0" encoding="UTF-8" standalone="no"?>
<!DOCTYPE svg PUBLIC "-//W3C//DTD SVG 1.1//EN" "http://www.w3.org/Graphics/SVG/1.1/DTD/svg11.dtd">
<svg width="100%" height="100%" viewBox="0 0 32 26" version="1.1" xmlns="http://www.w3.org/2000/svg" xmlns:xlink="http://www.w3.org/1999/xlink" xml:space="preserve" xmlns:serif="http://www.serif.com/" style="fill-rule:evenodd;clip-rule:evenodd;stroke-linejoin:round;stroke-miterlimit:2;">
    <g transform="matrix(1,0,0,1,-846,-400)">
        <g id="Save" transform="matrix(1.00686,0,0,1.00618,-32.0547,-6.00804)">
            <rect x="872.538" y="404.153" width="30.454" height="25.112" style="fill:none;"/>
            <g transform="matrix(0.993191,0,0,0.993856,6.04017,2.56055)">
                <g transform="matrix(1,0,0,0.93726,258.985,346.988)">
                    <path d="M633.268,65.738C633.546,65.257 633.692,64.711 633.692,64.156C633.692,62.41 632.275,60.992 630.53,60.992C628.784,60.992 627.367,62.41 627.367,64.156C627.367,64.711 627.513,65.257 627.791,65.738L633.268,65.738Z"/>
                </g>
                <g transform="matrix(1,0,0,1,258.603,333.952)">
                    <ellipse cx="621.368" cy="81.007" rx="0.649" ry="0.642"/>
                </g>
                <g transform="matrix(1,0,0,1,258.982,334.236)">
                    <path d="M616.463,79.79C616.132,79.778 615.695,79.771 615.3,79.766C615.3,79.766 615.3,79.766 615.3,79.766C614.857,79.761 614.459,79.946 614.16,80.23C613.858,80.517 613.678,80.924 613.66,81.373L613.557,84.346C613.541,84.821 613.729,85.254 614.026,85.58C614.326,85.91 614.757,86.114 615.236,86.143C615.236,86.143 616.191,86.202 616.191,86.202C616.229,86.204 616.261,86.226 616.29,86.248C616.318,86.269 616.332,86.302 616.344,86.336C616.346,86.342 616.348,86.347 616.35,86.353C616.693,87.257 617.46,88.881 618.815,90.256C619.706,91.16 620.85,91.946 622.277,92.38C622.353,93.058 622.47,94.016 622.47,94.016C622.532,94.489 622.924,94.85 623.401,94.872L626.486,95.028C627.005,95.052 627.456,94.673 627.522,94.157L627.726,92.554C627.726,92.554 634.779,92.572 634.779,92.572C634.779,92.572 635.086,94.191 635.086,94.191C635.163,94.627 635.55,94.94 635.992,94.923L638.879,94.772C639.315,94.756 639.667,94.409 639.691,93.973L639.784,91.473C640.968,90.954 641.98,89.979 642.711,88.705C643.721,86.945 644.215,84.625 643.93,82.326C643.525,79.061 641.591,75.826 637.417,74.387C636.433,74.014 634.567,73.871 632.586,73.86C629.527,73.842 626.197,74.113 625.56,74.152C625.373,73.287 624.979,72.647 624.528,72.183C623.706,71.335 622.704,71.075 622.487,71.089C622.467,71.09 622.451,71.107 622.452,71.127C622.453,71.148 622.47,71.163 622.49,71.163C622.699,71.159 623.646,71.456 624.396,72.305C624.819,72.784 625.178,73.441 625.302,74.322C625.312,74.388 625.366,74.437 625.432,74.442C625.565,74.456 629.236,74.295 632.57,74.458C634.441,74.549 636.203,74.738 637.129,75.135C637.133,75.137 637.137,75.138 637.141,75.139C640.823,76.58 642.466,79.517 642.715,82.452C642.885,84.46 642.399,86.462 641.466,87.961C640.791,89.046 639.875,89.859 638.79,90.149C638.464,90.242 638.232,90.532 638.214,90.871L638.057,93.101C638.057,93.101 636.709,93.134 636.709,93.134C636.709,93.134 636.444,91.497 636.444,91.497C636.368,91.062 635.993,90.743 635.551,90.737L626.859,90.555C626.352,90.549 625.921,90.924 625.857,91.427L625.658,92.995C625.658,92.995 624.309,92.939 624.309,92.939C624.251,92.509 624.185,92.016 624.151,91.735L624.134,91.595C624.134,91.58 624.133,91.566 624.132,91.551C624.104,91.114 623.784,90.752 623.354,90.668C621.985,90.421 620.913,89.746 620.088,88.96C618.911,87.84 618.212,86.502 617.893,85.747C617.755,85.406 617.533,85.12 617.246,84.922C616.959,84.723 616.616,84.598 616.251,84.592L615.293,84.58C615.232,84.579 615.171,84.567 615.13,84.526C615.086,84.482 615.047,84.427 615.046,84.36C615.046,84.36 614.999,81.385 614.999,81.385C614.997,81.292 615.019,81.202 615.078,81.139C615.141,81.072 615.223,81.016 615.323,81.011C615.864,80.984 616.491,80.956 616.777,80.96L616.817,80.958L616.805,80.955L616.818,80.958L616.817,80.958L616.827,80.96L616.832,80.961L616.845,80.965C616.913,80.979 616.982,80.98 617.048,80.97L617.049,80.97C617.221,80.944 617.376,80.839 617.463,80.679C617.522,80.58 617.58,80.402 617.536,80.23C617.583,79.261 618.047,78.424 618.609,77.746C619.653,76.488 621.026,75.753 621.026,75.753C621.148,75.693 621.227,75.569 621.228,75.432L621.107,70.919C621.109,70.811 621.021,70.722 620.913,70.721C620.805,70.72 620.716,70.807 620.715,70.915L620.517,75.199C619.988,75.469 618.477,76.32 617.446,77.666C616.977,78.277 616.616,78.99 616.463,79.79ZM617.143,80.946C617.099,80.961 617.054,80.97 617.008,80.974L617.011,80.974L617.048,80.97L617.084,80.963C617.096,80.96 617.108,80.957 617.12,80.954L617.143,80.946ZM616.856,80.966L616.865,80.968L616.856,80.966ZM616.818,80.958L616.832,80.961L616.836,80.962L616.819,80.958L616.818,80.958ZM616.743,80.933L616.756,80.938L616.798,80.953C616.78,80.947 616.761,80.941 616.743,80.933ZM617.16,80.94L617.151,80.943L617.16,80.94ZM616.539,80.791L616.548,80.799L616.537,80.789L616.539,80.791ZM616.515,80.762L616.521,80.769L616.515,80.762Z"/>
                </g>
            </g>
        </g>
    </g>
</svg>
