<?xml version="1.0" encoding="UTF-8" standalone="no"?>
<!DOCTYPE svg PUBLIC "-//W3C//DTD SVG 1.1//EN" "http://www.w3.org/Graphics/SVG/1.1/DTD/svg11.dtd">
<svg width="100%" height="100%" viewBox="0 0 32 31" version="1.1" xmlns="http://www.w3.org/2000/svg" xmlns:xlink="http://www.w3.org/1999/xlink" xml:space="preserve" xmlns:serif="http://www.serif.com/" style="fill-rule:evenodd;clip-rule:evenodd;stroke-linejoin:round;stroke-miterlimit:2;">
    <g transform="matrix(1,0,0,1,-737,-400)">
        <g id="Categories" transform="matrix(0.925455,0,0,0.919887,60.0532,30.0796)">
            <rect x="732.38" y="402.936" width="32.679" height="32.718" style="fill:none;"/>
            <g transform="matrix(1.08055,0,0,1.08709,-61.7655,-38.0694)">
                <g transform="matrix(0.486282,-0.541206,-0.557999,-0.50137,432.507,805.979)">
                    <path d="M694.874,44.033C695.071,46.338 694.318,48.479 692.968,50.114C691.491,51.904 689.276,52.995 686.801,53.142C684.246,53.217 681.88,52.214 680.21,50.494C678.608,48.845 677.679,46.535 677.714,44.033C677.808,41.57 678.812,39.353 680.443,37.781C682.101,36.182 684.35,35.216 686.801,35.324C689.123,35.441 691.427,36.57 693.089,38.317C694.662,39.971 695.668,42.135 695.541,44.378C695.541,44.405 695.518,44.427 695.49,44.427C695.462,44.427 695.439,44.405 695.439,44.378C695.319,42.251 694.161,40.304 692.506,38.898C690.9,37.534 688.823,36.706 686.801,36.807C684.869,36.892 683.18,37.805 681.984,39.165C680.855,40.451 680.209,42.168 680.28,44.033C680.306,45.855 681.072,47.472 682.218,48.691C683.39,49.94 684.975,50.804 686.801,50.858C688.711,50.972 690.475,50.28 691.808,49.072C693.198,47.811 694.161,46.065 694.335,44.033C694.335,43.888 694.456,43.771 694.605,43.771C694.753,43.771 694.874,43.888 694.874,44.033Z"/>
                </g>
                <g transform="matrix(0.979167,-5.85273e-18,-7.62644e-18,0.979167,74.2549,363.562)">
                    <path d="M704.954,43.8C704.954,43.8 701.257,43.512 697.954,43.314C696.857,43.248 695.808,43.205 694.954,43.162C694.162,43.131 693.443,43.449 692.904,43.95C692.355,44.46 692.028,45.192 692.001,46C692.001,46 692.001,46 692.001,46C691.982,47.11 691.938,48.555 691.935,50C691.931,51.445 691.968,52.89 691.98,54C691.98,54 691.98,54 691.98,54C692.003,54.815 692.333,55.553 692.883,56.072C693.424,56.583 694.151,56.908 694.954,56.885L702.954,56.591C703.661,56.562 704.298,56.27 704.741,55.787C705.173,55.316 705.442,54.689 705.411,54L704.992,44.909C704.992,44.888 704.975,44.871 704.954,44.871C704.934,44.871 704.917,44.888 704.917,44.909L704.497,54C704.479,54.417 704.281,54.78 703.996,55.042C703.724,55.292 703.353,55.425 702.954,55.409C702.954,55.409 694.954,55.115 694.954,55.115C694.652,55.107 694.39,54.96 694.198,54.757C694.013,54.561 693.92,54.29 693.928,54C693.941,52.89 693.978,51.445 693.974,50C693.97,48.555 693.926,47.11 693.908,46C693.898,45.703 693.989,45.424 694.176,45.222C694.374,45.009 694.641,44.85 694.954,44.838C695.808,44.795 696.857,44.752 697.954,44.686C701.257,44.488 704.954,44.2 704.954,44.2C705.065,44.2 705.155,44.111 705.155,44C705.155,43.889 705.065,43.8 704.954,43.8Z"/>
                </g>
                <g transform="matrix(-0.909173,6.57967e-17,-1.78618e-16,0.834124,1373.9,379.263)">
                    <path d="M677.139,51.878C677.139,51.878 678.845,54.383 680.742,57.302C681.326,58.201 681.918,59.136 682.488,60.05C683.102,61.036 683.676,61.995 684.186,62.83C684.477,63.32 684.609,63.875 684.615,64.427C684.621,64.982 684.47,65.535 684.189,66.037C683.91,66.528 683.507,66.924 683.033,67.194C682.59,67.448 682.081,67.583 681.554,67.585C681.554,67.585 681.554,67.585 681.554,67.585C680.455,67.563 679.181,67.551 677.874,67.511C675.954,67.453 673.968,67.352 672.355,67.286C671.875,67.264 671.415,67.136 671.019,66.89C670.605,66.632 670.247,66.28 670.01,65.834C669.775,65.389 669.648,64.906 669.663,64.421C669.678,63.944 669.796,63.468 670.055,63.049C670.055,63.049 676.54,52.82 676.54,52.82C676.552,52.8 676.577,52.793 676.596,52.806C676.615,52.819 676.621,52.846 676.609,52.867L671.159,63.779C671.062,63.975 671.035,64.191 671.047,64.401C671.058,64.602 671.139,64.792 671.252,64.966C671.371,65.15 671.546,65.277 671.735,65.372C671.923,65.467 672.137,65.496 672.355,65.486C673.968,65.421 675.954,65.32 677.874,65.261C679.181,65.222 680.455,65.21 681.554,65.188C681.723,65.189 681.886,65.147 682.03,65.068C682.163,64.995 682.285,64.898 682.366,64.763C682.437,64.649 682.487,64.525 682.492,64.395C682.497,64.261 682.481,64.122 682.417,63.999C681.974,63.12 681.46,62.122 680.942,61.071C680.462,60.098 679.975,59.093 679.514,58.112C678.018,54.929 676.77,52.122 676.77,52.122C676.708,52.011 676.741,51.866 676.842,51.799C676.944,51.732 677.077,51.767 677.139,51.878Z"/>
                </g>
                <g transform="matrix(-0.919489,0,0,0.921819,1372.41,374.316)">
                    <path d="M686.264,51.816L692.428,54.726C692.666,54.863 692.813,55.116 692.813,55.39C692.813,55.39 692.952,57.567 693.031,59.458C693.091,60.899 693.112,62.17 693.112,62.17C693.112,62.551 692.909,62.903 692.578,63.093C692.578,63.093 691.12,63.965 689.638,64.794C688.154,65.623 686.648,66.408 686.648,66.408C686.344,66.583 685.97,66.583 685.666,66.408L679.921,62.774C679.704,62.65 679.571,62.419 679.571,62.17L679.923,55.39C679.923,55.266 679.99,55.151 680.098,55.089L685.003,52.636C685.022,52.625 685.047,52.631 685.058,52.65C685.069,52.67 685.062,52.694 685.043,52.705L680.627,55.571C680.627,55.571 680.947,61.737 680.947,61.737C680.947,61.737 686.112,64.433 686.112,64.433C686.649,64.097 687.6,63.508 688.563,62.937C689.49,62.387 690.428,61.854 690.989,61.538C691.001,61.031 691.023,60.272 691.057,59.458C691.116,58.048 691.208,56.479 691.251,55.772C691.251,55.773 686.05,52.184 686.05,52.184C685.948,52.126 685.913,51.995 685.972,51.894C686.031,51.792 686.162,51.757 686.264,51.816Z"/>
                </g>
            </g>
        </g>
    </g>
</svg>
